<svg width="193" height="120" viewBox="0 0 193 120" fill="none" xmlns="http://www.w3.org/2000/svg">
<path fill-rule="evenodd" clip-rule="evenodd" d="M96.75 119.54C92.481 118.872 86.389 117.734 78.75 116.176C74.075 115.223 66.009 113.728 60.825 112.856C54.332 111.762 50.349 110.822 48.022 109.832C44.268 108.234 34.836 106.358 30.538 106.353C27.057 106.349 19.096 105.152 15.649 104.115C9.78499 102.349 8.25 99.2057 8.25 88.9587C8.25 81.5397 8.62898 82.2417 4.30298 81.6577C2.03898 81.3527 0 79.6587 0 78.0827C0 76.8807 3.04802 73.8197 6.13702 71.9197C7.17502 71.2817 8.38102 70.0497 8.81702 69.1827C9.25302 68.3157 10.399 66.7827 11.362 65.7757C12.985 64.0817 13.207 62.8557 11.893 62.8557C10.776 62.8557 7.87103 60.1687 7.16803 58.4867C6.68003 57.3187 6.34597 53.9367 6.14697 48.1707C5.82897 38.8927 6.03403 37.8277 8.57703 35.5607C9.97303 34.3167 15.297 31.2797 20.5 28.7577C25.893 26.1447 34.341 22.1617 37.25 20.8597C38.625 20.2447 40.65 19.3387 41.75 18.8467C51.734 14.3797 69.707 7.89571 70.343 8.53171C70.865 9.05371 69.923 9.5757 62.75 12.7417C59.45 14.1987 56.3 15.6007 55.75 15.8577C55.2 16.1157 52.725 17.2037 50.25 18.2757C47.775 19.3487 42.712 21.6927 39 23.4847C35.288 25.2777 30 27.6887 27.25 28.8447C19.932 31.9197 11.562 36.3687 10.46 37.7697C8.03302 40.8557 10.075 42.4777 19.375 44.8517C23.681 45.9507 21.003 47.1117 15.966 46.3297C14.197 46.0557 12.124 45.5807 11.359 45.2757C10.594 44.9707 9.84399 44.8447 9.69299 44.9957C9.28799 45.4017 11.076 57.9987 11.643 58.7337C12.223 59.4857 18.954 61.5047 23.5 62.2907C25.288 62.5997 29.45 63.0857 32.75 63.3707C43.123 64.2667 45.663 64.6877 48.85 66.0357C50.555 66.7567 54.267 67.6927 57.1 68.1147C62.599 68.9337 71.407 70.4867 82.75 72.6377C92.584 74.5027 94.644 74.7657 99.77 74.8137C108.054 74.8907 108.625 74.6397 132.024 60.6247C140.076 55.8027 147.444 51.6417 148.398 51.3787C149.352 51.1147 150.947 50.3637 151.941 49.7087C154.8 47.8257 161.077 44.3587 161.691 44.3227C161.999 44.3057 166.412 42.2137 171.5 39.6757L180.75 35.0617L180.614 31.0837C180.539 28.8957 180.677 25.9057 180.921 24.4387C181.271 22.3287 181.22 21.7167 180.676 21.5077C180.297 21.3627 179.709 21.4617 179.369 21.7277C179.028 21.9927 178.019 22.4567 177.125 22.7567C174.588 23.6107 175.052 22.3167 178.003 20.3087C180.914 18.3287 181.46 17.1927 180.18 15.7787C178.739 14.1857 176.51 13.4937 169.139 12.3497C165.35 11.7617 161.125 11.0797 159.75 10.8337C158.375 10.5887 155.675 10.1437 153.75 9.84571C151.825 9.54871 148.9 9.08372 147.25 8.81272C141.711 7.90372 118.662 4.70371 106.019 3.08771C95.781 1.77971 86.142 2.4417 78.5 4.9787C76.438 5.6637 74.075 6.37071 73.25 6.54971C70.371 7.17571 76.733 3.57672 80.998 2.16672C89.178 -0.536281 91.511 -0.595284 113.25 1.35172C125.324 2.43372 153.96 6.24172 162 7.83472C163.237 8.07972 165.6 8.52071 167.25 8.81571C175.731 10.3297 178.467 10.9957 180.754 12.1007C184.738 14.0257 185 14.8107 185 24.8187C185 33.1027 184.96 33.4367 183.757 35.2417C183.073 36.2667 181.723 37.6407 180.757 38.2947C179.791 38.9497 179 39.7067 179 39.9787C179 40.2507 179.675 41.2427 180.5 42.1817C183.447 45.5377 182.01 46.7947 178.544 43.8927C177.206 42.7727 175.805 41.8557 175.431 41.8567C175.056 41.8567 173.513 42.7047 172 43.7397C170.487 44.7757 168.576 45.9207 167.752 46.2847L166.254 46.9457L167.655 48.1507C168.425 48.8137 169.396 49.3557 169.813 49.3557C171.033 49.3557 170.413 51.5187 169 52.1897C168.312 52.5157 166.4 52.8557 164.75 52.9447C161.962 53.0947 161.739 53.0257 161.59 51.9807C161.462 51.0807 161.672 50.8557 162.638 50.8557C163.876 50.8557 165.5 49.4857 165.5 48.4417C165.5 47.6777 164.974 47.7027 163.202 48.5497C162.403 48.9317 159.388 50.3257 156.5 51.6487C149.871 54.6847 148.5 55.6147 148.5 57.0727C148.5 58.8337 143.639 63.6237 141.072 64.3937C139.374 64.9017 138.85 64.9007 138.359 64.3877C137.651 63.6487 137.541 63.7357 142.928 60.7807C145.402 59.4237 146.442 58.5977 146.103 58.2587C145.558 57.7137 141.462 59.5417 138.75 61.5397C137.925 62.1477 136.294 63.0637 135.125 63.5767C133.073 64.4757 132.23 65.8557 133.732 65.8557C134.881 65.8557 135.503 67.4537 134.83 68.6767C134.074 70.0517 131.302 72.3557 130.403 72.3557C129.434 72.3557 128.5 71.3337 128.5 70.2737C128.5 69.0667 130.187 68.2607 131.865 68.6657L133.25 68.9997L131.849 67.6777C131.079 66.9507 130.324 66.3557 130.172 66.3557C130.02 66.3557 127.782 67.6497 125.199 69.2307C121.1 71.7397 120.536 72.2507 120.765 73.2477C121.012 74.3227 120.889 74.3837 118.639 74.2927C116.786 74.2187 115.296 74.6357 112 76.1507L107.75 78.1057H98.375C93.219 78.1057 89 78.2797 89 78.4927C89 78.7057 89.541 79.0857 90.201 79.3377C93.139 80.4537 92.257 81.9677 89.018 81.3657C86.949 80.9807 86.054 80.3057 84.75 78.1457C84.187 77.2127 72.535 74.6547 71.854 75.3147C71.218 75.9307 72.752 76.8827 74.83 77.1627C78.314 77.6307 79 77.8667 79 78.5977C79 79.7257 77.048 80.4937 74.909 80.2067C72.611 79.8987 69.811 77.9067 68.726 75.8087C67.726 73.8757 66.111 73.2717 61.5 73.1077C59.438 73.0337 57.367 72.8147 56.899 72.6207C55.936 72.2207 54.847 72.7037 55.249 73.3537C55.636 73.9797 49.975 74.5847 49.069 74.0137C47.646 73.1157 47.908 72.4227 49.729 72.2627C51.849 72.0767 52.13 71.1767 50.141 70.9417C49.376 70.8507 47.18 70.3447 45.26 69.8167C40.315 68.4547 38.309 68.5307 37.591 70.1057C36.939 71.5357 35.87 71.6677 33.378 70.6267C31.866 69.9947 31.508 69.9927 30.692 70.6107C29.21 71.7327 22.423 71.6087 20.972 70.4337C19.048 68.8757 20.959 66.4657 23.072 67.7847C23.589 68.1077 24.56 68.2347 25.229 68.0667C25.975 67.8787 26.886 68.0697 27.584 68.5587C29.031 69.5717 30.943 69.5847 31.327 68.5837C31.73 67.5347 31.361 67.2647 28.88 66.7977C27.708 66.5777 24.35 65.9157 21.417 65.3287L16.084 64.2597L14.167 66.3797C13.113 67.5457 11.575 69.4717 10.75 70.6597C9.925 71.8477 8.069 73.7467 6.625 74.8807C5.181 76.0137 4 77.1427 4 77.3887C4 79.1627 15.342 79.0307 22.955 77.1697C30.364 75.3577 31.228 75.5237 35.464 79.5797C37.272 81.3087 39.596 83.1177 40.63 83.5997C41.664 84.0807 43.177 85.3167 43.993 86.3467C45.041 87.6707 46.15 88.4077 47.777 88.8627C49.845 89.4427 50.466 89.3927 53.914 88.3707C56.024 87.7457 59 86.7057 60.528 86.0607C67.212 83.2367 73.276 83.1217 77.091 85.7467C78.378 86.6317 79.615 87.3557 79.84 87.3557C80.066 87.3557 81.712 88.2557 83.5 89.3557C85.288 90.4557 87.38 91.3557 88.15 91.3557C89.696 91.3557 92.5 90.0847 92.5 89.3837C92.5 89.1377 93.306 88.4397 94.29 87.8307C95.777 86.9117 96.561 86.7697 98.915 86.9947C100.474 87.1427 103.002 87.8447 104.531 88.5537C106.061 89.2627 108.048 89.9907 108.947 90.1697C110.454 90.4717 110.786 90.2757 113.236 87.6427C115.493 85.2177 116.333 84.6747 118.821 84.0287C121.337 83.3757 122.278 82.7577 125.5 79.6387L129.25 76.0097L134.01 75.6807C136.629 75.4997 139.554 75.1177 140.51 74.8307C141.467 74.5447 144.914 74.2197 148.171 74.1097C155.416 73.8657 156.045 73.5427 156.863 69.6397C157.696 65.6677 160.669 59.6877 162.362 58.5777C163.443 57.8697 165.631 57.5307 172.25 57.0447C180.996 56.4017 184.042 55.8767 186.553 54.5787C188.463 53.5907 188.379 53.0697 186.125 51.9187C182.574 50.1067 181.356 47.3507 184.109 47.3597C185.99 47.3657 191.642 50.4737 192.473 51.9577C193.169 53.2017 193.149 53.4217 192.224 54.7077C191.672 55.4767 189.819 56.7807 188.106 57.6057L184.993 59.1057L185.362 61.3557C185.565 62.5937 185.712 65.8647 185.689 68.6257C185.617 77.1817 184.59 78.2937 170.316 85.2627C161.827 89.4077 155.679 92.8477 140.483 101.954C118.044 115.401 114.274 117.506 110.559 118.663C108.187 119.401 99.424 119.958 96.75 119.54ZM108.593 115.641C111.622 114.917 116.015 112.652 124.5 107.442C129.981 104.077 131.085 103.381 140.5 97.3617C143.662 95.3397 147.825 92.7847 149.75 91.6827C151.675 90.5817 154.455 88.9047 155.928 87.9567C162.777 83.5467 167.907 81.4917 168.733 82.8287C168.894 83.0887 170.876 82.3457 173.138 81.1787C175.399 80.0107 178.195 78.6957 179.349 78.2557L181.449 77.4567L181.599 69.7807C181.682 65.5597 181.675 61.9287 181.584 61.7117C181.492 61.4947 180.747 61.9737 179.927 62.7757C178.405 64.2627 172.194 67.2167 171.676 66.6987C171.186 66.2087 173.436 63.4767 175.259 62.3497C176.217 61.7587 177 61.0677 177 60.8147C177 60.0817 175.075 60.2837 173.741 61.1577C172.75 61.8067 172.215 61.8547 170.934 61.4077C168.349 60.5067 166.218 60.7367 164.608 62.0917C163.223 63.2577 159.5 69.6067 159.5 70.8037C159.5 71.8347 162.159 71.3617 164.827 69.8557C169.153 67.4137 170.536 68.0557 166.994 70.8607C165.89 71.7347 163.852 72.7487 162.464 73.1157C160.018 73.7607 159.246 74.3057 152.867 79.9007C150.242 82.2027 148.989 82.7017 142.925 83.8647C140.914 84.2497 138.765 85.2627 135.461 87.3807C132.909 89.0167 130.606 90.3557 130.344 90.3557C129.5 90.3557 121.798 94.4447 120.342 95.6657C118.238 97.4307 113.546 100.046 111 100.874C107.311 102.074 94.881 101.807 89.25 100.408C79.176 97.9027 73.585 96.7487 68.311 96.0827C66.97 95.9137 65.563 95.6567 65.186 95.5117C64.145 95.1127 64.366 94.3557 65.525 94.3557C66.088 94.3557 67.27 93.9837 68.149 93.5287C69.641 92.7567 70.138 92.7597 75.5 93.5687C78.662 94.0457 82.213 94.6737 83.389 94.9647C84.566 95.2557 85.672 95.3497 85.848 95.1747C86.23 94.7917 86.383 94.9297 83.093 92.6947C79.517 90.2647 76.291 89.7657 72.879 91.1147C72.307 91.3417 71.902 91.1827 71.698 90.6517C71.305 89.6257 72.336 88.3557 73.561 88.3557C74.745 88.3557 74.792 87.5447 73.625 87.2547C72.111 86.8787 62.911 88.6457 59 90.0647C56.938 90.8127 54.519 91.6887 53.625 92.0127C52.731 92.3357 52.001 92.7137 52.002 92.8527C52.003 92.9917 53.394 93.5557 55.093 94.1057C56.792 94.6557 58.282 95.4177 58.405 95.7977C58.589 96.3707 57.673 96.4447 53.129 96.2257C50.105 96.0797 47.173 95.7157 46.614 95.4167C46.054 95.1167 44.844 93.9747 43.923 92.8767C42.251 90.8827 42.246 90.8807 37.25 90.3837C34.5 90.1097 30.788 89.6447 29 89.3487C27.212 89.0537 24.4 88.6137 22.75 88.3717C18.55 87.7557 14.436 86.4337 13.218 85.3087C11.751 83.9547 11.5 84.1017 11.5 86.3147C11.5 89.5397 12.549 91.0637 13.25 88.8557C14.012 86.4537 17 88.4887 17 91.4097C17 92.4537 17.265 93.8897 17.589 94.6007C18.075 95.6677 18.035 96.0347 17.364 96.7067C16.331 97.7397 15.37 97.0407 13.923 94.2047C12.622 91.6537 11.842 92.3467 12.436 95.5267C12.983 98.4547 14.045 99.6867 17.25 101.112C22.525 103.456 28.616 104.479 36.988 104.427C45.52 104.373 47.705 104.761 50.777 106.874C53.303 108.612 53.788 108.73 61 109.355C64.163 109.63 67.763 110.053 69 110.297C76.118 111.698 81.937 112.972 87.25 114.293C90.55 115.113 93.812 115.882 94.5 116.002C97.331 116.495 105.943 116.274 108.593 115.641ZM106.121 98.3887C110.805 97.7847 117.5 94.5387 117.5 92.8727C117.5 92.6467 116.656 92.6567 115.625 92.8967C114.594 93.1357 112.303 93.3377 110.535 93.3437C108.768 93.3507 106.608 93.6137 105.736 93.9287C103.771 94.6397 102.021 94.2297 100.091 92.6057C98.275 91.0777 97.561 91.0527 95.14 92.4337C91.515 94.5027 90.743 94.8497 89.75 94.8607C89.2 94.8657 88.443 95.0657 88.067 95.3037C86.797 96.1087 96.327 98.5697 101.5 98.7737C102.188 98.8007 104.267 98.6277 106.121 98.3887ZM104.353 91.5467C104.549 90.9577 101.551 90.1387 101.046 90.6427C100.613 91.0767 102.61 92.4077 103.449 92.2447C103.844 92.1687 104.251 91.8547 104.353 91.5467ZM124.564 89.1257C129.534 88.1747 133.749 85.7307 135.625 82.7127C136.381 81.4967 137 80.3557 137 80.1787C137 80.0007 135.771 79.8557 134.27 79.8557C132.355 79.8557 131.347 80.0967 130.895 80.6637C130.237 81.4867 128.801 82.8327 125.487 85.7307C123.838 87.1727 123.295 87.3557 120.66 87.3557C117.605 87.3557 115.56 88.2387 116.203 89.2797C116.688 90.0637 119.979 90.0027 124.564 89.1257ZM38 86.8367C38 86.5507 37.003 85.7067 35.785 84.9617C34.567 84.2157 33.104 82.7857 32.533 81.7837C30.955 79.0137 29.234 78.6867 25 80.3557C23.265 81.0397 21.284 81.3557 18.731 81.3557C15.771 81.3557 15 81.5087 15 82.0957C15 83.7307 22.131 86.2937 27 86.4087C28.513 86.4447 30.425 86.6457 31.25 86.8557C33.55 87.4407 38 87.4277 38 86.8367ZM149.497 79.2807C151.013 77.1877 151.409 75.8557 150.514 75.8557C150.247 75.8557 147.547 76.6707 144.514 77.6677C140.734 78.9097 139 79.7167 139 80.2337C139 80.8597 139.636 80.9467 142.766 80.7457C144.838 80.6127 146.651 80.6957 146.796 80.9297C147.309 81.7597 148.012 81.3307 149.497 79.2807ZM36.718 68.9077C37.039 68.3877 35.867 67.8557 34.398 67.8557C33.548 67.8557 33.481 67.9807 34 68.6057C34.686 69.4327 36.284 69.6097 36.718 68.9077ZM104.792 71.7307C103.806 66.8507 104.076 61.8557 105.326 61.8557C106.424 61.8557 107 64.0857 107 68.3347C107 71.4427 106.837 72.3117 106.209 72.5527C105.073 72.9877 105.042 72.9707 104.792 71.7307ZM40.7 60.4677C40.156 60.1097 39 58.1857 39 57.6387C39 57.0667 40.396 57.3777 40.977 58.0777C41.714 58.9657 41.48 60.9817 40.7 60.4677ZM95.5 60.1267C95.087 60.0277 93.062 59.6847 91 59.3647C88.938 59.0447 84.888 58.3727 82 57.8717C79.112 57.3707 74.725 56.6917 72.25 56.3637C61.409 54.9287 49.405 52.7037 45.25 51.3597C42.547 50.4857 38.119 49.5927 34.16 49.1217C30.536 48.6907 26.523 48.1427 25.242 47.9037C22.816 47.4507 21.54 46.6467 22.204 45.9887C22.736 45.4627 29.692 45.7177 39.25 46.6167C45.424 47.1967 47.54 47.5807 48.522 48.3007C49.221 48.8137 50.684 49.3687 51.772 49.5347C52.86 49.7017 57.575 50.4067 62.25 51.1027C71.21 52.4357 76.709 53.5857 79.329 54.6747C82.39 55.9467 85.817 56.4157 93.611 56.6277C106.564 56.9797 108.56 56.3467 125.25 46.5787C136.812 39.8117 142.778 36.4777 148.5 33.5847C154.119 30.7447 165.172 26.2087 167.921 25.6167C169.375 25.3027 169.57 25.3767 169.421 26.1807C169.249 27.1107 165.83 28.9427 150.224 36.4687C146.388 38.3177 141.787 40.4047 140 41.1057C138.212 41.8077 134.95 43.5837 132.75 45.0547C130.55 46.5247 126.5 49.0217 123.75 50.6017C121 52.1827 117.974 54.1567 117.025 54.9877C115.088 56.6867 111.972 58.1797 108.253 59.1917C105.832 59.8507 97.027 60.4967 95.5 60.1267ZM31.989 59.1187C32.717 58.2417 35.682 57.5997 36.543 58.1327C37.563 58.7627 35.534 59.8557 33.343 59.8557C31.668 59.8557 31.468 59.7467 31.989 59.1187ZM14.341 54.5587C12.749 53.0827 12.627 50.7327 14.127 50.4477C14.762 50.3277 15.28 50.9257 16.003 52.6137C17.449 55.9847 16.755 56.7967 14.341 54.5587ZM95.164 48.8547C91.135 47.8527 90.356 47.4927 90.771 46.8207C91.157 46.1967 93.277 46.2347 97.394 46.9407C100.358 47.4487 101.025 47.4167 102.48 46.6907C104.731 45.5677 106 45.6147 106 46.8197C106 47.5307 105.274 48.0557 103.231 48.8197C100.008 50.0257 99.879 50.0267 95.164 48.8547ZM170.58 48.2357C169.678 47.3337 169.896 46.3557 171 46.3557C171.657 46.3557 172 46.6887 172 47.3257C172 48.5577 171.331 48.9867 170.58 48.2357ZM84.535 46.6417C81.814 46.0637 80.743 45.1147 82.188 44.5607C82.612 44.3977 83.699 44.4897 84.604 44.7657C85.509 45.0407 86.869 45.4027 87.625 45.5707C89.118 45.9007 89.555 47.3997 88.125 47.2867C87.644 47.2487 86.028 46.9587 84.535 46.6417ZM156.5 44.1667C156.5 43.7877 156.827 43.2067 157.227 42.8747C158.183 42.0817 161.581 40.3557 162.187 40.3557C162.448 40.3557 163.764 39.6487 165.11 38.7847C166.89 37.6427 167.708 37.3637 168.108 37.7637C168.508 38.1637 168.478 38.5307 167.998 39.1077C167.041 40.2617 161.604 43.3557 160.534 43.3557C160.033 43.3557 159.342 43.6927 159 44.1057C158.219 45.0457 156.5 45.0887 156.5 44.1667ZM111.622 43.2307C111.735 42.8867 112.472 42.5307 113.26 42.4377C114.518 42.2907 114.613 42.3667 114.035 43.0627C113.254 44.0047 111.324 44.1387 111.622 43.2307ZM52.606 41.6857C50.182 41.2917 49.495 40.9947 49.61 40.3907C49.805 39.3597 52.638 39.0967 55.244 39.8667C58.463 40.8187 59.5 41.3007 59.5 41.8447C59.5 42.4507 56.948 42.3917 52.606 41.6857ZM41.037 39.9167C38.635 39.2457 39.268 38.3557 42.147 38.3557C44.711 38.3557 46.488 39.2007 45.662 40.0267C45.255 40.4337 42.666 40.3717 41.037 39.9167ZM121.034 38.8767C120.67 38.6517 120.526 38.2177 120.715 37.9117C121.136 37.2307 123.5 37.1677 123.5 37.8377C123.5 38.5987 121.766 39.3287 121.034 38.8767ZM29.833 37.0227C28.969 36.1577 29.812 35.3627 33.625 33.4487C38.45 31.0267 41 30.3447 41 31.4767C41 31.9197 39.531 32.8787 37.379 33.8407C35.387 34.7317 33.159 35.8867 32.427 36.4077C31.016 37.4127 30.375 37.5647 29.833 37.0227ZM106.833 113.523C106.65 113.339 106.5 111.103 106.5 108.552C106.5 103.731 107.054 102.386 108.326 104.125C109.016 105.069 109.284 111.534 108.697 113.065C108.385 113.878 107.424 114.114 106.833 113.523ZM134.178 96.5997C134.019 96.1837 134.166 95.5087 134.505 95.0997C135.204 94.2567 136.5 94.0987 136.5 94.8557C136.5 95.7517 138.12 95.3837 139.794 94.1057C141.454 92.8397 142.5 92.5157 142.5 93.2687C142.5 94.1847 140.055 95.8877 137.724 96.5947C134.65 97.5267 134.534 97.5267 134.178 96.5997Z" fill="white"/>
</svg>
