<svg width="350" height="302" viewBox="0 0 350 302" fill="none" xmlns="http://www.w3.org/2000/svg">
<path fill-rule="evenodd" clip-rule="evenodd" d="M220.75 301.496C219.65 301.288 217.625 300.851 216.25 300.526C214.875 300.2 212.738 299.738 211.5 299.498C210.262 299.259 208.35 298.845 207.25 298.58C206.15 298.314 203.338 297.727 201 297.275C198.662 296.823 196.059 296.238 195.215 295.976C194.37 295.714 193.148 295.5 192.5 295.5C191.852 295.5 190.63 295.293 189.785 295.039C186.168 293.954 176.872 291.809 172.25 290.992C169.5 290.507 165.787 289.76 164 289.334C159.227 288.194 152.891 286.728 147.5 285.515C144.887 284.928 141.963 284.255 141 284.02C132.792 282.017 129.854 281.454 129.531 281.821C129.323 282.057 128.886 283.938 128.559 286C128.231 288.062 127.747 290.709 127.482 291.882C127.217 293.055 127 295.232 127 296.721C127 299.049 126.816 299.572 125.683 300.464C123.401 302.258 122.099 301.845 118.637 298.227C116.915 296.427 114.606 293.629 113.506 292.009L111.507 289.065L105.379 291.994C97.585 295.719 97.072 295.844 95.309 294.457C94.082 293.492 93.941 293.106 94.161 291.304C94.298 290.174 94.668 288.238 94.983 287C95.297 285.762 95.742 283.85 95.972 282.75C96.201 281.65 96.767 279.546 97.229 278.075C97.691 276.604 97.957 275.108 97.82 274.752C97.683 274.395 96.374 273.953 94.911 273.768C93.447 273.583 90.9 273.024 89.25 272.524C83.14 270.674 78.554 269.5 77.418 269.495C76.776 269.492 75.099 268.954 73.691 268.299C70.492 266.809 67.969 263.619 66.94 259.762C66.719 258.93 65.967 256.225 65.27 253.75C64.234 250.068 64.003 248.153 64.002 243.217C64.001 239.899 64.236 235.849 64.525 234.217C65.258 230.081 67.376 223.792 68.532 222.323C70.232 220.161 69.892 220 63.625 219.996C51.27 219.987 41.187 218.167 29.061 213.757C22.969 211.541 13.942 204.738 12.183 201.036C11.293 199.162 10.685 193.161 10.001 179.5C8.932 158.125 8.691 150.575 8.216 123.515C8.005 111.483 8.09 106.714 8.543 105.096C9.333 102.273 13.36 97.841 16.646 96.176C21.124 93.907 31.599 90.581 36.164 89.978L40.578 89.396L42.51 90.948C43.572 91.802 44.792 92.5 45.221 92.5C46.546 92.5 46.082 93.417 44.375 94.173C43.481 94.568 40.612 95.273 38 95.739C35.388 96.205 32.575 96.779 31.75 97.015C24.687 99.035 22.644 99.787 20.167 101.279C13.226 105.459 13.26 107.083 20.375 111.228C22.094 112.229 23.5 113.288 23.5 113.582C23.5 113.876 23.933 114.003 24.462 113.865C24.991 113.727 26.735 113.942 28.337 114.344C40.177 117.314 42.334 117.661 55.5 118.712C64.863 119.46 78.363 119.132 84 118.02C85.237 117.775 87.6 117.343 89.25 117.058C90.9 116.774 92.925 116.405 93.75 116.24C104.548 114.071 106.507 113.851 107.451 114.705C107.934 115.142 108.623 115.5 108.982 115.5C109.972 115.5 107.612 117.184 104.245 118.88C101.113 120.457 91.802 122.905 84.5 124.071C81.535 124.545 75.563 124.738 64.75 124.71C49.286 124.67 48.221 124.587 36.5 122.515C32.735 121.849 27.172 120.188 25.157 119.128C23.222 118.11 23.052 117.686 23.729 115.562C24.235 113.974 23.114 114.636 22.482 116.299C22.23 116.959 21.674 117.5 21.246 117.5C20.282 117.5 15.686 115.205 15.256 114.51C15.083 114.229 14.602 114 14.187 114C13.436 114 13.443 117.816 14.233 138.75C14.306 140.675 14.524 148.1 14.718 155.25C14.912 162.4 15.28 169.898 15.536 171.911C15.791 173.925 15.996 177.412 15.992 179.661C15.987 181.91 16.258 186.861 16.593 190.663L17.203 197.576L20.249 200.413C21.924 201.973 23.96 203.579 24.772 203.982C25.585 204.385 26.812 205.077 27.5 205.522C28.188 205.966 30.1 206.855 31.75 207.496C33.4 208.138 34.975 208.819 35.25 209.01C35.525 209.2 36.312 209.516 37 209.712C37.688 209.907 39.037 210.296 40 210.575C42.717 211.364 48.755 212.386 57.027 213.457C58.967 213.708 64.085 213.787 68.402 213.633L76.25 213.353L81 210.983C87.719 207.631 97.278 203.086 104 200.046C114.911 195.111 117.237 193.823 117.41 192.617C117.498 192.003 117.329 191.5 117.035 191.5C116.741 191.5 116.5 191.19 116.5 190.811C116.5 190.432 116.127 189.814 115.671 189.436C114.909 188.805 114.873 186.499 115.227 160.75C115.438 145.35 115.763 128.475 115.948 123.25C116.133 118.025 116.21 113.585 116.118 113.384C116.027 113.183 115.067 113.576 113.986 114.259C111.603 115.763 110.496 115.819 109.361 114.494C108.059 112.973 108.299 112.264 110.625 110.752C113.922 108.611 115 107.441 115 106.006C115 103.155 110.051 100.218 100.75 97.549C97.792 96.7 85.286 94 84.312 94C83.378 94 84.25 92.466 85.971 91.084C87.68 89.71 88.326 89.501 90.846 89.509C94.277 89.519 105.818 92.385 109.839 94.227C113.386 95.85 118.65 99.595 119.89 101.377C121.119 103.143 121.904 106.401 121.485 108C121.305 108.688 121.241 121.85 121.343 137.25C121.507 161.997 121.227 174.615 120.204 188.625C120.048 190.756 120.033 192.5 120.169 192.5C120.43 192.5 123.215 191.325 127 189.618C128.238 189.06 131.275 187.757 133.75 186.722C136.225 185.688 139.825 184.126 141.75 183.253C145.953 181.346 154.659 177.968 158.596 176.717C162.046 175.621 164 176.167 164 178.228C164 180.013 163.99 180.018 146 188.101C144.762 188.657 142.562 189.649 141.11 190.306C139.658 190.963 138.371 191.5 138.25 191.5C138.129 191.5 136.842 192.036 135.39 192.692C133.938 193.348 131.062 194.612 129 195.501C123.212 197.996 121.128 198.953 116.258 201.353C113.779 202.574 107.25 205.594 101.75 208.064C96.25 210.533 90.85 212.969 89.75 213.477C88.65 213.984 86.119 215.137 84.125 216.038C82.131 216.94 80.5 217.858 80.5 218.079C80.5 218.554 81.098 218.707 88 220.003C100.27 222.308 113.524 225.226 119.75 226.994C120.575 227.228 122.262 227.575 123.5 227.765C124.738 227.956 129.8 229.01 134.75 230.108C144.486 232.269 151.231 233.714 154 234.232C155.936 234.594 157.603 234.957 164.25 236.46C168.806 237.49 183.785 240.808 187 241.499C187.963 241.706 190.438 242.242 192.5 242.691C194.562 243.14 197.262 243.725 198.5 243.991C199.738 244.257 202.662 244.917 205 245.458C217.5 248.352 221.55 249.188 224.5 249.481C227.592 249.788 227.86 249.726 230 248.209C232.502 246.436 238.158 243.514 242.087 241.966C243.5 241.409 246.139 240.095 247.953 239.045C253.199 236.009 255.608 234.742 257.75 233.891C258.85 233.453 263.275 231.387 267.583 229.298C271.892 227.209 275.547 225.5 275.706 225.5C276.04 225.5 280.601 223.394 289.5 219.129C292.938 217.482 296.538 215.781 297.5 215.35C298.462 214.919 301.275 213.625 303.75 212.475C306.225 211.325 309.804 209.733 311.704 208.938C313.603 208.143 315.403 207.29 315.704 207.043C316.004 206.796 317.6 206.207 319.25 205.733C322.936 204.674 325.945 203.309 329.351 201.149C330.782 200.242 332.378 199.5 332.898 199.5C333.419 199.5 334.252 199.05 334.75 198.5C335.248 197.95 335.958 197.5 336.327 197.5C337.175 197.5 337.213 196.532 336.375 196.282C335.415 195.996 324.566 193.927 321.75 193.493C319.119 193.087 315.104 192.308 311.75 191.552C310.65 191.304 308.551 190.856 307.086 190.556C305.621 190.256 304.257 189.909 304.056 189.784C303.854 189.66 301.565 189.189 298.969 188.739C294.373 187.942 291.628 187.392 288.926 186.728C287.825 186.458 287.301 186.727 285.815 188.326C284.669 189.559 284.022 190.75 284.014 191.643C283.984 194.649 281.365 196.49 277.106 196.497C275.706 196.5 274.811 197.151 271.095 200.875C266.932 205.046 266.495 205.337 261.739 207.115C258.995 208.141 254.842 209.453 252.511 210.03C236.538 213.984 215.562 213.064 200.495 207.748C191.857 204.701 181.778 196.702 176.354 188.592C173.436 184.229 168 174.155 168 173.11C168 172.869 167.409 171.227 166.687 169.461C164.371 163.798 161.888 154.832 160.467 147C159.327 140.715 157.084 124.311 156.762 119.9C156.635 118.167 156.275 113.488 155.961 109.5C155.647 105.512 155.471 98.65 155.57 94.25C155.736 86.877 155.845 86.084 156.962 84.134C158.137 82.082 161.299 79.5 162.636 79.5C162.998 79.5 163.549 80.456 163.86 81.625C164.358 83.49 164.304 83.949 163.413 85.39C162.181 87.384 162.48 89.044 164.285 90.227C165.886 91.276 167 90.914 167 89.343C167 88.121 168.376 86.5 169.414 86.5C170.199 86.5 170.193 91.607 169.407 92.393C168.949 92.851 169.083 93.274 169.994 94.243C170.643 94.935 171.482 95.5 171.857 95.5C172.233 95.5 173.468 95.974 174.603 96.553C176.583 97.563 176.739 97.571 178.436 96.762C186.779 92.783 205.615 89.816 226 89.269C236.807 88.979 249.935 89.482 256.25 90.429C257.9 90.677 261.163 91.144 263.5 91.468C265.837 91.792 268.65 92.283 269.75 92.56C270.85 92.837 272.716 93.269 273.896 93.521C275.077 93.772 278.386 94.77 281.251 95.739C286.967 97.671 288.749 97.845 291.75 96.764C294.489 95.778 295.311 95.773 294.5 96.75C293.727 97.682 294.44 97.703 295.652 96.785C296.185 96.38 296.326 96.025 295.998 95.916C295.076 95.609 295.932 94.241 298.011 92.703C299.99 91.24 301.5 88.859 301.5 87.204C301.5 86.712 300.208 85.117 298.628 83.658C295.989 81.222 295.809 80.921 296.412 79.955C296.966 79.068 296.946 78.769 296.284 78.038C295.136 76.769 295.281 75.863 296.567 76.271C300.451 77.504 306.896 82.796 307.959 85.626C308.445 86.92 308.129 97.27 307.214 110.053L306.905 114.356L308.341 114.643C310.255 115.026 312.5 116.845 312.5 118.013C312.5 119.972 313.565 121.425 314.937 121.336C315.98 121.268 316.285 121.502 316.423 122.48C316.519 123.157 316.936 123.958 317.349 124.261C319.355 125.727 318.51 133.206 315.691 138.946C313.329 143.754 307.762 149.668 303.675 151.712C300.418 153.341 300.019 153.742 300.008 155.395C300.003 156.025 299.526 158.008 298.947 159.801C298.368 161.594 298.016 163.182 298.165 163.332C298.314 163.481 300.691 162.645 303.446 161.474C309.6 158.859 313.381 155.893 317.599 150.373C322.39 144.104 323.691 141.538 326.43 132.965C327.116 130.816 327.187 121.438 326.534 119.285C326.278 118.441 325.774 116.741 325.415 115.509C324.193 111.307 318.79 105.921 315.216 105.341C312.844 104.956 310 103.509 310 102.686C310 101.864 311.038 99.901 311.739 99.4C312.532 98.832 316.557 99.563 319.25 100.763C324.247 102.991 329.76 109.248 331.224 114.354C331.681 115.947 332.268 117.941 332.527 118.785C333.232 121.075 333.098 128.243 332.271 132.5C330.822 139.965 328.877 144.851 325.806 148.75C324.94 149.85 323.898 151.409 323.491 152.215C321.637 155.881 316.484 160.363 310.036 163.916C308.705 164.65 306.557 166.006 305.263 166.93C303.756 168.006 301.622 168.909 299.33 169.44C295.356 170.362 295.848 169.801 292.506 177.204C290.834 180.906 290.962 181.477 293.465 181.492C294.132 181.497 295.37 181.711 296.215 181.969C297.059 182.227 299.438 182.797 301.5 183.237C303.562 183.677 306.375 184.352 307.75 184.738C309.125 185.124 312.387 185.802 315 186.246C320.837 187.237 322.968 187.684 326.5 188.662C328.012 189.08 330.6 189.681 332.25 189.997C333.9 190.312 336.064 190.78 337.058 191.035C338.052 191.291 339.5 191.5 340.275 191.5C341.05 191.5 342.655 191.97 343.842 192.545C345.931 193.556 346 193.664 346 195.937C346 198.475 345.927 198.549 340.812 201.233C339.134 202.114 338.682 202.752 337.439 206C336.65 208.062 336.003 210.355 336.002 211.095C336.001 211.836 335.775 212.58 335.5 212.75C334.746 213.216 334.911 220.872 335.743 223.996C336.657 227.431 339.299 232.717 341.177 234.867C342.414 236.283 342.92 236.5 344.984 236.5C346.888 236.5 347.627 236.763 348.682 237.818C349.407 238.543 350 239.651 350 240.28C350 241.555 347.757 244.5 346.785 244.5C346.441 244.5 338.564 248.325 329.279 253C319.995 257.675 312.063 261.5 311.652 261.5C311.241 261.5 310.307 261.902 309.577 262.393C308.847 262.884 307.688 263.534 307 263.837C306.312 264.139 300.913 266.757 295 269.653C289.087 272.549 280.312 276.824 275.5 279.152C270.688 281.48 263.488 284.965 259.5 286.896C255.512 288.827 251.125 290.775 249.75 291.226C248.375 291.677 242.722 294.285 237.187 297.023C226.531 302.293 225.885 302.469 220.75 301.496ZM230.157 293.808C231.583 293.152 234.325 291.888 236.25 290.999C238.175 290.109 240.64 289.064 241.729 288.676C242.817 288.289 244.729 287.318 245.979 286.521C247.228 285.723 250.05 284.245 252.25 283.237C254.45 282.229 259.625 279.765 263.75 277.762C267.875 275.759 272.864 273.418 274.837 272.559C276.81 271.7 280.895 269.76 283.915 268.249C286.935 266.737 289.526 265.5 289.673 265.5C290.025 265.5 300.94 260.271 315.25 253.247C321.575 250.143 329.725 246.174 333.361 244.427C336.997 242.679 339.978 241.096 339.986 240.909C339.994 240.721 339.494 240.41 338.875 240.218C338.256 240.026 336.831 238.875 335.707 237.66L333.664 235.451L329.293 237.975C326.888 239.364 324.836 240.5 324.732 240.5C324.628 240.5 320.838 242.3 316.311 244.5C311.784 246.7 307.949 248.5 307.788 248.5C307.628 248.5 304.516 249.938 300.873 251.695C289.978 256.951 288 257.541 288 255.534C288 254.191 289.522 253.242 299.25 248.515C303.925 246.244 312.7 241.957 318.75 238.989C324.8 236.022 330.256 233.445 330.875 233.263C332.247 232.86 332.276 232.261 331.05 229.719C330.528 228.636 329.944 226.491 329.752 224.952C329.561 223.413 329.237 221.883 329.033 221.553C328.764 221.118 327.433 221.522 324.206 223.016C321.755 224.151 318.962 225.423 318 225.842C317.038 226.261 308.094 230.631 298.126 235.552C285.076 241.995 279.511 244.5 278.251 244.5C275.74 244.5 276.003 243.322 278.875 241.705C280.181 240.969 282.15 239.761 283.25 239.021C285.58 237.452 289.823 235.257 312.25 224.018C328.067 216.092 328.756 215.688 328.901 214.25C328.984 213.425 329.627 211.218 330.331 209.346C331.034 207.474 331.526 205.86 331.425 205.758C331.324 205.657 325.134 208.594 317.671 212.284C302.528 219.772 293.354 224.154 288.5 226.218C284.218 228.039 272.886 233.374 259.063 240.076C252.91 243.059 247.703 245.5 247.492 245.5C247.281 245.5 243.594 247.188 239.299 249.25C235.004 251.312 231.336 253 231.147 253C230.959 253 230.175 253.603 229.405 254.341C228.522 255.187 227.225 255.787 225.889 255.966C223.934 256.228 223.639 256.477 221.999 259.25C219.806 262.96 219.195 264.728 218.458 269.5C217.483 275.819 218.358 281.82 221.049 287.266C222.247 289.69 226.383 295 227.073 295C227.343 295 228.731 294.463 230.157 293.808ZM218 294.352C218 294.271 216.965 292.193 215.7 289.734L213.399 285.264L210.72 285.155C209.247 285.096 207.413 284.739 206.646 284.362C205.878 283.985 204.859 283.765 204.382 283.874C203.905 283.982 201.655 283.585 199.382 282.992C197.109 282.399 194.238 281.723 193 281.489C189.046 280.741 165.66 275.15 158.25 273.18C155.098 272.343 154.75 272.126 154.75 271C154.75 269.842 154.915 269.755 157 269.819C158.238 269.857 160.206 270.138 161.375 270.444C165.66 271.565 167.282 271.961 168.75 272.244C174.374 273.329 175.893 273.652 177 274C177.688 274.216 179.6 274.659 181.25 274.984C182.9 275.309 185.037 275.766 186 276C186.963 276.234 189.1 276.688 190.75 277.008C192.4 277.329 195.55 278.009 197.75 278.519C199.95 279.03 202.537 279.559 203.5 279.696C205.166 279.933 208.263 280.577 211.019 281.261L212.287 281.576L212.143 275.188L211.998 268.8L209.624 268.226C207.048 267.603 203.968 266.945 197.75 265.688C193.952 264.92 192.479 264.593 188.548 263.641C186.311 263.099 185.399 261.702 186.668 260.759C187.595 260.07 189.534 260.137 193 260.975C197.989 262.182 199.638 262.5 200.917 262.5C201.689 262.5 204.426 262.95 207 263.5C209.574 264.05 211.965 264.5 212.314 264.5C212.663 264.5 213.668 262.981 214.546 261.125C215.425 259.269 216.586 257.118 217.126 256.346C217.667 255.574 218.028 254.882 217.93 254.807C217.831 254.733 216.512 254.408 215 254.085C208.287 252.651 204.575 251.886 202.25 251.459C198.863 250.837 195.918 250.219 191.75 249.256C189.825 248.811 184.65 247.675 180.25 246.731C175.85 245.788 170.338 244.559 168 243.999C163.274 242.869 151.349 240.157 148.25 239.507C147.15 239.277 145.012 238.833 143.5 238.522C139.613 237.723 137.164 237.201 134 236.5C132.488 236.165 130.35 235.702 129.25 235.473C128.15 235.243 126.238 234.805 125 234.5C121.163 233.554 117.27 232.709 109 231.029C100.92 229.387 93.434 227.561 91.5 226.759C90.537 226.36 88.512 225.801 87 225.516C80.641 224.32 79.194 223.941 77.402 223.007L75.515 222.024L73.834 224.653C72.909 226.099 71.863 228.512 71.509 230.016C71.155 231.52 70.518 233.425 70.092 234.25C69.516 235.366 69.31 237.413 69.286 242.25C69.256 248.257 69.376 249.133 70.876 253.802C71.902 256.998 73.135 259.688 74.234 261.127C75.847 263.239 76.159 263.416 78.61 263.606C80.062 263.719 81.343 263.742 81.456 263.657C81.743 263.444 80.709 261.494 79.516 260C76.151 255.785 74.439 243.399 76.232 236.247C77.689 230.439 79.684 226.985 82.007 226.248C82.58 226.066 83.352 226.17 83.724 226.479C84.439 227.072 84.238 228.226 82.168 235.375C81.095 239.079 80.734 247.116 81.522 249.75C82.434 252.801 83.269 254.983 84.677 258C85.383 259.512 86.026 261.762 86.106 263C86.24 265.095 86.353 265.26 87.75 265.401C89.273 265.553 94.206 266.564 97.634 267.425C99.834 267.978 99.797 268.022 101.521 262.75C102.76 258.957 105.707 254.408 108.953 251.274C110.079 250.186 111 248.909 111 248.435C111 247.961 111.593 247.106 112.317 246.536C113.41 245.677 114.343 245.5 117.794 245.5C120.081 245.5 122.47 245.702 123.101 245.948C124.73 246.583 136.045 249.407 140.392 250.263C143.525 250.881 144.472 254.669 141.799 255.887C139.259 257.044 134.315 264.868 132.445 270.69C131.279 274.319 131.27 274.872 132.375 275.163C133.851 275.551 137.447 276.394 144.5 278.006C148.213 278.854 152.037 279.742 153 279.978C155.769 280.657 163.466 282.344 166.75 282.991C168.4 283.316 171.213 283.995 173 284.5C174.787 285.004 178.5 285.907 181.25 286.506C187.213 287.803 190.072 288.559 190.75 289.018C191.025 289.204 192.713 289.629 194.5 289.963C196.287 290.296 199.18 291.004 200.928 291.535C202.675 292.066 204.866 292.5 205.795 292.5C206.725 292.5 208.445 292.716 209.618 292.98C213.821 293.926 218 294.61 218 294.352ZM243.75 292C244.54 291.175 244.976 290.493 244.719 290.484C244.461 290.475 244.684 290.14 245.213 289.739C245.743 289.338 246.044 288.877 245.881 288.714C245.503 288.336 241.5 292.198 241.5 292.941C241.5 293.882 242.245 293.57 243.75 292ZM122 290.626C122 289.902 122.247 287.947 122.549 286.28C125.152 271.924 128.327 263.37 133.386 257.088C134.348 255.894 134.931 254.746 134.688 254.523C134.207 254.079 125.638 252.204 120.5 251.419L117.25 250.922L113.983 254.345C112.185 256.228 110.117 258.837 109.387 260.144C107.871 262.856 105 270.663 105 272.072C105 272.59 104.797 273.404 104.549 273.882C104.301 274.359 103.868 275.65 103.587 276.75C103.306 277.85 102.609 280.474 102.038 282.582C100.946 286.613 100.75 288.194 101.377 287.917C101.585 287.825 104.094 286.548 106.952 285.079C111.265 282.862 112.339 282.494 113.263 282.915C113.875 283.194 115.687 285.296 117.289 287.586C118.891 289.876 120.427 291.904 120.702 292.092C121.491 292.631 122 292.056 122 290.626ZM191.25 291C191.08 290.725 189.829 290.5 188.47 290.5C187.112 290.5 186 290.725 186 291C186 291.275 187.251 291.5 188.78 291.5C190.505 291.5 191.442 291.31 191.25 291ZM240.97 206.031C243.42 205.617 246.78 204.97 253.75 203.569C256.052 203.106 262.486 200.469 264.875 199.008C266.759 197.857 267.075 196.717 265.375 197.209C262.367 198.078 258.185 198.494 252.442 198.497C246.801 198.5 245.995 198.39 244.807 197.456C242.069 195.302 242 194.832 242 178.311C242 157.492 242.581 154.055 246.819 149.817C249.128 147.509 250.984 146.778 255.23 146.505L259.209 146.25L259.689 144.25C260.477 140.963 260.376 116.684 259.563 113.885C258.606 110.593 258.248 110.399 254.19 110.967C245.196 112.227 234.863 112.484 223 111.745C205.99 110.684 195.215 109.085 181.153 105.537C176.102 104.262 166.449 99.803 163.904 97.568C162.922 96.706 161.923 96 161.684 96C160.434 96 163.643 131.152 165.952 142.75C166.226 144.125 166.697 146.6 166.999 148.25C168.202 154.826 171.364 165.53 173.497 170.25C173.994 171.35 174.967 173.651 175.66 175.362C178.212 181.667 184.963 190.132 191.15 194.783C198.45 200.272 209.783 204.644 218.5 205.334C220.562 205.498 222.587 205.82 223 206.051C224.027 206.624 237.542 206.609 240.97 206.031ZM265 191.431C267.062 191.163 270.715 190.892 273.117 190.83C275.519 190.767 277.722 190.478 278.013 190.187C278.384 189.816 278.389 187.502 278.03 182.454C277.749 178.492 277.553 171.425 277.595 166.75C277.678 157.596 277.542 156.967 274.65 153.105C273.423 151.466 273.403 151.46 269.584 151.605L265.75 151.75L265.895 153.283C266.048 154.909 264.449 157.5 263.291 157.5C262.217 157.5 260.858 155.594 260.528 153.623L260.215 151.75L256.841 151.828C254.69 151.878 253.02 152.2 252.233 152.715C250.064 154.136 248.566 157.006 248.039 160.751C247.336 165.74 247.383 191.006 248.096 191.866C248.537 192.397 249.988 192.474 254.953 192.229C258.416 192.058 262.938 191.699 265 191.431ZM285.823 177.374C286.413 175.931 287.728 172.838 288.745 170.5C289.761 168.162 290.777 165.575 291.002 164.75C291.226 163.925 291.91 161.45 292.521 159.25C293.132 157.05 294.064 153.113 294.592 150.5C295.121 147.887 295.779 144.738 296.053 143.5C298.048 134.518 302.652 97.485 301.871 96.704C301.699 96.532 300.926 96.837 300.154 97.382C299.382 97.927 297.288 99.105 295.5 100C293.712 100.895 291.688 102.018 291 102.496C288.601 104.164 280.851 106.492 271 108.504C265.957 109.534 264.302 110.056 264.454 110.566C265.257 113.263 265.613 118.653 265.83 131.419L266.08 146.089L269.005 145.749C272.35 145.361 274.623 145.968 277.842 148.11C282.801 151.41 283.704 155.016 283.543 170.875C283.441 180.989 283.858 182.179 285.823 177.374ZM305.086 144.358C309.97 140.652 313.249 133.268 312.919 126.722C312.712 122.628 311.661 120.611 309.298 119.769C306.559 118.794 306.149 119.663 305.02 128.848C304.723 131.269 304.269 134.262 304.011 135.5C303.754 136.738 303.323 138.875 303.053 140.25C302.783 141.625 302.408 143.481 302.219 144.375C301.78 146.45 302.334 146.446 305.086 144.358ZM249.806 103.721C252.813 99.779 257.512 99.422 260.657 102.897C261.609 103.949 263.283 103.976 267.75 103.013C268.85 102.775 271.1 102.302 272.75 101.96C278.175 100.837 277.487 100.168 269.25 98.557C257.62 96.282 250.791 95.563 237.25 95.184C226.2 94.876 208.775 95.943 199.5 97.497C192.023 98.75 190.144 99.051 188.125 99.319C186.956 99.474 186 99.774 186 99.985C186 100.97 201.184 103.805 207.25 103.953C209.175 104 212.438 104.347 214.5 104.724C217.098 105.199 222.89 105.424 233.35 105.455L248.449 105.5L249.806 103.721ZM126.407 217.24C126.264 217.098 124.146 216.765 121.699 216.501C119.252 216.237 116.125 215.806 114.75 215.544C113.375 215.282 110.731 215.198 108.875 215.356C106.656 215.545 105.5 215.463 105.5 215.115C105.5 214.396 111.775 212.386 114.25 212.311C115.35 212.278 117.15 212.527 118.25 212.865C124.675 214.838 127.262 215.5 128.553 215.5C129.667 215.5 130 215.73 130 216.5C130 217.3 129.667 217.5 128.333 217.5C127.417 217.5 126.55 217.383 126.407 217.24ZM122.304 209.087C122.143 208.826 122.299 208.375 122.65 208.083C123.259 207.578 127.048 206.538 128.375 206.512C129.043 206.499 129.252 208.295 128.625 208.658C127.734 209.174 122.574 209.524 122.304 209.087ZM132.397 204.94C132.998 204.305 137.369 202.575 138.946 202.35C139.329 202.295 139.737 202.518 139.853 202.846C140.161 203.717 137.554 204.895 134.453 205.285C132.177 205.571 131.852 205.516 132.397 204.94ZM29.25 192.295C26.656 191.104 24 188.809 24 187.759C24 187.427 24.447 186.75 24.994 186.255C25.955 185.386 26.066 185.396 28.269 186.553C33.083 189.08 34.932 191.368 33.4 192.9C32.599 193.701 32.179 193.639 29.25 192.295ZM28.13 173.4C25.944 172.362 23 169.452 23 168.328C23 167.978 23.313 167.263 23.695 166.74C24.446 165.714 24.606 165.755 28.415 167.955C32.03 170.044 32.96 171.989 31.125 173.625C30.329 174.335 30.058 174.314 28.13 173.4ZM26.485 155.625C25.039 154.869 23.425 153.672 22.898 152.965C22.079 151.867 22.028 151.485 22.55 150.34C22.886 149.603 23.366 149 23.618 149C23.869 149 25.633 149.926 27.538 151.057C30.699 152.935 31 153.257 31 154.753C31 155.787 30.708 156.505 30.209 156.697C29.166 157.097 29.463 157.183 26.485 155.625ZM27.997 139.533C22.58 137.885 19.493 134.373 21.788 132.469C22.454 131.915 23.228 132.138 26.806 133.912C31.248 136.116 31.805 136.716 31.294 138.751C30.968 140.05 30.254 140.22 27.997 139.533ZM61.125 109.505C59.269 108.374 59.051 107.062 60.5 105.75C61.572 104.78 61.795 101.751 61.089 97.75C60.801 96.114 60.51 95.721 59.493 95.589C58.809 95.5 56.45 94.564 54.25 93.509C51.129 92.011 49.453 90.767 46.625 87.848C44.631 85.79 43 83.672 43 83.14C43 82.142 44.925 80 45.822 80C46.102 80 47.067 81.025 47.967 82.279C50.35 85.597 51.307 86.363 55.787 88.539C61.055 91.098 61.218 91.085 60.774 88.125C60.029 83.162 60.016 80.584 60.726 78.884C62.074 75.659 63.849 75.184 65.63 77.571C66.423 78.636 66.667 79.976 66.879 84.461C67.024 87.524 67.327 90.143 67.551 90.282C67.775 90.42 69.15 90.145 70.605 89.669C75.243 88.153 79.406 83.263 81.259 77.155C82.09 74.417 82.253 67.715 81.5 67.25C81.225 67.08 81 66.603 81 66.189C81 65.775 80.348 64.045 79.551 62.343C76.088 54.951 75.537 51.051 76.679 42C77.506 35.44 77.354 32.725 75.827 26.75C75.01 23.557 73.35 19.252 71.947 16.694C69.591 12.395 69.001 12.032 68.997 14.875C68.995 16.696 68.603 18.618 67.394 22.75C65.948 27.693 60.307 36.829 55.819 41.5C51.512 45.981 45.75 55.117 44.624 59.25C42.489 67.087 42.494 67.622 44.785 75.629C45.159 76.938 45.351 78.288 45.21 78.629C44.874 79.445 41.467 81.039 40.86 80.663C40.134 80.215 38.376 76.016 37.86 73.5C37.052 69.554 36.892 64.426 37.505 62.05C39.28 55.166 44.082 46.232 48.888 40.871C51.079 38.428 56.123 31.406 58.314 27.75C61.851 21.847 63.609 15.225 63.705 7.435C63.782 1.228 64.197 0 66.213 0C67.475 0 69.225 1.75 73.213 7C76.845 11.782 80.692 19.583 82.03 24.88C83.112 29.161 83.136 32.221 82.213 48.226C81.857 54.408 82.18 55.896 85.522 63.465C87.624 68.228 88.009 72.835 86.744 78.087C85.711 82.372 85.037 83.814 82.394 87.393C79.506 91.303 75.197 94.14 69.759 95.711L67.75 96.291L67.607 100.569C67.494 103.934 67.627 104.983 68.232 105.485C70.316 107.215 67.907 110.502 64.558 110.498C63.563 110.497 62.019 110.05 61.125 109.505ZM168.73 79.15C169.119 77.045 170.377 75.467 172.918 73.896C174.368 73 182.732 70.025 189.25 68.087C196.106 66.048 219.135 63.495 230.579 63.504C238.106 63.51 255.204 64.829 262.98 66.002C270.243 67.098 282.062 69.919 286.5 71.615C292.928 74.071 295.677 76 292.75 76C292.062 76 291.483 76.169 291.462 76.375C291.351 77.458 291.044 78.623 290.805 78.861C290.516 79.151 288.78 78.721 283.25 76.991C279.918 75.949 277.721 75.417 269.75 73.719C266.376 73 264.996 72.788 253.5 71.213C244.609 69.995 225.64 69.739 215.5 70.7C201.957 71.984 199.355 72.366 189.25 74.557C180.164 76.527 175.638 77.881 172.759 79.491C171.929 79.955 170.604 80.496 169.815 80.692C168.384 81.048 168.381 81.043 168.73 79.15ZM108.875 63.466C107.845 62.859 107.673 59.884 108.625 59.122C109.439 58.47 114.083 57.169 117.216 56.716C118.572 56.52 120.372 55.952 121.216 55.455C122.06 54.957 123.706 54.398 124.875 54.211C126.616 53.933 127 54.014 127 54.657C127 55.088 126.774 55.58 126.499 55.751C126.164 55.958 126.164 56.371 126.499 56.997C127.84 59.503 126.616 60.896 122.5 61.55C121.262 61.746 118.9 62.241 117.25 62.648C112.75 63.759 109.851 64.042 108.875 63.466ZM13 61.508C1.297 58.988 0 58.457 0 56.184C0 55.49 0.514999 54.686 1.279 54.185C2.477 53.4 2.771 53.401 5.904 54.203C7.744 54.674 10.825 55.395 12.75 55.806C16.732 56.655 18.672 57.824 18.922 59.522C19.241 61.688 17.128 62.397 13 61.508ZM103.286 43.714C101.686 42.114 102.164 41.37 107.276 37.51C111.506 34.316 116.379 31.5 117.677 31.5C118.728 31.5 119.653 33.321 119.306 34.705C119.127 35.42 117.015 37.162 113.389 39.588C105.287 45.006 104.783 45.212 103.286 43.714ZM18.832 36.542C15.625 33.265 13 30.267 13 29.879C13 29.492 13.564 28.644 14.254 27.996C15.469 26.855 15.561 26.844 17.223 27.636C18.811 28.394 25.571 35.775 27.657 39.031C28.846 40.885 28.105 42.5 26.065 42.5C24.936 42.5 23.535 41.346 18.832 36.542ZM227.6 285.9C226.221 284.521 227.009 283.597 231.625 281.176C234.169 279.842 236.475 278.658 236.75 278.545C237.025 278.432 239.574 277.251 242.414 275.92C245.254 274.589 247.679 273.5 247.803 273.5C247.927 273.5 249.653 272.739 251.639 271.808C258.371 268.653 260.161 267.984 261.081 268.276C262.485 268.721 262.179 269.905 260.375 271.01C257.347 272.864 229.668 286.5 228.932 286.5C228.529 286.5 227.93 286.23 227.6 285.9ZM175.49 132.405C173.974 129.491 173.898 129.099 174.204 125.732C174.382 123.764 174.381 121.772 174.202 121.306C174.023 120.839 173.004 120.012 171.938 119.469C169.727 118.341 169.616 117.886 170.995 115.625C172.278 113.519 173.704 113.532 175.696 115.665L177.25 117.331L177.268 125.04C177.277 129.281 177.472 133.369 177.701 134.125C178.455 136.621 177.16 135.612 175.49 132.405ZM213.697 102.414C213.527 102.139 213.587 101.713 213.83 101.47C214.675 100.625 222.292 99.489 230.907 98.924C239.267 98.375 241.493 98.506 246.125 99.819C247.61 100.24 247.094 101.312 245.125 101.897C242.639 102.635 214.124 103.104 213.697 102.414Z" fill="white"/>
</svg>
