<svg width="386" height="351" viewBox="0 0 386 351" fill="none" xmlns="http://www.w3.org/2000/svg">
<path fill-rule="evenodd" clip-rule="evenodd" d="M248.75 349.518C243.748 348.49 240.447 347.339 235 344.721C229.869 342.256 227.406 340.917 216.991 334.935C209.379 330.563 203.159 327.66 197.75 325.955C184.076 321.644 173.541 316.171 170.011 311.543C168.629 309.73 166.75 304.942 166.75 303.231C166.75 301.642 165.67 301.572 162.196 302.935C158.976 304.198 153.852 305.564 152 305.653C151.45 305.68 149.455 305.877 147.567 306.093L144.134 306.484L143.007 310.4C142.238 313.069 142.058 314.367 142.44 314.477C148.702 316.289 150.63 317.32 152.98 320.117C157.38 325.353 157.322 334.48 152.853 340.094C152.026 341.134 150.042 342.772 148.444 343.734C145.646 345.419 145.363 345.483 140.769 345.448C135.315 345.406 133.379 344.749 130.16 341.848C128.014 339.913 125.763 335.823 125.755 333.843C125.748 332.247 124.684 332.014 122.697 333.171C121.004 334.158 116.067 335.843 112.75 336.567C109.546 337.266 100.692 336.962 97 336.026C90.594 334.402 85.734 331.677 81.079 327.097C74.868 320.987 71.954 315.326 70.804 307.136C70.106 302.16 70.859 296.32 72.809 291.591C73.602 289.669 74.25 287.902 74.25 287.665C74.25 287.428 73.14 287.234 71.783 287.234C70.425 287.234 68.682 286.989 67.908 286.689C67.133 286.39 63.279 285.929 59.342 285.666C52.503 285.208 52.009 285.101 48.233 283.255C46.06 282.193 43.632 280.862 42.838 280.296C42.044 279.731 39.393 278.272 36.947 277.055C34.501 275.837 32.05 274.34 31.5 273.728C30.95 273.115 29.375 271.887 28 270.997C25.027 269.074 23.529 267.497 23.981 266.766C24.51 265.909 26.111 266.147 28.719 267.468C30.949 268.598 31.184 268.63 31.495 267.843C31.796 267.083 32.848 261.076 34.271 251.984C34.734 249.024 35.404 245.509 36.294 241.359C37.425 236.087 37.691 234.815 38.197 232.234C38.494 230.722 39.195 227.347 39.755 224.734C40.315 222.121 40.983 218.746 41.241 217.234C41.499 215.722 42.192 212.347 42.782 209.734C43.371 207.121 43.959 204.422 44.087 203.734C44.655 200.692 46.422 192.744 47.09 190.234C47.492 188.722 48.171 186.134 48.599 184.484C49.707 180.211 50.674 179.223 51.76 181.253C52.173 182.025 52.054 183.569 51.268 187.628C50.697 190.574 49.765 195.459 49.196 198.484C48.209 203.738 46.667 211.787 46.036 214.984C45.874 215.809 45.316 218.734 44.798 221.484C44.28 224.234 43.288 229.296 42.594 232.734C41.899 236.172 40.296 244.496 39.031 251.234C37.766 257.972 36.502 264.199 36.221 265.073C35.941 265.947 35.577 267.798 35.412 269.187C35.153 271.375 35.239 271.752 36.057 272.003C38.377 272.715 45.268 276.456 48 278.486C51.79 281.302 53.928 281.927 59.307 281.791C63.233 281.692 64.018 281.844 68.186 283.512C70.7 284.519 72.882 285.543 73.033 285.788C73.729 286.913 75.138 286.011 76.859 283.339C82.174 275.089 91.519 268.926 101.295 267.224C107.279 266.182 108.831 266.094 111.417 266.649C112.838 266.954 115.238 267.459 116.75 267.77C120.464 268.535 126.869 271.681 130.368 274.46C131.945 275.713 134.385 278.199 135.789 279.986C137.193 281.772 138.541 283.234 138.786 283.234C139.031 283.234 140.642 282.58 142.366 281.78C144.089 280.981 147.525 279.766 150 279.08C152.475 278.394 156.153 277.248 158.173 276.534C160.193 275.819 162.475 275.234 163.244 275.234C164.97 275.234 165.25 274.563 165.25 270.423C165.25 265.322 166.202 257.765 167.27 254.379C168.454 250.629 168.479 249.235 167.465 243.734C166.723 239.71 165.329 231.407 164.19 224.234C163.906 222.446 163.494 219.859 163.275 218.484C162.693 214.843 161.359 206.237 160.484 200.484C159.062 191.131 158.495 183.789 159.144 183.14C159.468 182.816 159.855 182.672 160.003 182.82C160.329 183.147 161.564 189.044 164.225 202.984C165.327 208.759 166.446 214.609 166.711 215.984C166.977 217.359 167.455 220.172 167.774 222.234C168.093 224.296 168.453 226.311 168.575 226.71C168.948 227.933 171.245 244.394 171.248 245.859C171.249 246.615 171.388 247.234 171.556 247.234C171.724 247.234 172.905 246.373 174.181 245.32C175.456 244.267 177.587 242.669 178.916 241.768C181.068 240.309 181.293 239.985 180.975 238.807C180.32 236.379 178.824 228.979 176.966 218.984C176.557 216.784 176.001 213.972 175.729 212.734C175.457 211.496 174.874 208.684 174.432 206.484C173.991 204.284 173.456 201.697 173.244 200.734C172.658 198.079 170.671 188.651 170.399 187.234C170.267 186.546 169.183 181.034 167.99 174.984C166.797 168.934 165.936 163.403 166.078 162.693C166.464 160.749 164.467 157.022 161.711 154.544C155.129 148.626 140.451 143.712 123.5 141.75C120.75 141.432 116.994 140.961 115.154 140.703C110.721 140.082 100.867 140.107 94.846 140.756C76.678 142.714 72.674 143.441 64.367 146.291C57.137 148.771 52.741 151.107 49.573 154.151C46.747 156.867 45.639 159.141 44.781 163.984C44.44 165.909 43.963 168.384 43.722 169.484C43.48 170.584 43.037 172.834 42.737 174.484C42.436 176.134 41.627 179.959 40.939 182.984C40.251 186.009 39.353 190.059 38.945 191.984C38.014 196.367 37.554 198.245 36.533 201.82C35.862 204.172 32.668 219.422 31.264 226.984C30.811 229.423 29.347 235.844 28.699 238.234C28.158 240.227 25.863 251.227 25.204 254.984C24.224 260.567 22.434 266.484 21.725 266.484C20.461 266.484 19.874 264.191 20.211 260.57C20.386 258.693 20.335 257.037 20.098 256.89C19.103 256.275 12.065 260.415 9.257 263.267C5.466 267.118 4.091 270.025 4.072 274.234C4.023 284.808 16.726 294.655 29.733 294.125C32.972 293.994 33.223 294.07 36.053 296.052C40.543 299.197 48.031 302.234 51.294 302.234C53.056 302.234 61.095 303.791 64.895 304.867C67.398 305.577 67.142 306.686 64.28 307.53C62.427 308.076 61.153 308.065 56.562 307.459C47.069 306.207 41.117 304.312 35.5 300.752C32.801 299.041 32.063 298.819 28.144 298.541C15.968 297.675 5.514 291.57 1.397 282.919C0.155999 280.313 0 279.424 0 274.984C0 270.529 0.154001 269.66 1.415 267.01C4.09 261.391 11.715 255.344 17.25 254.452C20.262 253.967 21.25 253.362 21.25 252.002C21.25 251.312 21.462 249.789 21.722 248.616C21.981 247.443 22.442 245.246 22.746 243.734C23.05 242.222 23.495 240.084 23.734 238.984C23.973 237.884 24.429 235.634 24.747 233.984C25.065 232.334 25.512 230.196 25.742 229.234C25.971 228.272 26.39 226.359 26.672 224.984C27.57 220.616 28.331 217.099 29.272 212.984C29.774 210.784 30.322 208.309 30.489 207.484C30.656 206.659 31.03 204.972 31.32 203.734C32.117 200.339 32.588 198.264 33.25 195.234C33.58 193.722 34.029 191.697 34.247 190.734C34.464 189.771 35.14 186.621 35.749 183.734C36.358 180.847 37.047 177.584 37.281 176.484C38.896 168.886 40.334 165.234 41.712 165.234C43.142 165.234 44.086 163.101 44.478 158.984C44.989 153.615 45.258 152.68 46.681 151.344C52.129 146.232 60.137 142.261 70.25 139.658C83.957 136.13 105.837 134.953 124 136.766C136.078 137.971 148.384 141.225 156.25 145.292C160.948 147.721 164.129 150.435 167.009 154.471C169.539 158.016 169.843 159.048 173.061 174.984C174.009 179.683 174.666 182.723 175.328 185.484C175.592 186.584 176.016 188.609 176.27 189.984C176.525 191.359 176.963 193.496 177.243 194.734C177.523 195.972 177.957 198.109 178.208 199.484C178.662 201.979 178.914 203.207 179.748 206.984C179.991 208.084 180.666 211.571 181.247 214.734C181.828 217.897 182.504 221.272 182.751 222.234C182.997 223.196 183.348 225.109 183.531 226.484C183.714 227.859 184.046 229.996 184.269 231.234C184.492 232.472 184.835 234.446 185.03 235.621C185.416 237.946 185.959 238.589 186.897 237.835C188.656 236.42 197.431 233.799 206.72 231.913C215.038 230.225 225.009 227.181 229.685 224.902C234.173 222.716 239.749 219.057 246 214.196C257.403 205.33 273.182 200.572 283.85 202.783C287.005 203.437 291.727 204.919 293.246 205.732C294.549 206.429 295.971 205.415 296.468 203.434C296.637 202.76 297.782 200.082 299.013 197.484C300.243 194.886 301.25 192.639 301.25 192.491C301.25 192.344 301.683 191.269 302.212 190.104C303.372 187.546 307.25 177.139 307.25 176.583C307.25 176.366 305.478 174.454 303.313 172.336C296.651 165.818 293.843 158.43 294.378 148.829C294.769 141.804 297.817 134.599 302.419 129.824C304.765 127.389 310.137 123.299 312.704 121.993C318.327 119.133 329.974 118.246 335.893 120.227C348.686 124.507 357.25 136.234 357.25 149.469C357.25 159.586 353.245 168.373 345.92 174.327C342.088 177.441 340.526 178.323 335.786 180.047C329.766 182.236 321.159 182.117 314.428 179.751C312.446 179.054 311.651 178.955 311.53 179.387C311.439 179.716 311.1 180.996 310.777 182.234C308.943 189.265 304.055 200.492 300.901 204.918C299.948 206.256 299.355 207.511 299.584 207.706C299.813 207.9 301.462 208.696 303.25 209.474C305.038 210.252 308.863 212.042 311.75 213.451C318.565 216.776 322.525 218.403 327.75 220.021C335.564 222.442 345.602 226.428 352.25 229.75C357.829 232.539 361.796 235.678 364.099 239.127C367.442 244.133 367.79 248.401 366.224 265.234C365.955 268.121 365.532 273.859 365.283 277.984C364.774 286.43 363.939 290.131 361.561 294.484C358.676 299.763 352.428 303.441 340.75 306.735C339.512 307.084 337.825 307.559 337 307.791C329.797 309.817 327.289 310.604 322.5 312.34C306.823 318.023 296.889 324.347 278.25 340.509C269.74 347.889 258.111 351.44 248.75 349.518ZM259.215 344.665C268.098 341.836 272.933 339.078 280.818 332.342C299.182 316.654 313.426 308.88 333.25 303.725C342.569 301.302 349.339 298.819 352.75 296.573C355.806 294.56 358.737 291.747 359.354 290.234C359.635 289.546 360.061 284.484 360.301 278.984C360.541 273.484 360.97 266.847 361.254 264.234C362.184 255.678 362.426 246.809 361.804 244.03C361.474 242.557 360.579 240.648 359.741 239.631C356.59 235.809 344.756 230.319 326.046 224C317.38 221.073 313.643 219.528 302.75 214.371C299.312 212.744 295.15 210.901 293.5 210.276C291.85 209.651 289.375 208.689 288 208.138C284.734 206.83 277.896 206.412 272.911 207.216C263.249 208.775 255.048 212.629 244.25 220.686C237.135 225.995 231.037 229.191 222.75 231.955C215.977 234.215 215.711 234.283 206 236.238C187.619 239.938 176.684 245.45 171.291 253.734L169.5 256.484L169.556 265.234C169.587 270.109 169.979 276.823 170.441 280.394C171.125 285.688 171.179 287.919 170.752 293.209C170.166 300.463 170.582 303.65 172.567 307.102C174.373 310.244 181.307 314.68 189 317.613C210.665 325.874 216.682 328.604 227.5 335.077C233.994 338.963 240.074 341.824 244.75 343.194C246.812 343.798 249.062 344.48 249.75 344.71C251.626 345.337 257.188 345.311 259.215 344.665ZM147.139 339.901C148.521 339.047 150.073 337.488 150.943 336.082C152.206 334.037 152.414 333.201 152.428 330.095C152.447 325.882 151.753 324.256 148.794 321.583C146.101 319.15 143.74 318.234 140.164 318.234C136.848 318.234 134.851 319.045 132.332 321.415C129.741 323.853 129.056 325.544 129.065 329.484C129.082 337.401 133.923 342.04 141.652 341.546C144.018 341.395 145.386 340.985 147.139 339.901ZM117.617 331.259C120.154 330.41 120.915 330.328 121.705 330.822C123.303 331.82 125.053 330.696 125.476 328.398C126.476 322.971 129.951 318.289 134.592 316.118C137.05 314.967 137.822 314.342 138.053 313.311C138.216 312.581 138.544 311.196 138.782 310.234C139.793 306.134 139.886 300.54 139.011 296.483C137.644 290.145 135.186 285.652 130.511 280.946C126.128 276.534 122.117 274.023 116.5 272.175C111.571 270.553 102.5 270.547 97.75 272.163C91.854 274.169 87.838 276.686 83.976 280.797C79.578 285.479 77.87 288.42 75.733 294.984C74.809 297.821 74.897 306.91 75.876 309.734C78.398 317.011 80.704 320.776 84.969 324.577C87.536 326.865 93.468 330.214 96.988 331.362C102.056 333.014 112.531 332.962 117.617 331.259ZM150.375 302.05C154.15 300.856 156.239 300.33 163.662 298.701L166.324 298.117L166.109 288.3C165.991 282.901 165.767 278.034 165.611 277.484C165.454 276.934 165.309 276.315 165.288 276.109C165.217 275.411 164.402 275.729 163.052 276.98C162.313 277.665 160.338 279.156 158.664 280.292C156.337 281.872 155.077 282.387 153.31 282.477C151.422 282.573 147.736 283.477 140.823 285.54C140.392 285.669 140.279 286.059 140.511 286.613C142.004 290.182 143.232 294.685 143.794 298.657L144.455 303.329L146.352 303.026C147.396 302.859 149.206 302.42 150.375 302.05ZM332.649 176.364C335.708 175.646 340.947 172.876 343.503 170.627C346.372 168.101 349.306 163.645 351.074 159.129C352.346 155.878 352.497 154.887 352.472 149.956C352.449 145.312 352.252 143.953 351.24 141.456C348.098 133.701 343.805 128.914 337.118 125.705C331.945 123.223 327.738 122.516 322.243 123.205C315.193 124.089 309.214 127.279 305.282 132.253C297.817 141.698 296.707 154.808 302.548 164.538C304.785 168.263 306.305 169.875 309.75 172.175C313.431 174.632 314.584 175.183 318.322 176.271C321.768 177.273 328.59 177.318 332.649 176.364ZM140.25 273.474C140.25 273.056 141.309 271.987 142.604 271.099C143.899 270.211 145.851 268.522 146.942 267.347C149.453 264.642 150.273 265.24 148.589 268.548C147.024 271.623 145.533 272.993 143 273.683C140.408 274.39 140.25 274.378 140.25 273.474ZM44.641 270.609C44.333 266.395 44.896 261.454 46.992 249.984C47.444 247.509 48.24 243.121 48.761 240.234C49.574 235.729 50.594 230.775 52.262 223.234C52.475 222.272 52.893 220.359 53.19 218.984C53.487 217.609 54.06 215.022 54.461 213.234C54.863 211.446 55.889 206.834 56.742 202.984C58.772 193.812 59.268 192.234 60.115 192.234C60.914 192.234 60.676 195.38 59.435 201.234C58.446 205.899 57.464 210.954 56.764 214.984C55.648 221.413 54.258 228.96 53.772 231.234C53.293 233.474 51.639 242.498 50.747 247.734C50.49 249.246 50.034 252.509 49.735 254.984C48.623 264.178 47.613 269.542 46.607 271.609C46.038 272.778 45.415 273.734 45.221 273.734C45.028 273.734 44.767 272.328 44.641 270.609ZM155.583 270.901C155.4 270.717 155.25 269.738 155.25 268.725C155.25 267.712 155.037 266.231 154.777 265.434C154.517 264.636 154.183 260.946 154.035 257.234C153.887 253.522 153.504 248.009 153.184 244.984C152.326 236.862 152.34 233.984 153.239 233.984C153.767 233.984 154.164 235.055 154.632 237.734C154.992 239.796 155.49 242.609 155.739 243.984C157.402 253.171 158.384 267.449 157.536 270.122C157.192 271.203 156.259 271.576 155.583 270.901ZM188.875 223.895C187.226 223.761 186.25 223.45 186.25 223.058C186.25 222.258 189.074 221.234 191.285 221.233C194.645 221.232 202.605 219.338 210.5 216.662C226.324 211.297 242.594 198.846 251.083 185.604C252.275 183.745 253.25 182.11 253.25 181.97C253.25 181.83 254.12 180.284 255.183 178.535C256.246 176.785 257.468 174.37 257.9 173.169C264.505 154.779 266.181 146.039 265.557 133.234C265.109 124.032 262.858 113.66 259.751 106.484C257.517 101.323 254.776 96.1217 252.317 92.3757C250.692 89.9017 249.223 87.4357 249.051 86.8937C248.258 84.3957 232.739 70.1387 226.375 66.0627C224.381 64.7857 222.75 63.5137 222.75 63.2367C222.75 62.9597 222.413 62.7337 222 62.7337C221.587 62.7337 221.25 62.5087 221.25 62.2337C221.25 61.9587 220.8 61.7337 220.25 61.7337C219.7 61.7337 219.25 61.5087 219.25 61.2337C219.25 60.9587 218.909 60.7337 218.493 60.7337C218.077 60.7337 217.289 60.5087 216.743 60.2337C216.197 59.9587 215.348 59.5367 214.857 59.2967C214.366 59.0557 211.61 58.4877 208.732 58.0337C202.221 57.0067 198.589 56.3927 194.797 55.6757C190.665 54.8937 172.569 55.3927 168 56.4137C148.193 60.8397 132.863 69.2577 120.655 82.4127C112.975 90.6887 106.64 100.809 103.395 109.984C102.334 112.983 99.855 122.826 98.735 128.484C97.761 133.406 96.741 133.865 95.77 129.819C95.336 128.009 95.331 126.281 95.748 122.943C96.846 114.155 99.028 107.063 102.859 99.8267C106.856 92.2767 108.078 90.3527 112.433 84.7557C126.888 66.1757 145.406 55.2697 169.75 50.9977C175.279 50.0277 190.005 50.0037 195.75 50.9547C204.44 52.3947 212.833 55.0067 219.442 58.3307C232.101 64.6947 244.713 75.2817 251.035 84.8497C252.803 87.5257 254.25 89.8637 254.25 90.0457C254.25 90.2267 255.464 92.3127 256.947 94.6797C260.767 100.777 262.615 104.649 264.849 111.234C269.176 123.991 269.451 125.485 269.4 135.984C269.355 145.174 268.696 150.886 266.831 158.234C265.046 165.266 261.212 174.412 258.237 178.734C257.764 179.422 256.644 181.447 255.749 183.234C250.732 193.248 241.597 203.229 230.75 210.547C222.83 215.89 217.39 218.602 210.5 220.64C200.685 223.545 195.034 224.395 188.875 223.895ZM234.25 69.4737C234.25 69.0537 226.621 64.1957 226.365 64.4527C226.053 64.7637 227.545 66.2337 228.173 66.2337C228.444 66.2337 228.742 66.4337 228.833 66.6787C229.007 67.1407 233.218 69.6757 233.875 69.7127C234.081 69.7247 234.25 69.6167 234.25 69.4737ZM366.041 221.227C361.279 219.368 358.296 215.238 357.868 209.915C357.519 205.556 358.781 202.21 362 198.961C369.074 191.823 380.572 194.225 384.541 203.67C385.56 206.094 385.417 210.25 384.203 213.496C381.563 220.55 373.308 224.064 366.041 221.227ZM374.912 218.267C375.587 218.011 376.987 217.057 378.023 216.147C385.335 209.727 381.176 198.279 371.49 198.163C364.865 198.084 359.548 204.913 361.266 211.293C361.893 213.623 364.561 216.769 366.878 217.912C368.676 218.798 373.012 218.99 374.912 218.267ZM138.348 190.191C138.634 189.332 150.437 185.234 152.625 185.234C156.201 185.234 150.937 188.178 144.64 189.7C139.856 190.857 138.08 190.995 138.348 190.191ZM94.75 185.386C85.032 184.809 69.275 180.62 70.808 179.022C71.09 178.729 76.665 179.101 89.25 180.254C103.231 181.535 117.292 181.321 127 179.68C128.65 179.402 131.8 178.861 134 178.479C136.2 178.096 139.463 177.646 141.25 177.477C147.06 176.928 150.442 176.087 153.632 174.395C157.382 172.407 157.887 172.318 155.953 173.988C152.573 176.906 141.711 181.29 133.25 183.15C122.929 185.42 108.971 186.23 94.75 185.386ZM60.41 176.745C59.023 176.257 56.793 175.215 55.454 174.431C51.763 172.267 48.008 168.234 49.686 168.234C49.926 168.234 52.184 169.471 54.703 170.982C57.222 172.494 60.135 174.165 61.175 174.696C65.311 176.806 64.761 178.278 60.41 176.745ZM60.077 161.32C57.548 158.525 60.959 154.909 69 151.861C73.853 150.022 78.975 149.091 83 149.316L86 149.484L84.25 150.3C83.287 150.749 81.15 151.46 79.5 151.881C67.101 155.047 61.777 157.926 62.56 161.044C62.798 161.993 62.661 162.234 61.882 162.234C61.345 162.234 60.533 161.823 60.077 161.32ZM149.5 157.734C149.33 157.459 148.469 157.234 147.587 157.234C146.683 157.234 145.147 156.667 144.072 155.936C143.022 155.222 140.763 154.238 139.053 153.749C137.343 153.26 135.237 152.494 134.372 152.047C133.507 151.6 131.945 151.234 130.9 151.234C129.855 151.234 127.236 150.896 125.081 150.484C122.926 150.071 120.226 149.716 119.081 149.694C116.481 149.643 112.706 148.649 112.588 147.984C112.422 147.039 118.418 146.833 124.245 147.583C127.404 147.99 130.173 148.436 130.398 148.575C130.623 148.714 131.975 149.009 133.403 149.23C137.477 149.862 142.281 151.257 144.893 152.568C147.352 153.802 151.25 157.006 151.25 157.792C151.25 158.397 149.882 158.352 149.5 157.734ZM44.558 148.828C44.002 147.927 43.257 140.365 43.269 135.734C43.28 131.455 44.355 120.258 45.229 115.327C47.006 105.297 51.471 91.9857 57.334 79.2427C61.136 70.9777 70.902 56.4347 77.822 48.7337C79.428 46.9467 82.15 43.9087 83.871 41.9847C94.946 29.5977 113.891 16.8347 131.75 9.72871C149.474 2.67571 163.492 0.0277102 183.25 0.00071017C194.288 -0.0152898 197.454 0.22871 206.5 1.79271C224.146 4.84171 243.857 13.1897 259.237 24.1257C274.688 35.1127 291.256 53.0537 300.456 68.7587C307.176 80.2307 312.941 95.4837 315.475 108.5C316.151 111.971 315.901 114.343 314.484 117.884C313.475 120.404 311.746 117.29 309.983 109.779C305.845 92.1447 301.909 82.1837 293.624 68.3687C287.754 58.5807 282.284 51.6457 273.804 43.2337C264.322 33.8297 254.219 26.3687 241.5 19.3767C232.901 14.6507 229.822 13.1977 225.25 11.7087C222.913 10.9467 219.422 9.76671 217.492 9.08471C206.273 5.12071 179.051 4.06071 162.547 6.94471C153.782 8.47571 151.166 9.12471 143.342 11.7047C130.652 15.8907 121.852 19.9737 111.852 26.3137C81.929 45.2837 61.907 72.7637 52.712 107.484C52.421 108.584 51.994 110.159 51.763 110.984C51.533 111.809 51.089 114.059 50.776 115.984C50.463 117.909 49.99 120.744 49.724 122.285C49.459 123.825 49.094 129.668 48.913 135.268L48.584 145.45L46.746 147.421C45.571 148.68 44.781 149.189 44.558 148.828ZM116.257 114.109C116.265 112.468 117.168 109.448 118.614 106.234C123.224 95.9817 125.806 92.0817 132.204 85.7047C143.395 74.5537 159.978 66.8897 176.193 65.3747C178.786 65.1327 179.342 65.2067 179.154 65.7707C179.027 66.1517 178.04 66.6437 176.962 66.8627C167.136 68.8587 162.4 70.3907 155.304 73.8657C142.69 80.0427 133.676 87.5947 125.883 98.5127C122.757 102.893 118.25 111.269 118.25 112.7C118.25 113.542 117.109 115.734 116.67 115.734C116.439 115.734 116.253 115.003 116.257 114.109ZM355.5 89.5077C351.346 88.4857 349.551 87.3107 346.618 83.6877C344.478 81.0447 342.75 76.1627 342.75 72.7597C342.75 60.1977 356.322 51.3987 367.482 56.7247C371.094 58.4487 374.358 61.7237 375.876 65.1457C377.196 68.1237 377.607 73.9127 376.725 77.1067C375.286 82.3167 370.664 87.1097 365.172 89.0887C361.695 90.3417 359.308 90.4447 355.5 89.5077ZM362.824 85.5177C366.366 84.4427 367.982 83.4557 369.933 81.1767C374.442 75.9087 374.238 67.7547 369.479 62.9957C362.371 55.8877 350.547 58.8667 347.507 68.5307C345.13 76.0877 349.031 83.4087 356.529 85.4667C359.746 86.3487 360.075 86.3517 362.824 85.5177ZM255.725 337.91C254.969 335.617 254.998 323.644 255.783 313.734C256.428 305.606 256.644 304.452 257.237 305.984C258.933 310.361 258.499 338.403 256.719 339.503C256.506 339.635 256.058 338.918 255.725 337.91ZM238.986 330.218C238.122 329.264 238.118 329.152 238.914 328.356C239.704 327.566 239.853 327.565 241.13 328.336C241.884 328.79 242.572 329.629 242.66 330.198C242.79 331.046 242.554 331.234 241.362 331.234C240.533 331.234 239.509 330.797 238.986 330.218ZM271.85 326.634C270.984 325.768 271.112 324.514 272.164 323.561C273.302 322.532 275.424 322.489 276.246 323.48C276.758 324.096 276.586 324.486 275.255 325.73C273.505 327.364 272.774 327.558 271.85 326.634ZM208.477 316.007C206.975 314.505 206.914 313.07 208.293 311.691C209.434 310.55 210.913 310.662 213.033 312.051C214.637 313.103 214.997 314.532 214.03 316.008C212.921 317.7 210.17 317.7 208.477 316.007ZM212.5 314.199C212.5 313.813 212.106 313.422 211.625 313.329C210.763 313.163 210.407 314.224 211.094 314.911C211.618 315.435 212.5 314.989 212.5 314.199ZM231.678 310.476C230.122 309.63 229.22 307.432 229.793 305.883C230.254 304.636 232.652 303.234 234.323 303.234C234.94 303.234 236.076 303.839 236.848 304.578C240.521 308.096 236.256 312.963 231.678 310.476ZM235.65 309.134C236.51 308.274 236.408 307.953 234.977 307.015C233.462 306.023 231.75 306.409 231.75 307.743C231.75 309.384 234.44 310.344 235.65 309.134ZM297.304 309.049C296.602 308.203 297.671 306.857 300.251 305.337C303.433 303.463 305.043 305.808 302.348 308.39C300.803 309.87 298.261 310.202 297.304 309.049ZM274.106 308.167C273.269 306.936 273.263 306.721 274.018 304.834C274.809 302.858 277.216 300.788 279.604 300.03C280.433 299.767 280.886 299.977 281.493 300.904C282.165 301.928 282.201 302.486 281.72 304.398C281.405 305.649 280.72 307.059 280.198 307.531C279.286 308.356 279.25 308.328 279.25 306.796C279.25 304.856 278.2 304.324 276.529 305.419C275.738 305.938 275.26 306.784 275.157 307.849L275 309.484L274.106 308.167ZM184.434 303.348C181.206 300.733 181.724 295.758 185.307 294.971C187.264 294.542 189.25 295.813 189.25 297.496C189.25 299.017 188.918 299.052 187.783 297.651C186.599 296.188 185.25 296.738 185.25 298.683C185.25 299.497 185.613 300.525 186.056 300.969C186.79 301.702 186.97 301.705 188.056 300.993C189.174 300.261 189.25 300.273 189.25 301.186C189.25 302.176 187.077 304.243 186.058 304.223C185.751 304.217 185.02 303.823 184.434 303.348ZM319.036 298.948C317.957 297.87 318.049 297.097 319.407 295.821C320.743 294.567 322.362 294.414 323.23 295.46C324.095 296.503 323.41 298.126 321.739 298.989C319.965 299.907 319.995 299.908 319.036 298.948ZM248.75 297.643C239.494 295.06 234.243 292.844 228.547 289.119C225.874 287.37 211.058 279.899 204 276.741C192.999 271.818 189.75 270.208 189.75 269.682C189.75 268.871 191.15 269.204 199.612 272.029C214.452 276.983 220.161 279.485 229.75 285.235C242.382 292.809 253.004 296.157 259.845 294.721C266.829 293.254 273.479 289.737 282.366 282.807C293.874 273.835 301.995 269.001 312.615 264.803C319.116 262.233 322.894 261.089 339.25 256.739C348.132 254.376 354.707 251.559 357.919 248.738C359.864 247.03 360.25 246.91 360.25 248.013C360.25 249.145 357.505 252.384 355.088 254.102C350.088 257.658 345.212 259.637 335.521 262.043C323.214 265.099 315.8 267.669 307 271.933C296.921 276.816 292.531 279.703 280.517 289.351C276.828 292.314 269.722 295.86 264.76 297.214C260.68 298.327 252.03 298.559 248.75 297.643ZM339.438 294.133C338.944 293.334 341.562 291.234 343.053 291.234C346.483 291.234 349.823 287.591 350.352 283.273C350.565 281.53 351.653 281.415 352.287 283.068C353.14 285.289 352.492 287.694 350.488 289.746C348.523 291.758 344.988 293.734 343.353 293.734C342.782 293.734 341.746 293.95 341.05 294.215C340.176 294.547 339.678 294.522 339.438 294.133ZM206.338 290.078C205.399 289.078 205.343 288.798 205.923 288.004C206.411 287.337 206.948 287.175 207.889 287.411C209.386 287.787 210.107 289.452 209.23 290.508C208.381 291.531 207.593 291.413 206.338 290.078ZM191.625 287.126C190.573 285.809 190.563 285.681 191.428 284.498C192.272 283.344 193.556 283.762 194.32 285.438C195.474 287.97 193.358 289.295 191.625 287.126ZM303.21 285.436C302.659 284.771 302.672 284.419 303.29 283.318C304.234 281.635 306.607 280.702 307.272 281.752C307.984 282.879 307.871 283.18 306.139 284.762C304.273 286.466 304.099 286.506 303.21 285.436ZM327.692 278.359C327.661 278.153 327.68 277.561 327.735 277.044C327.817 276.275 327.605 276.162 326.573 276.421C324.493 276.943 324.416 275.734 326.413 273.904C328.805 271.712 331.156 271.69 332.311 273.848C332.761 274.689 332.547 275.15 330.946 276.789C329.182 278.595 327.829 279.248 327.692 278.359ZM247.25 277.087C246.562 276.739 245.701 275.831 245.335 275.068C244.414 273.146 245.559 271.459 248.283 270.725C249.94 270.279 250.723 270.332 252.498 271.01C255.26 272.065 256.954 273.802 256.529 275.143C255.837 277.324 250.096 278.526 247.25 277.087ZM253.815 275.199C256.029 274.014 252.058 272.257 248.789 272.975C247.202 273.324 246.611 274.893 247.875 275.403C249.029 275.869 252.806 275.739 253.815 275.199ZM276.444 275.465C275.521 274.75 275.522 274.717 276.49 273.97C277.699 273.036 278.932 273.204 279.149 274.331C279.396 275.609 277.602 276.361 276.444 275.465ZM350.326 269.064C349.108 267.769 349.28 266.661 350.909 265.309C352.88 263.673 354.135 267.03 352.368 269.212L351.487 270.301L350.326 269.064ZM183.75 267.901C182.238 267.2 180.299 266.302 179.443 265.906C177.78 265.136 175.549 263.268 175.888 262.93C176 262.818 177.8 263.515 179.888 264.48C181.976 265.445 183.98 266.25 184.342 266.271C185.315 266.325 187.9 267.934 188.132 268.631C188.447 269.574 186.753 269.292 183.75 267.901ZM283.536 256.948C282.629 256.042 282.539 255.423 283.25 254.984C284.1 254.459 283.806 253.738 282.5 253.143C280.917 252.422 280.846 250.573 282.361 249.512C283.594 248.649 285.615 248.506 286.718 249.204C287.299 249.571 287.126 249.948 285.814 251.174C284.464 252.435 284.28 252.855 284.716 253.671C285.005 254.211 285.919 254.801 286.746 254.983C288.728 255.418 288.648 256.119 286.516 257.01C284.384 257.9 284.49 257.903 283.536 256.948ZM203 256.255C200.138 255.786 197.502 254.39 196.72 252.929C195.943 251.476 196.327 250.594 198.42 249.031C200.823 247.238 207.545 248.175 208.408 250.425C208.642 251.035 208.104 251.108 205.069 250.878C202.083 250.653 201.302 250.754 200.6 251.455C199.43 252.625 199.535 253.57 200.938 254.489C201.899 255.119 202.683 255.18 205.043 254.81C206.648 254.558 208.044 254.101 208.147 253.793C208.409 253.008 209.25 253.094 209.25 253.907C209.25 255.689 206.302 256.797 203 256.255ZM240.68 247.734L239.5 246.734L240.665 245.746C243.098 243.684 247.764 243.534 249.687 245.457C250.676 246.446 249.936 247.904 248.324 248.144C247.52 248.263 247.25 248.044 247.25 247.269C247.25 246.498 246.931 246.234 246 246.234C245.312 246.234 244.75 246.459 244.75 246.734C244.75 247.009 245.087 247.234 245.5 247.234C245.913 247.234 246.25 247.571 246.25 247.984C246.25 249.166 242.154 248.983 240.68 247.734ZM326.996 246.27C325.894 245.779 324.687 245.011 324.315 244.562C322.517 242.396 325.757 239.367 330.383 238.89C332.754 238.645 333.206 238.761 334.668 239.992C336.04 241.146 336.278 241.655 336.151 243.159C335.853 246.693 331.366 248.218 326.996 246.27ZM333.928 244.138C334.676 242.945 333.038 241.234 331.148 241.234C329.55 241.234 326.75 242.498 326.75 243.218C326.75 245.115 332.827 245.894 333.928 244.138ZM303.456 228.973C302.515 228.246 302.516 228.222 303.471 227.484C304.619 226.597 305.222 226.558 307.054 227.255C308.224 227.699 308.32 227.872 307.712 228.442C306.548 229.534 304.51 229.788 303.456 228.973ZM276.5 225.963C272.52 223.897 272.134 219.854 275.74 217.989C277.851 216.897 279.462 217.056 281.212 218.528C283.072 220.093 283.313 221.531 281.625 220.99C278.854 220.102 277.501 220.161 276.375 221.217C274.902 222.6 274.956 223.43 276.602 224.725C277.69 225.581 278.347 225.724 279.977 225.459C281.323 225.241 281.833 225.298 281.5 225.63C280.533 226.594 278.037 226.76 276.5 225.963ZM147.716 330.401C147.525 328.096 147.14 326.831 146.274 325.66C145.01 323.95 144.976 323.234 146.158 323.234C148.239 323.234 150.27 329.99 148.375 330.612C148.031 330.725 147.734 330.63 147.716 330.401ZM83.356 303.14C81.977 301.761 83.349 293.487 85.645 289.344C88.27 284.607 93.331 280.572 98.691 278.946C103.783 277.4 107.25 278.607 107.25 281.924C107.25 283.543 106.443 285.234 105.669 285.234C105.369 285.234 103.746 285.927 102.062 286.774C98.357 288.638 94.182 292.564 92.178 296.068C90.212 299.508 89.479 300.097 88.785 298.799C88.491 298.249 88.25 297.335 88.25 296.767C88.25 295.257 86.82 295.494 86.184 297.109C85.886 297.865 85.498 299.591 85.321 300.943C84.987 303.503 84.388 304.172 83.356 303.14ZM93.013 291.204C94.931 289.263 98.131 286.636 100.125 285.367C104.606 282.515 104.884 281.477 101.064 281.871C96.338 282.359 91.235 285.874 89.311 289.965C88.122 292.496 87.923 294.734 88.888 294.734C89.24 294.734 91.096 293.146 93.013 291.204ZM333.333 167.839C333.58 167.254 341.557 159.734 341.931 159.734C342.678 159.734 342.146 161.133 340.758 162.816C338.815 165.173 332.718 169.298 333.333 167.839ZM343.583 153.401C343.4 153.217 343.247 152.149 343.244 151.026C343.225 144.336 339.364 137.63 334.029 135.02C330.662 133.373 330.276 132.827 331.68 131.691C333.891 129.899 339.115 132.77 342.916 137.864C345.697 141.593 347.267 149.899 345.732 152.767C345.215 153.734 344.212 154.029 343.583 153.401ZM377.594 208.411C377.405 208.222 377.25 207.438 377.25 206.668C377.25 205.829 376.654 204.59 375.761 203.573C374.053 201.627 374.258 200.954 376.246 201.982C377.792 202.781 379.394 205.73 379.157 207.339C378.993 208.45 378.186 209.004 377.594 208.411ZM368.087 73.3587C367.965 73.1527 367.703 72.0017 367.504 70.8007C367.261 69.3337 366.559 67.9717 365.365 66.6497C363.761 64.8747 363.663 64.6067 364.36 63.9087C364.962 63.3077 365.36 63.2577 366.157 63.6837C368.652 65.0187 370.895 70.5937 369.778 72.6807C369.206 73.7507 368.489 74.0377 368.087 73.3587Z" fill="white"/>
</svg>
