<svg width="338" height="326" viewBox="0 0 338 326" fill="none" xmlns="http://www.w3.org/2000/svg">
<path fill-rule="evenodd" clip-rule="evenodd" d="M142.883 324.686C116.765 322.929 104.987 321.727 89.3835 319.226C81.7855 318.008 80.4285 317.773 77.8835 317.233C76.3705 316.912 74.3465 316.486 73.3835 316.286C68.6295 315.3 65.7925 312.435 66.8205 309.657C67.0705 308.979 67.0375 307.908 66.7405 307.054C66.1905 305.478 66.5685 286.309 67.3715 275C68.5755 258.048 68.9945 240.947 68.7125 220.25C68.3825 196.091 67.8135 186.197 65.8935 171.25C65.5935 168.912 65.1425 165.2 64.8925 163C64.6425 160.8 64.1005 157.088 63.6885 154.75C63.2765 152.412 62.7865 148.575 62.6005 146.222C62.3115 142.574 62.3865 141.819 63.1075 141.098C65.1285 139.077 66.3725 141.624 69.2895 153.75C72.0965 165.419 73.2965 172.367 74.3865 183.25C74.6755 186.137 75.0255 189.377 75.1655 190.449C75.3045 191.52 75.7455 198.383 76.1455 205.699C77.9525 238.778 76.2915 282.236 72.2945 306.479C72.0955 307.687 74.0935 308.76 77.6335 309.346C89.2315 311.264 99.8205 312.654 111.133 313.743C114.158 314.034 118.77 314.487 121.383 314.749C135.59 316.179 143.574 316.466 168.383 316.44C194.302 316.413 199.278 316.198 218.633 314.265C223.274 313.802 225.263 313.57 235.758 312.27C244.542 311.182 250.613 310.275 257.383 309.042C262.524 308.106 268.94 308.007 269.783 308.85C271.394 310.461 269.001 313.304 265.235 314.254C264.079 314.546 262.571 315.025 261.883 315.32C257.504 317.198 244.587 319.659 228.383 321.703C217.245 323.108 211.035 323.628 191.883 324.761C182.175 325.335 151.839 325.288 142.883 324.686ZM269.499 306.625C268.628 305.551 267.485 301.604 266.922 297.725C262.96 270.432 261.682 252.149 261.699 223C261.717 190.678 263.456 169.22 267.797 147.75C269.81 137.79 270.971 134.595 272.662 134.353C274.468 134.094 275.057 136.054 274.451 140.306C274.162 142.338 273.674 146.475 273.368 149.5C273.062 152.525 272.615 156.012 272.376 157.25C272.136 158.488 271.688 162.537 271.381 166.25C271.073 169.963 270.617 175.141 270.367 177.759C270.117 180.376 269.768 192.414 269.59 204.509C269.216 230.078 269.715 244.73 271.853 271C274.188 299.673 274.414 304.24 273.579 305.855C273.045 306.887 272.486 307.25 271.431 307.25C270.647 307.25 269.777 306.969 269.499 306.625ZM44.9095 225.386C43.6665 224.896 32.7765 216.286 21.0815 206.546C13.8095 200.489 2.97948 189.558 2.54848 187.839C2.30248 186.86 2.53348 186.319 3.58548 185.414C4.33048 184.774 5.20748 184.251 5.53648 184.252C6.43248 184.256 35.6685 207.485 43.1085 214.105C45.0475 215.831 46.7995 217.244 47.0025 217.246C47.2065 217.248 50.5815 214.092 54.5025 210.232C60.1825 204.641 61.8775 203.242 62.8335 203.357C64.3445 203.537 65.1205 204.741 64.7275 206.298C64.4335 207.463 57.8475 216.117 53.6835 220.81C52.5555 222.08 51.1445 223.711 50.5465 224.435C49.7025 225.456 49.0315 225.741 47.5465 225.711C46.4945 225.689 45.3075 225.543 44.9095 225.386ZM287.541 217.247C286.253 216.728 285.383 215.278 285.383 213.651C285.383 212.929 284.961 212.3 284.27 211.994C283.658 211.722 282.815 210.869 282.395 210.097C281.696 208.809 281.707 208.638 282.531 208.025C283.674 207.174 284.992 207.52 286.427 209.047C287.049 209.709 287.88 210.25 288.275 210.25C288.669 210.25 290.486 209.016 292.312 207.507C294.139 205.998 297.996 202.893 300.883 200.606C305.476 196.969 309.517 193.929 325.633 181.985C327.558 180.559 330.089 178.767 331.258 178.004C332.427 177.241 333.383 176.461 333.383 176.27C333.383 176.079 332.367 174.816 331.125 173.463C329.883 172.111 327.586 169.203 326.022 167.002C324.457 164.801 321.35 160.525 319.116 157.5C316.882 154.475 313.483 149.863 311.561 147.25C299.97 131.489 284.028 115.25 280.147 115.25C279.679 115.25 277.909 114.488 276.214 113.556C274.52 112.625 267.171 108.829 259.883 105.122C244.164 97.125 237.758 93.777 235.383 92.32C234.421 91.729 232.845 90.907 231.883 90.494C228.081 88.86 227.636 88.5 227.482 86.931C227.356 85.649 227.565 85.296 228.736 84.811C232.158 83.393 244.871 88.167 264.633 98.29C276.217 104.224 284.074 108.187 286.309 109.223C288.648 110.307 296.451 116.893 300.633 121.312C317.404 139.036 337.883 167.978 337.883 173.956C337.883 174.837 337.557 175.996 337.158 176.529C336.675 177.175 336.529 178.125 336.72 179.367C337.113 181.914 336.386 182.873 330.273 187.873C325.336 191.911 294.747 215.074 291.977 216.872C290.514 217.822 289.236 217.93 287.541 217.247ZM0.647479 183.266C-0.132521 182.403 -0.171522 181.996 0.336478 179.978C1.83948 174.009 13.6235 154.921 23.3185 142.75C36.9735 125.607 45.6135 116.989 51.3835 114.752C52.3465 114.379 54.8215 113.134 56.8835 111.985C65.6335 107.113 70.2325 104.617 77.0875 101.021C80.0865 99.448 82.8995 97.96 83.3375 97.716C88.1025 95.056 98.0715 91.25 100.272 91.25C103.115 91.25 103.144 94.606 100.311 95.78C99.4395 96.141 97.0285 97.545 94.9535 98.9C87.7935 103.573 79.5245 108.509 72.5145 112.292C67.8055 114.834 62.6635 117.682 60.6335 118.873C59.2555 119.682 55.1785 121.707 52.5465 122.89C50.5535 123.785 43.1125 131.414 36.8325 139C28.0765 149.576 19.5785 161.034 10.3355 174.725C6.01448 181.126 3.34348 184.25 2.19448 184.25C1.83348 184.25 1.13748 183.807 0.647479 183.266ZM150.883 140.44C136.881 137.907 129.069 134.701 119.827 127.695C113.969 123.255 109.915 118.174 106.107 110.5C103.291 104.827 102.613 99.206 104.649 98.425C106.588 97.681 107.718 98.687 109.354 102.616C114.358 114.634 124.091 123.622 137.383 128.501C141.32 129.946 142.305 130.212 148.383 131.471C152.768 132.38 169.237 132.557 173.483 131.74C180.211 130.447 181.924 130.03 186.133 128.665C202.296 123.423 213.383 113.701 221.558 97.602C222.952 94.857 223.32 94.482 224.761 94.343C226.895 94.137 227.226 95.051 226.428 98.954C225.075 105.572 219.385 115.206 213.058 121.592C208.935 125.754 201.453 130.985 195.883 133.6C182.828 139.731 163.339 142.693 150.883 140.44ZM146.383 109.47C135.314 108.055 128.529 106.192 120.048 102.238C115.052 99.909 114.248 98.792 116.238 96.945C119.231 94.166 119.626 94.134 125.66 96.188C139.788 100.997 157.766 103.278 169.508 101.753C171.639 101.476 175.239 101.012 177.508 100.721C186.722 99.539 199.687 95.476 207.928 91.187C210.994 89.591 211.499 88.922 210.008 88.43C209.527 88.272 208.121 87.688 206.883 87.134C205.645 86.58 201.821 84.892 198.383 83.383C194.945 81.875 190.482 79.877 188.463 78.945C186.445 78.013 184.702 77.25 184.591 77.25C184.479 77.25 182.643 76.441 180.51 75.453C172.328 71.66 164.234 68.679 162.977 68.994C161.626 69.334 156.666 71.726 152.383 74.103C144.968 78.22 141.248 80.25 141.119 80.25C141.04 80.25 138.234 81.825 134.883 83.75C131.532 85.675 128.695 87.25 128.578 87.25C128.461 87.25 126.739 88.236 124.749 89.442C119.718 92.491 111.24 96.75 110.202 96.75C109.726 96.75 108.785 96.198 108.11 95.523C106.548 93.961 106.505 91.774 108.008 90.384C109.711 88.809 118.166 83.649 129.133 77.491C141.528 70.531 146.461 67.852 153.684 64.158L158.735 61.575L159.031 53.991C159.465 42.878 161.3 38.97 167.563 35.823C171.521 33.834 172.136 33.8 171.213 35.625C170.83 36.381 170.358 37.9 170.163 39C169.969 40.1 169.325 41.787 168.732 42.75C167.764 44.32 167.636 45.354 167.477 52.818L167.301 61.136L169.717 62.028C174.187 63.68 179.617 65.832 181.883 66.85C183.121 67.407 185.321 68.399 186.773 69.056C188.225 69.713 189.513 70.25 189.635 70.25C189.758 70.25 191.332 70.925 193.133 71.75C194.934 72.575 196.494 73.25 196.599 73.25C196.705 73.25 198.893 74.231 201.462 75.43C204.031 76.63 207.483 78.224 209.133 78.974C220.927 84.335 222.201 85.299 221.614 88.426C221.263 90.298 220.288 91.433 218.588 91.949C218.013 92.124 217.226 92.863 216.838 93.592C215.971 95.221 212.75 97.284 205.883 100.609C196.555 105.126 184.799 108.451 173.633 109.731C167.523 110.432 152.801 110.291 146.383 109.47ZM174.669 30.964C173.705 30.001 173.693 30.289 174.883 25.75C175.424 23.688 175.87 21.49 175.874 20.867C175.904 16.95 172.455 11.655 168.642 9.766C159.033 5.006 146.883 12.654 146.883 23.463C146.883 27.281 145.794 28.5 142.383 28.5C137.97 28.5 137.007 26.091 138.698 19.282C140.816 10.756 146.242 4.404 154.133 1.213C156.647 0.196001 157.983 0 162.383 0C168.661 0 171.221 0.696002 175.195 3.483C181.185 7.683 184.244 14.063 183.747 21.317C183.434 25.889 181.895 29.446 179.633 30.829C177.792 31.955 175.716 32.011 174.669 30.964Z" fill="white"/>
</svg>
