<svg width="220" height="201" viewBox="0 0 220 201" fill="none" xmlns="http://www.w3.org/2000/svg">
<path fill-rule="evenodd" clip-rule="evenodd" d="M152.622 199.867C150.697 199.629 147.097 199.189 144.622 198.891C124.82 196.505 102.932 193.551 99.9905 192.868C98.8175 192.596 97.1115 192.373 96.1985 192.373C95.2865 192.373 93.3205 192.154 91.8305 191.886C87.7515 191.152 74.0945 188.94 70.1225 188.371C66.1705 187.804 64.5625 187.537 52.6225 185.458C40.4985 183.347 20.8845 179.421 16.1225 178.152C10.4695 176.646 8.03547 175.392 5.44447 172.653C-0.839533 166.008 -1.44053 154.137 2.39247 112.373C3.10947 104.562 3.78447 100.332 4.43847 99.5444C4.96947 98.9034 5.15347 98.9854 5.75347 100.13C6.13647 100.862 6.55247 101.36 6.67547 101.236C6.79947 101.113 6.33147 99.8794 5.63647 98.4954C3.99947 95.2364 3.92747 93.4934 5.51547 95.5734C8.00047 98.8284 12.3085 102.705 14.8845 104.005C17.6205 105.386 24.0685 107.64 27.3725 108.369C28.3345 108.582 31.8225 109.456 35.1225 110.311C40.6405 111.741 47.2505 113.267 52.8725 114.41C54.1095 114.661 56.1355 115.106 57.3725 115.398C59.6295 115.931 64.2515 116.779 66.1225 117.003C66.9975 117.108 67.1585 116.749 67.4125 114.123C67.7595 110.522 68.9685 107.802 70.9705 106.117C72.8525 104.534 72.8245 104.536 81.3725 105.382C93.2755 106.562 95.4485 107.221 97.1845 110.184C98.3435 112.162 98.4535 112.741 98.1455 115.27C97.9555 116.839 97.7595 119.023 97.7105 120.123L97.6225 122.123L101.622 122.461C103.822 122.647 107.647 122.937 110.122 123.106C112.597 123.274 115.369 123.529 116.282 123.672C117.196 123.815 122.033 124.157 127.032 124.432C132.032 124.707 138.259 125.061 140.872 125.22C146.14 125.54 158.672 124.602 162.751 123.583C169.759 121.831 174.482 118.294 175.839 113.781C176.196 112.594 176.666 111.061 176.884 110.373C177.102 109.685 177.539 107.66 177.856 105.873C178.173 104.086 178.635 101.836 178.883 100.873C179.13 99.9104 180.025 94.7354 180.872 89.3734C181.718 84.0114 182.622 78.9484 182.882 78.1234C183.141 77.2984 183.462 74.1484 183.595 71.1234C183.955 62.9664 184.939 59.0984 187.748 54.7964C189.419 52.2384 193.932 49.3384 196.395 49.2394C198.664 49.1494 201.034 50.6324 201.282 52.2984C201.427 53.2734 201.214 53.3734 199.005 53.3734C197.174 53.3734 195.998 53.7344 194.28 54.8244C191.522 56.5734 191.036 57.2594 191.938 58.1274C192.504 58.6724 193.312 58.6564 196.622 58.0364C198.822 57.6244 200.836 57.0814 201.097 56.8304C201.862 56.0944 203.872 56.2924 203.872 57.1044C203.872 58.1084 202.207 59.5704 199.856 60.6304L197.89 61.5174L198.154 66.8204C198.299 69.7374 198.631 73.8114 198.893 75.8734C199.456 80.3204 199.727 144.894 199.186 145.769C198.981 146.101 198.517 146.373 198.155 146.373C197.667 146.373 197.427 144.925 197.224 140.748C197.074 137.654 196.723 132.986 196.446 130.373C196.168 127.76 195.806 122.698 195.641 119.123C195.082 106.967 194.403 67.6344 194.707 64.9984L195.01 62.3734L192.691 62.2904C191.415 62.2444 189.987 62.1884 189.517 62.1654C188.608 62.1204 188.343 62.9374 187.34 68.8734C187.038 70.6604 186.571 73.3604 186.303 74.8734C185.474 79.5364 184.94 89.1884 184.175 113.373C182.1 178.882 181.655 185.374 178.838 191.193C178.244 192.421 177.85 193.517 177.963 193.63C178.075 193.743 178.832 193.475 179.645 193.036C180.457 192.596 182.616 191.494 184.442 190.588C191.854 186.908 195.46 181.654 196.426 173.123C197.294 165.455 197.582 164.123 198.372 164.123C199.4 164.123 199.999 168.143 200.067 175.498C200.1 179.049 200.32 181.371 200.622 181.368C201.54 181.358 205.749 179.962 207.446 179.105C211.071 177.275 212.838 174.818 213.907 170.123C215.412 163.51 213.977 132.583 209.823 82.1234C209.279 75.5234 208.721 67.5354 208.582 64.3734C208.443 61.2114 208.081 57.6104 207.778 56.3734C206.489 51.1044 203.536 48.1974 199.331 48.0574C198.019 48.0144 196.742 47.8524 196.493 47.6984C195.977 47.3794 191.411 46.8324 177.122 45.3784C171.622 44.8184 165.322 44.1484 163.122 43.8884C160.922 43.6294 156.921 43.1654 154.231 42.8574L149.341 42.2974L147.532 43.8854L145.722 45.4744L139.922 45.2904C132.958 45.0694 130.419 44.1324 129.644 41.4984C129.179 39.9184 129.088 39.8734 126.394 39.8694C124.869 39.8674 121.71 39.6574 119.372 39.4024C117.034 39.1474 113.097 38.8054 110.622 38.6424C108.147 38.4794 105.109 38.1414 103.872 37.8924C102.635 37.6434 99.3725 37.3054 96.6225 37.1414C93.8725 36.9774 89.3725 36.6374 86.6225 36.3864L81.6225 35.9294L78.0095 37.7054C74.5595 39.4004 74.2225 39.4674 70.5095 39.1964C62.8735 38.6394 61.7545 38.3184 60.4565 36.3104L59.2845 34.4974L52.2035 34.1674C48.3095 33.9854 42.0845 33.6214 38.3725 33.3584C34.6605 33.0954 29.0355 32.8264 25.8725 32.7604C20.6295 32.6514 19.9095 32.7494 17.7075 33.8654C13.5925 35.9524 10.5265 40.1304 9.12047 45.5674C8.75747 46.9734 7.76147 53.9734 6.90847 61.1234C4.20647 83.7644 3.80847 86.5924 3.12647 87.9614C2.56447 89.0924 2.57047 89.3424 3.16647 89.5714C4.15647 89.9504 4.12447 93.3734 3.13247 93.3734C2.72447 93.3734 2.26447 92.7544 2.10947 91.9984C1.95347 91.2424 1.47847 89.2334 1.05447 87.5354C0.398466 84.9154 0.365466 83.4754 0.839466 78.0354C1.14647 74.5084 1.60147 70.4984 1.85047 69.1234C2.09947 67.7484 2.45047 64.9404 2.62947 62.8834C2.80947 60.8264 3.06847 58.9614 3.20547 58.7384C3.34347 58.5164 3.52747 56.9374 3.61447 55.2294C3.79247 51.7454 4.59347 46.0194 5.27247 43.3734C7.02347 36.5494 11.9445 31.1944 17.7115 29.8394C19.0375 29.5274 21.0895 28.9234 22.2715 28.4964C24.7075 27.6154 30.6365 27.7544 51.3105 29.1754C61.1255 29.8504 63.0665 29.8704 63.4275 29.3014C63.6635 28.9284 63.8605 27.3464 63.8645 25.7844C63.8925 15.6314 67.1285 7.69239 72.6225 4.30239C74.3675 3.22639 75.9115 3.11339 76.7995 3.99839C77.3015 4.49839 77.5955 4.40939 78.2745 3.55239C80.8635 0.28239 87.2755 -0.529611 103.913 0.305389C131.28 1.67839 141.045 4.55339 146.311 12.7854C149.42 17.6464 150.994 25.8994 149.915 31.6884C149.563 33.5774 149.353 35.9114 149.448 36.8734L149.622 38.6234L155.372 38.7004C160.485 38.7684 168.337 39.3354 174.872 40.1074C176.11 40.2534 179.372 40.6114 182.122 40.9014C198.276 42.6084 202.934 43.4114 205.734 44.9744C209.227 46.9234 210.275 48.5044 211.798 54.1234C212.738 57.5894 214.107 68.8114 214.604 77.1234C214.752 79.5984 215.105 84.3234 215.388 87.6234C215.671 90.9234 216.129 96.9984 216.406 101.123C216.683 105.248 217.138 111.66 217.418 115.373C218.7 132.413 218.885 136.032 219.181 150.025C219.533 166.598 219.245 169.442 216.803 173.506C216.016 174.816 215.372 176.407 215.372 177.041C215.372 178.912 212.301 181.975 208.563 183.831C205.841 185.183 204.341 185.587 201.373 185.769C197.656 185.997 197.597 186.023 194.872 188.588C191.847 191.434 188.567 193.764 185.872 194.979C184.909 195.412 183.005 196.269 181.639 196.882C176.075 199.379 173.026 199.953 164.372 200.132C159.835 200.225 154.547 200.106 152.622 199.867ZM170.35 194.384C173.875 192.586 174.977 190.157 175.812 182.343C176.393 176.906 178.155 151.027 178.653 140.623C178.811 137.323 179.247 131.586 179.622 127.873C180.813 116.095 180.956 113.373 180.38 113.373C180.087 113.373 179.613 113.992 179.328 114.748C178.045 118.142 175.639 120.999 171.995 123.459C166.4 127.234 163.568 128.314 157.711 128.907C154.912 129.19 151.526 129.663 150.187 129.959C147.599 130.53 134.21 130.222 121.872 129.308C118.159 129.033 113.322 128.714 111.122 128.598C107.287 128.397 101.369 127.639 98.9975 127.046C98.1605 126.837 97.8725 126.983 97.8725 127.618C97.8725 129.182 96.3405 131.727 95.0435 132.318C94.0535 132.769 93.8305 133.153 94.0585 134.012C94.2215 134.623 94.1045 137.085 93.8005 139.482C93.3115 143.324 93.0425 144.079 91.5295 145.846C89.3865 148.35 86.9165 149.098 82.1225 148.695C75.6165 148.148 71.4315 146.291 70.2625 143.432C69.3675 141.245 68.9715 136.656 69.3655 133.043C69.7285 129.712 69.7015 129.588 68.3055 128.276C67.1365 127.178 66.8725 126.511 66.8725 124.661C66.8725 122.12 67.1655 122.296 61.3725 121.353C53.4445 120.064 52.2695 119.838 45.8725 118.374C44.9105 118.154 42.9975 117.742 41.6225 117.459C40.2475 117.176 38.5085 116.711 37.7575 116.425C37.0065 116.139 34.4185 115.428 32.0075 114.846C22.5875 112.569 13.4395 108.588 9.64547 105.112C8.60147 104.155 7.69647 103.373 7.63547 103.373C7.57447 103.373 7.38447 106.692 7.21447 110.748C7.04347 114.804 6.63047 122.061 6.29647 126.873C5.45447 139.009 5.43347 161 6.26147 163.727C7.04547 166.311 9.62747 169.78 11.6295 170.94C13.2095 171.855 19.4365 173.644 23.6225 174.385C24.9975 174.628 28.2605 175.291 30.8725 175.858C33.4845 176.425 36.7475 177.097 38.1225 177.351C43.5755 178.359 49.2815 179.376 52.3725 179.891C54.1595 180.189 56.6355 180.635 57.8725 180.883C59.1095 181.13 64.6225 182.019 70.1225 182.858C75.6225 183.697 81.2475 184.605 82.6225 184.876C84.8585 185.316 92.0155 186.385 102.872 187.901C104.934 188.19 107.859 188.623 109.372 188.864C110.885 189.105 114.147 189.555 116.622 189.864C119.097 190.172 122.247 190.627 123.622 190.874C124.997 191.121 128.485 191.578 131.372 191.89C134.259 192.202 137.634 192.641 138.872 192.866C140.11 193.091 143.934 193.539 147.372 193.861C150.81 194.184 154.297 194.633 155.122 194.859C155.947 195.086 159.275 195.294 162.517 195.322C167.469 195.365 168.722 195.215 170.35 194.384ZM88.6995 143.749C88.9115 143.405 89.2485 141.886 89.4485 140.374C89.6485 138.861 89.9655 136.473 90.1535 135.068L90.4955 132.512L86.8085 132.198C84.7815 132.025 81.9975 131.682 80.6225 131.435C79.2475 131.188 77.0455 130.817 75.7295 130.609L73.3375 130.232L73.4795 135.625C73.6165 140.776 73.6805 141.061 74.9245 141.989C77.4315 143.857 87.8125 145.184 88.6995 143.749ZM93.5905 127.498C92.8835 125.904 92.8015 122.672 93.3725 118.873C94.3545 112.339 94.3075 111.642 92.8725 111.492C92.1845 111.42 88.6975 110.927 85.1225 110.396C81.5475 109.865 77.2635 109.299 75.6035 109.139L72.5845 108.847L71.9915 111.735C71.1265 115.945 70.2405 123.807 70.5415 124.593C70.7885 125.235 71.7895 125.444 81.6225 126.902C83.5475 127.187 85.9095 127.607 86.8725 127.834C87.8355 128.061 89.8275 128.275 91.3005 128.31C93.6785 128.366 93.9355 128.275 93.5905 127.498ZM145.234 30.3084C144.963 21.9644 144.685 20.0284 143.349 17.1854C142.318 14.9924 138.425 10.8734 137.383 10.8734C136.628 10.8734 136.725 11.0734 138.384 12.9304C141.443 16.3554 142.397 19.5984 142.737 27.7374C142.943 32.6724 142.853 34.5444 142.381 35.1124C140.583 37.2794 139.379 34.5034 139.375 28.1814C139.37 21.1774 137.438 16.4314 132.874 12.2054C128.78 8.41539 128.158 8.05139 124.622 7.38139C112.353 5.05539 95.0525 3.95439 85.1225 4.86739C77.1575 5.60039 75.6055 6.17439 72.5105 9.53139C69.9075 12.3554 68.6005 14.9334 68.1545 18.1234C67.9625 19.4984 67.6035 21.4114 67.3575 22.3734C67.1115 23.3354 66.7745 25.1994 66.6085 26.5154C66.3915 28.2324 65.8895 29.3334 64.8275 30.4194C64.0145 31.2514 63.4635 32.1164 63.6035 32.3434C64.0125 33.0044 71.4015 33.5444 71.9895 32.9564C72.2805 32.6654 72.4715 30.3214 72.4315 27.5334C72.3855 24.3934 72.6155 21.9024 73.0695 20.6244C73.9735 18.0774 76.3995 15.1844 79.0165 13.5324C80.9495 12.3124 81.3015 12.2594 85.3425 12.5854C87.6965 12.7744 94.0105 13.1404 99.3725 13.3984C104.734 13.6564 111.034 14.1034 113.372 14.3904C115.71 14.6784 119.534 15.0914 121.872 15.3084C126.763 15.7634 129.448 16.8604 131.07 19.0684C133.229 22.0084 133.614 23.7684 133.618 30.7334L133.622 37.3424L139.122 37.4834C142.147 37.5604 144.809 37.4814 145.037 37.3084C145.265 37.1354 145.354 33.9854 145.234 30.3084ZM130.037 35.0554C129.99 34.8114 129.844 32.3354 129.712 29.5534C129.4 22.9614 128.123 20.3804 125.17 20.3664C124.318 20.3624 122.722 20.0494 121.622 19.6714C119.53 18.9514 110.657 18.1914 94.6225 17.3564L85.1225 16.8624L84.0355 18.1014C83.3095 18.9294 82.8475 20.3014 82.6435 22.2324C82.4765 23.8224 82.0895 26.4224 81.7855 28.0104C81.4805 29.5984 81.3705 31.0384 81.5415 31.2094C81.8445 31.5124 84.2915 31.7514 98.6225 32.8744C104.904 33.3674 114.817 34.2844 125.372 35.3484C129.48 35.7624 130.164 35.7194 130.037 35.0554ZM77.3825 29.9684C77.3915 27.7474 78.4065 21.4384 79.1475 18.9984C79.6835 17.2324 79.0305 17.6754 77.6735 19.9984C76.9375 21.2574 76.0825 24.0394 75.5745 26.8234C74.7535 31.3264 74.7555 31.5514 75.6185 32.1824C76.9375 33.1464 77.3715 32.6024 77.3825 29.9684ZM186.155 183.528C185.772 182.531 188.35 178.707 189.57 178.461C190.825 178.208 190.531 179.711 188.848 182.158C187.197 184.558 186.656 184.833 186.155 183.528ZM20.7055 102.04C20.5225 101.856 20.3725 101.166 20.3725 100.506C20.3725 99.4924 20.5855 99.3314 21.7475 99.4654C22.8275 99.5894 23.1565 99.9184 23.2805 100.998C23.4145 102.16 23.2535 102.373 22.2395 102.373C21.5795 102.373 20.8895 102.223 20.7055 102.04ZM14.1205 99.6904C12.6295 97.4144 15.0465 94.5434 17.1555 96.0854C17.9205 96.6454 17.9025 96.8544 16.9185 98.7824C15.6945 101.182 15.2025 101.342 14.1205 99.6904ZM204.354 96.7824C203.654 95.2474 204.15 85.8734 204.931 85.8734C206.397 85.8734 207.012 95.3074 205.666 97.1474C204.983 98.0814 204.94 98.0694 204.354 96.7824ZM10.7055 95.5404C10.0365 94.8704 10.4015 92.0814 11.3675 90.4984C12.8245 88.1074 13.5745 88.3934 13.1905 91.1934C13.0155 92.4694 12.8725 94.0444 12.8725 94.6934C12.8725 95.8384 11.5285 96.3634 10.7055 95.5404ZM170.372 85.8044C170.372 83.2484 172.03 76.7864 173.016 75.4984C174.474 73.5944 174.773 76.3884 173.699 81.8734C172.5 87.9944 170.372 90.5094 170.372 85.8044ZM203.142 82.9984C202.656 81.7334 203.407 71.4104 204.013 71.0364C204.294 70.8624 204.827 71.1354 205.198 71.6424C205.998 72.7374 206.133 80.6234 205.384 82.5904C204.824 84.0654 203.636 84.2814 203.142 82.9984ZM172.556 67.0394C172.969 64.0234 174.793 60.0674 176.849 57.7254C179.428 54.7884 180.177 55.4584 178.412 59.1234C177.882 60.2234 177.161 62.1094 176.809 63.3134C176.105 65.7234 173.691 69.3734 172.801 69.3734C172.416 69.3734 172.338 68.6294 172.556 67.0394ZM45.9925 39.7484C46.3235 38.7304 50.2405 37.5414 50.9445 38.2454C51.3925 38.6934 51.3795 39.0124 50.8905 39.6024C50.0855 40.5714 45.6825 40.7024 45.9925 39.7484ZM35.3725 38.8934C35.3725 38.3154 39.2485 37.0834 39.6875 37.5214C39.8575 37.6914 39.8625 38.1774 39.6995 38.6014C39.3705 39.4604 35.3725 39.7294 35.3725 38.8934ZM23.3725 37.8614C23.3725 37.3734 25.4115 36.3734 26.4055 36.3734C27.1875 36.3734 26.9265 37.7454 26.0815 38.0704C24.8515 38.5414 23.3725 38.4274 23.3725 37.8614ZM167.872 143.712C167.872 142.365 169.286 137.914 170.004 136.998C170.968 135.769 171.348 136.41 171.041 138.748C170.515 142.761 167.872 146.9 167.872 143.712ZM152.193 139.528C151.755 139.09 156.363 134.373 157.228 134.373C158.391 134.373 157.904 135.672 155.949 137.79C154.125 139.765 152.967 140.301 152.193 139.528ZM105.372 132.873C105.372 132.598 106.173 132.373 107.152 132.373C108.211 132.373 108.806 132.575 108.622 132.873C108.452 133.148 107.651 133.373 106.842 133.373C106.034 133.373 105.372 133.148 105.372 132.873ZM42.6615 123.24C40.4665 121.99 39.8955 121.025 41.0825 120.569C42.1365 120.165 43.7455 120.62 45.8515 121.918C47.4945 122.932 47.5335 123.019 46.6305 123.679C45.3715 124.599 44.9705 124.555 42.6615 123.24ZM32.6225 121.528C29.5255 121.125 24.5105 118.364 25.1105 117.392C25.6695 116.487 35.0745 119.876 35.5675 121.161C35.8475 121.89 35.6205 121.918 32.6225 121.528ZM14.7055 116.04C14.1685 115.502 14.3225 113.963 14.9535 113.573C15.6215 113.16 17.5125 115.242 17.0905 115.925C16.7675 116.448 15.1905 116.524 14.7055 116.04ZM87.1925 140.026C86.6295 139.463 86.8495 138.873 87.6225 138.873C88.0345 138.873 88.3725 139.085 88.3725 139.343C88.3725 139.974 87.5915 140.426 87.1925 140.026Z" fill="white"/>
</svg>
