<svg width="345" height="327" viewBox="0 0 345 327" fill="none" xmlns="http://www.w3.org/2000/svg">
<path fill-rule="evenodd" clip-rule="evenodd" d="M255.18 326.594C240.32 325.944 224.607 324.252 213.43 322.097C208.236 321.096 207.177 319.44 206.475 311.22C206.173 307.696 206.031 304.644 206.159 304.438C206.286 304.232 206.62 301.229 206.901 297.766C208.183 281.988 213.164 268.715 221.806 258.055C223.884 255.491 230.879 249.434 234.796 246.807C238.231 244.503 243.902 241.765 248.076 240.394C251.479 239.277 252.586 239.184 253.928 239.902C254.441 240.177 256.036 240.57 257.473 240.777C258.909 240.984 259.993 241.377 259.882 241.65C259.771 241.923 257.992 242.727 255.93 243.436C241.999 248.226 232.161 255.246 223.732 266.411C219.521 271.988 215.727 281.087 214.457 288.653C214.134 290.578 213.658 293.239 213.4 294.566C212.753 297.889 212.787 315.256 213.441 315.66C214.39 316.247 228.615 317.938 238.43 318.631C256.314 319.893 279.285 320.517 297.93 320.246C319.02 319.939 328.391 319.173 335.738 317.154L338.795 316.314L339.238 311.479C339.776 305.596 339.277 290.002 338.451 286.903C338.121 285.665 337.617 283.753 337.332 282.653C334.949 273.469 329.788 264.781 322.618 257.881C315.235 250.776 309.138 247.254 297.68 243.474C290.878 241.23 289.829 241.074 278.43 240.599C271.83 240.323 269.831 240.069 268.437 239.329C267.377 238.766 265.664 238.403 264.062 238.403C262.615 238.403 261.43 238.209 261.43 237.971C261.43 237.734 262.836 237.263 264.555 236.925C266.274 236.587 268.332 236.106 269.13 235.856C271.709 235.05 283.289 235.343 289.376 236.369C295.636 237.425 297.379 238.33 295.657 239.632C294.691 240.363 294.692 240.371 295.693 240.387C296.25 240.396 298.604 240.165 300.923 239.874C304.766 239.392 305.401 239.441 308.089 240.421C313.765 242.49 318.913 245.663 325.253 250.996C329.764 254.791 331.582 256.857 335.291 262.403C339.785 269.123 341.523 273.304 343.123 281.246C343.894 285.072 343.892 285.479 343.1 287.496C341.933 290.466 342.021 293.509 343.397 297.77C344.415 300.924 344.53 302.046 344.295 306.52C344.147 309.343 344.247 312.575 344.518 313.701C345.608 318.239 342.72 322.499 338.589 322.444C337.539 322.43 335.78 322.41 334.68 322.4C333.58 322.39 331.667 322.593 330.43 322.851C327.265 323.512 320.744 324.296 313.43 324.896C301.565 325.869 263.789 326.97 255.18 326.594ZM321.305 321.558C320.824 321.433 320.036 321.433 319.555 321.558C319.074 321.684 319.468 321.787 320.43 321.787C321.392 321.787 321.786 321.684 321.305 321.558ZM34.9302 288.893C27.3032 288.372 23.1872 287.644 18.9432 286.067C12.1912 283.557 7.4662 279.286 4.6162 273.118L2.8922 269.385L2.16924 255.769C0.478239 223.902 0.229234 213.36 0.0392338 165.653C-0.214766 101.826 0.77623 58.9306 2.67223 51.6526C4.27323 45.5066 6.09521 42.2866 10.1132 38.5006C14.0472 34.7936 21.2942 31.8856 26.8462 31.7866C30.1552 31.7276 42.5082 32.7436 43.5552 33.1606C44.5692 33.5646 44.7442 35.8886 43.8302 36.8026C43.4762 37.1566 41.7772 37.4026 39.6902 37.4026C34.8952 37.4026 24.4682 38.7326 21.5532 39.7166C16.4712 41.4316 13.7572 43.3646 11.2492 47.0546C9.4512 49.7006 9.08022 50.5726 6.71422 57.7046L5.36925 61.7556L5.7752 77.8916L6.18022 94.0266L51.6802 93.9026C189.616 93.5246 255.289 93.6686 269.68 94.3786C277.655 94.7726 286.278 95.1076 288.842 95.1236L293.503 95.1526L293.448 77.9116C293.37 53.2086 292.458 48.3846 286.86 43.0536C283.162 39.5326 277.18 38.2576 257.93 36.8876C253.667 36.5846 249.618 36.0626 248.93 35.7276C246.691 34.6376 247.204 31.4016 249.616 31.4036C250.644 31.4036 250.675 31.2226 250.537 26.0286C250.277 16.3106 249.653 10.9396 248.622 9.5596C247.165 7.6096 244.374 6.18259 242.791 6.57959C239.162 7.49059 236.671 11.5956 235.467 18.6526C235.138 20.5776 234.658 23.2386 234.4 24.5656C233.316 30.1336 234.311 43.8996 236.268 50.4026C238.115 56.5426 239.882 58.4026 243.869 58.4026C245.546 58.4026 246.091 58.1186 247.349 56.5926C248.17 55.5966 248.994 53.9696 249.18 52.9766C249.703 50.1876 250.305 49.4026 251.919 49.4026C255.998 49.4026 255.891 56.0336 251.736 60.7546C249.45 63.3516 245.556 65.3906 242.868 65.3976C236.392 65.4156 229.93 59.8116 229.93 54.1786C229.93 52.7886 229.479 49.2886 228.929 46.4016C228.378 43.5146 227.907 39.2966 227.881 37.0276C227.83 32.4206 228.058 32.6306 223.75 33.2206C222.474 33.3956 221.43 33.6776 221.43 33.8486C221.43 34.0186 222.123 34.4656 222.97 34.8406C226.707 36.4946 224.158 36.6486 190.51 36.8066L157.639 36.9606L156.284 35.8956C155.497 35.2756 154.93 34.3376 154.93 33.6526C154.93 32.4386 157.009 30.4026 158.247 30.4026C158.78 30.4026 158.93 29.2676 158.93 25.2326C158.93 14.7076 157.405 8.6916 154.335 7.1036C150.486 5.1126 146.741 7.7786 144.784 13.9026C141.628 23.7776 141.344 36.4536 144.017 48.1526C145.771 55.8316 147.644 58.4026 151.485 58.4026C153.459 58.4026 154.107 58.1486 155.379 56.8766C156.219 56.0366 157.141 54.4056 157.429 53.2516C158.147 50.3706 158.6 49.6796 159.897 49.4876C161.843 49.1996 162.93 50.7266 162.93 53.7496C162.93 57.1256 161.689 59.6496 158.77 62.2166C153.774 66.6086 146.942 66.1646 141.737 61.1096C138.926 58.3796 138.112 56.2766 137.74 50.7896C137.458 46.6136 137.559 45.4886 138.454 42.8306C139.028 41.1286 139.623 38.6716 139.777 37.3726C140.131 34.3816 139.45 24.0606 138.952 24.8676C138.539 25.5356 137.93 20.6706 137.93 16.7046C137.931 12.9896 140.305 7.18059 143.136 3.96759C145.056 1.78959 147.816 0.398596 150.808 0.101596C153.382 -0.153403 154.015 -0.00940406 156.909 1.4846C159.274 2.7066 160.559 3.77359 161.709 5.47259C164.51 9.61159 164.992 12.0126 164.982 21.7866L164.974 30.5466L183.077 30.2356C198.404 29.9726 206.81 30.1296 225.68 31.0326L228.18 31.1526L228.045 29.0186C227.971 27.8456 228.375 23.7016 228.944 19.8096C230.47 9.36059 233.181 3.97359 238.216 1.38459C244.962 -2.08541 252.913 2.0306 255.449 10.3056C256.367 13.3026 255.474 28.3996 254.237 30.7926C253.455 32.3046 253.454 32.4436 254.223 32.7386C254.678 32.9126 259.13 32.8786 264.115 32.6636C276.01 32.1476 278.105 32.2466 281.68 33.4916C289.215 36.1156 293.047 39.2056 295.835 44.9026C298.639 50.6336 299.036 54.6336 298.933 76.1526C298.883 86.6026 298.767 95.9396 298.676 96.9026C298.585 97.8656 298.374 105.29 298.208 113.403C297.804 133.071 297.528 137.234 296.559 138.203C295.858 138.904 295.693 138.888 294.849 138.044C293.981 137.176 293.894 135.775 293.623 118.132C293.463 107.693 293.297 99.1216 293.256 99.0836C293.214 99.0456 279.455 99.2626 262.68 99.5666C245.905 99.8696 211.142 100.13 185.43 100.145C158.775 100.161 128.042 100.469 113.93 100.862C87.9972 101.584 34.9082 101.334 22.4302 100.431C18.9922 100.182 13.8492 99.8136 11.0002 99.6116L5.8192 99.2446L6.14623 105.949C7.46123 132.939 7.75321 197.775 6.67821 224.153C5.46621 253.906 5.74324 259.616 8.74724 266.836C10.5532 271.176 12.4462 273.944 15.0572 276.061C22.2222 281.871 30.2332 282.751 72.6802 282.393C116.79 282.021 173.019 282.235 185.112 282.821C194.294 283.266 196.197 283.489 197.002 284.218C197.824 284.962 197.861 285.186 197.261 285.786C196.348 286.699 194.374 286.815 174.43 287.133C165.218 287.279 151.38 287.732 143.68 288.138C130.981 288.808 100.631 289.033 63.1802 288.733C57.6802 288.689 50.4802 288.803 47.1802 288.986C43.8802 289.17 38.3682 289.128 34.9302 288.893ZM112.383 241.447C106.66 240.638 104.603 238.236 103.608 231.199C102.797 225.464 102.802 221.401 103.629 212.879C104.354 205.411 104.905 203.758 106.589 203.998C107.675 204.152 107.681 204.222 107.94 218.653C108.109 228.063 108.405 233.618 108.784 234.479C109.765 236.706 111.961 237.076 124.43 237.117C130.618 237.137 136.297 236.98 137.052 236.769C139.624 236.05 139.93 234.254 139.93 219.878V206.976L138.681 205.993C136.697 204.433 132.324 203.964 120.01 203.991C113.689 204.005 108.273 203.865 107.974 203.68C106.645 202.859 108.182 201.153 111.182 200.122C113.85 199.205 129.285 198.695 134.43 199.355C139.644 200.023 142.011 201.475 143.88 205.153C145.112 207.577 145.151 207.949 145.15 217.403C145.149 232.065 144.033 237.742 140.815 239.465C137.53 241.223 119.622 242.471 112.383 241.447ZM44.1802 240.671C43.0802 240.271 41.6642 239.348 41.0322 238.619C40.0632 237.501 39.9362 236.953 40.2152 235.094C40.4402 233.593 40.3382 232.644 39.8932 232.108C38.4012 230.311 37.5572 218.918 38.3742 211.609C39.6792 199.946 40.9722 199.153 58.6802 199.153C69.0862 199.153 70.1122 199.281 73.8292 201.051C74.6622 201.447 74.9372 201.948 74.8292 202.875C74.6872 204.093 74.5632 204.142 72.1802 203.91C68.0372 203.508 51.4502 203.642 47.3052 204.111C44.9202 204.381 43.1902 204.839 42.8052 205.303C42.3752 205.821 42.0752 209.339 41.8422 216.604C41.6562 222.406 41.3512 228.116 41.1632 229.294C40.8142 231.487 41.4432 233.884 42.7842 235.466C43.7432 236.598 47.6542 236.987 61.6802 237.346C73.2162 237.641 73.6802 237.691 73.6802 238.646C73.6802 240.778 71.5572 241.144 58.4302 241.276C48.7232 241.373 45.7652 241.247 44.1802 240.671ZM175.758 240.674C173.419 239.84 171.558 238.167 170.705 236.132C169.29 232.755 168.808 225.015 169.443 215.864C170.102 206.366 170.851 203.788 173.213 202.89C173.897 202.631 174.582 202.089 174.736 201.686C174.891 201.284 176.179 200.561 177.599 200.08C179.732 199.357 182.004 199.205 190.68 199.204C205.046 199.201 208.433 200.252 210.133 205.241C211.679 209.779 210.851 231.9 209.008 235.278C208.671 235.897 208.049 236.403 207.627 236.403C206.951 236.403 206.879 234.714 207.02 222.278C207.192 207.122 206.952 205.258 204.762 204.728C200.36 203.663 194.429 203.33 186.18 203.686C181.23 203.9 176.618 204.085 175.93 204.097C175.242 204.109 174.515 204.352 174.313 204.636C174.111 204.92 173.953 211.341 173.962 218.903C173.98 234.286 174.228 235.644 177.18 236.55C178.005 236.803 184.865 237.154 192.424 237.331C204.752 237.62 206.185 237.74 206.329 238.494C206.418 238.957 206.064 239.564 205.544 239.842C202.74 241.343 179.457 241.993 175.758 240.674ZM75.1532 221.028C75.3432 212.572 75.6112 205.259 75.7482 204.778C76.1442 203.39 77.2482 203.758 77.9942 205.528C78.4902 206.702 78.6802 209.652 78.6802 216.153C78.6802 230.19 77.7372 236.403 75.6062 236.403C74.8842 236.403 74.8402 234.922 75.1532 221.028ZM274.18 234.111C273.63 233.979 271.267 233.518 268.93 233.087C265.943 232.535 263.12 231.539 259.43 229.734C254.825 227.482 253.592 226.582 249.394 222.41C245.618 218.657 244.164 216.786 242.502 213.544C238.186 205.123 236.382 196.585 237.413 189.465C238.079 184.868 239.801 178.542 240.505 178.107C240.739 177.962 240.93 177.525 240.93 177.136C240.93 176.024 243.838 169.958 245.705 167.176C250.075 160.663 257.329 155.062 264.694 152.514C270.046 150.662 272.977 150.266 279.48 150.516C286.214 150.775 290.373 151.866 296.872 155.076C303.389 158.295 309.992 165.222 313.703 172.732C315.901 177.181 316.307 178.506 317.2 184.153C318.81 194.329 317.462 203.246 313.128 211.085C312.196 212.772 310.93 215.133 310.316 216.332C308.781 219.327 303.953 224.479 300.117 227.217C295.038 230.841 285.982 233.846 279.18 234.164C276.98 234.266 274.73 234.243 274.18 234.111ZM283.554 227.353C289.407 226.14 293.08 224.5 297.418 221.162C303.208 216.707 307.35 210.62 310.011 202.653C311.015 199.646 311.176 198.202 311.148 192.403C311.112 184.703 310.527 181.647 308.114 176.544C300.821 161.12 283.68 153.508 267.765 158.625C262.463 160.33 259.279 162.133 255.797 165.403C251.694 169.255 249.372 172.415 246.653 177.849L244.303 182.545L244.064 190.099C243.854 196.75 243.954 198.127 244.904 201.619C247.298 210.415 251.175 216.303 257.974 221.468C262.372 224.808 264.803 226.08 268.18 226.808C269.555 227.104 271.58 227.556 272.68 227.811C275.909 228.563 278.18 228.467 283.554 227.353ZM46.6612 173.913C43.7242 173.476 41.1422 172.259 40.5272 171.023C38.9392 167.828 37.7043 155.855 38.1063 147.545C38.7173 134.894 39.2452 134.14 49.0622 131.938C54.0352 130.822 69.4782 131.502 73.6802 133.022C75.5322 133.692 77.3082 135.237 78.2032 136.955C79.7782 139.982 80.3522 151.109 79.4192 160.508C78.7912 166.836 78.1532 169.306 76.7572 170.826C74.6952 173.069 73.6542 173.273 62.4302 173.621C56.5172 173.805 51.1182 174.03 50.4302 174.121C49.7422 174.213 48.0462 174.119 46.6612 173.913ZM70.3682 171.091C71.2272 170.919 71.9302 170.539 71.9302 170.248C71.9302 169.956 72.4362 169.179 73.0552 168.52C74.1662 167.337 74.1802 167.151 74.1802 153.377C74.1802 136.701 74.6042 137.773 67.6802 136.944C58.9072 135.894 45.0922 136.527 43.5702 138.048C43.1412 138.478 42.7902 142.936 42.4062 152.837L41.8572 167.011L42.9813 168.207C43.8043 169.083 44.6412 169.403 46.1122 169.403C47.2162 169.403 49.3712 169.622 50.9002 169.889C58.9282 171.294 66.8932 171.785 70.3682 171.091ZM110.291 173.693C107.214 172.866 105.673 171.38 104.597 168.206C103.857 166.022 103.745 163.847 103.821 153.153C103.914 140.147 104.376 136.636 106.103 135.802C107.489 135.133 108.236 134.691 109.508 133.787C111.51 132.365 117.836 131.753 126.93 132.102C135.353 132.426 138.667 133.027 140.452 134.556C141.276 135.262 141.357 135.604 140.901 136.457C140.489 137.227 140.064 137.409 139.262 137.157C136.535 136.298 124.919 135.848 118.36 136.347C114.276 136.657 110.919 136.687 109.992 136.421C108.918 136.113 108.329 136.157 108.069 136.565C107.863 136.888 107.731 143.629 107.775 151.543C107.848 164.625 107.941 166.08 108.794 167.543L109.732 169.153L116.206 169.741C119.767 170.064 126.561 170.345 131.305 170.366C139.468 170.401 139.93 170.455 139.93 171.364C139.93 172.007 139.387 172.505 138.29 172.867C133.849 174.333 114.763 174.896 110.291 173.693ZM177.427 173.936C170.746 171.904 169.702 169.064 169.69 152.903C169.682 140.761 170.147 137.394 172.129 135.255C175.76 131.337 194.785 130.067 205.387 133.035C207.927 133.746 210.302 135.878 210.715 137.817C210.871 138.552 211.209 139.67 211.465 140.302C212.102 141.875 212.051 155.026 211.382 161.677C210.79 167.554 209.829 170.303 208.058 171.184C207.442 171.491 206.53 172.11 206.032 172.56C205.535 173.011 203.564 173.605 201.654 173.881C197.643 174.461 179.289 174.502 177.427 173.936ZM205.034 168.778C206.605 165.706 206.937 162.164 206.675 151.255C206.42 140.608 206.044 138.249 204.509 137.653C204.053 137.476 201.168 137.079 198.097 136.771C190.774 136.035 176.032 136.904 175.14 138.124C174.327 139.235 173.664 162.166 174.39 164.061C174.687 164.835 174.93 165.942 174.93 166.521C174.93 168.334 176.365 169.398 178.882 169.453C180.146 169.48 181.742 169.683 182.43 169.903C183.118 170.123 188.298 170.326 193.941 170.353L204.203 170.403L205.034 168.778ZM141.195 164.528C141.385 161.847 141.684 154.478 141.86 148.153C142.06 140.971 142.368 136.674 142.68 136.709C142.955 136.739 143.517 137.414 143.93 138.209C144.506 139.318 144.718 142.003 144.842 149.788C145.057 163.214 144.1 169.403 141.81 169.403C140.905 169.403 140.87 169.121 141.195 164.528ZM12.6742 87.3936C12.5012 87.1136 12.8422 86.1046 13.4312 85.1506C14.1172 84.0406 14.3833 83.0426 14.1713 82.3746C13.7223 80.9596 15.3232 74.6356 16.4782 73.2616C17.2482 72.3446 17.4912 72.2756 17.8782 72.8646C18.3332 73.5566 17.4312 76.4846 15.6462 80.1046C14.5022 82.4246 14.8072 82.7176 16.5792 81.0006C18.0872 79.5396 19.4302 78.9346 19.4302 79.7176C19.4302 79.8916 18.6622 81.1016 17.7242 82.4086C16.7852 83.7146 15.6542 85.4856 15.2112 86.3426C14.4082 87.8946 13.2742 88.3646 12.6742 87.3936ZM21.4302 86.8536C21.4302 86.0726 24.4452 83.3526 24.9592 83.6706C25.4822 83.9936 25.0392 85.3486 24.0272 86.5276C23.1952 87.4956 21.4302 87.7166 21.4302 86.8536ZM31.9422 86.5276C31.9572 85.4966 35.0732 83.7976 36.1742 84.2196C38.0702 84.9476 36.0192 87.4026 33.5162 87.4026C32.3342 87.4026 31.9332 87.1796 31.9422 86.5276ZM55.3712 64.7126C51.2262 63.2306 48.2522 60.4916 46.6652 56.6936C45.8042 54.6326 45.5552 48.0466 46.2852 46.6526C47.8132 43.7356 47.3042 24.4366 45.5912 20.3376C44.9092 18.7076 44.9132 18.1286 45.6302 14.6666C46.5122 10.3986 47.4042 8.20559 49.5502 5.02159C52.5552 0.563594 59.3472 -1.1094 64.4812 1.3436C70.6752 4.3026 72.9302 10.4126 72.9302 24.2296V30.5156L96.0552 30.2106C108.774 30.0426 123.214 30.0736 128.145 30.2796L137.109 30.6526L137.147 33.3366C137.18 35.7016 137.047 36.0726 136.025 36.4616C135.387 36.7046 119.138 36.9026 99.9172 36.9026H64.9692L63.9492 35.8086C63.3892 35.2066 62.9302 34.3566 62.9302 33.9196C62.9302 32.5316 64.4312 30.9026 65.7082 30.9026C66.8752 30.9026 66.9292 30.7616 66.9192 27.7776C66.8972 21.9496 65.9752 12.6316 65.2462 10.8886C64.8472 9.9336 64.0342 8.5336 63.4392 7.7776C62.5122 6.5986 61.9942 6.4026 59.8082 6.4026C57.4552 6.4026 57.1022 6.56759 55.2192 8.54959C52.9032 10.9876 51.7702 14.2606 50.6802 21.6526C49.3922 30.3906 49.2842 34.3746 50.1652 40.6746C51.9962 53.7676 54.4942 58.4026 59.7212 58.4026C62.1952 58.4026 64.6692 55.8656 65.0642 52.9226C65.4092 50.3466 66.1732 49.4026 67.9142 49.4026C69.9032 49.4026 70.9302 50.8226 70.9302 53.5726C70.9302 58.3726 67.7712 62.4526 62.5362 64.4126C59.4922 65.5526 57.9082 65.6186 55.3712 64.7126Z" fill="white"/>
</svg>
