<svg xmlns="http://www.w3.org/2000/svg" width="269" height="277" fill="none">
  <path fill="#000" fill-rule="evenodd" d="M114.89 276.096c-.688-.119-4.175-.575-7.75-1.013-10.11-1.241-26.067-5.571-34.137-9.264-1.725-.79-3.266-1.436-3.422-1.436-.505 0-11.12-5.415-14.586-7.44-11.948-6.983-24.627-18.743-33.213-30.81-5.823-8.182-11.974-20.326-15.082-29.774-3.648-11.092-4.62-15.672-6.364-29.976-.823-6.747-.07-21.418 1.538-30 1.18-6.289 1.556-7.869 3.997-16.75 2.485-9.04 10.42-26.082 15.948-34.25 3.986-5.89 11.333-14.687 15.885-19.021C54.587 50.29 79.27 37.464 101.14 33.396c3.025-.562 6.625-1.243 8-1.513 5.274-1.034 13.777-1.749 20.5-1.724 23.904.089 46.201 6.355 64.136 18.022 11.455 7.452 19.822 15.607 27.54 26.841 3.176 4.622 10.563 18.09 12.677 23.111.463 1.1 1.308 3.095 1.877 4.433 1.51 3.553 3.246 8.879 4.748 14.567.725 2.75 1.52 5.675 1.766 6.5.859 2.889 1.567 7.338 2.784 17.5.677 5.652.809 16.242.258 20.75-1.657 13.562-2.472 18.618-3.751 23.25-2.635 9.549-3.722 12.869-5.615 17.14-.644 1.452-1.17 2.76-1.17 2.906 0 .679-3.483 7.439-6.159 11.954-6.452 10.887-12.09 17.878-21.513 26.674-9.294 8.677-18.059 14.767-30.078 20.9-6.944 3.543-21.867 8.62-27.985 9.521a467 467 0 0 0-6.015.979c-4.292.722-25.383 1.385-28.25.889m25.25-8.455c9.092-1.203 18.767-3.419 23-5.269 1.1-.481 3.35-1.395 5-2.033 3.691-1.425 7.552-3.44 16.361-8.538 3.65-2.113 11.109-7.788 16.592-12.623 11.577-10.209 22.739-26.317 28.269-40.795.893-2.338 1.81-4.7 2.039-5.25 1.726-4.156 4.547-15.937 6.045-25.25.65-4.044.876-22.971.314-26.25-.189-1.1-.566-3.575-.838-5.5s-.705-4.512-.964-5.75a1083 1083 0 0 1-1.025-5c-.305-1.512-.865-3.762-1.244-5s-1.08-3.6-1.557-5.25c-2.51-8.679-8.287-21.636-13.043-29.25-2.949-4.722-8.619-12.29-10.651-14.219-.852-.807-1.548-1.716-1.548-2.018 0-1.548-12.629-11.843-20.109-16.394-8.507-5.175-21.533-10.234-32.641-12.676-11.259-2.476-25.49-3.255-36-1.972-3.85.47-8.912 1.178-11.25 1.572-5.045.852-16.924 4.088-21.5 5.858-7.206 2.786-8.358 3.261-11 4.529-12.331 5.921-25.668 15.416-34.264 24.398-6.387 6.672-9.705 11.092-15.455 20.587-2.758 4.553-7.962 15.475-9.213 19.335a2042 2042 0 0 1-1.883 5.75c-2.191 6.667-3.328 12.202-4.93 24-1.869 13.771-.425 29.8 4.168 46.25 1.983 7.103 8.085 20.064 12.692 26.954 5 7.482 7.854 10.892 14.476 17.296 6.807 6.585 11.218 10.032 18.91 14.776 3.861 2.382 13.533 7.474 14.197 7.474.15 0 1.46.539 2.913 1.197 3.078 1.396 13.142 4.803 14.188 4.803.394 0 1.106.205 1.584.455 1.856.972 13.135 3.069 21.617 4.018 2.613.292 5.537.623 6.5.734 3.015.349 14.51-.19 20.25-.949M6.437 173.71c-.413-1.426-.458-1.314-.47 1.173-.01 2.207.08 2.518.456 1.577.288-.718.293-1.785.014-2.75m219.28-88.055c-.162-.425-.536-.772-.829-.772-.37 0-.362.32.025 1.043.621 1.16 1.27.941.804-.271m16-42.686c-2.272-2.511-.596-4.524 10.928-13.127 8.123-6.064 11.698-8.459 12.626-8.459.93 0 3.119 2.288 3.119 3.26 0 1.69-1.269 2.917-8.894 8.606-14.794 11.036-15.993 11.692-17.779 9.72M221.89 25.883c-.55-.55-1-1.353-1-1.784 0-.865 5.716-12.319 9.339-18.713 2.651-4.68 4.074-5.902 6.059-5.204.727.255 1.666 1.084 2.087 1.841.707 1.273.685 1.518-.287 3.243-4.477 7.943-6.04 10.756-7.449 13.408-4.311 8.114-6.248 9.71-8.749 7.209M101.589 218.442c-2.986-1.019-4.874-2.384-6.948-5.026-.826-1.051-4.219-5.032-7.541-8.847-5.33-6.119-15.956-19.214-22.065-27.187l-6.514-8.499c-6.212-8.101-7.214-10.584-6.071-15.043 1.214-4.737 5.895-8.457 10.643-8.457 4.347 0 6.02 1.217 14.545 10.574 9.493 10.422 23.9 25.649 26.053 27.536l1.551 1.36 4.431-5.36c2.437-2.948 5.706-6.823 7.265-8.61s5.615-6.512 9.013-10.5a1926 1926 0 0 1 13.617-15.75 6645 6645 0 0 0 11.997-13.75 721 721 0 0 1 10.067-11.273 1243 1243 0 0 0 11.238-12.5c7.558-8.544 9.588-10.439 11.93-11.141 4.218-1.264 7.251-.585 10.205 2.286 3.361 3.265 4.304 9.404 2.006 13.058-.891 1.417-7.419 9.883-16.632 21.57a1248 1248 0 0 0-11.477 14.839c-3.169 4.174-9.25 12.017-13.512 17.429a6990 6990 0 0 0-11.75 14.955 686 686 0 0 1-6.75 8.493 5433 5433 0 0 0-5.65 6.956c-10.933 13.488-16.798 20.215-18.599 21.327-1.857 1.148-5.994 2.505-7.501 2.461-.55-.017-2.148-.422-3.551-.901m11.393-12.684c4.719-5.128 12.736-14.877 23.102-28.096 2.169-2.766 4.644-5.828 5.5-6.805s3.356-4.107 5.556-6.955c2.2-2.849 5.312-6.76 6.916-8.693 1.603-1.933 3.619-4.54 4.479-5.795s3.361-4.531 5.559-7.281c7.565-9.466 9.165-11.515 13.074-16.75a462 462 0 0 1 7.72-10c2.09-2.613 4.31-5.48 4.933-6.372 1.479-2.117 1.281-4.435-.489-5.751-1.198-.89-1.429-.909-2.75-.226-.793.41-2.22 1.725-3.17 2.922-.951 1.197-3.787 4.427-6.304 7.177-7.913 8.649-15.803 17.403-20.542 22.796l-8.527 9.704c-2.174 2.475-8.848 10.238-14.831 17.25-25.069 29.384-26.108 30.5-28.397 30.5-1.487 0-2.282-.6-6.45-4.875-7.296-7.482-21.683-22.748-27.214-28.875-2.73-3.025-5.422-5.773-5.985-6.107-2.634-1.566-5.472.006-5.472 3.03 0 1.234.775 2.621 3.226 5.779 1.773 2.286 3.9 5.105 4.725 6.265s3.188 4.215 5.25 6.789c2.061 2.575 4.762 6.075 6 7.779 3.138 4.324 16.16 19.677 20.643 24.34 3.575 3.719 3.817 3.875 5.998 3.875 2.255 0 2.312-.043 7.45-5.625" clip-rule="evenodd"/>
</svg>
