<svg width="402" height="285" viewBox="0 0 402 285" fill="none" xmlns="http://www.w3.org/2000/svg">
<path fill-rule="evenodd" clip-rule="evenodd" d="M127.5 284.513C124.338 284.303 117.767 284.102 112.899 284.066C103.944 283.999 101.268 283.614 96.5 281.706C92.302 280.026 88.592 277.51 86.059 274.626C83.297 271.481 82.094 269.32 80.562 264.75C78.45 258.449 78.364 254.838 78.688 186.313C78.857 150.528 79.093 120.575 79.213 119.75C79.333 118.925 79.472 111.959 79.522 104.271C79.653 84.338 80.734 78.935 86.002 71.896C89.212 67.605 94.226 64.137 99.5 62.561C100.463 62.273 102.037 61.787 103 61.481C106.596 60.336 149.3 59.315 195 59.282C244.982 59.246 259.116 59.661 265.164 61.343C269.666 62.595 270.826 65.53 267.499 67.251C265 68.543 253.218 68.938 208.25 69.24C184.325 69.401 160.25 69.634 154.75 69.759C126.382 70.403 106.143 71.112 105.25 71.494C104.7 71.73 103.147 72.321 101.799 72.808C98.299 74.073 93.885 78.304 92.601 81.625C91.268 85.07 91.008 86.553 90.427 94C89.704 103.267 89.283 244.886 89.954 253.13C90.675 261.995 91.887 265.426 95.423 268.621C99.803 272.578 101.448 272.929 119.5 273.764C134.223 274.445 189.776 274.46 215 273.791C220.087 273.656 235.275 273.418 248.75 273.264C262.225 273.109 274.488 272.851 276 272.691C281.716 272.086 285.322 270.168 287.902 266.36C291.51 261.036 291.878 255.635 292.284 202.021C292.441 181.269 292.689 164.098 292.835 163.863C292.981 163.627 293.183 161.691 293.284 159.561C293.72 150.377 296.417 145.241 299.543 147.641C301.299 148.989 301.527 150.471 301.889 162.868C302.313 177.421 302.272 240.029 301.829 252.109C301.515 260.696 301.063 263.026 298.363 269.973C296.954 273.596 292.604 277.935 288.138 280.17C281.66 283.412 280.139 283.615 261 283.8C251.512 283.892 234.413 284.091 223 284.241C184.351 284.751 133.279 284.897 127.5 284.513ZM289.912 274.118C290.87 273.221 291.529 272.362 291.377 272.21C291.13 271.963 285 276.32 285 276.742C285 277.327 288.46 275.479 289.912 274.118ZM90.512 78.125C90.531 76.819 93.733 72.7 96.015 71.047C97.117 70.249 99.19 69.314 100.622 68.971C102.053 68.627 104.355 67.947 105.737 67.459C109.009 66.302 107.705 65.692 103.656 66.485C98.432 67.508 93.982 70.416 90.993 74.76C89.519 76.903 89.028 79 90 79C90.275 79 90.506 78.606 90.512 78.125ZM4.486 258.177C4.065 258.063 3.443 257.523 3.102 256.977C2.349 255.773 3.358 253.443 5.135 252.28C7.362 250.824 20.979 245.031 24.753 243.935C28.263 242.915 28.679 242.884 29.206 243.606C29.592 244.133 30.246 244.314 31.144 244.143C33.254 243.739 32.892 245.518 30.469 247.465C26.855 250.369 8.476 258.624 6.029 258.442C5.601 258.41 4.906 258.291 4.486 258.177ZM374.898 256.299C373.167 255.492 370.4 254.148 368.75 253.312C367.1 252.476 364.625 251.245 363.25 250.576C359.875 248.934 355.886 246.443 355.141 245.511C354.249 244.396 354.37 242.773 355.414 241.827C357.173 240.236 359.456 240.811 367.612 244.9C375.179 248.693 378.633 250.843 381.57 253.587C383.183 255.094 383.27 255.44 382.348 256.701C381.316 258.111 378.458 257.957 374.898 256.299ZM184.802 229.481C183.341 229.044 180.5 226.672 180.5 225.89C180.5 225.658 178.419 223.079 175.875 220.159C173.331 217.24 167.537 210.535 163 205.26C158.463 199.984 152.95 193.648 150.75 191.179C138.39 177.305 129.947 167.398 129.035 165.696C126.514 160.992 128.795 155.943 134.85 152.824C136.985 151.725 138.614 151.786 141.145 153.06C144.075 154.535 163.293 173.891 180.705 192.905C184.531 197.082 187.796 200.5 187.96 200.5C188.125 200.5 189.483 198.869 190.977 196.875C194.957 191.566 208.784 174.477 213.75 168.732C230.569 149.272 249.883 129.224 266 114.495C271.917 109.089 278.984 102.796 280.75 101.364C281.3 100.918 283.973 98.684 286.69 96.401C289.407 94.118 292.374 91.688 293.282 91C295.477 89.339 304.421 82.635 306 81.467C308.829 79.375 319.866 72.081 321.366 71.312C326.416 68.723 332.806 70.646 334.814 75.359C336.537 79.401 335.207 81.693 328.409 86.399C312.089 97.697 289.729 116.464 271.5 134.162C262.163 143.227 259.635 145.896 247.5 159.496C243.238 164.274 239.327 168.579 238.809 169.065C238.292 169.55 237.504 170.498 237.059 171.172C236.614 171.845 233.775 175.308 230.75 178.868C221.397 189.872 209.796 204.731 204.295 212.75C202.408 215.5 200.363 218.312 199.75 219C199.137 219.688 197.62 221.825 196.378 223.75C193.773 227.786 192.896 228.642 190.55 229.429C188.6 230.084 186.87 230.1 184.802 229.481ZM20.25 122.709C17.225 122.062 13.695 121.188 12.406 120.766C11.117 120.345 9.708 120 9.274 120C8.841 120 8.096 119.797 7.618 119.549C7.141 119.301 5.737 118.799 4.5 118.434C2.068 117.717 0 116.024 0 114.75C0 113.492 2.318 111.5 3.782 111.5C7.884 111.5 27.305 117.099 30.125 119.095C32.143 120.523 31.986 122.348 29.766 123.276C27.588 124.186 26.98 124.149 20.25 122.709ZM371.434 123.244C368.071 121.419 369.81 118.696 375.536 116.825C376.754 116.427 380.562 115.419 384 114.584C396.807 111.474 397.816 111.362 400.495 112.747C405.251 115.207 398.897 118.258 380.25 122.468C373.745 123.937 372.856 124.016 371.434 123.244ZM399.5 113.411C399.5 112.727 397.992 112.948 396.452 113.858C395.077 114.67 394.654 115.487 395.283 116.116C395.63 116.464 399.5 113.982 399.5 113.411ZM62.25 29.715C61.425 29.296 60.141 28.12 59.396 27.102C58.133 25.374 54.273 20.366 49.349 14.063C45.575 9.232 44.519 7.344 44.509 5.403C44.503 4.055 44.8 3.347 45.611 2.778C46.932 1.854 48.464 1.799 49.5 2.641C51.489 4.256 65.272 22.141 66.79 25.077C67.446 26.346 67.475 26.854 66.961 28.093C66.622 28.913 65.802 29.79 65.139 30.042C63.695 30.591 64.055 30.632 62.25 29.715ZM311.821 27.655C311.67 27.503 312.45 26.046 313.557 24.417C316.496 20.089 315.648 19.686 312.495 23.912C309.72 27.633 308.858 28.078 308.6 25.922C308.401 24.261 310.66 20.254 316.75 11.47C322.115 3.731 325.416 0 326.9 0C328.254 0 330 2.097 330 3.723C330 5.448 328.92 7.242 323.814 14C314.543 26.272 312.624 28.457 311.821 27.655Z" fill="white"/>
</svg>
