<svg width="277" height="283" viewBox="0 0 277 283" fill="none" xmlns="http://www.w3.org/2000/svg">
<path fill-rule="evenodd" clip-rule="evenodd" d="M143.909 281.134C139.211 279.892 103.236 267.887 86.3998 261.944C81.5878 260.245 69.8878 256.158 60.3998 252.861C50.9128 249.565 40.8998 246.074 38.1498 245.104C35.3998 244.134 29.3248 241.992 24.6498 240.345C19.9748 238.697 15.0248 236.945 13.6498 236.45C4.88881 233.3 5.07382 233.607 4.40682 221.136C4.12782 215.938 3.46081 203.923 2.92481 194.435C2.38781 184.947 1.71181 170.773 1.42181 162.935C1.13081 155.097 0.638812 142.987 0.326812 136.022C-0.276188 122.558 -0.063189 116.781 1.11981 114.492C2.10081 112.597 8.59981 109.946 19.6498 106.936C26.0988 105.179 26.1548 105.155 26.0638 104.14C26.0168 103.615 25.4968 101.497 24.9098 99.4352C24.3218 97.3732 23.8098 94.1552 23.7698 92.2862L23.6988 88.8872L20.7578 87.3192C16.4248 85.0092 13.8508 81.5572 12.2128 75.8582C11.1288 72.0872 11.1878 69.5032 12.4578 65.2402C13.8178 60.6722 15.9248 57.7462 19.5518 55.3882C24.3768 52.2502 30.2188 52.3712 35.1418 55.7122C36.1328 56.3842 37.1578 56.9352 37.4198 56.9352C37.6808 56.9352 39.2758 55.8222 40.9638 54.4622C46.4938 50.0062 53.2308 47.0802 61.1358 45.7012C64.8898 45.0472 66.0528 45.0462 70.9528 45.6922C76.6978 46.4502 77.3998 46.3892 77.3998 45.1362C77.3998 43.8182 79.3448 40.5372 81.1848 38.7502C86.5878 33.5032 93.9808 33.7152 98.8588 39.2572C102.063 42.8972 103.387 46.3662 103.762 52.1032C104.015 55.9742 103.037 59.3572 100.796 62.3682C99.9488 63.5052 99.9538 63.6072 100.934 64.9832C102.538 67.2362 104.775 72.4962 105.946 76.7702C107.149 81.1592 107.371 88.7042 106.435 93.3912C106.138 94.8792 105.978 96.1802 106.079 96.2812C106.18 96.3822 107.228 94.9392 108.407 93.0752C115.853 81.3012 116.036 81.1362 121.103 81.6192C126.705 82.1542 129.592 82.7652 138.761 85.3582C143.771 86.7752 148.196 87.9352 148.594 87.9352C149.057 87.9352 149.511 87.0332 149.855 85.4262C150.707 81.4552 151.078 77.4352 150.594 77.4322C149.472 77.4262 137.783 74.8002 134.65 73.8512C130.889 72.7112 122.944 69.8012 120.9 68.8152C118.483 67.6492 113.95 64.4252 113.179 63.3252C112.751 62.7132 112.4 61.6712 112.4 61.0092C112.4 59.5932 115.179 52.9612 119.744 43.4822C121.544 39.7432 123.579 35.4482 124.266 33.9352C129.242 22.9782 136.766 7.91022 137.872 6.68522C138.369 6.13522 139.047 5.15722 139.38 4.51322C142.148 -0.846785 167.562 -1.60778 184.066 3.17522C190.65 5.08322 195.104 7.54022 196.428 9.99322C197.073 11.1902 199.106 21.8342 204.678 53.1852C205.948 60.3352 207.188 66.3932 207.432 66.6482C207.703 66.9312 209.969 66.7762 213.263 66.2482C233.155 63.0642 237.624 62.7492 239.14 64.4242C239.806 65.1592 239.958 65.8812 239.737 67.2452C239.434 69.1102 237.71 71.4352 236.63 71.4352C236.303 71.4352 235.498 71.8532 234.842 72.3642C233.239 73.6122 227.594 75.1742 219.297 76.6652C212.314 77.9202 203.475 80.0922 201.883 80.9442C201.252 81.2822 200.903 82.3102 200.658 84.5512C200.47 86.2752 200.007 88.9232 199.629 90.4352C198.926 93.2492 198.276 96.6422 196.422 107.185C195.842 110.485 195.052 114.648 194.666 116.435C193.154 123.433 193.154 123.439 194.469 123.403C195.119 123.385 197 123.087 198.65 122.741L201.65 122.11L201.965 119.398C202.138 117.906 202.77 114.097 203.368 110.935C203.967 107.773 204.991 102.035 205.645 98.1852C206.298 94.3352 207.077 90.1022 207.376 88.7772C208 86.0112 207.795 85.4352 206.188 85.4352C204.669 85.4352 202.4 83.6162 202.4 82.3992C202.4 81.0932 204.264 81.1312 207.167 82.4952C210.224 83.9332 211.4 85.5392 211.4 88.2802C211.4 90.7122 207.693 113.141 206.83 115.935C206.532 116.898 205.962 118.204 205.564 118.839C205.165 119.473 204.909 120.59 204.995 121.32C205.141 122.567 205.382 122.684 208.987 123.238C211.097 123.563 213.049 123.968 213.325 124.138C213.6 124.309 214.348 124.232 214.988 123.969C215.627 123.705 217.95 122.935 220.15 122.256C222.35 121.577 226.287 120.181 228.9 119.154C233.272 117.435 234.088 117.279 239.15 117.198L244.65 117.109L245.001 114.897C245.194 113.68 245.716 110.435 246.162 107.685C249.444 87.4172 250.296 79.9892 249.403 79.4372C249.067 79.2292 247.409 79.3552 245.721 79.7162C242.494 80.4072 229.59 82.7702 224.9 83.5282C215.35 85.0732 213.741 85.0342 213.999 83.2652C214.191 81.9432 216.053 81.3192 225.9 79.2782C229.966 78.4352 240.381 76.4352 240.702 76.4352C240.811 76.4352 240.9 76.2282 240.9 75.9752C240.9 75.7222 240.241 75.3702 239.435 75.1932C237.777 74.8292 236.655 73.7372 237.136 72.9572C237.694 72.0552 242.481 72.3862 247.573 73.6782C250.268 74.3622 252.665 75.0402 252.9 75.1852C253.135 75.3302 253.599 76.2732 253.932 77.2812C254.679 79.5452 254.358 84.6062 252.844 94.4352C251.17 105.301 250.999 104.48 255.15 105.545C278.829 111.623 276.9 110.266 276.9 120.854C276.9 124.861 276.685 132.874 276.422 138.662C276.159 144.45 275.705 157.398 275.412 167.435C274.036 214.561 273.396 226.978 272.271 228.35C271.64 229.119 255.948 236.9 246.4 241.179C243.513 242.473 237.438 245.289 232.9 247.437C224.936 251.208 205.552 260.233 199.9 262.802C198.388 263.489 194.476 265.283 191.207 266.788C177.846 272.94 160.618 280.187 155.365 281.865C152.635 282.736 149.122 282.512 143.909 281.134ZM149.507 273.145C149.97 268.02 150.214 267.113 151.234 266.722C152.908 266.08 153.639 267.698 153.825 272.452C153.955 275.806 154.17 276.935 154.678 276.935C156.276 276.935 173.14 269.854 188.65 262.671C190.85 261.653 196.25 259.18 200.65 257.176C205.05 255.173 210.787 252.524 213.4 251.29C220.678 247.852 226.984 244.935 227.14 244.935C227.28 244.935 233.796 241.858 246.066 235.999C249.595 234.314 252.575 232.935 252.69 232.935C252.804 232.935 256.355 231.259 260.581 229.21L268.265 225.486L268.583 222.585C268.758 220.99 269.014 216.873 269.151 213.435C269.287 209.997 269.618 201.785 269.885 195.185C270.153 188.585 270.612 175.31 270.905 165.685C271.198 156.06 271.655 143.306 271.919 137.342C272.595 122.111 272.557 116.77 271.775 117.06C271.431 117.188 269.125 118.016 266.65 118.9C252.457 123.97 251.286 124.474 251.583 125.384C253.008 129.75 253.996 134.61 254.435 139.416C254.725 142.589 255.286 148.335 255.682 152.185C256.642 161.539 256.617 171.938 255.623 176.224C254.113 182.736 252.582 184.701 243.301 192.04C239.148 195.324 238.974 195.55 235.104 202.701C227.505 216.741 222.06 222.644 210.489 229.387C204.871 232.662 200.35 234.136 195.891 234.149C192.82 234.158 191.789 233.948 190.255 233C186.527 230.696 184.4 226.477 183.352 219.31C182.77 215.335 182.851 212.407 183.898 199.435C184.446 192.634 184.155 184.652 183.34 184.148C183.098 183.998 182.9 181.678 182.9 178.993C182.9 172.746 180.708 157.576 179.653 156.521C178.674 155.542 178.317 158.503 178 170.229C177.687 181.794 177.56 183.19 176.809 183.334C175.022 183.677 174.806 181.816 174.845 166.382C174.87 156.2 174.714 151.435 174.354 151.435C173.761 151.435 168.652 153.138 162.65 155.337C155.233 158.055 154.989 158.198 154.656 160.022C154.488 160.937 154.173 183.735 153.955 210.685C153.675 245.201 153.39 260.091 152.991 261.06C152.68 261.816 152.076 262.435 151.65 262.435C151.224 262.435 150.627 261.816 150.324 261.06C149.72 259.553 149.497 222.678 149.853 183.092C150.039 162.415 149.984 160.387 149.202 159.194C148.287 157.797 147.402 157.358 142.525 155.881C140.806 155.361 137.881 154.466 136.025 153.893C134.169 153.321 131.187 152.439 129.4 151.935C127.613 151.431 123.9 150.341 121.15 149.514C118.4 148.687 112.55 146.977 108.15 145.716C103.75 144.454 98.6868 142.982 96.8998 142.444C95.1128 141.906 89.5438 140.334 84.5248 138.951C79.5058 137.567 71.4058 135.331 66.5248 133.982C58.0568 131.642 33.0898 125.224 29.3998 124.438C28.4368 124.233 25.8498 123.578 23.6498 122.983C19.3868 121.829 12.4438 120.133 9.14981 119.442C8.04981 119.211 6.66181 118.868 6.06581 118.681C5.02581 118.354 4.97581 118.499 4.81581 122.262C4.50281 129.662 6.16381 176.447 7.41381 195.435C7.67581 199.423 8.24081 208.646 8.66781 215.932C9.09381 223.218 9.62881 229.364 9.85481 229.59C10.5808 230.316 30.0308 237.35 50.8998 244.434C52.4128 244.948 54.9998 245.856 56.6498 246.454C58.2998 247.051 64.1498 249.106 69.6498 251.02C75.1498 252.935 85.1618 256.425 91.8998 258.777C122.586 269.489 147.454 277.581 148.65 277.245C148.925 277.167 149.311 275.322 149.507 273.145ZM201.56 228.466C205.33 227.169 210.07 224.471 215.116 220.751C222.124 215.584 225.558 211.098 231.343 199.548C236.64 188.975 240.55 182.935 242.097 182.935C243.079 182.935 243.097 183.779 242.15 185.435C240.452 188.406 241.629 188.094 245.456 184.56C251.766 178.731 252.695 173.812 251.199 154.155C249.808 135.883 249.165 131.786 247.009 127.435C244.673 122.723 242.943 121.435 238.951 121.436C237.214 121.437 234.915 121.898 232.9 122.651C231.112 123.318 227.907 124.499 225.776 125.275C223.646 126.05 221.902 126.828 221.901 127.002C221.901 127.176 223.364 127.475 225.154 127.667C228.859 128.064 230.087 129.158 228.47 130.622C227.139 131.826 223.175 131.64 218.863 130.17C208.779 126.732 201.354 126.526 189.15 129.345C185.613 130.161 182.461 131.432 176.238 134.55C170.78 137.284 169.71 138.05 165.9 141.953C161.186 146.781 158.165 151.435 159.746 151.435C161.558 151.434 169.258 148.127 168.714 147.582C168.561 147.429 168.66 146.883 168.935 146.369C169.528 145.261 173.472 145.062 175.751 146.026C178.695 147.272 181.835 150.955 183.391 154.989C185.225 159.745 186.798 168.303 187.182 175.618C187.342 178.68 187.795 182.84 188.187 184.863C189.035 189.236 189.09 194.523 188.354 200.685C188.058 203.16 187.812 208.335 187.807 212.185C187.794 222.267 189.146 227.105 192.448 228.803C194.229 229.718 198.365 229.565 201.56 228.466ZM153.604 152.81C154.004 152.191 154.801 150.486 155.374 149.02C156.79 145.402 159.695 141.287 163.376 137.685C165.097 136.001 167.034 133.478 167.79 131.935C168.532 130.423 170.388 126.935 171.916 124.185C175.407 117.902 179.4 109.695 179.4 108.804C179.4 108.432 178.409 107.429 177.198 106.576C175.816 105.601 174.758 104.362 174.353 103.245C173.804 101.726 173.267 101.29 170.68 100.268C169.014 99.6102 165.625 98.4652 163.15 97.7242C160.675 96.9832 156.513 95.6942 153.9 94.8612C151.287 94.0272 147.125 92.8142 144.65 92.1652C142.175 91.5162 137.34 90.1832 133.905 89.2022C130.471 88.2222 127.384 87.5262 127.045 87.6562C126.707 87.7862 126.283 88.5212 126.103 89.2892C125.924 90.0572 125.111 92.1062 124.297 93.8422C122.768 97.1062 122.747 98.4352 124.224 98.4352C124.694 98.4352 125.77 98.6642 126.615 98.9452C127.459 99.2252 130.175 100.033 132.65 100.74C153.208 106.615 160.263 108.809 160.658 109.449C161.249 110.403 162.335 109.908 163.388 108.204C164.592 106.256 170.128 101.435 171.16 101.435C171.53 101.435 171.979 101.896 172.158 102.46C172.393 103.2 171.918 104.233 170.449 106.179C167.782 109.711 165.478 111.435 163.424 111.435C162.058 111.435 161.855 111.577 162.177 112.31C163.34 114.957 162.981 116.63 160.002 122.435C158.379 125.597 155.007 132.178 152.507 137.059C150.008 141.94 147.245 146.934 146.367 148.156C144.573 150.654 144.678 151.756 146.754 152.213C147.522 152.382 148.937 152.827 149.9 153.202C152.323 154.146 152.771 154.098 153.604 152.81ZM143.323 149.648C145.086 148.769 145.245 148.344 144.15 147.435C143.082 146.548 143.177 146.124 145.387 141.935C146.475 139.873 149.749 133.347 152.662 127.435C155.575 121.523 158.282 116.088 158.679 115.358C159.721 113.44 159.591 113.055 157.775 112.671C156.881 112.482 154.125 111.688 151.65 110.908C143.881 108.46 130.715 104.385 129.15 103.945C118.443 100.937 114.042 98.8212 115.31 97.2932C115.657 96.8752 116.465 96.4022 117.106 96.2412C118.622 95.8602 120.423 93.4162 121.894 89.7412C123.036 86.8882 123.043 86.7762 122.14 86.1162C121.628 85.7422 120.846 85.4352 120.403 85.4352C117.934 85.4352 111.881 95.0852 101.271 115.935C98.2618 121.847 95.6298 126.91 95.4198 127.185C95.2108 127.46 94.0968 129.431 92.9438 131.566C90.8858 135.376 90.7238 136.435 92.1988 136.435C92.6068 136.435 97.1498 137.656 102.295 139.149C110.489 141.526 124.198 145.464 129.4 146.935C130.363 147.207 133.175 148.092 135.65 148.901C140.97 150.64 141.276 150.67 143.323 149.648ZM86.8998 133.905C86.8998 133.459 89.0338 129.519 94.7358 119.435C97.5188 114.512 99.0158 111.384 98.7258 111.094C98.5478 110.916 97.4458 111.691 96.2758 112.816C89.8928 118.955 85.1018 121.677 77.0848 123.719C70.7238 125.339 65.5958 125.722 60.3488 124.969C53.2328 123.947 47.3998 121.417 47.3998 119.351C47.3998 118.433 47.5928 118.354 49.0248 118.682C62.9358 121.868 74.0358 121.281 83.2838 116.87C88.0268 114.608 93.8248 109.983 96.4588 106.361C101.076 100.012 102.15 96.4862 102.15 87.6852C102.15 79.7492 101.495 76.7332 98.3498 70.1852C95.7198 64.7072 90.9078 58.5012 86.8108 55.3022C84.1288 53.2082 83.9298 52.7222 85.4288 51.9192C86.2788 51.4642 86.8668 51.6312 88.8038 52.8782C90.0938 53.7082 92.3798 55.6362 93.8828 57.1612C95.3858 58.6872 96.8798 59.9352 97.2038 59.9352C98.1848 59.9352 99.4958 55.8622 99.4978 52.8092C99.5028 45.0212 93.9458 38.5652 88.1698 39.6482C85.8248 40.0882 82.6568 43.2122 81.8608 45.8692C81.2638 47.8612 81.3528 48.4302 82.5128 50.0512C83.0198 50.7582 82.9828 51.0672 82.3078 51.7422C81.5408 52.5092 81.2058 52.4932 77.5658 51.5242C63.9618 47.9022 51.7108 50.8362 41.5688 60.1472C39.5998 61.9562 37.7698 63.4352 37.5018 63.4352C37.2338 63.4352 36.6458 62.8722 36.1948 62.1832C35.0878 60.4942 31.9758 58.5942 29.1498 57.8832C24.5188 56.7172 20.4088 59.0132 17.8598 64.1912C16.3498 67.2592 16.2738 67.6752 16.5178 71.5872C16.8858 77.4812 19.1918 81.3442 23.6498 83.5322C24.4748 83.9372 25.8108 84.5882 26.6178 84.9782C28.0668 85.6782 28.0868 85.7462 28.1938 90.1862C28.3468 96.5502 29.9858 102.172 33.1508 107.185C34.6698 109.591 41.5578 116.435 42.4608 116.435C43.6228 116.435 42.6968 118.399 41.0248 119.481C39.9938 120.148 39.1498 121.024 39.1498 121.428C39.1498 121.967 42.3228 122.969 51.1498 125.216C57.7498 126.896 64.4998 128.656 66.1498 129.126C70.5618 130.382 73.5628 131.206 79.1498 132.693C81.8998 133.426 84.2438 134.117 84.3578 134.23C84.8068 134.672 86.8998 134.405 86.8998 133.905ZM174.8 129.835C175.505 129.13 175.609 126.935 174.937 126.935C174.558 126.935 172.9 129.644 172.9 130.262C172.9 130.683 174.256 130.379 174.8 129.835ZM184.264 126.135C186.402 125.421 188.4 124.631 188.706 124.381C189.012 124.131 189.407 122.517 189.584 120.795C189.76 119.073 190.245 116.093 190.66 114.174C191.076 112.255 191.755 108.773 192.17 106.435C192.585 104.097 193.349 100.048 193.867 97.4352C194.386 94.8222 195.107 90.9042 195.47 88.7272C195.921 86.0162 196.538 84.2042 197.43 82.9742C198.145 81.9862 198.874 80.6062 199.05 79.9072C199.673 77.4252 202.556 76.4192 217.65 73.4172C220.675 72.8162 225.175 71.7872 227.65 71.1302C230.125 70.4742 232.745 69.9372 233.472 69.9362C234.835 69.9352 235.79 68.6252 235.001 67.8362C234.76 67.5952 231.731 67.8452 228.11 68.4062C224.557 68.9572 219.962 69.6632 217.9 69.9752C211.913 70.8832 200.985 72.8542 196.775 73.7862C192.876 74.6492 191.855 75.5492 194.025 76.2102C195.291 76.5962 196.9 77.8782 196.9 78.5012C196.9 78.7272 196.368 79.2612 195.717 79.6872C194.339 80.5902 192.407 80.0772 190.518 78.3082C189.818 77.6522 189.211 77.4272 188.926 77.7172C188.361 78.2902 183.913 100.197 183.889 102.52C183.879 103.436 184.001 105.085 184.16 106.185C184.369 107.635 184.086 109.217 183.132 111.935C180.759 118.698 179.072 127.435 180.139 127.435C180.271 127.435 182.127 126.85 184.264 126.135ZM35.5248 119.193C36.2808 118.528 36.8998 117.906 36.8998 117.812C36.8998 117.718 35.7628 116.773 34.3728 115.713C32.9828 114.653 31.1568 112.785 30.3148 111.562C28.5598 109.011 28.8288 109.024 21.6498 111.16C19.1748 111.897 15.6308 112.944 13.7748 113.488C10.4718 114.456 9.32281 115.435 11.4898 115.435C12.0888 115.435 13.2698 115.657 14.1148 115.928C14.9588 116.199 18.6868 117.118 22.3998 117.971C26.1128 118.824 29.7118 119.709 30.3998 119.939C32.5728 120.664 34.1068 120.441 35.5248 119.193ZM254.4 118.522C256.737 117.683 260.224 116.42 262.148 115.716C264.072 115.011 266.04 114.435 266.523 114.435C267.005 114.435 267.4 114.225 267.4 113.969C267.4 113.439 266.606 113.145 263.4 112.488C262.162 112.235 258.907 111.439 256.166 110.72C253.424 110 250.893 109.523 250.541 109.658C250.188 109.793 249.896 110.529 249.892 111.294C249.885 112.555 249.064 116.288 248.113 119.383C247.784 120.455 247.871 120.553 248.948 120.314C249.609 120.167 252.063 119.361 254.4 118.522ZM180.08 98.8102C180.423 96.4682 181.053 92.7792 181.896 88.1852C183.076 81.7582 183.479 78.8482 183.227 78.5952C183.082 78.4502 180.557 78.6052 177.616 78.9392C174.675 79.2732 171.17 79.4012 169.826 79.2222C168.046 78.9862 167.323 79.0732 167.164 79.5422C167.043 79.8952 166.817 82.6602 166.662 85.6852C166.506 88.7102 166.327 91.7112 166.265 92.3542C166.162 93.4062 166.63 93.6942 170.9 95.2092C174.817 96.5982 175.954 97.2482 177.384 98.9142C178.338 100.026 179.265 100.935 179.444 100.935C179.623 100.935 179.91 99.9792 180.08 98.8102ZM162.4 86.9972C162.4 84.2822 162.536 81.3802 162.702 80.5482C163.061 78.7552 162.625 78.5452 158.15 78.3622L155.15 78.2382L154.806 80.4622C154.233 84.1622 153.475 87.9082 153.213 88.3332C152.694 89.1722 153.768 89.8562 157.15 90.8382C162.722 92.4582 162.4 92.6932 162.4 86.9972ZM185.364 73.0832C186.898 71.2462 187.878 70.8822 195.146 69.4522C199.188 68.6572 202.602 67.9002 202.732 67.7692C202.863 67.6392 202.738 66.6672 202.456 65.6092C201.956 63.7382 200.448 55.6402 198.421 43.9352C194.388 20.6602 193.496 16.0532 192.952 15.7172C192.742 15.5872 191.464 15.8502 190.11 16.3012C186.477 17.5112 168.146 17.4922 160.9 16.2712C151.398 14.6702 145.266 12.9482 142.723 11.1682C141.009 9.96722 140.511 10.2842 138.978 13.5602C138.173 15.2792 136.277 19.2722 134.764 22.4352C133.25 25.5972 130.945 30.4352 129.64 33.1852C125.831 41.2112 121.726 49.8172 119.224 55.0162C117.946 57.6732 116.9 60.0682 116.9 60.3392C116.9 61.1702 121.387 63.7622 126.9 66.1142C134.451 69.3362 144.644 71.8702 155.15 73.1382C158.725 73.5692 162.325 74.0202 163.15 74.1392C163.975 74.2592 169.134 74.2822 174.614 74.1912C183.641 74.0402 184.652 73.9352 185.364 73.0832ZM188.775 12.1352C191.291 11.6492 190.716 10.7152 187.025 9.29222C178.342 5.94622 171.297 4.78622 159.4 4.74222C150.006 4.70822 144.9 5.40222 144.9 6.71222C144.9 7.99822 155.567 10.9332 164.687 12.1562C170.073 12.8782 184.997 12.8652 188.775 12.1352ZM88.8998 183.127C79.0768 180.389 54.4738 172.738 52.8798 171.925C49.2598 170.078 47.4078 166.345 47.4028 160.885C47.3988 157.332 48.1468 155.096 49.9968 153.13C53.0918 149.841 55.3608 149.932 69.3998 153.906C71.4618 154.49 74.7868 155.415 76.7868 155.962C78.7878 156.508 81.3748 157.255 82.5368 157.621C83.6988 157.987 86.3378 158.814 88.3998 159.459C96.4708 161.984 99.8728 166.377 99.8918 174.3C99.9108 181.9 95.9398 185.089 88.8998 183.127ZM94.6218 178.324C95.8308 176.598 95.6478 171.638 94.2748 168.92C92.3378 165.086 91.8288 164.875 69.1498 158.48C65.2998 157.395 61.3298 156.357 60.3288 156.175C58.5748 155.856 58.4848 155.912 57.9048 157.67C57.5728 158.674 57.3798 161.001 57.4758 162.841C57.6458 166.111 57.6228 166.185 56.4148 166.185C54.6078 166.185 53.8418 164.333 54.0378 160.435C54.1268 158.648 54.3818 156.791 54.6038 156.31C55.2108 154.992 53.6308 155.186 52.6778 156.546C52.1658 157.277 51.9008 158.774 51.9018 160.921C51.9048 166.573 53.6088 168.179 62.1498 170.584C64.6248 171.28 69.0128 172.558 71.8998 173.422C74.7868 174.286 78.7248 175.428 80.6498 175.959C82.5748 176.49 86.0618 177.474 88.3998 178.144C93.7078 179.667 93.6808 179.667 94.6218 178.324ZM209.317 195.435C209.225 195.159 209.325 191.953 209.539 188.31C210.201 177.034 209.2 167.068 206.585 158.889C205.371 155.094 205.403 153.435 206.692 153.435C208.538 153.435 211.018 160.765 212.229 169.801C212.926 174.993 212.967 177.148 212.506 184.051C211.931 192.665 211.288 195.935 210.168 195.935C209.792 195.935 209.408 195.71 209.317 195.435ZM217.157 174.164C216.933 169.682 216.976 166.659 217.267 166.368C218.221 165.414 218.992 167.455 219.539 172.379C220.147 177.861 219.717 181.066 218.337 181.329C217.629 181.464 217.476 180.537 217.157 174.164ZM238.815 170.184C238.658 170.026 238.746 168.879 239.012 167.635C239.511 165.296 239.222 148.661 238.625 145.31C238.329 143.649 238.406 143.435 239.307 143.435C240.406 143.435 240.858 144.512 241.826 149.435C243.118 156.007 242.964 161.59 241.322 167.679C240.713 169.938 239.641 171.009 238.815 170.184ZM69.8398 109.849C68.8448 109.584 67.2958 108.753 66.3978 108.004C65.1178 106.935 64.8418 106.405 65.1168 105.539C65.4698 104.425 67.5468 103.959 68.1078 104.866C68.2538 105.104 69.3608 105.574 70.5678 105.912C72.5208 106.459 72.9798 106.415 74.7538 105.509C77.2808 104.22 78.3998 102.513 78.3998 99.9462C78.3998 97.9872 78.3158 97.8852 75.7748 96.7512C72.7088 95.3832 71.5288 94.2052 71.1058 92.0912C70.5038 89.0782 75.2348 85.9352 80.3738 85.9352C82.4288 85.9352 82.9958 86.1492 83.8638 87.2522C85.2218 88.9792 85.1728 90.9952 83.7048 93.9202C82.7518 95.8172 82.5828 96.7012 82.8718 98.2812C83.3818 101.069 83.7188 101.435 85.7808 101.435C87.1478 101.435 88.0088 101.041 89.2308 99.8572C90.5988 98.5302 90.9818 98.3812 91.6298 98.9182C92.8928 99.9662 92.5168 101.436 90.4588 103.494C88.7298 105.222 88.2478 105.435 86.0588 105.435C84.7058 105.435 83.3678 105.203 83.0838 104.919C82.3338 104.169 81.2908 104.761 80.1498 106.585C78.9708 108.471 75.3208 110.457 73.1688 110.383C72.3338 110.355 70.8358 110.114 69.8398 109.849ZM54.7828 88.9762C53.3378 87.6852 53.1498 87.2202 53.1498 84.9332C53.1498 82.7212 53.3518 82.1742 54.5528 81.1422C56.3698 79.5782 58.5838 79.5732 60.1398 81.1292C62.6148 83.6052 62.1908 88.2422 59.3538 89.7092C57.3548 90.7422 56.6288 90.6262 54.7828 88.9762ZM83.0078 80.1552C80.2958 78.2552 79.8228 74.4772 82.0388 72.4132C83.3458 71.1952 85.9878 71.1412 87.0078 72.3102C89.2368 74.8652 89.2818 77.3372 87.1428 79.6452C85.7728 81.1242 84.5978 81.2682 83.0078 80.1552ZM26.2188 77.9292C22.7698 74.9012 22.1368 70.1692 24.7978 67.3162C27.1048 64.8442 30.5658 65.0802 33.1008 67.8812C34.0368 68.9162 34.0288 68.9762 32.5058 72.3072C31.6558 74.1652 30.8088 76.3102 30.6228 77.0732C30.3348 78.2562 29.1258 79.4352 28.1998 79.4352C28.0538 79.4352 27.1628 78.7572 26.2188 77.9292ZM28.5818 72.2932C29.6068 69.6082 29.6018 69.4352 28.4998 69.4352C27.1628 69.4352 26.3998 70.4402 26.3998 72.2022C26.3998 75.1572 27.4708 75.2022 28.5818 72.2932Z" fill="white"/>
</svg>
