<svg width="369" height="357" viewBox="0 0 369 357" fill="none" xmlns="http://www.w3.org/2000/svg">
<path fill-rule="evenodd" clip-rule="evenodd" d="M339.341 356.663C339.208 356.53 337.556 356.203 335.669 355.936C329.958 355.127 329.385 353.848 329.389 341.899C329.392 333.19 329.755 328.325 330.666 324.774C330.895 323.881 330.822 323.399 330.457 323.399C330.148 323.399 326.467 324.537 322.278 325.927C310.04 329.988 299.905 331.042 259.653 332.436C228.323 333.522 170.715 331.312 142.66 327.949C140.46 327.685 137.422 327.323 135.91 327.144C131.847 326.665 123.588 325.477 120.16 324.88C118.51 324.592 115.81 324.122 114.16 323.836C110.238 323.154 91.2797 323.164 76.1597 323.856C56.9167 324.736 37.4327 325.048 34.2837 324.526C32.2627 324.192 31.2817 324.213 30.9867 324.599C30.7557 324.902 30.5207 327.286 30.4647 329.899C30.3337 336.019 29.6017 342.616 28.6487 346.264C28.0627 348.509 28.0217 349.454 28.4617 350.521C29.2057 352.321 28.0417 354.186 25.5177 355.24C22.9647 356.307 13.1317 355.933 9.65971 354.636C8.28471 354.123 6.26971 353.69 5.18171 353.676C3.53271 353.653 3.02572 353.385 2.12972 352.058C1.17072 350.638 0.985715 349.273 0.407715 339.366C-0.373285 325.982 0.00271368 313.345 1.23671 311.461C1.98471 310.32 1.97871 310.186 1.15171 309.582C0.309715 308.966 0.280716 307.443 0.607716 281.29C0.798716 266.087 1.16371 247.461 1.41971 239.899C1.67571 232.337 2.01672 219.64 2.17772 211.684C2.33872 203.728 2.68371 196.089 2.94571 194.707C3.33771 192.64 3.28871 192.121 2.66571 191.773C0.950714 190.813 2.12071 184.701 4.61971 181.569C7.00271 178.583 9.43071 177.707 15.4097 177.676C22.3387 177.64 24.9817 178.423 27.9487 181.391C29.3617 182.804 30.3697 184.324 30.5757 185.354C31.1237 188.095 30.9377 197.207 30.1907 204.149C29.4797 210.764 28.9337 213.016 27.8847 213.664C26.9787 214.225 26.5547 213.096 26.2147 209.215C25.1337 196.859 24.2417 188.965 23.7897 187.75C22.9387 185.465 20.8137 184.683 15.4097 184.665C11.1217 184.651 10.4337 184.782 8.33772 186.014C4.92572 188.02 4.99071 187.305 5.85371 213.399C6.18471 223.437 6.57371 249.301 6.71571 270.875C6.85871 292.449 7.12872 310.337 7.31672 310.625C7.75072 311.291 8.46271 345.014 8.09571 347.524L7.82171 349.399L10.7407 349.476C17.9427 349.668 20.0847 349.873 20.4127 350.403C20.6327 350.76 21.4087 350.851 22.4937 350.647C25.3077 350.119 25.4747 349.879 24.9507 347.116C24.1257 342.765 23.3177 330.251 23.6557 327.056C24.0287 323.526 25.5827 320.117 27.4097 318.82C29.3467 317.446 35.8377 316.899 50.1467 316.903C62.7187 316.906 89.6047 318.052 92.1607 318.694C94.0727 319.174 93.6697 318.141 91.3277 316.557C88.8267 314.866 86.9997 311.746 87.8847 310.68C88.3297 310.143 88.2837 309.095 87.6877 306.21C87.2597 304.137 86.9097 300.627 86.9097 298.41V294.379L82.0347 294.676C79.3537 294.839 75.5117 295.181 73.4987 295.436C71.4847 295.691 63.8347 295.892 56.4987 295.883C40.8197 295.865 34.0577 295.167 30.7467 293.226C27.8467 291.527 27.6267 291.203 26.4417 286.881C24.8017 280.899 24.4197 272.028 25.0047 253.53C25.3907 241.34 25.3817 236.316 24.9707 234.683C24.1587 231.46 24.2767 228.951 25.3977 225.602C25.9407 223.978 26.3937 221.524 26.4047 220.149C26.4267 217.349 27.3157 215.149 28.4247 215.149C28.8547 215.149 29.2257 215.719 29.3177 216.524C29.5287 218.359 30.3927 218.238 31.9097 216.159C34.8617 212.114 42.5417 207.71 49.9097 205.835C55.5007 204.413 60.2787 203.917 68.4097 203.917C78.7857 203.916 85.6467 204.866 93.1597 207.343C105.05 211.262 110.117 214.07 115.305 219.616C120.506 225.176 122.752 230.741 122.172 236.629C121.772 240.686 121.104 242.506 119.174 244.795C118.41 245.7 117.882 246.538 118 246.656C118.119 246.774 119.967 245.953 122.108 244.831L126.001 242.791L125.676 241.059C125.372 239.438 124.869 234.054 124.142 224.649C123.643 218.202 120.931 196.564 120.164 192.918C119.776 191.076 119.574 189.13 119.714 188.595C119.907 187.858 119.201 186.995 116.814 185.048C115.079 183.633 110.848 179.621 107.41 176.133C103.972 172.645 90.0747 159.084 76.5257 145.999C62.9767 132.914 51.2117 121.149 50.3817 119.856C49.2417 118.078 48.4787 117.429 47.2627 117.201C44.3687 116.658 38.6067 111.185 36.4157 106.899C35.9237 105.936 35.2637 103.479 34.9477 101.439C33.0347 89.0669 43.0167 77.3999 54.4327 78.6659C57.7397 79.0329 63.4427 81.7009 64.1827 83.2289C64.4707 83.8219 65.3707 84.9499 66.1827 85.7339C69.9747 89.3939 72.0387 92.9769 71.1677 94.3869C70.6407 95.2379 70.1907 95.0199 65.8867 91.8219C60.4197 87.7609 56.7177 85.9129 54.0297 85.9049C49.4037 85.8919 44.8717 89.5209 42.8857 94.8279C41.2847 99.1069 42.0997 102.187 46.3167 107.795C48.1377 110.217 48.2597 110.567 47.7467 111.925C47.2847 113.15 47.3507 113.712 48.1267 115.153C48.6437 116.114 49.3787 116.899 49.7597 116.899C50.1407 116.899 51.7087 117.855 53.2447 119.024C57.5937 122.333 57.9217 122.553 58.1587 122.317C58.2807 122.195 57.2787 120.759 55.9327 119.126C51.6307 113.909 53.8567 115.074 61.6027 122.094C64.3847 124.615 68.6847 128.449 71.1597 130.614C86.3057 143.867 112.13 169.725 117.783 177.3C119.225 179.233 121.342 182.55 122.487 184.673C124.244 187.931 124.475 188.68 123.971 189.487C123.483 190.268 123.548 190.692 124.324 191.796C128.235 197.36 129.895 213.359 128.707 234.024C128.417 239.076 128.428 241.899 128.738 241.899C129.004 241.899 130.108 241.478 131.191 240.962C135.667 238.834 139.247 237.809 149.66 235.679C153.152 234.965 163.414 233.701 172.41 232.878C178.614 232.31 187.87 230.792 188.86 230.18C189.064 230.054 190.228 229.894 191.446 229.827C193.541 229.71 196.391 228.692 205.66 224.751L209.66 223.05L209.819 220.864C209.907 219.663 209.746 216.535 209.463 213.914C208.723 207.067 209.784 196.766 211.884 190.421C213.219 186.385 213.877 185.209 216.38 182.393C219.856 178.482 222.573 174.568 222.787 173.163C223.325 169.639 247.727 144.207 267.556 126.504C279.035 116.255 283.855 112.676 285.703 113.03C286.386 113.16 286.831 113.153 286.692 113.014C286.351 112.673 288.009 110.342 291.52 106.229C295.865 101.137 297.128 98.4179 297.129 94.1489C297.13 90.0709 296.013 87.4709 293.196 84.9979C290.482 82.6139 288.041 82.1539 283.015 83.0769C278.295 83.9439 276.584 85.0109 269.731 91.3649C264.377 96.3299 263.643 96.1139 267.164 90.6089C268.301 88.8309 268.843 87.4759 268.655 86.8819C268.127 85.2189 269.84 82.9769 273.543 80.4829C281.957 74.8149 286.66 73.7429 293.222 75.9949C297.103 77.3269 299.337 79.0979 301.832 82.8219C304.757 87.1879 305.156 88.5609 305.119 94.1489C305.09 98.5149 304.921 99.4709 303.784 101.687C301.915 105.329 293.431 112.899 291.218 112.899C290.8 112.899 290.09 113.673 289.641 114.619C288.756 116.484 276.548 128.64 254.903 149.208C247.344 156.391 238.106 165.391 234.373 169.208C230.64 173.026 225.431 178.218 222.798 180.747C218.653 184.729 218.009 185.567 218.003 186.997C217.999 187.906 217.54 191.012 216.984 193.899C216.428 196.786 215.712 201.174 215.394 203.649C215.076 206.124 214.475 210.174 214.059 212.649C212.973 219.111 212.72 221.9 213.221 221.892C213.463 221.888 214.672 221.523 215.91 221.08C222.58 218.697 228.405 217.9 239.18 217.9C249.25 217.899 252.384 218.359 256.336 220.419C257.456 221.003 259.562 221.663 261.016 221.886C263.456 222.261 277.563 225.186 286.41 227.151C288.472 227.61 291.735 228.42 293.66 228.952C295.585 229.484 297.948 230.132 298.91 230.391C325.312 237.507 343.585 245.993 352.477 255.269C355.426 258.346 360.41 264.828 360.41 265.587C360.41 265.759 359.785 265.899 359.022 265.899C358.172 265.899 356.571 265.1 354.897 263.842C349.317 259.649 335.714 252.314 327.153 248.882C318.942 245.591 307.607 241.661 297.16 238.484C291.828 236.863 291.048 236.652 282.91 234.619C275.134 232.677 274.596 232.551 269.16 231.374C266.41 230.779 263.26 230.088 262.16 229.84C253.784 227.945 246.84 228.194 239.66 230.648C236.761 231.638 231.082 234.874 228.169 237.195C226.351 238.644 224.143 239.988 223.262 240.18C222.381 240.373 220.522 241.571 219.13 242.841C215.818 245.866 209.475 250.034 202.745 253.608C195.608 257.398 188.653 259.959 178.16 262.659C165.847 265.828 163.677 266.262 162.821 265.728C162.127 265.294 161.485 265.652 159.315 267.681C157.855 269.048 155.256 271.063 153.539 272.158C151.823 273.253 150.417 274.379 150.414 274.66C150.412 274.941 149.262 276.741 147.859 278.66C145.004 282.565 142.672 286.873 139.609 293.899C138.049 297.478 137.307 298.649 136.599 298.649C135.155 298.649 135.216 297.128 136.91 290.898C138.639 284.542 141.523 278.548 144.457 275.215C145.531 273.994 146.41 272.682 146.41 272.299C146.41 271.536 149.106 268.858 152.006 266.74C155.313 264.326 161.441 261.773 163.233 262.064C164.446 262.261 165.624 261.905 168.002 260.624C169.739 259.688 171.556 258.917 172.04 258.91C172.525 258.904 173.875 258.469 175.04 257.944C176.206 257.418 178.848 256.384 180.91 255.645C188.529 252.918 190.193 252.3 191.66 251.654C192.485 251.291 194.167 250.579 195.397 250.071C198.88 248.635 209.626 243.083 212.926 241.015C214.563 239.989 219.57 236.649 224.052 233.594C228.535 230.539 233.036 227.737 234.056 227.369C235.076 227 235.91 226.552 235.91 226.373C235.91 225.774 227.046 225.464 222.576 225.906C217.038 226.453 212.359 227.632 207.66 229.665C205.13 230.76 199.221 232.817 194.069 234.396C192.889 234.757 190.929 234.919 189.572 234.766C188.249 234.616 186.748 234.718 186.237 234.992C184.541 235.899 173.302 238.433 166.66 239.404C162.831 239.964 151.586 242.062 147.91 242.902C142.478 244.144 138.963 245.245 133.761 247.337C132.992 247.646 131.894 247.899 131.321 247.899C130.038 247.899 122.773 251.998 116.41 256.312C109.568 260.951 107.96 262.311 107.216 264.092C106.852 264.963 105.277 267.469 103.716 269.662C102.154 271.855 99.9527 275.562 98.8237 277.899C96.2067 283.316 96.1447 283.472 94.9087 287.649C94.3387 289.574 93.4277 292.499 92.8837 294.149C92.2747 295.996 91.7807 299.262 91.5967 302.649L91.2987 308.149L93.1217 310.461C94.8197 312.614 95.2667 312.864 99.6487 314.107C102.235 314.841 105.659 315.659 107.256 315.924C112.181 316.741 126.894 318.782 132.16 319.379C134.91 319.691 138.96 320.153 141.16 320.405C150.182 321.441 169.592 322.667 189.41 323.452C198.945 323.83 214.766 323.933 234.16 323.743C270.655 323.386 280.407 323.01 319.41 320.452C328.797 319.837 333.768 319.688 333.976 320.017C334.165 320.316 334.894 320.071 335.789 319.409C336.695 318.739 338.842 318.026 341.223 317.604C355.043 315.154 359.306 313.903 359.624 312.203C361.775 300.722 361.302 281.889 358.595 271.212C356.941 264.688 360.02 265.597 363.565 272.679C366.518 278.581 368.905 289.849 368.908 297.912C368.91 303.3 368.108 310.595 367.359 311.995C367.084 312.509 366.772 313.615 366.666 314.454C366.419 316.4 365.166 318.316 363.759 318.899C363.154 319.149 361.687 319.983 360.498 320.751L358.335 322.149L358.211 329.149C358.077 336.651 356.659 348.736 355.789 349.791C355.412 350.249 355.449 350.788 355.92 351.668C356.51 352.77 356.457 353.034 355.424 354.134C354.787 354.812 353.23 355.684 351.963 356.073C349.814 356.733 339.875 357.197 339.341 356.663ZM352.278 351.126C352.693 350.998 352.819 350.233 352.661 348.792C351.593 339.029 351.343 335.553 351.336 330.33C351.326 323.454 351.327 323.456 347.291 324.434C344.044 325.221 337.658 325.23 335.716 324.451C334.921 324.132 334.161 323.982 334.026 324.117C333.891 324.252 334.374 327.853 335.1 332.12C335.826 336.387 336.564 341.918 336.741 344.412C336.983 347.823 337.261 349.05 337.862 349.365C338.301 349.596 340.733 349.946 343.267 350.144C346.205 350.372 348.082 350.753 348.449 351.196C348.971 351.825 350.066 351.805 352.278 351.126ZM365.072 314.198C365.22 313.812 365.049 313.096 364.691 312.607C364.079 311.769 364.008 311.782 363.453 312.819C363.129 313.424 363 314.14 363.166 314.409C363.613 315.132 364.763 315.004 365.072 314.198ZM87.3097 291.799C87.6397 291.469 87.9147 290.625 87.9197 289.924C87.9337 288.295 89.9097 281.58 91.5807 277.485C94.8937 269.365 100.619 260.968 105.908 256.471C107.317 255.272 108.336 254.158 108.173 253.995C108.01 253.832 105.859 253.762 103.393 253.84C99.5937 253.96 98.8617 253.856 98.5917 253.152C98.1467 251.992 99.0657 251.305 103.66 249.36C105.86 248.429 108.71 247.037 109.994 246.265C112.78 244.592 115.231 241.018 115.844 237.736C116.083 236.456 116.564 235.065 116.913 234.645C117.431 234.021 117.408 233.721 116.786 233.015C116.367 232.539 115.448 231 114.745 229.595C112.844 225.801 111.139 224.031 106.368 220.898C99.5517 216.422 90.8087 213.256 79.9097 211.317C74.9537 210.435 57.5817 210.439 54.1597 211.323C52.7847 211.678 50.3097 212.316 48.6597 212.742C42.8687 214.235 37.5457 217.691 33.5347 222.562C31.1337 225.477 30.6377 227.26 31.1107 231.284C32.0297 239.097 37.6957 244.241 47.6597 246.305C56.2957 248.095 62.0187 248.686 80.1597 249.66C95.9737 250.509 98.0447 250.736 97.7697 251.584C96.9567 254.085 83.8717 255.586 65.6597 255.269C54.7847 255.079 52.5747 254.903 48.6597 253.916C46.1847 253.291 43.2597 252.33 42.1597 251.78C41.0597 251.229 39.1067 250.25 37.8207 249.605C36.5337 248.959 34.7037 247.749 33.7547 246.915C32.8047 246.081 31.8617 245.399 31.6577 245.399C30.8577 245.399 32.2927 283.709 33.1797 286.02C33.7557 287.523 38.1867 288.453 47.1597 288.955C67.5477 290.096 82.0667 291.346 86.4347 292.337C86.5857 292.371 86.9797 292.129 87.3097 291.799ZM212.91 278.371C210.573 278.166 206.523 277.973 203.91 277.942C198.517 277.878 196.91 277.573 196.91 276.613C196.91 275.633 198.751 275.474 213.66 275.164C221.085 275.01 231.435 274.669 236.66 274.406C241.885 274.142 251.11 273.688 257.16 273.396C263.21 273.103 271.76 272.654 276.16 272.398C280.56 272.141 288.773 271.692 294.41 271.4C304.146 270.895 309.605 270.436 318.66 269.36C336.742 267.212 338.842 266.934 341.768 266.307C344.912 265.633 345.91 266.198 345.91 268.653C345.91 270.491 344.917 271.338 341.66 272.278C339.317 272.955 324.87 274.596 314.16 275.403C310.035 275.714 304.972 276.168 302.91 276.412C300.848 276.656 295.785 277.089 291.66 277.374C287.535 277.66 280.997 278.12 277.132 278.396C269.203 278.963 219.437 278.944 212.91 278.371ZM164.253 159.105C158.999 158.059 153.439 154.67 154.779 153.33C155.174 152.935 155.931 153.015 157.51 153.618C162.472 155.513 171.571 154.519 181.41 151.008C187.55 148.816 188.273 148.663 189.127 149.371C190.366 150.4 193.598 147.732 196.59 143.21C203.574 132.654 203.883 131.773 203.89 122.399C203.895 115.303 202.983 110.767 200.431 105.194C197.085 97.8889 192.984 93.2969 185.16 88.0949C181.314 85.5369 180.132 85.0149 177.026 84.5009C167.163 82.8679 156.737 84.8309 148.91 89.7929C147.398 90.7519 144.338 93.3119 142.112 95.4819C139.885 97.6519 137.525 99.5299 136.868 99.6569C136.211 99.7839 135.281 100.396 134.802 101.018C133.708 102.439 130.408 108.542 129.4 111.009C128.366 113.54 127.41 114.483 127.41 112.973C127.41 111.148 128.909 105.09 130.124 102.006C135.731 87.7689 152.38 76.8559 168.41 76.9099C174.381 76.9289 185.41 79.8619 185.41 81.4299C185.41 81.6589 184.341 81.9349 183.035 82.0429C181.729 82.1509 182.46 82.2279 184.66 82.2149C189.392 82.1849 190.854 82.7759 195.473 86.5859C202.733 92.5739 207.756 100.735 209.668 109.649C211.063 116.153 211.132 120.146 209.953 126.149C208.566 133.21 207.769 135.612 205.641 139.145C204.689 140.726 203.91 142.229 203.91 142.484C203.91 143.256 208.395 139.961 213.16 135.688C215.635 133.468 223.062 126.476 229.665 120.15C247.83 102.748 262.399 89.7779 265.869 87.9209C267.887 86.8409 268.196 88.0549 266.52 90.4789C264.474 93.4369 256.892 102.498 253.464 106.079C250.522 109.154 232.407 125.712 228.227 129.149C226.889 130.249 222.839 133.691 219.227 136.797C215.615 139.903 210.86 143.669 208.66 145.165C206.46 146.662 203.535 148.694 202.16 149.681C197.862 152.767 194.696 154.061 192.149 153.774C190.918 153.635 189.91 153.689 189.91 153.894C189.91 154.587 186.175 156.741 183.16 157.787C177.155 159.869 170.447 160.337 164.253 159.105ZM143.41 155.138C139.261 154.219 138.726 153.947 131.243 148.937C129.364 147.678 126.833 146.087 125.618 145.399C121.451 143.041 116.141 138.106 114.603 135.164C113.263 132.598 113.033 132.401 111.371 132.4C108.906 132.399 106.116 130.438 99.0427 123.737C95.7987 120.664 91.6847 116.814 89.9017 115.182C83.7957 109.595 70.9097 96.7659 70.9097 96.2739C70.9097 96.0039 71.4777 95.8909 72.1717 96.0239C72.8657 96.1559 73.5507 96.0759 73.6937 95.8449C73.8357 95.6139 73.2267 94.0719 72.3397 92.4199C70.6427 89.2579 70.6557 88.3139 72.3807 89.5219C74.6557 91.1159 85.6177 101.087 93.4097 108.65C110.304 125.049 116.758 130.813 129.122 140.545C133.594 144.065 135.427 145.163 134.652 143.859C134.421 143.468 133.734 142.474 133.128 141.649C128.69 135.615 126.491 125.614 128.1 118.777C128.895 115.401 131.905 108.77 132.931 108.136C133.776 107.614 133.984 108.14 133.468 109.497C132.846 111.132 133.638 123.299 134.6 126.906C136.319 133.348 139.299 138.942 144.525 145.538C145.131 146.302 145.634 147.59 145.643 148.401C145.657 149.654 146.18 150.234 149.119 152.265C151.022 153.579 152.661 154.903 152.763 155.207C153.015 155.965 146.944 155.921 143.41 155.138ZM114.66 52.8159C104.151 45.7159 99.0537 41.5249 97.6297 38.8169C97.0037 37.6289 97.0307 37.3609 97.8727 36.3199L98.8167 35.1549L100.989 36.2119C104.031 37.6939 110.323 42.9149 115.846 48.5389C120.722 53.5039 122.529 55.8019 122.102 56.4929C121.596 57.3109 120.541 56.7899 114.66 52.8159ZM201.752 45.2079C201.493 44.5319 201.796 43.8489 205.553 36.6449C209.215 29.6239 217.242 18.9099 219.669 17.8039C221.244 17.0859 222.41 17.9889 222.41 19.9259C222.41 21.8389 216.189 31.0279 211.41 36.1729C209.348 38.3929 206.578 41.4899 205.256 43.0539C202.751 46.0189 202.194 46.3609 201.752 45.2079ZM158.772 41.0719C158.099 39.9649 154.738 26.8509 153.348 19.9159C151.418 10.2829 151.056 1.14686 152.566 0.210862C154.039 -0.702138 155.179 1.29486 156.6 7.27586C158.704 16.1309 159.427 21.1779 159.975 30.8379C160.423 38.7339 160.393 40.1299 159.762 40.7609C159.359 41.1649 158.913 41.3049 158.772 41.0719Z" fill="white"/>
</svg>
