<svg width="350" height="332" viewBox="0 0 350 332" fill="none" xmlns="http://www.w3.org/2000/svg">
<path fill-rule="evenodd" clip-rule="evenodd" d="M80.376 331.162C79.964 330.933 79.018 330.506 78.275 330.213C75.308 329.045 75.033 325.572 77.132 315.778C77.891 312.235 78.352 311.247 80.48 308.606L82.949 305.543L81.412 305.88C79.453 306.31 79.036 305.397 79.867 302.502C80.2 301.339 80.508 299.866 80.55 299.229L80.626 298.07L72.505 297.919C68.039 297.836 64.102 297.548 63.755 297.28C63.409 297.012 62.001 296.512 60.626 296.168C56.264 295.077 55.181 294.537 52.83 292.283C50.81 290.346 50.191 290.047 47.665 289.786C45.115 289.523 44.498 289.219 42.142 287.066C39.604 284.746 39.394 284.655 37.267 284.946C35.764 285.152 34.572 285.011 33.585 284.511C32.783 284.104 31.226 283.607 30.126 283.406C26.934 282.823 17.927 282.985 14.255 283.691C11.078 284.302 10.805 284.28 9.50502 283.305C8.31302 282.411 8.13302 281.94 8.17402 279.829C8.20102 278.487 8.57902 275.138 9.01602 272.388C9.45202 269.638 9.90702 266.6 10.026 265.638C10.146 264.676 10.939 259.163 11.788 253.388C13.44 242.159 13.631 240.325 14.159 230.638C14.377 226.654 14.305 223.663 13.962 222.388C13.666 221.288 13.069 217.576 12.636 214.138C12.203 210.7 11.656 207.326 11.421 206.638C11.185 205.95 10.756 204.488 10.468 203.388C9.96202 201.454 9.13402 198.385 7.56902 192.638C2.17002 172.818 0.72902 164.496 0.0420199 149.166C-0.32898 140.887 1.80802 127.781 4.42602 122.289C6.36902 118.21 10.069 114.235 14.246 111.738C17.546 109.766 18.87 109.295 24.251 108.181C25.695 107.883 28.057 107.393 29.501 107.095C30.945 106.796 32.94 106.346 33.934 106.095C36.527 105.44 41.045 105.564 45.376 106.41C47.438 106.812 49.464 107.197 49.876 107.265C50.495 107.366 50.692 106.251 51.004 100.888C52.83 69.4363 53.735 61.6213 56.397 54.3163C56.983 52.7063 57.593 50.9543 57.752 50.4233C58.335 48.4673 61.912 41.9643 64.057 38.9583C66.72 35.2273 71.533 30.3603 71.792 31.1373C71.895 31.4443 71.645 32.0773 71.238 32.5423C70.327 33.5813 68.876 36.3963 68.876 37.1233C68.876 37.6133 72.737 33.7233 76.297 29.6463C77.108 28.7173 78.022 27.1213 78.328 26.1003C79.788 21.2273 90.843 14.2453 103.876 9.96526C108.083 8.58326 119.271 5.65127 125.16 4.38727C128.676 3.63227 144.179 1.72026 155.876 0.598264C163.696 -0.151736 195.742 -0.211734 205.626 0.504266C226.283 2.00127 236.278 3.91527 247.376 8.49827C249.713 9.46427 252.526 10.6213 253.626 11.0713C255.881 11.9923 262.7 16.5033 266.954 19.8883C274.532 25.9163 281.07 37.4173 284.294 50.3883C284.568 51.4883 285.047 53.2883 285.36 54.3883C285.673 55.4883 286.062 59.1513 286.226 62.5293C286.389 65.9063 286.728 68.7973 286.979 68.9523C287.23 69.1073 287.103 69.4943 286.696 69.8113C286.098 70.2783 285.936 72.1573 285.85 79.6383C285.792 84.7263 285.788 90.5763 285.842 92.6383C285.926 95.8583 286.018 96.2113 286.498 95.1383C286.987 94.0453 287.13 81.1573 286.735 73.8883C286.575 70.9463 287.571 70.9463 287.939 73.8883C289.211 84.0293 289.848 90.7223 290.864 104.638C291.195 109.175 291.549 113.338 291.65 113.889C291.825 114.847 292.154 114.882 299.481 114.713C306.825 114.544 307.349 114.599 312.628 116.108C318.798 117.872 321.277 118.963 325.626 121.831C333.696 127.151 338.357 132.161 342.427 139.888C345.451 145.629 346.887 151.119 348.245 162.138C350.054 176.824 349.156 194.034 345.699 210.888C345.248 213.088 344.629 216.126 344.324 217.638C344.019 219.15 343.594 220.95 343.38 221.638C343.167 222.326 342.715 223.9 342.376 225.138C342.037 226.376 341.575 227.95 341.35 228.638C341.124 229.326 340.693 231.126 340.391 232.638C340.089 234.15 339.419 236.626 338.902 238.138C338.385 239.65 337.399 242.688 336.711 244.888C333.485 255.194 330.727 261.307 326.313 267.935C321.616 274.987 312.796 280.561 302.694 282.86L301.263 283.185L301.62 287C301.817 289.098 302.16 291.169 302.383 291.601C302.839 292.487 303.553 296.086 304.376 301.638C304.682 303.7 305.143 306.513 305.402 307.888C305.797 309.981 306.716 316.595 307.731 324.638C308.001 326.772 306.321 329.535 304.107 330.602C302.464 331.393 295.656 331.942 293.668 331.443C292.335 331.109 288.876 328.342 288.876 327.61C288.876 327.377 286.548 322.394 283.702 316.537C280.856 310.68 277.676 303.975 276.635 301.638C275.594 299.301 274.527 297.115 274.264 296.782C273.972 296.413 272.575 296.197 270.682 296.229C268.976 296.258 267.062 296.005 266.43 295.667C265.389 295.11 265.297 294.763 265.454 291.97L265.626 288.888L258.376 289.034C254.388 289.114 248.201 289.402 244.626 289.673C223.103 291.308 157.144 291.458 122.689 289.951C121.182 289.885 120.986 290.1 119.551 293.388C118.058 296.807 114.383 301.974 112.972 302.635C112.232 302.982 110.388 303.406 108.876 303.577C105.748 303.931 106.298 303.179 101.329 313.888C92.865 332.133 93.286 331.65 85.876 331.607C83.264 331.592 80.788 331.391 80.376 331.162ZM91.81 319.513C95.426 311.941 96.406 309.736 97.928 305.745C98.653 303.844 99.862 301.882 100.99 300.779C102.735 299.073 102.973 298.986 104.72 299.422C106.056 299.756 106.663 300.216 106.856 301.043C107.004 301.677 107.342 302.24 107.606 302.293C108.391 302.449 110.269 299.262 111.121 296.33C111.558 294.826 112.356 292.874 112.894 291.992C114.155 289.925 114.145 289.871 112.406 289.151C110.615 288.409 110.092 288.684 109.715 290.567C109.222 293.035 108.29 293.538 104.187 293.555C101.56 293.565 99.762 293.874 98.049 294.609C96.716 295.181 94.726 295.751 93.626 295.876C92.526 296.001 90.501 296.416 89.126 296.797L86.626 297.492L86.055 300.33C85.742 301.891 85.214 303.823 84.882 304.623C84.551 305.423 84.403 306.277 84.554 306.521C84.825 306.96 83.979 313.06 82.839 318.888C82.517 320.538 82.224 322.563 82.189 323.388C82.131 324.769 82.285 324.912 84.126 325.192C89.039 325.939 88.579 326.279 91.81 319.513ZM301.112 324.96C301.754 324.491 301.923 323.992 301.663 323.335C301.288 322.391 300.699 319.079 299.894 313.388C299.661 311.738 298.983 307.35 298.387 303.638C296.971 294.805 296.59 288.357 297.395 286.853C298.296 285.169 297.74 284.21 296.04 284.517C295.262 284.657 294.401 284.942 294.126 285.149C293.851 285.356 292.49 285.679 291.102 285.865C287.335 286.371 287.1 286.617 287.843 289.271C288.405 291.278 288.362 291.705 287.411 293.569C286.546 295.265 286.098 295.638 284.927 295.638C284.141 295.638 283.218 295.301 282.876 294.888C281.829 293.627 281.227 294.027 281.514 295.794C281.855 297.898 283.619 301.9 290.078 315.224C292.167 319.534 293.876 323.228 293.876 323.435C293.876 323.641 294.248 324.221 294.703 324.724C295.708 325.834 299.715 325.982 301.112 324.96ZM272.376 294.083C272.376 293.198 269.269 288.645 268.844 288.908C268.45 289.151 269.684 292.889 270.529 294.013C271.111 294.787 272.376 294.835 272.376 294.083ZM281.876 293.073C281.876 292.762 282.664 291.411 283.626 290.072C284.588 288.732 285.376 287.505 285.376 287.344C285.376 287.031 277.874 287.615 277.253 287.977C277.048 288.097 277.239 288.89 277.679 289.74C279.093 292.474 281.876 294.684 281.876 293.073ZM71.072 289.343C73.215 287.003 75.048 287.077 75.283 289.513C75.439 291.132 75.45 291.138 78.204 291.138C80.249 291.138 81.313 290.867 82.294 290.096C83.411 289.217 84.031 289.105 86.245 289.381C88.436 289.655 89.113 289.538 90.326 288.674C91.933 287.529 94.351 287.313 95.269 288.231C95.842 288.804 103.216 289.296 103.998 288.813C104.207 288.683 104.106 288.085 103.774 287.483C103.441 286.881 103 285.15 102.793 283.638C102.587 282.126 101.966 278.076 101.414 274.638C100.863 271.2 100.176 266.926 99.889 265.138C99.602 263.35 99.023 259.188 98.603 255.888C98.183 252.588 97.64 249.1 97.396 248.138C97.153 247.176 96.681 242.398 96.349 237.521C95.816 229.705 95.846 227.867 96.602 222.021C97.556 214.649 99.521 206.573 101.926 200.138C104.178 194.111 104.248 193.156 102.583 191.178C101.823 190.275 99.074 188.114 96.474 186.375C93.08 184.105 90.348 181.689 86.784 177.801C81.324 171.847 75.876 164.905 75.876 163.903C75.876 163.549 75.546 162.986 75.142 162.652C74.739 162.317 73.6 160.658 72.612 158.965C71.624 157.273 70.486 155.326 70.084 154.638C68.759 152.375 60.876 135.727 60.876 135.192C60.876 134.482 58.938 130.212 54.984 122.212C52.923 118.04 51.214 115.227 50.428 114.712C48.19 113.245 35.839 112.253 30.626 113.122C19.357 115 13.322 119.408 10.303 127.964C9.73602 129.572 9.04902 132.238 8.77802 133.888C8.50602 135.538 8.05002 138.126 7.76502 139.638C6.36802 147.059 7.80102 164.6 10.85 177.388C11.113 178.488 11.554 180.4 11.832 181.638C12.109 182.876 12.809 185.463 13.387 187.388C14.313 190.475 17.114 200.734 18.37 205.638C18.616 206.601 19.044 209.076 19.321 211.138C19.598 213.2 20.096 216.846 20.427 219.24C21.356 225.948 20.421 241.729 18.359 254.138C17.834 257.304 17.181 261.684 16.127 269.138C15.718 272.025 15.235 274.926 15.053 275.584C14.686 276.91 13.954 276.886 22.311 275.831C23.877 275.633 24.869 275.722 25.091 276.081C25.634 276.96 26.959 276.734 28.223 275.547C29.345 274.493 29.442 274.484 31.134 275.291C32.459 275.923 33.738 276.064 36.391 275.871L39.896 275.615L40.926 277.36C42.211 279.538 44.735 281.138 46.887 281.138C48.168 281.138 48.945 281.588 50.415 283.18C52.277 285.197 57.599 288.138 59.388 288.138C60.021 288.138 60.359 287.709 60.468 286.767C60.642 285.255 61.978 284.685 63.122 285.635C63.659 286.081 63.696 286.486 63.282 287.394C62.48 289.155 63.076 290.014 65.472 290.549C68.927 291.322 69.34 291.233 71.072 289.343ZM215.126 284.242C226.951 283.934 239.776 283.446 243.626 283.159C247.476 282.872 254.723 282.399 259.73 282.108C264.737 281.818 269.573 281.368 270.476 281.109C271.38 280.85 273.854 280.638 275.973 280.638C278.093 280.638 280.907 280.433 282.226 280.182C283.546 279.932 286.314 279.465 288.376 279.146C290.438 278.827 292.801 278.383 293.626 278.159C294.451 277.936 296.476 277.474 298.126 277.133C304.552 275.805 309.818 273.615 314.267 270.419C320.319 266.071 326.022 255.496 330.869 239.638C331.499 237.576 332.403 234.65 332.878 233.138C333.793 230.225 334.641 227.176 335.451 223.888C335.722 222.788 336.128 221.213 336.352 220.388C338.499 212.509 339.893 205.544 340.905 197.638C342.718 183.487 342.945 179.436 342.39 171.138C342.086 166.601 341.621 161.808 341.357 160.488C341.092 159.169 340.876 157.478 340.876 156.732C340.876 155.352 339.207 149.712 337.593 145.638C334.032 136.652 321.913 125.732 311.876 122.468C304.168 119.96 292.608 120.199 290.357 122.911C289.058 124.476 285.389 122.881 285.367 120.744C285.363 120.273 285.133 117.751 284.856 115.138C284.58 112.525 284.134 106.571 283.865 101.905C282.509 78.3793 278.299 51.9123 274.636 43.8883C271.209 36.3803 270.215 34.5233 268.166 31.7983C265.3 27.9853 258.201 21.2363 255.588 19.8403C254.509 19.2643 252.838 18.3493 251.876 17.8083C248.602 15.9683 237.641 11.7813 233.376 10.7423C231.039 10.1723 227.664 9.57326 225.876 9.41126C224.088 9.24926 221.051 8.90626 219.126 8.64826C217.201 8.39026 213.489 7.90027 210.876 7.56027C203.255 6.56627 161.806 6.74926 151.376 7.82226C146.839 8.28926 141.888 8.89027 140.376 9.15827C138.864 9.42527 134.589 10.1033 130.876 10.6643C127.163 11.2263 121.314 12.4433 117.876 13.3693C114.438 14.2963 110.614 15.2753 109.376 15.5443C100.96 17.3763 86.073 25.5933 78.958 32.3343C73.437 37.5653 65.583 48.2693 64.426 52.1383C64.056 53.3753 63.351 55.7383 62.858 57.3883C62.365 59.0383 61.832 61.0633 61.673 61.8883C61.515 62.7133 61.148 64.5133 60.859 65.8883C59.853 70.6693 58.75 83.4963 57.892 100.388C57.627 105.613 57.269 110.587 57.097 111.441C56.834 112.743 57.166 113.55 59.147 116.441C61.348 119.651 66.876 130.211 66.876 131.206C66.876 131.449 67.321 132.603 67.865 133.768C68.409 134.934 69.144 136.675 69.497 137.638C71.091 141.981 73.989 146.692 74.656 146.025C75.126 145.555 73.781 137.457 73.047 136.338C72.102 134.895 72.512 130.885 73.65 130.448C75.284 129.821 76.876 131.787 76.876 134.432C76.876 135.117 77.359 136.332 77.949 137.13C78.903 138.42 78.991 139.018 78.739 142.485C78.583 144.632 78.062 147.582 77.58 149.042C76.719 151.655 76.722 151.732 77.814 153.98C79.187 156.804 84.064 164.257 85.107 165.122C85.765 165.668 85.876 165.576 85.876 164.482C85.876 163.779 85.641 162.586 85.355 161.832C85.068 161.078 84.366 158.757 83.796 156.675C81.11 146.879 80.826 145.006 80.527 135.161C80.263 126.432 80.117 125.201 79.109 123.161C77.491 119.889 74.018 110.23 73.628 107.921C72.618 101.937 73.618 96.7683 76.299 94.1183C78.263 92.1763 83.187 90.3853 90.126 89.0893C94.569 88.2593 108.686 88.2093 112.626 89.0083C114.276 89.3433 117.426 89.9873 119.626 90.4383C121.826 90.8893 124.301 91.3623 125.126 91.4883C125.951 91.6143 128.035 92.3703 129.756 93.1693C131.478 93.9683 133.447 94.7623 134.131 94.9343C135.694 95.3263 135.698 95.8613 134.149 97.4113C132.562 98.9983 131.406 98.9763 122.412 97.1953C114.368 95.6013 106.359 94.6283 101.376 94.6403C96.765 94.6503 87.606 95.8943 84.446 96.9393C80.869 98.1223 79.203 100.459 79.633 103.689C80.199 107.937 82.72 115.32 85.336 120.388C86.565 122.77 86.642 123.397 86.964 133.638C87.15 139.55 87.443 145.063 87.616 145.888C88.171 148.537 88.927 151.84 89.389 153.638C89.637 154.601 90.21 156.963 90.662 158.888C91.115 160.813 91.784 163.175 92.149 164.138C92.697 165.58 94.147 171.296 95.131 175.888C95.249 176.438 96.519 177.675 97.953 178.638C99.387 179.601 101.983 181.547 103.722 182.964L106.883 185.54L118.277 185.609C124.543 185.648 131.348 185.441 133.398 185.15C135.449 184.86 138.926 184.381 141.126 184.087C149.696 182.942 157.527 181.41 165.876 179.248C173.748 177.21 176.558 176.711 177.468 177.193C178.871 177.935 179.869 177.702 181.025 176.362C181.631 175.66 184.148 174.021 186.619 172.721C190.294 170.788 191.19 170.087 191.537 168.873C191.771 168.056 192.168 166.697 192.419 165.853C192.67 165.008 192.876 160.705 192.876 156.29C192.876 146.094 191.182 135.349 188.054 125.699C187.076 122.682 183.948 114.212 183.137 112.388C180.917 107.388 180.876 107.144 180.876 98.8883C180.876 89.1093 180.46 87.6213 177.473 86.7263C174.875 85.9483 173.559 85.9993 167.626 87.1113C159.278 88.6763 157.217 89.2713 142.453 94.3693C140.433 95.0673 138.201 95.6383 137.492 95.6383C136.151 95.6383 134.375 94.3833 134.377 93.4363C134.378 92.7813 137.661 90.6793 141.126 89.1143C145.717 87.0413 159.04 82.4533 162.376 81.7963C163.064 81.6613 165.248 81.2323 167.23 80.8443C177.664 78.8003 184.174 81.2143 186.093 87.8383C186.945 90.7783 186.946 93.5113 186.097 101.283C185.858 103.477 185.988 104.627 186.637 106.033C187.108 107.053 188.124 109.238 188.896 110.888C191.216 115.847 193.054 120.848 195.328 128.388C195.738 129.746 197.201 137.531 198.381 144.638C199.361 150.537 199.509 159.713 198.679 163.138C198.245 164.925 197.887 167.353 197.883 168.533C197.879 169.713 197.423 171.567 196.868 172.653C195.996 174.363 195.206 174.943 190.993 176.967C186.158 179.289 178.803 182.119 174.248 183.41C172.939 183.78 171.675 184.203 171.437 184.35C170.325 185.037 154.402 188.949 149.876 189.647C148.089 189.923 144.151 190.46 141.126 190.842C127.591 192.55 124.27 192.767 117.118 192.413L109.876 192.054V194.188C109.876 196.011 108.944 199.499 107.418 203.388C107.202 203.938 106.746 205.175 106.404 206.138C106.063 207.101 105.356 209.004 104.834 210.368C104.313 211.732 104.052 212.991 104.256 213.166C104.637 213.494 109.161 214.308 114.876 215.078C116.663 215.319 120.475 215.557 123.346 215.607C126.218 215.656 128.805 215.852 129.096 216.042C129.388 216.233 133.226 216.551 137.626 216.751C142.026 216.951 151.138 217.374 157.876 217.692C173.242 218.417 188.319 218.432 210.376 217.745C233.22 217.032 261.429 215.286 268.751 214.131C277.064 212.82 278.867 212.471 282.001 211.568C283.857 211.033 285.376 210.499 285.376 210.38C285.376 209.696 282.043 201.928 280.66 199.388C276.338 191.451 273.838 187.893 268.126 181.55C266.172 179.38 264.971 178.54 262.626 177.703C256.946 175.674 236.87 173.688 216.936 173.184C205.92 172.905 205.206 172.829 204.573 171.874C203.996 171.002 204.033 170.644 204.84 169.318L205.778 167.775L214.952 167.437C220.206 167.243 228.612 167.34 234.626 167.663C240.401 167.973 246.02 168.263 247.113 168.307C249.052 168.386 249.107 168.341 249.421 166.441C249.834 163.938 251.53 162.52 253.732 162.837C255.118 163.037 255.474 162.847 256.34 161.446C256.892 160.553 257.804 159.406 258.367 158.896C258.986 158.336 259.279 157.619 259.108 157.083C258.689 155.76 260.738 152.039 261.777 152.235C263.077 152.482 263.154 155.344 261.908 157.093C260.66 158.845 260.636 159.307 261.704 160.937C262.369 161.952 262.443 162.653 262.079 164.496C261.392 167.977 260.38 168.278 257.914 165.737C255.691 163.446 254.876 163.133 254.876 164.571C254.876 165.083 254.426 166.075 253.876 166.774C253.326 167.474 252.876 168.265 252.876 168.534C252.876 169.128 254.585 169.622 256.673 169.631C258.019 169.637 261.84 170.729 264.471 171.859C265.155 172.153 265.376 171.859 265.638 170.305C266.079 167.694 267.937 161.498 268.455 160.913C268.687 160.652 268.876 160.03 268.876 159.531C268.876 159.032 269.092 158.234 269.357 157.756C269.621 157.279 270.779 154.076 271.93 150.638C276.336 137.481 281.918 128.891 284.611 131.126C285.763 132.082 285.574 132.991 283.199 137.893C281.092 142.242 278.7 148.494 277.366 153.138C277.01 154.376 276.212 157.076 275.592 159.138C274.972 161.2 273.874 164.913 273.151 167.388C272.428 169.863 271.625 172.545 271.367 173.348C270.945 174.665 271.107 175.034 273.021 177.098C274.188 178.358 275.647 179.938 276.263 180.611C276.879 181.284 278.45 183.475 279.755 185.479C281.059 187.484 282.351 189.052 282.626 188.965C282.901 188.877 283.407 187.249 283.751 185.347C284.538 180.987 286.746 174.574 287.727 173.797C289.935 172.05 290.516 175.338 288.949 180.71C288.44 182.458 287.75 185.126 287.417 186.638C287.084 188.15 286.451 190.239 286.01 191.28C285.237 193.105 285.255 193.274 286.5 196.03C287.211 197.602 288.063 199.619 288.395 200.513C289.052 202.286 289.876 202.68 289.876 201.221C289.876 200.716 290.29 198.972 290.797 197.346C291.304 195.719 291.992 192.925 292.326 191.138C293.019 187.437 296.275 178.688 298.441 174.712C302.61 167.056 307.123 162.866 314.376 159.915C319.401 157.871 322.576 158.019 323.155 160.324C323.642 162.267 322.672 163.467 320.364 163.776C317.464 164.165 313.361 166.3 310.407 168.955C308.106 171.024 301.876 179.57 301.876 180.658C301.876 180.908 301.234 182.525 300.45 184.25C298.396 188.769 297.103 193.083 295.388 201.138C295.066 202.65 294.618 204.45 294.393 205.138C294.167 205.826 293.698 207.738 293.349 209.388C293 211.038 292.526 212.602 292.296 212.863C292.065 213.124 291.876 215.944 291.876 219.13C291.876 224.299 291.665 225.701 289.919 232.168C287.638 240.61 285.555 245.275 282.594 248.568C280.294 251.126 278.595 252.122 274.444 253.347C269.796 254.718 266.526 254.074 266.95 251.872C267.15 250.836 268.106 250.276 272.571 248.582C274.19 247.968 276.215 246.758 277.071 245.893C278.911 244.033 281.317 239.606 282.835 235.287C284.796 229.706 286.675 216.138 285.487 216.138C285.273 216.138 284.655 216.427 284.112 216.78C280.528 219.111 265.873 221.568 249.126 222.644C227.064 224.062 167.46 224.968 149.626 224.156C124.129 222.996 115.936 222.378 109.876 221.155C108.638 220.905 106.557 220.561 105.251 220.389L102.876 220.077V224.59C102.876 228.736 102.966 229.151 103.982 229.695L105.089 230.287L103.934 230.714C102.807 231.131 102.787 231.259 103.069 236.015C103.228 238.695 103.418 242.372 103.492 244.186C103.642 247.88 104.143 248.743 106.968 250.185C108.017 250.72 108.876 251.483 108.876 251.881C108.876 252.738 107.357 253.638 105.909 253.638C104.644 253.638 104.604 254.779 105.684 260.138C106.099 262.2 106.552 264.676 106.691 265.638C107.01 267.848 108.412 277.239 108.819 279.888L109.126 281.888L112.376 282.205C114.163 282.379 118.379 282.547 121.744 282.58C125.109 282.612 128.821 282.875 129.994 283.165C132.857 283.872 167.775 285.04 182.126 284.909C188.451 284.851 203.301 284.551 215.126 284.242ZM66.376 41.8883C66.376 41.4763 66.601 41.1383 66.876 41.1383C67.151 41.1383 67.376 40.8003 67.376 40.3883C67.376 39.3573 66.562 39.4433 66.184 40.5133C66.014 40.9943 65.744 41.6693 65.584 42.0133C65.424 42.3573 65.536 42.6383 65.834 42.6383C66.132 42.6383 66.376 42.3003 66.376 41.8883ZM70.354 260.361C69.943 259.866 69.468 256.28 69.046 250.486C68.681 245.482 68.121 239.363 67.802 236.888C67.482 234.413 67.209 228.338 67.194 223.388C67.167 214.052 67.115 214.41 69.853 205.088C70.469 202.99 72.163 201.225 72.875 201.937C73.177 202.239 73.159 203.418 72.827 205.151C72.539 206.656 72.103 209.576 71.859 211.638C71.615 213.7 71.195 216.513 70.925 217.888C70.259 221.29 70.261 230.223 70.928 233.888C72.437 242.166 73.342 258.333 72.396 260.101C71.733 261.34 71.22 261.405 70.354 260.361ZM36.612 238.511C36.457 237.891 36.565 234.483 36.853 230.938C37.653 221.081 37.492 212.051 36.363 203.532C35.806 199.328 35.142 194.988 34.888 193.888C34.633 192.788 34.193 190.804 33.909 189.48C33.626 188.155 33.274 186.877 33.128 186.641C32.721 185.982 35.131 183.427 35.781 183.829C36.724 184.412 38.177 189.71 40.391 200.638C41.179 204.528 41.486 216.654 40.928 221.888C39.243 237.703 38.851 239.597 37.261 239.63C37.06 239.635 36.768 239.131 36.612 238.511ZM30.727 177.783C30.574 177.291 29.9 175.313 29.228 173.388C27.742 169.133 26.616 161.919 27.076 159.593C27.261 158.655 27.545 157.213 27.707 156.388C28.231 153.719 29.876 152.574 29.876 154.879C29.876 156.322 30.698 161.781 31.722 167.138C32.116 169.2 32.608 171.804 32.815 172.925C33.396 176.071 31.535 180.401 30.727 177.783ZM108.751 244.598C107.662 243.964 107.613 241.736 108.654 240.249C109.799 238.615 110.666 238.885 111.577 241.161C112.829 244.291 111.338 246.105 108.751 244.598ZM108.501 232.651C107.332 232.121 106.376 231.548 106.376 231.379C106.376 230.685 109.043 227.638 109.651 227.638C110.011 227.638 111.1 228.144 112.07 228.763C113.316 229.558 113.84 230.262 113.855 231.163C113.898 233.75 112.052 234.263 108.501 232.651ZM277.179 179.724C276.361 178.401 276.871 172.722 278.107 169.388C280.432 163.115 282.039 160.388 283.41 160.388C284.316 160.388 284.608 160.643 284.555 161.388C284.416 163.341 283.468 166.936 282.181 170.386C281.463 172.31 280.858 174.335 280.836 174.886C280.785 176.148 278.819 179.755 278.047 180.004C277.728 180.107 277.338 179.981 277.179 179.724Z" fill="white"/>
</svg>
