<svg width="274" height="159" viewBox="0 0 274 159" fill="none" xmlns="http://www.w3.org/2000/svg">
<path fill-rule="evenodd" clip-rule="evenodd" d="M126.843 158.077C123.886 157.607 119.397 155.648 116.889 153.733C113.655 151.264 110.071 145.977 108.031 140.669L106.593 136.924L102.593 136.856C100.393 136.818 96.6814 136.749 94.3434 136.702C90.4064 136.622 65.7384 134.682 61.0154 134.081L58.9364 133.816L56.9014 138.159C55.2824 141.615 54.1224 143.24 51.2294 146.113C48.0314 149.287 47.1694 149.855 44.0794 150.817C33.5434 154.099 25.0124 149.864 19.8224 138.775C18.9834 136.982 18.1634 134.648 18.0014 133.588C17.5984 130.971 17.0424 130.412 14.8394 130.412C10.1824 130.412 5.42842 127.691 3.07742 123.68C-0.511578 117.556 -1.04953 98.6791 1.92947 83.4121C4.00747 72.7611 8.37339 66.3991 16.5214 62.1501C18.6024 61.0651 20.6655 59.9131 21.1075 59.5901C21.5495 59.2671 22.9934 56.3381 24.3164 53.0821C26.7584 47.0731 31.1664 38.5711 33.9834 34.4361C41.4044 23.5471 51.4694 14.7901 61.8434 10.1981C77.6404 3.20508 100.131 -0.594924 121.75 0.0760757C157.297 1.18008 174.579 6.77508 190.508 22.3371C195.419 27.1361 202.504 35.4401 209.495 44.5911C217.06 54.4931 216.659 54.1471 221.759 55.1751C228.279 56.4891 237.253 58.8551 242.093 60.5371C245.756 61.8101 253.88 66.1301 256.94 68.4311C263.877 73.6511 268.649 82.4471 270.354 93.1621C270.573 94.5371 271.003 96.5621 271.309 97.6621C272.342 101.379 273.342 107.646 273.342 110.412C273.343 114.414 272.016 120.767 270.549 123.781C268.477 128.04 264.155 130.963 257.843 132.375C247.462 134.698 245 135.178 237.093 136.427C235.168 136.731 232.468 137.182 231.093 137.428C229.718 137.674 226.961 137.983 224.967 138.115C222.973 138.246 221.11 138.497 220.828 138.671C220.028 139.165 223.959 143.522 226.361 144.804C229.792 146.635 232.334 146.994 237.491 146.374C240.725 145.986 242.816 145.43 244.523 144.507C247.037 143.148 250.599 139.372 252.042 136.537C253.067 134.523 254.843 134.274 254.843 136.143C254.843 140.96 248.706 148.757 243.343 150.753C236.58 153.27 232.237 153.52 226.869 151.704C221.451 149.871 217.553 146.317 215.367 141.218L214.32 138.775L211.206 139.127C201.358 140.241 176.123 141.478 170.093 141.143C163.217 140.761 156.22 139.869 155.468 139.28C154.716 138.69 153.343 139.658 153.343 140.778C153.343 144.032 144.933 154.044 140.583 155.968C136.705 157.683 130.428 158.647 126.843 158.077ZM134.022 149.461C137.777 146.878 140.452 142.837 142.001 137.412C143.158 133.361 143.464 129.951 142.898 127.412C142.623 126.174 141.956 123.054 141.417 120.478C139.469 111.17 134.467 103.948 128.711 102.134C126.02 101.285 125.816 101.286 123.516 102.165C118.762 103.98 114.661 109.211 112.54 116.162C111.392 119.922 111.251 130.292 112.291 134.412C114.394 142.742 118.819 148.517 124.819 150.764C127.591 151.801 131.405 151.261 134.022 149.461ZM40.1994 143.829C43.6504 141.734 46.1574 137.389 47.7964 130.662L48.8935 126.162L47.6275 119.69C45.6185 109.412 42.4814 103.818 37.3914 101.434C35.1114 100.366 34.6575 100.309 32.8205 100.86C28.8065 102.063 25.6064 106.26 23.4424 113.162C22.3374 116.686 22.3384 128.167 23.4434 131.912C25.2454 138.019 27.3754 141.423 30.6684 143.458C34.0874 145.571 37.1344 145.69 40.1994 143.829ZM148.743 139.812C149.521 139.034 149.523 137.269 148.745 137.528C148.093 137.745 147.206 140.412 147.786 140.412C147.982 140.412 148.413 140.142 148.743 139.812ZM53.8554 134.884C54.3244 133.75 54.3425 133.211 53.9245 132.793C53.1845 132.053 52.8414 132.452 52.3524 134.622C51.8354 136.915 52.9344 137.106 53.8554 134.884ZM189.093 133.886C203.068 133.131 219.557 131.826 229.593 130.679C243.698 129.068 256.163 126.544 260.208 124.481C264.965 122.054 266.595 118.463 266.59 110.412C266.589 107.525 266.315 104.15 265.982 102.912C265.648 101.674 265.128 99.3681 264.824 97.7871C264.52 96.2061 264.119 94.9191 263.933 94.9281C263.746 94.9361 262.992 95.9341 262.258 97.1441C260.587 99.8991 257.769 101.789 253.616 102.941C250.723 103.743 250.059 103.765 247.123 103.15C239.605 101.578 236.062 96.3731 238.349 90.2621C239.845 86.2621 243.051 83.4931 247.975 81.9491C251.976 80.6941 253.854 80.7321 257.967 82.1491C259.115 82.5441 260.156 82.7651 260.281 82.6401C260.406 82.5151 259.159 80.6691 257.509 78.5381C251.366 70.6021 241.484 65.9211 222.941 62.1621C216.824 60.9211 216.633 60.9141 188.507 60.8911C172.952 60.8771 155.447 61.0221 149.609 61.2131C141.615 61.4741 138.902 61.4131 138.625 60.9641C138.003 59.9571 139.245 59.0561 141.726 58.7141C143.028 58.5351 145.668 58.1531 147.593 57.8671C149.518 57.5811 153.005 57.1571 155.343 56.9271C157.681 56.6961 162.63 56.1211 166.343 55.6491C173.93 54.6841 199.137 54.4651 205.843 55.3051C207.905 55.5631 209.69 55.6891 209.81 55.5851C210.044 55.3801 209.74 54.9801 204.843 49.0301C203.056 46.8591 199.802 42.8501 197.614 40.1221C192.341 33.5511 180.575 21.8651 176.693 19.3461C171.489 15.9681 165.835 13.5001 159.824 11.9811C154.596 10.6591 152.689 10.2361 145.843 8.87507C137.53 7.22207 107.052 6.49308 99.5934 7.76908C97.6684 8.09808 93.3934 8.74407 90.0934 9.20507C84.2944 10.0141 73.5064 12.5221 67.8434 14.3761C62.8714 16.0041 56.3975 19.5471 52.5545 22.7421C44.1895 29.6971 39.0384 36.8441 30.6314 53.1621C28.2234 57.8371 25.7664 62.1961 25.1734 62.8491C24.5794 63.5011 21.9324 65.4621 19.2914 67.2061C14.1234 70.6191 12.4874 72.3851 10.5254 76.6701C7.74742 82.7391 5.15447 102.723 6.27847 109.412C6.57847 111.199 7.04546 114.084 7.31546 115.823C8.11846 120.996 10.1274 123.357 14.4074 124.16L16.1874 124.494L16.5094 119.968C17.5964 104.651 25.1924 93.9111 34.9374 93.9121C39.9774 93.9131 46.2304 98.6991 49.6864 105.201C51.6204 108.84 54.8434 120.023 54.8434 123.095C54.8434 123.737 55.0894 124.968 55.3904 125.831C56.1174 127.918 57.5524 128.241 67.8434 128.64C76.7554 128.985 101.763 130.757 103.906 131.195L105.218 131.464L105.175 126.313C105.119 119.697 105.928 114.839 107.859 110.201C110.649 103.5 114.654 98.5381 118.843 96.5941C126.154 93.2011 131.736 94.1921 138.111 100.013C143.145 104.61 145.717 109.747 148.079 119.922C150.753 131.442 150.897 131.717 154.907 132.976C159.108 134.296 174.101 134.695 189.093 133.886ZM256.077 97.4191C257.98 96.6031 258.574 96.0161 259.411 94.1251C260.603 91.4311 260.387 90.0261 258.458 87.9041C254.876 83.9651 244.626 86.7611 242.843 92.1631C242.231 94.0161 242.559 95.0471 244.243 96.5711C246.479 98.5951 252.351 99.0161 256.077 97.4191ZM121.492 135.284C119.676 132.607 118.843 130.093 118.848 127.303C118.858 122.489 121.473 116.414 123.861 115.656C125.526 115.128 125.577 115.674 124.164 118.932C122.195 123.472 122.312 127.626 124.639 135.787C125.17 137.65 122.846 137.278 121.492 135.284ZM31.5554 132.053C28.9314 129.428 28.0075 122.543 29.6385 117.758C30.5845 114.98 33.0894 112.578 34.1344 113.446C34.6994 113.915 34.6284 114.361 33.7184 116.086C32.7814 117.862 32.6255 118.955 32.6335 123.662C32.6405 126.969 32.8825 129.596 33.2425 130.251C33.8415 131.342 33.5955 132.912 32.8255 132.912C32.5995 132.912 32.0284 132.525 31.5554 132.053ZM197.093 125.959C195.443 125.793 193.812 125.477 193.468 125.256C192.533 124.653 192.715 123.02 193.754 122.69C194.668 122.4 200.81 121.87 214.343 120.912C218.33 120.63 224.968 119.951 229.093 119.404C236.837 118.378 247.38 117.508 248.313 117.819C249.193 118.112 248.913 119.172 247.637 120.37C246.097 121.818 238.74 123.915 231.593 124.945C222.745 126.22 204.923 126.744 197.093 125.959ZM177.093 106.989C170.744 105.093 167.628 102.533 166.111 97.9651C165.331 95.6171 165.328 95.2211 166.069 92.6721C167.045 89.3131 169.079 86.8961 172.224 85.3571C174.292 84.3451 175.355 84.1961 180.593 84.1801C189.005 84.1551 192.798 85.3531 196.848 89.3161C200.102 92.5001 201.153 95.0981 200.574 98.5261C200.093 101.374 196.513 104.925 192.593 106.442C188.537 108.012 181.365 108.265 177.093 106.989ZM190.513 101.4C193.84 100.373 195.843 98.6891 195.843 96.9191C195.843 95.3001 193.564 92.6621 190.951 91.2541C187.415 89.3491 180.852 88.4991 176.61 89.3961C171.259 90.5291 169.047 94.0301 171.323 97.7631C173.804 101.832 183.292 103.631 190.513 101.4ZM215.566 99.8681C214.895 98.7831 216.333 98.3201 221.859 97.8451C225.747 97.5111 227.655 97.5241 228.018 97.8871C228.766 98.6351 227.995 99.1791 225.247 99.8441C222.251 100.569 216.009 100.585 215.566 99.8681ZM210.968 95.1181C210.09 94.7121 210.19 93.5781 211.134 93.2151C212.796 92.5781 221.274 91.8561 225.343 92.0061C229.177 92.1471 229.593 92.2581 229.593 93.1421C229.593 93.8521 229.112 94.2311 227.843 94.5201C225.651 95.0191 211.813 95.5101 210.968 95.1181ZM96.4944 66.9551C94.9664 66.7691 93.2475 66.1591 92.3205 65.4741C90.8305 64.3731 90.3544 64.3131 83.6684 64.3821C66.9614 64.5551 44.2564 63.3441 42.3714 62.1791C39.5394 60.4291 49.4344 59.3501 71.8374 58.9661L89.5824 58.6621L89.9104 56.3631C90.7534 50.4581 95.3465 46.7901 102.763 46.1011C105.945 45.8051 106.474 45.8941 108.451 47.0521C110.755 48.4021 112.207 50.4181 111.593 51.4121C111.24 51.9831 110.484 51.9341 107.16 51.1231C106.372 50.9311 104.173 51.0671 102.273 51.4251C97.6375 52.3001 95.3454 54.1931 95.0244 57.4131C94.6504 61.1631 94.4364 61.0911 106.561 61.3261C118.911 61.5651 118.053 61.9911 116.146 56.5671C115.488 54.6941 114.464 51.6171 113.871 49.7291C112.271 44.6361 104.715 30.0381 102.083 26.9541C99.8894 24.3841 99.7325 24.2981 96.9565 24.1561C95.3815 24.0751 92.1025 23.8451 89.6695 23.6451C86.0275 23.3461 84.3025 23.4781 79.9195 24.3941C67.6395 26.9591 61.5685 29.7121 56.6225 34.9541C52.1095 39.7391 48.8864 44.5031 45.5584 51.3131C41.4224 59.7731 39.4405 62.0811 38.5965 59.4201C37.8765 57.1531 41.2704 47.8541 44.8944 42.1621C54.5404 27.0121 60.5874 22.7801 75.5934 20.6731C85.5084 19.2821 96.5494 20.0821 99.0934 22.3781C99.6434 22.8751 100.681 23.4191 101.4 23.5891C103.03 23.9731 107.471 28.9951 110.308 33.6621C113.491 38.8991 120.651 53.7491 121.611 57.1031C123.211 62.6961 121.586 65.8991 117.131 65.9301C115.735 65.9401 113.243 66.2741 111.593 66.6721C108.557 67.4051 101.312 67.5411 96.4944 66.9551ZM133.006 59.4991C132.229 58.7211 128.861 52.5901 125.521 45.8741C117.83 30.4031 115.843 25.9161 115.843 24.0121C115.843 22.1781 117.683 19.8351 119.962 18.7671C125.453 16.1951 152.982 15.9291 165.343 18.3301C168.903 19.0211 174.055 20.4531 174.489 20.8721C175.697 22.0381 172.72 22.1961 157.343 21.7821C146.82 21.4991 140.212 21.5191 138.593 21.8401C137.218 22.1121 134.518 22.3661 132.593 22.4031C127.661 22.5001 122.323 23.2311 121.657 23.9021C121.238 24.3241 121.449 25.0721 122.479 26.8161C125.715 32.2921 137.255 56.0981 137.44 57.6761C137.55 58.6231 137.45 59.7391 137.217 60.1551C136.547 61.3521 134.548 61.0401 133.006 59.4991ZM68.8434 56.2141C68.8434 49.9511 73.8024 29.2531 75.7764 27.2791C76.6944 26.3611 77.3815 27.4441 77.0755 29.3261C76.4025 33.4671 74.6674 40.7841 72.3134 49.4121C72.0504 50.3751 71.5514 52.5101 71.2044 54.1571C70.7564 56.2791 70.3204 57.2011 69.7084 57.3191C69.0714 57.4411 68.8434 57.1501 68.8434 56.2141ZM143.22 47.6221C142.728 47.1301 144.269 43.4721 148.261 35.6621C151.257 29.7991 152.31 28.1621 153.086 28.1621C155.13 28.1621 154.655 29.7911 149.681 39.8301C147.752 43.7221 144.749 47.9121 143.887 47.9121C143.68 47.9121 143.379 47.7821 143.22 47.6221Z" fill="white"/>
</svg>
