<svg width="354" height="260" viewBox="0 0 354 260" fill="none" xmlns="http://www.w3.org/2000/svg">
<path fill-rule="evenodd" clip-rule="evenodd" d="M61.952 258.971C54.336 257.931 47.948 252.818 47.955 247.768C47.962 242.789 50.051 239.077 54.612 235.937C60.117 232.148 61.507 230.43 59.577 229.798C57.092 228.985 50.835 224.754 45.589 220.341C41.361 216.783 33.053 206.971 29.109 200.876C22.342 190.42 16.943 177.252 13.566 162.968C11.952 156.145 11.511 153.111 11.148 146.343C10.96 142.837 10.652 139.968 10.465 139.968C10.277 139.968 9.06496 139.267 7.77196 138.411C5.02096 136.588 2.50196 133.164 2.10296 130.704C1.94596 129.739 1.52696 128.968 1.15896 128.968C0.273958 128.968 -0.245041 125.954 0.115959 122.908C0.483959 119.802 3.02196 114.978 5.10896 113.418C5.98496 112.763 8.14496 111.352 9.90896 110.282C13.033 108.386 13.205 108.344 16.626 108.631C19.317 108.857 20.845 108.703 23.169 107.973C27.957 106.471 31.513 106.037 41.952 105.682C48.001 105.476 52.271 105.109 53.202 104.713C56.614 103.265 59.477 102.854 64.306 103.119C66.999 103.267 69.621 103.463 70.133 103.553C71.174 103.738 71.186 103.719 73.621 98.3754C75.694 93.8254 78.414 90.7134 82.661 88.0314C86.941 85.3284 89.966 84.3664 95.071 84.0864C103.165 83.6424 110.504 86.4944 116.376 92.3654L118.561 94.5514L119.881 93.3404C124.934 88.7064 132.531 86.8364 138.724 88.7004C140.061 89.1024 141.229 89.3584 141.318 89.2694C141.407 89.1794 142.346 87.3314 143.403 85.1624C146.849 78.0944 152.959 71.9794 159.471 69.0794C164.534 66.8264 165.109 66.7184 171.952 66.7374C178.269 66.7554 178.943 66.8534 182.457 68.2624C188.758 70.7884 194.409 75.1544 197.937 80.2204C199.937 83.0934 201.452 85.8874 201.452 86.7044C201.452 88.0564 202.555 88.0714 204.978 86.7524C209.099 84.5094 212.249 83.7794 217.702 83.8004C221.899 83.8174 223.262 84.0364 226.189 85.1644C230.786 86.9354 233.77 88.9004 236.921 92.2324C239.518 94.9784 241.769 99.0514 241.198 99.9744C240.396 101.272 238.168 100.406 235.466 97.7474C227.599 90.0034 217.403 87.6704 208.744 91.6354C207.249 92.3194 205.029 93.7994 203.809 94.9234C201.302 97.2334 199.717 97.5054 198.011 95.9164C197.075 95.0444 196.937 94.5384 197.203 92.9614C198.227 86.8994 187.738 76.1714 178.202 73.5284C174.491 72.4994 166.185 72.8474 161.478 74.2284C159.154 74.9104 157.146 75.4684 157.016 75.4684C156.885 75.4684 157.305 74.9064 157.95 74.2204C159.252 72.8344 158.981 71.9324 157.589 73.0174C153.476 76.2254 151.99 77.6834 152.508 78.0034C152.899 78.2444 152.127 79.8014 150.134 82.7894C146.532 88.1914 145.527 90.8884 146.402 92.8084C146.923 93.9524 146.873 94.3364 146.058 95.4334C144.719 97.2354 142.796 97.3064 139.564 95.6704C138.007 94.8834 135.705 94.1974 134.197 94.0724C129.132 93.6524 122.965 96.7824 122.004 100.26C121.337 102.677 120.1 103.968 118.452 103.968C116.749 103.968 115.452 102.557 115.452 100.703C115.452 99.6094 114.752 98.5874 112.511 96.4074C104.808 88.9164 93.1 87.8344 84.134 93.7854C79.191 97.0664 75.525 103.459 76.221 107.583C76.584 109.732 75.994 110.787 74.005 111.543C73.015 111.919 72.124 111.698 69.574 110.442C66.607 108.982 66.077 108.883 62.042 109.045C56.294 109.274 52.784 110.909 49.934 114.684C47.137 118.389 47.253 118.721 51.577 119.372C57.742 120.299 70.382 121.757 76.202 122.212C78.127 122.363 81.952 122.713 84.702 122.99C103.083 124.843 165.657 127.264 168.865 126.246C169.554 126.027 169.952 125.491 169.952 124.782C169.952 124.167 170.683 122.962 171.577 122.103C174.453 119.341 179.073 118.207 189.452 117.715C207.52 116.859 217.991 116.458 230.203 116.153C249.425 115.674 253.704 116.433 257.626 121.015L259.408 123.097L266.055 122.519C269.711 122.201 273.714 121.836 274.952 121.709C276.19 121.581 279.452 121.242 282.202 120.955C284.952 120.669 289.227 120.231 291.702 119.983C294.177 119.735 299.464 119.197 303.452 118.788C307.44 118.378 313.514 117.896 316.952 117.715C323.477 117.373 325.452 116.752 325.452 115.044C325.452 114.548 324.907 113.631 324.242 113.005C323.259 112.082 322.464 111.868 320.024 111.868C316.007 111.868 315.598 111.349 315.371 105.968C315.149 100.694 313.305 96.4004 309.726 92.8214C305.615 88.7104 301.224 86.9864 294.838 86.9754C290.138 86.9674 286.249 88.0804 281.741 90.7224C277.334 93.3044 272.952 99.8834 272.952 103.917C272.952 105.459 272.661 106.124 271.635 106.932C269.912 108.286 269.009 108.239 266.924 106.683C263.21 103.912 258.284 102.742 253.952 103.6C250.817 104.222 246.933 106.409 245.744 108.224C245.301 108.9 244.396 109.809 243.733 110.244C242.641 110.959 242.387 110.96 241.026 110.256C240.199 109.829 239.387 109.052 239.222 108.531C238.597 106.562 240.63 100.968 241.97 100.968C242.243 100.968 242.883 101.229 243.394 101.548C244.143 102.015 244.602 101.935 245.762 101.133C246.554 100.586 248.552 99.5964 250.202 98.9334C255.097 96.9654 263.561 97.4034 267.188 99.8134C267.731 100.173 268.346 100.468 268.556 100.468C268.766 100.468 269.594 99.1744 270.396 97.5934C271.866 94.6944 273.136 93.2304 278.994 87.6774C282.893 83.9814 283.922 83.3304 287.963 82.0044C292.245 80.5984 299.579 80.5714 303.769 81.9474C313.474 85.1334 320.556 93.4074 321.373 102.515L321.702 106.183L323.452 106.522C324.414 106.709 326.664 107.126 328.452 107.449C333.875 108.429 336.793 109.446 338.188 110.84C339.315 111.967 339.662 112.077 340.477 111.568C343.644 109.591 348.732 112.378 351.323 117.508C352.215 119.273 352.946 121.323 352.948 122.063C352.95 122.804 353.177 123.548 353.452 123.718C354.279 124.229 354.018 127.755 352.94 130.635C351.693 133.968 349.336 136.462 345.796 138.194L343.095 139.515L342.787 145.617C342.163 157.931 338.694 171.481 333.189 183.109C331.578 186.511 330.998 187.036 328.537 187.32C325.55 187.665 325.226 186.809 326.785 182.682C330.132 173.816 338.083 142.932 337.236 142.086C337.095 141.944 335.679 142.191 334.091 142.635C328.717 144.135 321.094 145.429 318.14 145.343C316.145 145.284 314.298 145.606 312.387 146.346C309.566 147.437 305.242 148.399 298.702 149.39C295.446 149.883 293.182 150.173 282.702 151.436C280.502 151.702 275.552 152.059 271.702 152.231C267.852 152.403 264.341 152.644 263.9 152.766C263.209 152.958 263.058 154.451 262.803 163.603C262.454 176.128 261.358 187.934 259.611 197.968C258.917 201.956 258.236 206.069 258.097 207.109C257.943 208.255 257.307 209.536 256.481 210.362C253.906 212.937 245.21 215.113 232.202 216.437C229.452 216.717 224.727 217.208 221.702 217.528C213.794 218.365 189.474 218.353 182.702 217.51C175.888 216.661 174.688 216.089 173.368 213.065C172.444 210.947 172.372 210.059 172.637 203.968C173.708 179.291 174.058 169.923 174.125 164.069L174.202 157.419L160.452 157.287C151.503 157.2 146.092 156.947 144.955 156.561C143.731 156.145 137.621 155.968 124.529 155.968C114.255 155.968 102.553 155.743 98.525 155.468C69.646 153.494 53.193 151.657 39.751 148.907C28.087 146.52 23.731 145.448 18.986 143.794C17.767 143.369 16.609 143.121 16.414 143.241C15.499 143.807 20.382 161.657 24.713 173.575C26.988 179.835 33.797 194.854 36.225 198.968C36.631 199.656 38.479 202.895 40.333 206.167C43.634 211.995 46.181 215.405 46.784 214.802C46.951 214.636 46.705 213.916 46.238 213.203C44.502 210.553 45.838 211.091 50.702 214.999C53.452 217.209 57.643 220.349 60.015 221.977C62.398 223.613 64.449 225.401 64.598 225.973C64.816 226.808 65.123 226.944 66.182 226.678C66.954 226.485 68.362 226.676 69.599 227.142C70.756 227.578 72.939 228.265 74.452 228.669C75.965 229.073 78.439 229.734 79.952 230.139C89.901 232.804 111.688 236.152 127.452 237.437C146.223 238.968 153.252 239.204 180.202 239.211C207.314 239.217 216.342 238.905 231.202 237.446C255.554 235.055 262.322 234.258 267.327 233.19C269 232.833 269.499 233.409 268.327 234.344C267.075 235.342 259.083 239.369 254.452 241.335C249.659 243.37 244.844 244.493 236.827 245.447C234.421 245.734 230.596 246.188 228.327 246.456C213.141 248.252 168.401 248.888 149.452 247.576C124.809 245.871 109.935 244.135 92.577 240.939C85.781 239.687 86.099 239.66 85.689 241.527C85.487 242.449 85.04 243.657 84.697 244.211C84.354 244.765 83.944 245.926 83.786 246.791C83.347 249.186 79.64 254.569 77.549 255.846C73.078 258.577 67.398 259.715 61.952 258.971ZM70.188 250.862C74.182 249.604 76.71 247.416 80.31 242.099C82.694 238.579 82.905 238.995 77.702 236.95C76.052 236.301 73.508 235.013 72.049 234.086C69.994 232.781 69.071 232.472 67.96 232.716C67.082 232.909 65.961 232.74 65.073 232.281L63.621 231.53L62.52 233.796C61.914 235.043 60.34 237.223 59.02 238.64C55.63 242.284 54.952 243.436 54.952 245.551C54.952 248.072 56.556 249.814 59.957 250.988C63.564 252.233 65.925 252.204 70.188 250.862ZM209.702 210.205C227.686 209.689 236.899 208.727 249.452 206.053L251.202 205.68L252.048 199.681C253.154 191.832 255.361 163.689 255.78 152.081C256.145 141.992 255.57 135.249 253.815 129.042C252.988 126.117 252.896 125.172 253.364 124.423C254.169 123.135 254.153 123.098 252.437 122.21C251.05 121.493 249.755 121.52 237.062 122.531C226.807 123.348 217.089 123.713 199.702 123.936C186.777 124.101 175.808 124.425 175.327 124.656C174.245 125.174 174.2 125.903 175.225 126.296C175.65 126.459 176.55 127.682 177.225 129.014C178.179 130.895 178.459 132.247 178.485 135.076C178.503 137.079 178.842 140.743 179.239 143.218C179.635 145.693 180.327 153.456 180.778 160.468C181.483 171.459 181.514 175.15 180.999 187.218C180.671 194.918 180.172 202.99 179.89 205.156C179.609 207.322 179.564 209.278 179.79 209.501C180.597 210.298 187.802 210.904 193.952 210.693C197.39 210.575 204.477 210.355 209.702 210.205ZM174.149 152.589C174.634 152.297 174.211 136.951 173.666 135.093L173.335 133.968L157.769 133.967C143.097 133.965 121.459 133.1 107.452 131.954C104.014 131.673 98.433 131.228 95.048 130.965C87.721 130.395 71.723 128.584 63.952 127.444C50.756 125.509 35.424 122.573 29.724 120.891C24.438 119.331 20.952 117.656 20.952 116.676C20.952 115.936 21.347 115.87 24.077 116.151C28.689 116.627 38.485 117.529 40.145 117.63C41.391 117.706 41.676 117.464 42.243 115.845C42.603 114.814 43.504 113.177 44.245 112.206C44.986 111.235 45.495 110.345 45.378 110.227C45.115 109.965 32.908 111.23 28.452 111.981C26.665 112.283 23.402 112.717 21.202 112.945C15.312 113.557 13.474 114.195 9.19496 117.114C4.45896 120.344 2.55896 122.813 2.19296 126.218C1.92696 128.687 1.93296 128.7 2.64596 127.218C3.04296 126.393 3.63896 124.987 3.97096 124.093C4.68496 122.167 5.45196 121.966 5.45196 123.704C5.45196 124.383 5.99296 126.163 6.65496 127.659C8.41096 131.63 12.158 134.418 18.389 136.391C25.494 138.64 29.619 139.758 35.202 140.945C37.952 141.53 41.102 142.21 42.202 142.455C43.302 142.7 45.665 143.151 47.452 143.456C49.239 143.762 51.827 144.21 53.202 144.453C60.191 145.688 72.138 147.365 88.827 149.453C94.356 150.145 101.658 150.856 109.452 151.461C113.165 151.75 118.902 152.213 122.202 152.49C125.502 152.767 129.552 153.071 131.202 153.166C135.571 153.417 173.622 152.906 174.149 152.589ZM279.452 146.439C287.289 145.31 295.052 144.194 296.702 143.959C298.352 143.723 303.752 142.828 308.702 141.97C313.652 141.112 318.827 140.223 320.202 139.995C321.577 139.766 324.277 139.135 326.202 138.591C328.127 138.048 331.277 137.215 333.202 136.741C335.127 136.268 337.393 135.675 338.237 135.424C339.082 135.173 340.37 134.968 341.101 134.968C342.167 134.968 342.961 134.254 345.132 131.343C349.58 125.381 349.707 124.991 348.448 121.205C347.469 118.265 347.122 117.82 344.143 115.694L340.902 113.382L339.724 114.56C338.059 116.225 329.595 119.054 325.795 119.216C324.094 119.289 322.087 119.593 321.336 119.892C314.307 122.693 286.349 127.351 265.026 129.276L261.35 129.607L261.671 132.663C261.847 134.343 262.178 138.448 262.406 141.785C262.853 148.319 263.087 149.148 264.369 148.75C264.827 148.608 271.615 147.568 279.452 146.439ZM283.452 258.035C279.553 256.759 277.923 255.822 275.651 253.55C273.005 250.903 271.086 247.267 270.29 243.39L269.639 240.218L265.798 240.376C262.777 240.501 262.014 240.394 262.219 239.876C262.73 238.59 276.192 231.336 283.192 228.575C285.632 227.613 290.33 225.094 296.786 221.287C298.482 220.286 300.152 219.468 300.496 219.468C301.201 219.468 308.907 211.403 312.516 206.889C313.818 205.259 316.08 202.034 317.543 199.721C319.005 197.409 321.104 194.099 322.206 192.367C323.539 190.273 324.586 189.164 325.331 189.058C326.283 188.923 326.452 189.129 326.452 190.428C326.452 191.269 326.002 193.141 325.452 194.588C324.293 197.638 324.326 197.468 324.89 197.468C325.131 197.468 326.151 195.901 327.157 193.987C329.106 190.279 329.755 189.571 330.514 190.33C331.145 190.961 326.931 199.325 322.888 205.468C319.152 211.144 310.836 219.698 305.452 223.402C303.39 224.821 300.3 226.935 298.587 228.1C296.874 229.265 295.468 230.354 295.462 230.519C295.457 230.685 296.858 231.902 298.577 233.225C305.382 238.46 307.452 241.149 307.452 244.751C307.452 246.511 306.043 247.968 304.341 247.968C303.852 247.968 303.452 248.193 303.452 248.468C303.452 248.743 304.226 248.968 305.172 248.968C307.514 248.968 307.768 249.66 306.4 252.318C305.064 254.917 302.466 257.134 301.287 256.682C300.85 256.514 299.077 256.879 297.347 257.493C293.083 259.007 287.131 259.239 283.452 258.035ZM295.172 251.208C296.53 250.796 298.157 250.121 298.786 249.709C300.32 248.704 301.599 246.124 301.252 244.738C301.097 244.121 299.368 241.614 297.41 239.167C295.452 236.72 293.53 234.099 293.138 233.343C292.747 232.587 292.33 231.968 292.212 231.968C292.093 231.968 289.998 232.848 287.554 233.923C283.778 235.585 281.468 236.376 274.827 238.284C274.346 238.422 273.952 238.767 273.952 239.05C273.952 240.096 279.375 247.844 280.765 248.783C285.27 251.828 290.324 252.679 295.172 251.208ZM49.952 78.3784C46.228 77.5444 42.36 73.7314 43.15 71.6734C43.541 70.6554 44.34 70.7974 47.647 72.4744C51.138 74.2444 53.599 74.3744 56.633 72.9484C59.269 71.7094 60.877 70.0364 62.674 66.6624L64.036 64.1064L62.485 61.0344C60.729 57.5554 57.984 55.2284 55.058 54.7404C54.037 54.5694 51.629 54.6544 49.706 54.9284C46.646 55.3654 46.042 55.6324 44.866 57.0724C42.792 59.6114 41.88 63.4444 42.553 66.7964C43.056 69.2964 43.015 69.6274 42.092 70.5504L41.079 71.5634L40.091 70.5024C36.96 67.1414 37.435 60.4854 41.065 56.8554C42.103 55.8174 42.952 54.7634 42.952 54.5124C42.952 53.8044 45.882 51.5114 47.823 50.6994C50.335 49.6504 55.395 49.7654 58.12 50.9334C63.113 53.0734 66.759 57.8954 66.322 61.7774C66.142 63.3714 66.271 63.9834 66.829 64.1984C67.408 64.4204 67.502 64.9634 67.244 66.6014C66.506 71.2814 63.477 75.1594 59.021 77.1274C55.536 78.6664 52.876 79.0334 49.952 78.3784ZM249.114 54.2484C246.349 53.3844 243.742 51.7364 242.754 50.2274C241.696 48.6134 241.673 45.4684 242.718 45.4684C243.139 45.4684 243.604 45.7814 243.751 46.1654C244.153 47.2124 249.7 49.5274 251.882 49.5574C254.479 49.5934 257.909 47.9894 260.661 45.4524L262.944 43.3484L263.932 44.5334C264.474 45.1854 264.926 45.8984 264.935 46.1184C264.978 47.1544 263.267 49.5414 261.057 51.5284C257.498 54.7274 253.533 55.6304 249.114 54.2484ZM239.063 42.6904C237.737 41.7614 237.615 39.7484 238.671 36.2384C239.8 32.4864 242.663 30.0234 244.923 30.8604C245.865 31.2084 245.85 31.3044 244.524 33.2774C243.765 34.4074 242.855 36.6564 242.5 38.2754C241.727 41.8124 241.112 43.4684 240.574 43.4684C240.354 43.4684 239.674 43.1184 239.063 42.6904ZM262.676 39.7344C262.278 38.7804 261.952 37.7384 261.952 37.4184C261.952 36.2154 259.764 33.3624 257.975 32.2334C255.003 30.3564 252.609 29.8764 249.576 30.5474C247.576 30.9894 246.644 30.9884 245.665 30.5424C242.302 29.0104 247.032 26.0054 252.844 25.9824C257.039 25.9664 260.118 27.2274 262.773 30.0484C267.009 34.5504 268.17 41.4684 264.689 41.4684C263.692 41.4684 263.237 41.0764 262.676 39.7344ZM104.452 32.3974C100.098 31.2004 96.723 28.4504 96.161 25.6404C95.708 23.3734 96.537 23.2564 99.399 25.1834C102.814 27.4804 106.364 28.1904 109.814 27.2654C114.497 26.0104 117.047 23.7204 118.919 19.0874C120.54 15.0774 118.472 9.86143 114.02 6.73243C112.111 5.38943 111.404 5.20343 107.784 5.08143C104.339 4.96643 103.364 5.12243 101.539 6.08143C98.381 7.74143 95.452 13.5334 95.452 18.1184C95.452 20.2384 94.685 22.4684 93.957 22.4684C92.75 22.4684 91.456 19.2184 91.454 16.1824C91.45 9.67743 94.751 4.80543 101.294 1.65843C104.674 0.032431 105.351 -0.120567 108.367 0.0584326C114.485 0.422433 120.291 4.23443 122.587 9.39343C123.823 12.1724 124.304 18.3234 123.513 21.2484C121.432 28.9474 111.992 34.4694 104.452 32.3974Z" fill="white"/>
</svg>
