<svg width="161" height="165" viewBox="0 0 161 165" fill="none" xmlns="http://www.w3.org/2000/svg">
<path fill-rule="evenodd" clip-rule="evenodd" d="M72.1808 163.798C71.2168 162.327 71.1478 160.906 71.6828 153.607C72.0968 147.972 72.0938 147.954 70.9468 147.654C68.9358 147.128 61.3778 143.044 57.9798 140.647C54.4248 138.139 46.7718 131.663 41.3238 126.552C37.6848 123.138 37.0648 121.421 39.3538 121.097C40.6668 120.911 42.0828 121.898 49.0008 127.823C60.6998 137.844 68.6278 142.568 78.4518 145.372C82.4228 146.505 94.9898 146.434 99.7018 145.252C101.627 144.769 105.677 144.21 108.702 144.01C116.087 143.522 119.146 142.456 121.629 139.505C123.551 137.222 124.247 134.468 123.519 132.037C122.627 129.06 120.962 128.01 117.135 128.01C115.384 128.01 113.952 127.827 113.952 127.604C113.952 127.38 114.619 126.558 115.434 125.777C116.249 124.996 116.785 124.144 116.624 123.883C116.227 123.241 111.346 123.89 109.445 124.838C108.609 125.255 107.313 126.364 106.564 127.303C104.889 129.403 103.579 129.538 103.36 127.635C103.204 126.275 103.154 126.257 98.7018 125.958C92.8108 125.562 88.2238 124.366 82.6988 121.783C79.1108 120.106 77.3168 118.846 73.8678 115.581C71.4868 113.328 68.8228 110.367 67.9468 109.002C66.0388 106.029 65.6088 105.865 47.7018 101.261C26.0938 95.7052 20.8768 93.8862 19.1978 91.3242C18.7748 90.6792 18.5778 89.7632 18.7598 89.2882C19.1958 88.1522 20.9588 88.4862 26.6668 90.7882C30.2678 92.2402 41.9258 95.4142 55.2018 98.5562C58.9038 99.4322 68.7978 102.722 71.9688 104.131C75.5148 105.705 77.2978 107.807 77.7028 110.887C77.8748 112.192 78.0578 113.567 78.1088 113.942C78.2658 115.09 84.4718 118.485 88.7018 119.736C97.4098 122.313 104.532 122.785 109.155 121.092C114.718 119.054 119.952 120.118 119.952 123.287C119.952 124.186 120.3 124.575 121.327 124.823C123.342 125.311 125.228 126.78 126.52 128.87C127.967 131.212 128.094 136.388 126.765 138.915C123.644 144.853 116.868 148.397 109.597 147.895C107.585 147.756 105.489 147.909 104.452 148.271C96.9858 150.878 84.8038 151.69 78.7798 149.982C76.0148 149.198 76.2468 148.485 76.0458 158.385C75.9668 162.266 75.7908 163.171 74.9518 164.01C73.6518 165.31 73.1458 165.271 72.1808 163.798ZM155.331 162.635C154.833 161.577 154.754 158.781 154.988 150.51C155.896 118.343 152.559 95.0992 145.893 87.1542C144.557 85.5622 142.956 83.5342 142.333 82.6462C141.521 81.4882 140.144 80.6062 137.452 79.5192C135.39 78.6862 133.379 78.0062 132.985 78.0072C132.591 78.0092 130.904 78.5162 129.235 79.1352C126.543 80.1342 125.275 80.2602 117.952 80.2602C110.724 80.2602 109.287 80.1212 106.347 79.1352C104.502 78.5162 102.547 78.0102 102.002 78.0102C101.457 78.0102 100.888 77.8112 100.738 77.5682C100.587 77.3242 99.8428 77.0142 99.0828 76.8772C98.3238 76.7412 95.9018 76.2862 93.7018 75.8672C91.5018 75.4482 87.5648 74.8502 84.9518 74.5372C82.3388 74.2242 78.6268 73.7642 76.7018 73.5142C74.7768 73.2642 70.8388 72.7992 67.9518 72.4822C55.6388 71.1302 50.4208 69.7812 50.0438 67.8542C49.7858 66.5352 52.0928 66.3232 58.1178 67.1142C63.6618 67.8422 64.5378 67.7852 69.2018 66.3922C73.9548 64.9732 78.3128 61.5042 81.5388 56.5712L83.9518 52.8822V48.1062C83.9518 43.1292 84.3478 41.2742 86.2108 37.5102C87.7378 34.4252 88.0728 32.7152 87.5158 30.8482C84.5958 21.0572 84.3858 20.5602 81.6218 16.9342C78.9308 13.4032 74.3178 9.31516 71.2338 7.72816C68.8458 6.49916 64.4348 5.18216 60.4668 4.51316C56.3668 3.82116 52.5098 4.25616 46.5298 6.08416C37.8028 8.75216 29.7148 17.1542 26.1368 27.2702C25.0068 30.4672 24.8698 40.5812 25.9068 44.2602C27.6718 50.5192 31.7368 56.6372 37.0688 61.0582C38.7918 62.4862 40.2698 63.9342 40.3528 64.2752C40.6088 65.3312 37.8988 65.9382 36.2018 65.2042C31.0168 62.9612 20.7118 66.7402 17.0868 72.2132C15.4358 74.7062 14.6828 78.1262 15.2268 80.6602C15.4158 81.5402 16.2748 83.5632 17.1358 85.1562C18.6668 87.9872 18.6798 88.0692 17.7308 88.7812C17.1978 89.1822 16.5658 89.5102 16.3278 89.5102C15.6698 89.5102 13.0038 86.4372 12.3168 84.8852C11.9818 84.1292 11.4558 83.5102 11.1478 83.5102C10.8398 83.5102 9.95882 84.9132 9.18882 86.6282C7.61482 90.1372 7.35682 93.7752 8.41782 97.5102C9.51382 101.369 16.4068 107.515 23.9838 111.389C25.7338 112.284 28.9518 114.977 28.9518 115.546C28.9518 117.579 18.2558 113.518 13.6348 109.732C12.4788 108.785 11.3278 108.01 11.0768 108.01C9.86382 108.01 5.57682 135.744 4.52082 150.415C4.17082 155.286 3.96082 156.221 3.00282 157.165L1.89082 158.26L0.864824 157.01C-0.0351762 155.915 -0.127176 155.296 0.114824 152.01C1.63082 131.433 3.89082 116.149 6.78482 106.898C7.49882 104.616 7.48282 104.482 6.31782 102.898C4.96382 101.059 4.30682 99.4322 3.41082 95.7002C2.24082 90.8292 4.56782 83.4822 8.66782 79.0982C9.92382 77.7552 10.9518 76.1802 10.9518 75.5972C10.9518 73.9042 13.1728 69.4392 15.1368 67.1842C17.7098 64.2312 24.5638 61.0102 28.2768 61.0102C29.1978 61.0102 29.9518 60.8102 29.9518 60.5652C29.9518 60.3212 29.1778 59.2522 28.2328 58.1902C21.5048 50.6362 18.9068 39.1752 21.4498 28.2692C23.0998 21.1932 26.4048 15.5052 32.2118 9.74916C41.4368 0.605159 55.1078 -2.33484 68.7018 1.90116C77.8478 4.75216 86.9698 13.9172 90.0018 23.3002L91.0548 26.5612L94.1448 23.5282C100.262 17.5242 104.995 15.1342 113.553 13.7282C120.43 12.5992 127.822 13.9532 134.09 17.4902C137.656 19.5032 144.048 26.2372 145.924 29.9582C147.782 33.6422 149.328 38.9562 149.746 43.1002C150.148 47.0852 148.948 54.5972 147.125 59.5102C145.588 63.6512 140.996 71.2862 138.711 73.5012C136.644 75.5052 136.574 75.8072 138.087 76.1872C138.712 76.3432 139.98 77.2112 140.904 78.1162C142.386 79.5642 142.92 79.7652 145.394 79.8002C151.972 79.8942 158.748 86.0312 160.461 93.4472C161.408 97.5492 160.882 104.717 159.388 108.054C158.32 110.439 158.219 111.175 158.534 114.26C159.341 122.162 160.076 139.752 159.761 143.618C159.084 151.942 157.898 161.788 157.442 162.885C156.817 164.387 156.116 164.304 155.331 162.635ZM157.452 99.3512C157.452 95.4062 156.4 91.7782 154.491 89.1432C152.886 86.9272 149.753 84.3142 149.03 84.5882C148.78 84.6832 149.785 86.8972 151.262 89.5102C153.477 93.4282 155.023 97.2602 156.254 101.885C156.346 102.229 156.653 102.51 156.936 102.51C157.236 102.51 157.452 101.188 157.452 99.3512ZM124.452 75.4962C128.862 74.8082 134.429 72.0282 136.714 69.3712C140.812 64.6062 143.699 57.7122 144.979 49.6352C146.619 39.2812 141.918 28.2412 133.359 22.3462C129.025 19.3612 124.316 18.0092 118.279 18.0162C112.503 18.0232 109.306 18.7342 104.74 21.0292C98.4838 24.1722 93.5518 29.2942 90.0738 36.2602C87.8938 40.6262 87.2938 48.9082 88.7208 54.9582C89.7188 59.1942 92.5628 64.5032 95.6298 67.8602C98.1558 70.6232 102.608 73.2472 106.702 74.3832C107.802 74.6892 109.489 75.1572 110.452 75.4232C112.818 76.0782 120.462 76.1182 124.452 75.4962ZM90.2488 68.7882C88.7168 66.7802 86.5198 62.6582 85.7718 60.3852C85.3328 59.0542 84.7878 59.3102 83.0088 61.6852C81.3188 63.9392 78.0408 66.8982 76.0628 67.9532C74.2268 68.9322 75.1618 69.3802 79.8238 69.7572C82.2318 69.9522 85.1018 70.2882 86.2018 70.5032C87.3018 70.7192 89.0438 70.9212 90.0738 70.9532L91.9448 71.0102L90.2488 68.7882Z" fill="white"/>
</svg>
