<svg width="339" height="313" viewBox="0 0 339 313" fill="none" xmlns="http://www.w3.org/2000/svg">
<path fill-rule="evenodd" clip-rule="evenodd" d="M200.239 312.056C199.551 311.774 197.691 311.355 196.104 311.124C191.836 310.503 189.691 309.27 188.331 306.655C187.321 304.713 187.199 303.886 187.374 300.155C187.484 297.805 187.742 295.405 187.947 294.824C188.272 293.904 187.878 293.523 184.904 291.878C183.026 290.839 180.702 289.778 179.739 289.521C176.059 288.537 167.843 286.757 164.489 286.216C162.564 285.906 158.964 285.289 156.489 284.846C154.014 284.402 151.651 284.033 151.239 284.026C150.827 284.019 148.801 283.717 146.739 283.356C144.677 282.994 140.514 282.446 137.489 282.136C130.467 281.418 118.51 279.726 116.239 279.13C115.276 278.877 113.251 278.558 111.739 278.421C107.677 278.053 104.011 277.303 100.74 276.171C98.5153 275.401 95.9203 275.09 89.6623 274.844C85.1673 274.668 81.2753 274.394 81.0143 274.236C80.7533 274.078 77.9403 273.553 74.7643 273.07C71.5883 272.586 67.7523 271.945 66.2393 271.644C64.7263 271.343 62.0263 270.895 60.2393 270.647C58.4523 270.4 55.9763 269.933 54.7393 269.61C53.5023 269.287 51.1833 268.914 49.5873 268.781L46.6853 268.539L46.7223 272.46C46.7683 277.2 46.3333 280.65 45.5613 281.675C44.9463 282.492 41.3053 285.001 39.1993 286.06C37.3793 286.976 26.9893 286.275 21.4893 284.866C17.5793 283.864 16.1273 281.383 16.0483 275.564C15.9993 271.942 16.1463 271.065 16.9533 270.172C17.9053 269.119 17.9043 269.09 16.9043 267.744C16.0193 266.551 15.2633 266.275 10.8473 265.532C5.39126 264.614 2.64526 263.302 0.956261 260.807C0.165261 259.639 -0.00773934 258.509 0.000260656 254.561C0.00626066 251.911 0.259261 249.211 0.561261 248.561C1.64126 246.248 4.76526 235.479 5.76426 230.631C6.07526 229.119 6.53526 227.094 6.78626 226.131C7.03726 225.168 7.82726 221.006 8.54226 216.881C10.6723 204.592 12.3783 196.985 13.7023 193.881C13.9373 193.331 14.8513 191.193 15.7343 189.131C17.8343 184.226 21.0863 179.703 25.6243 175.381C27.6443 173.456 31.9283 169.204 35.1433 165.932C41.8503 159.107 61.1283 141.554 63.7513 139.884C64.7203 139.266 67.4023 137.027 69.7123 134.906C72.0213 132.786 74.6603 130.48 75.5753 129.782C76.4903 129.083 77.2393 128.131 77.2393 127.665C77.2393 125.181 83.3793 116.648 86.9543 114.162C87.5233 113.766 89.5643 112.167 91.4893 110.609C93.4143 109.051 95.9343 107.294 97.0893 106.706C98.2433 106.118 99.5933 105.035 100.089 104.299C101.769 101.802 104.118 99.8844 106.808 98.8134C112.836 96.4134 117.524 95.3104 124.239 94.7144L127.989 94.3814L128.29 88.8814C128.832 78.9634 130.237 73.9234 135.326 63.6314C137.37 59.4984 138.398 58.1474 143.248 53.2274C147.448 48.9654 149.088 47.6104 149.905 47.7274C150.651 47.8334 151.036 48.2894 151.141 49.1874C151.255 50.1734 150.674 51.1684 148.766 53.2574C147.376 54.7774 146.239 56.1514 146.239 56.3114C146.239 56.4704 145.102 58.3424 143.712 60.4724C142.321 62.6014 140.315 66.1524 139.253 68.3624C136.373 74.3564 133.239 84.3614 133.239 87.5644C133.239 89.3104 132.329 92.1124 131.418 93.1704C131.045 93.6054 130.739 94.2194 130.739 94.5364C130.739 95.3224 133.105 95.8604 133.87 95.2484C135.509 93.9374 153.081 93.5294 165.239 94.5204C168.677 94.8004 173.626 95.1954 176.239 95.3984C178.852 95.6014 181.214 95.9384 181.489 96.1474C181.764 96.3554 183.677 96.6574 185.739 96.8174C195.41 97.5674 213.998 100.422 220.239 102.116C223.198 102.919 228.422 104.211 229.739 104.465C230.427 104.598 231.439 104.896 231.989 105.127C232.539 105.358 234.389 105.801 236.099 106.112C237.81 106.422 240.51 107.09 242.099 107.597C243.689 108.104 246.564 109.007 248.489 109.605C259.251 112.947 266.765 115.996 276.36 120.915C279.274 122.409 280.239 122.453 280.239 121.092C280.239 120.52 281.33 118.776 282.664 117.217C286.315 112.947 288.872 108.732 290.754 103.881C293.512 96.7704 294.743 92.3754 295.684 86.2854C295.989 84.3084 296.239 80.3314 296.239 77.4494V72.2094L298.516 68.8134C302.157 63.3844 302.469 62.5264 301.488 60.6284L300.665 59.0374L293.726 59.2094C289.047 59.3254 286.584 59.5844 286.163 60.0064C285.229 60.9414 284.747 60.8294 278.886 58.3214C271.399 55.1174 258.258 50.7064 251.739 49.2104C250.501 48.9264 248.027 48.3564 246.239 47.9434C243.139 47.2274 236.739 46.1294 225.239 44.3404C222.352 43.8914 219.427 43.4354 218.739 43.3274C218.051 43.2204 215.577 42.9204 213.239 42.6624C205.21 41.7764 200.487 41.0344 199.326 40.4784C198.262 39.9694 198.241 39.8904 199.076 39.5614C200.895 38.8444 185.361 39.1034 183.131 39.8264C179.09 41.1374 176.015 41.6654 167.835 42.4494C165.184 42.7034 164.507 42.6014 163.585 41.8074C161.493 40.0064 159.479 38.7824 157.489 38.1064C156.389 37.7334 155.275 37.2484 155.014 37.0294C154.15 36.3054 151.754 36.6164 150.795 37.5754C150.188 38.1824 149.723 39.6194 149.494 41.5914C149.298 43.2794 148.847 44.9524 148.492 45.3064C148.137 45.6614 147.766 46.3674 147.668 46.8754C147.343 48.5524 146.316 48.2384 145.744 46.2874C144.675 42.6474 144.563 38.9204 145.442 36.2724C146.552 32.9314 147.987 31.6734 151.108 31.3034C154.369 30.9174 157.867 32.0074 163.501 35.1664L167.798 37.5754L173.394 36.7784C184.665 35.1724 204.336 35.4834 215.314 37.4404C217.61 37.8494 220.389 38.2864 221.489 38.4104C222.589 38.5344 224.141 38.8594 224.939 39.1334C225.736 39.4074 227.86 39.6314 229.659 39.6314C231.457 39.6314 234.18 39.8564 235.709 40.1324C238.098 40.5624 248.916 42.6814 252.739 43.4674C254.094 43.7464 266.238 47.3084 269.489 48.3814C272.955 49.5244 276.864 51.1274 280.653 52.9594C283.674 54.4204 284.64 54.6704 286.153 54.3824C289.921 53.6644 298.948 53.5464 300.989 54.1884C306.42 55.8974 308.233 59.3034 306.648 64.8234C306.323 65.9554 305.648 67.4784 305.148 68.2084C304.648 68.9384 304.239 69.6744 304.239 69.8444C304.239 70.0144 303.661 71.0254 302.956 72.0924C301.75 73.9134 301.663 74.4684 301.522 81.2064C301.379 88.0764 300.997 90.6624 299.39 95.6314C297.988 99.9644 298.124 100.097 305.489 101.613C312.112 102.975 317.231 105.613 321.52 109.873C328.244 116.552 328.843 119.691 328.93 148.756C328.971 162.568 329.153 168.631 329.527 168.631C330.416 168.631 332.081 166.496 332.646 164.631C333.001 163.46 333.227 145.598 333.329 110.631C333.486 57.1924 333.449 55.8994 331.627 50.1314C328.959 41.6844 327.17 38.3854 322.847 33.9444C319.211 30.2094 317.019 28.7214 311.739 26.4044C306.866 24.2654 297.361 21.5854 291.239 20.6234C289.727 20.3854 287.477 19.9564 286.239 19.6704C283.428 19.0204 274.475 17.2954 270.489 16.6344C268.839 16.3614 265.352 16.0144 262.739 15.8644C260.126 15.7134 254.501 15.1334 250.239 14.5734C243.004 13.6224 241.037 13.2924 235.239 12.0514C232.234 11.4074 230.123 11.2554 219.295 10.9034C214.238 10.7394 209.908 10.4854 209.672 10.3404C209.436 10.1944 206.374 9.85644 202.866 9.59044C187.387 8.41244 184.464 8.17544 175.489 7.36844C170.264 6.89844 164.639 6.45044 162.989 6.37344C161.339 6.29544 156.448 6.06744 152.121 5.86544C147.079 5.62944 144.025 5.67744 143.621 5.99644C143.273 6.27044 142.002 6.64544 140.795 6.83044C139.588 7.01444 137.347 7.73844 135.816 8.43944C132.564 9.92644 126.239 15.3314 126.239 16.6234C126.239 17.1114 125.351 19.2824 124.265 21.4464C122.214 25.5364 121.475 28.2894 120.727 34.6314C119.814 42.3644 119.07 59.2374 119.193 69.3814C119.37 83.8794 118.369 94.6444 116.846 94.6274C116.65 94.6254 115.99 93.7494 115.38 92.6814C114.302 90.7924 114.269 90.2874 114.193 74.3104C114.075 49.6424 114.235 38.6284 114.745 36.1314C114.998 34.8944 115.449 31.8904 115.748 29.4564C116.247 25.3834 117.286 21.6904 119.003 17.8814C119.375 17.0564 120.831 15.1434 122.239 13.6314C123.647 12.1194 125.132 10.2064 125.54 9.38144C125.947 8.55644 127.228 7.19444 128.385 6.35444C131.222 4.29444 136.885 1.63144 138.428 1.63144C139.117 1.63144 139.804 1.43044 139.956 1.18444C140.411 0.448437 144.106 0.0534361 150.989 0.00343613C158.445 -0.0495639 171.51 0.521437 172.989 0.964437C174.676 1.47044 182.046 2.12044 191.545 2.60244C196.525 2.85444 203.05 3.29844 206.045 3.58844C218.194 4.76544 226.043 5.64744 226.989 5.94044C228.53 6.41844 234.505 7.12244 239.489 7.41344C246.143 7.80044 260.298 9.58044 264.989 10.6194C266.364 10.9244 268.727 11.2794 270.239 11.4084C275.878 11.8884 282.344 12.8004 288.989 14.0524C297.995 15.7484 299.328 16.0444 302.989 17.1584C304.914 17.7444 307.277 18.3994 308.239 18.6134C310.329 19.0794 312.058 19.7464 315.739 21.5064C325.932 26.3824 333.581 35.1674 335.653 44.3814C335.962 45.7564 336.723 49.1314 337.345 51.8814C338.452 56.7814 338.475 57.5054 338.482 88.1314C338.496 151.101 338.294 166.473 337.423 168.649C336.597 170.716 333.23 173.631 331.67 173.631C331.19 173.631 330.659 173.856 330.489 174.131C330.319 174.406 329.462 174.634 328.584 174.639C325.748 174.652 325.754 174.632 325.616 185.182C325.477 195.821 325.505 195.707 322.194 199.046C319.314 201.949 317.381 202.647 313.688 202.116C310.939 201.721 310.401 201.773 309.864 202.489C309.52 202.947 309.239 203.617 309.239 203.977C309.239 204.337 309.025 204.631 308.763 204.631C308.329 204.631 307.248 201.602 307.242 200.367C307.24 200.084 306.789 199.468 306.239 198.997C305.598 198.448 305.239 197.522 305.239 196.415C305.239 195.466 305.041 194.568 304.8 194.418C304.558 194.269 304.239 192.85 304.091 191.264C303.943 189.678 303.566 186.806 303.253 184.881C302.941 182.956 302.464 179.693 302.193 177.631C300.916 167.891 300.27 163.709 299.607 160.881C299.478 160.331 299.1 158.306 298.767 156.381C298.174 152.957 296.501 147.851 295.661 146.906C294.878 146.024 295.232 144.751 296.489 143.927C298.182 142.818 298.076 142.185 295.704 139.206C294.584 137.8 293.822 136.402 294.009 136.099C294.516 135.279 297.129 137.99 297.512 139.735C297.689 140.54 298.138 141.315 298.51 141.458C299.332 141.774 301.921 147.075 302.685 150.006C303.972 154.943 304.209 155.956 304.409 157.381C304.525 158.206 304.978 160.681 305.416 162.881C305.854 165.081 306.317 167.893 306.446 169.131C306.574 170.369 306.793 171.943 306.932 172.631C307.071 173.319 307.467 176.667 307.813 180.071C308.159 183.476 308.716 186.536 309.051 186.871C309.422 187.243 309.725 189.41 309.825 192.418L309.989 197.354L313.358 197.326C316.965 197.295 318.18 196.663 319.488 194.132C320.16 192.832 320.728 182.453 320.158 181.883C319.983 181.708 319.241 182.35 318.509 183.31C317.778 184.269 316.484 185.296 315.634 185.593C313.663 186.28 313.739 186.296 313.739 185.184C313.739 184.664 313.402 184.108 312.989 183.95C312.576 183.792 312.239 183.312 312.239 182.883C312.239 182.454 315.164 179.199 318.739 175.65L325.239 169.196V166.693C325.239 165.316 324.982 164.031 324.668 163.837C324.252 163.58 324.166 159.442 324.351 148.555C324.496 139.981 324.403 132.723 324.132 131.504C323.872 130.336 323.444 127.469 323.179 125.131C322.176 116.256 322.204 116.332 318.941 113.647C315.025 110.426 313.461 109.759 298.954 105.122C297.012 104.501 296.239 104.5 296.239 105.118C296.239 105.387 295.564 107.08 294.739 108.881C293.914 110.682 293.239 112.275 293.239 112.421C293.239 113.051 289.096 118.707 286.773 121.249C285.379 122.774 284.239 124.174 284.239 124.361C284.239 124.549 285.186 125.825 286.343 127.197C288.058 129.231 288.313 129.778 287.718 130.151C287.317 130.402 286.539 130.503 285.989 130.374C285.439 130.246 285.272 130.27 285.617 130.428C285.963 130.587 286.118 130.922 285.963 131.174C285.365 132.14 283.271 131.551 280.192 129.551C278.43 128.407 275.301 126.582 273.239 125.495C271.177 124.409 269.275 123.319 269.014 123.075C268.753 122.831 268.032 122.631 267.411 122.631C266.791 122.631 264.868 121.97 263.136 121.162C261.405 120.354 258.977 119.355 257.739 118.943C256.501 118.53 253.239 117.425 250.489 116.488C245.435 114.765 240.358 113.206 236.239 112.112C235.001 111.784 233.389 111.296 232.655 111.029C231.116 110.469 222.119 108.398 216.988 107.423C215.062 107.057 211.912 106.406 209.988 105.976C206.894 105.285 203.169 104.695 196.489 103.841C192.741 103.362 181.99 101.519 181.606 101.29C180.776 100.796 181.834 100.247 184.228 99.9304C185.609 99.7464 186.739 99.3584 186.739 99.0674C186.739 98.4674 182.567 98.8654 179.791 99.7294C177.493 100.444 168.106 100.402 158.989 99.6384C153.067 99.1414 148.859 99.1324 138.989 99.5974C120.829 100.453 113.362 101.514 109.239 103.824C108.276 104.364 106.398 105.413 105.065 106.156C103.732 106.899 102.267 108.076 101.81 108.773C101.353 109.469 98.9573 111.637 96.4843 113.59C86.8503 121.202 85.7173 122.291 84.9933 124.631C84.6113 125.864 84.6203 125.869 85.6413 124.957C87.7043 123.115 88.2693 125.554 86.3053 127.824C85.0063 129.326 76.2063 136.821 72.4353 139.638C70.5403 141.054 67.7523 143.487 66.2393 145.046C64.7263 146.605 60.9293 150.018 57.8013 152.631C54.6723 155.244 49.2723 160.197 45.8013 163.638C42.3293 167.079 37.6333 171.537 35.3663 173.545C31.4293 177.029 29.7843 179.563 31.1603 180.021C31.4783 180.127 31.7393 180.878 31.7393 181.689C31.7393 182.5 32.0843 183.988 32.5053 184.996C33.3883 187.109 33.1683 188.131 31.8323 188.131C30.1623 188.131 29.0743 186.382 29.3703 184.174C29.5163 183.085 29.5183 182.076 29.3743 181.932C28.3843 180.943 22.4473 187.216 21.1483 190.623C20.8883 191.307 20.3713 192.544 20.0003 193.373C19.6293 194.203 19.0653 195.781 18.7473 196.881C18.4293 197.981 17.9693 199.331 17.7253 199.881C17.2153 201.029 16.1683 204.902 15.9673 206.381C15.8933 206.931 15.2313 210.756 14.4963 214.881C13.7613 219.006 12.9473 223.844 12.6883 225.631C12.4283 227.418 11.9773 229.781 11.6863 230.881C11.3953 231.981 10.9203 233.781 10.6303 234.881C9.65626 238.583 8.74326 241.572 5.73426 250.916C4.35426 255.199 5.60526 257.622 10.4783 260.109C12.9243 261.357 14.4823 261.733 19.0533 262.179C22.1253 262.479 26.0673 262.572 27.8143 262.386C36.0533 261.506 51.5113 262.179 55.9733 263.612C58.8773 264.545 71.5583 266.699 78.2393 267.395C79.7523 267.552 81.7763 267.882 82.7393 268.128C83.7023 268.373 86.5143 268.823 88.9893 269.127C93.5193 269.683 113.486 272.448 123.239 273.87C126.126 274.291 129.276 274.842 130.239 275.094C132.638 275.724 139.9 277.162 143.239 277.67C156.971 279.757 160.383 280.185 162.989 280.149C165.741 280.11 168.651 280.539 173.239 281.659C174.202 281.894 175.664 282.228 176.489 282.401C178.56 282.836 184.831 285.523 188.74 287.65C192.254 289.562 198.628 292.145 202.239 293.12C203.477 293.455 204.88 293.932 205.357 294.18C206.545 294.797 216.103 294.755 216.489 294.131C216.659 293.856 217.725 293.631 218.857 293.631C220.233 293.631 222.269 292.976 224.993 291.658C228.239 290.087 229.903 288.837 233.155 285.533C235.401 283.251 237.239 281.012 237.239 280.559C237.239 279.552 240.613 276.494 241.273 276.902C241.537 277.065 241.636 278.646 241.496 280.467C241.278 283.303 240.941 284.194 238.962 287.172C234.762 293.49 228.497 297.754 221.364 299.15L218.239 299.761V302.527C218.239 305.943 216.547 309.135 214.131 310.278C209.318 312.554 203.328 313.321 200.239 312.056ZM211.023 305.61C213.508 304.074 214.542 300.131 212.459 300.131C211.998 300.131 211.739 300.651 211.739 301.576C211.739 303.323 210.049 305.618 209.306 304.881C209.029 304.606 208.732 303.369 208.646 302.131C208.508 300.148 208.341 299.866 207.239 299.751C203.943 299.407 199.663 298.331 196.489 297.049C194.564 296.271 192.708 295.634 192.364 295.633C191.57 295.631 191.553 297.858 192.337 299.289C192.665 299.89 193.059 301.281 193.212 302.381C193.47 304.247 193.648 304.434 195.859 305.168C197.162 305.6 198.381 306.106 198.567 306.293C198.753 306.479 201.26 306.631 204.138 306.631C208.534 306.631 209.635 306.468 211.023 305.61ZM37.3453 281.186C37.9893 280.941 39.2413 280.063 40.1273 279.235C41.7373 277.732 41.7393 277.724 41.7393 272.68V267.631H39.9893C38.2753 267.631 37.5503 268.646 38.7393 269.381C39.4083 269.795 39.3823 274.984 38.7083 275.4C38.4163 275.581 37.9723 276.269 37.7213 276.93C36.9763 278.889 36.3343 278.313 35.9643 275.354C35.6563 272.891 35.7503 271.105 36.3173 268.631C36.4613 268.003 35.3213 267.826 29.3053 267.541C25.2833 267.351 21.5963 267.4 20.9303 267.654C19.5793 268.167 19.3543 269.689 20.4893 270.631C21.0083 271.062 21.2393 272.208 21.2393 274.355C21.2393 278.756 22.1493 279.499 28.8573 280.571C30.1593 280.78 31.3783 281.103 31.5653 281.29C32.0553 281.781 35.9663 281.71 37.3453 281.186ZM185.726 273.865C185.096 273.106 185.46 271.021 186.77 267.881C187 267.331 187.684 265.306 188.29 263.381C188.897 261.456 190.128 257.744 191.027 255.131C191.926 252.518 193.034 249.031 193.49 247.381C195.961 238.432 196.983 236.131 198.486 236.131C199.488 236.131 200.228 238.405 199.735 239.967C199.302 241.34 197.76 246.819 196.663 250.881C196.366 251.981 195.95 253.443 195.739 254.131C195.528 254.819 195.078 256.393 194.738 257.631C193.384 262.574 190.308 270.42 188.809 272.756C187.509 274.782 186.722 275.065 185.726 273.865ZM239.739 273.451C239.739 272.078 242.533 268.74 251.408 259.51C256.399 254.319 260.686 249.691 260.935 249.226C261.654 247.881 265.272 243.722 271.222 237.399C274.257 234.174 277.699 230.264 278.872 228.709L281.005 225.881L280.629 222.381C280.139 217.816 279.287 211.158 278.704 207.34C278.448 205.668 278.239 202.784 278.239 200.932C278.239 199.08 278.03 197.175 277.775 196.699C277.52 196.222 277.056 193.48 276.743 190.606C276.431 187.732 275.949 184.369 275.671 183.131C272.361 168.361 271.336 165.793 266.989 161.378C259.742 154.018 243.208 146.219 223.489 140.86C221.839 140.411 219.702 139.824 218.739 139.554C217.776 139.285 216.202 138.881 215.239 138.658C214.276 138.434 211.352 137.747 208.739 137.131C203.253 135.838 200.878 135.306 197.739 134.667C196.501 134.415 193.914 133.845 191.989 133.401C190.064 132.957 187.364 132.357 185.989 132.068C183.375 131.518 174.173 130.374 166.489 129.644C164.014 129.409 159.514 128.874 156.489 128.454C141.13 126.323 107.665 125.148 94.3553 126.272C89.2923 126.7 88.7963 126.463 89.4353 123.919C89.8473 122.276 91.5983 121.811 99.7393 121.183C115.313 119.981 126.429 120.101 142.989 121.65C145.739 121.907 150.801 122.342 154.239 122.616C157.677 122.89 161.614 123.342 162.989 123.621C164.364 123.899 168.04 124.346 171.158 124.613C174.276 124.881 178.889 125.431 181.408 125.835C183.928 126.239 186.664 126.677 187.489 126.808C190.728 127.321 196.525 128.749 197.481 129.27C198.455 129.801 198.447 129.831 197.239 130.149C196.551 130.33 195.258 130.37 194.364 130.239C192.314 129.938 192.26 130.675 194.267 131.563C195.588 132.148 196.259 132.119 199.228 131.349C202.288 130.555 203.128 130.528 206.953 131.097C209.313 131.448 211.353 131.911 211.485 132.125C211.617 132.339 212.959 132.668 214.466 132.857C216.966 133.169 222.733 134.496 226.489 135.623C227.314 135.871 229.564 136.52 231.489 137.065C237.941 138.892 252.889 144.785 255.739 146.626C256.427 147.07 258.071 147.984 259.394 148.657C262.399 150.187 266.514 153.645 269.05 156.772C270.116 158.088 272.049 160.386 273.344 161.88C276.259 165.244 277.965 168.796 279.285 174.256C279.535 175.287 279.978 177.087 280.271 178.256C280.563 179.425 280.995 181.619 281.231 183.131C281.466 184.643 282.115 188.469 282.673 191.631C283.231 194.793 283.912 199.744 284.187 202.631C285.332 214.666 286.405 224.893 286.541 225.063C286.852 225.452 290.264 222.994 291.518 221.478C294.279 218.142 299.673 212.797 302.402 210.695C304.649 208.964 305.385 208.629 305.937 209.088C306.32 209.406 306.933 209.602 307.299 209.524C308.564 209.253 308.276 211.43 306.772 213.505C305.943 214.651 304.077 216.488 302.626 217.589C299.305 220.107 299.187 220.227 296.233 224.041C294.886 225.779 293.268 227.605 292.637 228.098C290.506 229.764 286.283 231.631 284.631 231.637C283.322 231.642 282.77 231.982 281.909 233.311C280.504 235.482 274.671 242.134 268.922 248.123C266.409 250.74 264.21 253.358 264.033 253.941C263.638 255.249 249.729 269.639 248.864 269.634C248.52 269.632 248.229 269.125 248.217 268.506C248.197 267.521 247.932 267.67 246.092 269.702C244.181 271.81 241.056 274.124 240.114 274.129C239.908 274.13 239.739 273.825 239.739 273.451ZM232.534 269.033C231.822 267.604 231.239 266.251 231.239 266.027C231.239 265.803 230.807 264.666 230.279 263.501C228.667 259.943 225.6 250.387 224.224 244.631C223.994 243.669 223.585 242.093 223.316 241.131C220.885 232.45 220.711 230.94 222.081 230.415C223.857 229.733 225.692 233.283 227.751 241.381C228.24 243.306 229.22 246.569 229.927 248.631C232.951 257.444 235.166 264.58 235.737 267.348C236.292 270.044 236.266 270.375 235.448 270.973C234.101 271.958 233.937 271.849 232.534 269.033ZM173.227 263.867C172.546 263.046 173.055 262.164 177.635 256.235C178.972 254.505 181.156 251.242 182.488 248.985C183.82 246.728 185.214 244.375 185.586 243.756C186.367 242.457 187.635 242.279 188.068 243.408C188.815 245.353 183.252 255.168 178.232 260.763C175.09 264.266 174.079 264.893 173.227 263.867ZM40.1203 243.006C39.7163 242.387 39.2603 241.206 39.1073 240.381C38.9533 239.556 38.4473 237.418 37.9823 235.631C36.5903 230.289 36.3123 229.095 35.2973 224.131C33.8493 217.048 33.2453 211.554 33.8003 210.518C34.6523 208.926 36.1483 209.437 36.6893 211.506C37.6873 215.319 38.7323 220.531 40.0223 228.131C40.7913 232.659 40.9893 233.673 42.2053 239.312C43.0843 243.387 41.8253 245.618 40.1203 243.006ZM54.7723 239.722C52.5173 237.342 51.7283 236 48.8383 229.631C44.9013 220.954 43.9803 218.049 44.7253 216.657C45.4933 215.222 46.6683 215.379 47.2843 216.998C47.5703 217.751 48.1003 219.044 48.4633 219.873C48.8253 220.703 49.4173 222.168 49.7773 223.131C50.4383 224.896 55.9483 235.952 57.7153 239.057C58.6673 240.731 58.6123 242.131 57.5943 242.131C57.2973 242.131 56.0283 241.047 54.7723 239.722ZM193.662 216.388C193.51 216.235 191.945 215.909 190.187 215.662C186.79 215.187 176.496 213.353 172.739 212.554C171.501 212.291 169.773 211.953 168.898 211.803C167.203 211.512 166.406 210.385 167.21 209.416C167.803 208.701 174.964 209.241 183.239 210.624C184.751 210.877 187.452 211.323 189.239 211.616C191.026 211.909 193.839 212.477 195.489 212.877C197.139 213.278 199.501 213.667 200.739 213.743C202.769 213.868 202.989 214.003 202.989 215.131C202.989 216.362 202.919 216.383 198.465 216.523C195.976 216.602 193.815 216.541 193.662 216.388ZM226.995 206.141C226.829 205.872 226.911 205.253 227.178 204.766C227.961 203.338 256.004 175.631 256.666 175.631C257.747 175.631 257.916 177.224 257.013 178.902C255.969 180.841 237.019 199.714 232.017 203.797C228.564 206.615 227.574 207.077 226.995 206.141ZM129.604 204.329C129.438 204.163 127.601 203.826 125.521 203.579C123.441 203.333 119.995 202.887 117.864 202.589C115.733 202.291 112.639 201.859 110.989 201.629C109.339 201.4 106.301 200.95 104.239 200.631C102.177 200.312 99.1393 199.86 97.4893 199.626C95.8393 199.393 93.2523 198.956 91.7393 198.654C90.2263 198.353 87.1893 197.896 84.9893 197.638C82.7893 197.38 76.7143 196.491 71.4893 195.662C66.2643 194.834 59.4033 193.747 56.2423 193.247C51.7813 192.541 50.4593 192.154 50.3373 191.518C50.2503 191.067 50.6793 190.431 51.2913 190.103C52.3973 189.511 52.8343 189.533 61.2393 190.598C63.3013 190.86 67.1273 191.337 69.7393 191.658C79.7913 192.894 81.5963 193.128 84.9893 193.635C86.9143 193.922 89.9523 194.366 91.7393 194.622C93.5263 194.877 96.3393 195.323 97.9893 195.612C99.6393 195.902 102.564 196.351 104.489 196.61C106.414 196.87 109.114 197.305 110.489 197.577C111.864 197.85 115.126 198.421 117.739 198.847C122.875 199.684 125.31 200.19 131.489 201.706C137.412 203.158 137.888 203.323 138.115 204.006C138.27 204.473 137.258 204.631 134.114 204.631C131.799 204.631 129.77 204.495 129.604 204.329ZM316.95 191.96C316.495 190.773 316.936 187.975 317.614 187.753C318.052 187.609 318.239 188.224 318.239 189.81C318.239 192.074 317.48 193.341 316.95 191.96ZM279.239 155.699C279.239 155.187 280.364 153.716 281.739 152.429C283.114 151.143 284.239 149.755 284.239 149.343C284.239 147.107 287.364 145.071 288.05 146.86C288.309 147.536 287.024 149.291 282.306 154.701C280.49 156.783 279.239 157.19 279.239 155.699ZM293.802 140.636C292.47 138.266 293.059 137.965 294.696 140.18C295.386 141.113 295.66 141.91 295.385 142.185C295.11 142.46 294.481 141.844 293.802 140.636ZM299.725 139.364C299.209 138.743 299.21 138.37 299.727 137.403C300.758 135.476 314.12 122.499 314.702 122.858C314.995 123.039 315.466 123.621 315.75 124.151C316.197 124.986 315.31 126.126 309.164 132.623C305.257 136.753 301.679 140.131 301.211 140.131C300.744 140.131 300.075 139.786 299.725 139.364ZM272.572 113.298C271.59 112.316 273.235 106.142 275.879 100.881C278.887 94.8984 281.616 88.7694 283.226 84.3814C283.831 82.7314 284.532 80.8644 284.783 80.2324C285.034 79.6014 285.239 78.7524 285.239 78.3474C285.239 77.2434 287.772 73.6314 288.546 73.6314C289.89 73.6314 289.877 76.1444 288.511 80.7874C287.767 83.3144 286.819 86.6184 286.402 88.1314C285.986 89.6444 285.082 92.1184 284.394 93.6314C283.705 95.1444 282.795 97.1684 282.372 98.1314C280.537 102.308 275.55 111.891 274.631 113.006C274.07 113.687 273.099 113.825 272.572 113.298ZM325.948 106.065C325.456 105.269 326.223 70.4784 326.744 69.9404C326.979 69.6974 327.524 69.6344 327.955 69.7994C328.614 70.0524 328.748 71.2764 328.796 77.4904C328.971 100.043 328.506 106.631 326.739 106.631C326.496 106.631 326.141 106.376 325.948 106.065ZM252.614 101.783C250.92 101.514 250.84 100.416 252.438 99.3694C254.063 98.3044 260.489 98.5084 260.489 99.6244C260.489 101.027 255.853 102.298 252.614 101.783ZM262.168 99.7954C261.581 99.0884 261.943 98.5744 265.061 95.6844C267.022 93.8674 268.913 91.8194 269.265 91.1314C270.242 89.2194 273.374 85.6314 274.065 85.6314C274.403 85.6314 274.81 85.8414 274.968 86.0974C275.315 86.6584 273.086 91.8584 272.288 92.3514C271.978 92.5424 271.28 93.5714 270.736 94.6364C269.646 96.7734 267.393 98.7004 264.637 99.8524C263.012 100.53 262.773 100.525 262.168 99.7954ZM125.76 52.9074C125.371 52.4374 125.239 51.5094 125.421 50.5114C125.585 49.6144 125.8 44.7144 125.9 39.6214C126.012 33.9084 126.303 29.9464 126.66 29.2794C126.978 28.6844 127.239 27.8304 127.239 27.3824C127.239 24.4004 133.366 16.6314 135.718 16.6314C136.916 16.6314 137.063 17.7404 135.983 18.6364C133.038 21.0804 129.239 28.9644 129.239 32.6324C129.239 33.5984 129.001 35.1744 128.711 36.1344C128.421 37.0954 128.193 39.3434 128.205 41.1314C128.234 45.2824 127.394 52.6764 126.83 53.2404C126.586 53.4844 126.119 53.3394 125.76 52.9074Z" fill="white"/>
</svg>
