<svg width="299" height="300" viewBox="0 0 299 300" fill="none" xmlns="http://www.w3.org/2000/svg">
<path fill-rule="evenodd" clip-rule="evenodd" d="M38.0598 298.12C35.8118 296.492 34.3788 294.535 34.3788 293.094C34.3788 292.551 34.1538 291.967 33.8788 291.797C33.1248 291.331 33.2928 286.587 34.1498 284.126C35.3128 280.785 36.8338 278.045 37.5138 278.062C37.8518 278.071 38.5478 278.396 39.0598 278.784C39.9298 279.443 39.9498 279.766 39.3658 283.689C39.0228 285.998 38.8948 288.91 39.0818 290.16C39.7128 294.364 42.7888 295.366 44.6118 291.961C45.5168 290.271 45.5428 289.874 44.9438 286.973C44.5858 285.239 43.8658 282.937 43.3438 281.857C42.0458 279.17 41.6348 276.693 42.3458 275.836C42.8158 275.27 42.6428 275.075 41.4368 274.81C40.6178 274.63 39.6818 274.163 39.3578 273.771C38.6238 272.887 39.1388 270.608 40.1628 270.215C40.9978 269.894 42.8788 271.352 42.8788 272.32C42.8788 272.66 43.7518 273.995 44.8188 275.286C47.2618 278.242 49.0308 281.877 50.0578 286.047C50.7568 288.884 50.7708 289.627 50.1708 291.897C49.2818 295.256 47.8758 297.187 45.3668 298.495C42.5708 299.952 40.4368 299.843 38.0598 298.12ZM4.32285 273.395C1.03485 271.684 -0.273154 268.881 0.0468455 264.237C0.203846 261.957 0.690845 259.891 1.40384 258.487C2.50884 256.311 5.27284 252.025 5.87984 251.547C6.05484 251.41 6.69884 250.249 7.31084 248.968C8.50084 246.477 10.6288 244.047 11.6198 244.047C12.6518 244.047 13.8788 245.808 13.8788 247.289C13.8788 248.067 14.5818 251.17 15.4408 254.186C16.7358 258.733 16.9628 260.284 16.7718 263.267C16.2398 271.558 10.2138 276.461 4.32285 273.395ZM10.7878 267.047C11.9138 265.393 11.9608 265.022 11.6488 260.297C11.4678 257.547 11.2758 254.529 11.2238 253.589C11.0758 250.929 10.2578 251.28 8.68685 254.678C7.89385 256.393 6.76885 258.809 6.18685 260.047C4.81885 262.956 4.78085 266.558 6.10285 268.018C7.50085 269.563 9.33385 269.183 10.7878 267.047ZM38.0338 244.267C34.8518 242.874 32.4008 238.413 32.3868 233.988C32.3778 231.297 34.9798 223.012 36.5068 220.867C37.0858 220.054 37.5828 218.861 37.6108 218.215C37.6388 217.57 38.1458 216.557 38.7378 215.966C39.7658 214.938 39.8718 214.928 41.0968 215.73C41.8018 216.192 42.3828 216.959 42.3878 217.434C42.3928 217.908 43.0678 219.287 43.8878 220.497C47.2928 225.522 49.0448 230.227 49.0268 234.297C49.0128 237.506 48.5068 239.362 47.0418 241.583C44.9998 244.679 41.4138 245.747 38.0338 244.267ZM42.5578 238.911C43.9278 237.909 44.1998 233.281 43.0978 229.728C41.4368 224.373 39.3788 221.801 39.3788 225.079C39.3788 225.967 38.8938 228.025 38.2998 229.652C37.3398 232.287 37.2868 232.892 37.8148 235.181C38.7218 239.109 40.4398 240.46 42.5578 238.911ZM185.629 235.268C185.079 235.141 183.391 234.791 181.879 234.49C177.872 233.693 173.761 231.352 172.031 228.882C169.86 225.785 166.428 217.512 164.913 211.729C164.43 209.887 164.057 209.507 161.5 208.261C158.384 206.743 156.391 205.592 149.879 201.551C147.541 200.101 143.941 198.011 141.879 196.908C139.817 195.804 137.532 194.484 136.802 193.974C136.072 193.464 135.317 193.047 135.124 193.047C134.932 193.047 133.774 192.372 132.551 191.547C131.329 190.722 130.212 190.047 130.069 190.047C129.926 190.047 128.869 189.411 127.719 188.634C126.57 187.857 122.082 185.382 117.747 183.134C113.412 180.887 108.681 178.262 107.235 177.302C105.788 176.341 102.81 174.92 100.617 174.143C98.4238 173.367 95.7138 172.256 94.5958 171.676C92.6468 170.664 91.4838 170.209 83.6288 167.385C81.7038 166.693 77.9048 165.633 75.1868 165.03L70.2438 163.934L66.6938 167.825C54.8208 180.838 43.2668 186.994 35.6758 184.352C31.5178 182.905 28.3718 178.813 28.2348 174.673C28.1968 173.521 27.9608 173.085 27.4258 173.173C26.6108 173.307 24.4438 169.705 24.4298 168.191C24.4248 167.699 24.2108 166.059 23.9538 164.547C23.1058 159.557 22.2448 148.837 22.5098 146.547C23.0128 142.184 23.3718 140.269 24.1958 137.547C27.7368 125.861 29.8918 121.633 34.7688 116.803C36.8108 114.78 39.0778 112.917 39.8058 112.661C40.5328 112.406 41.9168 111.894 42.8788 111.523C45.9988 110.322 48.7588 110.672 53.0738 112.815C55.2428 113.893 57.8818 115.68 58.9378 116.786C62.0428 120.038 66.0448 124.669 67.3068 126.47C68.9848 128.864 73.3788 136.541 73.3788 137.08C73.3788 137.68 76.6938 139.047 78.1498 139.047C78.7818 139.047 81.1728 139.697 83.4638 140.491C85.7548 141.286 88.5188 142.092 89.6058 142.283C90.6928 142.474 92.4278 143.062 93.4608 143.589C94.4938 144.116 95.8848 144.547 96.5518 144.547C97.8248 144.547 100.302 145.245 107.438 147.616C109.808 148.403 112.171 149.05 112.688 149.054C113.206 149.057 115.541 149.747 117.879 150.587C121.538 151.901 130.788 154.732 135.629 156.018C136.454 156.237 139.154 157.12 141.629 157.978C146.907 159.81 147.599 159.9 146.957 158.672C146.113 157.059 140.379 139.637 140.379 138.686C140.379 138.17 140.192 137.533 139.963 137.272C139.735 137.011 139.259 135.785 138.906 134.547C138.554 133.309 137.868 131.397 137.382 130.297C135.602 126.267 134.238 120.404 134.327 117.17C134.481 111.563 137.822 105.047 142.308 101.601C143.242 100.884 145.318 99.2275 146.921 97.9215C150.993 94.6025 151.364 94.6915 152.158 99.1735C152.475 100.963 152.409 101.086 150.743 101.782C148.466 102.733 143.931 107.772 141.868 111.644C140.466 114.273 140.251 115.15 140.326 117.909C140.375 119.674 140.6 121.496 140.827 121.957C141.053 122.419 142.541 126.735 144.133 131.547C145.725 136.359 148.145 143.559 149.511 147.547C151.454 153.218 152.01 155.54 152.062 158.209C152.126 161.463 152.19 161.633 153.431 161.882C154.147 162.025 155.38 162.659 156.17 163.289C157.513 164.36 157.562 164.521 156.913 165.733C155.986 167.465 154.85 167.745 152.275 166.877C151.095 166.479 148.217 165.668 145.879 165.074C139.955 163.57 138.039 163.042 134.879 162.045C126.295 159.337 122.002 158.047 121.569 158.047C121.3 158.047 118.391 157.181 115.105 156.122C111.818 155.064 107.329 153.69 105.129 153.069C102.929 152.448 100.004 151.548 98.6288 151.068C97.2538 150.588 95.0038 149.804 93.6288 149.324C92.2538 148.845 89.7758 148.159 88.1228 147.801C86.4698 147.442 83.6758 146.676 81.9148 146.098C80.1548 145.52 78.2338 145.047 77.6458 145.047C77.0588 145.047 76.3288 144.797 76.0228 144.491C74.9868 143.455 74.3788 144.593 74.3788 147.569C74.3788 153.342 72.6198 156.822 70.1758 155.884C69.5198 155.632 69.4538 154.665 69.7178 149.145C69.9688 143.894 69.8848 142.432 69.2618 141.249C68.8418 140.45 67.8838 138.546 67.1328 137.016C65.7488 134.2 64.4918 132.392 58.0598 123.97C53.4368 117.916 52.7578 117.302 51.5298 118.069C50.7618 118.548 50.2138 118.46 48.6138 117.603C46.1668 116.292 44.8698 116.276 42.4128 117.53C39.6458 118.941 36.4098 122.889 33.9178 127.892C31.2898 133.17 30.6488 135.094 29.3708 141.547C29.1248 142.785 28.7028 144.922 28.4318 146.297C27.7668 149.666 27.7758 156.32 28.4528 161.797C28.7578 164.272 29.0688 167.242 29.1428 168.398C29.3128 171.042 31.8258 175.518 34.2728 177.535C37.1618 179.917 39.3338 179.674 42.2858 176.638C44.5738 174.286 48.3788 168.468 48.3788 167.322C48.3788 167.006 48.5688 166.533 48.8008 166.272C49.4478 165.544 51.2348 160.645 52.0758 157.297C55.0218 145.555 54.9458 133.453 51.8678 124.118C51.2918 122.37 50.9298 120.83 51.0638 120.696C51.1978 120.562 51.9958 120.603 52.8358 120.788C55.4778 121.368 57.7498 125.481 58.4708 130.988C59.2628 137.045 59.4978 144.644 58.9498 146.547C58.6738 147.51 58.1128 150.547 57.7038 153.297C56.5738 160.893 54.7298 166.476 51.6328 171.674C48.2578 177.341 49.4498 176.585 60.3318 166.16C66.6558 160.102 66.6638 160.099 73.6288 159.998C79.2148 159.916 79.9278 160.019 83.9638 161.479C86.3478 162.341 88.7358 163.047 89.2698 163.047C90.1248 163.047 91.8848 163.753 98.8788 166.899C99.8418 167.332 102.204 168.625 104.129 169.772C106.054 170.919 108.866 172.375 110.379 173.007C113.898 174.477 124.387 179.947 125.408 180.843C125.836 181.219 128.761 182.803 131.908 184.361C135.054 185.92 138.191 187.578 138.879 188.045C139.567 188.512 141.367 189.576 142.879 190.408C146.205 192.239 153.279 196.437 154.879 197.531C155.291 197.813 158.329 199.578 161.629 201.453C169.857 206.129 171.751 207.374 172.356 208.503C173.056 209.812 172.526 210.991 171.074 211.356C169.681 211.705 169.531 212.636 170.709 213.611C171.165 213.988 172.414 216.209 173.483 218.547C174.552 220.885 175.697 223.337 176.028 223.998C176.776 225.493 179.361 227.214 182.629 228.394C187.009 229.976 202.916 229.477 208.879 227.571C209.567 227.351 211.367 226.897 212.879 226.562C216.341 225.794 222.313 224.135 223.629 223.574C224.179 223.34 225.416 222.874 226.379 222.54C227.342 222.205 229.367 221.369 230.879 220.681C232.391 219.992 234.723 219.102 236.06 218.702C237.397 218.302 239.787 217.316 241.372 216.511C242.956 215.706 244.527 215.047 244.862 215.047C245.197 215.047 246.069 214.577 246.8 214.003C247.531 213.429 250.266 211.718 252.879 210.202C263.003 204.323 271.55 197.886 278.634 190.802C283.179 186.257 289.379 178.494 289.379 177.348C289.379 177.191 290.019 175.742 290.801 174.127C291.583 172.512 292.362 170.179 292.532 168.942C292.849 166.626 292.44 165.552 288.71 158.908C283.025 148.78 281.879 146.638 281.879 146.144C281.879 145.515 280.121 142.216 279.163 141.047C278.825 140.635 277.942 139.234 277.2 137.935L275.852 135.574L276.866 134.56C277.423 134.003 278.081 133.547 278.327 133.547C279.066 133.547 281.786 136.908 283.255 139.635C285.342 143.509 285.542 143.802 286.991 145.095C288.771 146.683 293.806 155.348 296.697 161.797C298.19 165.126 298.982 172.116 297.939 172.76C297.631 172.95 297.379 173.541 297.379 174.072C297.379 175.264 293.815 182.17 291.973 184.547C291.227 185.51 290.282 186.957 289.873 187.764C289.464 188.571 286.879 191.509 284.129 194.292C279.159 199.322 274.796 202.902 267.517 207.92C265.425 209.362 263.357 210.858 262.921 211.244C262.103 211.969 260.294 213.03 255.129 215.815C253.479 216.705 250.701 218.246 248.956 219.24C247.211 220.234 245.554 221.047 245.274 221.047C244.994 221.047 243.947 221.487 242.947 222.025C239.871 223.678 232.314 227.047 231.679 227.047C231.349 227.047 230.865 227.235 230.604 227.464C230.343 227.693 227.766 228.607 224.879 229.495C221.992 230.383 218.504 231.482 217.129 231.936C215.754 232.39 213.391 232.912 211.879 233.094C210.367 233.277 207.554 233.803 205.629 234.264C202.254 235.071 187.897 235.792 185.629 235.268ZM284.879 145.116C284.879 144.879 284.317 144.793 283.629 144.925C282.941 145.056 282.379 145.25 282.379 145.355C282.379 145.461 282.941 145.547 283.629 145.547C284.317 145.547 284.879 145.353 284.879 145.116ZM185.879 223.199C183.723 222.833 180.454 221.462 180.207 220.821C179.684 219.458 180.704 218.929 183.193 219.273C189.113 220.09 194.497 220.099 199.197 219.298C202.797 218.685 204.151 218.622 204.57 219.048C205.445 219.94 203.222 221.44 200.482 221.808C199.188 221.981 197.281 222.444 196.244 222.835C194.481 223.501 188.829 223.699 185.879 223.199ZM7.12885 220.465C5.35985 219.489 3.37885 217.385 3.37885 216.483C3.37885 216.001 3.15385 215.467 2.87885 215.297C1.70385 214.571 2.39884 209.22 4.19184 205.192C5.66584 201.881 11.2058 195.637 15.7288 192.186C17.3518 190.949 17.4298 190.938 18.4038 191.819C19.2218 192.56 19.3898 193.286 19.3158 195.762C19.2658 197.431 19.3888 200.934 19.5888 203.547C20.2398 212.033 17.9458 217.964 13.0368 220.486C11.6528 221.197 8.43485 221.185 7.12885 220.465ZM11.7528 214.779C13.8388 213.318 14.7608 209.925 15.1458 202.297L15.3218 198.797L13.5968 200.797C10.3548 204.557 7.89784 208.772 7.57484 211.128C7.30684 213.084 7.42384 213.55 8.41484 214.474C9.78484 215.75 10.2988 215.797 11.7528 214.779ZM172.789 205.798C172.362 204.862 172.365 204.066 172.799 202.615C174.301 197.604 173.049 191.479 168.649 182.312C167.4 179.711 166.379 177.462 166.379 177.315C166.379 177.167 167.046 177.047 167.86 177.047C169.109 177.047 169.643 177.499 171.255 179.922C174.04 184.106 176.379 189.681 176.379 192.135C176.379 192.879 176.571 193.607 176.806 193.752C177.04 193.897 177.376 195.562 177.552 197.453C177.865 200.825 177.081 204.722 175.747 206.422C174.936 207.456 173.396 207.132 172.789 205.798ZM274.199 185.422C274.407 185.078 275.377 183.55 276.353 182.026C278.222 179.11 279.76 175.796 280.986 172.047C281.835 169.45 282.874 169.137 283.473 171.297C284.176 173.836 281.052 180.402 277.228 184.422C275.737 185.99 273.384 186.767 274.199 185.422ZM35.8968 170.08C35.1718 168.726 35.2518 167.244 36.1418 165.522C37.0388 163.787 37.8748 163.662 39.1518 165.072C40.2308 166.265 40.3758 169.095 39.4178 170.25C38.5068 171.347 36.5238 171.251 35.8968 170.08ZM42.3968 162.08C41.6068 160.604 41.7768 158.794 42.7928 157.874C44.5128 156.319 46.3788 157.183 46.3788 159.536C46.3788 162.371 43.5268 164.193 42.3968 162.08ZM31.8898 157.065C30.9528 156.472 30.9098 152.965 31.8268 151.86C32.5998 150.928 34.6518 150.775 35.1678 151.61C35.7448 152.544 35.5578 155.979 34.8858 156.789C34.1738 157.646 32.9828 157.756 31.8898 157.065ZM44.8668 152.782C44.1138 151.875 44.8858 149.705 46.1308 149.227C47.1638 148.83 48.3788 149.928 48.3788 151.258C48.3788 153.353 46.1448 154.322 44.8668 152.782ZM39.2058 148.133C38.1638 146.98 38.1458 145.352 39.1648 144.333C40.0938 143.403 40.1608 143.395 41.4118 144.065C42.5788 144.689 42.6628 146.419 41.6008 147.936C40.6558 149.285 40.2778 149.316 39.2058 148.133ZM285.212 140.514C283.911 138.657 284.142 134.213 285.802 129.143C287.486 124.001 288.294 121.256 288.626 119.547C288.759 118.859 289 117.622 289.161 116.797C289.323 115.972 289.652 114.847 289.894 114.297C290.136 113.747 290.439 112.06 290.567 110.547C290.694 109.034 291.059 106.334 291.377 104.547C291.694 102.76 291.975 98.1465 292 94.2965C292.077 82.5265 290.361 71.4965 286.829 61.0465C285.924 58.3705 285.721 56.5905 285.679 50.9655C285.635 44.9645 285.72 44.2055 286.379 44.7155C287.838 45.8455 288.278 46.8305 291.108 55.2965C293.612 62.7885 296.01 72.7015 296.671 78.2965C297.751 87.4245 298.01 94.4265 297.446 99.2325C297.119 102.018 296.649 106.097 296.401 108.297C296.152 110.497 295.708 113.535 295.413 115.047C295.118 116.559 294.735 118.758 294.562 119.933C294.388 121.109 294.051 122.191 293.813 122.338C293.574 122.485 293.379 123.069 293.379 123.636C293.379 126.068 288.721 138.594 287.128 140.446L286.046 141.704L285.212 140.514ZM33.9788 140.447C32.5008 138.969 34.0808 134.547 36.0868 134.547C38.0418 134.547 38.3378 138.159 36.5458 140.139C35.5898 141.195 34.8198 141.288 33.9788 140.447ZM45.5778 139.845C45.0238 138.402 45.6358 135.906 46.7168 135.192C47.6948 134.547 47.9108 134.579 48.8418 135.51C49.4128 136.081 49.8788 136.997 49.8788 137.547C49.8788 139.677 46.2558 141.612 45.5778 139.845ZM41.2058 130.133C40.0048 128.805 40.1618 126.425 41.5358 125.134C42.9468 123.809 43.4808 123.778 44.5518 124.961C45.7508 126.287 45.5768 128.394 44.1518 129.82C42.6828 131.288 42.2898 131.33 41.2058 130.133ZM257.651 129.082C255.643 125.901 254.379 122.685 254.379 120.756C254.379 117.581 256.342 119.057 258.756 124.047C259.893 126.396 260.316 129.441 259.636 130.372C259.071 131.145 258.872 131.015 257.651 129.082ZM273.207 122.648C273.021 120.646 273.115 118.54 273.436 117.523C273.736 116.574 274.17 114.897 274.401 113.797C274.632 112.697 275.073 110.672 275.381 109.297C275.689 107.922 276.046 106.01 276.175 105.047C276.303 104.084 276.625 101.947 276.89 100.297C277.758 94.8895 277.233 82.7585 275.883 77.0465C275.656 76.0835 275.194 74.0595 274.856 72.5465C272.47 61.8705 266.35 48.0615 260.932 41.1295C257.157 36.2995 251.777 31.2315 247.379 28.3645C241.81 24.7325 238.295 23.1115 232.129 21.3295C229.654 20.6145 226.484 19.6955 225.085 19.2885C219.084 17.5385 210.083 18.7035 199.879 22.5505C195.44 24.2235 183.783 31.8175 180.061 35.4605C175.368 40.0545 168.525 49.9885 167.086 54.2965C166.626 55.6715 165.932 57.5565 165.542 58.4865C164.391 61.2305 163.284 68.4465 163.232 73.5465C163.174 79.1685 163.746 84.0465 164.463 84.0465C164.744 84.0465 165.59 83.6085 166.343 83.0725C169.076 81.1265 176.2 77.2235 179.129 76.0675C180.779 75.4155 182.354 74.7245 182.629 74.5295C182.904 74.3355 184.029 73.8865 185.129 73.5325C186.229 73.1775 187.814 72.5025 188.652 72.0325C189.925 71.3185 198.468 68.3145 204.129 66.5905C210.874 64.5375 217.997 63.4135 224.629 63.3575C232.281 63.2915 235.86 64.8275 239.664 69.8065C241.632 72.3835 250.084 84.9845 252.662 89.1865C253.469 90.5015 254.826 92.5265 255.679 93.6865C256.531 94.8475 257.63 96.5835 258.12 97.5465C259.014 99.3005 261.06 102.734 265.78 110.4C268.352 114.577 271.379 120.541 271.379 121.432C271.379 121.703 271.042 122.205 270.629 122.547C270.216 122.889 269.879 123.592 269.879 124.108C269.879 125.976 268.453 124.974 265.941 121.34C264.532 119.302 263.379 117.516 263.379 117.372C263.379 117.227 261.612 114.446 259.453 111.19C257.294 107.934 254.1 102.914 252.355 100.034C249.178 94.7875 237.667 77.1995 236.849 76.3395C236.595 76.0725 236.002 76.8435 235.423 78.1935C234.125 81.2225 228.929 87.8035 225.97 90.1665C222.64 92.8255 220.919 92.6235 220.13 89.4785C219.847 88.3485 220.019 88.0695 221.359 87.4805C222.305 87.0655 223.038 86.3045 223.222 85.5465C223.388 84.8585 223.942 83.6995 224.452 82.9695C225.708 81.1715 225.702 77.7545 224.442 77.0805C222.801 76.2015 219.375 75.8905 217.471 76.4455C216.458 76.7415 214.504 77.2505 213.129 77.5765C209.895 78.3445 206.53 79.4305 205.232 80.1255C204.327 80.6095 204.676 80.8345 208.167 82.0155C212.882 83.6105 215.619 84.8805 216.417 85.8425C216.868 86.3855 216.855 86.5465 216.361 86.5465C215.484 86.5465 206.013 83.6525 203.987 82.7655C203.084 82.3695 201.556 82.0465 200.592 82.0465C199.628 82.0465 197.956 81.5955 196.876 81.0445C195.796 80.4935 193.723 79.7925 192.271 79.4865C190.818 79.1805 189.365 78.7175 189.042 78.4585C188.238 77.8125 165.582 88.9185 165.657 89.9215C165.672 90.1275 165.871 90.9355 166.098 91.7165C166.422 92.8355 166.297 93.3515 165.506 94.1425C164.251 95.3965 162.781 94.7745 161.6 92.4895C160.365 90.1035 158.379 83.6705 158.379 82.0605C158.379 81.2605 158.154 80.4665 157.879 80.2965C157.243 79.9035 157.215 68.4085 157.845 66.3315C158.101 65.4875 158.584 63.2365 158.917 61.3285C159.604 57.4075 161.367 52.7465 163.166 50.0995C163.833 49.1175 164.379 48.0355 164.379 47.6955C164.379 46.9075 165.897 44.2045 168.513 40.3355C170.845 36.8875 181.502 26.4055 185.22 23.9035C190.855 20.1115 201.207 16.0335 209.129 14.4855C213.411 13.6495 226.983 13.6385 230.379 14.4685C237.252 16.1495 243.527 18.5955 247.421 21.1125C249.066 22.1765 250.535 23.0465 250.685 23.0465C250.835 23.0465 252.583 24.3745 254.569 25.9975C262.208 32.2395 268.614 40.6005 273.578 50.8085C276.055 55.9035 279.625 66.8725 280.572 72.2965C282.042 80.7225 282.388 83.5115 282.642 88.9735C283.042 97.5975 282.116 105.24 279.39 115.797C277.899 121.572 276.891 123.965 275.484 125.072C274.802 125.608 274.082 126.047 273.883 126.047C273.685 126.047 273.38 124.517 273.207 122.648ZM229.74 78.3065C230.529 77.3505 231.587 75.4185 232.092 74.0155C233.139 71.1015 232.892 70.5985 229.929 69.6125C226.651 68.5215 221.4 68.8955 209.879 71.0425C207.594 71.4685 195.995 75.2635 195.517 75.7425C194.967 76.2915 195.912 77.5845 197.241 78.1025C198.257 78.4995 199.031 78.4865 200.129 78.0575C205.616 75.9105 208.169 75.1065 211.195 74.5715C213.084 74.2375 215.529 73.7015 216.629 73.3805C219.926 72.4185 224.084 72.6315 225.717 73.8475C226.897 74.7255 227.154 75.3205 227.28 77.4725C227.363 78.8885 227.628 80.0465 227.869 80.0465C228.109 80.0465 228.951 79.2635 229.74 78.3065ZM280.187 124.815C279.138 123.214 279.168 121.895 280.337 118.269C280.864 116.634 281.77 113.666 282.351 111.672C282.967 109.558 283.68 108.047 284.062 108.047C284.579 108.047 284.667 109.429 284.481 114.672C284.275 120.475 284.093 121.592 283.01 123.672C282.33 124.978 281.599 126.047 281.384 126.047C281.17 126.047 280.631 125.492 280.187 124.815ZM166.713 119.335C166.558 118.931 166.92 118.307 167.548 117.896C168.798 117.077 176.192 114.047 176.941 114.047C177.208 114.047 178.359 113.597 179.497 113.047C180.635 112.497 181.78 112.047 182.04 112.047C182.3 112.047 186.814 109.932 192.071 107.347C201.012 102.951 206.354 99.9405 212.779 95.6745L215.454 93.8995L216.542 95.0055L217.629 96.1115L214.599 98.9545C208.339 104.826 190.594 113.864 177.629 117.783C175.154 118.531 172.612 119.347 171.98 119.595C170.177 120.305 167.025 120.149 166.713 119.335ZM250.268 114.672C249.55 113.852 245.9 107.856 239.138 96.3895C236.479 91.8825 236.297 91.3845 236.896 90.2645C237.255 89.5945 237.904 89.0495 238.338 89.0525C238.845 89.0565 240.907 92.2985 244.069 98.0635C246.787 103.017 249.205 107.189 249.443 107.336C250.183 107.794 252.379 113.011 252.379 114.312C252.379 115.758 251.37 115.93 250.268 114.672ZM144.951 93.4215C144.581 92.5275 143.937 91.0315 143.52 90.0965C143.103 89.1625 142.539 85.6745 142.267 82.3465C141.921 78.1165 141.562 76.1765 141.075 75.8965C140.544 75.5915 140.379 74.1445 140.379 69.8015C140.379 66.5435 140.593 63.9735 140.879 63.7965C141.154 63.6265 141.379 62.6035 141.379 61.5245C141.379 59.6475 142.101 55.9255 142.878 53.7965C143.078 53.2465 143.638 51.5595 144.121 50.0465C146.844 41.5235 153.302 30.8365 160.032 23.7205C165.74 17.6845 177.124 9.73152 181.401 8.79152C182.29 8.59652 184.021 7.80052 185.247 7.02252C188.553 4.92652 196.724 2.58252 206.129 1.03452C212.156 0.04252 226.288 -0.37748 227.078 0.41252C227.28 0.61352 229.511 1.15552 232.037 1.61552C234.562 2.07652 238.012 2.80352 239.703 3.23152C244.791 4.52152 255.595 9.73752 260.34 13.1955C261.926 14.3505 264.319 16.0845 265.659 17.0465C270.823 20.7575 275.685 26.0005 278.331 30.7105C278.906 31.7355 280.277 33.7125 281.378 35.1045C282.479 36.4975 283.38 38.1225 283.382 38.7165C283.384 39.3105 283.715 40.4285 284.117 41.2005C284.732 42.3785 284.879 46.0955 284.433 49.1715C284.279 50.2385 282.965 49.3065 282.21 47.5935C281.736 46.5195 280.838 44.8885 280.214 43.9685C279.591 43.0485 278.107 40.4675 276.916 38.2325C275.114 34.8495 273.611 33.0455 267.94 27.4555C262.159 21.7575 254.911 16.0465 253.461 16.0465C253.249 16.0465 252.074 15.4255 250.852 14.6665C248.892 13.4495 242.947 10.7575 240.129 9.81152C239.056 9.45052 236.009 8.75352 232.379 8.03652C231.141 7.79252 229.004 7.31352 227.629 6.97252C222.083 5.59552 204.472 6.53252 198.879 8.50152C198.191 8.74352 195.266 9.67452 192.379 10.5715C183.745 13.2535 179.927 15.3255 169.966 22.7365C165.632 25.9605 163.374 28.4075 157.973 35.7295C155.973 38.4405 152.968 43.7845 151.863 46.5935C151.279 48.0805 150.509 49.9715 150.152 50.7965C147.6 56.6975 146.26 64.8245 146.542 72.6825C146.781 79.3295 147.271 83.8685 147.878 85.0465C148.091 85.4585 148.423 87.3985 148.616 89.3565C148.966 92.9015 148.961 92.9195 147.471 93.9815C146.648 94.5675 145.896 95.0465 145.799 95.0465C145.702 95.0465 145.321 94.3155 144.951 93.4215Z" fill="white"/>
</svg>
