<svg width="411" height="304" viewBox="0 0 411 304" fill="none" xmlns="http://www.w3.org/2000/svg">
<path fill-rule="evenodd" clip-rule="evenodd" d="M184.976 303.446C180.76 303.092 172.178 301.51 168.226 300.358C164.605 299.302 155.823 295.669 151.726 293.533C145.94 290.515 143.279 288.826 137.8 284.698C130.754 279.389 130.134 278.886 125.639 274.845C123.349 272.786 119.901 269.86 117.976 268.341C116.051 266.823 114.15 265.188 113.752 264.707C112.821 263.585 103.651 258.985 97.298 256.454C91.808 254.266 85.715 252.57 77.476 250.935C74.451 250.334 70.626 249.533 68.976 249.155C67.326 248.777 63.838 248.122 61.226 247.7C58.614 247.278 55.239 246.577 53.726 246.143C52.213 245.708 49.064 244.949 46.726 244.455C40.539 243.149 35.924 241.287 29.396 237.465C25.866 235.398 17.178 226.818 14.42 222.675C10.087 216.166 7.02695 207.936 5.68295 199.175C4.86295 193.83 4.84695 178.953 5.65795 175.425C6.00595 173.913 6.50995 171.55 6.77895 170.175C7.96695 164.098 9.92295 158.14 12.649 152.291C13.516 150.429 14.226 148.693 14.226 148.432C14.226 148.172 13.335 146.58 12.246 144.896C7.52495 137.591 3.39295 126.759 1.19495 115.925C0.189954 110.971 0.0249533 108.653 0.00195326 99.1746C-0.0230467 88.5656 0.170951 86.5376 1.81795 80.1746C4.01595 71.6876 7.87495 66.8296 16.516 61.6746C18.36 60.5746 21.524 58.6096 23.548 57.3086C28.061 54.4076 43.507 46.6006 55.976 40.9176C57.351 40.2906 60.164 39.0036 62.226 38.0566C69.786 34.5876 72.671 33.3126 79.476 30.4376C82.226 29.2756 85.432 27.8976 86.601 27.3746C90.475 25.6426 93.457 24.3266 94.976 23.6796C95.801 23.3286 97.5419 22.5646 98.8459 21.9826C100.149 21.4006 101.323 20.9246 101.456 20.9246C101.588 20.9246 102.888 20.3796 104.345 19.7136C105.801 19.0466 108.209 18.0226 109.694 17.4366C111.18 16.8516 113.314 15.9566 114.436 15.4486C115.558 14.9406 118.951 13.4826 121.976 12.2106C125.001 10.9376 127.926 9.70259 128.476 9.46559C129.026 9.22959 130.939 8.41959 132.726 7.66559C134.513 6.91259 136.988 5.84159 138.226 5.28659C142.459 3.38859 149.749 0.955589 152.168 0.634589C154.779 0.288589 156.726 0.953588 156.726 2.19259C156.726 3.14759 156.792 3.13959 161.476 1.66459C166.497 0.0835918 172.77 -0.442409 176.619 0.395591C190.31 3.37659 199.825 10.7366 206.737 23.6946C209.496 28.8666 210.383 30.9806 213.972 40.9246C215.69 45.6846 217.022 50.6716 217.712 54.9246C218.047 56.9866 218.513 59.7996 218.748 61.1746C219.575 66.0036 219.821 77.1296 219.24 83.3596C218.605 90.1696 216.976 97.3246 215.185 101.179C213.62 104.544 210.808 108.925 210.212 108.925C209.946 108.925 208.097 110.451 206.103 112.316C204.108 114.182 201.576 116.311 200.476 117.048C199.376 117.786 197.801 118.965 196.976 119.668L195.476 120.948L196.726 121.942C197.414 122.489 199.101 123.596 200.476 124.401C204.283 126.632 208.335 130.504 209.987 133.49C211.345 135.945 211.471 136.582 211.459 140.925C211.442 147.471 210.321 149.605 204.633 153.917C200.924 156.729 188.551 163.222 180.226 166.724C178.988 167.245 175.051 169.101 171.476 170.849C164.534 174.245 158.497 177.123 153.539 179.401C148.061 181.918 137.501 186.949 136.476 187.53C135.926 187.842 130.751 190.498 124.976 193.432C115.672 198.16 108.942 200.921 106.712 200.927C106.307 200.928 105.239 201.378 104.339 201.927C103.439 202.476 102.13 202.925 101.431 202.925C100.732 202.925 99.729 203.156 99.203 203.438C97.863 204.155 91.965 204.128 88.976 203.392C84.15 202.203 81.723 200.533 75.226 193.926C71.055 189.685 67.562 186.656 64.726 184.82C58.024 180.481 57.76 180.386 52.053 180.241C47.18 180.118 46.725 180.01 42.568 177.998C39.505 176.516 37.161 174.903 34.714 172.594L31.226 169.304L30.4959 171.049C30.0949 172.01 29.5199 175.356 29.2179 178.485C28.9169 181.615 28.5599 184.551 28.4269 185.011C27.7719 187.261 30.224 197.772 32.873 204.072C34.635 208.26 35.4409 209.489 38.4539 212.573C41.5539 215.746 48.073 220.925 48.966 220.925C49.144 220.925 50.6809 221.588 52.3829 222.397C57.7069 224.931 65.487 227.302 75.476 229.434C79.334 230.257 82.9789 231.158 86.3179 232.114C89.2499 232.953 98.358 234.425 100.618 234.425C101.409 234.425 103.613 234.954 105.516 235.601C107.419 236.248 110.101 237.047 111.476 237.376C118.222 238.993 130.595 246.798 145.867 259.071C157.682 268.566 171.18 275.61 180.476 277.131C181.576 277.311 184.388 277.784 186.726 278.183C196.03 279.769 212.598 278.956 223.855 276.36C226.397 275.774 229.677 275.115 231.146 274.897C232.614 274.678 234.189 274.163 234.646 273.752C235.102 273.342 237.241 272.072 239.399 270.931C245.25 267.835 249.049 265.424 254.703 261.216C257.505 259.131 260.102 257.425 260.474 257.425C261.261 257.425 262.409 256.012 265.549 251.175C266.799 249.25 268.119 247.338 268.483 246.925C269.615 245.64 276.226 232.539 276.226 231.58C276.226 231.08 276.82 229.097 277.546 227.173C279.814 221.161 280.136 221.573 271.463 219.411C262.53 217.184 251.211 213.436 247.001 211.312C237.238 206.386 231.478 200.462 228.041 191.814C226.375 187.622 225.726 184.268 225.726 179.853C225.726 176.456 226.778 168.044 227.686 164.175C227.945 163.075 228.39 161.163 228.676 159.925C229.891 154.667 235.483 131.833 238.044 121.675C239.569 115.625 240.995 109.888 241.212 108.925C241.429 107.962 242.299 104.587 243.145 101.425C243.991 98.2626 244.83 95.1126 245.009 94.4246C245.188 93.7366 245.99 90.9246 246.791 88.1746C247.592 85.4246 248.451 82.3876 248.699 81.4246C248.947 80.4616 249.607 77.9836 250.166 75.9166C250.726 73.8496 251.85 69.5716 252.665 66.4106C253.48 63.2486 254.866 58.4146 255.743 55.6686C261.653 37.1756 264.184 32.3136 271.418 25.5516C275.334 21.8906 276.996 20.9686 282.726 19.2786C289.47 17.2906 295.389 16.6726 307.476 16.6956C318.58 16.7176 319.261 16.7846 334.726 19.3846C343.038 20.7816 359.066 24.5546 362.476 25.9176C363.301 26.2466 366.226 27.1896 368.976 28.0106C376.288 30.1956 383.06 32.7106 386.476 34.5076C392.004 37.4166 396.082 40.3686 396.729 41.9316C397.069 42.7526 397.489 43.4536 397.662 43.4886C397.835 43.5236 398.452 43.6036 399.033 43.6666C400.538 43.8306 400.838 44.0786 403.172 47.1046C407.172 52.2896 408.246 55.2396 409.567 64.6746C410.197 69.1766 410.236 71.1316 409.781 75.4476C409.476 78.3476 409.226 82.9346 409.226 85.6396C409.226 88.3456 409.012 91.9356 408.75 93.6166C408.488 95.2986 408.029 99.1496 407.73 102.175C407.43 105.2 406.979 109.138 406.727 110.925C406.475 112.712 406.007 116.2 405.688 118.675C405.368 121.15 404.781 125.087 404.383 127.425C403.985 129.763 403.46 132.913 403.216 134.425C402.526 138.692 401.922 141.77 400.763 146.925C400.176 149.538 399.491 152.842 399.242 154.267C398.993 155.693 398.428 158.393 397.986 160.267C397.035 164.298 396.62 166.095 395.174 172.425C394.577 175.038 393.538 179.312 392.865 181.925C392.192 184.538 391.435 187.515 391.183 188.541C390.038 193.204 386.16 202.581 384.718 204.175C383.971 205 382.612 207.103 381.697 208.849C379.997 212.094 376.225 216.236 373.837 217.48C373.104 217.862 371.86 218.902 371.072 219.79C368.527 222.66 361.219 225.584 359.896 224.261C359.435 223.801 361.218 221.902 362.74 221.232C365.293 220.107 368.705 217.648 369.026 216.701C369.207 216.166 370.98 213.902 372.965 211.672C376.436 207.77 380.226 202.423 380.226 201.428C380.226 201.165 380.897 199.485 381.717 197.694C383.09 194.698 384.594 190.282 385.726 185.925C385.976 184.962 386.616 182.712 387.147 180.925C388.832 175.26 393.371 156.223 394.27 151.05C394.521 149.606 394.941 147.244 395.204 145.8C395.467 144.356 396.163 140.475 396.75 137.175C397.337 133.875 398.037 130.05 398.306 128.675C398.574 127.3 398.978 124.825 399.203 123.175C399.429 121.525 400.188 116.687 400.892 112.425C401.595 108.163 402.414 102.65 402.712 100.175C403.01 97.6996 403.472 94.4236 403.74 92.8946C404.255 89.9486 404.409 84.0746 403.959 84.5246C403.682 84.8026 403.325 86.2296 400.737 97.4246C399.878 101.138 398.525 106.763 397.728 109.925C396.932 113.087 396.013 117.025 395.687 118.675C395.361 120.325 394.704 123.363 394.226 125.425C393.748 127.487 393.081 130.525 392.744 132.175C391.545 138.034 389.117 147.726 387.985 151.175C387.353 153.1 386.688 155.575 386.508 156.675C386.217 158.452 385.331 162.409 383.654 169.425C383.358 170.663 382.68 172.913 382.146 174.425C381.613 175.937 380.535 179.65 379.75 182.675C378.478 187.579 377.381 191.39 375.648 196.925C374.503 200.58 370.779 207.781 368.69 210.379C363.655 216.639 353.412 220.781 343.7 220.483C337.43 220.291 322.858 219.067 312.726 217.881C309.839 217.543 306.688 217.246 305.726 217.22C304.045 217.177 303.977 217.244 304.013 218.917C304.048 220.578 304.153 220.678 306.263 221.05C314.573 222.515 332.044 225.047 339.726 225.9C344.741 226.456 346.726 226.893 346.726 227.441C346.726 228.813 320.225 228.608 312.726 227.178C307.842 226.247 303.138 225.432 302.621 225.428C302.426 225.426 302.004 226.381 301.684 227.55C299.493 235.545 298.24 238.799 294.566 246.042C289.899 255.241 289.06 256.544 281.932 265.665C272.134 278.203 258.161 288.903 246.417 292.861C244.799 293.406 242.389 294.318 241.061 294.888C236.613 296.796 225.139 300.398 220.283 301.411C210.69 303.413 195.215 304.304 184.976 303.446ZM208.842 297.391C219.576 295.815 221.474 295.449 227.976 293.695C238.318 290.905 248.959 286.046 258.103 279.937C270.111 271.913 276.736 264.941 285.688 250.904C287.631 247.857 291.553 239.271 293.215 234.425C293.828 232.637 294.505 230.725 294.721 230.175C296.712 225.088 296.51 223.462 294.007 224.413C292.967 224.809 292.713 225.154 292.981 225.807C293.387 226.796 293.414 227.079 293.305 229.239C293.206 231.205 291.184 232.264 289.068 231.46C287.578 230.893 287.333 230.183 288.476 229.744C289.639 229.298 289.369 228.698 287.725 228.078C285.786 227.346 286.151 226.436 288.861 225.247L290.976 224.32L289.363 223.626C288.476 223.244 287.037 222.874 286.164 222.804C284.596 222.676 284.57 222.712 283.862 225.925C282.366 232.713 278.019 241.556 272.558 248.925C267.507 255.74 264.853 258.713 261.726 261.057C260.214 262.191 258.301 263.723 257.476 264.461C253.674 267.864 246.258 272.103 241.295 273.709C239.82 274.186 238.071 275.08 237.407 275.695C236.743 276.31 235.7 276.924 235.088 277.059C234.477 277.195 231.726 278.111 228.976 279.096C221.808 281.663 218.898 282.287 205.226 284.187C188.032 286.577 170.45 282.861 155.051 273.584C151.227 271.28 141.632 264.052 136.976 259.967C132.453 255.999 122.391 249.075 115.756 245.364C108.881 241.52 104.059 239.577 94.976 236.992C90.851 235.817 86.801 234.615 85.976 234.319C85.151 234.023 81.551 233.602 77.976 233.382C70.665 232.932 66.999 232.337 60.476 230.54C46.564 226.708 36.0679 220.568 33.4809 214.747C32.8519 213.332 31.669 211.685 30.852 211.087C28.89 209.65 26.057 203.739 24.782 198.425C22.803 190.176 22.8149 180.621 24.8159 171.675C26.4709 164.276 30.855 153.988 34.311 149.393C35.228 148.173 36.848 145.898 37.91 144.337C40.625 140.348 48.79 132.495 53.141 129.689L56.806 127.325L56.464 124.835C55.991 121.401 54.001 115.267 53.281 115.027C50.99 114.263 39.215 122.801 31.92 130.516C28.832 133.782 22.861 142.684 20.174 148.029C18.952 150.459 17.9129 151.925 17.4119 151.925C16.8049 151.925 16.675 152.26 16.877 153.3C17.039 154.137 16.453 156.926 15.378 160.425C14.407 163.587 13.061 168.875 12.388 172.175C11.267 177.676 11.184 179.006 11.393 188.175C11.626 198.365 12.004 200.815 14.485 208.175C18.165 219.093 27.04 229.192 38.47 235.464C41.16 236.941 42.516 237.527 48.476 239.789C52.525 241.325 60.99 243.189 68.476 244.192C78.599 245.549 83.171 246.354 90.226 248.02C98.69 250.02 108.742 254.189 113.983 257.872C115.629 259.029 118.535 261.033 120.441 262.326C122.347 263.618 125.948 266.475 128.443 268.675C148.418 286.291 161.839 293.206 183.726 297.158C188.312 297.986 203.811 298.13 208.842 297.391ZM298.377 219.55C298.493 219.344 298.737 218.553 298.918 217.792C299.194 216.639 299.05 216.333 298.056 215.955C296.956 215.537 288.362 213.925 287.232 213.925C286.648 213.925 285.128 217.361 285.468 217.912C285.598 218.122 287.249 218.446 289.138 218.632C291.027 218.818 293.226 219.166 294.024 219.405C295.879 219.96 298.106 220.034 298.377 219.55ZM280.506 214.868C280.949 214.011 281.123 213.148 280.894 212.95C280.664 212.752 275.639 211.403 269.726 209.952C257.646 206.988 249.881 204.55 245.541 202.36C242.42 200.785 241.172 200.859 243.194 202.499C247.438 205.939 254.557 208.963 267.476 212.813C269.401 213.387 272.776 214.411 274.976 215.09C277.176 215.768 279.139 216.346 279.338 216.374C279.537 216.402 280.063 215.724 280.506 214.868ZM349.327 215.487C349.959 215.246 351.573 214.789 352.913 214.472C360.004 212.795 364.534 208.985 367.873 201.891C372.088 192.932 378.208 173.272 383.192 152.675C384.323 148 385.469 143.484 385.737 142.64C386.006 141.795 386.226 140.754 386.226 140.326C386.226 139.898 386.563 139.267 386.976 138.925C387.389 138.583 387.726 137.838 387.726 137.271C387.726 136.703 388.047 134.875 388.439 133.207C389.198 129.979 391.825 118.659 392.971 113.675C393.351 112.025 394.154 108.312 394.755 105.425C395.356 102.538 396.048 99.2746 396.293 98.1746C396.538 97.0746 396.965 94.7116 397.244 92.9246C397.522 91.1376 398.063 88.3246 398.445 86.6746C400.794 76.5416 401.847 63.9356 400.766 58.8946C400.039 55.5026 397.601 50.5426 395.394 47.9646C393.699 45.9846 387.946 41.8106 385.226 40.5886C372.518 34.8766 364.924 32.5096 346.976 28.6626C332.473 25.5546 328.179 24.8276 317.548 23.6756C305.066 22.3226 291.639 23.0226 284.237 25.4106C278.32 27.3196 272.694 31.7656 269.35 37.1746C267.208 40.6386 263.87 49.4446 260.726 59.9246C259.86 62.8126 258.157 68.3246 256.941 72.1746C255.726 76.0246 254.52 80.1866 254.262 81.4246C254.004 82.6626 253.085 86.1496 252.22 89.1746C251.355 92.1996 250.522 95.1246 250.368 95.6746C250.215 96.2246 249.609 97.1246 249.022 97.6746C248.335 98.3186 247.67 100.011 247.154 102.425C246.713 104.487 245.545 109.301 244.558 113.121C243.238 118.234 242.842 120.635 243.06 122.221C243.326 124.162 242.139 130.716 240.76 134.925C240.534 135.613 240.106 137.3 239.807 138.675C239.509 140.05 238.613 143.875 237.816 147.175C237.019 150.475 236.092 154.525 235.756 156.175C235.42 157.825 234.946 160.075 234.703 161.175C234.46 162.275 234.015 164.525 233.714 166.175C233.414 167.825 232.922 170.347 232.622 171.78C231.959 174.945 232.384 180.725 233.554 184.445C234.492 187.428 236.7 191.001 238.7 192.774C241.111 194.91 248.485 198.344 255.476 200.585C268.342 204.711 269.96 205.1 288.226 208.466C289.738 208.745 291.988 209.172 293.226 209.416C298.468 210.448 318.026 213.607 325.695 214.661C328.841 215.093 331.522 215.554 331.653 215.686C332.085 216.117 348.15 215.936 349.327 215.487ZM105.019 197.364C107.142 197.476 108.633 196.743 114.885 192.515C120.769 188.535 132.637 182.454 158.476 170.177C165.209 166.978 169.183 165.121 173.226 163.286C182.682 158.991 199.982 150.17 201.417 148.91C203.568 147.021 205.226 143.537 205.226 140.906C205.226 137.391 202.629 133.454 198.505 130.716C197.059 129.756 194.885 128.159 193.676 127.167C192.466 126.175 191.08 125.04 190.595 124.644C189.609 123.839 188.421 123.705 188.02 124.355C187.75 124.79 181.554 127.605 172.476 131.416C169.726 132.57 166.126 134.146 164.476 134.918C159.781 137.114 157.113 138.287 154.226 139.425C151.296 140.58 148.55 141.789 143.976 143.939C142.326 144.714 139.742 145.833 138.235 146.425C136.727 147.018 134.308 148.047 132.86 148.714C131.411 149.38 128.988 150.487 127.476 151.175C121.556 153.866 119.296 154.909 114.556 157.137C111.85 158.409 108.812 159.792 107.806 160.21C103.029 162.196 101.603 162.854 96.476 165.443C93.451 166.971 89.822 168.711 88.412 169.311C87.002 169.91 84.598 171.418 83.071 172.663C81.543 173.907 80.1869 174.925 80.0569 174.925C79.9259 174.925 79.9369 174.475 80.0809 173.925C80.3709 172.817 80.1309 172.71 78.8439 173.37C75.1889 175.245 67.66 177.939 66.101 177.93C64.764 177.922 65.059 178.874 66.601 179.541C69.65 180.859 74.249 184.365 79.226 189.166C87.362 197.014 89.816 198.086 98.476 197.577C101.226 197.415 104.171 197.319 105.019 197.364ZM60.29 172.595C63.09 170.867 64.468 170.713 63.901 172.191C63.195 174.029 66.876 172.591 82.226 165.034C88.964 161.717 96.501 158.062 98.976 156.911C101.451 155.761 105.051 154.079 106.976 153.174C112.011 150.807 116.602 148.694 119.476 147.421C122.366 146.14 125.579 144.683 130.364 142.483C132.227 141.626 133.852 140.925 133.976 140.925C134.1 140.925 135.675 140.25 137.476 139.425C139.277 138.6 140.838 137.925 140.944 137.925C141.05 137.925 142.788 137.161 144.806 136.227C146.825 135.294 150.164 133.805 152.226 132.919C156.369 131.139 159.143 129.916 163.116 128.119C164.568 127.462 165.841 126.925 165.945 126.925C166.049 126.925 168.236 125.943 170.805 124.743C175.641 122.485 178.862 121.02 182.726 119.323C195.429 113.743 200.92 110.714 204.004 107.588C206.898 104.654 210.542 97.0946 211.675 91.6746C211.962 90.2996 212.429 88.1186 212.712 86.8286C213.371 83.8216 213.381 66.5996 212.727 62.9546C212.452 61.4256 211.876 58.0836 211.448 55.5276C211.019 52.9716 210.118 49.1486 209.447 47.0336C208.775 44.9176 208.226 42.9876 208.226 42.7436C208.226 42.1206 205.061 35.0326 202.352 29.5856C194.189 13.1806 180.652 4.92459 161.916 4.92459C158.819 4.92459 156.164 4.72759 156.015 4.48759C155.866 4.24759 153.209 5.32259 150.11 6.87659C144.563 9.65859 141.369 11.1326 132.476 15.0136C130.001 16.0946 127.301 17.2856 126.476 17.6606C125.651 18.0356 122.613 19.2806 119.726 20.4276C116.839 21.5746 113.288 23.0556 111.836 23.7186C110.384 24.3816 108.975 24.9246 108.704 24.9246C108.434 24.9246 107.822 25.1466 107.344 25.4176C106.298 26.0126 92.7879 31.9246 92.4749 31.9246C92.2409 31.9246 88.717 33.4916 82.936 36.1656C80.989 37.0666 78.851 37.9696 78.186 38.1736C77.52 38.3776 76.076 38.9406 74.976 39.4256C73.876 39.9106 71.288 41.0396 69.226 41.9346C67.164 42.8306 63.226 44.6266 60.476 45.9266C57.726 47.2266 54.351 48.8016 52.976 49.4256C42.056 54.3856 24.731 63.0086 24.728 63.4856C24.727 63.6566 26.47 63.9086 28.601 64.0456C32.668 64.3076 35.33 65.0726 40.72 67.5286C55.382 74.2086 68.849 95.0136 73.664 118.425C75.066 125.239 75.333 128.294 75.334 137.519C75.334 148.051 74.98 150.613 72.795 155.895C71.649 158.664 71.237 159.173 69.85 159.533C68.964 159.762 66.6039 161.179 64.6069 162.68C57.4579 168.053 50.2859 169.509 45.2879 166.601C44.0159 165.862 41.384 163.72 39.438 161.841C37.492 159.962 35.753 158.425 35.573 158.425C35.161 158.425 33.226 162.18 33.226 162.98C33.226 163.828 38.486 168.743 41.674 170.873C46.253 173.932 49.392 174.909 53.699 174.618C56.841 174.405 57.869 174.089 60.29 172.595ZM53.279 161.093C54.271 160.939 55.525 161.05 56.067 161.34C58.75 162.776 65.209 157.219 68.174 150.925C69.434 148.253 69.469 147.9 69.447 138.425C69.427 129.912 69.255 127.84 68.095 122.096C65.728 110.381 62.11 100.812 56.213 90.6746C52.38 84.0866 44.384 76.5766 37.419 73.0236C30.83 69.6616 22.095 68.7546 16.645 70.8666C11.182 72.9836 7.34995 79.5986 5.74995 89.6746C5.44395 91.5996 4.94695 94.3286 4.64495 95.7396C4.34195 97.1506 4.21495 98.9506 4.36095 99.7396C4.50695 100.529 4.97995 103.425 5.41095 106.175C5.84295 108.925 6.44595 112.075 6.75195 113.175C7.05795 114.275 7.49895 115.962 7.73195 116.925C8.81795 121.415 10.492 126.391 12.813 132.029C14.205 135.409 15.613 138.902 15.942 139.791C16.271 140.679 16.6819 141.548 16.8549 141.72C17.0269 141.893 17.985 140.758 18.983 139.197C20.633 136.619 20.735 136.26 20.101 135.267C19.268 133.963 16.884 128.056 15.948 124.977C15.581 123.768 15.029 120.618 14.722 117.977C14.414 115.336 13.963 112.682 13.719 112.08C12.677 109.512 12.103 100.289 12.699 95.6896C13.656 88.3036 15.804 83.7646 19.776 80.7366C24.258 77.3186 28.739 76.9756 34.448 79.6136C42.744 83.4466 48.487 89.4386 54.394 100.425C57.504 106.21 58.811 109.866 61.298 119.744C63.313 127.746 63.422 128.556 63.448 135.675C63.47 141.627 63.3109 143.485 62.6769 144.675C62.2369 145.5 61.4499 147.064 60.9269 148.152C58.8089 152.555 55.505 154.925 51.486 154.925C48.769 154.925 46.192 153.463 43.626 150.465C42.666 149.343 41.744 148.425 41.577 148.425C41.41 148.425 40.5609 149.461 39.6909 150.727L38.1069 153.028L41.292 156.284C44.616 159.684 48.738 162.084 50.476 161.633C51.026 161.49 52.287 161.247 53.279 161.093ZM53.076 149.116C53.681 148.954 54.971 147.664 55.943 146.248C57.592 143.848 57.733 143.335 58.039 138.623C58.26 135.214 58.1909 133.463 57.8279 133.238C57.2599 132.887 52.461 136.552 51.528 138.048C51.127 138.691 51.1479 139.185 51.6049 139.916C52.3449 141.102 52.4159 142.749 51.7439 143.164C51.2239 143.485 49.504 141.983 49.109 140.863C48.808 140.009 46.58 141.509 45.007 143.622L43.976 145.008L45.156 145.966C45.806 146.494 47.105 146.925 48.044 146.925C49.404 146.925 49.847 147.179 50.226 148.175C50.716 149.465 51.191 149.622 53.076 149.116ZM25.226 130.495C25.226 130.259 26.1659 128.998 27.3139 127.693L29.403 125.321L28.504 122.998C28.01 121.72 27.289 119.325 26.902 117.675C26.515 116.025 25.998 114.225 25.752 113.675C25.048 112.104 24.515 107.006 24.655 103.192C24.88 97.0776 28.648 91.9246 32.894 91.9246C34.883 91.9246 36.707 92.4766 41.596 94.5596C43.587 95.4076 45.353 95.9646 45.519 95.7976C46.004 95.3136 42.955 91.2106 40.511 89.0606C37.417 86.3356 32.96 84.1056 29.951 83.7736C23.68 83.0826 19.159 88.2046 18.185 97.1046C17.94 99.3426 17.5989 101.904 17.4269 102.795C17.0879 104.549 17.965 113.236 18.727 115.675C18.985 116.5 19.6619 118.75 20.2309 120.675C21.4589 124.825 23.1979 129.425 23.8689 130.3C24.4179 131.016 25.226 131.132 25.226 130.495ZM36.2 118.907C39.188 116.42 39.216 116.374 38.419 115.158C37.379 113.571 37.8569 109.914 39.2719 108.633C40.2679 107.732 40.272 107.747 39.932 111.065C39.645 113.87 39.718 114.453 40.389 114.711C41.359 115.083 51.726 110.061 51.726 109.218C51.726 108.104 48.464 103.175 47.727 103.175C47.273 103.175 46.613 104.285 46.017 106.05C44.945 109.228 44.446 109.568 43.707 107.624C43.383 106.772 42.9559 106.422 42.4689 106.608C41.5359 106.967 41.544 106.457 42.492 105.204C43.637 103.69 43.4109 101.661 41.9939 100.733C41.3159 100.288 40.536 99.9246 40.261 99.9246C39.496 99.9246 38.624 101.867 38.021 104.912C37.634 106.864 37.222 107.713 36.601 107.831C35.931 107.959 35.726 107.66 35.726 106.551C35.726 104.986 37.087 100.473 37.792 99.6996C38.554 98.8656 38.262 98.1016 36.952 97.5046C33.919 96.1226 31.686 97.5426 30.991 101.296C30.8 102.329 30.297 103.909 29.875 104.806C29.223 106.189 29.194 107.025 29.681 110.299C30.31 114.527 32.255 121.425 32.819 121.425C33.014 121.425 34.536 120.292 36.2 118.907ZM293.065 200.05C292.944 199.844 292.956 198.944 293.092 198.05C293.362 196.274 294.863 195.759 295.434 197.245C295.972 198.648 293.771 201.254 293.065 200.05ZM333.726 198.61C328.517 197.235 325.248 193.922 323.501 188.247C322.452 184.839 322.639 182.031 324.192 177.88C325.637 174.018 328.101 171.33 331.841 169.534C337.042 167.036 338.874 166.648 341.879 167.404C348.216 168.999 351.912 172.604 353.523 178.762C355.573 186.6 349.481 196.286 341.226 198.316C337.152 199.317 336.503 199.342 333.726 198.61ZM341.586 192.874C344.068 191.495 345.058 190.588 346.719 188.175C348.426 185.695 348.896 183.65 348.447 180.655C347.71 175.738 343.075 171.985 337.691 171.946C335.233 171.927 334.673 172.124 332.925 173.621C328.238 177.632 326.72 183.974 329.214 189.116C330.195 191.138 330.835 191.756 332.937 192.713C336.165 194.181 339.135 194.236 341.586 192.874ZM271.226 177.425C270.813 177.158 269.86 176.937 269.108 176.933C267.553 176.924 264.511 176.236 259.582 174.778C255.379 173.534 253.48 171.636 253.893 169.091C254.832 163.305 258.976 161.769 267.887 163.905C270.136 164.444 273.551 165.207 275.476 165.6C282.535 167.044 283.559 168.047 283.304 173.262C283.253 174.297 282.691 175.383 281.688 176.387C280.219 177.855 279.964 177.925 276.063 177.917C273.815 177.913 271.639 177.692 271.226 177.425ZM277.935 173.622C279.102 173.174 278.897 172.06 277.478 171.13C276.179 170.279 266.902 168.221 261.726 167.635C259.222 167.352 258.693 167.429 258.429 168.118C257.865 169.586 259.139 170.264 265.104 171.67C268.334 172.432 271.651 173.231 272.476 173.445C274.363 173.935 276.903 174.018 277.935 173.622ZM338.976 154.624C327.159 153.453 317.623 151.957 297.52 148.118C278.797 144.544 268.241 140.944 265.576 137.224C262.492 132.921 261.946 130.486 262.677 124.306C263.011 121.484 263.481 118.5 263.721 117.675C264.448 115.179 265.111 112.56 267.263 103.675C268.395 98.9996 269.949 92.9246 270.715 90.1746C271.481 87.4246 272.82 82.6336 273.689 79.5286C274.558 76.4236 275.809 71.8106 276.468 69.2786C277.737 64.4036 278.929 59.9726 279.857 56.6746C281.795 49.7906 285.647 45.1026 291.054 43.0496C293.757 42.0226 294.865 41.9246 303.765 41.9246C314.122 41.9246 321.691 42.6586 329.976 44.4666C332.726 45.0666 335.876 45.7366 336.976 45.9536C340.306 46.6126 342.436 47.2346 343.727 47.9246C344.896 48.5506 344.907 48.5996 343.965 48.9676C343.421 49.1806 342.258 49.3706 341.381 49.3896C340.503 49.4086 339.626 49.6816 339.432 49.9956C339.036 50.6366 329.233 50.2546 324.624 49.4186C312.991 47.3076 296.734 46.3026 292.633 47.4416C291.62 47.7236 289.748 48.9036 288.474 50.0646C286.373 51.9786 285.949 52.7776 283.907 58.6746C277.585 76.9346 275.149 84.5176 274.51 87.9246C274.124 89.9866 273.117 94.0256 272.273 96.8996C270.402 103.275 269.786 106.333 269.198 112.175C268.949 114.65 268.504 117.913 268.208 119.425C267.913 120.937 267.547 123.915 267.396 126.041C267.144 129.585 267.231 130.096 268.443 132.164C269.17 133.404 270.375 134.723 271.12 135.095C272.702 135.883 280.962 138.569 284.226 139.357C286.223 139.839 303.429 143.13 310.726 144.425C312.238 144.693 315.951 145.357 318.976 145.901C322.001 146.444 327.401 147.351 330.976 147.917C334.551 148.482 338.695 149.165 340.184 149.435C343.792 150.088 347.927 150.055 350.265 149.354C352.685 148.629 355.487 146.331 356.461 144.272C357.091 142.94 361.897 124.871 363.203 118.925C363.414 117.962 364.388 114.025 365.366 110.175C366.345 106.325 367.634 101.038 368.231 98.4246C369.663 92.1586 370.042 90.5636 370.666 88.1746C373.952 75.6086 374.884 68.4616 373.686 65.0266C373.227 63.7076 369.479 59.9936 367.316 58.7126C366.953 58.4976 365.04 57.9116 363.066 57.4106C361.091 56.9096 358.688 56.2506 357.726 55.9466C356.764 55.6416 352.938 54.6016 349.226 53.6336C345.514 52.6656 342.296 51.6936 342.075 51.4736C341.551 50.9496 346.704 49.9246 349.86 49.9246C352.685 49.9246 361.219 52.2886 366.433 54.5146C368.381 55.3466 370.854 56.3916 371.926 56.8366C374.216 57.7856 377.448 61.6256 378.226 64.3226C379.54 68.8786 379.16 74.4176 377.021 81.9246C376.59 83.4366 376.235 85.2796 376.232 86.0196C376.229 86.7606 376.001 87.5046 375.726 87.6746C375.451 87.8446 375.226 88.4206 375.226 88.9546C375.226 89.4876 374.991 89.9246 374.703 89.9246C374.396 89.9246 374.283 89.2546 374.428 88.2996C375.135 83.6636 375.247 81.3526 374.749 81.6606C374.461 81.8386 374.226 82.5296 374.226 83.1966C374.226 83.8646 374.011 85.3696 373.749 86.5426C373.487 87.7156 372.565 92.1626 371.701 96.4246C370.026 104.687 367.676 114.031 365.224 122.175C364.177 125.655 363.744 128.087 363.802 130.175C363.905 133.923 361.392 143.816 359.413 147.452C357.664 150.666 355.214 152.729 351.976 153.715C349.411 154.497 342.538 154.977 338.976 154.624ZM312.873 123.086C312.391 121.831 315.293 119.592 321.337 116.555C327.324 113.547 329.252 113.001 330.136 114.067C330.856 114.934 329.473 116.104 323.976 119.28C315.933 123.926 313.513 124.755 312.873 123.086ZM308.127 118.8C304.293 114.396 301.392 110.429 300.728 108.681C300.229 107.368 300.292 107.081 301.249 106.306C301.847 105.822 302.535 105.425 302.778 105.425C303.02 105.425 304.427 107.056 305.903 109.05C307.38 111.044 309.436 113.687 310.474 114.925C313.12 118.083 313.539 119.155 312.724 120.679C312.357 121.364 311.785 121.925 311.453 121.925C311.12 121.925 309.624 120.519 308.127 118.8ZM332.3 114.05C332.046 113.569 331.573 110.398 331.248 107.003C330.924 103.608 330.535 100.509 330.384 100.114C330.182 99.5886 329.463 100.002 327.689 101.661C324.974 104.201 323.975 104.39 319.817 103.156C316.956 102.306 316.472 101.262 318.212 99.6876C318.978 98.9946 319.762 98.8486 321.716 99.0366C324.67 99.3206 324.689 99.3076 328.424 94.5496C329.988 92.5556 331.589 90.9246 331.98 90.9246C333.128 90.9246 333.727 92.6166 334.767 98.7926C335.305 101.993 335.878 104.739 336.039 104.893C336.52 105.356 341.437 99.6596 343.012 96.8156C344.253 94.5756 344.47 93.6426 344.444 90.6746C344.396 85.3526 342.123 82.1096 337.578 80.8836C333.108 79.6776 328.603 81.1696 324.747 85.1336C323.521 86.3936 322.253 87.4246 321.93 87.4246C321.607 87.4246 320.733 86.1346 319.986 84.5586C317.991 80.3456 316.923 79.0576 314.056 77.4136C311.116 75.7276 308.379 75.4936 305.526 76.6856C303.254 77.6356 299.791 80.7196 299.104 82.4056C297.744 85.7426 297.624 93.3076 298.925 93.6636C299.228 93.7466 301.336 94.2146 303.609 94.7036C308.24 95.6986 309.096 96.2996 308.218 97.9396C307.66 98.9826 307.451 99.0066 301.808 98.6606C298.554 98.4616 295.379 97.9986 294.626 97.6136C293.883 97.2346 292.736 96.9246 292.075 96.9246C290.917 96.9246 288.977 96.4036 286.101 95.3206C285.319 95.0266 284.726 94.4246 284.726 93.9256C284.726 92.2876 285.898 91.8876 289.663 92.2366L293.226 92.5686V89.0736C293.226 80.8086 297.664 74.1996 304.62 72.1066C311.292 70.0986 318.927 72.9376 321.753 78.4786C322.3 79.5486 322.887 80.4246 323.059 80.4246C323.232 80.4246 324.547 79.6446 325.983 78.6916C330.152 75.9246 334.78 75.2516 339.665 76.7026C347.081 78.9046 350.997 87.7106 348.289 96.0936C346.429 101.851 347.108 103.676 351.318 104.234C355.196 104.749 356.791 106.807 354.745 108.658C352.929 110.301 346.083 108.784 344.6 106.409C343.709 104.982 342.9 105.187 341.087 107.3C337.493 111.488 334.036 114.925 333.417 114.925C333.057 114.925 332.554 114.531 332.3 114.05ZM110.404 184.169C109.76 182.489 112.792 180.385 124.313 174.517C136.162 168.481 146.66 163.793 147.555 164.136C147.963 164.293 149.013 163.906 149.887 163.277C151.836 161.874 156.993 159.562 162.976 157.41C165.451 156.52 168.073 155.371 168.803 154.858C169.533 154.345 170.284 153.925 170.471 153.925C170.658 153.925 172.199 153.27 173.894 152.47C180.441 149.379 180.398 149.392 181.226 150.221C181.893 150.889 181.837 151.079 180.726 151.931C178.814 153.397 171.939 156.73 167.476 158.355C165.276 159.156 158.301 162.374 151.976 165.505C145.651 168.636 139.013 171.847 137.226 172.64C135.439 173.432 129 176.521 122.918 179.503C116.836 182.485 111.598 184.925 111.277 184.925C110.957 184.925 110.564 184.585 110.404 184.169ZM85.226 177.013C85.226 176.446 90.442 170.468 91.714 169.577C92.281 169.18 93.061 168.927 93.449 169.015C93.889 169.115 92.685 170.72 90.235 173.3C86.662 177.062 85.226 178.126 85.226 177.013ZM96.226 173.64C96.226 173.03 99.2159 169.096 100.803 167.617C102.485 166.051 105.634 164.653 106.182 165.23C106.344 165.4 105.581 166.245 104.488 167.107C103.395 167.969 101.237 169.856 99.6929 171.3C97.0629 173.759 96.226 174.324 96.226 173.64ZM146.819 149.38C147.175 148.284 156.138 144.329 160.226 143.464C161.189 143.26 162.814 142.787 163.838 142.413C164.863 142.039 165.875 141.908 166.088 142.122C166.75 142.786 164.24 144.395 161.291 145.198C159.743 145.619 157.351 146.496 155.976 147.146C154.601 147.796 152.35 148.56 150.975 148.844C149.599 149.129 148.05 149.524 147.532 149.723C146.846 149.986 146.652 149.892 146.819 149.38ZM187.726 142.909C187.726 142.265 189.151 141.683 189.608 142.14C189.795 142.327 189.616 142.689 189.212 142.945C188.244 143.557 187.726 143.544 187.726 142.909ZM166.726 137.605C166.726 137.145 168.188 136.056 170.356 134.901C171.721 134.174 173.227 133.893 175.856 133.877C178.827 133.858 179.79 133.64 181.226 132.66C184.232 130.609 190.241 129.032 190.22 130.3C190.203 131.324 178.526 137.647 177.428 137.226C177.016 137.068 176.746 136.542 176.828 136.057C177.009 134.976 176.318 135.059 171.34 136.715C167.541 137.98 166.726 138.137 166.726 137.605ZM81.226 157.377C81.226 157.076 81.936 155.557 82.804 154.002C83.672 152.447 85.037 149.848 85.836 148.226C88.064 143.706 90.63 139.925 91.47 139.925C92.569 139.925 92.3949 140.835 90.7169 143.88C89.0859 146.839 88.9 147.732 89.851 148.052C90.56 148.291 90.686 148.106 85.771 154.049C82.835 157.6 81.226 158.778 81.226 157.377ZM94.726 150.444C94.726 150.179 95.733 148.773 96.963 147.319C98.194 145.865 100.387 143.164 101.838 141.317C104.29 138.195 106.26 136.813 105.524 138.731C104.689 140.907 100.31 146.659 97.961 148.666C95.239 150.991 94.726 151.273 94.726 150.444ZM114.502 140.05C117.532 135.975 120.246 133.036 121.212 132.784C122.747 132.382 122.477 132.988 119.445 136.736C116.24 140.699 114.92 141.925 113.861 141.925C113.303 141.925 113.47 141.438 114.502 140.05ZM134.232 131.848C134.237 131.223 143.99 121.668 145.534 120.775C147.234 119.793 145.98 122.09 142.851 125.691C139.499 129.55 134.219 133.321 134.232 131.848ZM149.768 124.713C149.882 124.597 151.725 122.605 153.862 120.286C157.537 116.3 160.805 113.838 161.5 114.532C161.672 114.705 160.547 116.381 158.999 118.258C156.316 121.511 151.856 124.925 150.291 124.925C149.889 124.925 149.653 124.83 149.768 124.713ZM166.726 117.518C166.726 116.658 174.625 108.637 176.427 107.666C178.625 106.483 179.179 106.947 177.755 108.776C177.156 109.545 175.989 111.093 175.16 112.214C173.695 114.198 166.726 118.58 166.726 117.518ZM181.226 110.451C181.226 108.799 190.211 100.243 191.057 101.089C191.413 101.446 187.84 107.476 186.807 108.261C185.945 108.917 181.93 110.925 181.481 110.925C181.341 110.925 181.226 110.712 181.226 110.451ZM171.726 46.2526C171.726 45.6406 173.602 44.5356 181.726 40.3606C184.649 38.8586 186.444 38.5636 187.018 39.4936C187.505 40.2806 185.579 41.6296 181.726 43.1996C179.939 43.9276 177.167 45.0636 175.568 45.7236C172.216 47.1086 171.726 47.1756 171.726 46.2526ZM143.226 42.2206C143.226 41.7696 143.789 41.1856 144.478 40.9236C145.166 40.6626 146.685 40.0206 147.853 39.4986C149.02 38.9766 152.564 37.4836 155.726 36.1816C162.298 33.4756 165.05 32.1346 166.476 30.9456C167.026 30.4866 168.893 29.3756 170.624 28.4766C172.356 27.5766 174.381 26.5236 175.124 26.1356C176.884 25.2176 178.944 25.2326 179.721 26.1686C181.205 27.9566 179.953 28.6796 166.749 33.6686C162.199 35.3876 155.439 38.0796 151.726 39.6506C143.274 43.2286 143.226 43.2436 143.226 42.2206ZM15.226 77.7266C15.226 75.5826 20.365 71.9246 23.377 71.9246C26.399 71.9246 25.278 73.7086 20.42 76.6286C16.066 79.2456 15.226 79.4226 15.226 77.7266Z" fill="white"/>
</svg>
