<svg viewBox="0 0 548 266" xmlns="http://www.w3.org/2000/svg" width="548" height="266" fill="none">
  <path fill="white" fill-rule="evenodd" d="M276.502 238.741c-8.998-1.009-11.889-1.599-19.886-4.06-13.714-4.22-25.892-12.043-31.48-20.22-1.938-2.836-10.365-19.224-11.069-21.524-.283-.927-1.198-3.548-2.032-5.824-3.802-10.373-6.533-24.855-6.533-34.639v-6.666l-2.705-2.621c-3.196-3.095-5.227-4.202-10.327-5.628-5.497-1.538-11.194-1.405-15.468.361-2.875 1.187-3.407 1.63-4.613 3.836-1.316 2.407-1.364 2.769-1.384 10.245-.013 5.074-.287 8.958-.793 11.25-.425 1.925-1.197 5.975-1.716 9-1.377 8.023-4.94 16.055-10.755 24.25-6.376 8.984-13.575 15.171-19.489 16.75-11.619 3.101-33.508 4.109-43.964 2.023-11.914-2.376-19.676-5.382-27.536-10.661-6.472-4.348-8.311-6.029-12.318-11.259-9.247-12.068-15.143-32.25-16.464-56.353-.264-4.812-.682-9.425-.93-10.25a49 49 0 0 1-.75-2.863c-.23-1.043-.944-1.668-3.028-2.654-1.5-.709-3.717-2.252-4.927-3.429-2.174-2.113-2.205-2.19-2.558-6.426-.426-5.113.09-13 .997-15.22.646-1.583 2.905-3.158 4.53-3.158.469 0 1.617-.893 2.55-1.985 1.096-1.28 3.253-2.762 6.07-4.173 3.8-1.902 4.954-2.235 8.828-2.55 5.008-.406 5.544-.585 4.718-1.58-.89-1.072-.258-2.01 2.633-3.918 3.459-2.281 20.75-9.785 32.149-13.951 16.719-6.11 40.421-13.802 54.25-17.605 2.338-.642 6.838-1.983 10-2.98 12.442-3.92 36.609-9.712 61.371-14.71 11.132-2.247 13.344-2.547 18.75-2.54 12.119.018 15.535 1.456 37.603 15.828 5.76 3.752 14.45 10.496 17.081 13.257 2.571 2.698 3.695 6.084 3.695 11.133 0 3.597-.084 3.88-1.668 5.608-1.455 1.588-2.025 1.85-4.477 2.053-3.789.314-4.885-.036-7.969-2.546-1.45-1.18-3.986-3.048-5.636-4.151a667 667 0 0 1-7.636-5.223c-9.243-6.414-15.713-10.27-18.833-11.222-1.392-.425-3.206-.977-4.031-1.227-3.254-.985-11.562-1.176-15.355-.353-2.005.435-6.457 1.385-9.895 2.11-3.438.726-8.613 2.052-11.5 2.947a28241 28241 0 0 0-30 9.308 2518 2518 0 0 1-15.25 4.67c-4.95 1.499-20.363 6.579-34.25 11.288-21.385 7.252-25.807 8.595-28.888 8.774-3.127.182-3.777.073-4.625-.775-.543-.543-.987-1.42-.987-1.946 0-3.118 1.536-3.921 24.5-12.806 19.268-7.456 62.057-20.63 83.5-25.708 3.713-.88 9.824-2.37 13.582-3.313 4.408-1.106 8.045-1.717 10.25-1.723 1.88-.004 4.993-.342 6.918-.75 5.721-1.211 10.717-.758 17.75 1.61 7.64 2.574 17.46 8.534 29.5 17.906 2.613 2.033 4.919 3.708 5.125 3.72.889.054.262-1.663-1-2.742-9.957-8.508-28.365-20.844-35.625-23.875-1.787-.746-4.6-1.605-6.25-1.91-3.523-.647-12.777-.21-18 .852-4.729.962-27.375 6.562-41.5 10.262-21.742 5.696-23.435 6.15-29.25 7.866-1.787.527-5.05 1.457-7.25 2.068-4.222 1.17-6.753 1.999-19.25 6.295-15.084 5.184-26.293 9.115-29.75 10.433a419 419 0 0 1-8.25 3.003c-2.612.919-6.258 2.25-8.102 2.958-5.776 2.218-14.877 4.377-18.398 4.365-4.198-.014-5.992.852-10.51 5.073L44.38 93.5h19.748c15.939 0 20.143.139 21.795.722 1.422.502 3.109.633 5.523.43 11.433-.957 44.155 5.959 55.183 11.664.893.462 2.7 1.124 4.016 1.471 5.003 1.321 13.961 8.291 15.35 11.944.812 2.135 2.581 2.445 6.681 1.17 2.985-.929 4.774-1.116 10.826-1.132 7.996-.021 11.024.42 19.397 2.824l5.648 1.621 2.787-3.129c3.912-4.391 12.081-9.585 15.078-9.585.534 0 2.511-.58 4.393-1.288 5.24-1.973 23.168-4.544 35.947-5.156 10.752-.514 25.955-.113 35.25.932 19.31 2.17 29.523 4.011 43 7.751 7.178 1.992 16.107 3.799 24.77 5.012l6.02.843 6.23-2.857c3.426-1.571 13.483-6.317 22.348-10.547 8.865-4.229 16.249-7.69 16.408-7.69s2.405-1.021 4.988-2.27c2.584-1.248 6.112-2.791 7.842-3.43 1.729-.638 7.23-2.991 12.223-5.23 4.993-2.238 9.244-4.07 9.446-4.07.576 0 8.204-3.094 17.175-6.967C482.914 72.019 486.24 71 490.537 71c9.701 0 15.056 4.873 25.694 23.384 3.24 5.637 4.779 10.36 4.738 14.539-.028 2.795-.33 3.925-1.889 7.067-2.238 4.508-4.12 6.011-7.527 6.008-1.377-.001-2.926-.383-3.858-.951-1.593-.971-4.32-4.585-4.944-6.552-.192-.604-.833-1.846-1.424-2.759-.591-.914-3.062-4.707-5.49-8.431s-4.339-7.164-4.246-7.645c.092-.482.773-1.215 1.513-1.63 1.233-.692 1.524-.668 3.496.29 2.663 1.296 4.924 3.864 9.6 10.902 1.999 3.01 3.897 5.56 4.218 5.667.366.122.584-.419.584-1.452 0-2.902-6.737-14.86-13.251-23.518-1.897-2.523-5.143-4.424-7.532-4.411-.807.004-3.267.477-5.467 1.052-2.2.574-5.012 1.246-6.25 1.492s-3.488 1.128-5 1.959c-5.141 2.826-20.567 10.127-37 17.512-5.637 2.533-13.686 6.264-17.886 8.291-4.201 2.027-7.783 3.686-7.961 3.686s-1.804.661-3.613 1.469c-11.596 5.178-23.499 10.246-29.028 12.359l-3.237 1.237-5.354-.782c-7.472-1.093-8.239-1.042-9.934.653-3.999 3.999-.998 9.079 5.415 9.17 1.292.019 5.16-.138 8.598-.347 5.417-.33 6.417-.528 7.5-1.484 3.519-3.105 15.95-10.437 23.75-14.009 1.1-.504 8.3-4.006 16-7.782s16.587-7.931 19.75-9.234 7.887-3.437 10.5-4.743 5.312-2.548 6-2.76 3.275-1.341 5.75-2.51c7.162-3.382 12.765-5.341 16-5.596 2.571-.203 3.161-.084 4.125.83 2.615 2.482.157 5.999-6.531 9.346-1.977.989-6.181 3.172-9.344 4.851-4.976 2.641-10.59 5.387-27.25 13.326-1.925.917-8.675 4.175-15 7.24s-12.268 5.897-13.208 6.294-4.764 2.149-8.5 3.892c-3.735 1.744-8.672 3.942-10.97 4.886-2.299.943-5.13 2.272-6.293 2.953-2.574 1.509-10.312 4.241-12.011 4.241-1.75 0-4.467 2.581-5.652 5.371-.556 1.309-1.164 4.067-1.35 6.129-.516 5.703-2.222 15.859-3.275 19.5a457 457 0 0 0-2.249 8.198c-4.14 15.664-14.456 31.668-26.462 41.052-7.401 5.785-15.906 8.093-34.28 9.301-12.905.849-17.769.887-24 .189m33.5-12.157c9.876-2.199 14.063-3.95 19.854-8.303 3.638-2.735 4.836-4.199 9.308-11.371 5.323-8.539 7.831-15.122 11.015-28.909 2.025-8.77 2.573-14.463 2.573-26.75v-11.5L351.03 137c-3.366-5.378-4.019-5.986-9.221-8.597-12.201-6.123-41.358-10.856-67.057-10.887-25.282-.029-44.512 3.664-51.053 9.806-1.615 1.517-2.333 2.781-3.37 5.928-2.005 6.086-2.213 8.005-1.762 16.27.803 14.717 3.015 26.811 7.469 40.837 2.183 6.875 3.516 9.712 6.309 13.433 1.049 1.398 2.732 3.648 3.741 5 1.008 1.353 2.76 3.135 3.893 3.96s3.008 2.21 4.166 3.079c6.296 4.718 18.14 9.019 30.857 11.207 7.739 1.331 28.174 1.066 35-.453m-183.376-21.631c10.056-2.525 14.196-4.992 18.76-11.184 7.602-10.312 12.607-28.74 12.613-46.439.005-14.864-2.287-21.241-9.247-25.727-12.919-8.327-41.047-14.624-69-15.446-6.885-.203-10.29-.073-14.484.553-5.694.85-6.58 1.221-9.75 4.085-2.14 1.933-2.658 3.062-3.544 7.706-.342 1.787-.781 3.588-.978 4s-.174 6.375.049 13.25c.404 12.428 1.604 22.186 3.72 30.25 1.124 4.28 4.032 12.638 5.182 14.892 2.48 4.862 10.119 12.158 16.512 15.77 8.329 4.707 16.647 7.409 28.793 9.355 4.176.669 17.015.029 21.374-1.065m-78.867-91.959c1.82-1.865 1.952-2.192 1.847-4.605-.062-1.428-.336-2.82-.61-3.093-.607-.608-12.564-1.253-13.205-.711-.254.214-.511 1.753-.572 3.42-.115 3.177.527 4.494 2.194 4.498.46.001 1.539.428 2.393.95 3.506 2.137 5.532 2.02 7.953-.459m216.015 83.835c-.65-.475-.829-1.032-.611-1.901.697-2.778 10.571-16.252 20.877-28.491l7.856-9.324c5.264-6.246 9.208-10.112 10.317-10.112.415 0 .985.431 1.267.958.916 1.713-2.45 7.268-12.144 20.042-3.026 3.988-6.645 8.624-8.043 10.303a667 667 0 0 0-5.291 6.456c-6.02 7.45-9.32 10.84-11.842 12.167-1.352.711-1.276.714-2.386-.098M244.102 168.4c-.33-.33-.6-.901-.6-1.27 0-1.155 1.869-4.398 4.357-7.561 1.316-1.673 3.743-4.896 5.393-7.162 3.365-4.62 12.041-15.167 13.636-16.576 2.731-2.413 4.141 1.079 1.946 4.824-2.7 4.607-12.85 17.767-18.68 24.22-3.649 4.039-4.843 4.734-6.052 3.525M91.835 180.668c-.79-.789-.186-2.701 1.936-6.143 1.248-2.024 2.83-4.376 3.516-5.227s3.193-4.022 5.571-7.047c9.78-12.441 17.549-21.415 19.033-21.984.434-.167 1.132.041 1.552.461.684.684.65.997-.335 3.024-2.605 5.361-8.684 14.053-17.135 24.499-7.233 8.94-10.973 12.75-12.518 12.75-.707 0-1.436-.15-1.62-.333M77.76 155.529c-.405-1.275 1.025-3.944 4.437-8.278 1.515-1.925 3.975-5.075 5.466-7 1.49-1.925 4.72-5.975 7.176-9 3.853-4.746 4.667-5.5 5.938-5.5 1.383 0 1.47.117 1.415 1.897-.04 1.295-.531 2.485-1.548 3.75-.82 1.019-1.896 2.64-2.393 3.603-1.013 1.961-1.832 3.043-9.144 12.092-2.83 3.501-5.974 7.05-6.988 7.887-2.125 1.751-3.906 1.976-4.36.549" clip-rule="evenodd"/>
</svg>
