<svg width="279" height="191" viewBox="0 0 279 191" fill="none" xmlns="http://www.w3.org/2000/svg">
<path fill-rule="evenodd" clip-rule="evenodd" d="M114.026 189.89C107.4 187.369 102.323 180.059 101.126 171.316C100.811 169.016 100.462 167.043 100.35 166.931C100.238 166.819 96.1499 167.004 91.2649 167.343C82.2959 167.965 78.6519 167.758 65.6349 165.889C64.1219 165.672 61.0849 165.254 58.8849 164.961C56.6849 164.668 53.7599 164.185 52.3849 163.888C48.4559 163.039 48.4649 163.037 47.9689 164.633C46.0849 170.69 41.5599 176.138 37.3849 177.375C33.9879 178.382 28.3079 178.335 26.3609 177.284C21.2069 174.503 16.7269 166.3 16.6529 159.508C16.6359 157.934 16.5679 157.883 14.5099 157.871C7.76091 157.832 3.10291 154.716 1.60391 149.237C0.398909 144.834 -0.314093 127.883 0.135907 114.358C0.377907 107.084 0.589907 97.4889 0.606907 93.0349C0.624907 88.5819 0.862906 84.3479 1.13691 83.6279C1.41091 82.9069 1.63491 80.7889 1.63491 78.9209C1.63491 74.5529 2.94691 61.4519 3.86491 56.6539C5.83891 46.3359 9.9769 40.2469 17.4019 36.7309C19.3179 35.8239 22.3479 34.6909 24.1349 34.2129C27.2369 33.3829 30.1929 32.4359 35.1349 30.6899C37.1899 29.9639 45.3629 27.5329 49.6349 26.3769C50.5979 26.1169 53.0729 25.4439 55.1349 24.8829C57.1969 24.3219 59.6719 23.6569 60.6349 23.4069C61.5979 23.1559 63.7349 22.5839 65.3849 22.1349C69.3689 21.0509 72.2649 20.3289 82.3849 17.8939C87.0599 16.7699 91.5599 15.6539 92.3849 15.4159C94.4339 14.8229 101.395 13.1469 107.135 11.8649C109.748 11.2819 113.306 10.4699 115.043 10.0619C116.779 9.65392 119.367 9.11191 120.793 8.85791C122.218 8.60391 125.522 7.94191 128.135 7.38591C137.74 5.34291 154.366 2.56691 164.135 1.37591C174.593 0.101913 193.91 -0.380082 206.284 0.325917C238.707 2.17492 258.557 8.80692 269.016 21.2839C272.635 25.6009 275.814 32.8649 276.938 39.3829C277.151 40.6199 277.352 41.7449 277.383 41.8829C278.62 47.3029 278.846 53.0979 278.865 79.8829C278.904 135.416 277.214 158.567 272.616 165.503C270.795 168.251 266.759 170.669 262.885 171.333C256.097 172.496 253.157 172.883 251.077 172.887C249.872 172.89 247.681 173.036 246.21 173.213C243.629 173.523 243.502 173.611 242.602 175.711C240.893 179.698 235.83 183.652 230.729 184.984C227.04 185.947 225.965 186.002 223.2 185.371C218.037 184.193 213.135 180.684 213.135 178.166C213.135 177.048 216.166 177.144 218.805 178.346C223.263 180.377 225.528 180.133 229.495 177.195C232.72 174.807 232.351 174.431 227.01 174.67C224.466 174.783 217.323 175.106 211.135 175.388C197.831 175.994 177.905 176.573 169.135 176.608C162.624 176.634 148.78 175.341 142.303 174.102C140.237 173.706 138.472 173.383 138.38 173.383C138.288 173.383 137.939 174.227 137.606 175.258C136.406 178.962 134.649 181.773 131.543 184.954C128.462 188.11 127.879 188.44 122.1 190.307C119.642 191.1 116.823 190.955 114.026 189.89ZM121.091 182.661C124.268 180.656 125.858 177.887 127.877 170.847C128.89 167.317 128.924 166.709 128.373 161.847C127.134 150.898 123.769 143.995 118.885 142.383C110.953 139.765 103.992 155.605 106.681 170.152C107.341 173.724 110.095 179.702 111.833 181.334C114.856 184.174 117.983 184.622 121.091 182.661ZM33.1489 171.031C34.6979 169.963 35.3299 169.149 36.5629 166.633C39.3649 160.912 39.8219 156.223 38.3169 148.633C36.3539 138.731 32.0939 134.207 27.8269 137.494C24.1549 140.323 22.1829 145.549 21.7829 153.508C21.1999 165.138 27.5329 174.901 33.1489 171.031ZM183.385 169.631C224.36 168.52 230.976 168.22 250.385 166.591C261.084 165.693 262.299 165.412 265.267 163.145C269.257 160.098 269.914 156.754 271.012 133.883C272.116 110.889 272.137 61.6469 271.049 50.4919C270.639 46.2899 270.097 42.6569 269.844 42.4199C269.587 42.1779 268.067 42.1799 266.385 42.4259C264.293 42.7309 261.266 42.6239 256.385 42.0749C252.535 41.6419 247.585 41.1959 245.385 41.0839C243.185 40.9729 239.317 40.6569 236.79 40.3829C227.197 39.3439 209.089 38.7979 193.694 39.0839C175.152 39.4279 167.547 39.7669 167.061 40.2689C166.868 40.4689 166.911 42.9949 167.158 45.8829C168.278 59.0179 169.083 73.7329 169.371 86.3829C169.607 96.7029 169.878 100.73 170.456 102.527C171.36 105.33 171.078 106.518 169.563 106.293C167.726 106.02 165.662 102.899 165.136 99.5999C163.549 89.6309 162.885 74.6839 162.885 48.8829V33.1329L164.276 30.3009C167.677 23.3769 172.782 20.8699 186.135 19.5669C198.464 18.3629 223.805 19.2769 237.385 21.4159C243.267 22.3419 250.802 23.9439 252.385 24.6049C254.076 25.3109 257.135 27.7509 257.135 28.3939C257.135 29.1609 255.291 29.4179 253.826 28.8549C250.957 27.7519 240.107 26.4019 225.885 25.3779C222.035 25.1009 217.929 24.6219 216.761 24.3139C215.385 23.9509 207.706 23.7349 194.926 23.6999L175.214 23.6469L173.05 25.1959C169.618 27.6509 166.074 34.5219 167.502 35.9499C167.752 36.1999 169.001 36.0879 170.412 35.6899C171.772 35.3069 174.91 34.7409 177.385 34.4329C179.86 34.1249 183.645 33.6499 185.796 33.3779C190.859 32.7369 218.632 32.7369 226.109 33.3779C241.48 34.6949 244.971 35.0649 252.635 36.1909C262.025 37.5699 266.088 38.5019 267.904 39.6909C268.598 40.1459 269.29 40.3949 269.441 40.2439C269.892 39.7929 268.275 34.1699 266.686 30.6659C265.828 28.7739 264.083 26.2079 262.544 24.5769C256.302 17.9619 247.681 13.9649 233.135 10.9409C228.893 10.0589 226.18 9.66292 217.385 8.64492C211.078 7.91392 195.347 6.89592 190.269 6.88992C182.716 6.88092 166.605 8.17291 159.135 9.38791C157.623 9.63391 154.585 10.0789 152.385 10.3779C150.185 10.6759 147.373 11.1199 146.135 11.3639C144.897 11.6079 142.422 12.0599 140.635 12.3679C136.271 13.1209 132.311 13.8709 129.885 14.4029C128.785 14.6449 125.748 15.2879 123.135 15.8319C114.466 17.6379 103.913 19.8859 101.885 20.3579C100.785 20.6139 97.7479 21.2939 95.1349 21.8689C88.9819 23.2249 86.2899 23.8429 84.1349 24.3939C83.1719 24.6399 77.3229 26.1029 71.1349 27.6449C64.9469 29.1869 57.2969 31.1399 54.1349 31.9839C50.9729 32.8279 47.5979 33.6919 46.6349 33.9039C38.3459 35.7269 19.9089 41.6729 17.4169 43.3269C14.9329 44.9759 12.3529 48.5469 11.1279 52.0319C7.91091 61.1859 5.74291 94.6869 6.35491 125.794C6.80491 148.698 7.06691 149.821 12.5519 152.388C14.3089 153.21 15.9469 153.883 16.1909 153.883C16.4349 153.883 16.6349 153.065 16.6349 152.066C16.6349 151.067 16.8779 149.323 17.1749 148.191C17.4709 147.059 17.9429 145.233 18.2229 144.133C19.0859 140.74 21.3019 136.242 23.1009 134.23C30.7359 125.69 41.3389 131.909 43.8929 146.427C44.3009 148.74 44.6339 152.159 44.6339 154.024C44.6349 156.388 44.8369 157.492 45.3019 157.67C46.0979 157.976 50.9539 158.603 60.1349 159.587C73.6299 161.034 81.0009 161.965 86.6349 162.935C89.7969 163.479 93.5559 164.126 94.9869 164.374C96.4179 164.621 98.0679 165.08 98.6549 165.394C99.2409 165.707 99.8489 165.836 100.006 165.679C100.162 165.522 100.352 163.31 100.427 160.764C100.849 146.46 108.242 135.405 117.385 135.405C126.027 135.405 133.039 145.185 134.667 159.509C134.987 162.327 135.474 165.246 135.748 165.996C136.311 167.537 136.815 167.669 143.885 168.131C152.298 168.682 151.902 168.694 151.678 167.883C151.564 167.471 151.3 163.645 151.091 159.383C150.882 155.121 150.482 149.496 150.202 146.883C149.923 144.27 149.565 137.071 149.407 130.883C149.248 124.695 148.981 117.218 148.813 114.267C148.519 109.096 148.457 108.868 147.124 108.017C146.362 107.531 144.402 106.193 142.766 105.043C140.85 103.696 138.032 102.387 134.839 101.361C132.114 100.485 129.66 99.5569 129.385 99.2999C129.11 99.0429 128.859 97.7749 128.827 96.4819C128.796 95.1899 128.514 92.4899 128.2 90.4809C127.547 86.2929 127.356 63.2289 127.967 62.2699C128.19 61.9199 128.543 58.5959 128.753 54.8829C129.308 45.0319 129.736 42.1329 130.635 42.1329C131.722 42.1329 132.004 44.8229 132.421 59.1329C132.79 71.7969 132.011 91.7689 131.048 94.3419C130.491 95.8299 131.049 96.2459 134.135 96.6429C139.587 97.3439 146.754 100.308 147.462 102.154C147.616 102.555 148.053 102.883 148.432 102.883C149.005 102.883 149.078 101.207 148.862 93.0579C148.719 87.6549 148.497 83.0649 148.369 82.8579C148.242 82.6509 148.027 76.7779 147.892 69.8079C147.757 62.8369 147.403 54.4439 147.106 51.1579C146.18 40.9399 145.485 40.2209 136.283 39.9569C131.478 39.8189 130.135 39.6299 130.135 39.0909C130.135 38.3569 130.444 38.2679 135.885 37.4179C138.681 36.9809 139.913 37.0149 142.012 37.5829C150.256 39.8139 151.227 42.8779 153.434 73.6329C154.001 81.5379 154.318 96.3389 154.559 126.245C154.849 162.191 154.997 167.959 155.642 168.605C156.493 169.455 165.612 170.393 170.135 170.096C171.647 169.996 177.61 169.787 183.385 169.631ZM113.272 170.03C111.939 167.997 112.011 159.869 113.385 157.167C114.418 155.137 115.828 153.909 116.433 154.514C116.623 154.705 116.377 156.138 115.886 157.699C115.163 160 115.048 161.565 115.279 165.96C115.515 170.424 115.441 171.383 114.862 171.383C114.475 171.383 113.759 170.774 113.272 170.03ZM27.3149 159.096C26.7219 158.191 26.4589 156.67 26.4279 153.971C26.3909 150.7 26.5589 149.889 27.5609 148.483C28.8789 146.636 29.9709 146.611 29.7199 148.434C29.6299 149.093 29.5169 152.052 29.4699 155.008C29.3789 160.736 28.9379 161.573 27.3149 159.096ZM180.135 150.438C175.103 149.304 171.626 146.408 170.42 142.344C168.942 137.367 171.165 132.705 176.311 129.991C178.586 128.791 179.42 128.636 183.483 128.657C187.716 128.68 188.351 128.819 191.461 130.407C197.307 133.392 199.655 137.942 197.896 142.876C196.227 147.557 191.939 150.291 185.743 150.625C183.621 150.739 181.098 150.655 180.135 150.438ZM190.852 144.336C197.301 140.531 192.149 133.236 183.038 133.273C177.877 133.295 174.135 135.94 174.135 139.568C174.135 141.479 176.844 144.256 179.562 145.131C182.764 146.161 188.436 145.762 190.852 144.336ZM253.375 148.186C250.413 147.258 248.744 145.996 247.365 143.643C242.665 135.623 252.681 125.318 262.1 128.483C266.449 129.944 269.491 134.113 268.855 137.74C268.447 140.067 267.359 141.883 266.373 141.883C265.527 141.883 265.471 141.595 265.619 138.015C265.714 135.708 265.551 135.222 264.245 133.916C262.466 132.137 260.841 131.664 257.987 132.092C251.929 133 248.601 138.747 252.159 142.156C253.572 143.51 253.943 143.611 257.284 143.55C259.264 143.515 261.954 143.327 263.26 143.134C265.435 142.812 265.635 142.869 265.635 143.807C265.635 145.15 262.804 147.279 259.828 148.175C257.027 149.018 256.035 149.02 253.375 148.186ZM204.135 111.549C184.442 110.535 174.135 109.214 174.135 107.704C174.135 106.338 191.493 105.757 222.385 106.091C256.01 106.455 266.635 106.761 266.635 107.369C266.635 108.494 262.954 109.103 246.635 110.68C238.951 111.423 212.276 111.968 204.135 111.549ZM216.469 98.7579C215.249 97.0389 213.183 93.9449 211.876 91.8829C210.569 89.8209 208.087 85.9959 206.36 83.3829C204.632 80.7699 202.116 76.6079 200.769 74.1329C199.421 71.6579 197.008 67.3829 195.406 64.6329C192.091 58.9409 188.635 52.0009 188.635 51.0339C188.635 49.0989 190.527 51.2899 195.952 59.5079C202.074 68.7809 205.738 74.6389 209.632 81.3829C210.823 83.4449 212.424 86.1469 213.191 87.3869C214.954 90.2389 218.958 98.6939 219.405 100.508C219.964 102.778 218.849 102.114 216.469 98.7579ZM76.3849 99.5249C73.9099 99.4409 62.7729 99.1349 51.6349 98.8449C40.4969 98.5559 28.6109 98.1639 25.2209 97.9759L19.0579 97.6329L17.3959 95.8199C14.9359 93.1349 14.7259 89.5149 15.8599 69.3829C16.0569 65.8959 17.9359 58.6239 19.1609 56.6139C19.6689 55.7779 20.9589 54.6039 22.0269 54.0039C24.5029 52.6119 31.8789 50.8829 35.3389 50.8829C37.7019 50.8829 40.6509 50.3539 53.1349 47.6909C54.9219 47.3099 58.8599 46.7329 61.8849 46.4079C64.9099 46.0829 70.3099 45.2809 73.8849 44.6239C82.1999 43.0969 88.6259 42.1349 97.3849 41.1069C101.235 40.6559 105.397 40.0999 106.635 39.8729C110.651 39.1349 123.15 38.2749 124.948 38.6119C126.229 38.8519 126.655 39.1669 126.537 39.7869C126.373 40.6569 123.443 41.4119 113.635 43.1109C80.8989 48.7819 81.2249 48.7299 74.4899 49.3819C71.5219 49.6699 66.9099 50.3309 64.2399 50.8519C61.5699 51.3719 55.6719 52.2739 51.1349 52.8559C46.5979 53.4369 40.2969 54.4959 37.1349 55.2079C33.9729 55.9199 29.5239 56.7889 27.2499 57.1399C24.9759 57.4899 22.8109 58.0299 22.4389 58.3379C21.9839 58.7149 21.5639 61.3179 21.1569 66.2659C20.8229 70.3179 20.3809 75.0959 20.1729 76.8829C19.9659 78.6699 19.7419 83.1149 19.6769 86.7589C19.5729 92.5739 19.6609 93.4249 20.3989 93.7079C21.3789 94.0839 39.1399 92.8719 39.1249 92.4299C39.1199 92.2669 38.7889 89.2309 38.3909 85.6849C37.9929 82.1379 37.8149 78.9959 37.9959 78.7029C38.1769 78.4099 38.5069 76.2489 38.7289 73.9009C39.0949 70.0209 39.4979 66.7579 40.3979 60.3829C40.8689 57.0459 41.6439 55.3099 42.5799 55.4999C43.2739 55.6399 43.3679 56.4849 43.2619 61.6479C43.1219 68.4479 42.2329 85.6969 41.8009 89.9989L41.5129 92.8639L65.9489 93.0799C99.9639 93.3799 118.848 94.1959 124.385 95.6059C128.052 96.5389 127.911 97.5459 123.932 98.8309C120.821 99.8359 119.791 99.8779 100.78 99.7799C89.8379 99.7239 78.8599 99.6089 76.3849 99.5249ZM98.4139 89.7909C97.6819 86.4939 96.9579 80.6169 96.7729 76.4789C96.5079 70.5539 97.9119 52.8159 98.9119 49.4479C101.045 42.2639 101.918 50.0129 101.388 71.4309C100.981 87.8519 100.721 90.5549 99.5279 90.7849C98.9669 90.8929 98.5819 90.5499 98.4139 89.7909ZM67.6579 89.6609C66.6039 88.3899 65.9829 77.2579 66.6059 70.7919C68.2479 53.7419 68.8189 50.8669 70.2759 52.3239C70.8679 52.9159 70.8099 74.7669 70.2099 77.3829C69.9259 78.6209 69.5709 81.8679 69.4219 84.6009C69.1379 89.7779 68.7289 90.9509 67.6579 89.6609Z" fill="white"/>
</svg>
