<svg width="303" height="372" viewBox="0 0 303 372" fill="none" xmlns="http://www.w3.org/2000/svg">
<path fill-rule="evenodd" clip-rule="evenodd" d="M95.3375 371.015C93.0485 370.323 90.9365 368.388 89.6495 365.804C88.6295 363.757 88.4035 362.571 88.4065 359.276C88.4105 353.886 89.7115 348.756 93.7565 338.179C96.7545 330.34 97.8685 328.298 98.6945 329.124C98.8315 329.261 97.8315 332.833 96.4725 337.061C92.6085 349.085 91.5065 355.767 92.6515 360.249C94.0455 365.707 97.8765 367.883 101.839 365.467C103.873 364.227 104.903 364.507 104.903 366.299C104.903 367.994 102.077 370.739 99.8785 371.179C97.9385 371.567 97.0555 371.535 95.3375 371.015ZM105.528 364.32C105.1 362.722 105.089 361.621 105.486 360.195C106.296 357.283 105.681 349.476 104.172 343.499C102.52 336.956 99.9855 329.521 99.0285 328.405C98.1045 327.328 98.6075 323.921 99.8575 322.789C100.67 322.055 100.811 322.068 101.612 322.954C102.764 324.227 106.348 332.991 108.274 339.249C111.75 350.537 111.445 361.142 107.515 365.624C106.403 366.892 106.176 366.742 105.528 364.32ZM274.003 341.899C273.669 341.565 273.403 339.96 273.403 338.274C273.402 336.61 273.189 332.886 272.929 329.999C272.442 324.591 271.94 312.765 270.635 275.999C270.22 264.311 269.546 246.666 269.137 236.787L268.392 218.825L269.472 217.675L270.552 216.526L269.418 213.137C268.406 210.114 268.203 207.89 267.532 192.499C266.814 176.014 266.372 110.864 266.846 91.249C267.062 82.319 267.088 82.627 264.62 64.499C263.286 54.698 260.463 47.051 257.236 44.499C256.367 43.811 254.478 42.186 253.038 40.887C251.599 39.588 249.323 37.968 247.98 37.288C244.724 35.638 237.423 33.249 233.403 32.519C231.615 32.194 229.703 31.824 229.153 31.697C228.603 31.57 225.115 31.142 221.403 30.747C207.679 29.286 194.744 30.076 184.653 32.991C178.986 34.628 172.464 42.176 161.195 60.138C156.346 67.867 155.412 69.658 155.915 70.263C156.251 70.668 156.73 70.999 156.98 70.999C157.229 70.999 160.071 72.722 163.293 74.828C178.017 84.449 188.486 98.943 191.681 114.131C192.495 118 192.638 126.484 191.943 129.653C191.69 130.806 191.228 133.099 190.915 134.749C189.894 140.145 188.28 144.109 186.296 146.1C185.275 147.124 184.656 148.097 184.921 148.26C185.947 148.894 185.314 150.009 183.236 151.227C179.043 153.684 173.181 154.805 172.589 153.262C172.341 152.615 172.089 152.617 170.513 153.275C166.865 154.799 144.713 155.614 137.444 154.491C128.618 153.127 126.645 152.75 119.903 151.138C108.288 148.362 91.3355 142.979 84.3155 139.838C83.4005 139.429 81.6405 138.681 80.4025 138.176C76.2385 136.476 66.1145 131.18 62.8705 129.003C58.8465 126.304 54.5465 122.703 53.8965 121.488C53.2595 120.298 54.0905 117.999 55.1585 117.999C55.5885 117.999 58.3505 119.149 61.2965 120.554C77.5955 128.328 86.7265 132.117 99.1525 136.264C116.104 141.921 129.814 145.306 144.403 147.435C146.465 147.736 149.806 148.235 151.826 148.544C153.847 148.853 159.697 149.155 164.826 149.214C171.664 149.294 174.12 149.48 174.028 149.911C173.861 150.696 174.709 150.653 176.326 149.794C177.056 149.406 178.44 148.867 179.403 148.595C181.038 148.134 181.063 148.098 179.778 148.05C178.034 147.985 178.052 147.578 179.903 145.249C181.685 143.007 181.684 143.01 180.381 140.457C178.37 136.514 174.963 133.594 166.586 128.633C157.113 123.022 135.484 114.23 122.403 110.673C112.365 107.943 103.752 105.907 98.4025 105.001C85.9765 102.895 65.2335 102.06 59.1525 103.421C50.2545 105.412 48.2325 106.994 50.0735 110.524C50.4395 111.225 50.8845 113.25 51.0625 115.024C51.2395 116.798 51.5275 118.755 51.7015 119.374C52.2445 121.299 50.5695 120.714 47.6605 117.962C44.3735 114.854 42.9025 111.905 42.9025 108.427C42.9025 106.523 43.2025 105.436 44.0425 104.296C44.6695 103.445 45.4655 101.624 45.8105 100.249C46.5395 97.348 49.4795 91.396 51.1855 89.368C51.8335 88.599 52.5105 87.184 52.6905 86.224C53.4935 81.944 69.0185 71.837 80.3695 68.205C82.4135 67.551 84.1745 67.105 84.2835 67.213C84.3915 67.321 82.8975 68.334 80.9635 69.464C77.7725 71.327 75.9025 73.05 75.9025 74.125C75.9025 74.347 76.5215 74.108 77.2775 73.594C92.7585 63.069 100.588 60.707 118.403 61.185C123.491 61.322 128.246 61.582 128.971 61.764C130.236 62.081 130.4 61.865 133.023 56.421C134.526 53.302 136.508 48.837 137.428 46.499C140.15 39.578 145.411 29.939 149.027 25.249C152.304 20.999 158.994 14.525 162.403 12.306C167.378 9.068 179.215 4.362 185.903 2.964C194.131 1.244 205.129 -0.0019976 212.076 2.40424e-06C217.947 0.0020024 230.132 1.112 236.653 2.239C261.767 6.58 279.891 16.746 287.152 30.564C293.042 41.772 294.186 50.628 294.892 90.499C295.162 105.761 295.501 119.374 295.646 120.749C295.79 122.124 296.24 132.699 296.647 144.249C297.053 155.799 297.511 167.386 297.664 169.999C299.123 194.847 300.016 231.984 300.18 274.706C300.305 306.998 300.523 321.264 300.895 321.494C301.449 321.836 302.559 331.574 302.619 336.613C302.648 339.067 302.464 339.665 301.33 340.799C299.85 342.279 298.903 342.053 298.903 340.219C298.903 338.794 298.505 338.669 297.656 339.83C297.116 340.567 296.901 340.442 295.726 338.714C294.156 336.403 294.086 335.332 295.345 332.863C296.226 331.134 296.261 330.238 295.881 318.882C295.659 312.209 295.242 302.699 294.956 297.749C294.671 292.799 294.201 283.124 293.914 276.249C293.626 269.374 293.058 256.211 292.653 246.999C290.768 204.205 289.419 154.783 289.406 127.999C289.392 100.2 287.95 65.042 286.387 54.389C284.613 42.303 281.101 34.003 274.933 27.32C269.047 20.942 257.516 14.968 244.91 11.765C231.684 8.404 213.731 7.093 200.499 8.522C194.202 9.202 179.266 11.841 176.483 12.764C166.295 16.146 153.465 29.464 145.43 44.999C144.505 46.786 143.374 48.811 142.916 49.499C141.75 51.25 135.403 64.261 135.403 64.901C135.403 65.19 134.85 65.861 134.174 66.393C133.063 67.267 131.791 67.387 120.799 67.648C104.976 68.025 99.3465 68.988 85.0735 73.764C77.6585 76.245 70.9085 79.879 65.4505 84.329C61.3235 87.693 49.2085 99.472 49.5375 99.8C49.8445 100.107 52.5235 99.331 55.3385 98.12C65.8955 93.577 88.3415 93.954 112.403 99.079C123.68 101.481 140.221 107.01 151.403 112.115C153.465 113.057 155.94 114.137 156.903 114.516C158.731 115.236 162.249 117.037 165.653 118.995C166.753 119.628 168.891 120.825 170.403 121.654C174.225 123.75 180.071 128.202 182.073 130.541C182.995 131.618 183.976 132.499 184.253 132.499C185.192 132.499 185.431 125.178 184.659 120.095C183.321 111.295 181.825 107.365 176.127 97.683C172.772 91.982 165.539 84.237 158.743 79.065C151.044 73.207 150.141 71.939 152.498 70.289C153.316 69.716 153.805 68.475 154.43 65.386C155.462 60.294 157.642 54.736 161.054 48.499C163 44.943 164.721 42.672 167.903 39.465C172.939 34.39 178.07 30.807 179.713 31.219C180.37 31.384 181.809 31.011 183.238 30.306C186.81 28.544 192.901 26.596 198.153 25.537C204.674 24.222 207.194 23.999 215.555 23.999C227.73 23.999 238.068 25.688 246.903 29.121C252.847 31.43 258.852 35.483 260.204 38.098C260.971 39.58 260.965 39.717 260.116 40.338C259.619 40.701 259.03 40.999 258.807 40.999C258.222 40.999 258.31 42.383 258.919 42.759C259.204 42.935 260.195 42.631 261.122 42.083C263.382 40.75 264.237 41.384 266.55 46.104C270.788 54.752 271.317 59.495 271.891 93.999C272.154 109.811 272.596 126.911 272.873 131.999C273.659 146.455 274.022 182.434 273.523 196.499C273.274 203.511 273.148 209.345 273.242 209.462C273.336 209.58 273.733 209.242 274.125 208.712C275.74 206.524 276.033 208.454 276.732 225.849C277.199 237.471 277.383 257.153 277.321 288.871C277.271 314.238 277.382 335.145 277.567 335.329C277.752 335.514 277.903 336.753 277.903 338.082C277.903 341.455 275.708 343.604 274.003 341.899ZM42.7185 317.374C42.1155 316.415 42.1095 315.585 42.6755 311.749C43.5525 305.811 47.5255 290.714 49.4245 286.11C50.0255 284.651 51.1965 284.206 52.2135 285.049C53.2085 285.875 52.9055 289.744 51.1005 299.249C48.8445 311.126 47.1075 317.221 45.7215 318.116C44.6555 318.805 43.4265 318.501 42.7185 317.374ZM0.311517 316.75C-0.287483 315.435 -0.170483 314.652 1.99252 305.499C3.10652 300.786 8.60952 286.246 9.79852 284.874C10.7305 283.799 11.5825 283.76 12.4085 284.756C13.0885 285.575 12.9315 286.63 10.6245 296.749C8.56752 305.776 5.42852 316.005 4.29652 317.374C4.01252 317.718 3.12752 317.999 2.33052 317.999C1.26952 317.999 0.728517 317.664 0.311517 316.75ZM86.2355 316.166C85.7565 315.686 85.8495 307.058 86.3935 301.499C86.8855 296.486 88.9065 287.908 90.1755 285.455C91.0675 283.729 92.6235 283.543 93.4375 285.065C94.0895 286.282 93.3935 294.558 92.0975 300.999C90.9765 306.574 88.9615 314.455 88.3785 315.543C87.8665 316.5 86.8625 316.792 86.2355 316.166ZM133.823 314.327C129.76 312.521 128.652 309.932 128.657 302.249C128.66 296.017 128.902 294.624 131.655 284.999C133.658 277.994 134.228 276.499 134.891 276.499C135.591 276.499 135.542 277.04 134.35 282.499C132.374 291.551 131.911 294.773 131.868 299.749C131.819 305.347 132.517 307.729 134.708 309.453C136.638 310.971 138.27 310.78 140.119 308.82C142.692 306.091 143.567 301.359 142.426 296.345C140.288 286.959 138.364 280.553 136.36 276.155C135.028 273.231 134.879 271.065 135.96 270.363C137.446 269.399 138.363 270.424 141.096 276.104C145.948 286.189 147.101 290.663 147.123 299.499C147.138 305.63 147.032 306.455 145.965 308.499C145.319 309.737 144.309 311.277 143.722 311.923C141.243 314.645 136.908 315.698 133.823 314.327ZM95.6575 254.326C94.9655 253.271 94.9665 252.557 95.6675 247.201C96.8205 238.381 100.11 225.704 101.699 223.948C102.509 223.053 102.625 223.045 103.484 223.822C104.858 225.066 104.674 230.044 102.939 238.563C100.72 249.458 98.5435 255.499 96.8365 255.499C96.6105 255.499 96.0795 254.971 95.6575 254.326ZM54.5025 253.899C53.0365 252.433 54.1965 245.242 57.2285 236.999C59.4335 231.006 63.2105 222.116 64.1835 220.631C65.0155 219.361 66.6515 219.125 67.0695 220.214C67.7575 222.006 62.6165 242.702 59.8935 249.101C57.7155 254.218 56.1845 255.581 54.5025 253.899ZM134.083 253.902C133.454 252.907 133.648 240.329 134.371 235.249C135.659 226.201 136.86 223.406 138.972 224.536C140.686 225.453 140.116 236.971 137.811 247.999C137.265 250.612 136.645 253.086 136.432 253.499C135.92 254.493 134.6 254.719 134.083 253.902ZM13.7295 251.085C13.2745 250.582 12.9025 249.781 12.9025 249.306C12.9025 248.002 15.8485 239.171 17.4725 235.611C18.2585 233.886 18.9025 232.363 18.9025 232.227C18.9025 231.904 23.4555 222.785 24.7985 220.416C26.6815 217.097 28.1425 215.025 28.7775 214.776C29.8445 214.357 30.9025 215.056 30.9005 216.177C30.8955 218.763 23.6595 238.83 19.8135 246.923C17.4665 251.86 15.5925 253.143 13.7295 251.085ZM141.403 200.249C140.002 198.561 141.778 176.707 143.484 174.652C144.28 173.693 145.792 173.857 146.385 174.966C147.435 176.927 146.885 184.571 144.91 195.46C143.932 200.853 142.982 202.151 141.403 200.249ZM108.503 197.399C107.076 195.972 108.493 186.616 111.644 176.666C113.661 170.297 114.831 168.401 116.096 169.451C117.832 170.893 116.356 181.59 113.052 191.499C111.074 197.434 109.97 198.866 108.503 197.399ZM74.2045 190.557C73.3425 189.604 73.3835 189.346 75.3845 183.112C76.5405 179.512 79.0505 173.467 81.0565 169.452C84.4885 162.584 84.7255 162.249 86.1535 162.249C87.3265 162.249 87.6875 162.493 87.8115 163.371C87.9915 164.638 84.3895 175.573 81.6745 181.999C77.8855 190.968 76.2615 192.829 74.2045 190.557ZM42.3465 182.825C41.9405 181.935 42.0045 181.083 42.6075 179.307C45.0195 172.201 53.7565 156.64 57.0535 153.579C58.5485 152.19 60.0905 152.323 60.3095 153.858C60.5095 155.259 55.9175 165.624 51.9555 172.712C50.2765 175.716 48.9025 178.265 48.9025 178.377C48.9025 178.488 48.0935 179.799 47.1035 181.289C45.0655 184.36 43.3045 184.928 42.3465 182.825ZM152.904 141.648C151.943 141.154 151.075 140.314 150.975 139.782C150.453 136.991 157.384 136.661 158.853 139.406C160.108 141.75 156.066 143.274 152.904 141.648ZM110.028 135.004C107.847 133.675 107.806 131.833 109.934 130.733C111.815 129.76 114.135 130.366 115.954 132.305L117.153 133.583L115.75 134.791C114.048 136.257 112.195 136.326 110.028 135.004ZM150.73 134.085C149.622 132.859 149.688 132.206 151.014 131.277C153.91 129.249 160.241 131.499 158.866 134.068C158.145 135.415 151.946 135.427 150.73 134.085ZM82.4925 126.716C79.7275 125.553 80.7055 122.499 83.8415 122.499C85.2545 122.499 87.6405 124.659 87.2765 125.607C86.7775 126.905 84.3055 127.478 82.4925 126.716ZM133.624 125.283C132.979 124.807 132.821 124.401 133.153 124.074C134.198 123.046 137.319 123.199 137.742 124.299C138.348 125.881 135.391 126.587 133.624 125.283ZM116.948 119.1C114.748 118.001 113.971 116.797 114.707 115.624C115.752 113.96 117.485 113.783 120.172 115.065C122.895 116.364 123.472 117.542 122.119 119.036C121.057 120.21 119.218 120.233 116.948 119.1ZM72.2905 116.22C70.1395 115.052 69.6695 113.732 70.9495 112.452C71.8115 111.59 72.4365 111.429 74.1655 111.624C76.5585 111.894 79.4025 113.647 79.4025 114.853C79.4025 116.857 75.0165 117.699 72.2905 116.22ZM172.468 114.121C172.21 113.638 171.525 111.219 170.947 108.746C170.369 106.273 169.417 102.948 168.832 101.358C167.023 96.439 168.896 97.039 171.518 102.219C173.407 105.949 174.389 109.501 174.397 112.624C174.403 115.139 173.421 115.901 172.468 114.121ZM151.473 105.749C149.465 104.786 147.551 103.999 147.219 103.999C146.361 103.999 133.021 98.613 130.778 97.361C128.788 96.251 128.389 95.303 129.7 94.8C130.499 94.494 137.054 95.908 141.357 97.316C143.637 98.061 144.12 98.26 149.403 100.62C150.915 101.295 152.729 101.988 153.433 102.159C155.733 102.718 158.142 104.684 158.311 106.14C158.455 107.379 158.322 107.499 156.797 107.499C155.877 107.499 153.482 106.712 151.473 105.749ZM84.6525 88.499C84.1025 88.263 82.2395 88.053 80.5115 88.034C78.1445 88.008 77.2975 87.806 77.0705 87.215C76.5355 85.822 77.7645 85.316 81.5185 85.382C89.2175 85.518 91.1305 86.232 88.9885 88.172C88.0065 89.06 86.2645 89.192 84.6525 88.499Z" fill="white"/>
</svg>
