<svg width="327" height="255" viewBox="0 0 327 255" fill="none" xmlns="http://www.w3.org/2000/svg">
<path fill-rule="evenodd" clip-rule="evenodd" d="M268.542 253.96C260.466 252.652 247.031 244.316 236.529 234.095C225.276 223.145 214.613 208.793 207.763 195.375C207.377 194.619 206.907 194 206.718 194C206.53 194 206.108 196.419 205.781 199.375C204.959 206.812 203.842 211.291 202.373 213.036C200.878 214.812 199.767 214.886 198.283 213.306C197.274 212.233 197.216 211.909 197.704 210.097C198.003 208.988 198.466 205.205 198.735 201.69C199.361 193.489 200.074 189.624 201.271 187.942C202.641 186.018 202.612 185.829 199.987 179.75C194.601 167.276 189.683 150.14 187.762 137.154C186.703 129.994 187.392 114.816 189.017 109.546C189.47 108.076 189.511 108.066 182.06 111.206C175.945 113.784 173.097 114.81 169.48 115.739C164.596 116.994 163.381 117.079 162.529 116.228C160.828 114.527 161.985 113.442 167.799 111.287C170.45 110.304 172.762 109.5 172.938 109.5C173.765 109.5 184.49 104.309 187.121 102.635C188.75 101.598 191.692 99.257 193.657 97.431C197.189 94.151 197.23 94.083 197.23 91.556C197.23 90.15 197.019 89 196.76 89C196.502 89 195.229 89.919 193.931 91.043C191.296 93.323 189.866 94 187.682 94C186.004 94 185.29 92.883 186.238 91.741C186.579 91.33 188.59 89.78 190.709 88.295C196.054 84.55 197.23 83.047 197.23 79.962C197.23 78.608 197.082 77.5 196.902 77.5C196.722 77.5 195.797 78.093 194.846 78.818C192.026 80.969 179.828 86.742 174.98 88.22C172.505 88.975 169.58 89.886 168.48 90.244C162.349 92.244 149.042 94.833 138.48 96.081C127.483 97.38 102.16 97.899 91.73 97.038C63.434 94.704 42.627 89.148 29.605 80.45C27.886 79.302 26.102 77.891 25.639 77.314C24.48 75.868 24.062 76.518 23.863 80.072L23.693 83.114L26.586 85.837C28.178 87.335 30.767 89.199 32.339 89.979C36.697 92.143 38.73 93.51 38.73 94.278C38.73 95.081 36.234 96.5 34.822 96.5C33.604 96.5 28.892 94.601 27.153 93.409C25.438 92.234 24.873 92.263 24.466 93.543C23.847 95.494 24.69 97.848 26.639 99.608C33.316 105.641 44.097 110.433 58.98 113.985C68.776 116.323 68.961 116.359 76.48 117.428C90.46 119.416 95.154 119.658 112.23 119.273C140.365 118.638 137.457 118.552 137.629 120.026C137.831 121.759 136.277 123.057 133.353 123.598C121.863 125.724 118.445 126.073 106.48 126.34C98.568 126.516 92.512 126.417 89.98 126.07C87.78 125.767 83.73 125.27 80.98 124.965C73.914 124.18 64.216 122.6 59.23 121.422C54.702 120.352 54.079 120.175 48.192 118.283C34.412 113.855 21.743 106.359 19.699 101.425C19.02 99.786 18.247 99.654 16.337 100.851C10.767 104.343 8.23 107.774 8.23 111.815C8.23 113.256 8.002 115.035 7.723 115.768C7.38 116.67 7.384 123.68 7.736 137.426C8.021 148.604 8.468 166.975 8.729 178.25C9.393 206.995 9.841 209.596 14.97 214.447C21.44 220.565 36.543 228.141 48.98 231.507C49.805 231.731 51.717 232.251 53.23 232.664C55.749 233.352 60.495 234.414 66.23 235.573C75.683 237.484 96.694 239.471 107.73 239.498C119.028 239.526 142.04 237.167 151.73 234.988C155.683 234.099 157.48 233.644 164.355 231.793C176.233 228.596 186.845 223.483 193.205 217.894C196.217 215.248 197.039 215.032 198.597 216.483C200.214 217.989 200.386 219.234 199.278 221.405C196.129 227.579 178.047 237.234 162.73 240.92C148.514 244.341 140.822 245.596 125.48 246.997C113.876 248.057 88.012 247.392 77.48 245.763C63.762 243.641 58.243 242.536 49.48 240.158C47.005 239.486 44.305 238.754 43.48 238.533C40.857 237.827 29.13 232.989 24.98 230.9C16.413 226.588 8.341 219.921 5.525 214.83C4.588 213.136 3.48 210.4 3.064 208.75C1.048 200.765 0.0939998 179.604 0.0419998 141.75L0 110.75L1.198 107.75C3.866 101.07 8.961 96.292 16.355 93.537C17.468 93.122 17.731 92.713 17.737 91.387C17.741 90.487 17.867 89.291 18.017 88.731C18.199 88.056 17.847 87.232 16.973 86.29C15.289 84.472 14.73 82.972 14.73 80.268C14.73 78.506 15.11 77.6 16.761 75.425L18.793 72.75L18.471 68C18.111 62.694 18.682 60.654 21.708 56.424C26.017 50.404 39.958 43.362 49.869 42.199C52.135 41.933 52.609 42.036 53.459 42.976C54.202 43.797 54.313 44.263 53.922 44.904C53.393 45.77 49.856 47.771 46.73 48.973C41.959 50.808 34.652 54.751 31.91 56.971C23.472 63.802 25.623 70.439 38.344 76.824C44.63 79.978 46.142 80.512 57.73 83.661C65.677 85.821 79.677 88.034 91.382 88.982C110.581 90.536 141.148 88.674 157.23 84.971C162.183 83.831 169.168 82.004 172.48 80.982C177.333 79.485 180.66 78.936 182.803 79.279C184.476 79.546 184.74 79.414 186.03 77.66C186.803 76.61 188.831 74.274 190.538 72.47C195.374 67.357 195.799 63.924 192.113 59.736C188.764 55.931 183.067 52.604 173.73 49.001C169.689 47.441 167.746 45.261 168.839 43.512C169.61 42.276 172.4 42.161 176.331 43.202C188.985 46.552 198.221 52.581 201.938 59.917C202.939 61.893 203.222 63.173 203.195 65.608C203.176 67.336 202.983 69.2 202.767 69.75C202.303 70.931 203.014 73.344 204.241 74.75C206.34 77.157 206.855 79.014 206.626 83.363C206.506 85.666 206.59 87.663 206.814 87.802C207.038 87.94 208.613 87.237 210.315 86.24C213.036 84.645 213.548 84.501 214.561 85.043C216.387 86.021 216.485 87.328 214.905 89.608C214.128 90.73 212.814 92.169 211.986 92.807C208.664 95.366 205.183 97.839 202.564 99.5C199.217 101.623 197.772 104.05 196.314 110C193.612 121.02 193.701 127.012 196.821 144.25C198.352 152.704 201.237 161.948 205.795 173C210.804 185.146 215.964 194.865 222.785 205C229.197 214.527 233.227 219.484 240.375 226.639C250.473 236.747 261.207 243.855 269.344 245.824L272.709 246.639L280.344 243.622C288.528 240.388 293.133 239.428 294.212 240.729C295.698 242.519 294.642 243.46 284.737 249.165C276.366 253.987 273.658 254.788 268.542 253.96ZM292.868 238.266C288.091 237.056 286.115 236.078 282.731 233.251C281.415 232.151 280.406 231.678 279.744 231.851C278.464 232.186 274.647 230.188 270.066 226.787C258.824 218.438 245.026 202.008 235.604 185.75C231.675 178.97 225.478 165.648 222.311 157.171C219.289 149.084 215.862 136.547 214.747 129.5C214.421 127.438 213.946 124.807 213.692 123.654C213.102 120.977 213.115 113.281 213.713 111C216.316 101.065 216.959 99.143 218.059 98C219.678 96.317 220.228 97.261 219.608 100.659C218.751 105.357 220.784 122.7 223.547 134.25C230.554 163.548 245.702 192.127 264.464 211.444C269.905 217.045 279.066 225 280.076 225C280.297 225 282.748 226.145 285.523 227.545C295.138 232.395 302.203 232.688 308.952 228.517C312.122 226.558 315.349 221.482 316.922 215.979C318.862 209.192 319.092 197.171 317.461 187.891C315.656 177.623 310.85 162.621 305.685 151.125C305.16 149.956 304.255 147.931 303.674 146.625C299.444 137.116 288.235 118.98 281.154 110.189C267.346 93.047 252.178 82.06 240.413 80.678C238.382 80.439 236.931 80.631 234.243 81.496C229.987 82.864 227.126 85.224 224.305 89.69C223.202 91.437 221.925 93.01 221.469 93.185C221.013 93.36 219.985 93.116 219.185 92.644C217.237 91.493 217.259 89.405 219.258 85.444C223.215 77.606 230.235 73.338 239.23 73.301C241.567 73.292 244.718 73.589 246.23 73.961C259.435 77.214 276.062 90.187 289.537 107.75C297.549 118.194 302.127 125.46 307.876 136.859C319.631 160.166 325.411 179.447 326.056 197.5C326.666 214.593 323.727 224.936 316.129 232.441C312.685 235.843 309.406 237.691 304.908 238.765C300.855 239.733 298.226 239.624 292.868 238.266ZM91.48 145.96C80.591 144.981 75.278 144.419 72.48 143.952C70.83 143.677 68.13 143.222 66.48 142.942C54.882 140.972 41.491 136.938 32.48 132.698C24.743 129.058 15.23 122.71 15.23 121.188C15.23 120.006 16.196 118.5 16.954 118.5C17.333 118.5 20.082 119.722 23.062 121.216C31.347 125.369 37.164 127.669 44.23 129.582C45.193 129.843 46.655 130.249 47.48 130.485C52.161 131.822 55.019 132.516 59.73 133.46C68.971 135.31 69.363 135.371 83.23 137.097C90.368 137.985 122.982 137.982 130.48 137.092C143.853 135.505 152.872 134.107 158.73 132.711C160.517 132.286 163.443 131.6 165.23 131.188C167.017 130.776 171.028 129.62 174.142 128.62C179.98 126.746 180.738 126.746 181.926 128.629C182.615 129.722 181.33 131.107 178.307 132.53C166.127 138.262 160.78 140.028 147.48 142.709C132.403 145.749 106.103 147.276 91.48 145.96ZM55.826 69.159C54.601 68.669 52.73 63.533 52.73 60.661C52.73 46.208 65.063 33.955 86.98 26.636C90.038 25.615 91.127 25.297 97.73 23.5C114.582 18.914 118.844 17.458 126.23 13.767C132.974 10.396 138.541 6.577 141.856 3.046C143.453 1.345 145.145 0 145.687 0C146.7 0 147.917 0.981999 148.686 2.418C149.145 3.275 148.542 23.326 147.936 27.366C147.671 29.134 147.756 29.5 148.429 29.5C150.022 29.5 153.53 31.537 156.703 34.304C162.267 39.157 165.03 43.326 167.263 50.239C169.295 56.529 167.789 65.178 164.125 68.262C162.455 69.666 161.133 69.838 160.244 68.766C159.759 68.183 159.823 67.545 160.557 65.641C161.233 63.89 161.472 61.98 161.449 58.5C161.414 53.209 160.475 50.075 157.612 45.697C156.108 43.399 147.423 34.5 146.683 34.5C146.496 34.5 146.191 35.515 146.005 36.754C145.119 42.664 142.074 49.27 137.77 54.62C133.091 60.436 125.815 65.428 123.835 64.181C122.009 63.032 122.58 61.959 127.616 57.077C138.129 46.883 140.956 39.539 141.985 19.75C142.142 16.725 142.392 13.631 142.54 12.875C142.688 12.119 142.662 11.5 142.482 11.5C142.302 11.5 140.877 12.463 139.317 13.64C129.511 21.036 122.348 24.228 103.23 29.72C92.636 32.763 90.053 33.545 87.98 34.333C86.88 34.752 84.98 35.435 83.757 35.85C81.116 36.748 74.838 40.039 71.855 42.088C68.459 44.421 63.098 50.03 61.613 52.803C59.527 56.7 58.568 61.075 58.973 64.854C59.411 68.944 58.477 70.221 55.826 69.159ZM101.33 51.9C99.712 50.282 101.657 48.062 107.349 45.03C116.766 40.015 127.362 31.833 131.23 26.59C132.468 24.913 133.716 23.531 134.005 23.52C134.817 23.489 135.73 24.6 135.73 25.62C135.73 26.681 134.035 30.173 132.634 32C130.354 34.972 124.311 40.665 121.023 42.938C116.772 45.876 103.781 52.5 102.269 52.5C102.083 52.5 101.66 52.23 101.33 51.9Z" fill="white"/>
</svg>
