<svg width="306" height="329" viewBox="0 0 306 329" fill="none" xmlns="http://www.w3.org/2000/svg">
<path fill-rule="evenodd" clip-rule="evenodd" d="M183.117 328.522C178.425 328.059 165.072 325.714 163.178 325.02C162.044 324.605 158.642 324.102 155.617 323.903C150.606 323.572 143.936 322.593 127.867 319.831C124.705 319.288 118.292 318.268 113.617 317.564C108.942 316.86 102.979 315.961 100.367 315.567C97.755 315.172 95.279 314.716 94.867 314.554C94.455 314.393 92.767 314.06 91.117 313.815C82.939 312.6 81.451 312.354 79.367 311.868C78.13 311.579 75.767 311.15 74.117 310.913C72.467 310.676 69.654 310.135 67.867 309.709C66.08 309.283 63.042 308.674 61.117 308.356C51.614 306.784 42.616 303.121 36.57 298.364C35.319 297.38 32.336 293.585 31.022 291.306C29.386 288.468 27.51 282.553 26.362 276.614C26.043 274.964 25.664 273.164 25.52 272.614C25.377 272.064 25.072 270.376 24.843 268.864C24.472 266.41 23.07 258.566 21.893 252.364C20.72 246.18 17.843 228.953 17.151 223.972C16.348 218.191 16.148 212.877 16.827 215.364C17.347 217.269 18.79 220.257 19.359 220.609C19.639 220.782 19.867 220.473 19.867 219.923C19.867 218.699 20.837 218.007 21.362 218.855C21.572 219.196 22.01 221.081 22.334 223.044C23.428 229.661 24.397 235.101 24.885 237.364C25.153 238.602 25.582 240.964 25.84 242.614C26.406 246.239 27.165 250.244 27.925 253.614C28.235 254.989 28.562 256.789 28.652 257.614C28.805 259.019 29.378 261.771 30.369 265.864C30.602 266.826 31.057 268.964 31.381 270.614C33.386 280.822 34.64 284.868 37.104 289.069C41.108 295.897 47.45 299.047 63.998 302.426C69.079 303.464 71.138 303.926 74.742 304.839C78.802 305.867 81.308 306.322 85.867 306.86C88.479 307.168 91.742 307.617 93.117 307.858C94.492 308.098 99.555 308.989 104.367 309.837C109.179 310.685 116.154 311.821 119.867 312.36C123.58 312.899 127.855 313.559 129.367 313.825C133.407 314.537 137.779 315.342 140.617 315.897C141.992 316.166 144.692 316.509 146.617 316.66C148.542 316.811 150.567 317.124 151.117 317.356C151.667 317.589 154.254 318.055 156.867 318.394C159.48 318.732 161.842 319.176 162.117 319.38C162.392 319.584 163.573 319.909 164.742 320.101C166.319 320.361 166.867 320.683 166.867 321.345C166.867 322.386 169.747 323.184 170.561 322.37C170.902 322.029 170.506 321.85 169.342 321.821L167.617 321.778L169.117 321.318C170.061 321.029 170.987 321.042 171.617 321.352C172.167 321.624 175.542 321.956 179.117 322.091C182.692 322.225 187.529 322.469 189.867 322.631C193.98 322.917 199.138 322.307 204.867 320.857C206.105 320.544 208.355 320.117 209.867 319.909C212.735 319.513 215.714 318.435 221.617 315.654C223.542 314.747 225.792 313.734 226.617 313.402C228.814 312.518 237.748 307.409 240.427 305.505C241.697 304.603 242.881 303.864 243.058 303.864C243.234 303.864 244.951 302.852 246.873 301.614C248.795 300.376 251.998 298.322 253.992 297.048C259.642 293.437 268.687 286.491 270.388 284.456C272.689 281.703 275.622 275.191 276.846 270.114C277.442 267.639 278.222 265.052 278.579 264.364C278.936 263.676 279.272 261.539 279.327 259.614C279.47 254.544 280.873 245.83 281.717 244.766C282.001 244.407 282.274 242.876 282.324 241.364C282.436 237.945 283.066 232.211 284.081 225.364C285.96 212.681 286.562 208.396 286.925 205.114C287.317 201.571 289.409 186.329 290.322 180.365C290.596 178.579 290.658 176.955 290.46 176.757C290.133 176.43 288.79 177.226 282.535 181.456C281.39 182.23 280.244 182.864 279.988 182.864C279.732 182.864 278.081 183.798 276.32 184.938C273.109 187.018 271.345 188.049 267.617 190.023C266.517 190.606 265.28 191.342 264.867 191.658C263.51 192.701 259.276 194.903 256.875 195.815C255.578 196.308 253.282 197.531 251.772 198.533C248.722 200.557 241.846 203.864 240.686 203.864C239.841 203.864 237.867 201.566 237.867 200.583C237.867 199.837 241.766 197.394 247.867 194.317C250.204 193.138 252.905 191.691 253.867 191.103C254.829 190.514 256.855 189.352 258.367 188.522C259.879 187.691 262.017 186.495 263.117 185.864C264.217 185.233 266.355 184.037 267.867 183.206C271.307 181.317 279.843 176.147 287.367 171.397C293.736 167.375 296.433 165.039 297.637 162.501C298.539 160.6 299.379 154.814 299.716 148.178C300.105 140.518 298.747 138.126 292.363 135.223C282.853 130.899 281.867 130.15 283.51 128.507C284.554 127.463 286.065 128.052 285.721 129.37C285.358 130.757 286.2 131.111 286.872 129.854C288.117 127.528 291.241 127.743 296.667 130.529C301.058 132.783 304.867 137.683 304.867 141.079C304.867 141.753 305.092 142.444 305.367 142.614C306.091 143.061 305.951 151.845 305.136 157.114C303.865 165.335 303.23 166.717 299.21 170.011C296.819 171.97 297.06 171.148 296.101 180.614C295.962 181.989 295.635 184.689 295.374 186.614C295.113 188.539 294.656 192.364 294.36 195.114C294.063 197.864 293.622 200.901 293.381 201.864C293.14 202.827 292.466 207.439 291.884 212.114C291.301 216.789 290.388 223.089 289.854 226.114C287.973 236.778 286.261 247.656 285.881 251.364C285.67 253.426 285.227 256.239 284.898 257.614C284.568 258.989 284.089 261.689 283.834 263.614C282.618 272.784 280.928 278.667 277.906 284.26C276.144 287.52 272.184 291.581 267.982 294.438C266.681 295.322 264.681 296.859 263.537 297.853C262.394 298.847 260.369 300.204 259.037 300.869C255.875 302.449 251.367 305.464 250.165 306.803C249.641 307.387 249.028 307.864 248.804 307.864C248.579 307.864 245.07 309.841 241.006 312.258C236.942 314.674 232.83 316.966 231.867 317.351C230.904 317.735 228.766 318.861 227.115 319.851C222.942 322.355 216.008 325.071 213.617 325.139C212.517 325.171 210.593 325.675 209.34 326.26C208.088 326.845 205.388 327.586 203.34 327.906C199.57 328.495 186.788 328.885 183.117 328.522ZM282.064 263.573C282.813 261.62 281.875 261.48 280.852 263.392C280.45 264.144 280.494 264.364 281.046 264.364C281.439 264.364 281.897 264.008 282.064 263.573ZM209.687 301.617C209.409 300.892 210.093 286.391 210.619 281.864C210.763 280.626 210.989 278.039 211.121 276.114C211.383 272.316 213.646 249.024 214.108 245.364C214.265 244.126 214.589 240.977 214.83 238.364C215.273 233.544 216.782 223.931 217.205 223.231C218.397 221.257 218.816 232.006 217.897 241.009C217.639 243.542 217.288 248.089 217.119 251.114C216.949 254.139 216.476 259.989 216.067 264.114C215.659 268.239 214.895 276.001 214.37 281.364C213.217 293.139 212.067 300.77 211.307 301.686C210.576 302.567 210.043 302.545 209.687 301.617ZM56.367 292.998C53.612 292.801 49.246 291.814 47.757 291.05C46.154 290.229 45.249 288.753 45.672 287.65C46.048 286.671 47.306 286.622 47.67 287.572C47.82 287.962 49.219 288.898 50.78 289.653C52.34 290.408 54.008 291.215 54.485 291.445C54.963 291.675 55.75 291.867 56.235 291.872C57.166 291.88 58.753 292.7 58.353 292.966C58.223 293.052 57.33 293.066 56.367 292.998ZM178.004 291.01C177.2 289.783 177.114 288.057 177.088 272.635C177.052 251.936 177.708 236.591 178.696 234.989C179.549 233.606 180.923 233.545 182.092 234.837C183.072 235.92 183.092 232.677 181.871 271.114C181.356 287.335 181.122 290.761 180.482 291.489C179.44 292.673 179.042 292.596 178.004 291.01ZM148.93 288.189C147.621 286.612 147.092 279.852 145.993 250.614C145.4 234.842 145.524 230.851 146.632 230.041C147.989 229.049 149.245 229.212 150.076 230.489C150.617 231.32 150.905 234.159 151.18 241.364C151.852 258.961 152.204 287.096 151.763 287.989C151.251 289.029 149.716 289.137 148.93 288.189ZM118.775 284.008C117.345 282.369 117.005 281.152 116.43 275.614C116.115 272.589 115.748 269.102 115.613 267.864C115.479 266.626 115.151 263.251 114.886 260.364C114.621 257.477 114.157 252.639 113.856 249.614C113.555 246.589 113.181 240.226 113.024 235.473C112.767 227.647 112.824 226.74 113.631 225.848C115.674 223.591 117.237 225.361 117.641 230.389C117.806 232.438 118.068 234.789 118.224 235.614C118.379 236.439 118.69 239.589 118.913 242.614C119.137 245.639 119.552 251.264 119.837 255.114C120.121 258.964 120.694 265.127 121.11 268.809C121.526 272.491 121.867 276.499 121.867 277.717C121.867 278.934 122.115 280.393 122.418 280.959C122.859 281.783 122.773 282.251 121.99 283.301C120.767 284.941 119.78 285.158 118.775 284.008ZM238.467 280.764C237.669 279.966 237.716 277.717 238.67 271.114C239.107 268.089 239.55 264.489 239.653 263.114C239.757 261.739 239.975 259.939 240.139 259.114C240.303 258.289 240.641 255.589 240.889 253.114C241.137 250.639 241.581 246.926 241.876 244.864C242.17 242.802 242.612 239.202 242.859 236.864C243.105 234.526 243.51 231.546 243.757 230.241C244.21 227.856 245.511 225.864 246.617 225.864C247.717 225.864 248.928 227.694 248.644 228.93C248.495 229.581 248.287 231.239 248.181 232.614C248.076 233.989 247.846 235.676 247.671 236.364C247.389 237.471 247.105 240.022 246.115 250.364C245.971 251.876 245.631 254.689 245.36 256.614C245.09 258.539 244.765 261.126 244.637 262.364C244.155 267.058 242.826 275.16 242.356 276.263C242.087 276.894 241.867 277.811 241.867 278.3C241.867 279.082 239.962 281.364 239.31 281.364C239.176 281.364 238.797 281.094 238.467 280.764ZM88.115 279.862C87.053 278.688 86.43 275.803 85.362 267.114C85.092 264.914 84.735 262.102 84.568 260.864C83.311 251.516 82.657 246.344 81.852 239.364C81.239 234.044 81.18 233.445 80.646 227.114C80.273 222.686 80.288 222.595 81.573 221.396L82.879 220.178L84.248 221.198C85.448 222.093 85.661 222.676 85.972 225.916C86.167 227.95 86.666 232.314 87.081 235.614C87.99 242.848 88.868 250.388 89.119 253.114C89.22 254.214 89.521 256.802 89.787 258.864C90.054 260.926 90.64 265.876 91.09 269.864C91.54 273.852 92.031 277.524 92.182 278.025C92.508 279.104 91.072 280.864 89.867 280.864C89.402 280.864 88.614 280.413 88.115 279.862ZM58.492 275.159C57.884 274.387 57.227 272.009 56.66 268.534C54.478 255.15 53.845 251.189 52.878 244.864C52.311 241.151 51.5 236.089 51.076 233.614C49.616 225.09 48.947 218.649 49.427 217.752C49.682 217.276 50.377 216.626 50.971 216.308C52.739 215.362 54.203 217.528 54.626 221.718C54.815 223.586 55.307 227.251 55.719 229.864C56.131 232.477 56.655 235.852 56.883 237.364C57.111 238.876 57.774 242.926 58.357 246.364C58.94 249.802 59.622 254.076 59.873 255.864C60.732 261.967 62.281 271.612 62.618 272.946C62.867 273.935 62.685 274.546 61.91 275.321C60.551 276.68 59.655 276.638 58.492 275.159ZM258.919 267.739C258.471 266.55 258.583 264.851 259.405 260.364C259.682 258.852 260.01 256.489 260.134 255.114C260.257 253.739 260.788 249.352 261.313 245.364C261.837 241.376 262.637 235.077 263.09 231.364C263.543 227.651 264.128 223.923 264.39 223.079C264.652 222.234 264.867 220.633 264.867 219.522C264.867 218.004 265.196 217.172 266.185 216.182C267.696 214.671 267.794 214.651 269.036 215.592C269.813 216.181 269.916 216.78 269.699 219.452C269.558 221.191 269.31 224.302 269.148 226.364C268.986 228.426 268.715 230.452 268.547 230.864C268.15 231.833 266.424 243.22 266.083 247.114C265.938 248.764 265.684 250.451 265.519 250.864C265.353 251.277 265.026 252.795 264.792 254.239C263.466 262.429 262.587 266.519 261.863 267.871C261.144 269.216 259.446 269.139 258.919 267.739ZM273.454 246.334C273.143 245.494 273.29 244.129 273.934 241.869C275.19 237.465 275.285 237.254 275.863 237.612C277.01 238.321 276.096 245.35 274.671 246.774C273.978 247.467 273.857 247.423 273.454 246.334ZM254.686 241.476C253.884 240.178 256.573 222.458 257.751 221.28C259.462 219.569 259.922 224.999 258.584 231.114C258.163 233.039 257.592 235.956 257.315 237.597C256.713 241.154 255.549 242.872 254.686 241.476ZM275.877 228.239C275.883 227.07 276.225 224.651 276.637 222.864C277.049 221.077 277.501 218.151 277.641 216.364C277.781 214.577 278.114 212.462 278.381 211.664C278.648 210.867 278.867 209.376 278.867 208.351C278.867 206.265 280.128 204.669 280.852 205.839C281.506 206.897 280.864 212.293 279.592 216.433C278.947 218.533 278.263 222.02 278.072 224.183C277.694 228.468 277.175 230.364 276.379 230.364C276.098 230.364 275.872 229.408 275.877 228.239ZM19.213 213.989C19.096 213.783 18.719 212.095 18.377 210.239C17.707 206.611 17.026 205.868 16.774 208.489C16.673 209.53 16.348 210.114 15.867 210.114C15.285 210.114 14.856 208.43 13.953 202.614C13.313 198.489 12.593 194.327 12.352 193.364C12.112 192.401 11.647 189.068 11.32 185.957L10.726 180.3L8.79701 179.528C5.76601 178.315 2.17701 174.041 1.47101 170.803C-0.629992 161.171 -0.466992 151.438 1.87401 146.85C3.10001 144.447 6.91501 140.263 8.68501 139.379C9.47301 138.986 10.792 138.185 11.617 137.598C13.335 136.376 18.694 133.864 19.583 133.864C19.911 133.864 20.656 133.219 21.239 132.43C21.822 131.641 23.946 130.157 25.958 129.131C35.076 124.483 36.384 123.864 37.09 123.864C38.043 123.864 39.506 126.639 39.147 127.764C38.831 128.753 32.28 132.713 25.117 136.245C14.787 141.339 9.21401 145.448 7.20101 149.457C6.02801 151.793 5.88301 152.459 6.35701 153.345C6.78701 154.149 6.78301 154.853 6.34101 156.194C5.69301 158.156 6.44401 165.792 7.62201 169.218C8.43201 171.573 10.633 174.3 12.208 174.899C16.103 176.38 27.961 179.209 35.117 180.366C37.317 180.721 39.75 181.329 40.523 181.717C42.47 182.693 42.166 184.345 39.83 185.488C38.259 186.257 37.567 186.295 34.08 185.805C28.977 185.088 25.673 184.536 22.867 183.934C17.192 182.716 16.867 182.694 16.867 183.516C16.867 183.946 17.189 185.832 17.582 187.706C17.976 189.581 18.443 193.139 18.621 195.614C18.798 198.089 19.135 200.676 19.369 201.364C20.045 203.353 20.523 214.364 19.933 214.364C19.654 214.364 19.33 214.195 19.213 213.989ZM187.99 211.071C185.414 209.944 181.397 206.867 180.625 205.429C180.238 204.706 178.643 202.764 177.081 201.114C175.519 199.464 173.876 197.552 173.429 196.864C172.983 196.176 171.267 193.895 169.617 191.795C165.03 185.954 162.777 182.762 162.081 181.114C161.732 180.289 159.744 177.734 157.662 175.437C155.581 173.14 152.583 169.54 151.001 167.437C149.419 165.334 146.436 161.595 144.371 159.128C142.306 156.661 140.279 154.161 139.867 153.572C138.374 151.441 134.038 146.07 130.367 141.803C128.305 139.406 125.879 136.533 124.976 135.419C123.416 133.494 123.207 133.397 120.726 133.466C119.291 133.506 117.611 133.361 116.992 133.143C115.397 132.582 115.51 133.416 117.867 139.614C118.967 142.507 119.867 145.308 119.867 145.839C119.867 146.37 120.092 146.944 120.367 147.114C120.642 147.284 120.867 147.975 120.867 148.65C120.867 149.325 121.088 150.268 121.358 150.746C121.886 151.679 123.02 155.776 124.089 160.614C124.704 163.394 124.681 163.715 123.776 164.989C121.422 168.302 119.913 166.228 117.137 155.864C116.659 154.077 115.952 151.706 115.567 150.597C115.182 149.488 114.867 148.22 114.867 147.779C114.867 147.339 114.531 146.334 114.12 145.546C113.709 144.758 113.37 143.776 113.367 143.364C113.364 142.952 113.053 142.024 112.676 141.302C112.3 140.58 111.695 138.833 111.332 137.418C110.97 136.003 110.52 134.906 110.333 134.98C109.467 135.322 98.942 150.218 96.117 155.101C95.567 156.051 93.317 159.427 91.117 162.601C88.917 165.776 86.217 170.015 85.117 172.021C82.056 177.605 77.388 185.082 74.655 188.782C73.301 190.614 71.775 193.205 71.263 194.539C67.623 204.03 63.246 207.988 56.367 208.01C52.353 208.023 48.453 206.377 45.801 203.55C42.335 199.856 41.609 193.775 44.017 188.614C46.44 183.419 55.771 169.864 56.923 169.864C57.185 169.864 57.537 169.47 57.707 168.989C57.876 168.508 58.564 167.372 59.235 166.465C59.906 165.557 60.343 164.523 60.206 164.166C59.926 163.435 55.917 163.012 48.117 162.891C45.367 162.848 42.442 162.605 41.617 162.35C40.792 162.096 38.542 161.646 36.617 161.351C34.692 161.055 32.442 160.608 31.617 160.357C30.792 160.106 28.204 159.421 25.867 158.833C21.141 157.646 18.712 156.12 17.5 153.58C16.796 152.103 16.782 151.638 17.385 149.809C18.546 146.291 19.4 145.706 34.959 137.771C41.572 134.398 43.269 134.171 44.101 136.55C44.555 137.849 44.441 138.12 42.905 139.403C41.971 140.183 37.575 142.643 33.136 144.869C24.609 149.147 21.989 150.849 22.545 151.748C22.732 152.05 24.08 152.545 25.54 152.848L28.196 153.399L31.103 150.606C32.743 149.03 34.307 147.926 34.689 148.072C35.914 148.543 35.399 150.296 33.617 151.718C31.596 153.33 31.393 154.255 32.992 154.559C33.611 154.677 36.03 155.153 38.367 155.617C40.704 156.081 43.63 156.574 44.867 156.713C46.104 156.853 47.457 157.268 47.873 157.635C48.289 158.003 50.764 158.534 53.373 158.816C55.982 159.097 59.246 159.474 60.625 159.652L63.133 159.976L68.421 152.545C71.329 148.458 75.805 141.964 78.369 138.114C80.932 134.264 84.967 128.751 87.336 125.864C89.705 122.977 92.721 119.09 94.039 117.227C97.713 112.033 101.477 108.864 103.972 108.864C104.772 108.864 107.269 107.991 109.522 106.924C113.421 105.077 113.772 105.002 116.867 105.349C118.654 105.55 120.496 105.523 120.959 105.289C122.325 104.6 127.438 104.816 129.867 105.666C132.831 106.704 137.133 107.146 137.56 106.457C137.741 106.164 137.435 105.179 136.88 104.269C136.325 103.359 135.869 102.164 135.867 101.614C135.865 101.064 135.197 98.926 134.382 96.864C133.176 93.81 132.898 92.353 132.884 89.019C132.875 86.766 133.092 84.784 133.367 84.614C133.642 84.444 133.867 83.78 133.867 83.139C133.867 81.605 137.866 77.177 139.979 76.371C140.88 76.028 142.326 75.436 143.193 75.055C146.316 73.685 148.518 74.137 154.896 77.461C158.165 79.165 160.955 80.443 161.096 80.302C161.238 80.16 161.004 78.26 160.578 76.079C159.944 72.84 159.909 71.611 160.388 69.364C161.985 61.869 165.178 57.934 171.13 56.129C175.976 54.659 179.905 55.651 183.581 59.273C184.748 60.423 185.841 61.364 186.011 61.364C186.181 61.364 186.713 60.52 187.194 59.489C188.324 57.062 193.159 52.407 195.941 51.065C200.845 48.7 202.833 48.433 206.367 49.66C209.578 50.775 211.428 52.355 213.124 55.429C214.533 57.983 214.605 58.407 214.611 64.114C214.614 67.414 214.504 70.443 214.367 70.845C214.192 71.355 214.797 71.808 216.369 72.345C219.771 73.507 221.667 74.833 222.766 76.819C224.456 79.876 224.512 81.308 223.102 85.377C222.39 87.432 221.612 90.32 221.373 91.794C220.912 94.637 219.349 96.864 217.814 96.864C217.33 96.864 216.801 96.445 216.639 95.933C216.316 94.914 217.315 90.701 218.585 87.725C219.319 86.008 219.602 84.015 219.431 81.777C219.333 80.494 217.028 78.018 215.406 77.452C214.239 77.046 213.542 77.15 211.858 77.983C208.276 79.756 205.783 77.863 207.322 74.539C210.018 68.72 210.643 62.652 208.913 59.083C206.315 53.724 201.995 53.028 196.182 57.03C195.392 57.573 193.655 59.727 192.322 61.816C188.455 67.872 188.463 67.864 186.786 67.864C185.622 67.864 184.447 67.152 181.932 64.921C177.906 61.352 175.83 60.632 172.455 61.634C168.913 62.686 166.573 65.535 165.695 69.864C165.361 71.509 166.049 76.784 167.138 80.937C168.004 84.242 168.003 84.269 166.904 85.812C165.821 87.333 163.775 87.929 163.144 86.908C162.989 86.656 161.907 86.292 160.739 86.098C158.157 85.669 156.149 84.689 153.973 82.794C150.715 79.955 147.165 79.183 144.217 80.672C140.022 82.792 138.249 86.197 138.719 91.232C138.89 93.065 139.33 95.138 139.696 95.839C140.061 96.54 140.362 97.358 140.364 97.656C140.366 97.954 141.267 99.483 142.367 101.053C143.467 102.624 144.367 104.132 144.367 104.406C144.367 104.68 143.917 105.787 143.366 106.866C142.336 108.884 137.192 112.864 135.614 112.864C135.101 112.864 136.237 114.492 138.711 117.308C142.554 121.679 146.471 126.282 150.382 131.019C151.474 132.342 152.367 133.667 152.367 133.964C152.367 134.26 154.129 136.243 156.282 138.371C158.436 140.498 161.079 143.336 162.156 144.676C164.338 147.393 171.06 155.165 173.561 157.864C175.235 159.671 185.181 171.592 188.489 175.757C190.267 177.996 190.493 178.118 192.989 178.199C194.434 178.245 199.105 178.537 203.367 178.847C207.629 179.157 212.798 179.533 214.853 179.681C216.913 179.83 219.38 179.713 220.353 179.421C221.323 179.13 224.13 178.409 226.59 177.821C229.05 177.232 231.412 176.558 231.84 176.322C232.267 176.087 234.799 174.883 237.466 173.648C242.77 171.191 242.435 171.643 243.06 166.114C243.184 165.014 243.543 163.102 243.857 161.864C244.171 160.626 244.543 158.939 244.682 158.114C244.821 157.289 245.129 156.164 245.367 155.614C245.605 155.064 245.935 153.827 246.102 152.864C247.034 147.478 247.225 146.084 247.065 145.804C246.968 145.634 244.803 145.343 242.253 145.158C239.703 144.973 237.055 144.634 236.367 144.405C235.679 144.176 233.879 143.714 232.367 143.38C227.221 142.241 220.668 139.793 219.113 138.428C218.26 137.679 216.844 136.769 215.965 136.405C214.14 135.649 213.983 134.949 215.278 133.35C216.164 132.256 216.226 132.249 217.528 133.102C218.378 133.658 218.888 134.461 218.925 135.297C218.962 136.143 219.065 136.302 219.212 135.739C219.509 134.602 222.066 134.576 224.681 135.685C225.746 136.136 227.292 136.676 228.117 136.885C228.942 137.094 231.754 137.827 234.367 138.515C236.98 139.203 240.805 139.918 242.867 140.104C250.355 140.781 251.867 141.746 251.867 145.85C251.866 147.995 251.012 152.705 249.823 157.114C248.757 161.066 247.617 168.364 248.065 168.364C248.471 168.364 253.615 165.552 259.367 162.186C261.704 160.818 266.655 157.985 270.367 155.889C277.855 151.663 284.101 147.564 285.597 145.896C286.432 144.964 286.469 144.735 285.847 144.341C285.446 144.087 284.825 143.876 284.467 143.872C283.085 143.855 280.867 142.31 280.867 141.364C280.867 140.292 283.158 138.864 284.877 138.864C286.469 138.864 290.14 141.608 290.853 143.331C291.934 145.94 291.134 148.174 288.074 151.091C286.576 152.519 284.511 154.144 283.484 154.703C282.457 155.262 279.592 156.953 277.117 158.462C274.642 159.971 270.367 162.508 267.617 164.1C264.867 165.692 261.379 167.717 259.867 168.601C258.355 169.484 255.879 170.826 254.367 171.583C252.855 172.34 248.917 174.316 245.617 175.974C237.948 179.829 233.504 181.862 232.729 181.871C232.393 181.875 231.105 182.249 229.867 182.703C226.958 183.769 222.843 184.388 216.617 184.697C210.805 184.986 202.477 184.093 201.314 183.056C200.45 182.285 193.867 181.457 193.867 182.12C193.867 182.665 195.982 185.394 199.193 188.993C200.664 190.642 201.867 192.208 201.867 192.473C201.867 192.739 202.317 193.528 202.867 194.228C204.052 195.734 204.232 200.155 203.242 203.48C202.433 206.198 199.482 209.147 196.053 210.663C193.024 212.003 190.423 212.135 187.99 211.071ZM195.376 205.029C197.315 203.884 198.061 202.278 198.091 199.182C198.115 196.788 197.917 196.31 195.874 193.834C194.64 192.338 193.503 191.001 193.347 190.864C193.191 190.727 191.553 188.702 189.708 186.364C185.544 181.089 179.978 174.383 171.867 164.871C168.429 160.84 163.929 155.45 161.867 152.895C159.805 150.339 157.258 147.23 156.207 145.986C155.157 144.741 153.92 143.139 153.457 142.424C150.269 137.495 133.254 118.512 130.617 116.941C127.893 115.318 126.003 114.869 124.341 115.448C122.118 116.223 122.069 115.693 124.232 114.273C126.728 112.634 130.121 111.795 131.751 112.415C133.51 113.084 133.628 112.698 132.152 111.105C130.898 109.752 130.832 109.739 126.75 110.123C124.477 110.337 120.592 110.554 118.117 110.605C112.04 110.731 111.877 110.756 111.548 111.613C111.185 112.56 113.981 115.796 116.063 116.837C118.122 117.866 118.239 119.328 116.609 123.649C114.525 129.172 114.481 128.733 117.137 128.944C119.151 129.104 119.605 128.966 120.239 127.998C120.756 127.209 121.459 126.869 122.55 126.882C125.458 126.915 126.277 127.679 134.617 138.144C136.542 140.559 139.478 144.128 141.142 146.075C142.806 148.021 145.113 150.852 146.27 152.364C149.282 156.302 152.957 160.899 158.117 167.18C160.592 170.193 164.417 175.089 166.617 178.061C168.817 181.032 171.998 185.214 173.687 187.355C175.375 189.496 178.589 193.961 180.829 197.278C183.893 201.815 185.424 203.612 187.009 204.536C189.577 206.032 193.306 206.252 195.376 205.029ZM59.171 201.555C61.408 200.493 64.271 196.721 68.235 189.614C69.193 187.897 73.943 179.734 75.509 177.114C76.331 175.739 77.429 173.865 77.949 172.95C78.469 172.034 80.194 169.334 81.784 166.95C83.373 164.565 85.298 161.53 86.062 160.204C86.825 158.879 88.894 155.88 90.659 153.54C92.423 151.2 93.867 149.18 93.867 149.05C93.867 148.656 103.918 133.691 104.928 132.582C105.444 132.014 105.867 131.366 105.867 131.142C105.867 130.918 106.629 129.892 107.559 128.862C108.49 127.832 109.859 125.952 110.601 124.686C111.835 122.581 111.899 122.221 111.351 120.499C110.682 118.397 107.086 114.364 105.88 114.364C103.567 114.364 97.874 118.857 95.743 122.364C93.529 126.009 85.658 137.686 84.292 139.353C83.508 140.309 82.867 141.281 82.867 141.513C82.867 141.745 81.967 143.002 80.867 144.306C79.767 145.611 78.867 146.839 78.867 147.036C78.867 147.233 78.023 148.492 76.992 149.834C74.081 153.623 69.722 159.769 68.617 161.645C68.067 162.578 66.11 165.54 64.269 168.228C61.312 172.543 59.582 174.997 53.332 183.747C51.162 186.785 47.867 193.386 47.867 194.696C47.867 195.306 48.092 195.944 48.367 196.114C48.642 196.284 48.872 196.803 48.878 197.269C48.897 198.702 50.647 200.495 52.934 201.423C55.692 202.542 57.032 202.57 59.171 201.555ZM27.542 207.817C28.188 202.536 31.499 195.864 33.472 195.864C34.207 195.864 33.598 198.521 32.165 201.572C28.79 208.756 28.196 209.91 27.724 210.202C27.383 210.413 27.322 209.615 27.542 207.817ZM209.367 209.665C206.649 209.043 206.619 209.016 206.76 207.332C206.838 206.395 207.095 205.436 207.33 205.201C207.565 204.966 210.313 204.704 213.437 204.619C216.561 204.534 220.355 204.229 221.867 203.941C223.379 203.653 225.629 203.222 226.867 202.983C228.105 202.744 230.422 202.135 232.016 201.63C235.273 200.599 236.12 200.932 235.591 203.038C235.241 204.436 231.707 207.284 229.117 208.257C224.798 209.88 213.75 210.667 209.367 209.665ZM163.367 204.348C162.679 204.137 160.698 203.941 158.963 203.914C155.778 203.864 152.13 203.406 144.367 202.083C142.029 201.684 137.867 201.137 135.117 200.865C130.345 200.395 128.237 200.062 122.617 198.894C121.242 198.608 117.754 198.169 114.867 197.919C109.559 197.46 91.142 194.853 85.617 193.779C83.967 193.458 81.864 192.884 80.944 192.503C79.474 191.894 79.312 191.648 79.602 190.462C80.22 187.942 80.562 187.862 87.367 188.633C90.805 189.022 94.967 189.569 96.617 189.848C98.267 190.127 101.305 190.565 103.367 190.821C105.429 191.077 109.367 191.629 112.117 192.046C114.867 192.464 119.705 193.152 122.867 193.575C126.029 193.999 130.417 194.597 132.617 194.905C134.817 195.212 138.08 195.659 139.867 195.896C141.654 196.134 144.805 196.561 146.867 196.845C148.929 197.128 151.917 197.506 153.506 197.683C155.095 197.86 156.515 198.199 156.661 198.435C156.807 198.671 158.249 198.864 159.867 198.864C161.485 198.864 162.947 199.089 163.117 199.364C163.287 199.639 164.187 199.864 165.117 199.864C166.047 199.864 166.947 200.089 167.117 200.364C167.287 200.639 168.165 200.864 169.069 200.864C171.163 200.864 172.652 202.315 171.738 203.464C171.023 204.362 165.357 204.96 163.367 204.348ZM281.058 197.489C281.211 196.458 281.485 194.039 281.666 192.114C282.041 188.149 283.785 184.902 285.557 184.872C286.139 184.862 285.63 187.885 284.699 189.963C284.293 190.871 283.818 192.612 283.643 193.832C283.281 196.359 281.99 199.364 281.266 199.364C280.987 199.364 280.898 198.563 281.058 197.489ZM23.93 197.482C23.542 196.757 23.626 196.126 24.265 194.966C25.329 193.033 27.71 190.364 28.371 190.364C29.339 190.364 28.841 191.871 26.856 194.941C24.363 198.799 24.549 198.638 23.93 197.482ZM129.47 189.734C126.394 188.749 128.418 186.767 131.668 187.582C133.039 187.926 133.312 189.586 132.076 190.061C131.641 190.227 131.247 190.341 131.201 190.313C131.155 190.285 130.376 190.025 129.47 189.734ZM145.282 178.612C145.143 178.473 143.249 178.129 141.073 177.846C132.536 176.737 129.121 176.233 120.617 174.826C118.967 174.552 116.154 174.129 114.367 173.884C101.325 172.099 98.013 171.563 94.283 170.633C90.53 169.697 89.825 168.828 91.258 166.909C92.158 165.704 92.395 165.657 97.255 165.728C100.039 165.768 102.729 166.022 103.233 166.292C103.738 166.562 105.493 166.895 107.134 167.032C108.775 167.169 111.467 167.54 113.117 167.857C114.767 168.174 118.029 168.629 120.367 168.869C122.705 169.108 125.967 169.553 127.617 169.857C130.909 170.464 135.712 171.165 141.117 171.828C144.886 172.291 149.692 173.467 151.278 174.316C152.41 174.922 154.867 177.719 154.867 178.402C154.867 178.872 145.742 179.072 145.282 178.612ZM197.697 172.493C197.413 172.035 198.188 165.058 198.596 164.398C198.732 164.177 198.885 162.833 198.935 161.41C198.986 159.988 199.195 158.72 199.4 158.594C199.605 158.467 199.927 157.182 200.116 155.738C200.433 153.311 201.195 149.533 203.168 140.614C203.593 138.689 204.15 136.723 204.404 136.246C204.659 135.768 204.864 134.981 204.86 134.496C204.854 133.721 205.813 129.511 207.452 123.114C207.734 122.014 208.168 120.723 208.416 120.246C208.664 119.768 208.867 119.062 208.867 118.676C208.867 118.289 210.209 115.93 211.849 113.431C214.232 109.803 215.829 108.068 219.784 104.809C222.508 102.565 226.059 99.998 227.677 99.104C230.449 97.572 230.632 97.354 230.882 95.296C231.028 94.096 231.571 92.402 232.089 91.533L233.031 89.951L231.145 88.173L229.258 86.394L229.607 81.754C230.156 74.43 231.503 71.423 235.117 69.45C237.857 67.954 253.619 68.569 259.617 70.405C270.69 73.795 272.289 74.709 273.817 78.528C274.814 81.017 274.824 81.264 274.075 85.114C273.647 87.314 273.173 89.789 273.021 90.614C272.675 92.496 271.745 93.571 269.572 94.602L267.867 95.411V99.405C267.867 102.268 268.104 103.783 268.705 104.757C269.166 105.503 270.7 107.914 272.114 110.114C278.319 119.769 279.128 122.757 278.734 134.564C278.543 140.291 278.213 143.371 277.591 145.237C276.464 148.617 273.734 151.864 272.02 151.864C270.89 151.864 270.786 151.712 271.073 150.489C271.25 149.733 271.612 147.651 271.878 145.864C272.144 144.077 272.627 141.264 272.952 139.614C273.702 135.806 273.685 129.351 272.916 126.114C272.589 124.739 272.192 122.977 272.032 122.199C271.673 120.45 270.706 120.029 269.238 120.982C267.383 122.186 261.194 123.436 256.617 123.53C251.509 123.636 242.802 122.472 238.727 121.138C236.587 120.437 234.486 119.864 234.059 119.864C231.443 119.864 222.514 113.672 223.005 112.199C223.111 111.882 223.918 111.202 224.799 110.688L226.401 109.752L228.41 111.183C230.961 113 231.25 113.166 233.367 114.032C237.296 115.637 238.533 116.019 241.995 116.697C243.987 117.086 246.855 117.645 248.367 117.939C252.185 118.679 256.942 118.684 261.367 117.953C266.519 117.102 268.867 116.424 268.867 115.787C268.867 115.49 268.081 114.177 267.119 112.867C266.158 111.558 264.668 108.982 263.807 107.143C262.367 104.066 262.261 103.482 262.472 99.831L262.702 95.864H256.808C253.566 95.864 250.397 95.664 249.766 95.42C249.134 95.176 247.379 94.704 245.867 94.371C244.355 94.038 241.831 93.31 240.26 92.754C237.034 91.613 235.867 91.807 235.867 93.487C235.867 94.122 235.53 95.123 235.117 95.712C234.705 96.301 234.496 97.119 234.654 97.531C235.044 98.546 231.993 101.837 227.59 105.151C225.625 106.629 222.426 109.515 220.481 111.562C217.088 115.135 212.887 121.699 212.874 123.451C212.87 123.911 212.29 124.973 211.584 125.812C210.476 127.129 210.346 127.635 210.631 129.534C210.873 131.144 210.731 132.176 210.104 133.39C209.632 134.302 209.163 136.525 209.061 138.331C208.959 140.137 208.66 142.626 208.395 143.864C207.716 147.035 206.891 151.348 206.625 153.115C206.501 153.939 206.19 155.514 205.934 156.614C205.679 157.714 205.084 160.414 204.613 162.614C204.142 164.814 203.583 167.064 203.369 167.614C203.156 168.164 202.787 169.514 202.549 170.614C202.137 172.521 202.02 172.621 200.038 172.766C198.894 172.849 197.841 172.726 197.697 172.493ZM267.223 89.675C267.67 89.227 268.493 85.588 268.722 83.038L268.954 80.463L266.035 78.77C263.046 77.036 261.004 76.301 256.617 75.382C252.112 74.437 245.178 73.661 241.914 73.735C238.916 73.803 235.882 74.586 235.855 75.3C235.849 75.473 235.399 77.285 234.856 79.328C233.965 82.68 233.942 83.154 234.624 84.195C235.04 84.829 235.996 85.497 236.748 85.678C237.501 85.859 239.017 86.405 240.117 86.891C243.736 88.49 247.467 89.49 251.32 89.895C255.063 90.288 266.771 90.126 267.223 89.675ZM185.786 161.616C185.39 161.22 185.786 149.493 186.344 145.114C186.99 140.037 187.12 139.23 188.315 132.864C191.02 118.453 191.914 112.666 192.177 107.864C192.805 96.396 197.329 75.864 199.228 75.864C200.366 75.864 199.779 82.946 197.675 94.614C196.745 99.768 196.47 104.984 197.117 105.185C197.662 105.354 201.199 100.936 204.479 95.989C206.544 92.874 208.073 92.016 208.69 93.625C209.028 94.505 206.548 99.926 204.264 103.302C203.404 104.574 201.247 107.254 199.471 109.258C196.726 112.357 196.09 113.442 195.225 116.508C194.665 118.491 194.047 122.026 193.851 124.364C193.351 130.32 192.26 136.613 190.729 142.364C190.327 143.876 189.729 147.251 189.4 149.864C188.314 158.507 186.988 162.818 185.786 161.616ZM110.665 159.78C110.226 159.154 109.865 158.073 109.862 157.378C109.859 156.683 109.548 155.098 109.171 153.857C108.763 152.513 108.616 150.802 108.807 149.626L109.128 147.652L110.205 149.022C112.55 152.003 114.04 160.389 112.29 160.749C111.835 160.842 111.103 160.407 110.665 159.78ZM175.091 155.989C174.281 154.067 173.69 151.7 172.813 146.864C172.116 143.016 169.483 137.973 167.494 136.674C166.602 136.091 165.728 135.173 165.552 134.633C165.376 134.094 164.363 132.791 163.3 131.739C161.419 129.877 160.851 128.242 161.867 127.614C162.683 127.11 162.432 124.722 161.398 123.155C160.869 122.352 159.183 120.501 157.652 119.041C155.191 116.695 154.867 116.157 154.867 114.414C154.867 113.039 155.246 111.99 156.117 110.955C157.669 109.111 157.667 108.151 156.104 105.614C155.426 104.514 154.871 103.006 154.87 102.263C154.868 101.519 154.609 100.345 154.293 99.652C153.851 98.681 153.865 98.219 154.355 97.629C155.494 96.256 156.285 96.811 158.097 100.261C159.282 102.515 160.426 103.968 161.5 104.581C164.1 106.067 165.867 107.956 165.867 109.251C165.867 110.354 165.698 110.437 163.748 110.282C161.673 110.117 161.616 110.155 160.972 112.108C160.166 114.554 160.538 115.514 163.551 118.758C165.649 121.018 166.687 122.96 166.454 124.192C166.162 125.74 168.553 130.072 171.112 132.631C172.627 134.146 173.867 135.646 173.867 135.964C173.867 136.281 174.512 138.358 175.301 140.578C177.756 147.484 178.367 149.889 178.367 152.639C178.367 157.719 176.586 159.54 175.091 155.989ZM52.953 153.485C52.119 152.313 51.186 150.322 48.331 143.614C48.097 143.064 47.575 141.489 47.171 140.114C46.767 138.739 46.044 136.294 45.565 134.68C45.085 133.066 44.676 130.536 44.655 129.058C44.629 127.238 44.412 126.369 43.981 126.367C43.632 126.365 43.075 125.769 42.743 125.042C42.21 123.871 42.268 123.636 43.254 122.981C43.866 122.575 44.37 121.763 44.374 121.178C44.383 119.697 44.914 117.864 45.333 117.864C45.761 117.864 47.43 121.981 48.779 126.364C49.329 128.151 50.931 133.327 52.34 137.864C53.748 142.401 55.087 146.789 55.316 147.614C55.545 148.439 56.018 150.054 56.367 151.202C56.717 152.35 56.867 153.644 56.7 154.077C56.206 155.364 54.049 155.023 52.953 153.485ZM37.367 151.561C37.367 150.844 38.098 149.334 38.992 148.206C40.114 146.789 40.617 145.62 40.617 144.43C40.617 142.178 41.659 141.848 42.058 143.974C42.249 144.995 42.786 145.816 43.46 146.121C44.061 146.392 44.606 146.839 44.671 147.114C44.824 147.762 38.951 152.864 38.052 152.864C37.647 152.864 37.367 152.331 37.367 151.561ZM262.367 143.249C262.367 142.369 263.372 141.364 264.252 141.364C265.452 141.364 264.748 143.595 263.492 143.774C262.795 143.873 262.367 143.673 262.367 143.249ZM80.264 126.044C76.728 124.179 75.326 118.8 77.867 116.846C80.205 115.048 83.609 113.725 87.272 113.19C90.946 112.653 92.303 112.921 92.753 114.272C93.109 115.34 90.067 117.864 88.424 117.864C86.813 117.864 81.56 119.647 81.132 120.339C80.993 120.565 82.114 121.498 83.623 122.412C86.534 124.176 86.662 124.378 85.849 125.897C85.225 127.064 82.341 127.14 80.264 126.044ZM41.138 119.739C39.503 114.569 37.664 108.902 37.365 108.114C37.157 107.564 36.476 105.426 35.852 103.364C35.228 101.302 34.394 98.601 33.998 97.364C32.67 93.215 31.938 88.861 32.334 87.471C32.547 86.725 32.545 85.664 32.329 85.114C31.972 84.203 31.93 84.225 31.86 85.364C31.811 86.151 31.543 85.627 31.137 83.947C30.782 82.481 30.244 80.793 29.941 80.197C29.638 79.602 28.929 77.426 28.366 75.364C27.802 73.302 26.887 70.039 26.333 68.114C23.829 59.416 21.477 46.943 21.052 40.114C20.575 32.444 21.745 23.085 23.667 19.198C24.052 18.42 24.367 17.455 24.367 17.054C24.367 14.887 29.471 7.77803 32.867 5.21503C38.327 1.09303 46.222 -0.911967 51.834 0.398033C59.125 2.09903 64.986 6.41903 70.867 14.425C75.745 21.065 81.17 31.76 83.391 39.114C83.723 40.214 84.191 41.631 84.431 42.263C85.17 44.21 84.968 48.357 84.117 48.683C82.989 49.116 83.213 50.545 84.617 51.864C85.305 52.51 85.867 53.315 85.867 53.654C85.867 53.992 86.684 55.247 87.684 56.442C88.683 57.636 89.789 59.289 90.142 60.114C91.763 63.903 92.324 65.379 93.562 69.114C95.657 75.432 95.799 75.96 96.162 78.773C96.458 81.072 96.351 81.64 95.369 82.968C94.289 84.429 94.274 84.571 95.05 85.886C95.5 86.646 95.867 87.965 95.867 88.816C95.867 90.05 96.078 90.364 96.905 90.364C98.2 90.364 100.867 92.964 100.867 94.226C100.867 94.742 101.084 95.381 101.348 95.645C101.613 95.91 102.108 97.749 102.448 99.732C103.051 103.248 103.037 103.369 101.879 104.601C100.042 106.557 99.079 106.248 98.41 103.489C97.795 100.956 95.951 95.943 95.328 95.114C95.102 94.813 91.796 94.636 87.035 94.669C82.68 94.699 78.667 94.556 78.117 94.351C77.567 94.146 75.845 93.611 74.291 93.161C69.108 91.662 66.402 87.064 68.669 83.605C69.733 81.98 72.506 80.312 75.053 79.762C76.188 79.518 78.242 79.081 79.617 78.793C82.241 78.243 87.96 78.427 89.548 79.112C90.387 79.474 90.443 79.345 90.116 77.814C89.415 74.54 84.833 61.163 84.192 60.523C84.006 60.337 80.651 60.148 76.736 60.103C65.376 59.974 59.441 57.683 58.581 53.098C57.898 49.457 59.688 47.088 64.729 44.962C67.225 43.91 68.142 43.8 73.198 43.948C76.347 44.04 78.868 43.914 78.868 43.664C78.864 41.117 70.078 22.793 66.856 18.614C60.793 10.749 53.518 5.86403 47.866 5.86403C41.489 5.86403 35.845 9.24503 31.696 15.55C29.754 18.501 27.279 25.054 27.696 26.14C27.852 26.545 27.717 27.192 27.397 27.578C26.288 28.914 27.258 45.556 28.87 52.864C29.204 54.377 29.665 56.514 29.894 57.614C30.124 58.714 30.535 60.514 30.807 61.614C31.08 62.714 31.756 65.526 32.31 67.864C32.865 70.202 33.667 73.099 34.093 74.302C34.519 75.505 34.867 77.011 34.867 77.647C34.867 78.284 35.092 78.944 35.367 79.114C35.642 79.284 35.867 79.9 35.867 80.483C35.867 81.066 36.086 82.234 36.354 83.079C36.906 84.818 38.337 90.479 38.701 92.364C38.834 93.052 39.135 94.064 39.371 94.614C39.606 95.164 39.908 96.289 40.042 97.114C40.175 97.939 40.544 99.514 40.861 100.614C41.177 101.714 41.55 103.176 41.689 103.864C41.829 104.552 42.128 105.564 42.354 106.114C43.494 108.881 43.922 110.363 44.359 113.055C44.781 115.657 44.723 116.14 43.852 117.247C43.31 117.936 42.867 118.919 42.867 119.431C42.867 120.469 41.449 120.721 41.138 119.739ZM92.156 88.739C91.976 88.12 91.695 86.886 91.533 85.997C91.051 83.35 90.514 83.184 83.448 83.498C78.194 83.732 76.644 83.985 74.707 84.926C73.412 85.556 72.427 86.295 72.519 86.571C72.786 87.371 75.504 88.787 76.867 88.835C77.555 88.859 78.455 89.097 78.867 89.364C79.279 89.631 82.512 89.852 86.05 89.856L92.484 89.864L92.156 88.739ZM29.768 66.776C29.68 65.27 29.356 64.107 28.992 63.987C28.293 63.756 28.17 65.857 28.697 69.044C29.157 71.827 29.963 70.118 29.768 66.776ZM81.535 54.364C81.489 53.676 81.291 52.158 81.094 50.989L80.735 48.864L77.926 48.769C71.152 48.54 67.68 48.867 65.258 49.962C63.709 50.662 62.883 51.33 62.976 51.809C63.378 53.896 70.789 55.826 77.867 55.688C81.538 55.616 81.615 55.588 81.535 54.364ZM79.346 67.825C79.04 67.253 78.922 66.441 79.084 66.019C79.517 64.891 80.867 66.146 80.867 67.675C80.867 69.141 80.091 69.217 79.346 67.825ZM65.34 29.64C63.667 26.178 61.47 22.364 60.458 21.164C59.445 19.965 58.004 18.188 57.255 17.216C56.455 16.18 55.267 15.312 54.38 15.117C53.548 14.934 52.867 14.489 52.867 14.128C52.867 12.968 54.416 12.831 55.865 13.862C56.638 14.413 57.462 14.872 57.694 14.883C57.927 14.893 58.931 15.624 59.925 16.508C65.62 21.568 72.209 35.172 69.25 35.762C68.578 35.895 67.697 34.515 65.34 29.64ZM185.961 198.845C183.556 196.603 185.169 191.853 188.329 191.872C189.897 191.881 190.542 192.28 191.292 193.706C192.209 195.447 191.981 196.35 190.167 198.164C188.199 200.132 187.47 200.25 185.961 198.845ZM132.375 130.596C132.388 129.735 133.302 128.633 133.685 129.015C133.89 129.22 133.677 129.768 133.212 130.233C132.747 130.698 132.37 130.861 132.375 130.596ZM125.153 125.578C124.246 124.672 124.142 123.219 124.885 121.831C125.914 119.908 129.867 121.18 129.867 123.434C129.867 124.513 127.982 126.364 126.883 126.364C126.364 126.364 125.585 126.01 125.153 125.578ZM57.545 193.864C54.88 192.8 53.98 188.837 55.992 187.026C58.365 184.889 60.749 185.219 62.122 187.873C63.841 191.198 60.809 195.166 57.545 193.864ZM101.13 130.582C99.97 129.507 99.792 129.018 100.03 127.551C100.722 123.291 103.768 119.741 105.799 120.827C106.38 121.138 107.005 121.99 107.188 122.719C107.469 123.84 107.221 124.298 105.586 125.671C103.734 127.225 103.687 127.337 104.509 128.244C105.573 129.42 105.589 130.07 104.581 131.078C103.486 132.173 102.729 132.064 101.13 130.582ZM260.617 86.507C259.068 86.135 258.635 85.496 259.349 84.635C260.297 83.494 262.728 83.639 263.116 84.86C263.675 86.622 262.986 87.077 260.617 86.507Z" fill="white"/>
</svg>
