<svg width="236" height="230" viewBox="0 0 236 230" fill="none" xmlns="http://www.w3.org/2000/svg">
<path fill-rule="evenodd" clip-rule="evenodd" d="M4.44843 228.896C3.55443 228.628 2.82343 228.072 2.82343 227.66C2.82343 226.369 5.33343 225.814 13.0734 225.394C17.1984 225.171 24.1734 224.743 28.5734 224.444C37.1584 223.861 38.8984 223.783 62.5734 222.906C82.6484 222.163 111.447 222.612 114.754 223.721C115.3 223.903 115.312 224.097 114.818 224.693C114.427 225.164 113.259 225.45 111.637 225.474C110.227 225.494 107.836 225.699 106.323 225.93C103.304 226.392 71.9084 228.208 56.0734 228.837C41.2094 229.427 6.35243 229.467 4.44843 228.896ZM140.044 228.218C139.131 227.541 139.124 227.447 139.92 226.639C140.829 225.716 143.361 225.454 161.073 224.446C175.86 223.605 220.521 222.753 228.448 223.161C235.221 223.51 235.823 223.618 235.823 224.489C235.823 225.131 235.46 225.446 234.698 225.464C234.079 225.479 231.773 225.703 229.573 225.962C213.618 227.844 190.397 228.863 162.544 228.905C144.559 228.932 140.854 228.819 140.044 228.218ZM36.3184 219.203C32.0204 218.26 27.0005 216.47 25.6295 215.392C24.9435 214.852 23.6045 214.086 22.6535 213.688C20.5865 212.824 14.3884 207.923 11.5084 204.873C5.29143 198.291 1.75046 190.374 0.314462 179.842C-1.40654 167.223 4.04643 152.069 13.9774 141.87C21.2244 134.427 30.5164 130.048 41.1254 129.075C46.2664 128.604 53.6784 129.334 57.3234 130.672C58.5604 131.126 60.3154 131.723 61.2224 131.998C62.9864 132.532 67.7175 134.994 69.9005 136.513C70.6305 137.021 71.4534 137.437 71.7304 137.437C72.0064 137.437 73.3814 135.974 74.7864 134.187C76.1914 132.4 77.5484 130.937 77.8024 130.937C79.0424 130.937 78.6204 132.153 76.3304 135.177C74.9514 136.999 73.8234 138.72 73.8234 139.001C73.8234 139.281 75.0255 140.788 76.4945 142.349C81.2715 147.425 84.0074 151.745 86.8404 158.687C87.5144 160.338 87.9225 162.515 88.1705 165.774C88.3895 168.649 88.3185 168.917 87.1395 169.69C85.3135 170.886 84.1815 170.475 83.6805 168.434C82.5625 163.876 82.1044 162.444 80.7354 159.24C79.9254 157.344 78.3324 154.419 77.1954 152.74C74.7054 149.063 70.4304 144.437 69.5224 144.437C69.1614 144.437 68.2464 145.506 67.4894 146.812C66.7324 148.118 65.0084 150.622 63.6574 152.376C56.9494 161.087 48.8234 172.214 48.8234 172.689C48.8234 172.825 56.3044 172.954 65.4484 172.974C79.5434 173.006 93.6654 173.695 96.2654 174.478C96.7734 174.631 96.9885 174.085 97.0725 172.431C97.1355 171.19 97.7484 169.052 98.4344 167.681C99.3444 165.863 99.7624 164.036 99.9764 160.937C100.138 158.599 100.502 155.112 100.787 153.187C101.071 151.262 101.669 146.987 102.115 143.687C102.562 140.387 103.126 136.449 103.37 134.937C104.333 128.955 104.637 129.563 99.2745 126.726C96.6355 125.33 93.8594 123.775 93.1064 123.272C91.3334 122.088 90.9464 122.536 91.9404 124.62C93.2134 127.288 98.3234 143.043 98.3234 144.298C98.3234 145.09 96.3185 148.437 95.8435 148.437C95.1485 148.437 92.7685 143.052 87.5555 129.687C86.2685 126.387 84.7895 122.733 84.2695 121.567C83.7495 120.402 83.3234 119.225 83.3234 118.953C83.3234 117.963 79.3825 116.437 76.8275 116.437C71.2425 116.437 67.4965 113.045 68.8745 109.235C69.3765 107.846 69.2804 107.336 68.0814 105.044C65.2454 99.6204 64.8204 95.6304 66.3764 89.0524C68.3524 80.6964 75.9124 67.0874 84.7724 55.9374C88.8624 50.7904 95.6454 43.7244 98.1124 42.0414C101.653 39.6264 107.581 38.7214 111.373 40.0184C113.911 40.8864 118.436 44.1374 119.573 45.9084C120.123 46.7664 121.08 47.8034 121.7 48.2154C122.319 48.6264 123.418 49.9134 124.142 51.0754C124.866 52.2364 125.974 53.7494 126.604 54.4374C128.628 56.6434 135.051 64.1124 136.973 66.4964C138.803 68.7654 138.997 68.8584 147.954 71.8054C152.97 73.4554 158.529 75.2234 160.309 75.7344C163.705 76.7084 166.598 78.7804 167.359 80.7814C167.662 81.5784 168.2 81.9374 169.093 81.9374C172.182 81.9374 174.296 84.1804 174.312 87.4754C174.32 89.2294 174.053 90.0164 173.166 90.8504C171.82 92.1144 170.21 92.2564 169.323 91.1874C168.276 89.9264 167.719 90.3244 168.096 92.0624C168.418 93.5434 169.689 97.6244 172.341 105.687C172.884 107.337 173.686 110.037 174.123 111.687C175.28 116.058 176.809 121.924 177.316 123.937C178.484 128.578 178.749 129.53 178.92 129.701C179.022 129.802 180.785 129.647 182.839 129.356C193.352 127.867 206.127 131.181 214.573 137.588C221.125 142.557 226.882 150.039 229.69 157.232C232.742 165.051 233.747 172.969 232.596 180.122C231.829 184.887 229.768 191.642 228.063 194.975C226.175 198.666 221.994 204.151 218.861 207.046C215.984 209.704 207.96 215.437 207.116 215.437C206.949 215.437 205.858 215.874 204.693 216.409C202.602 217.367 198.499 218.622 195.573 219.198C194.748 219.361 191.711 219.615 188.823 219.764C184.285 219.997 182.83 219.855 178.095 218.721C172.568 217.397 166.066 214.432 162.642 211.673C161.779 210.978 159.853 209.459 158.362 208.298C151.799 203.187 145.739 192.447 143.894 182.657C142.274 174.06 144.182 162.47 148.663 153.687C153.325 144.55 159.967 137.963 168.903 133.614C172.914 131.662 172.938 131.577 171.035 125.681C170.326 123.484 169.59 120.675 169.402 119.437L169.061 117.187L159.316 117.059C153.958 116.989 145.298 117.068 140.073 117.234L130.573 117.537L130.555 123.112C130.542 127.366 130.29 129.457 129.491 131.937C128.915 133.724 128.296 135.862 128.116 136.687C127.756 138.337 126.768 141.942 125.306 146.937C124.783 148.724 123.874 151.875 123.287 153.937C121.547 160.04 120.252 163.439 118.729 165.894C118.222 166.713 118.43 167.238 120.172 169.519C122.925 173.125 124.323 176.039 124.323 178.173C124.323 180.603 122.522 184.235 120.583 185.714C118.69 187.157 114.812 188.424 112.265 188.432C108.355 188.443 101.782 184.62 99.7285 181.139L98.7755 179.524L91.1744 179.788C83.8654 180.042 59.7274 178.947 51.0524 177.968C48.8644 177.721 46.5054 177.629 45.8124 177.764C44.2834 178.062 41.8234 176.308 41.8234 174.92C41.8234 174.4 43.0204 172.633 44.4834 170.993C45.9474 169.353 48.1374 166.701 49.3514 165.099C52.6614 160.733 59.6094 152.29 63.6984 147.664C65.6924 145.409 67.3234 143.33 67.3234 143.043C67.3234 141.747 58.4094 137.505 52.8234 136.143C48.5354 135.098 40.2365 135.248 35.9005 136.449C20.1405 140.817 9.90041 152.075 7.05341 168.166C5.41841 177.408 6.68946 184.894 11.4605 194.119C15.2895 201.523 24.2364 209.08 32.0734 211.529C37.5794 213.25 39.5014 213.557 45.0734 213.599C52.5364 213.657 54.7604 213.132 62.2724 209.539C67.5434 207.017 72.9914 202.118 77.1314 196.177C78.3584 194.415 81.9334 187.032 82.8754 184.312C83.5334 182.411 85.3234 181.609 85.3234 183.216C85.3234 184.691 84.1505 188.691 83.2385 190.327C81.5655 193.327 82.3544 193.986 84.2624 191.184C85.7314 189.027 86.9834 188.821 86.5264 190.812C85.9894 193.153 82.3784 199.974 80.2634 202.645C76.7044 207.138 68.3645 213.724 63.2155 216.108C60.1835 217.511 55.2964 218.944 51.8234 219.447C47.4954 220.073 39.7314 219.951 36.3184 219.203ZM191.815 213.408C202.873 212.022 212.142 206.731 218.478 198.187C225.849 188.249 228.305 176.305 225.366 164.687C223.498 157.304 218.125 148.774 212.408 144.118C209.134 141.451 201.84 137.813 197.323 136.594C194.002 135.698 181.81 135.286 181.05 136.044C180.853 136.24 180.962 137.365 181.293 138.544C181.895 140.694 182.436 142.818 183.271 146.312C184.478 151.36 188.025 164.779 189.411 169.538C190.898 174.641 190.931 174.947 190.135 176.163C189.219 177.56 187.989 177.784 186.643 176.8C185.374 175.872 181.3 163.468 177.326 148.437C176.709 146.099 176.013 143.512 175.78 142.687C175.548 141.862 175.233 140.568 175.081 139.812C174.913 138.98 174.478 138.437 173.98 138.437C172.648 138.437 166.829 141.848 163.58 144.533C159.934 147.546 154.891 154.015 153.637 157.29C150.43 165.66 150.076 167.037 149.491 173.399C148.891 179.916 151.694 189.876 156.039 196.668C159.174 201.568 166.13 207.662 171.323 210.057C175.487 211.978 182.452 213.821 185.836 213.897C186.806 213.919 189.496 213.699 191.815 213.408ZM118.415 180.604C119.652 179.484 119.556 178.609 117.876 175.687C115.862 172.183 115.025 171.605 111.537 171.307C109.86 171.164 107.525 170.55 106.321 169.936C104.207 168.858 104.121 168.852 103.444 169.756C102.242 171.361 102.986 174.299 105.159 176.529C106.763 178.175 110.75 180.52 113.823 181.625C114.995 182.047 117.415 181.508 118.415 180.604ZM113.168 164.312C114.106 163.278 115.287 160.437 116.339 156.687C116.57 155.862 117.454 152.712 118.304 149.687C119.153 146.662 120.277 142.275 120.802 139.937C121.326 137.599 122.11 134.224 122.543 132.437C124.174 125.702 124.323 124.86 124.323 122.395C124.323 118.055 122.878 116.528 107.823 104.956C100.481 99.3134 99.3234 98.0744 99.3234 95.8594C99.3234 94.8284 99.5995 93.3554 99.9355 92.5864C101.172 89.7624 106.797 80.6294 108.495 78.6874C109.968 77.0034 110.388 76.7744 111.158 77.2374C112.882 78.2754 112.534 80.2544 109.631 85.9104C106.136 92.7214 105.177 95.4084 105.92 96.3044C106.222 96.6684 108.968 98.6824 112.022 100.779C117.457 104.511 126.958 111.942 127.579 112.947C127.751 113.225 128.067 113.345 128.282 113.212C129.172 112.663 148.874 111.059 160.323 110.605C163.485 110.48 166.239 110.214 166.442 110.014C166.794 109.666 166.588 108.633 164.233 98.9374C163.109 94.3074 162.235 92.8254 161.227 93.8334C160.002 95.0584 156.159 94.5354 152.635 92.6654C150.799 91.6914 149.125 91.0004 148.915 91.1304C148.207 91.5684 140.613 90.3944 135.001 88.9794C130.002 87.7184 129.052 87.2894 125.747 84.8024C122.004 81.9844 108.92 68.9874 107.89 67.0624C107.441 66.2244 107.488 65.8444 108.114 65.2184C108.832 64.4994 109.156 64.6074 111.738 66.4294C113.297 67.5294 117.08 70.6254 120.145 73.3084C131.386 83.1514 130.738 82.7234 136.323 83.9864C139.667 84.7424 142.769 85.3824 145.573 85.8934C146.948 86.1434 150.211 86.8154 152.823 87.3864C158.538 88.6354 159.762 88.6744 161.212 87.6594C162.039 87.0794 162.323 86.3794 162.323 84.9204C162.323 82.5504 161.447 81.8634 156.963 80.7144C148.924 78.6554 136.52 74.1684 134.892 72.7304C134.243 72.1564 131.548 68.9874 128.904 65.6874C126.259 62.3874 122.965 58.3104 121.584 56.6284C120.203 54.9454 118.06 52.2884 116.823 50.7234C114.185 47.3874 111.381 45.5634 108.226 45.1304C106.392 44.8794 105.375 45.0824 102.901 46.1924C100.432 47.3004 99.0544 48.4414 95.7504 52.1084C88.0484 60.6604 80.8815 71.1924 76.4735 80.4374C73.1905 87.3224 72.5734 89.6164 72.5734 94.9374C72.5734 98.9624 72.7565 100.044 73.7705 102.028C75.9695 106.33 80.9744 110.142 91.3364 115.408C93.6674 116.592 96.1705 117.983 96.9005 118.499C97.6305 119.015 98.3545 119.437 98.5085 119.437C98.6625 119.437 100.729 120.702 103.1 122.247C108.113 125.515 109.44 127.272 109.098 130.187C108.968 131.287 108.503 135.562 108.063 139.687C107.624 143.812 106.94 149.24 106.544 151.749C105.699 157.099 105.615 161.614 106.336 162.96C106.993 164.189 109.209 165.391 110.861 165.417C111.581 165.428 112.598 164.941 113.168 164.312ZM127.132 156.812C128.943 153.734 133.836 148.341 144.28 137.912C156.254 125.956 159.72 123.134 160.939 124.353C161.686 125.1 156.907 130.259 144.123 142.505C132.26 153.868 125.528 159.537 127.132 156.812ZM123.313 40.7284C116.737 39.2844 111.017 34.6434 108.727 28.8914C105.906 21.8094 105.778 20.4754 107.412 15.2014C108.73 10.9494 110.423 8.34344 113.927 5.17544C117.779 1.69444 121.191 0.248439 126.076 0.0264387C132.692 -0.273561 137.98 1.97744 142.19 6.88544C144.108 9.12244 144.586 9.94944 145.832 13.1874C146.938 16.0584 147.266 20.7294 146.57 23.6704C144.521 32.3204 138.577 38.6234 130.48 40.7324C127.362 41.5444 127.027 41.5444 123.313 40.7284ZM130.679 34.4904C135.182 32.8444 137.945 30.1194 139.858 25.4374C140.991 22.6654 140.761 16.1474 139.441 13.6204C134.901 4.92544 123.337 3.51644 116.712 10.8494C113.437 14.4744 111.986 19.2734 112.876 23.5354C114.741 32.4614 122.749 37.3884 130.679 34.4904Z" fill="white"/>
</svg>
