<svg width="438" height="395" viewBox="0 0 438 395" fill="none" xmlns="http://www.w3.org/2000/svg">
<path fill-rule="evenodd" clip-rule="evenodd" d="M119.452 394.69C109.432 394.051 105.686 392.697 103.791 389.028C101.72 385.021 102.929 378.309 106.285 375.179C107.843 373.726 111.504 372.137 114.68 371.534C118.582 370.794 142.476 367.745 155.952 366.267C162.552 365.544 168.514 364.685 169.202 364.36C170.398 363.794 170.458 363.551 170.594 358.719L170.735 353.67L158.344 353.328C100.666 351.738 48.4407 349.224 32.2017 347.257C16.5487 345.361 10.4417 341.473 8.02868 331.867C6.42468 325.483 4.83368 309.145 3.46468 285.03C0.281678 228.913 -0.906323 161.201 0.737677 129.53C1.69368 111.117 2.85468 102.571 5.41168 95.1151C7.00868 90.4611 8.16868 88.6021 11.1497 85.9221C16.7447 80.8921 23.8427 79.0621 45.7017 77.0161C70.8387 74.6631 92.7907 73.9971 155.577 73.6851C188.926 73.5191 213.202 73.2101 213.202 72.9511C213.202 72.7051 212.021 71.0901 210.577 69.3621C207.225 65.3521 200.748 57.5711 192.247 47.3461C182.429 35.5351 165.819 16.2691 161.473 11.6491C157.305 7.21812 156.626 5.59412 157.909 3.11412C159.16 0.693117 161.884 -0.210881 164.197 1.02712C164.708 1.30112 167.716 4.73212 170.883 8.65212C180.115 20.0831 189.938 32.1051 197.975 41.8101C202.087 46.7771 209.277 55.4831 213.952 61.1571C218.627 66.8321 222.677 71.4861 222.952 71.5001C223.227 71.5141 225.861 68.5451 228.805 64.9031C234.239 58.1811 236.998 54.8991 253.952 34.9951C259.177 28.8611 264.782 22.2531 266.407 20.3111C268.033 18.3691 270.755 15.2051 272.457 13.2801C274.159 11.3551 277.076 7.98012 278.939 5.78012C280.802 3.58012 282.917 1.38812 283.639 0.908116C286.978 -1.30888 291.202 0.765116 291.202 4.62212C291.202 6.43112 290.781 7.01812 285.577 12.4651C272.082 26.5911 252.019 49.0281 240.809 62.5301C236.813 67.3421 233.203 71.5591 232.785 71.9001C232.367 72.2411 232.175 72.6701 232.359 72.8541C232.775 73.2701 242.94 73.1861 277.952 72.4751C305.405 71.9181 332.063 72.2561 361.952 73.5421C402.183 75.2731 414.131 77.8561 422.982 86.7381C430.12 93.9001 432.388 100.909 434.649 122.78C437.989 155.095 438.623 218.426 436.17 274.78C435.906 280.83 435.475 294.218 435.211 304.53C434.632 327.133 434.05 331.065 430.438 336.797C424.1 346.857 413.504 348.473 332.452 351.747C317.646 352.345 286.21 353.17 258.702 353.682L253.452 353.78L253.31 358.292C253.124 364.172 253.606 364.783 258.796 365.254C260.807 365.436 266.839 366.018 272.202 366.546C277.565 367.075 283.414 367.636 285.202 367.794C291.885 368.385 304.993 370.081 308.657 370.829C315.552 372.237 318.564 374.96 319.76 380.864C320.79 385.949 318.93 390.322 314.997 392.062C311.471 393.621 299.413 394.007 253.952 394.014C230.302 394.017 200.264 394.242 187.202 394.514C165.419 394.968 125.435 395.072 119.452 394.69ZM248.452 386.062C281.452 385.813 309.014 385.442 309.702 385.239C310.39 385.035 311.12 384.623 311.326 384.324C311.838 383.579 311.254 380.965 310.344 379.933C309.516 378.994 305.044 377.872 298.952 377.076C288.263 375.678 282.25 374.991 274.452 374.275C264.279 373.341 253.474 372.112 251.72 371.69C251.023 371.522 249.83 370.949 249.069 370.418C246.655 368.729 246.052 366.851 245.739 360.03L245.452 353.78H211.952H178.452L178.202 360.37C177.928 367.601 177.543 368.634 174.303 370.841C172.656 371.962 170.357 372.327 155.702 373.798C143.134 375.058 123.279 377.489 118.739 378.322C113.841 379.221 111.871 380.111 111.117 381.767C110.435 383.263 110.92 385.303 112.073 385.794C115.042 387.059 115.974 387.061 248.452 386.062ZM235.702 345.036C308.356 343.891 374.521 341.17 401.38 338.222C416.22 336.594 421.412 334.026 423.507 327.28C424.293 324.75 424.37 323.193 425.689 283.28C425.971 274.755 426.466 261.93 426.79 254.78C427.577 237.4 427.579 172.502 426.793 158.28C424.828 122.728 422.66 105.361 419.38 98.8881C417.822 95.8131 414.155 91.8281 411.469 90.2911C403.484 85.7221 387.601 83.7111 350.202 82.5321C330.213 81.9031 108.177 81.9301 87.4517 82.5651C50.9697 83.6831 27.3587 86.0361 20.6437 89.2221C11.9317 93.3571 9.84068 102.164 8.70268 139.53C7.13968 190.816 9.85268 279.759 14.1787 319.03C15.2157 328.446 16.9627 333.196 20.1697 335.318C22.3117 336.736 28.2077 338.322 33.8757 339.006C50.0087 340.952 87.7167 342.92 130.702 344.058C189.448 345.613 195.513 345.67 235.702 345.036ZM183.702 333.969C167.084 333.555 99.9087 331.462 72.9517 330.518C41.3577 329.412 35.3227 328.342 30.5177 322.998C25.3617 317.263 23.7097 303.845 21.7177 251.53C20.1687 210.831 20.9667 140.25 23.2327 117.631C24.4417 105.564 28.0227 100.388 36.7387 98.1131C46.2007 95.6421 73.4187 93.8031 119.202 92.5411C179.213 90.8871 327.842 90.1821 352.202 91.4361C393.04 93.5391 401.435 95.7741 406.008 105.761C407.335 108.66 408.932 118.261 409.422 126.28C412.522 177.058 413.386 203.909 413.054 239.063C412.729 273.376 411.875 291.997 409.954 306.664C408.892 314.769 407.931 317.667 405.354 320.533C401.406 324.925 396.611 326.342 380.952 327.747C370.286 328.704 339.946 330.444 310.702 331.775C256.367 334.249 220.136 334.875 183.702 333.969ZM269.202 325.801C292.174 324.925 320.027 323.731 333.702 323.036C338.789 322.777 348.24 322.322 354.702 322.025C361.164 321.728 371.74 321.057 378.202 320.533C397.622 318.96 399.944 317.691 402.182 307.431C402.834 304.441 404.487 282.581 405.312 266.03C406.153 249.155 406.147 189.394 405.303 172.78C403.745 142.111 402.135 123.069 400.399 114.78C398.249 104.51 394.631 102.701 372.452 100.805C344.911 98.4511 322.73 97.8111 270.702 97.8671C214.013 97.9281 120.931 98.8541 104.452 99.5201C65.2137 101.106 60.6307 101.384 49.7017 102.835C35.2427 104.754 32.3097 106.606 30.7907 114.78C27.6077 131.905 27.2267 237.007 30.1857 281.53C31.8687 306.849 33.6307 315.935 37.4387 318.93C39.2897 320.386 45.6337 321.892 52.4517 322.492C55.7517 322.783 67.7897 323.256 79.2017 323.543C117.343 324.501 178.253 326.237 190.952 326.727C200.879 327.109 250.172 326.526 269.202 325.801ZM353.827 311.721C353.054 311.382 353.005 309.711 353.754 309.248C354.057 309.06 357.151 308.706 360.629 308.461C367.511 307.976 375.867 306.853 378.811 306.019C381.556 305.241 383.472 303.389 384.191 300.818C385.373 296.597 388.202 295.919 388.202 299.857C388.202 303.176 385.716 307.197 382.683 308.782C380.659 309.841 374.405 310.926 368.452 311.253C356.117 311.93 354.426 311.985 353.827 311.721ZM46.4057 176.956C46.2107 176.64 45.8187 168.298 45.5337 158.418C45.1307 144.418 45.1567 139.018 45.6527 133.948C46.3557 126.762 46.9217 124.953 49.3257 122.215C51.4817 119.759 54.1117 118.67 60.0387 117.776C66.3067 116.832 70.2307 116.822 71.4807 117.749C73.3097 119.105 71.4887 119.98 65.6807 120.538C59.5927 121.123 55.5017 122.113 53.7187 123.435C49.8447 126.306 49.1517 131.206 48.9587 157.095C48.8797 167.736 48.6637 176.687 48.4787 176.986C48.0377 177.699 46.8547 177.682 46.4057 176.956Z" fill="white"/>
</svg>
