<svg width="170" height="139" viewBox="0 0 170 139" fill="none" xmlns="http://www.w3.org/2000/svg">
<path fill-rule="evenodd" clip-rule="evenodd" d="M69.1023 138.264C60.5283 136.942 58.4653 136.517 54.6023 135.275C40.1343 130.622 27.6133 122.635 19.4343 112.84C14.9923 107.52 12.5453 103.796 9.06231 97.0552C5.81631 90.7722 3.92332 85.2332 2.56932 78.0552C2.05032 75.3052 1.27331 71.4802 0.842314 69.5552C0.412314 67.6302 0.0363149 63.6932 0.00731491 60.8052C-0.0386851 56.1622 0.104318 55.2232 1.25132 52.6782C2.78632 49.2742 6.70331 44.9632 10.7873 42.1842C17.0323 37.9332 28.8833 33.3052 33.5203 33.3052C34.4013 33.3052 36.7483 32.7192 38.7363 32.0022C46.3423 29.2632 52.9633 27.9022 63.8523 26.8432C72.0833 26.0422 82.7853 25.7172 83.5673 26.2442C84.1053 26.6062 83.7943 26.8052 82.3173 27.0452C81.2363 27.2212 78.6493 27.8012 76.5683 28.3352C74.4873 28.8682 71.7873 29.3072 70.5683 29.3092C69.3493 29.3112 63.8523 29.8832 58.3523 30.5802C52.8523 31.2772 46.2143 32.0692 43.6023 32.3392C38.1093 32.9092 35.9743 33.6232 23.6533 39.0182C14.4533 43.0462 7.82631 47.7962 5.21931 52.2292C4.07631 54.1742 3.85432 55.1282 3.86532 58.0552C3.88132 62.3382 4.56932 63.7452 8.90332 68.3602C12.1433 71.8092 12.5253 72.4842 11.5743 73.0732C10.5403 73.7112 8.64632 72.7722 5.89332 70.2562C4.35832 68.8532 3.10232 67.9112 3.10232 68.1632C3.10232 71.4672 7.89032 86.7382 11.0693 93.5752C13.0333 97.7972 18.5563 106.351 22.0003 110.503C26.9783 116.503 36.7783 123.831 44.8113 127.559C56.3253 132.902 66.7883 135.031 81.3523 134.995C93.2043 134.965 100.873 133.689 111.208 130.029C131.517 122.836 147.408 106.023 154.425 84.3052C154.825 83.0672 155.347 81.6052 155.586 81.0552C156.536 78.8652 157.102 76.5702 157.102 74.9132C157.102 73.9552 157.363 72.3002 157.682 71.2352C158.407 68.8162 158.048 68.4062 156.53 69.9152C154.785 71.6502 149.208 75.5072 146.352 76.9542C137.864 81.2552 127.444 84.5232 116.352 86.3602C101.232 88.8652 99.5013 88.9962 81.3523 89.0002C65.0253 89.0042 63.2253 88.9142 54.4973 87.6652C38.6633 85.3992 27.9153 82.5962 19.4723 78.5322C15.2743 76.5122 14.3373 75.7182 14.7803 74.5612C15.1853 73.5062 16.1503 73.6122 19.3123 75.0582C23.0593 76.7722 33.8443 80.2892 36.4483 80.6462C38.3603 80.9082 38.6233 80.8162 39.0323 79.7462C40.0633 77.0492 43.6973 75.5002 44.0033 77.6262C44.1083 78.3562 43.6693 79.0452 42.6243 79.7892C41.7803 80.3902 41.1953 81.0512 41.3233 81.2582C41.6813 81.8372 46.7043 82.9282 48.1053 82.7312C48.7913 82.6342 49.3123 82.3302 49.2633 82.0552C49.2143 81.7802 49.7203 80.8392 50.3883 79.9632C52.4883 77.2102 51.6383 76.0562 48.4123 77.2822C47.4233 77.6582 46.9123 77.5522 46.0043 76.7822L44.8523 75.8052L45.9993 74.8322C46.6293 74.2972 48.1323 73.7122 49.3393 73.5312C51.3133 73.2352 51.7363 73.3662 53.5673 74.8372C55.6903 76.5432 56.1833 78.2842 55.1113 80.2882C54.7473 80.9692 54.8113 81.2782 55.3613 81.4892C56.3263 81.8602 56.3193 82.8052 55.3523 82.8052C54.3253 82.8052 54.4063 83.6182 55.4773 84.0572C59.5573 85.7282 86.6813 86.3322 99.3523 85.0332C108.398 84.1052 110.147 83.7582 110.619 82.7942C111.666 80.6552 112.602 78.1892 112.602 77.5682C112.602 76.4312 111.608 76.1442 110.656 77.0062C109.477 78.0732 105.186 78.1042 104.78 77.0492C104.38 76.0042 105.484 74.8142 107.852 73.7372C110.725 72.4302 112.299 72.5692 114.275 74.3052C116.089 75.8972 117.409 79.5502 116.83 81.3742C116.541 82.2842 116.7 82.3282 119.186 82.0272C123.529 81.5002 130.334 79.6302 135.514 77.5392C137.343 76.8012 137.633 76.4962 137.397 75.5562C137.212 74.8192 137.454 74.1422 138.115 73.5432C139.079 72.6702 139.151 72.6762 140.264 73.7232C140.898 74.3182 141.739 74.8022 142.134 74.7982C142.87 74.7922 149.137 71.3872 150.754 70.1152C151.614 69.4382 151.59 69.2802 150.243 66.7302C149.261 64.8722 148.094 63.5742 146.423 62.4802C145.099 61.6142 143.665 60.3762 143.236 59.7302C141.601 57.2682 137.858 53.8052 136.833 53.8052C135.829 53.8052 133.602 55.6732 133.602 56.5152C133.602 56.7332 134.164 57.5792 134.852 58.3962C135.54 59.2132 136.102 60.4272 136.102 61.0932C136.102 62.3602 135.41 62.7082 134.813 61.7422C134.587 61.3762 133.5 61.2792 131.702 61.4642C128.986 61.7452 128.862 61.6992 124.397 58.7772C119.487 55.5642 117.541 55.1142 114.784 56.5522C113.996 56.9632 113.001 57.3002 112.573 57.3022C112.144 57.3042 111.357 57.6242 110.823 58.0142C109.87 58.7112 109.873 58.7502 111.001 60.2752C111.632 61.1282 112.012 62.0472 111.845 62.3162C111.043 63.6152 104.102 61.9882 104.102 60.5012C104.102 60.1182 104.328 59.8052 104.604 59.8052C104.88 59.8052 106.511 58.3652 108.229 56.6042C110.425 54.3532 111.945 53.2422 113.352 52.8572C115.816 52.1842 119.808 52.1472 122.007 52.7782C123.39 53.1742 123.821 53.0862 124.679 52.2282C125.95 50.9572 125.663 50.6942 121.539 49.3472L118.227 48.2652L116.406 49.3392C114.418 50.5122 113.707 50.2802 112.474 48.0562C112.132 47.4402 111.352 46.0282 110.741 44.9182C108.649 41.1172 105.339 39.6262 101.527 40.7682C97.5943 41.9472 98.8123 44.3052 103.353 44.3052C105.287 44.3052 106.198 44.5702 107.075 45.3872C108.185 46.4222 108.196 46.4992 107.324 47.1372C106.109 48.0262 105.626 47.9802 103.852 46.8052C103.017 46.2522 101.506 45.8102 100.444 45.8082C98.2503 45.8052 96.6023 45.0712 96.6023 44.0992C96.6023 43.7292 96.2633 43.1462 95.8483 42.8022C95.4343 42.4582 94.5283 41.1362 93.8363 39.8662C91.4043 35.4002 87.8853 34.1502 81.7863 35.5872C77.2993 36.6432 72.4643 39.5342 71.2003 41.9162C69.9583 44.2562 67.8293 46.3052 66.6403 46.3052C65.1713 46.3052 65.3513 45.3622 67.1803 43.4742C68.5073 42.1062 68.6563 41.7232 68.1193 41.0752C67.2243 39.9972 59.9973 39.9762 59.1073 41.0492C58.6133 41.6452 58.6253 41.8372 59.1713 42.0112C59.5453 42.1312 60.6963 42.4892 61.7273 42.8062C65.2513 43.8902 63.7403 46.3052 59.5373 46.3052C57.9103 46.3052 57.0783 45.9902 56.0133 44.9702C54.6483 43.6622 54.5983 43.6542 53.5943 44.5622C53.0313 45.0722 52.1253 46.2092 51.5813 47.0882C49.9503 49.7282 46.0853 50.7492 42.0273 49.6132C40.5563 49.2012 37.1753 48.7132 34.5133 48.5282L29.6753 48.1922L27.4013 50.5312C25.5173 52.4702 25.0713 53.2992 24.7953 55.3802C24.6123 56.7612 24.2123 57.9592 23.9073 58.0422C20.0953 59.0892 18.1913 60.2572 14.3113 63.9302C11.2643 66.8142 9.90232 67.8052 9.51532 67.4182C7.84432 65.7472 12.8303 59.8852 18.4483 56.9142C21.4523 55.3262 21.5543 55.2062 21.8583 52.9162C22.2763 49.7592 22.9553 48.5052 25.2183 46.7132C27.6323 44.8012 30.1593 44.4612 34.4663 45.4682C42.5773 47.3652 44.4283 47.5052 48.1383 46.5062C48.5703 46.3892 49.4233 45.4072 50.0323 44.3222C51.4263 41.8422 54.5443 39.1512 57.9643 37.4782C60.1333 36.4172 61.1223 36.2242 63.4803 36.4022C65.0593 36.5212 67.1943 37.0232 68.2233 37.5172L70.0943 38.4152L71.9023 36.8292C75.3523 33.7992 81.1773 31.8052 86.5773 31.8052C90.4973 31.8052 91.7063 32.3322 94.5963 35.2992L97.0263 37.7942L99.6323 37.2992C101.066 37.0272 102.939 36.8062 103.795 36.8082C108.062 36.8152 112.017 39.3572 113.707 43.1762C114.753 45.5412 114.996 45.6402 120.518 45.9632C123.224 46.1212 124.558 46.4542 125.612 47.2332L127.039 48.2892L128.095 46.9222C130.135 44.2822 134.102 37.7662 134.102 37.0572C134.102 35.5662 127.807 33.4482 121.352 32.7672C118.877 32.5062 113.815 31.8562 110.102 31.3222C106.389 30.7892 100.764 30.1052 97.6023 29.8032C91.5223 29.2212 87.3433 28.1802 86.1023 26.9362C84.6713 25.5022 104.03 26.7642 113.972 28.7532C121.039 30.1672 129.151 32.5852 132.928 34.4032C133.519 34.6882 134.269 34.8332 134.594 34.7242C134.92 34.6162 136.693 31.6082 138.536 28.0412C148.12 9.4842 153.602 2.4982 160.291 0.317202C164.177 -0.949798 168.418 1.7222 168.962 5.7802C169.557 10.2182 166.89 14.8122 156.783 26.7592C149.013 35.9442 146.618 38.9302 146.609 39.4462C146.605 39.6612 146.996 39.9812 147.477 40.1572C149.193 40.7852 153.905 44.2202 155.973 46.3512C158.483 48.9372 161.194 54.1392 161.917 57.7572C162.389 60.1152 161.121 72.0972 160.067 75.2472C159.55 76.7912 159.121 78.6022 159.114 79.2702C159.101 80.5972 158.907 81.2862 156.585 88.2772C152.831 99.5792 146.314 109.743 137.43 118.148C122.834 131.957 103.313 138.922 79.7013 138.747C75.3843 138.714 70.6143 138.497 69.1023 138.264ZM155.885 65.5562C159.852 60.3552 159.503 54.2552 154.964 49.4562C152.065 46.3912 145.867 41.6332 145.104 41.8882C144.393 42.1252 138.604 49.9242 138.603 50.6462C138.602 50.9722 139.085 51.3912 139.675 51.5782C141.739 52.2332 144.973 55.7402 145.66 58.0702C146.198 59.8912 146.614 60.3962 147.935 60.8322C149.672 61.4062 152.383 64.1642 153.123 66.1112C153.739 67.7312 154.314 67.6162 155.885 65.5562ZM133.576 51.5242C139.304 42.9132 146.47 33.6262 155.518 23.0922C160.224 17.6122 164.531 12.1582 165.089 10.9722C166.85 7.2252 166.325 4.4332 163.651 3.3252C161.531 2.4472 159.434 3.2702 155.714 6.4382C150.693 10.7172 148.118 14.4602 142.348 25.8702C132.834 44.6842 129.814 50.3862 128.043 52.8822C127.526 53.6122 127.102 54.5562 127.102 54.9792C127.102 55.8612 129.055 57.3932 129.685 57.0042C129.915 56.8612 131.667 54.3952 133.576 51.5242ZM36.4183 115.316C35.1393 113.383 34.7153 111.802 35.4773 111.808C35.8173 111.811 36.6613 113.038 38.4823 116.18C39.6853 118.255 37.8573 117.489 36.4183 115.316ZM30.8893 104.728C29.9773 102.901 29.8793 101.805 30.6283 101.805C31.1393 101.805 32.6023 104.756 32.6023 105.789C32.6023 106.844 31.6503 106.254 30.8893 104.728ZM25.3843 100.052C24.2513 97.6642 23.1163 93.8222 23.0963 92.3052C23.0873 91.6172 22.6403 90.4932 22.1023 89.8052C20.9953 88.3902 20.8233 87.0362 21.6833 86.5052C22.6103 85.9322 24.1023 88.2292 24.1053 90.2352C24.1073 91.2362 24.7753 93.9672 25.5883 96.3052C26.4023 98.6432 27.0753 100.836 27.0853 101.18C27.1183 102.39 26.2073 101.786 25.3843 100.052ZM27.4533 93.1802C26.0883 90.2752 26.1643 89.5552 27.8333 89.5552C29.6713 89.5552 30.9253 91.4512 30.4193 93.4652C29.9443 95.3602 28.4073 95.2122 27.4533 93.1802ZM71.7733 73.6422C67.8123 71.9552 67.1023 71.1032 67.1023 68.0402C67.1023 62.9482 69.3403 59.2032 74.0443 56.4262C75.7473 55.4202 77.1083 55.0812 80.1583 54.9052C83.6653 54.7022 84.3743 54.8212 86.8363 56.0252C90.2903 57.7152 92.8383 60.7432 93.6013 64.0612C93.9163 65.4332 94.5073 67.1732 94.9153 67.9282C95.6193 69.2312 95.5843 69.3702 94.2543 70.6232C92.3343 72.4322 88.6493 74.0522 87.9803 73.3832C87.6253 73.0282 87.9543 72.3762 89.0333 71.2972C91.2313 69.0992 91.4573 67.6992 90.0883 64.7762C87.2723 58.7622 82.3023 56.8082 76.7973 59.5512C73.4743 61.2082 71.7943 63.0582 71.0373 65.8982C70.1743 69.1312 70.8183 70.3172 74.3423 71.9852C79.0733 74.2252 76.7143 75.7462 71.7733 73.6422ZM130.257 70.4872C129.764 69.2032 130.774 68.1162 132.863 67.6822C135.605 67.1122 136.057 67.9082 134.034 69.7472C132.164 71.4462 130.733 71.7272 130.257 70.4872ZM29.2953 64.5862C28.0273 61.2842 34.5743 55.2172 41.0083 53.7322C42.9873 53.2752 44.0303 53.2752 45.5523 53.7312C49.1003 54.7942 51.7913 59.4812 50.4553 62.2692C49.3913 64.4882 48.0263 63.7882 47.3753 60.6892C46.7663 57.7942 42.2233 56.9672 38.1793 59.0162C35.5563 60.3452 34.8693 61.0172 33.6613 63.4362C33.0353 64.6892 32.4843 65.0912 31.2243 65.2122C30.1013 65.3202 29.5023 65.1262 29.2953 64.5862ZM78.1023 63.5442C78.1023 61.9112 79.9333 60.9992 81.8973 61.6532C82.6633 61.9092 83.3743 62.3712 83.4783 62.6822C83.7213 63.4112 81.0273 64.8052 79.3773 64.8052C78.3473 64.8052 78.1023 64.5622 78.1023 63.5442ZM153.122 22.5362C153.111 22.2512 153.768 21.2382 154.582 20.2862C155.396 19.3342 156.071 18.7882 156.082 19.0742C156.093 19.3592 155.436 20.3722 154.622 21.3242C153.808 22.2762 153.133 22.8222 153.122 22.5362ZM160.383 9.8052C160.773 6.5922 161.346 5.3052 162.385 5.3052C164.291 5.3052 163.823 8.5192 161.565 10.9342L160.05 12.5552L160.383 9.8052Z" fill="white"/>
</svg>
