<svg viewBox="0 0 340 303" xmlns="http://www.w3.org/2000/svg" width="340" height="303" fill="none">
  <path fill="white" fill-rule="evenodd" d="M253.782 302.491c-1.238-.098-4.387-.406-7-.684-2.613-.279-8.35-.843-12.75-1.254s-10.475-1.079-13.5-1.484-9.1-1.186-13.5-1.736-10.812-1.353-14.25-1.785-8.05-1.006-10.25-1.277-5.688-.71-7.75-.977c-2.062-.268-5.775-.71-8.25-.984-2.475-.273-5.062-.607-5.75-.743-1.209-.237-9.285-1.316-17-2.27-8.515-1.053-43.053-5.538-53.75-6.979-6.325-.852-13.23-1.753-15.345-2.003-4.811-.568-6.92-1.641-12.66-6.438a582 582 0 0 0-8.967-7.317 1696 1696 0 0 1-10.254-8.25 3214 3214 0 0 0-10.814-8.732C14.23 235.319 5.732 228.361 3.664 226.38c-3.27-3.132-4.18-5.929-3.404-10.467.777-4.553 3.343-12.008 4.788-13.911 2.76-3.636 7.938-4.518 19.484-3.319 3.3.343 8.475.859 11.5 1.147a379 379 0 0 1 16.5 1.933c1.65.229 3.169.32 3.375.202s.375-4.37.375-9.45c0-10.326.087-10.564 3.295-9.034l1.705.813.087 7.383c.114 9.646.15 10.537.442 10.829.33.331 4.889.553 5.189.252.13-.13-.096-1.206-.504-2.39-1.365-3.962-.31-6.126 4.186-8.592 2.642-1.448 3.554-1.04 4.547 2.034.864 2.672.606 3.129-3.245 5.76-3.098 2.116-3.847 3.38-2.352 3.968 1.468.577 7.987.943 8.259.464.138-.243.042-2.017-.215-3.942-.256-1.925-.433-5.339-.392-7.587.086-4.819-.206-5.134-4.844-5.212-3.973-.067-9.408-1.483-9.408-2.451 0-.549.76-.818 2.836-1.003 3.042-.271 4.062-.788 2.932-1.486-1.016-.628-8.451-1.61-10.763-1.422-1.59.13-2.006-.017-2.158-.763-.246-1.203 2.156-3.701 4.125-4.289.84-.251 4.228-1.618 7.528-3.037s6.707-2.791 7.57-3.049c2.494-.743 2.614-1.155 2.093-7.201-.598-6.949-.147-128.74.494-133.25.827-5.82 1.534-7.585 4.02-10.047 1.915-1.895 3.377-2.702 8.323-4.595C100.759 10.563 124.33 3.28 136.013.46c2.608-.63 5.073-.621 19.75.072 22.812 1.077 64.649 3.664 85.519 5.289 3.712.289 11.363.855 17 1.258 9.707.694 12.803.952 26.5 2.204l11.25 1.025c6.055.55 11.737 1.22 16.812 1.982 1.822.273 6.434.734 10.25 1.023 8.353.633 10.181 1.08 12.412 3.04 2.605 2.288 3.176 4.576 3.54 14.206.529 14 .316 184.862-.259 207.25-.552 21.502-.887 25.079-2.547 27.19-1.007 1.28-7.951 6.687-14.208 11.062-1.925 1.346-7.438 5.289-12.25 8.761-9.448 6.818-21.273 14.83-23.85 16.161-3.418 1.764-7.793.52-7.7-2.191.023-.678.029-39.258.014-85.733-.016-49.109.189-90.573.489-99 .453-12.703.718-25.231.589-27.856-.037-.751-.45-.818-3.348-.548-3.148.294-15.454-.36-25.694-1.363-2.613-.256-9.925-.92-16.25-1.474-6.325-.555-13.75-1.224-16.5-1.486s-7.925-.72-11.5-1.015-8.525-.758-11-1.027c-2.475-.27-7.312-.718-10.75-.998s-6.812-.612-7.5-.737-8-.798-16.25-1.495-16.912-1.488-19.25-1.757c-3.994-.46-9.834-.92-25.25-1.992-14.734-1.025-21.28-1.59-26.392-2.277-2.966-.4-5.603-.725-5.86-.725-.286 0-.557 18.072-.696 46.375-.125 25.506-.301 47.495-.39 48.864-.15 2.304-.058 2.539 1.242 3.166.984.475 1.358.988 1.25 1.716-.174 1.169-5.14 4.847-6.572 4.866-1.094.015-10.332 4.064-10.332 4.529 0 .416 9.014 1.534 9.576 1.187.233-.144.424-.993.424-1.887 0-2.264 1.15-3.743 2.346-3.015.644.393.947 1.292 1.055 3.123.129 2.194.312 2.599 1.25 2.771.604.11 2.769.568 4.81 1.017 2.687.591 3.808.662 4.058.257.19-.308-.221-2.283-.913-4.389-1.162-3.535-1.263-4.582-1.308-13.58-.033-6.722.168-10.682.648-12.75 1.108-4.77 3.578-12.285 4.91-14.937l1.224-2.437-.79-5.404c-1.068-7.303-1.123-33.131-.082-38.107 1.22-5.832 4.21-9.59 9.177-11.53 2.437-.953 5.712-1.041 13.153-.354 2.867.265 9.937.832 15.712 1.26a1730 1730 0 0 1 18.75 1.504c4.537.398 9.938.846 12 .996 2.062.149 6.113.498 9 .774s13.125 1.179 22.75 2.007c9.625.827 20.425 1.827 24 2.22 3.575.396 11.562 1.193 17.75 1.772 11.168 1.045 16.537 1.967 19.068 3.273 2.371 1.223 5.315 5.113 6.529 8.627l1.153 3.336v153l-1.335 4.127-1.335 4.127 3.926 3.563c5.27 4.782 6.248 6.968 5.775 12.915-.395 4.969-1.56 11.019-2.603 13.518-2.113 5.059-7.225 7.309-15.178 6.681m4.711-6.618c.148-.24-1.357-1.801-3.346-3.47a581 581 0 0 1-5.115-4.336c-.825-.715-5.692-4.835-10.816-9.154-13.238-11.159-29.194-25.792-31.84-29.2l-2.254-2.903h-3.965c-4.766 0-24.768-2.149-55.75-5.989a2212 2212 0 0 0-18.875-2.282c-23.046-2.689-22.071-2.568-51.75-6.461-5.362-.703-12-1.818-14.75-2.476-4.687-1.122-10.504-2.041-20.893-3.301-2.416-.293-6.803-.998-9.75-1.565-2.946-.568-6.482-1.212-7.857-1.432-3.311-.53-4.25-.944-4.25-1.875 0-.674.816-.732 6.375-.449 3.506.178 11.325.892 17.375 1.587 6.05.694 13.925 1.58 17.5 1.968s10.213 1.164 14.75 1.724 11.85 1.384 16.25 1.831 10.925 1.12 14.5 1.497c3.575.376 8.668.909 11.319 1.185 9.765 1.016 18.768 2.064 21.931 2.552 1.787.277 8.088 1.07 14 1.764 17.387 2.04 26.648 3.162 28.25 3.423.825.135 3.637.499 6.25.81 7.832.932 14.139 2.033 15.932 2.783 2.288.956 2.568.901 2.568-.504 0-1.287 2.611-9.069 3.85-11.477.618-1.201.63-1.546.07-2.099-.872-.862-6.39-1.922-15.42-2.965-3.988-.46-9.838-1.156-13-1.546a8256 8256 0 0 0-16.25-1.976c-10.356-1.25-19.698-2.573-28.5-4.036-2.475-.411-6.412-.935-8.75-1.163-12.905-1.262-17.027-1.649-24.75-2.321-7.81-.679-19.55-1.954-29.5-3.203-13.022-1.634-35.59-4.24-45.54-5.257-15.662-1.602-16.271-1.43-18.403 5.19-2.922 9.075-3.087 8.773 10.693 19.583 9.6 7.532 19.867 15.729 27.297 21.794 3.326 2.715 8.389 6.833 11.25 9.151s6.778 5.6 8.703 7.293c4.922 4.329 5.557 4.661 10.023 5.234 2.188.281 5.665.735 7.727 1.008 5.947.79 19.62 2.421 27.25 3.251 3.85.419 8.688.986 10.75 1.26 4.248.566 8.659 1.1 20.5 2.483 4.537.53 10.05 1.207 12.25 1.505s5.688.748 7.75 1.001 5.55.703 7.75 1 5.688.744 7.75.994 5.325.682 7.25.96c1.925.279 5.412.734 7.75 1.011 7.836.93 20.171 2.499 29.5 3.753 9.467 1.273 14.149 1.853 22.5 2.788 4.615.517 11.64 1.299 12.845 1.429.328.036.717-.131.866-.372m28.919-3.394a377 377 0 0 0 4.12-2.918l8.75-6.334c17.124-12.395 27.379-19.956 29.186-21.518l1.937-1.675.476-7.737c.262-4.255.457-9.65.432-11.987-.024-2.338.379-6.548.896-9.357.934-5.072.934-5.114-.056-6-.992-.888-.995-1.333-.559-88.143.465-92.597.421-111.967-.254-112.642-.388-.388-5.745 1.68-13.468 5.2-1.738.794-3.393 1.442-3.678 1.442s-1.901.657-3.591 1.459c-3.899 1.852-20.269 8.398-23.571 9.426-1.375.428-2.802 1.05-3.17 1.384-.535.484-.707 4.85-.849 21.544-.098 11.515-.134 25.775-.079 31.687.054 5.912.098 52.881.098 104.375s.171 93.625.38 93.625 1.559-.824 3-1.831m-23.81-1.206c.329-1.217 1.092-4.43 1.698-7.14 1.095-4.901 1.095-4.933.122-6.25-1.009-1.364-12.732-12.163-23.671-21.804-3.42-3.014-8.953-8.189-12.295-11.5-6.191-6.132-15.681-14.269-16.642-14.269-.293 0-.532.541-.532 1.203s-.805 3.418-1.788 6.125c-2.589 7.127-2.592 7.18-.355 8.754 6.035 4.248 38.407 33.517 48.643 43.981 1.788 1.827 3.469 3.275 3.737 3.217s.755-1.1 1.083-2.317m-4.82-33.811v-5.348l-1.73 1.676c-2.321 2.25-3.27 1.555-3.27-2.393v-2.79l-1.875 1.78c-1.031.979-2.269 1.918-2.75 2.086-1.175.411-1.112 1.694.103 2.08.538.171 1.505.917 2.149 1.659 1.523 1.753 6.731 6.598 7.093 6.598.154 0 .28-2.407.28-5.348m-20.813-19.402c2.097-1.238 5.557-3.304 7.688-4.593s5.788-3.301 8.125-4.47c2.337-1.17 4.531-2.374 4.875-2.677.746-.656.867-9.854.144-10.997-.398-.628-.636-.582-1.618.312-.633.577-2.276 1.677-3.651 2.445-8.114 4.531-8.547 4.833-9.516 6.635-.913 1.699-1.17 1.847-3.238 1.866-2.285.022-8.372 2.391-11.121 4.328-1.768 1.246-3.128.81-3.874-1.244-.347-.954-.698-6.422-.865-13.48l-.283-11.875h-2.237c-1.231 0-4.629-.335-7.552-.744a3014 3014 0 0 0-11.064-1.524c-3.162-.429-7.256-.994-9.096-1.256-1.841-.262-4.51-.476-5.931-.476h-2.584l.356 1.875c.196 1.031.431 4.895.522 8.586.121 4.904.343 6.806.824 7.064.363.194 3.359.616 6.659.937 10.978 1.067 16.403 2.352 20.249 4.794.963.612 5.429 4.629 9.925 8.928s8.461 7.816 8.812 7.816 2.353-1.012 4.451-2.25m-2.687-17.168 4.25-2.373v-9.901c0-5.446-.12-9.976-.267-10.068s-2.056.942-4.242 2.297-4.382 2.463-4.88 2.463c-.85 0-.89.589-.657 9.875.136 5.431.258 9.931.272 10 .095.486 1.858-.245 5.524-2.293m-53.214-4.246c.14-.365-.02-1.321-.357-2.125-.36-.861-.648-4.23-.702-8.211l-.09-6.75-6.944-.799c-3.818-.439-7.772-.968-8.785-1.174-1.824-.372-1.853-.353-3.12 2.149-.873 1.722-2.354 3.385-4.659 5.234-3.355 2.69-9.661 6.34-10.954 6.34-1.116 0-.76.963.45 1.218 2.929.618 11.805 1.855 18.125 2.525 7.935.842 14.4 1.743 14.708 2.05.477.474 2.092.158 2.328-.457m65.045-1.607 2.169-1.271.003-6.104c.002-3.357.147-7.96.324-10.229.382-4.907-.108-5.245-3.259-2.247l-1.975 1.879.017 9.621c.009 5.292.137 9.622.284 9.622.148 0 1.244-.572 2.437-1.271m9.296-4.922 2.373-.943v-3.932c0-2.163-.194-3.932-.432-3.932s-.839 1.067-1.337 2.37-1.541 3.373-2.318 4.598c-1.394 2.198-1.772 3.274-1.036 2.949.208-.092 1.445-.591 2.75-1.11m-122.166.035c.434-.363 2.426-.925 4.426-1.251 5.815-.946 10.816-3.608 16.873-8.98 1.444-1.28 2.227-2.317 1.951-2.583-.253-.244-3.611-.809-7.461-1.255a789 789 0 0 1-12.25-1.522 500 500 0 0 0-7.5-.967c-1.238-.141-7.93-.937-14.872-1.77-6.941-.833-12.735-1.514-12.875-1.514-.713 0-.061 1.935 1.539 4.57 2.107 3.467 5.288 6.818 9.458 9.962 1.65 1.244 3.066 2.714 3.147 3.267.129.883.828 1.1 5.75 1.782 7.292 1.011 10.821 1.089 11.814.261m-23.961-2.242c0-.219-.822-.696-1.826-1.059-3.9-1.411-10.506-9.34-11.967-14.364-.738-2.541-.83-2.633-2.86-2.92-5.038-.711-10.63-1.094-11.008-.754-.227.203-.176 1.244.11 2.312.4 1.48.35 2.597-.206 4.689-.402 1.51-.734 4.142-.737 5.848l-.006 3.103 1.625.245c.894.135 2.525.387 3.625.56 2.609.411 8.878 1.152 14.411 1.704 2.425.242 4.544.574 4.708.738.448.449 4.131.358 4.131-.102m129.205-11.675c1.95-.825 4.591-2.046 5.869-2.712s2.639-1.213 3.025-1.213c.385 0 .98-.279 1.322-.621.341-.341 2.58-1.658 4.975-2.926 4.319-2.286 4.355-2.322 4.508-4.379.198-2.669-.712-2.739-3.569-.277-1.147.988-5.01 3.304-8.585 5.147-7.755 3.998-13.451 7.342-14.348 8.425-.581.702-.44.748 1.303.422 1.075-.202 3.55-1.041 5.5-1.866m-12.608-1.096c2.251-1.907 5.81-3.964 12.441-7.189 5.108-2.484 10.208-5.098 11.333-5.809 1.125-.71 3.358-1.733 4.962-2.274l2.917-.983.146-4.08c.163-4.565-.354-4.884-1.64-1.011-.826 2.487-3.574 5.517-5.004 5.517-.392 0-1.177-.497-1.743-1.105-.975-1.048-1.023-1.606-.894-10.567l.135-9.462 4.181-2.168c5.291-2.745 5.571-2.99 5.561-4.884-.013-2.635-.579-2.978-2.521-1.523-.947.71-3.196 2.04-5 2.957-4.045 2.057-4.49 2.579-4.39 5.142.049 1.247-.273 2.579-.829 3.427l-.91 1.388-.732-1.102c-.402-.607-1.009-1.103-1.348-1.103-.986 0-12.048 5.389-12.717 6.196-.481.579-.456 1.027.115 2.143 1.144 2.231 1.37 6.853.705 14.37-.622 7.035-1.258 8.704-2.368 6.205-.284-.64-.793-5.551-1.132-10.914-.578-9.165-.674-9.75-1.602-9.75-.954 0-.987.392-1 12-.007 6.6-.195 12.281-.418 12.625-.659 1.019-3.729.776-4.327-.342-1.36-2.541-.123-16.226 2.09-23.135 1.753-5.472.992-6.195-9.366-8.896-3.295-.859-6.499-1.892-7.118-2.294-.978-.636-1.308-.639-2.501-.022-.756.391-2.67.873-4.254 1.071-5.223.652-11.473 2.457-12.176 3.515-1.096 1.652-.254 2.204 2.56 1.678a13.5 13.5 0 0 1 4.996.038c2.887.582 16.061 1.512 21.416 1.512 2.287 0 3.991.254 4.576.682.891.651.874.719-.38 1.541-2.631 1.724-5.814 2.277-13.065 2.27-9.898-.009-18.727-1.93-19.625-4.269-.867-2.26-1.172.421-1.183 10.401-.007 6.119-.24 12.111-.518 13.316-.277 1.205-.368 2.328-.201 2.495.294.294 2.977.602 13.481 1.545 6.473.581 22.217 2.819 22.612 3.214.693.693 1.741.169 4.735-2.366m31.903-1.329c0-.55-.225-1-.5-1s-.5.45-.5 1 .225 1 .5 1 .5-.45.5-1m-76.334-1.875c.124-.206-.09-1.838-.475-3.625-.484-2.243-.677-6.21-.622-12.802.044-5.254-.088-9.825-.294-10.158-.687-1.111.236-3.932 1.781-5.442.84-.822 2.522-1.874 3.738-2.338 3.75-1.433 13.286-3.813 16.706-4.17 2.442-.256 3.211-.518 3.095-1.055-.085-.393-.405-1.856-.711-3.25s-.583-7.035-.617-12.535l-.061-10-1.921-3.75c-5.054-9.868-11.22-15.895-20.833-20.364-4.642-2.158-8.246-2.766-14.702-2.478-7.222.322-11.904 1.669-15 4.313-.601.514-2.694 1.087-5.25 1.438-4.061.559-8.915 1.995-10.164 3.009-.322.261-1.373.923-2.336 1.47s-3.061 1.792-4.663 2.768-4.169 2.17-5.704 2.653c-3.076.967-8.954 4.598-12.985 8.02-7.348 6.238-13.945 18.823-15.683 29.921-1.484 9.477-1.066 17.238 1.354 25.117 1.502 4.891.979 4.639 12.181 5.856 3.988.433 10.062 1.115 13.5 1.515s7.825.866 9.75 1.035c1.925.17 5.975.614 9 .987 14.733 1.819 21.77 2.346 22.563 1.688 2.101-1.744 6.272-11.943 8.449-20.66 1.227-4.912.833-17.332-.732-23.038-3.362-12.262-8.954-20.338-19.53-28.206-2.338-1.739-4.25-3.417-4.25-3.728 0-1.193 4.463-.556 7.782 1.112 11.106 5.581 19.789 18.575 22.288 33.354.737 4.365.767 5.94.243 12.968-.328 4.4-.899 9.376-1.269 11.059-1.382 6.286-4.822 13.784-7.268 15.842-2.361 1.987-2.035 2.843 1.099 2.878 1.444.016 3.525.215 4.625.442 2.614.541 6.63.63 6.916.154m47.257-31.555c.73-.511 4.139-2.234 7.577-3.827 3.438-1.594 6.5-3.09 6.805-3.324.658-.504 1.207-10.498 1.25-22.747.039-11.035.293-10.607-8.055-13.563-3.372-1.194-14.113-1.146-19 .086-4.609 1.161-6.096 1.887-7.511 3.67-1.069 1.347-1.089 1.61-.731 9.635.481 10.74.369 21.602-.239 23.199-.743 1.956.329 2.602 4.904 2.955 4.199.324 9.008 1.933 11.398 3.812 1.611 1.268 1.928 1.277 3.602.104m21.95-11.305c2.98-1.437 4.624-3.029 4.633-4.484.004-.567.451-2.449.995-4.183.855-2.727.92-3.633.48-6.733-.574-4.046-1.333-5.484-3.633-6.887-1.673-1.02-6.051-1.363-6.575-.515-.666 1.077.842 2.809 3.082 3.537 2.928.952 4.152 3.024 4.129 6.992-.028 4.774-2.446 8.619-6.109 9.715-.619.185-.875.779-.875 2.027 0 2.128.438 2.188 3.873.531m-149.873-22.747c0-.895 6.181-7.097 9.269-9.3 4.21-3.004 7.731-6.851 7.731-8.447 0-.699-.169-1.27-.375-1.269s-1.341 1.014-2.522 2.25-2.431 2.248-2.777 2.248-1.584.702-2.751 1.56-2.277 1.405-2.467 1.215c-.458-.458 2.491-5.994 5.811-10.905 1.468-2.172 2.531-4.086 2.363-4.255s-2.748 2.243-5.733 5.357c-3.191 3.328-5.659 5.519-5.988 5.315-1.726-1.066.564-6.524 4.779-11.391 1.463-1.69 2.66-3.24 2.66-3.445 0-.206.59-1.076 1.312-1.934s1.17-1.702.995-1.877c-.483-.482-3.112 2.198-6.116 6.235-1.484 1.994-3.014 3.625-3.401 3.625-1.523 0-1.371-6.546.221-9.52.656-1.227-.599-4.34-1.365-3.382-1.863 2.33-2.018 3.539-2.328 18.152-.169 7.975-.454 15.794-.633 17.375-.278 2.463-.207 2.875.495 2.875.451 0 .82-.217.82-.482m18.019-29.498c1.122-.96 1.456-1.487.95-1.5-.43-.011-1.429.655-2.219 1.48-1.85 1.93-.983 1.945 1.269.02m159.071-25.395c-.088-5.981.054-14.487.315-18.902.735-12.42 1.385-13.236 15.095-18.957a395 395 0 0 0 6.5-2.796c1.788-.791 5.725-2.367 8.75-3.5s6.175-2.358 7-2.72c4.165-1.83 8.016-3.25 8.807-3.25 1.101 0 1.739-.926.85-1.235-.628-.22-10.097-1.4-15.907-1.985-1.512-.153-6.8-.512-11.75-.8-4.95-.286-12.375-.833-16.5-1.215-11.767-1.088-19.664-1.731-31-2.524a3282 3282 0 0 1-17-1.231 2964 2964 0 0 0-13.75-1.013c-3.988-.283-10.175-.728-13.75-.99-3.575-.26-14.488-1.05-24.25-1.754-29.021-2.095-35.16-2.662-37-3.42-2.184-.896-4.226-.627-9 1.188-2.062.784-6.45 2.236-9.75 3.227-9.397 2.82-33.243 10.693-35.893 11.85-2.704 1.18-2.858 2.202-.31 2.052 1.76-.104 11.103.509 20.703 1.357 3.025.267 7.637.613 10.25.768s7.45.49 10.75.744 9.262.686 13.25.96l14.75 1.02c4.125.287 10.762.735 14.75.996 11.144.73 34.059 2.447 40.75 3.053 5.848.529 10.725.934 23 1.909 5.711.454 10.437.93 20.47 2.068 8.577.97 15.53 2.774 15.53 4.025 0 1.138-13.499 1.129-28.51-.02-19.617-1.5-43.815-3.45-49.99-4.027-9.053-.846-28.583-2.531-35-3.02-5.591-.425-8.804-.756-19-1.958-2.2-.26-4.562-.515-5.25-.57-.887-.068-.669-.201.75-.456 1.1-.198-.7-.258-4-.133-5.287.2-13.782-.255-34.25-1.831-5.98-.461-8.365-.872-9.302-1.604-.303-.238-1.615-.286-2.915-.108-1.918.263-2.454.562-2.844 1.587-.264.695-.527 8.912-.584 18.3l-.105 17.04 2.75.35c3.232.412 23.019 2.086 37.25 3.15 5.5.412 11.912.966 14.25 1.23 2.338.266 7.512.723 11.5 1.017 9.305.685 23.782 1.874 30.5 2.506 2.887.27 9.525.846 14.75 1.278 13.826 1.14 40.818 3.633 45.75 4.223 2.337.28 6.725.725 9.75.988 16.991 1.482 25.241 2.473 26.57 3.193.786.426 1.655.784 1.93.795.323.014.444-3.822.34-10.855m-60.916 151.607c-.588-1.533.085-16.089.783-16.931.869-1.047 1.333-1.011 2.543.199.875.875.996 1.643.97 6.125-.038 6.529-.581 9.854-1.749 10.708-1.207.883-2.184.844-2.547-.101m-52.799-13.272c-1.806-1.052-1.018-2.374 2.5-4.189 1.856-.958 3.965-2.121 4.687-2.584 2.732-1.754 3.886.65 1.915 3.989-1.584 2.686-6.624 4.227-9.102 2.784m10.625.04c0-.275.338-.5.75-.5s.75.225.75.5-.338.5-.75.5-.75-.225-.75-.5m25.252-21.875c-.162-1.031-.398-2.526-.525-3.322-.259-1.621.473-2.803 1.734-2.803 1.912 0 2.076 1.435.787 6.875-.431 1.817-1.667 1.352-1.996-.75m37.821-3.019c-.244-.471-.559-4.724-.701-9.451-.289-9.607.012-10.852 2.551-10.559 1.252.145 1.342.339 1.595 3.404.329 3.991-.191 12.022-.96 14.824-.626 2.283-1.794 3.12-2.485 1.782m-132.117-24.881c-.189-10.511 2.316-16.972 9.294-23.974 4.485-4.501 9.524-7.354 14.096-7.981 4.291-.588 6.338.72 2.285 1.46-3.923.716-9.096 3.715-12.838 7.441-5.945 5.921-9.756 13.084-11.348 21.329-.802 4.156-1.433 4.886-1.489 1.725m85.313-6.194c-.159-.257-.522-2.329-.808-4.602-1.547-12.338-5.25-21.443-12.322-30.296-2.408-3.015-8.337-8.056-10.363-8.812-.355-.132-.338-.396.051-.811 2.626-2.796 14.972 6.637 20.126 15.377 2.273 3.855 4.612 9.553 5.82 14.176 1.175 4.502 1.142 13.149-.055 14.473-.94 1.038-1.983 1.249-2.449.495m31.231-26.521c-3.468-.452-7.959-1.753-9.206-2.666-.631-.461-.84-1.003-.615-1.589.302-.787.73-.846 3.706-.504 1.851.212 7.838.451 13.304.531 10.307.151 12.11.511 10.076 2.012-1.192.88-3.992 1.666-8.015 2.25-3.381.491-5.279.484-9.25-.034m22.25-56.453c-2.279-.582-3.457-1.341-5.244-3.377-2.397-2.73-3.167-4.934-2.87-8.215.47-5.184 3.618-9.206 8.211-10.492 7.876-2.205 15.954 8.075 12.172 15.489-2.544 4.987-7.706 7.762-12.269 6.595m5.367-5.886c2.792-1.406 3.698-5.484 1.874-8.435-2.358-3.816-5.808-4.321-8.97-1.313-1.838 1.748-2.021 2.15-2.021 4.432 0 2.888 1.034 4.55 3.604 5.799 1.716.833 3.15.707 5.513-.483m-36.219-.113c-3.151-2.02-4.584-4.803-4.291-8.336.477-5.762 6.71-9.911 11.293-7.517 6.206 3.242 6.901 11.49 1.298 15.407-1.071.75-2.848 1.496-3.948 1.658-1.666.246-2.392.044-4.352-1.212m6.285-4.594c1.877-1.477 1.815-4.043-.145-6.002-1.636-1.637-3.257-1.853-4.958-.662-2.543 1.78-2.487 5.162.111 6.746 2.011 1.226 3.357 1.204 4.992-.082m-31.007 2.99c-2.054-.595-4.538-3.461-4.963-5.725-.508-2.71.024-5.956 1.263-7.695 1.235-1.735 4.375-3.54 6.129-3.523 2.387.023 5.343 1.872 6.889 4.31 1.779 2.805 1.954 5.34.559 8.074-1.169 2.29-2.305 3.344-4.68 4.336-2.046.855-2.891.89-5.197.223m5.362-5.416c1.656-1.656 1.783-2.468.707-4.548-1.572-3.04-4.931-3.175-6.726-.27-1.353 2.188-1.289 2.885.432 4.727 1.87 2.002 3.648 2.03 5.587.09m-52.314-.787c-1.224-2.088-1.329-2.657-1.115-6 .267-4.158 1.202-6.06 3.232-6.568 1.038-.261 1.539-.073 2.295.86.794.982.909 1.647.639 3.702a116 116 0 0 0-.516 4.86c-.224 2.842-1.216 5.075-2.35 5.293-.548.106-1.295-.628-2.185-2.147m13.497-3.491c-1.695-1.293-.012-1.856 4.526-1.516 4.038.303 5.143.72 4.53 1.712-.528.854-7.889.694-9.056-.196" clip-rule="evenodd"/>
</svg>
