<svg width="218" height="206" viewBox="0 0 218 206" fill="none" xmlns="http://www.w3.org/2000/svg">
<path fill-rule="evenodd" clip-rule="evenodd" d="M78.1881 205.248C70.3751 204.17 66.0691 203.116 58.4381 200.412C40.7091 194.129 25.9271 182.723 15.5991 167.358C12.3981 162.595 8.28706 155.056 6.94606 151.49C6.58406 150.527 5.98206 148.953 5.60906 147.99C-0.495941 132.263 -1.72094 111.446 2.44406 94.2163C3.44106 90.0913 5.42706 83.5713 6.39606 81.2403C9.74806 73.1743 14.4091 64.7593 18.9181 58.6303C22.9931 53.0903 31.3401 44.4683 37.1901 39.7573C41.5761 36.2243 49.1891 30.9903 49.9421 30.9903C50.1481 30.9903 51.6081 30.2133 53.1861 29.2623C58.6031 26.0003 72.9981 20.6923 79.6881 19.4903C81.6131 19.1443 83.9751 18.6583 84.9381 18.4103C85.9011 18.1623 88.9461 17.8233 91.7051 17.6553C96.5211 17.3643 96.7781 17.4013 98.1441 18.5753C100.06 20.2233 99.6551 21.2553 95.7921 24.5793C89.8611 29.6833 80.7591 40.2703 78.1351 45.1183C70.9611 58.3693 68.5721 64.3883 66.6751 73.9903C66.2671 76.0523 65.6561 79.0903 65.3161 80.7403C64.5271 84.5743 64.5711 96.1943 65.3921 100.74C66.3301 105.935 67.9531 111.823 69.4581 115.49C80.5971 142.629 105.794 159.316 137.188 160.347C144.892 160.599 152.369 159.967 158.688 158.527C159.788 158.276 162.038 157.799 163.688 157.465C165.338 157.132 168.756 156.184 171.283 155.36C173.811 154.535 176.233 153.996 176.666 154.162C177.099 154.328 177.681 155.065 177.96 155.798C178.681 157.694 176.694 161.284 171.415 167.624C163.204 177.487 160.34 180.137 149.777 187.647C142.676 192.696 127.158 199.74 117.938 202.099C116.975 202.345 115.401 202.747 114.438 202.992C113.475 203.236 109.012 204.011 104.519 204.713C95.3651 206.144 86.0561 206.333 78.1881 205.248ZM103.457 199.261C118.931 197.294 134.122 191.503 148.188 182.208C153.343 178.802 155.207 177.294 164.252 169.219C167.368 166.436 170.899 161.785 170.329 161.214C170.22 161.105 168.907 161.446 167.41 161.97C164.262 163.073 156.15 164.708 149.756 165.53C143.95 166.276 129.01 165.865 123.188 164.8C116.434 163.564 106.383 160.155 100.196 157.001C89.2821 151.438 80.8511 144.239 73.1571 133.914C60.3491 116.729 55.9951 94.9543 60.9741 72.9903C61.2541 71.7533 61.6661 69.9533 61.8881 68.9903C65.0171 55.4493 76.0391 36.6313 86.8761 26.3303C88.5601 24.7293 89.9381 23.3233 89.9381 23.2053C89.9381 22.8133 87.4861 22.9823 85.0701 23.5413C80.1031 24.6893 79.0871 24.9483 75.4381 25.9983C66.2371 28.6463 55.0691 33.6603 47.9381 38.3463C40.3931 43.3033 30.9361 51.8133 26.3851 57.7413C19.0881 67.2443 14.6941 74.9343 11.3871 83.9903C10.4801 86.4753 9.95406 88.0423 8.45006 92.7403C7.12606 96.8753 5.80606 107.627 5.74806 114.74C5.66506 125.126 6.54906 131.284 9.55606 141.24C11.1101 146.385 11.6471 147.729 15.0461 154.972C19.9451 165.412 28.7491 176.061 38.6881 183.57C47.6941 190.374 59.3701 195.783 69.9381 198.048C79.4201 200.079 93.1201 200.576 103.457 199.261ZM131.691 120.315C131.031 119.308 131.005 118.583 131.504 115.228L132.085 111.316L130.582 110.028C129.755 109.32 128.26 108.112 127.258 107.344C123.818 104.704 125.301 102.529 131.761 100.739C134.646 99.9393 134.9 99.7463 135.929 97.5643C138.698 91.6903 139.081 91.0693 140.097 90.8043C141.809 90.3563 143.228 91.7053 144.931 95.4003L146.522 98.8503L150.319 99.1713C157.284 99.7603 158.175 101.743 153.621 106.518C150.875 109.397 150.812 109.525 151.148 111.606C151.988 116.805 152.053 118.499 151.44 119.237C150.47 120.406 148.193 120.133 144.854 118.448L141.798 116.905L140.396 117.942C137.991 119.72 134.54 121.49 133.478 121.49C132.919 121.49 132.115 120.961 131.691 120.315ZM138.688 114.49C141.252 112.726 142.272 112.645 145.049 113.987C146.183 114.535 147.207 114.888 147.324 114.771C147.44 114.654 147.293 113.426 146.996 112.042C146.357 109.063 146.563 108.35 148.788 105.845C149.714 104.802 150.339 103.734 150.175 103.47C150.012 103.206 148.787 102.99 147.453 102.99C145.358 102.99 144.85 102.78 143.732 101.451C143.02 100.605 142.301 99.3683 142.134 98.7013C141.668 96.8473 140.589 97.2543 139.512 99.6903C138.155 102.758 136.874 103.863 134.218 104.262C132.957 104.451 131.827 104.766 131.706 104.962C131.584 105.158 132.515 106.178 133.773 107.23L136.061 109.143L135.816 112.566C135.676 114.535 135.771 115.99 136.04 115.99C136.297 115.99 137.489 115.315 138.688 114.49ZM191.947 100.14C190.894 99.4023 190.829 99.0853 191.107 96.0403C191.273 94.2253 191.538 91.9533 191.696 90.9903C191.972 89.3053 191.861 89.1513 188.716 86.8483C185.366 84.3963 184.31 82.6053 185.289 81.0383C185.973 79.9423 187.579 79.2153 191.688 78.1423L195.188 77.2273L197.454 72.8153C201.013 65.8823 202.34 65.8253 205.671 72.4563L207.876 76.8463L211.782 77.1973C219.033 77.8483 219.763 79.7703 214.737 84.9763L211.536 88.2913L212.035 90.5163C213.059 95.0793 213.097 97.4863 212.161 98.5203C210.913 99.8993 209.563 99.7353 205.53 97.7183L201.989 95.9463L199.338 97.6983C197.881 98.6613 195.878 99.7853 194.889 100.195C193.274 100.864 192.972 100.858 191.947 100.14ZM198.638 93.3923C200.948 91.7313 202.519 91.6373 205.32 92.9903C208.227 94.3953 208.542 94.3053 208.145 92.1883C207.325 87.8143 207.574 86.6483 209.822 84.3583C210.986 83.1723 211.938 82.0563 211.938 81.8773C211.938 81.6983 210.869 81.4063 209.563 81.2293C205.759 80.7123 205.527 80.5663 203.806 77.6213C202.905 76.0783 201.947 74.7563 201.678 74.6813C201.408 74.6073 200.513 75.9403 199.688 77.6433C198.067 80.9903 198.679 80.6053 191.513 82.7913C191.087 82.9213 191.781 83.8453 193.388 85.2903C195.679 87.3503 195.938 87.7943 195.938 89.6653C195.938 90.8103 195.734 92.4593 195.484 93.3313C194.74 95.9243 195.108 95.9313 198.638 93.3923ZM139.955 41.7583C138.949 40.6883 138.842 40.2113 139.135 38.1333C140.702 27.0523 140.9 28.0253 136.458 24.9963C132.22 22.1053 130.938 20.7343 130.938 19.0913C130.938 18.2963 131.332 17.3003 131.813 16.8793C132.767 16.0433 137.157 14.4553 141.335 13.4363C144.245 12.7263 144.468 12.5383 145.434 9.99028C146.629 6.83828 149.085 1.75828 149.847 0.865278C150.942 -0.419722 153.188 -0.246722 154.277 1.20628C154.778 1.87528 156.294 4.35028 157.645 6.70628L160.103 10.9903H165.087C171.313 10.9903 173.719 11.6423 174.368 13.5053C174.961 15.2053 174.05 16.8383 169.873 21.5573C166.612 25.2433 166.45 25.9183 167.886 29.8483C169.276 33.6523 169.679 37.9933 168.758 39.2403C167.518 40.9173 164.32 40.4343 158.822 37.7413L154.064 35.4113L150.626 37.7763C146.875 40.3563 142.302 42.9903 141.573 42.9903C141.32 42.9903 140.591 42.4363 139.955 41.7583ZM150.536 32.8973C152.102 31.8483 153.564 30.9903 153.786 30.9893C154.007 30.9893 156.383 31.9253 159.065 33.0703C161.748 34.2153 164.083 35.0123 164.254 34.8403C164.426 34.6693 164.213 33.4493 163.781 32.1293C163.349 30.8083 162.75 28.6343 162.451 27.2963C161.823 24.4973 162.011 24.0813 166.016 19.4223C167.348 17.8723 168.438 16.4663 168.438 16.2973C168.438 16.1283 167.032 15.9683 165.313 15.9423C163.594 15.9163 161.087 15.6343 159.741 15.3173C157.359 14.7553 157.232 14.6303 154.991 10.6273C153.724 8.36528 152.51 6.50928 152.291 6.50228C152.073 6.49528 150.92 8.57728 149.728 11.1283C148.536 13.6793 147.252 15.9943 146.874 16.2743C146.115 16.8363 143.975 17.5503 140.188 18.5063C138.813 18.8533 137.516 19.2883 137.305 19.4713C137.095 19.6553 138.3 20.8033 139.985 22.0233C141.669 23.2423 143.51 24.8913 144.077 25.6873C145.021 27.0113 145.059 27.3743 144.523 29.9673C144.201 31.5253 143.938 33.7613 143.938 34.9363V37.0723L145.813 35.9383C146.844 35.3143 148.969 33.9463 150.536 32.8973Z" fill="white"/>
</svg>
