<svg width="365" height="312" viewBox="0 0 365 312" fill="none" xmlns="http://www.w3.org/2000/svg">
<path fill-rule="evenodd" clip-rule="evenodd" d="M111.115 310.929C110.164 310.575 109.983 310.223 110.186 309.119C110.324 308.366 110.937 305.162 111.548 301.999C112.515 296.996 112.625 295.178 112.394 287.999C111.955 274.284 109.765 265.788 100.593 242.205C99.193 238.605 97.625 234.443 97.108 232.955C96.591 231.467 95.563 228.561 94.824 226.499C91.386 216.898 87.997 200.698 87.294 190.499C86.72 182.184 88.403 169.777 90.353 167.946L91.456 166.909L92.505 167.958C93.433 168.886 93.51 169.338 93.175 171.878C92.417 177.623 92.822 190.882 93.967 197.749C95.193 205.111 95.415 206.067 98.144 215.749C100.708 224.85 100.706 224.843 105.959 237.999C114.747 260.007 117.262 268.373 118.587 279.999C119.761 290.304 118.455 302.1 115.455 308.285C114.201 310.868 112.969 311.619 111.115 310.929ZM318.957 306.624C318.256 305.868 316.503 303.481 315.062 301.319C313.621 299.158 311.273 296.008 309.845 294.319C302.435 285.559 300.722 283.379 297.817 279.007C294.836 274.521 291.565 268.423 290.035 264.499C289.207 262.374 288.621 261.924 287.481 262.534C286.19 263.225 281.079 263.097 277.178 262.277C260.451 258.758 250.512 249.667 249.269 236.749C249.011 234.062 249.173 232.714 250.332 227.878C250.615 226.699 250.269 226.083 247.865 223.487C244.502 219.854 242.97 217.307 241.587 213.041C239.954 208.009 240.394 201.742 242.82 195.446L243.708 193.143L241.139 189.968C234.959 182.33 233.923 173.161 238.12 163.249C238.935 161.324 240.283 159.044 241.116 158.182L242.63 156.614L240.963 155.373C237.119 152.51 236.662 152.33 235.003 153.017C234.089 153.395 228.432 159.058 221.069 166.965C214.251 174.285 207.788 180.888 206.707 181.637C204.012 183.505 201.031 183.524 199.582 181.682C199.012 180.957 198.546 179.966 198.546 179.48C198.546 176.816 213.195 152.657 220.104 143.927C220.897 142.925 221.546 141.877 221.546 141.599C221.546 141.105 216.933 136.999 216.379 136.999C216.226 136.999 214.716 139.021 213.024 141.492C211.331 143.963 208.556 147.507 206.857 149.367C205.158 151.227 201.882 154.962 199.577 157.667C193.785 164.464 188.009 169.499 186.004 169.499C184.281 169.499 181.546 167.17 181.546 165.702C181.546 164.751 187.954 151.795 189.51 149.599C190.036 148.856 192.164 145.549 194.238 142.249C196.313 138.949 199.368 134.289 201.028 131.894C202.688 129.499 204.046 127.448 204.046 127.336C204.046 126.941 199.374 123.499 198.839 123.5C198.54 123.5 197.664 124.501 196.891 125.724C196.119 126.947 193.756 129.928 191.641 132.348C189.525 134.769 186.479 138.324 184.87 140.249C179.251 146.975 171.46 155.002 170.258 155.303C167.482 156 164.546 153.98 164.546 151.372C164.546 149.887 166.677 145.067 169.728 139.651C171.621 136.291 181.565 121.326 184.645 117.204C185.69 115.804 186.546 114.296 186.546 113.854C186.546 113.412 185.733 112.43 184.739 111.672C182.989 110.337 182.911 110.324 182.237 111.245C181.855 111.768 179.012 114.797 175.919 117.976C172.826 121.156 168.186 126.118 165.607 129.003C158.211 137.278 153.929 141.509 152.617 141.839C149.797 142.546 147.499 140.247 148.207 137.426C148.415 136.595 149.109 136.002 150.404 135.547C152.937 134.657 154.164 133.466 161.102 125.168C164.359 121.273 168.997 116.404 171.41 114.347C173.822 112.29 176.453 109.912 177.256 109.062C178.656 107.581 178.68 107.476 177.845 106.553C176.708 105.297 174.105 104.223 173.6 104.802C173.385 105.048 171.574 107.218 169.574 109.624C167.574 112.03 165.767 113.999 165.557 113.999C164.06 113.999 155.502 122.88 151.267 128.828C149.474 131.346 147.66 133.54 147.236 133.703C146.811 133.866 145.591 133.999 144.523 133.999C141.698 133.999 141.04 132.58 142.58 129.806C144.34 126.635 155.396 110.115 158.011 106.749C161.591 102.14 165.049 97.17 165.015 96.686C164.966 95.992 160.618 92.999 159.662 93C159.186 93 158.183 93.971 157.433 95.158C154.492 99.814 136.888 118.617 132.796 121.473C129.121 124.038 126.078 123.861 124.543 120.993C123.828 119.657 124.953 117.15 130.067 108.684C133.767 102.559 136.093 99.064 144.638 86.793L147.979 81.994L145.668 80.229C143.466 78.548 143.319 78.507 142.536 79.357C142.084 79.848 138.695 83.846 135.005 88.242C131.315 92.638 125.146 99.446 121.296 103.372C114.45 110.352 114.249 110.509 112.164 110.504C110.319 110.5 109.904 110.29 109.091 108.954C108.316 107.678 108.24 107.088 108.656 105.579C109.554 102.325 117.921 87.424 124.425 77.499C128.67 71.022 130.364 68.999 131.546 68.999C132.226 68.999 132.327 68.527 132.162 66.124C131.928 62.7 133.35 59.059 136.83 54.178C143.072 45.422 148.686 44.068 158.669 48.909C164.097 51.541 184.405 65.605 198.046 76.179C215.035 89.348 225.923 98.293 240.046 110.685C242.108 112.495 244.072 113.981 244.409 113.987C244.746 113.994 245.759 113.55 246.659 113.001C248.11 112.116 249.183 112.003 256.091 112.001C260.379 112 265.667 112.213 267.841 112.475C270.016 112.736 274.046 113.214 276.796 113.537C303.097 116.623 317.749 124.365 328.296 140.749C334.473 150.345 340.257 160.908 342.533 166.749C343.176 168.399 343.892 169.963 344.124 170.224C344.356 170.485 344.546 170.985 344.546 171.334C344.546 171.684 345.133 173.27 345.85 174.859C346.567 176.449 347.451 178.424 347.814 179.249C348.93 181.784 352.545 192.538 353.612 196.499C356.611 207.626 358.432 215.244 359.587 221.499C359.815 222.737 360.25 225.099 360.553 226.749C361.251 230.547 361.741 234.038 362.762 242.499C363.21 246.211 363.795 250.889 364.061 252.894C364.328 254.899 364.546 258.21 364.546 260.252C364.546 264.287 364.066 264.999 361.346 264.999C359.534 264.999 358.871 263.379 357.508 255.624C357.076 253.169 356.767 251.458 355.568 244.874C355.305 243.43 354.647 239.662 354.106 236.499C351.435 220.887 347.865 205.791 343.701 192.499C336.736 170.263 321.357 141.775 312.19 134.126C309.349 131.756 302.588 128.029 298.046 126.33C291.866 124.019 282.87 122.096 266.046 119.489C262.033 118.867 249.386 118.007 249.051 118.333C248.778 118.599 250.711 120.433 260.703 129.391C264.472 132.77 268.125 136.395 268.821 137.447C269.99 139.214 270.312 139.384 273.012 139.667C276.442 140.025 279.931 141.198 286.921 144.342C289.96 145.71 294.15 148.707 296.309 151.058C299.504 154.537 300.657 156.766 300.892 159.917C301.008 161.475 301.708 166.237 302.449 170.499C303.272 175.231 303.799 180.118 303.803 183.048C303.809 187.742 303.845 187.888 305.428 189.691C307.368 191.901 307.433 192.658 305.819 194.272C304.128 195.963 302.538 195.811 299.709 193.689C293.949 189.368 288.657 183.118 283.468 174.507C278.674 166.552 274.287 160.649 272.468 159.709C269.842 158.351 266.573 159.769 265.299 162.82C264.393 164.987 264.303 171.397 265.117 175.719C265.993 180.373 269.282 189.997 271.513 194.433C273.966 199.312 277.757 205.766 281.684 211.748C285.359 217.348 289.046 224.998 289.046 227.026C289.046 227.867 289.26 229.5 289.521 230.653C289.783 231.806 290.47 235.561 291.048 238.999C294.634 260.303 298.814 269.37 311.939 284.312C315.759 288.661 319.521 293.454 321.162 296.062C322.999 298.982 325.546 304.134 325.546 304.929C325.546 308.052 321.297 309.145 318.957 306.624ZM286.702 255.445C286.65 255.062 286.173 253.061 285.64 250.999C285.108 248.937 284.384 245.76 284.031 243.94L283.389 240.631L280.092 240.342C276.43 240.021 269.877 237.953 268.462 236.673C267.958 236.217 267.546 235.358 267.546 234.765C267.546 233.328 270.041 230.999 271.579 230.999C272.633 230.999 278.499 232.683 281.141 233.744C281.911 234.053 281.96 233.664 281.697 229.416C281.369 224.132 280.977 223.152 276.386 216.13C273.681 211.992 273.18 211.481 271.581 211.229C266.982 210.503 259.666 206.531 252.906 201.091C251.042 199.59 249.356 198.522 249.161 198.717C248.522 199.356 248.129 207.197 248.634 209.249C249.961 214.65 253.121 218.775 261.671 226.269C264.307 228.579 264.546 228.962 264.546 230.869C264.546 233.396 263.599 234.132 261.334 233.366C260.488 233.08 259.179 232.416 258.424 231.891C256.506 230.555 256.024 231.104 256.297 234.312C257.109 243.844 262.788 249.849 274.796 253.87C278.74 255.19 285.097 256.505 286.296 256.248C286.571 256.19 286.754 255.828 286.702 255.445ZM264.866 196.423C262.921 192.382 261.909 189.585 258.92 179.999C258.62 179.036 258.324 176.021 258.262 173.298C258.17 169.242 257.996 168.261 257.303 167.873C256.837 167.612 254.246 165.734 251.544 163.699C248.843 161.664 246.388 159.999 246.089 159.999C245.79 159.999 245.543 160.393 245.539 160.874C245.535 161.355 245.174 162.761 244.738 163.999C242.498 170.349 242.258 176.993 244.121 181.03C245.723 184.501 250.365 189.509 256.546 194.435C261.234 198.171 266.536 201.676 266.919 201.293C267.027 201.185 266.103 198.993 264.866 196.423ZM297.078 179.058C296.785 178.512 296.546 177.484 296.546 176.774C296.546 176.065 296.225 174.194 295.833 172.616C295.441 171.039 294.875 167.524 294.576 164.804C294.276 162.084 293.617 158.923 293.111 157.778C291.969 155.198 289.346 152.154 287.89 151.721C287.288 151.542 285.841 150.93 284.675 150.36C283.508 149.791 282.407 149.471 282.229 149.649C282.051 149.828 282.716 150.964 283.708 152.174C286.09 155.081 286.894 156.851 286.163 157.582C285.361 158.384 281.694 156.545 278.582 153.781C277.194 152.548 274.875 150.644 273.427 149.549C267.829 145.314 260.059 138.735 250.077 129.778C224.505 106.832 194.989 83.078 171.046 66.174C160.138 58.473 154.167 54.691 151.481 53.783C147.474 52.428 145.221 53.988 140.912 61.101C139.875 62.811 138.801 65.051 138.525 66.078C138.248 67.105 137.47 68.38 136.795 68.91C136.12 69.441 135.345 70.462 135.073 71.179C134.8 71.895 132.77 75.179 130.562 78.476C126.861 83.999 120.793 93.45 118.415 97.395C117.373 99.124 117.529 100.104 118.66 98.934C119.023 98.557 120.436 96.786 121.799 94.999C123.162 93.212 125.069 90.83 126.037 89.708C127.004 88.585 129.259 85.891 131.046 83.722C135.827 77.919 139.107 74.493 140.639 73.701C141.386 73.315 143.159 72.999 144.579 72.999C146.744 72.999 147.548 73.282 149.547 74.75C152.6 76.991 153.546 78.469 153.546 80.998C153.546 83.371 152.069 86.504 148.947 90.749C145.733 95.12 135.816 109.915 134.536 112.249L133.439 114.249L134.793 112.999C136.302 111.607 147.831 98.009 149.115 96.107C150.666 93.812 155.77 88.905 157.555 87.994C161.141 86.165 162.684 86.207 166.007 88.225C171.028 91.275 171.778 92.908 170.345 97.669C169.667 99.923 167.881 102.824 164.296 107.499C163.347 108.737 162.565 109.938 162.558 110.17C162.551 110.401 164.944 108.318 167.874 105.541C172.134 101.504 173.692 100.346 175.641 99.767C176.982 99.369 178.465 99.189 178.938 99.366C180.307 99.882 189.38 106.486 191.357 108.407C192.996 109.999 193.136 110.35 192.916 112.306C192.66 114.581 191.832 115.94 178.951 135.225C173.058 144.047 171.284 147.395 174.462 143.696C175.196 142.843 177.794 139.862 180.235 137.072C182.677 134.282 186.116 130.169 187.879 127.932C193.951 120.224 195.536 118.749 199.006 117.572C200.463 117.077 201.02 117.139 202.782 117.992C203.918 118.542 206.045 120.064 207.508 121.374C209.933 123.546 210.165 123.94 210.138 125.841C210.103 128.39 209.605 129.377 204.961 136.1C202.945 139.019 199.746 143.846 197.852 146.828C195.957 149.809 193.521 153.547 192.438 155.133C191.355 156.72 190.549 158.258 190.647 158.552C190.847 159.151 196.402 153.086 200.543 147.749C202.037 145.824 204.493 142.786 206.001 140.999C212.695 133.065 214.195 131.999 218.665 131.999C220.732 131.999 221.573 132.301 223.547 133.75C226.711 136.072 227.546 137.457 227.546 140.382C227.546 143.066 228.498 141.468 216.046 159.682C212.334 165.112 208.882 170.217 208.375 171.027C206.749 173.626 208.373 172.601 211.379 169.132C220.724 158.347 227.505 151.022 229.656 149.389C232.457 147.263 234.727 146.505 238.296 146.504C241.162 146.503 242.486 147.194 247.703 151.411C249.633 152.972 252.356 155.126 253.754 156.198C255.152 157.271 256.932 158.677 257.709 159.323C259.572 160.873 259.847 160.82 260.843 158.721C261.949 156.389 264.498 154.495 267.616 153.686C269.71 153.143 270.574 153.149 272.782 153.724C278.526 155.22 280.665 157.35 288.815 169.689C295.671 180.069 297.22 182.074 297.452 180.87C297.538 180.42 297.37 179.604 297.078 179.058ZM93.277 303.797C92.471 303.207 92.362 302.226 92.298 294.942C92.156 278.923 89.124 267.812 76.557 237.249C71.761 225.586 69.749 220.264 68.76 216.624C68.367 215.18 67.723 212.818 67.329 211.374C65.018 202.921 64.349 199.95 62.966 191.999C62.089 186.961 62.07 165.003 62.938 160.249C64.218 153.244 64.655 151.158 65.872 146.249C69.213 132.775 75.346 119.299 78.718 118.025C79.936 117.564 81.546 118.213 81.546 119.164C81.546 119.511 80.441 122.293 79.091 125.348C73.961 136.954 71.132 148.058 69.521 162.917C68.593 171.481 69.469 187.967 71.329 196.93C74.381 211.641 77.252 220.272 86.571 242.749C89.429 249.643 89.884 250.891 92.01 257.656C93.391 262.052 95.735 271.276 96.607 275.749C97.564 280.652 97.56 299.622 96.602 301.893C95.721 303.983 94.493 304.686 93.277 303.797ZM36.373 296.585C35.918 296.082 35.546 295.178 35.546 294.575C35.546 291.988 32.219 281.156 29.456 274.749C26.836 268.671 27.455 269.979 19.634 253.999C15.797 246.162 12.273 238.849 11.801 237.749C5.91403 224.024 3.16603 214.947 1.05103 202.249C-0.358966 193.784 -0.348966 178.491 1.07303 168.749C3.04703 155.232 7.53603 139.531 13.369 125.751C16.347 118.714 22.498 106.621 25.41 102.078C33.898 88.836 37.578 83.957 44.253 77.094C56.491 64.512 67.769 57.999 77.319 57.999C81.468 57.999 82.546 58.43 82.546 60.087C82.546 61.281 80.782 62.309 78.046 62.712C75.1 63.146 68.422 66.397 62.796 70.136C57.748 73.491 47.083 83.856 43.644 88.749C39.537 94.592 34.546 101.969 34.546 102.196C34.546 102.322 33.468 104.186 32.15 106.337C29.298 110.992 22.877 123.938 20.29 130.249C14.813 143.607 10.116 161.117 8.55903 173.986C8.27703 176.316 8.04603 182.081 8.04603 186.796C8.04603 200.039 10.341 211.353 16.049 226.245C19.783 235.986 19.678 235.746 24.815 246.249C35.559 268.216 38.739 276.632 40.004 286.454C40.822 292.798 40.716 295.69 39.632 296.672C38.443 297.747 37.4 297.719 36.373 296.585ZM58.145 284.071C57.787 283.844 57.181 282.313 56.797 280.67C54.673 271.565 50.932 262.99 39.708 241.499C38.631 239.437 37.122 236.174 36.356 234.249C35.01 230.87 34.323 229.226 32.701 225.499C32.282 224.537 31.286 221.755 30.488 219.317C21.528 191.933 22.717 164.53 34.11 135.852C36.527 129.769 38.678 125.476 42.615 118.882C49.919 106.649 52.837 103.75 53.837 107.733C54.082 108.71 53.683 109.74 52.135 112.129C49.851 115.654 45.116 124.386 44.065 127.011C43.682 127.967 42.864 129.878 42.246 131.258C35.122 147.174 31.546 164.254 31.546 182.365C31.546 195.425 32.681 203.207 36.56 216.749C36.796 217.574 37.196 219.037 37.449 219.999C37.875 221.619 39.194 225.012 41.399 230.157C41.892 231.308 44.687 237.086 47.609 242.999C50.532 248.912 53.373 254.761 53.923 255.999C56.645 262.123 57.204 263.507 58.267 266.749C59.731 271.21 60.368 273.852 61.074 278.389C61.565 281.539 61.533 282.195 60.832 283.264C59.99 284.549 59.25 284.772 58.145 284.071ZM271.367 176.007C270.581 175.759 269.511 175.17 268.988 174.696C267.936 173.744 266.692 170.186 267.225 169.653C267.412 169.467 268.404 170.128 269.43 171.123C271.865 173.483 273.444 173.866 275.163 172.514C275.891 171.942 276.628 171.029 276.8 170.486C277.18 169.29 278.321 169.191 278.753 170.316C279.22 171.534 278.564 174.328 277.608 175.193C276.541 176.158 273.223 176.591 271.367 176.007ZM303.845 102.84C303.406 102.515 301.043 98.199 298.593 93.249C286.285 68.38 266.055 45.044 243.98 30.251C237.101 25.641 223.721 18.825 215.829 15.91C187.513 5.45101 154.038 6.394 129.546 18.343C118.797 23.586 110.492 29.655 105.017 36.265C98.997 43.532 99.359 43.202 98.139 42.549C96.622 41.737 96.766 40.426 98.796 36.572C105.873 23.13 126.182 9.385 147.296 3.748C154.471 1.832 167.879 -0.00199837 174.691 1.63427e-06C181.24 0.00200163 193.53 1.445 202.296 3.242C222.027 7.286 244.373 18.564 261.542 33.143C277.116 46.369 291.085 63.346 299.037 78.715C303.888 88.092 307.699 99.844 306.572 101.951C305.902 103.203 304.815 103.557 303.845 102.84ZM235.068 91.273C230.114 85.75 222.494 78.426 217.296 74.192C208.73 67.214 193.87 58.939 182.465 54.797C181.183 54.331 179.995 53.589 179.826 53.147C179.453 52.174 181.353 49.999 182.576 49.999C185.767 49.999 200.307 55.979 207.905 60.416C214.994 64.557 226.824 73.976 231.526 79.225C232.499 80.311 234.839 82.899 236.724 84.975C240.2 88.802 243.033 93.094 243.041 94.547C243.046 95.409 241.535 96.999 240.71 96.999C240.431 96.999 237.892 94.422 235.068 91.273ZM257.477 93.374C253.593 87.613 249.167 82.295 243.015 75.999C239.656 72.561 234.868 67.049 232.374 63.749C226.734 56.284 215.57 44.975 210.546 41.636C198.194 33.428 184.911 28.641 171.868 27.696C165.345 27.223 163.97 26.189 166.998 24.033C170.373 21.63 184.365 23.466 196.296 27.878C210.035 32.958 225.187 44.276 232.541 54.951C235.414 59.122 238.886 63.083 242.723 66.569C249.083 72.347 257.915 83.452 260.809 89.307C262.769 93.274 263.126 95.325 261.984 96.048C260.494 96.991 259.529 96.418 257.477 93.374ZM278.62 95.573C278.124 95.077 276.968 93.338 276.053 91.71C273.119 86.492 263.983 74.083 259.026 68.583C251.666 60.417 243.759 53.472 235.643 48.046C233.084 46.336 230.863 44.604 230.708 44.199C230.552 43.793 230.843 42.999 231.355 42.434C232.7 40.948 234.665 41.442 239.607 44.507C254.688 53.861 269.326 69.15 277.489 84.073C280.535 89.642 282.123 93.92 281.546 94.999C280.828 96.341 279.624 96.577 278.62 95.573ZM48.308 66.82C46.728 65.665 47.508 60.962 50.683 52.499C58.126 32.654 77.402 14.113 94.296 10.55C95.946 10.201 98.239 9.71 99.392 9.458C102.283 8.825 104.233 8.881 108.199 9.711C111.93 10.492 113.046 11.144 113.046 12.543C113.046 13.901 111.798 14.328 106.796 14.68C100.235 15.142 95.739 16.579 88.046 20.674C77.497 26.29 66.684 37.676 59.043 51.214C58.122 52.845 56.188 56.747 54.744 59.885C51.276 67.421 50.409 68.356 48.308 66.82Z" fill="white"/>
</svg>
