<svg width="191" height="134" viewBox="0 0 191 134" fill="none" xmlns="http://www.w3.org/2000/svg">
<path fill-rule="evenodd" clip-rule="evenodd" d="M81.2379 132.603C71.5129 131.379 68.5149 130.541 61.3839 127.052C56.5429 124.682 50.4119 119.626 48.9479 116.795C48.5369 116.001 47.1779 114.714 45.9259 113.935C43.7229 112.564 43.5849 112.542 41.5699 113.248C38.8839 114.188 32.9009 113.823 29.4609 112.508C18.4399 108.296 8.07787 94.9102 2.84387 78.1222C0.0658731 69.2112 -0.5391 64.0673 0.4339 57.6133C1.6979 49.2323 3.84289 43.9043 7.95889 38.9283C14.1659 31.4233 21.4209 28.3613 32.9429 28.3843C39.4439 28.3973 42.1809 28.8383 45.3869 30.3873C48.2729 31.7813 48.7379 31.6722 48.7379 29.5962C48.7379 28.0112 48.5369 27.7413 46.8629 27.0743C42.2809 25.2493 39.4039 22.9332 36.9479 19.0922C34.3989 15.1082 33.2379 11.0813 33.2379 6.22528C33.2379 2.45228 33.3549 1.93627 34.4469 0.910274C35.4269 -0.00972587 35.9719 -0.15675 37.3219 0.13525C42.2319 1.19725 47.8799 5.89825 50.3629 10.9893C52.7829 15.9513 53.3879 19.7292 53.0289 27.6222C52.8529 31.4722 52.5779 35.4773 52.4159 36.5223L52.1229 38.4222L54.8049 38.0823C56.2809 37.8963 58.2429 37.4363 59.1659 37.0613C60.9159 36.3493 61.7379 36.5042 61.7379 37.5442C61.7379 38.9112 56.5209 40.9753 51.4879 41.5983C48.6129 41.9543 43.9619 40.9013 41.3919 39.3123C38.9379 37.7963 39.2849 37.2103 42.3629 37.6713C47.3669 38.4203 47.8959 38.3153 48.2749 36.4893C48.4879 35.4673 48.4039 34.7232 48.0519 34.5032C47.7419 34.3102 45.0349 33.3013 42.0379 32.2623C35.3719 29.9503 30.2329 29.6932 25.0969 31.4142C15.6209 34.5892 9.02789 41.0642 5.55689 50.6042C3.44889 56.4002 3.15288 64.5783 4.74588 73.0743C5.72688 78.3143 6.33089 80.0582 9.26389 86.1222C15.7419 99.5192 23.2359 106.715 34.2969 110.16C36.5189 110.851 37.6699 110.939 39.7969 110.578L42.4879 110.122L42.3219 107.801C41.9799 102.999 46.5739 97.8722 51.2179 97.8722C52.0539 97.8722 54.7579 97.5232 57.2279 97.0972C60.3929 96.5512 62.5689 96.4453 64.6029 96.7383L67.4879 97.1542L62.2379 98.2082C59.3509 98.7882 55.6939 99.7543 54.1129 100.353C51.5059 101.342 51.2379 101.582 51.2379 102.924C51.2379 104.837 50.2239 107.225 48.5899 109.163L47.2909 110.704L51.1389 114.849C61.5589 126.071 70.5709 129.525 89.4879 129.548C101.635 129.563 109.727 128.326 120.286 124.838C136.546 119.468 149.178 111.581 161.774 98.9352C169.232 91.4472 173.893 85.4942 177.68 78.6222C184.145 66.8902 187.707 52.8703 187.119 41.4683C186.829 35.8343 185.549 31.5903 182.884 27.4293C181.464 25.2103 181.104 24.1702 181.168 22.4642C181.267 19.8072 181.953 16.5882 183.286 12.5242C183.844 10.8202 184.231 8.57925 184.145 7.54425C183.975 5.50125 183.991 5.50923 178.363 4.67523C176.648 4.42123 176.238 4.50923 176.238 5.12823C176.238 6.05923 178.206 6.87225 180.459 6.87225C181.37 6.87225 182.388 7.20025 182.721 7.60125C183.211 8.19225 183.074 8.58222 181.999 9.65722C180.92 10.7352 180.377 10.9252 179.098 10.6692C178.232 10.4962 176.904 9.76024 176.146 9.03424C174.525 7.48124 174.458 7.59325 174.003 12.6222C173.411 19.1532 171.689 24.3722 170.126 24.3722C169.318 24.3722 165.407 27.2823 163.062 29.6273C160.512 32.1773 157.361 37.2372 152.79 46.1222C145.826 59.6592 134.684 72.3212 122.225 80.8542C116.379 84.8582 104.822 90.7083 98.7379 92.7443C88.9079 96.0333 79.6099 97.9233 77.9629 96.9683C77.0019 96.4113 77.0029 96.4023 77.9879 96.3823C79.5989 96.3503 84.0849 94.0562 85.3239 92.6312C86.9029 90.8152 89.2429 86.3742 91.1249 81.6222C94.5819 72.8942 96.2339 62.9062 95.2419 56.7162C93.6859 46.9962 90.2339 40.3333 84.5359 36.0493C76.7549 30.2013 70.9279 29.2042 60.4879 31.9352C54.6839 33.4542 54.2369 33.5342 54.2459 33.0552C54.2699 31.6542 56.6119 30.3212 61.0819 29.1622C68.1629 27.3272 79.2809 28.9373 85.2779 32.6653C88.3419 34.5693 92.6859 39.8372 94.7269 44.1222C97.5409 50.0292 98.4289 59.0163 97.2319 69.4623C96.4299 76.4663 93.8509 84.8693 91.1619 89.2383C90.6149 90.1273 90.2949 91.0612 90.4519 91.3132C90.6079 91.5662 93.3799 90.8753 96.6119 89.7773C111.441 84.7403 123.731 77.0282 134.738 65.8542C141.485 59.0042 146.446 51.6683 154.707 36.3223C158.067 30.0823 162.955 24.6352 167.082 22.5342C169.733 21.1842 169.978 20.9092 170.576 18.6022C170.929 17.2382 171.223 14.1583 171.228 11.7573C171.24 6.55226 172.196 3.67827 174.275 2.60327C177.2 1.09027 183.569 2.09925 186.099 4.47625C187.581 5.86925 187.568 7.87125 186.039 13.6222C185.381 16.0972 184.582 19.3983 184.263 20.9573L183.684 23.7922L185.473 26.1362C187.984 29.4262 189.185 32.3073 190.018 37.0363C190.928 42.2123 190.924 45.9483 190.002 51.6373C188.546 60.6143 186.222 66.9822 181.522 74.8722C179.006 79.0982 176.728 83.2413 176.718 83.6133C176.708 83.9393 176.278 85.2663 175.588 87.1003C174.519 89.9383 167.871 98.1612 162.537 103.243C148.486 116.63 133.574 124.948 114.738 129.904C109.963 131.16 106.272 131.746 97.5189 132.637C89.2629 133.477 88.1649 133.475 81.2379 132.603ZM47.0599 22.8552C46.1099 18.1072 42.7319 11.9403 39.2799 8.65326C37.5249 6.98226 37.3499 6.37225 38.6239 6.37225C41.3309 6.37225 46.6169 13.3283 48.2969 19.1013C49.8649 24.4893 49.7329 24.1903 50.2069 23.4233C50.8389 22.3993 49.4369 17.0552 47.4899 13.0682C45.4609 8.91523 42.4739 5.92723 39.0399 4.61523C35.9819 3.44723 35.5849 3.94124 36.0229 8.37024C36.6429 14.6452 39.5089 19.8012 44.0469 22.8072C46.9909 24.7572 47.4409 24.7642 47.0599 22.8552ZM74.4879 108.435C70.5069 108.124 68.9989 107.664 69.4679 106.905C69.6029 106.686 73.3759 106.246 77.8509 105.928C93.4739 104.817 98.6939 103.96 108.84 100.837C113.601 99.3713 123.844 95.0622 126.166 93.5472C126.933 93.0472 127.515 92.9493 127.833 93.2673C129.236 94.6703 119.501 100.104 108.738 103.924C99.0659 107.357 84.7759 109.239 74.4879 108.435ZM168.268 81.6222C168.261 81.0722 169.329 78.7092 170.641 76.3722C171.953 74.0352 173.729 70.3222 174.588 68.1222C178.822 57.2812 179.162 55.9942 180.276 46.6222C180.858 41.7252 180.999 41.3123 181.969 41.6843C183.097 42.1173 182.968 50.1042 181.763 54.3722C181.259 56.1602 180.467 58.9552 180.004 60.5832C177.926 67.8902 173.552 76.7912 170.239 80.4542C168.659 82.2022 168.277 82.4282 168.268 81.6222ZM73.7379 78.3672C73.7379 77.8142 74.2329 76.3082 74.8379 75.0212C75.8249 72.9222 75.9409 71.8513 75.9629 64.6423L75.9879 56.6042L74.3629 53.3022C73.4689 51.4852 72.7379 49.6142 72.7379 49.1442C72.7379 47.3752 74.0519 48.7792 75.9079 52.5322L77.8289 56.4142L77.8789 63.0182C77.9209 68.5452 77.7439 70.2332 76.7949 73.3722C75.4939 77.6732 74.7459 79.3722 74.1539 79.3722C73.9249 79.3722 73.7379 78.9202 73.7379 78.3672ZM149.238 75.3613C149.238 75.0803 150.335 73.4493 151.676 71.7363C155.972 66.2473 161.281 57.4022 165.232 49.1512C167.346 44.7352 169.218 40.7282 169.391 40.2472C169.739 39.2832 170.51 39.0982 170.984 39.8652C171.413 40.5602 168.532 48.8612 166.208 53.6232C161.349 63.5802 149.238 79.0943 149.238 75.3613ZM7.4509 68.3132C6.6619 67.0362 6.62588 59.0583 7.39288 55.3713C8.76788 48.7633 11.2569 44.4612 15.7709 40.8932C20.2389 37.3612 22.0149 38.5913 17.7499 42.2643C14.8429 44.7683 12.2379 48.3552 12.2379 49.8552C12.2379 50.4342 11.8689 51.4702 11.4179 52.1592C10.0959 54.1762 9.25388 58.7642 9.24588 63.9972C9.23988 67.9052 9.09488 68.8722 8.51788 68.8722C8.12088 68.8722 7.6409 68.6202 7.4509 68.3132ZM176.482 21.3622C176.14 20.8082 177.087 17.4163 177.798 16.6473C178.075 16.3483 178.433 16.3672 178.764 16.6982C179.132 17.0662 179.114 17.9223 178.705 19.5483C178.153 21.7403 177.197 22.5202 176.482 21.3622Z" fill="white"/>
</svg>
