<svg width="386" height="353" viewBox="0 0 386 353" fill="none" xmlns="http://www.w3.org/2000/svg">
<path fill-rule="evenodd" clip-rule="evenodd" d="M171.325 352.26C162.114 351.552 154.909 350.78 150.325 350.01C134.514 347.354 131.252 346.644 118.075 342.998C109.557 340.64 96.9173 335.666 89.4643 331.738C77.5923 325.481 68.4083 316.456 63.0673 305.796C57.8403 295.366 56.2963 287.339 55.3133 265.5C55.0223 259.038 54.5723 250.488 54.3123 246.5C54.0533 242.512 53.8343 236.887 53.8253 234C53.8173 231.113 53.6443 228.504 53.4423 228.204C53.2403 227.903 49.8123 226.574 45.8253 225.251C18.8573 216.3 11.1473 212.648 5.16133 205.99C1.03833 201.404 -0.805664 195.541 0.329336 190.624C1.18134 186.931 1.85633 185.603 4.33834 182.735C10.5863 175.516 18.0593 172.206 29.3253 171.668C32.4873 171.517 36.9873 171.643 39.3253 171.949C46.4693 172.884 49.5363 173.38 50.4463 173.75C50.9883 173.97 51.4133 173.848 51.5723 173.427C51.8123 172.794 51.1863 164.909 50.5173 160.13C50.0373 156.695 51.5373 153.264 55.0013 149.875C56.6173 148.294 58.2513 147 58.6323 147C59.0133 147 59.3253 146.662 59.3253 146.25C59.3253 145.838 58.9193 145.5 58.4233 145.5C56.8393 145.5 52.3683 142.964 51.2943 141.457C50.4703 140.299 49.8793 140 48.4163 140C46.3953 140 40.8163 138.899 38.7943 138.102C36.8393 137.33 34.4513 134.295 33.6343 131.541C31.4083 124.047 38.3833 114.475 55.5753 101.43C59.3353 98.577 71.5093 90.736 75.8253 88.387C77.6123 87.415 81.6633 85.177 84.8253 83.414C90.7323 80.121 91.6683 79.65 97.5753 77C99.4713 76.149 101.709 75.134 102.548 74.742C105.53 73.354 115.129 69.395 118.698 68.083C120.69 67.35 122.321 66.495 122.323 66.183C122.324 65.84 121.049 65.535 119.093 65.411C115.29 65.169 112.318 63.378 110.425 60.187C108.134 56.326 109.765 50.429 114.244 46.383C119.998 41.185 130.226 36.696 140.825 34.719C145.465 33.854 147.793 33.849 151.337 34.696C156.695 35.978 159.231 38.185 160.318 42.512C160.816 44.491 160.754 45.084 159.826 47.262C159.243 48.63 157.833 50.706 156.692 51.875C154.273 54.352 154.81 54.591 159.292 53.032C164.07 51.369 182.216 46.897 191.575 45.076C197.292 43.963 201.651 43.282 208.075 42.499C210.55 42.197 214.263 41.687 216.325 41.366C221.561 40.551 242.503 40.583 247.825 41.414C253.747 42.339 255.83 43.09 260.097 45.837C263.509 48.034 264.854 50.511 264.886 54.658C264.92 59.098 263.4 61.926 258.599 66.35C255.82 68.91 254.825 70.159 254.825 71.086C254.825 75.696 241.345 89.271 228.325 97.773C220.901 102.62 202.6 112.356 193.325 116.392C186.966 119.16 184.618 120.118 179.575 122.007C171.804 124.917 171.734 124.949 172.081 125.51C172.253 125.789 172.576 125.904 172.798 125.767C173.587 125.279 192.003 124 198.237 124C218.323 124 257.64 127.064 275.325 130.008C277.113 130.306 279.813 130.753 281.325 131.001C289.587 132.359 295.846 134.163 295.797 135.174C295.782 135.491 295.095 136.283 294.271 136.935C292.549 138.297 292.044 138.281 280.825 136.511C277.113 135.926 272.613 135.252 270.825 135.015C256.97 133.171 248.321 132.21 241.575 131.766C239.375 131.621 234.537 131.282 230.825 131.013C214.998 129.863 200.378 129.505 180.075 129.77L158.575 130.05L143.075 135.05C134.55 137.799 126.72 140.302 125.675 140.613C123.363 141.299 122.572 142.247 124.629 141.867C126.447 141.53 131.374 140.552 134.325 139.942C137.694 139.245 151.979 138.033 156.825 138.032C160.589 138.032 160.969 138.112 160.144 138.737C159.632 139.125 157.945 139.572 156.394 139.731C150.334 140.353 141.188 141.647 132.825 143.066C128.013 143.882 122.673 144.762 120.961 145.022C119.248 145.281 115.76 145.962 113.211 146.534C109.384 147.394 100.956 149.196 87.5753 152.015C86.4753 152.246 84.1453 152.884 82.3973 153.432C79.3573 154.385 77.8253 154.394 77.8253 153.459C77.8253 152.669 80.5033 151.653 86.8183 150.049C90.2523 149.177 93.2733 148.252 93.5323 147.993C93.8273 147.698 91.2933 147.639 86.7693 147.834C81.6443 148.056 78.9933 147.968 77.6803 147.535C74.5383 146.498 75.2253 146 80.8253 145.254C82.0633 145.089 84.0873 144.756 85.3253 144.515C86.5633 144.273 88.9253 143.837 90.5753 143.545C96.6403 142.471 114.146 138.746 116.825 137.96C117.788 137.677 119.813 137.114 121.325 136.71C122.837 136.305 127 135.069 130.575 133.962C134.15 132.856 140 131.046 143.575 129.941C147.15 128.835 151.2 127.516 152.575 127.009C153.95 126.502 157.663 125.152 160.825 124.008C167.266 121.68 179.522 116.885 182.575 115.498C183.675 114.998 186.375 113.876 188.575 113.005C193.003 111.251 208.477 103.726 214.325 100.481C225.455 94.306 233.432 89.055 239.046 84.208C242.413 81.301 247.062 76.07 246.647 75.655C246.486 75.495 244.942 76.274 243.215 77.386C233.709 83.512 219.311 90.692 218.431 89.746C218.235 89.535 218.356 89.263 218.699 89.14C219.043 89.017 220.955 87.854 222.949 86.555C224.943 85.257 229.275 82.565 232.575 80.574C241.615 75.12 245.467 72.258 251.378 66.602C258.635 59.659 260.542 55.803 258.587 52.023C257.564 50.045 254.849 48.5 250.376 47.351C245.549 46.11 225.881 45.57 218.386 46.471C207.278 47.808 195.711 49.757 187.075 51.749C175.732 54.366 165.158 56.911 163.075 57.528C157.055 59.309 154.825 60.161 154.825 60.679C154.825 61.008 155.5 61.87 156.325 62.594C158.125 64.173 158.178 64.829 156.686 67.042C154.114 70.859 146.397 74.777 137.451 76.807C129.577 78.594 125.825 77.497 125.825 73.407C125.825 71.214 124.916 70.534 123.166 71.419C122.566 71.723 119.6 73.013 116.575 74.286C113.55 75.558 110.119 77.027 108.95 77.55C107.781 78.072 105.756 78.974 104.45 79.553C98.8353 82.043 86.6363 88.147 81.3253 91.123C78.1633 92.895 74.2253 95.089 72.5753 95.998C56.9083 104.632 43.6203 116.028 39.5713 124.302C37.8073 127.909 38.0633 130.121 40.4933 132.25C43.2593 134.673 46.0563 135.253 54.8253 135.22C66.9063 135.173 75.5913 133.699 101.825 127.239C121.533 122.386 132.494 119.14 148.325 113.471C151.487 112.338 155.376 110.988 156.967 110.471C158.558 109.954 160.583 109.211 161.467 108.819C164.108 107.651 169.887 105.452 172.825 104.497C175.935 103.486 179.998 101.902 183.075 100.5C184.219 99.979 186.371 99.073 187.857 98.488C189.342 97.902 191.799 96.851 193.316 96.152C198.604 93.716 209.901 89 210.449 89C210.753 89 213.349 87.865 216.219 86.477C219.088 85.089 221.675 84.033 221.967 84.131C222.26 84.228 219.703 86.127 216.287 88.35C212.87 90.574 209.614 92.81 209.05 93.321C208.486 93.832 207.248 94.621 206.3 95.074C203.812 96.263 191.888 101.732 189.825 102.63C188.862 103.049 186.837 103.948 185.325 104.627C183.813 105.306 182.013 106.034 181.325 106.244C180.637 106.454 173.887 109.095 166.325 112.113C158.763 115.132 150.775 118.174 148.575 118.873C146.375 119.573 141.987 120.983 138.825 122.006C135.663 123.028 131.387 124.367 129.325 124.981C127.263 125.595 124.624 126.408 123.462 126.789C121.017 127.589 114.156 129.482 112.325 129.862C111.637 130.005 109.163 130.677 106.825 131.355C102.881 132.499 91.3753 135.047 85.5753 136.059C75.7963 137.767 70.6683 138.489 63.4893 139.172C60.1413 139.49 57.2433 139.91 57.0493 140.106C56.5993 140.56 57.9813 141.118 63.5753 142.738C68.8573 144.268 71.4723 145.358 71.1413 145.892C71.0113 146.103 68.9733 147.255 66.6123 148.452C51.7943 155.966 53.3353 163.297 71.3683 171.072C77.7183 173.809 78.0283 173.837 81.9593 172.017C87.9913 169.225 98.8293 166.213 112.325 163.577C124.525 161.195 130.593 160.391 142.825 159.535C158.957 158.407 168.825 158.379 168.825 159.463C168.825 159.649 167.081 160.092 164.95 160.448C162.819 160.804 160.4 161.286 159.575 161.52C158.75 161.754 155.038 162.183 151.325 162.473C147.612 162.764 143 163.215 141.075 163.476C139.15 163.737 135.55 164.195 133.075 164.494C130.6 164.793 127.225 165.245 125.575 165.498C123.925 165.751 119.425 166.439 115.575 167.028C106.152 168.47 103.704 168.97 92.1993 171.807C86.7673 173.146 82.3963 174.464 82.4873 174.735C82.6463 175.213 85.2483 176.152 88.8253 177.022C89.7883 177.256 92.3753 177.921 94.5753 178.5C96.7753 179.08 99.7003 179.74 101.075 179.969C102.45 180.198 106.275 180.966 109.575 181.677C112.875 182.387 118.5 183.43 122.075 183.994C125.65 184.558 129.925 185.239 131.575 185.507C143.779 187.494 177.218 190 191.575 190.004C210.794 190.009 253.761 186.591 261.325 184.455C262.663 184.077 263.84 182.984 266.325 179.815C268.113 177.535 273.625 170.664 278.575 164.546C283.525 158.428 289.375 151.114 291.575 148.293C293.775 145.472 298.95 139.033 303.075 133.983C307.2 128.933 311.475 123.643 312.575 122.228C313.675 120.812 316.728 116.976 319.359 113.702C321.99 110.428 325.895 105.449 328.036 102.636C335.521 92.805 337.679 90.998 341.93 91.002C344.716 91.004 347.015 92.432 348.305 94.96C350.442 99.149 349.147 102.819 343.757 107.854C334.683 116.329 329.065 122.64 320.482 134C319.339 135.512 317.698 137.537 316.836 138.5C315.974 139.463 314.939 140.865 314.538 141.617C313.817 142.966 310.825 144.948 310.825 144.076C310.825 142.898 322.597 127.92 330.418 119.147C336.764 112.029 343.433 102.5 342.07 102.5C341.166 102.5 333.836 109.23 330.012 113.571C323.829 120.589 314.382 132.176 309.076 139.251C304.754 145.012 303.092 147.103 298.325 152.777C293.156 158.93 284.137 169.862 279.891 175.122C278.172 177.252 275.993 179.584 275.05 180.303C272.977 181.884 273.203 182.524 275.709 182.171C279.598 181.624 280.736 180.994 282.625 178.344C284.609 175.56 290.852 167.759 293.165 165.173C293.94 164.306 296.15 161.74 298.075 159.471C306.019 150.107 306.917 149.898 300.139 158.991C297.904 161.989 295.063 165.85 293.825 167.57C292.587 169.291 289.916 172.688 287.889 175.121C285.861 177.554 284.34 179.682 284.508 179.849C284.676 180.017 286.672 179.684 288.944 179.109C293.186 178.035 298.39 176.719 301.117 176.032C301.965 175.818 303.09 175.402 303.617 175.107C304.525 174.599 304.509 174.545 303.325 174.098C302.637 173.838 300.725 173.219 299.075 172.722C295.175 171.548 294.303 170.814 295.833 169.996C297.312 169.204 300.005 169.662 304.768 171.514C306.862 172.329 309.025 172.996 309.575 172.996C310.125 172.996 313.377 171.887 316.801 170.531C320.226 169.176 323.207 168.177 323.426 168.313C323.646 168.448 323.832 169.164 323.841 169.905L323.857 171.25L325.091 169.847C325.845 168.989 326.325 167.832 326.325 166.868C326.325 165.732 326.829 164.776 328.131 163.442C330.329 161.192 330.917 158.096 329.623 155.593C328.79 153.981 323.638 150.249 319.143 148.001C317.805 147.331 316.603 146.503 316.471 146.159C316.138 145.292 318.827 143.035 320.214 143.016C321.699 142.995 326.929 145.628 329.983 147.933C331.307 148.932 333.215 150.988 334.223 152.5C336.276 155.581 336.3 155.867 335.567 168.19L335.213 174.13L336.644 173.883C337.431 173.747 339.875 173.227 342.075 172.727C347.127 171.579 360.759 171.395 364.575 172.424C375.239 175.299 382.911 181.061 385.248 187.95C386.203 190.765 385.963 196.588 384.757 199.856C383.886 202.216 382.849 203.58 379.132 207.251C375.123 211.21 373.884 212.092 368.825 214.585C361.024 218.429 355.996 220.353 342.2 224.771C337.319 226.335 333.312 227.87 333.296 228.182C333.28 228.494 333.056 233.25 332.798 238.75C330.768 281.967 330.188 287.89 327.069 297.25C325.016 303.409 323.178 306.901 319.138 312.319C314.253 318.868 309.376 323.68 303.986 327.266C299.37 330.338 290.14 335.216 286.325 336.6C285.087 337.049 281.6 338.364 278.575 339.523C262.8 345.567 243.387 349.654 220.325 351.785C208.821 352.848 182.316 353.105 171.325 352.26ZM212.113 346.509C229.748 344.922 243.411 343.129 250.075 341.525C251.175 341.26 253.537 340.693 255.325 340.264C257.113 339.835 260.263 339.022 262.325 338.457C264.387 337.893 267.313 337.104 268.825 336.703C272.781 335.656 288.914 329.156 293.325 326.831C309.127 318.503 318.775 307.109 322.394 292.5C324.338 284.65 324.83 279.723 326.337 253C326.624 247.913 327.101 240.492 327.397 236.511C327.901 229.746 327.877 229.238 327.038 228.761C323.835 226.94 322.59 223.495 322.926 217.382C323.173 212.871 324.302 209.952 326.844 207.25C328.211 205.796 328.265 205.535 328.586 198.75C328.768 194.9 328.979 190.625 329.054 189.25C329.129 187.875 329.368 182.756 329.586 177.875C329.98 169.052 329.817 167.953 328.37 169.696C328.052 170.079 327.068 170.69 326.183 171.053C325.299 171.416 323.787 172.245 322.825 172.895C319.77 174.957 312.277 178.314 306.075 180.399C300.725 182.197 293.687 184.012 280.325 187.04C268.548 189.709 244.366 192.954 224.325 194.556C219.76 194.921 207.227 195.183 193.825 195.195C170.844 195.214 156.933 194.55 143.411 192.79C140.476 192.408 135.712 191.828 132.825 191.502C126.165 190.75 117.118 189.309 111.325 188.076C95.5323 184.717 88.7853 182.997 80.3433 180.179C71.9163 177.367 62.2973 172.751 59.2483 170.056C57.9693 168.925 56.7643 168 56.5723 168C56.3803 168 56.3593 170.981 56.5273 174.625C56.6943 178.269 56.9513 186.52 57.0993 192.962L57.3663 204.674L59.1313 206.627C62.1423 209.961 63.0123 212.543 63.0453 218.25C63.0723 222.821 62.9583 223.449 61.7133 225.566C60.9643 226.84 60.0083 228.015 59.5883 228.176C58.6733 228.527 58.5923 231.586 59.3053 238.857C59.5693 241.548 60.0233 248.587 60.3143 254.5C61.7753 284.177 62.0093 286.258 64.9183 295.5C67.3633 303.27 70.6423 308.712 76.4423 314.626C79.6783 317.925 85.4263 322.48 88.8503 324.458C98.4463 330.001 106.926 333.461 119.7 337.044C120.594 337.295 122.169 337.74 123.2 338.033C126.69 339.026 130.171 339.803 139.325 341.633C150.927 343.953 157.695 344.877 174.575 346.444C181.044 347.044 205.685 347.087 212.113 346.509ZM58.4043 223.375C58.7423 222.756 59.0263 220.675 59.0353 218.75C59.0663 212.501 57.1033 209.118 52.6933 207.815C28.8823 200.781 24.2673 198.827 20.9973 194.395C20.3533 193.521 19.8253 192.192 19.8253 191.441C19.8253 189.512 22.0673 187 23.7893 187C24.5463 187 26.9253 186.55 29.0753 186C31.2253 185.45 34.4683 185.004 36.2803 185.009C39.6453 185.018 46.6993 186.041 49.7993 186.97C50.7823 187.265 51.6423 187.297 51.7993 187.045C51.9513 186.801 51.9633 184.725 51.8253 182.431C51.6333 179.221 51.4023 178.24 50.8253 178.175C50.4133 178.129 48.5003 177.836 46.5753 177.524C32.4563 175.233 21.0513 176.434 13.2403 181.033C8.05634 184.086 4.82533 188.691 4.82533 193.026C4.82533 194.93 6.13334 198.414 7.69834 200.674C10.4683 204.678 18.6083 209.687 28.5753 213.523C32.3743 214.985 39.9843 217.704 44.0593 219.055C48.6913 220.591 53.6433 222.581 55.8253 223.784C57.5043 224.71 57.6923 224.68 58.4043 223.375ZM332.687 222.96C334.825 222.113 337.25 221.101 338.075 220.712C338.9 220.323 342.5 219.015 346.075 217.805C365.813 211.125 375.883 205.297 379.865 198.25C381.563 195.245 381.483 190.46 379.681 187.387C376.584 182.102 369.42 178.217 360.395 176.93C356.968 176.441 346.299 176.62 342.825 177.226C342.137 177.345 340.332 177.637 338.812 177.873C337.293 178.109 335.774 178.472 335.437 178.681C334.752 179.104 334.545 187.5 335.22 187.5C335.437 187.5 336.843 187.189 338.345 186.81C344.675 185.209 348.967 184.823 353.693 185.429C356.189 185.749 359.181 186.346 360.341 186.756C361.501 187.165 362.98 187.5 363.626 187.5C365.335 187.5 366.525 189.558 366.162 191.885C365.489 196.201 357.931 200.512 344.075 204.481C330.232 208.448 329.087 209.123 327.612 214.196C326.318 218.648 326.725 224.5 328.33 224.5C328.588 224.5 330.549 223.807 332.687 222.96ZM53.5093 202.371C53.4733 202.162 53.2843 199.866 53.0893 197.268L52.7353 192.545L50.1553 191.81C48.7363 191.406 46.5623 190.792 45.3253 190.446C44.0003 190.075 39.9933 189.805 35.5753 189.789C29.3243 189.767 27.8043 189.909 26.4503 190.644C25.5563 191.129 24.8253 191.73 24.8253 191.979C24.8253 193.382 32.1523 196.812 40.8253 199.467C43.7133 200.352 47.3123 201.484 48.8253 201.984C51.6013 202.902 53.6303 203.069 53.5093 202.371ZM340.325 201.153C347.223 199.129 351.577 197.588 355.682 195.717C361.977 192.849 362.779 191.552 358.95 190.44C355.086 189.317 345.973 189.591 340.325 191C337.712 191.651 335.353 192.376 335.082 192.61C334.559 193.061 333.758 201.966 334.178 202.659C334.315 202.884 334.797 202.918 335.251 202.734C335.704 202.551 337.988 201.839 340.325 201.153ZM341.733 97.026C342.009 96.199 340.251 96.412 339.239 97.327C338.736 97.783 338.325 98.48 338.325 98.877C338.325 99.443 338.672 99.378 339.941 98.575C340.831 98.012 341.637 97.315 341.733 97.026ZM138.953 71.798C143.917 70.432 149.039 68.141 150.7 66.543L151.825 65.461L150.825 63.5C150.275 62.422 149.825 60.849 149.825 60.004C149.825 58.083 148.823 57.651 146.696 58.656C142.448 60.664 133.787 63.702 130.694 64.269C129.66 64.458 128.682 64.827 128.521 65.087C128.36 65.348 128.7 66.659 129.277 68C129.854 69.342 130.546 71.015 130.813 71.72C131.446 73.383 133.13 73.4 138.953 71.798ZM127.075 60.272C134.912 59.036 144.097 55.477 149.83 51.456C153.611 48.804 154.937 46.763 154.73 43.918C154.597 42.098 154.329 41.655 152.825 40.775C150.292 39.291 142.015 39.391 137.075 40.964C129.425 43.4 122.319 46.752 118.787 49.591C116.882 51.122 114.825 54.314 114.825 55.741C114.825 57.09 116.823 59.545 118.523 60.285C120.496 61.144 121.558 61.143 127.075 60.272ZM216.825 172.553C216.825 171.976 220.533 171.341 222.495 171.583C225.283 171.926 223.995 172.753 220.45 172.897C218.31 172.984 216.825 172.843 216.825 172.553ZM266.575 165.985C264.925 165.777 261.55 165.353 259.075 165.043C256.6 164.732 252.212 164.253 249.325 163.978C246.438 163.703 241.712 163.249 238.825 162.969C227.552 161.877 219.523 161.45 205.825 161.213C193.068 160.993 187.4 160.531 181.45 159.227C179.012 158.693 180.58 158.121 185.979 157.573C192.94 156.868 205.354 156.837 216.315 157.498C235.696 158.668 241.446 159.09 247.825 159.809C251.537 160.227 256.375 160.774 258.575 161.023C269.111 162.217 275.325 163.761 275.325 165.184C275.325 166.546 272.837 166.774 266.575 165.985ZM91.8253 159.369C92.9583 158.24 103.795 155.058 111.955 153.459C117.397 152.393 124.278 151.446 130.075 150.966C133.375 150.693 137.706 150.334 139.7 150.169C142.133 149.967 143.325 150.045 143.325 150.405C143.325 151.346 142.417 151.576 134.921 152.536C130.88 153.053 126.225 153.699 124.575 153.971C122.925 154.242 120.112 154.694 118.325 154.975C116.538 155.255 110.688 156.404 105.325 157.528C99.9623 158.652 94.5633 159.695 93.3253 159.844C91.3273 160.086 91.1593 160.033 91.8253 159.369ZM58.9503 125.39C56.0423 123.987 59.3333 122.655 63.4493 123.568C65.0313 123.919 66.3253 124.374 66.3253 124.58C66.3253 125.065 62.9343 126.003 61.3253 125.963C60.6373 125.946 59.5693 125.688 58.9503 125.39ZM53.1113 124.214C52.6793 123.782 52.3253 122.895 52.3253 122.243C52.3253 120.373 56.6963 115.068 61.3323 111.314C68.6193 105.412 85.0783 95.037 87.2003 95.008C88.7783 94.987 87.3733 96.283 81.7003 100.079C73.9913 105.237 65.1723 112.307 60.3733 117.174C57.2163 120.376 56.6783 121.172 56.7183 122.579C56.7853 124.959 54.7703 125.873 53.1113 124.214ZM283.242 104.125C278.088 98.545 275.496 90.34 276.798 83.728C278.328 75.952 280.699 71.71 287.509 64.562C293.996 57.754 297.16 53.493 300.046 47.678C304.268 39.175 305.657 32.948 305.135 24.87C304.618 16.881 302.62 10.747 298.459 4.382C296.258 1.015 296.1 0 297.775 0C299.111 0 304.402 5.802 306.44 9.5C310.315 16.535 312.393 26.568 311.328 33.104C309.393 44.981 301.575 57.345 292.238 63.294C288.76 65.51 283.242 74.663 281.538 81.043C281.023 82.974 280.677 86.14 280.669 89C280.654 94.084 281.718 97.83 284.549 102.661C285.692 104.611 285.781 105.5 284.835 105.5C284.657 105.5 283.941 104.881 283.242 104.125ZM310.734 96.375C309.686 94.905 309.578 94.225 309.602 89.25C309.626 84.178 309.749 83.49 311.181 80.406C313.571 75.259 315.451 72.821 322.862 65.25C330.41 57.54 333.014 53.913 335.347 47.865C337.795 41.516 337.919 31.548 335.607 26.913C334.73 25.156 334.581 23.5 335.3 23.5C336.075 23.5 338.697 26.556 340.044 29.031C341.54 31.78 342.807 36.84 342.818 40.106C342.827 43.183 341.113 50.475 339.752 53.145C337.099 58.351 333.607 62.718 326.075 70.25C318.838 77.487 317.877 78.655 315.995 82.5C313.195 88.223 312.665 90.419 313.083 94.577C313.373 97.469 313.308 98 312.66 98C312.238 98 311.372 97.269 310.734 96.375ZM250.902 331.218C251.08 330.295 252.349 329.71 256.825 328.49C265.986 325.991 285.14 316.974 290.456 312.658C292.04 311.371 294.819 308.447 296.632 306.159C298.445 303.872 300.13 302 300.377 302C302.259 302 298.44 308.326 294.01 312.546C284.162 321.928 274.086 326.567 253.575 331.162C253.025 331.286 252.158 331.557 251.649 331.766C250.92 332.065 250.762 331.949 250.902 331.218ZM303.669 289.652C303.521 289.413 303.693 287.09 304.051 284.489C304.408 281.889 304.732 277.508 304.769 274.755C304.807 272.002 305.054 266.15 305.318 261.75C305.582 257.35 306.034 248.688 306.322 242.5C307.379 219.828 308.701 199.105 309.136 198.401C309.272 198.18 309.708 198 310.105 198C310.707 198 310.826 199.58 310.828 207.625C310.83 212.919 310.614 221.188 310.348 226C310.083 230.812 309.623 240.6 309.326 247.75C308.408 269.865 307.249 280.972 305.176 287.5C304.521 289.565 304.04 290.252 303.669 289.652ZM80.7203 287.875C79.3363 285.714 78.4123 280.923 77.8023 272.75C77.5553 269.45 77.1313 263.938 76.8593 260.5C75.2563 240.242 74.1583 197.472 75.2243 196.812C76.9013 195.776 77.2313 198.618 78.3203 223.5C78.6143 230.238 78.9663 237.55 79.1003 239.75C79.2353 241.95 79.6843 250.498 80.0983 258.746C80.5133 266.994 81.0523 274.531 81.2963 275.496C81.5413 276.461 81.8953 279.894 82.0823 283.125C82.4313 289.131 82.1503 290.11 80.7203 287.875ZM282.825 197.738C282.825 197.182 285.487 196.349 300.486 192.216C302.912 191.547 305.572 191 306.396 191C307.22 191 308.835 190.371 309.985 189.603C313.873 187.005 315.825 186.55 315.825 188.242C315.825 189.143 310.511 192 308.836 192C308.115 192 307.305 192.22 307.037 192.488C306.769 192.756 304.305 193.565 301.562 194.285C289.467 197.46 282.825 198.684 282.825 197.738Z" fill="white"/>
</svg>
