<svg width="220" height="161" viewBox="0 0 220 161" fill="none" xmlns="http://www.w3.org/2000/svg">
<path fill-rule="evenodd" clip-rule="evenodd" d="M30.0741 160.151C28.9011 159.329 28.2301 158.02 27.4071 154.951C26.7051 152.334 26.1891 150.567 24.9981 146.701C24.4051 144.776 23.5051 141.626 22.9981 139.701C20.6011 130.6 16.0591 114.451 14.4911 109.451C13.5861 106.569 13.1701 105.108 11.4941 98.951C9.87106 92.986 9.57306 91.908 8.52506 88.201C7.98106 86.276 7.17006 83.351 6.72206 81.701C5.76906 78.194 3.49306 70.107 2.50006 66.701C1.24306 62.389 0.00505977 57.051 5.97747e-05 55.922C-0.00794023 54.301 0.786059 53.2789 2.99406 52.0639C4.67006 51.1419 4.73706 50.9989 4.58406 48.6509C4.41606 46.0679 4.69506 45.5829 7.58806 43.4279L8.93206 42.4269L7.71306 39.0659C6.26906 35.0839 6.18206 33.3829 7.36906 32.3309C8.55906 31.2759 15.1831 27.951 16.0941 27.951C16.4971 27.951 16.9801 27.799 17.1661 27.612C17.7001 27.079 24.1311 24.978 25.2751 24.964C25.8421 24.957 27.1921 24.525 28.2751 24.004C33.0491 21.709 48.1141 20.498 55.7441 21.797C57.6691 22.124 61.3821 22.7509 63.9941 23.1889C66.6061 23.6279 69.4191 24.199 70.2441 24.458C71.0691 24.717 73.3191 25.2959 75.2441 25.7439C80.9141 27.0629 88.7331 30.3179 94.3301 33.6899L97.1641 35.3969L102.505 30.28C107.54 25.454 112.654 21.5859 120.736 16.4889C124.388 14.1859 135.456 8.56995 138.494 7.47895C139.457 7.13295 140.694 6.67095 141.244 6.45195C149.588 3.13095 166.662 -0.448047 171.806 0.0459526C176.049 0.453953 176.915 1.17895 179.747 6.70095C181.157 9.45095 182.67 12.601 183.109 13.701C183.548 14.801 184.915 17.839 186.146 20.451C189.539 27.65 191.362 31.684 193.827 37.451C196.109 42.789 198.767 48.7599 201.807 55.3709C202.735 57.3889 203.494 59.1389 203.494 59.2599C203.494 59.3809 204.263 61.104 205.203 63.09C206.144 65.076 207.625 68.501 208.494 70.701C209.364 72.901 210.755 76.164 211.584 77.951C212.414 79.738 213.538 82.326 214.082 83.701C214.627 85.076 215.366 86.876 215.726 87.701C216.086 88.526 216.891 90.551 217.515 92.201C218.139 93.851 218.84 95.415 219.072 95.676C219.755 96.445 219.562 97.383 218.502 98.443C217.691 99.254 217.101 99.3779 215.252 99.1249C213.652 98.9049 212.994 98.9909 212.994 99.4179C212.994 99.7499 213.974 101.636 215.172 103.611C218.529 109.145 218.68 110.611 215.952 111.21C215.15 111.386 214.494 111.726 214.494 111.964C214.494 112.202 215.277 113.734 216.235 115.368C218.721 119.61 219.06 120.67 218.275 121.744C217.717 122.507 217.796 122.956 218.807 124.767C220.281 127.407 220.303 128.625 218.9 129.932C217.856 130.904 217.198 130.951 204.731 130.951C195.279 130.951 190.284 131.169 186.7 131.737C183.974 132.169 180.394 132.713 178.744 132.945C173.507 133.682 162.437 135.942 156.744 137.435C141.645 141.397 142.545 141.002 142.465 143.701C142.399 145.945 140.933 148.056 138.503 149.408C136.068 150.762 133.952 151.308 128.494 151.991C121.659 152.846 118.312 151.661 116.39 147.706L115.295 145.451H112.244C102.63 145.451 82.0971 148.075 69.2441 150.946C67.8691 151.254 65.7311 151.712 64.4941 151.965C63.2571 152.218 61.4571 152.64 60.4941 152.903C59.5311 153.167 57.0561 153.832 54.9941 154.383C47.9491 156.263 40.7471 158.355 36.8541 159.654C32.3041 161.171 31.6041 161.222 30.0741 160.151ZM42.4941 153.789C47.3701 152.133 57.6481 149.369 64.2441 147.938C72.8461 146.073 76.0811 145.479 86.2441 143.897C95.1321 142.514 101.618 141.971 109.365 141.961L117.985 141.951L119.559 144.74C120.511 146.426 121.639 147.721 122.414 148.016C124.006 148.621 130.836 148.123 134.388 147.142C137.453 146.296 138.989 144.376 138.992 141.387C138.993 140.39 139.296 139.323 139.665 139.016C141.189 137.751 156.288 133.537 164.994 131.946C166.232 131.72 169.832 131.042 172.994 130.438C176.411 129.787 181.331 129.274 185.119 129.175C188.626 129.084 191.776 128.83 192.119 128.61C192.995 128.051 198.428 127.545 207.494 127.179C211.756 127.007 215.329 126.781 215.433 126.678C215.537 126.574 215.158 125.502 214.591 124.295L213.559 122.101L209.902 121.651C201.212 120.582 188.692 121.328 179.744 123.449C163.21 127.367 156.901 129.312 149.744 132.702C144.974 134.961 140.353 136.951 139.877 136.951C139.614 136.951 138.73 137.427 137.913 138.009C136.694 138.876 136.453 139.369 136.572 140.747C136.652 141.672 136.482 142.663 136.196 142.949C135.616 143.529 127.987 144.844 124.494 144.965C120.221 145.114 120.331 145.171 120.681 142.981C120.854 141.898 120.813 140.898 120.589 140.76C119.132 139.859 108.862 138.842 98.9941 138.621C85.2051 138.313 76.4621 139.059 65.4521 141.485C62.8631 142.056 58.6061 142.851 55.9941 143.253C50.7071 144.065 49.5131 144.422 43.9941 146.835C42.7571 147.377 40.1101 148.331 38.1131 148.957C34.6831 150.031 34.4291 150.047 33.5401 149.243C33.0221 148.774 32.4801 147.786 32.3351 147.046C32.1901 146.306 31.3541 143.451 30.4761 140.701C29.5991 137.951 28.7771 135.139 28.6501 134.451C28.5231 133.763 28.2351 132.751 28.0101 132.201C27.4841 130.915 25.2031 122.581 21.9891 110.201C20.0251 102.635 19.2151 99.66 18.2461 96.451C17.7901 94.939 17.1831 92.801 16.8981 91.701C16.6131 90.601 16.2031 89.251 15.9871 88.701C15.3401 87.052 14.6571 84.906 13.5201 80.951C11.7421 74.767 10.6241 70.93 9.29406 66.451C8.60006 64.113 7.60006 60.738 7.07206 58.951C6.33406 56.454 5.89506 55.701 5.17806 55.701C4.41606 55.701 4.25106 56.068 4.28106 57.701C4.30106 58.801 4.71406 61.051 5.19906 62.701C6.37706 66.708 6.73606 67.994 7.99406 72.701C9.40506 77.979 10.1621 80.596 12.2971 87.576C12.7391 89.02 13.2141 90.934 13.3521 91.831C13.4911 92.727 13.8051 93.5839 14.0491 93.7349C14.2941 93.8859 14.4941 94.532 14.4941 95.169C14.4941 95.807 14.8091 97.0879 15.1941 98.0149C15.5781 98.9419 16.2641 101.276 16.7171 103.201C17.1701 105.126 17.7551 107.092 18.0171 107.569C18.2791 108.047 18.4941 108.894 18.4941 109.451C18.4941 110.008 18.6981 110.855 18.9471 111.333C19.3551 112.115 21.8391 120.515 22.9751 124.951C23.5421 127.167 24.9861 132.232 26.9651 138.951C28.5981 144.496 28.9821 145.831 29.9781 149.451C30.3191 150.689 30.8001 152.218 31.0461 152.85C31.2921 153.481 31.4941 154.392 31.4941 154.875C31.4941 157.08 33.3381 156.898 42.4941 153.789ZM39.1001 145.405C40.5541 144.83 44.2191 143.567 47.2441 142.598C50.2691 141.629 53.1941 140.668 53.7441 140.463C55.5971 139.771 58.2291 139.049 60.7441 138.543C67.5801 137.166 69.0741 136.884 73.2441 136.18C79.7191 135.088 97.5721 134.659 105.11 135.414C111.237 136.028 119.71 137.577 121.906 138.484C123.71 139.229 124.259 138.445 122.666 137.399C120.401 135.911 108.693 132.609 101.744 131.498C95.1321 130.442 86.4311 129.837 82.2041 130.14C73.4601 130.767 65.0491 131.779 60.7441 132.721C54.0361 134.19 40.8201 137.742 39.5651 138.413C38.0411 139.228 37.1121 138.047 35.7591 133.576C35.0311 131.17 34.2261 128.751 33.9701 128.201C33.7131 127.651 33.1831 125.851 32.7901 124.201C32.3971 122.551 31.5001 119.289 30.7951 116.951C30.0911 114.613 29.5101 112.208 29.5041 111.606C29.4991 111.003 29.2941 110.386 29.0491 110.235C28.8051 110.084 28.4811 109.227 28.3301 108.331C27.7471 104.879 25.8221 97.1289 25.1741 95.6249C24.8001 94.7589 24.4941 93.7999 24.4941 93.4939C24.4941 93.1879 24.2841 92.5469 24.0271 92.0689C23.3981 90.9009 20.8111 82.5259 19.7611 78.2589C19.2951 76.3649 18.6241 74.1149 18.2701 73.2589C17.9161 72.4019 16.8891 69.339 15.9881 66.451C15.0871 63.563 13.8541 59.626 13.2481 57.701C12.1061 54.073 10.4731 48.665 10.1881 47.576C9.97906 46.773 9.41306 46.785 8.27706 47.615C7.40106 48.256 7.40406 48.386 8.37006 51.24C8.92106 52.869 9.86906 55.889 10.4771 57.951C11.8641 62.658 12.5261 64.861 13.0301 66.451C13.5771 68.18 15.4551 74.78 16.0871 77.201C16.3751 78.301 16.8091 79.763 17.0521 80.451C17.5321 81.81 20.8291 94.116 21.4731 96.951C21.8221 98.487 23.5171 104.153 24.9981 108.736C25.2711 109.581 25.4941 110.765 25.4941 111.368C25.4941 111.971 25.6871 112.855 25.9221 113.333C26.3101 114.119 28.9971 122.502 30.0471 126.201C31.7781 132.297 32.8121 135.859 34.1121 140.201C34.9351 142.951 35.6881 145.482 35.7861 145.826C36.0141 146.632 35.9931 146.634 39.1001 145.405ZM138.417 135.014C139.147 134.499 142.219 132.905 145.244 131.472C148.269 130.04 151.135 128.661 151.612 128.409C152.09 128.157 152.719 127.951 153.011 127.951C153.303 127.951 154.41 127.532 155.471 127.019C156.532 126.506 160.403 125.144 164.072 123.992C171.013 121.812 172.574 121.385 176.744 120.529C181.788 119.493 184.308 118.985 187.112 118.44C190.418 117.797 207.476 117.755 211.369 118.38C213.033 118.647 213.994 118.623 213.994 118.313C213.994 117.56 210.843 111.249 210.26 110.834C209.501 110.293 201.248 110.391 197.494 110.986C195.707 111.269 193.006 111.695 191.494 111.932C183.966 113.115 181.936 113.504 178.244 114.472C173.091 115.823 167.312 117.733 164.624 118.973C163.459 119.511 162.274 119.951 161.993 119.951C161.711 119.951 161.09 120.167 160.612 120.431C160.135 120.695 157.909 121.802 155.667 122.89C152.014 124.663 138.698 133.182 137.119 134.756C135.711 136.16 136.556 136.328 138.417 135.014ZM46.2441 132.946C63.7831 126.734 87.1021 125.243 104.994 129.19C106.781 129.584 109.707 130.023 111.494 130.165C113.281 130.306 115.531 130.631 116.494 130.886C119.954 131.803 124.736 133.493 125.21 133.967C126.725 135.482 126.864 133.792 125.564 129.659C125.052 128.032 124.137 124.901 123.53 122.701C122.923 120.501 122.239 118.251 122.011 117.701C121.782 117.151 121.101 115.013 120.498 112.951C119.894 110.889 118.988 107.963 118.484 106.451C117.98 104.939 116.622 100.664 115.466 96.951C112.992 89.002 110.573 81.607 109.989 80.201C109.76 79.651 107.56 73.126 105.1 65.701C98.9831 47.239 97.3331 41.6119 97.5981 40.1239C97.6981 39.5679 96.7881 38.8099 94.7441 37.7449C93.0941 36.8849 90.5061 35.502 88.9941 34.671C82.2421 30.962 74.6121 28.2659 67.1591 26.9549C63.9061 26.3829 60.0251 25.698 58.5361 25.433C54.5221 24.719 44.5281 24.856 38.0381 25.713C28.1261 27.022 23.2821 28.4149 15.1191 32.3019C11.3081 34.1159 10.4941 34.702 10.4941 35.629C10.4941 36.248 11.2591 39.105 12.1941 41.978C13.1291 44.851 14.2471 48.551 14.6791 50.201C16.6211 57.629 17.9941 63.702 17.9941 64.867C17.9941 66.234 22.4681 82.5019 24.0381 86.8449C24.5641 88.2989 24.9941 90.0289 24.9941 90.6899C24.9941 91.3509 25.2371 92.0419 25.5351 92.2259C25.8321 92.4099 25.9401 93.0979 25.7751 93.7559C25.6061 94.4299 25.6971 94.951 25.9841 94.951C26.2651 94.951 26.5121 94.557 26.5331 94.076C26.5651 93.383 26.6301 93.357 26.8491 93.951C27.0001 94.363 27.4061 95.039 27.7491 95.451C28.0931 95.863 28.8751 97.889 29.4861 99.951C30.0981 102.013 30.7731 104.263 30.9881 104.951C31.2031 105.639 31.6551 107.213 31.9941 108.451C32.3331 109.689 32.7831 111.263 32.9941 111.951C33.2051 112.639 33.6551 114.213 33.9941 115.451C34.3331 116.689 34.8071 118.263 35.0481 118.951C35.4521 120.103 37.4261 127.533 38.5571 132.157C39.3891 135.559 38.9851 135.517 46.2441 132.946ZM133.244 129.412C136.833 124.967 146.477 116.691 154.037 111.569C160.121 107.447 173.801 101.46 182.244 99.223C184.994 98.495 187.919 97.701 188.744 97.458C189.569 97.216 192.494 96.767 195.244 96.462C197.994 96.156 202.044 95.6989 204.244 95.4459C206.444 95.1929 209.65 95.122 211.369 95.288C213.894 95.532 214.494 95.452 214.494 94.87C214.494 94.475 214.304 93.937 214.072 93.676C213.84 93.415 213.126 91.851 212.485 90.201C211.845 88.551 210.822 86.076 210.213 84.701C209.604 83.326 208.657 81.188 208.108 79.951C202.606 67.543 197.7 56.2349 196.444 53.0659C195.601 50.9399 194.255 47.795 193.453 46.076C190.737 40.258 189.105 36.71 187.991 34.201C187.381 32.826 186.345 30.513 185.688 29.061C185.031 27.609 184.494 26.333 184.494 26.225C184.494 26.117 183.412 23.705 182.089 20.865C180.766 18.025 179.37 14.913 178.987 13.951C178.603 12.989 177.379 10.416 176.267 8.23495L174.244 4.26995L171.494 4.05895C167.831 3.77795 157.142 5.54595 150.244 7.57295C131.758 13.007 114.872 22.775 101.772 35.613C99.1461 38.187 98.8701 38.638 99.4041 39.493C100.538 41.308 103.016 48.0329 107.56 61.6199C110.058 69.0889 112.283 75.876 112.505 76.701C114.042 82.429 114.646 84.3929 115.924 87.8249C116.718 89.9569 119.411 98.001 121.908 105.701C126.185 118.888 127.07 121.727 129.262 129.279C129.777 131.053 130.386 132.258 130.7 132.123C130.999 131.994 132.144 130.774 133.244 129.412ZM144.898 125.534C156.052 118.426 162.889 115.362 177.244 111.035C184.68 108.794 196.973 107.33 206.871 107.505C210.24 107.565 213.12 107.491 213.27 107.341C213.766 106.846 209.363 99.693 208.327 99.311C207.59 99.039 194.998 100.243 191.994 100.872C182.86 102.786 175.495 104.936 171.124 106.966C169.959 107.508 168.878 107.951 168.723 107.951C167.744 107.951 159.642 112.502 154.562 115.906C149.043 119.603 140.604 126.261 139.026 128.163C137.696 129.765 139.588 128.918 144.898 125.534ZM50.6721 107.195C50.0671 105.618 51.5801 104.871 58.2441 103.457C59.3441 103.223 61.5021 102.762 63.0401 102.431C66.1221 101.768 82.9051 102.075 88.2441 102.893C97.4151 104.297 100.55 105.079 101.727 106.256C103.589 108.117 101.949 108.302 94.9941 107.015C93.4821 106.735 90.8941 106.263 89.2441 105.966C87.5941 105.669 82.8061 105.285 78.6031 105.111C70.6591 104.782 66.7001 105.135 57.4771 106.991C51.7291 108.149 51.0461 108.169 50.6721 107.195ZM45.3271 88.118C44.2861 87.077 46.7441 84.951 48.9871 84.951C49.4491 84.951 49.9931 84.7849 50.1961 84.5819C51.0451 83.7329 59.7451 82.448 66.4941 82.174C74.7001 81.842 79.9371 82.436 90.2441 84.868C93.6381 85.669 95.4941 86.517 95.4941 87.266C95.4941 88.753 94.3971 88.717 85.7441 86.945C78.7591 85.515 72.5211 84.865 68.4941 85.148C60.4761 85.712 55.2391 86.4009 51.2441 87.4199C46.9571 88.5119 45.8521 88.643 45.3271 88.118ZM87.9631 69.2589C87.5431 68.8519 75.2071 66.4899 70.4941 65.9149C65.9821 65.3649 55.3391 65.7739 49.9941 66.7039C49.0311 66.8709 46.3591 67.3519 44.0541 67.7719C40.2051 68.4739 39.7991 68.469 39.0541 67.713C38.3071 66.954 38.3201 66.8339 39.2211 66.1659C42.8841 63.4499 59.4701 61.703 69.9941 62.923C74.9801 63.501 85.1141 65.724 88.1551 66.905C89.0571 67.256 89.5091 67.7539 89.4051 68.2859C89.2471 69.1029 88.3941 69.6779 87.9631 69.2589ZM81.9941 51.4809C81.2621 51.0529 75.7611 49.7709 70.7441 48.8599C61.4581 47.1739 56.2301 46.939 43.6191 47.639C39.4251 47.872 35.9941 47.935 35.9941 47.779C35.9941 47.146 44.0541 45.0119 48.5971 44.4419C58.8631 43.1539 77.0411 45.6059 84.0331 49.2209C85.6361 50.0499 85.7971 50.448 84.8941 51.351C84.1941 52.051 83.0541 52.1019 81.9941 51.4809ZM139.168 101.182C139.005 100.76 139.294 99.947 139.808 99.376C142.03 96.912 157.638 87.529 162.985 85.443C164.493 84.855 166.952 83.813 168.451 83.128C174.248 80.476 183.43 77.951 187.275 77.951C189.092 77.951 189.494 78.117 189.494 78.867C189.494 79.97 188.191 80.689 184.369 81.695C177.212 83.578 175.468 84.0829 171.244 85.4979C164.509 87.7529 153.073 93.5039 146.42 97.9809C143.174 100.164 140.281 101.951 139.991 101.951C139.7 101.951 139.33 101.605 139.168 101.182ZM133.494 86.223C133.494 84.027 143.036 77.12 152.449 72.503C165.854 65.928 181.121 61.4439 182.882 63.5649C183.773 64.6389 182.351 65.689 178.994 66.435C175.727 67.161 174.716 67.456 168.494 69.502C165.881 70.361 163.519 71.2269 163.244 71.4259C162.969 71.6249 161.394 72.3199 159.744 72.9699C153.302 75.5109 142.565 81.5679 137.047 85.7759C134.426 87.7739 133.494 87.891 133.494 86.223ZM128.229 71.904C127.989 71.146 128.288 70.449 129.315 69.377C132.114 66.455 143.112 59.572 150.523 56.103C154.504 54.24 170.874 48.9739 173.728 48.6379C176.045 48.3659 176.525 48.449 176.802 49.172C177.335 50.562 176.056 51.285 170.496 52.738C167.61 53.492 163.698 54.748 161.803 55.53C159.907 56.311 158.168 56.951 157.938 56.951C157.707 56.951 156.045 57.626 154.244 58.451C152.443 59.276 150.9 59.951 150.815 59.951C150.087 59.951 138.186 66.797 134.19 69.514C131.411 71.404 129.007 72.951 128.849 72.951C128.691 72.951 128.412 72.48 128.229 71.904ZM123.017 57.976C122.408 57.59 122.395 57.3289 122.941 56.3589C124.297 53.9459 134.772 47.04 143.244 42.973C151.549 38.986 151.902 38.8459 157.744 37.2179C159.394 36.7579 161.756 36.081 162.994 35.714C166.311 34.731 170.334 34.288 170.692 34.866C171.316 35.877 170.33 36.956 168.318 37.462C164.03 38.541 152.087 42.575 147.994 44.326C142.899 46.506 137.205 49.7389 129.642 54.7439C126.562 56.7829 123.974 58.4479 123.892 58.4429C123.811 58.4389 123.417 58.229 123.017 57.976ZM117.327 44.118C115.997 42.788 117.754 40.5939 123.194 36.7909C132.409 30.3499 145.305 24.5629 157.244 21.5129C162.27 20.2299 165.476 20.4749 164.854 22.0949C164.512 22.9849 162.047 23.899 154.994 25.752C143.251 28.836 133.542 33.639 120.753 42.688C118.134 44.542 117.864 44.655 117.327 44.118Z" fill="white"/>
</svg>
