<svg width="210" height="157" viewBox="0 0 210 157" fill="none" xmlns="http://www.w3.org/2000/svg">
<path fill-rule="evenodd" clip-rule="evenodd" d="M158.186 156.303C152.919 155.114 149.207 152.185 148.397 148.581C147.89 146.324 148.419 144.279 150.922 138.815C151.692 137.133 152.712 134.856 153.188 133.756C153.664 132.656 154.677 130.406 155.441 128.756C156.204 127.106 157.554 124.068 158.441 122.006C160.23 117.846 161.457 115.062 163.242 111.116C163.899 109.664 164.436 108.377 164.436 108.256C164.436 108.019 166.015 104.471 168.738 98.5863C169.672 96.5683 170.436 94.8312 170.436 94.7262C170.436 94.6212 171.024 93.2353 171.743 91.6463C174.049 86.5483 175.243 83.7992 175.928 82.0062C176.295 81.0442 176.785 80.0423 177.016 79.7813C177.247 79.5203 177.436 79.0242 177.436 78.6782C177.436 78.3332 178.085 76.6352 178.878 74.9032C179.671 73.1722 181.826 68.3153 183.667 64.1103C186.993 56.5093 187.057 56.4113 194.549 47.3603C205.952 33.5853 207.332 32.3232 208.911 34.2252C209.372 34.7822 209.375 37.1322 208.924 44.6002C207.704 64.7682 207.772 64.2652 205.483 70.0062C201.912 78.9652 200.794 82.4782 201.303 83.1442C201.561 83.4802 202.037 85.8942 202.36 88.5062C204.035 102.014 204.523 106.212 205.675 117.006C207.248 131.737 207.253 132.286 205.811 133.181C204.344 134.091 188.608 135.251 182.721 134.884L178.341 134.611L177.593 136.433C177.182 137.436 176.108 139.831 175.208 141.756C169.045 154.934 168.736 155.351 164.34 156.43C161.691 157.08 161.619 157.079 158.186 156.303ZM164.711 152.404C165.51 152.04 166.508 150.816 167.234 149.31C168.667 146.341 168.719 145.709 167.561 145.355C166.366 144.989 157.4 141.112 156.291 140.481C155.798 140.201 155.206 140.089 154.974 140.233C154.067 140.793 152.389 145.194 152.533 146.634C152.72 148.496 155.206 150.641 158.726 151.977C161.698 153.105 162.972 153.196 164.711 152.404ZM171.21 140.96C171.65 140.109 171.937 139.341 171.848 139.252C171.759 139.163 170.223 138.534 168.436 137.854C166.649 137.174 163.687 135.918 161.855 135.062C160.023 134.206 158.398 133.506 158.243 133.506C157.681 133.506 156.362 136.631 156.768 137.002C157.214 137.409 169.438 142.459 170.048 142.488C170.247 142.498 170.77 141.81 171.21 140.96ZM175.538 131.23C176.609 128.769 177.924 125.802 178.46 124.636C178.997 123.471 179.436 122.424 179.436 122.311C179.436 122.198 180.351 120.114 181.469 117.681C184.121 111.909 184.411 111.25 187.167 104.756C188.45 101.731 189.706 98.8062 189.957 98.2562C193.962 89.4842 203.43 65.9002 203.136 65.4262C202.994 65.1952 202.475 65.0062 201.984 65.0062C201.493 65.0062 200.684 64.5562 200.186 64.0062C199.586 63.3432 198.646 63.0063 197.397 63.0063C196.104 63.0063 195.035 62.6042 193.99 61.7252C192.85 60.7662 192.018 60.4832 190.679 60.6002C188.691 60.7732 189.28 59.6742 183.097 74.7562C181.857 77.7812 180.388 81.2692 179.832 82.5062C179.277 83.7432 178.418 85.6562 177.924 86.7562C177.43 87.8562 176.128 91.0062 175.029 93.7562C173.931 96.5062 172.361 100.218 171.542 102.006C170.722 103.794 168.879 107.956 167.445 111.256C166.011 114.556 164.11 118.831 163.219 120.756C160.125 127.441 159.436 129.035 159.436 129.507C159.436 130.016 162.037 131.506 162.927 131.506C163.224 131.506 163.606 131.112 163.775 130.631C163.945 130.15 164.48 128.856 164.965 127.756C165.45 126.656 166.522 124.068 167.346 122.006C168.17 119.944 169.741 116.343 170.837 114.006C171.932 111.669 173.775 107.506 174.932 104.756C176.089 102.006 177.452 98.8383 177.96 97.7163C178.468 96.5943 179.357 94.4742 179.936 93.0062C180.515 91.5382 181.426 89.3752 181.962 88.1992C182.498 87.0232 182.936 85.9222 182.936 85.7512C182.936 85.5812 183.525 84.1633 184.245 82.5993C184.964 81.0353 185.848 78.9682 186.208 78.0062C187.745 73.8942 189.886 69.3163 190.846 68.0833C191.848 66.7983 191.881 66.7913 191.908 67.8573C191.923 68.4633 191.727 69.4763 191.472 70.1073C191.217 70.7393 190.064 73.9562 188.911 77.2562C186.487 84.1922 184.407 89.2402 178.817 101.756C173.699 113.216 173.045 114.695 170.411 120.756C169.215 123.506 167.48 127.193 166.555 128.949C165.629 130.705 165.055 132.301 165.279 132.496C165.503 132.691 167.036 133.37 168.686 134.006C170.336 134.642 171.903 135.355 172.167 135.59C173.065 136.389 173.588 135.712 175.538 131.23ZM189.436 130.97C191.774 130.695 195.549 130.284 197.826 130.056C200.103 129.829 202.078 129.53 202.216 129.393C202.354 129.255 202.249 126.918 201.982 124.199C201.3 117.249 199.565 101.523 198.951 96.7302C198.668 94.5162 198.436 91.9573 198.436 91.0443C198.436 89.6253 198.327 89.4742 197.686 90.0062C197.273 90.3482 196.936 90.9103 196.936 91.2553C196.936 91.5993 195.722 94.7783 194.237 98.3183C186.796 116.068 183.37 124.108 181.734 127.659C180.745 129.805 179.936 131.693 179.936 131.853C179.936 132.014 181.117 131.994 182.561 131.808C184.005 131.623 187.098 131.246 189.436 130.97ZM204.111 61.1272C204.24 60.9182 204.509 57.8813 204.708 54.3783L205.071 48.0083L203.493 47.6922C202.625 47.5192 201.794 47.1812 201.646 46.9412C200.966 45.8412 199.406 46.7573 197.064 49.6313C195.664 51.3503 193.712 53.5313 192.727 54.4793C190.549 56.5753 190.438 57.5063 192.369 57.5063C193.156 57.5063 194.366 57.9503 195.056 58.4933C195.824 59.0973 196.993 59.4553 198.069 59.4143C199.192 59.3723 200.323 59.7383 201.199 60.4273C202.607 61.5343 203.697 61.7962 204.111 61.1272ZM5.69259 154.692C5.24459 154.244 4.99359 153.576 5.13459 153.209C5.27559 152.842 5.52759 150.79 5.69359 148.649C5.86059 146.508 6.43159 140.368 6.96359 135.006C10.0696 103.676 9.81059 96.0773 4.17559 53.2563C1.29759 31.3813 0.373588 24.8103 0.116588 24.3953C-0.297412 23.7243 0.453589 22.0323 1.38659 21.5323C2.29359 21.0473 15.9306 19.4893 27.9356 18.4983C35.3586 17.8863 50.5586 16.2743 56.4356 15.4763C58.4976 15.1963 61.7606 14.7503 63.6856 14.4863C65.6106 14.2223 70.0116 13.6643 73.4646 13.2453C76.9186 12.8273 81.0806 12.2592 82.7146 11.9832C84.3486 11.7082 87.1486 11.2813 88.9356 11.0343C93.2636 10.4373 111.715 7.32626 121.686 5.51226C140.811 2.03326 153.14 0.617253 168.186 0.170253C179.853 -0.175747 178.761 -0.901749 180.917 8.63125C181.181 9.80025 181.879 12.7813 182.467 15.2563C183.505 19.6193 185.483 28.6543 186.517 33.7563C186.796 35.1313 187.241 37.2693 187.507 38.5063C187.773 39.7433 188.115 42.9022 188.267 45.5252C188.496 49.4752 188.41 50.4063 187.762 50.9433C187.332 51.3003 186.76 51.4562 186.491 51.2902C185.828 50.8802 184.75 46.9973 183.22 39.5063C182.517 36.0683 181.48 31.1193 180.916 28.5063C180.351 25.8933 179.679 22.7443 179.422 21.5063C179.165 20.2683 178.606 17.6813 178.179 15.7563C177.753 13.8313 177.083 10.6193 176.691 8.61825C176.3 6.61825 175.824 4.72924 175.634 4.42324C175.281 3.85124 172.773 3.93426 157.865 5.00726C148.349 5.69326 136.883 7.21626 123.936 9.51626C109.892 12.0113 107.608 12.3912 91.1856 14.9622C85.9606 15.7802 80.6736 16.5753 79.4356 16.7273C78.1976 16.8803 74.8226 17.3352 71.9356 17.7382C66.2786 18.5272 55.8706 19.6923 47.4356 20.4813C44.5476 20.7513 37.7976 21.4303 32.4356 21.9903C27.0736 22.5513 18.7476 23.3692 13.9356 23.8102C9.12359 24.2502 5.00359 24.7802 4.78159 24.9872C4.55859 25.1952 4.72559 27.2532 5.15159 29.5602C5.90759 33.6472 6.87259 40.6223 7.94759 49.7563C8.54359 54.8223 9.24559 60.1942 9.94059 65.0062C10.1986 66.7942 10.6386 70.3942 10.9176 73.0062C11.1966 75.6182 11.7006 79.8942 12.0386 82.5062C12.8606 88.8662 12.8626 116.56 12.0416 126.756C10.1986 149.66 10.1496 150.62 10.8246 150.878C11.1806 151.015 13.5456 150.868 16.0796 150.551C18.6126 150.235 24.5106 149.532 29.1856 148.991C42.2276 147.48 61.5786 144.744 74.9356 142.522C76.4476 142.271 79.5976 141.828 81.9356 141.538C84.2736 141.249 88.5486 140.685 91.4356 140.285C110.87 137.594 132.769 135.382 138.603 135.521C140.573 135.568 143.878 135.443 145.947 135.243C149.147 134.933 149.812 135.004 150.404 135.718C151.636 137.201 150.104 137.985 144.903 138.533C142.309 138.806 138.935 139.25 137.406 139.518C135.877 139.786 133.417 140.006 131.94 140.006C130.462 140.006 127.326 140.22 124.97 140.482C122.614 140.744 118.323 141.213 115.436 141.523C105.005 142.645 89.0676 144.759 74.4356 146.963C62.1426 148.814 63.4046 148.635 45.9356 151.018C9.15858 156.036 7.21459 156.213 5.69259 154.692ZM44.0126 125.224C44.1806 124.351 45.7286 123.81 51.1186 122.742C52.4356 122.481 52.5226 122.329 52.2046 120.857C51.5906 118.019 50.9586 112.901 50.4676 106.808C50.2046 103.536 49.7716 100.642 49.5056 100.376C49.1946 100.065 48.3256 100.285 47.0686 100.991C44.9146 102.202 42.2736 102.21 42.0626 101.006C41.9186 100.179 45.0976 96.3012 57.3746 82.3272C61.8786 77.2002 65.8966 73.0062 66.3046 73.0062C66.7126 73.0062 69.5526 74.6623 72.6156 76.6853C75.6796 78.7083 82.1576 82.9703 87.0116 86.1543C91.8666 89.3393 95.9946 92.1982 96.1856 92.5072C96.6586 93.2712 95.0096 95.0062 93.8106 95.0062C93.2766 95.0062 92.1936 94.6242 91.4036 94.1572C90.6126 93.6902 89.8116 93.4632 89.6226 93.6522C89.4336 93.8412 89.8736 97.3172 90.5996 101.376C91.3266 105.435 92.1956 110.387 92.5306 112.381L93.1396 116.006H98.0376C100.732 116.006 102.936 116.203 102.936 116.445C102.936 117.374 101.534 117.897 97.4356 118.494C95.0976 118.835 92.7356 119.286 92.1856 119.498C90.6876 120.074 85.3456 121.006 83.5376 121.006C82.6646 121.006 80.9906 121.228 79.8176 121.499C78.6446 121.77 74.6486 122.431 70.9356 122.967C67.2226 123.503 63.2856 124.078 62.1856 124.244C61.0856 124.411 57.7106 124.76 54.6856 125.021C51.6606 125.282 47.9816 125.641 46.5106 125.819C44.0936 126.112 43.8526 126.054 44.0126 125.224ZM62.8476 120.428C65.0326 120.011 65.4496 119.771 65.1746 119.088C64.5996 117.661 63.3776 106.813 63.6636 105.671C64.0066 104.299 67.3586 103.138 72.1856 102.72C77.0516 102.298 77.2906 102.547 78.7416 109.544C79.3926 112.685 79.9286 115.743 79.9306 116.339C79.9366 117.67 80.7256 117.982 82.6826 117.429C83.5056 117.196 85.0806 117.003 86.1826 116.998C89.6286 116.985 89.6176 117.032 88.1636 108.716C86.4046 98.6613 85.9106 93.9093 86.5426 93.1363C86.8356 92.7783 87.5536 92.6423 88.2426 92.8153C89.9556 93.2453 89.7126 92.3822 87.8106 91.2822C84.5206 89.3792 73.0976 81.8152 70.2676 79.6652C68.6626 78.4462 67.0666 77.5182 66.7216 77.6032C66.3756 77.6872 63.2636 81.1312 59.8056 85.2562C56.3476 89.3812 52.4876 93.8642 51.2276 95.2182C49.9666 96.5712 48.9356 97.7542 48.9356 97.8452C48.9356 97.9352 49.6666 97.9533 50.5606 97.8833L52.1856 97.7562L53.0556 102.756C53.8816 107.505 54.2046 109.451 55.4186 117.006C56.2466 122.156 55.5276 121.825 62.8476 120.428ZM76.1186 118.673C77.3086 118.327 77.1166 116.39 74.9836 107.256C74.6486 105.82 74.5336 105.763 72.2966 105.921C71.0106 106.012 69.3356 106.256 68.5726 106.463C67.2676 106.818 67.1876 107.001 67.2176 109.548C67.2356 111.037 67.5416 113.911 67.8966 115.933L68.5436 119.611L71.8646 119.278C73.6916 119.095 75.6056 118.823 76.1186 118.673ZM111.54 115.381C111.898 114.181 117.102 112.066 120.553 111.718C122.404 111.531 124.169 111.078 124.474 110.71C125.676 109.262 125.51 88.4142 124.287 87.1912C124.145 87.0492 123.294 87.3122 122.396 87.7772C120.48 88.7672 116.596 88.8843 114.886 88.0033C113.162 87.1133 110.962 84.9762 110.129 83.3812C109.522 82.2212 109.09 82.0062 107.356 82.0062C100.907 82.0062 95.9746 77.4412 95.9466 71.4442C95.9336 68.6922 97.0766 65.2023 98.4806 63.7083L99.4926 62.6313L97.9516 60.2013C95.2006 55.8633 94.9266 52.5342 96.9826 48.4412C97.9896 46.4382 100.564 43.8152 102.518 42.8012C103.865 42.1022 106.9 41.3943 108.915 41.3083C109.873 41.2673 110.253 40.8713 110.64 39.5063C111.337 37.0483 116.128 32.3813 118.744 31.6113C123.407 30.2403 128.209 31.2782 131.178 34.3012C132.282 35.4252 133.478 36.7213 133.835 37.1803C134.328 37.8143 134.712 37.8943 135.427 37.5113C136.817 36.7673 142.556 36.8973 144.5 37.7173C146.32 38.4853 148.918 40.9963 149.97 43.0063C150.348 43.7273 150.602 45.7373 150.571 47.7563L150.518 51.2563L152.512 52.5042C155.216 54.1952 156.478 56.3823 156.549 59.4973C156.593 61.4213 156.329 62.4052 155.449 63.5952C154.402 65.0112 154.351 65.3272 154.914 66.8822C156.48 71.2132 154.814 74.6642 150.026 77.0062C147.924 78.0342 147.363 78.5952 146.863 80.1682C145.616 84.0912 139.504 87.7672 136.271 86.5382C133.599 85.5222 133.677 85.0412 134.978 94.5062C135.809 100.543 137.608 107.022 138.859 108.474C139.632 109.373 140.021 109.402 144.816 108.922C150.352 108.368 153.58 108.777 153.828 110.064C154.054 111.237 150.746 112.006 145.47 112.006C142.94 112.006 140.435 112.239 139.903 112.524C137.326 113.903 134.595 109.009 132.591 99.4223C130.935 91.4973 130.625 80.3893 132.052 80.1073C132.639 79.9913 133.194 80.5123 133.77 81.7213C134.54 83.3363 134.815 83.5062 136.654 83.5042C140.556 83.5012 144.12 80.0262 143.587 76.7442C143.301 74.9822 143.364 74.9352 146.936 74.2412C150.653 73.5182 152.671 69.7792 150.436 67.7562C149.002 66.4582 149.18 65.6463 151.436 63.1983C153.633 60.8153 153.795 60.1502 152.696 58.0252C151.626 55.9572 149.55 54.5063 147.659 54.5063C144.275 54.5063 143.522 53.2933 145.561 51.1233C146.471 50.1543 146.686 49.3493 146.686 46.9093C146.686 43.9753 146.626 43.8382 144.497 41.9492C142.582 40.2502 141.998 40.0063 139.84 40.0063C138.171 40.0063 136.477 40.4452 134.601 41.3632C131.903 42.6842 131.811 42.6953 131.133 41.7683C130.75 41.2443 130.436 40.3862 130.436 39.8632C130.436 36.9702 125.815 34.1643 121.798 34.6173C119.14 34.9163 115.724 37.0133 114.413 39.1493C113.664 40.3693 113.499 41.2553 113.73 42.8293C114.118 45.4783 113.021 46.3343 110.745 45.1573C106.357 42.8883 99.4356 47.8763 99.4356 53.3083C99.4356 55.8543 101.45 59.1272 103.811 60.4182C104.98 61.0582 105.936 61.8573 105.936 62.1933C105.936 63.0953 104.869 64.0062 103.813 64.0062C102.263 64.0062 100.589 66.1792 99.9906 68.9682C99.5026 71.2442 99.5526 71.8763 100.369 73.7213C100.886 74.8913 102.07 76.3903 102.998 77.0523C104.463 78.0973 105.247 78.2562 108.936 78.2562H113.186L113.205 79.7562C113.24 82.4192 113.882 83.4032 116.151 84.2692C118.059 84.9982 118.609 85.0152 120.733 84.4152C122.589 83.8912 123.212 83.4572 123.43 82.5322C123.586 81.8712 123.949 81.2523 124.236 81.1563C126.392 80.4373 128.584 90.0812 128.578 100.256C128.574 106.053 128.388 107.831 127.494 110.601C126.277 114.372 126.633 114.158 119.816 115.236C113.794 116.188 111.285 116.232 111.54 115.381ZM40.6336 75.8012C40.0916 74.3892 45.1316 66.0062 46.5226 66.0062C47.7126 66.0062 48.2766 67.3872 47.5196 68.4492C47.2036 68.8932 46.3556 70.3812 45.6346 71.7562C43.4656 75.8962 41.3326 77.6222 40.6336 75.8012ZM117.541 75.0252C116.43 74.2202 115.363 73.0433 115.171 72.4093C114.979 71.7753 114.368 70.7613 113.815 70.1563C112.75 68.9913 112.918 67.5062 114.116 67.5062C115.287 67.5062 120.436 73.4123 120.436 74.7553C120.436 76.5663 119.756 76.6292 117.541 75.0252ZM132.936 75.5603C132.936 73.7013 138.577 65.0062 139.782 65.0062C140.207 65.0062 140.436 65.6792 140.436 66.9292C140.436 68.5422 139.968 69.4093 137.539 72.3023C134.878 75.4703 132.936 76.8453 132.936 75.5603ZM57.1666 70.7962C56.2786 69.4422 56.5726 67.5062 57.6656 67.5062C58.4366 67.5062 58.9356 68.5912 58.9356 70.2672C58.9356 71.9792 58.1036 72.2282 57.1666 70.7962ZM50.1136 63.2353C49.2496 62.8563 47.8426 61.6993 46.9886 60.6623C45.5726 58.9453 45.4356 58.4633 45.4356 55.2163C45.4356 52.3393 45.6546 51.3293 46.5726 49.9673C48.5516 47.0303 50.6096 46.0063 54.5346 46.0063C56.5246 46.0063 58.5566 46.3033 59.3356 46.7083C63.3776 48.8113 65.5676 54.3953 63.7286 57.9063C62.8156 59.6473 60.1236 62.1732 58.0856 63.2002C56.1636 64.1682 52.2806 64.1853 50.1136 63.2353ZM58.8096 58.2202C60.1406 56.6802 60.4356 55.9193 60.4356 54.0163C60.4356 52.1263 60.1796 51.4543 59.0606 50.4113C58.3046 49.7053 57.2116 48.8852 56.6316 48.5882C55.0736 47.7882 52.0526 48.7893 50.0836 50.7583C48.7116 52.1303 48.4356 52.7802 48.4356 54.6392C48.4356 56.1622 48.7756 57.3033 49.5046 58.2303C50.9276 60.0393 52.2316 60.5362 54.9346 60.2982C56.7916 60.1352 57.4676 59.7732 58.8096 58.2202ZM31.5546 61.3813C32.1486 59.5503 40.6856 57.7692 40.6856 59.4762C40.6856 59.9232 39.5486 60.5373 37.6856 61.0943C34.1196 62.1623 31.2586 62.2963 31.5546 61.3813ZM68.7686 54.6732C67.3816 53.2852 70.9506 52.0063 76.2106 52.0063C78.5806 52.0063 78.9356 52.1333 78.9356 52.9823C78.9356 53.6853 78.4096 54.1053 77.0606 54.4803C74.9736 55.0593 69.2876 55.1922 68.7686 54.6732ZM40.1856 48.3322C39.6356 48.0152 37.9146 47.0213 36.3616 46.1233C33.3796 44.4003 32.5656 43.3043 33.4636 42.2223C34.1176 41.4343 34.6036 41.6152 39.2856 44.3892C43.2636 46.7452 43.5766 47.0563 43.1336 48.2113C42.7846 49.1213 41.6376 49.1682 40.1856 48.3322ZM62.9156 44.2323C62.0916 43.2403 62.9646 41.3213 65.9186 37.6313C69.1506 33.5943 71.7896 34.3743 69.2796 38.6253C67.8376 41.0663 64.5516 45.0063 63.9576 45.0063C63.7376 45.0063 63.2686 44.6583 62.9156 44.2323ZM51.2666 41.6372C50.5446 40.4692 49.4296 33.8123 49.8806 33.3613C50.6036 32.6383 51.2706 33.3192 51.6046 35.1192C51.7706 36.0192 52.1136 37.5922 52.3646 38.6132C52.6896 39.9332 52.6436 40.7142 52.2056 41.3142C51.8206 41.8392 51.4666 41.9612 51.2666 41.6372Z" fill="white"/>
</svg>
