<svg width="364" height="311" viewBox="0 0 364 311" fill="none" xmlns="http://www.w3.org/2000/svg">
<path fill-rule="evenodd" clip-rule="evenodd" d="M145.73 309.857C135.596 307.965 127.979 301.573 124.123 291.724C122.708 288.109 122.552 276.834 123.866 273.189C127.121 264.164 133.275 257.688 141.73 254.389C143.792 253.584 148.18 251.861 151.48 250.561C154.78 249.26 159.843 247.348 162.73 246.312C165.617 245.275 171.017 243.259 174.73 241.831C197.603 233.033 201.133 231.702 205.23 230.329C206.742 229.822 209.893 228.69 212.23 227.813C220.124 224.852 222.467 224.233 226.73 223.979C234.753 223.502 241.845 226.096 247.755 231.672C254.19 237.742 257.114 246.188 255.739 254.729C254.564 262.031 252.235 266.726 247.305 271.728C243.54 275.55 241.458 276.688 229.73 281.339C225.468 283.029 221.305 284.701 220.48 285.055C217.555 286.307 209.792 289.456 194.98 295.397C186.73 298.706 179.305 301.708 178.48 302.068C175.37 303.425 162.389 308.469 160.23 309.161C157.526 310.026 148.865 310.442 145.73 309.857ZM157.48 304.15C160.096 303.576 174.076 298.112 193.98 289.885C199.797 287.481 200.009 287.34 200.927 285.245C201.449 284.056 202.149 281.228 202.484 278.96C203.704 270.699 201.199 262.15 194.777 252.658C192.212 248.867 189.747 246.619 186.494 245.102C183.962 243.922 182.52 244.225 172.48 248.048C163.215 251.575 159.338 253.045 150.73 256.293C140.835 260.026 138.151 261.49 135.035 264.856C130.776 269.456 128.782 274.155 128.363 280.579C127.934 287.141 130.776 294.479 135.33 298.574C137.995 300.97 143.34 303.806 145.301 303.864C145.95 303.883 146.93 304.093 147.48 304.329C148.996 304.98 154.114 304.889 157.48 304.15ZM210.845 283.284C213.669 282.159 216.88 280.829 217.98 280.328C219.08 279.828 221.668 278.736 223.73 277.902C234.332 273.618 239.415 271.278 241.588 269.683C254.813 259.975 253.137 238.673 238.582 231.461C236.864 230.611 233.806 229.649 231.73 229.308C227.169 228.558 223.883 229.15 215.352 232.259C212.256 233.387 207.193 235.232 204.102 236.358C201.01 237.485 197.918 238.598 197.23 238.832C191.234 240.873 186.488 242.805 186.333 243.269C186.231 243.577 186.382 243.829 186.671 243.829C186.959 243.829 188.893 244.86 190.97 246.121C202.833 253.324 209.387 270.573 205.439 284.204C205.26 284.823 205.248 285.329 205.412 285.329C205.576 285.329 208.021 284.409 210.845 283.284ZM301.23 275.274C299.992 275.027 297.742 274.584 296.23 274.288C293.198 273.695 292.643 273.542 285.645 271.361C280.386 269.722 277.599 268.338 272.973 265.071C267.6 261.276 264.234 256.988 262.264 251.429C261.21 248.456 261.158 247.66 261.339 237.179C261.515 227.036 261.629 225.842 262.665 223.329C265.751 215.845 274.642 208.596 284.789 205.29C292.962 202.628 298.57 201.747 309.07 201.476C320.438 201.182 326.668 201.722 334.428 203.673C348.844 207.298 360.328 216.316 362.55 225.755C363.429 229.49 363.425 245.009 362.544 249.112C361.611 253.457 359.529 256.926 355.671 260.565C347.343 268.422 339.581 272.006 323.817 275.277C320.691 275.925 304.491 275.923 301.23 275.274ZM325.715 269.81C332.88 268.52 336.199 267.423 342.64 264.219C348.469 261.319 352.37 257.949 355.531 253.079C357.404 250.193 357.485 249.894 357.651 245.204C357.746 242.523 357.719 240.329 357.591 240.329C357.463 240.329 355.446 242.242 353.109 244.579C350.437 247.25 348.463 248.829 347.794 248.829C347.209 248.829 346.73 248.697 346.73 248.536C346.73 248.376 348.503 246.508 350.671 244.387C354.931 240.218 356.745 237.224 357.75 232.703C358.276 230.337 358.271 229.451 357.72 227.703C355.582 220.927 351.113 216.241 343.087 212.36C336.904 209.37 333.232 208.155 326.392 206.835C313.49 204.345 297.901 205.276 287.559 209.153C278.359 212.603 271.114 217.766 268.37 222.829C263.787 231.286 267.178 240.183 277.605 247.06C279.903 248.576 280.415 249.601 278.605 249.061C275.32 248.081 269.548 243.618 267.852 240.746C267.391 239.967 266.838 239.329 266.622 239.329C266.406 239.329 266.23 241.359 266.23 243.84C266.23 247.733 266.425 248.777 267.652 251.465C270.897 258.573 277.839 263.824 288.966 267.586C296.152 270.015 301.067 270.719 311.268 270.778C318.1 270.818 321.315 270.602 325.715 269.81ZM72.23 242.819C65.09 241.572 59.193 238.326 53.209 232.346C47.952 227.093 46.814 225.158 42.472 214.079C41.178 210.779 39.825 207.404 39.464 206.579C39.103 205.754 38.323 203.845 37.73 202.338C37.138 200.83 36.14 198.467 35.513 197.088C34.886 195.708 33.634 192.554 32.731 190.079C31.827 187.604 30.079 183.216 28.845 180.329C27.612 177.442 26.089 173.729 25.462 172.079C24.215 168.796 23.131 166.049 20.824 160.329C19.993 158.267 17.256 151.292 14.742 144.829C12.229 138.366 9.74798 132.067 9.22898 130.829C8.70998 129.591 7.59098 126.554 6.74198 124.079C5.89398 121.604 4.43598 118.004 3.50398 116.079C0.735978 110.363 0.0249792 107.269 0.000979205 100.829C-0.0160208 96.0492 0.180981 94.4892 1.17098 91.5792C5.15698 79.8582 13.507 72.3002 26.062 69.0502C30.289 67.9552 36.715 66.1832 43.23 64.3142C44.193 64.0382 47.905 63.0052 51.48 62.0202C63.506 58.7042 64.465 58.4322 69.73 56.8392C72.618 55.9662 76.217 54.9212 77.73 54.5192C81.388 53.5452 87.176 51.8802 88.73 51.3542C89.418 51.1222 91.274 50.5712 92.855 50.1302C98.576 48.5362 101.539 47.7002 104.73 46.7802C117.546 43.0842 121.059 42.0612 125.48 40.7362C128.23 39.9122 131.943 38.8302 133.73 38.3302C135.517 37.8312 137.992 37.0802 139.23 36.6612C140.468 36.2422 144.742 34.9742 148.73 33.8442C152.718 32.7132 156.542 31.5962 157.23 31.3612C157.918 31.1252 160.168 30.4402 162.23 29.8372C164.292 29.2352 167.218 28.3252 168.73 27.8162C170.242 27.3072 173.505 26.2962 175.98 25.5712C183.076 23.4912 189.435 21.5752 196.73 19.3202C200.443 18.1722 206.405 16.3712 209.98 15.3172C213.555 14.2632 218.055 12.9162 219.98 12.3242C221.905 11.7312 224.155 11.0592 224.98 10.8292C225.805 10.5992 228.055 9.92724 229.98 9.33424C235.708 7.57224 243.374 5.27524 244.98 4.84124C245.805 4.61824 248.955 3.62824 251.98 2.64224C259.557 0.171242 264.259 -0.466757 269.147 0.314243C278.531 1.81424 283.972 4.93624 291.23 12.9872C294.344 16.4412 295.613 18.8562 321.629 70.8352C347.226 121.979 348.808 125.293 349.306 128.829C350.283 135.756 349.241 142.057 346.139 147.977C344.004 152.052 337.948 158.105 333.869 160.243C332.158 161.139 320.345 165.334 307.619 169.564C294.892 173.793 281.105 178.419 276.98 179.843C272.855 181.267 268.13 182.838 266.48 183.333C264.83 183.829 262.468 184.586 261.23 185.015C259.992 185.444 255.38 186.939 250.98 188.337C246.58 189.735 242.53 191.079 241.98 191.324C239.413 192.466 227.304 196.536 216.73 199.809C213.018 200.958 208.405 202.459 206.48 203.144C201.32 204.98 173.126 214.361 138.23 225.853C121.318 231.422 103.141 237.41 97.838 239.159C85.576 243.202 79.445 244.078 72.23 242.819ZM84.098 237.23C88.065 236.232 135.683 220.626 198.23 199.825C219.542 192.737 241.367 185.554 246.73 183.862C252.093 182.17 257.492 180.434 258.73 180.004C264.87 177.869 287.137 170.206 288.23 169.852C288.918 169.629 290.38 169.103 291.48 168.684C293.45 167.933 313.725 161.382 323.48 158.346C330.59 156.132 332.522 155.056 336.509 151.09C341.862 145.765 344.685 138.836 344.076 132.517C343.518 126.726 342.714 124.446 337.926 115.079C318.86 77.7782 294.946 30.1132 292.266 24.0712C289.747 18.3912 288.845 17.0262 285.422 13.7182C280.619 9.07524 274.159 6.12824 267.48 5.53424C263.643 5.19324 260.197 5.88324 250.98 8.83624C248.23 9.71724 245.08 10.6302 243.98 10.8632C242.88 11.0972 239.168 12.2182 235.73 13.3552C232.292 14.4922 228.13 15.8312 226.48 16.3302C224.83 16.8302 221.23 17.9562 218.48 18.8342C215.73 19.7122 212.805 20.6142 211.98 20.8392C211.155 21.0632 208.23 21.9232 205.48 22.7492C202.73 23.5752 198.455 24.8442 195.98 25.5682C188.276 27.8222 181.65 29.8642 177.23 31.3452C174.892 32.1282 170.28 33.5922 166.98 34.5992C163.68 35.6062 159.517 36.8752 157.73 37.4202C155.943 37.9652 153.749 38.6182 152.855 38.8702C149.741 39.7492 147.47 40.3882 145.98 40.8042C145.155 41.0342 141.78 42.0332 138.48 43.0242C129.44 45.7392 108.137 51.7122 103.273 52.8972C100.912 53.4722 97.405 54.4662 95.48 55.1052C93.555 55.7442 88.83 57.2002 84.98 58.3412C67.844 63.4182 64.389 64.4362 62.98 64.8272C62.155 65.0552 58.668 66.0512 55.23 67.0392C51.792 68.0272 48.193 69.0622 47.23 69.3392C44.05 70.2522 32.042 73.3212 28.48 74.1312C20.379 75.9732 15.039 79.1192 11.016 84.4202C7.94298 88.4692 6.47098 92.1732 5.65798 97.9012C4.96798 102.765 5.42798 105.83 7.59798 110.829C8.78898 113.572 9.60098 115.628 13.229 125.079C18.129 137.848 19.23 140.773 19.23 141.027C19.23 141.177 19.77 142.487 20.431 143.939C21.092 145.391 22.471 148.829 23.496 151.579C24.522 154.329 25.976 157.929 26.728 159.579C27.479 161.229 28.837 164.716 29.744 167.329C30.651 169.942 32.379 174.406 33.583 177.25C34.788 180.095 36.907 185.27 38.293 188.75C39.679 192.231 41.109 195.754 41.47 196.579C42.975 200.013 45.776 206.887 47.481 211.329C48.483 213.942 49.512 216.47 49.767 216.947C50.022 217.425 50.23 218.13 50.23 218.515C50.23 219.7 51.561 221.866 54.442 225.368C59.08 231.006 65.556 235.211 71.424 236.394C72.83 236.677 74.655 237.093 75.48 237.318C77.75 237.937 81.438 237.899 84.098 237.23ZM159.23 296.623C159.23 295.746 161.837 293.507 163.352 293.082C163.973 292.908 164.93 292.569 165.48 292.328C166.03 292.087 170.08 290.509 174.48 288.821C178.88 287.132 182.93 285.564 183.48 285.335C187.832 283.528 193.871 281.329 194.483 281.329C195.801 281.329 195.281 282.813 193.605 283.834C191.132 285.34 160.976 297.329 159.659 297.329C159.423 297.329 159.23 297.012 159.23 296.623ZM211.408 276.073C211.249 275.657 211.381 275 211.702 274.613C212.023 274.226 217.155 271.961 223.107 269.58C233.728 265.331 237.601 263.511 239.367 261.941C240.045 261.338 240.391 261.29 240.84 261.739C241.717 262.616 239.903 264.8 236.939 266.437C235.587 267.184 230.43 269.391 225.48 271.342C220.53 273.293 215.518 275.325 214.342 275.859C211.772 277.025 211.774 277.024 211.408 276.073ZM332.23 263.418C332.23 263.192 333.974 262.014 336.105 260.801C340.217 258.459 346.845 253.671 348.432 251.895C349.707 250.469 350.23 250.552 350.23 252.179C350.23 253.828 345.701 258.43 342.109 260.433C337.635 262.927 332.23 264.56 332.23 263.418ZM304.98 257.844C295.493 256.7 283.534 252.859 284.974 251.418C285.078 251.314 288.16 251.803 291.822 252.505C299.258 253.931 307.567 254.832 313.262 254.83C317.3 254.829 326.678 253.686 329.98 252.793C331.08 252.496 333.668 252.082 335.73 251.873C337.792 251.665 339.874 251.32 340.355 251.108C342.289 250.255 341.076 251.754 338.853 252.964C333.205 256.038 325.367 257.762 315.73 258.049C311.742 258.168 306.905 258.076 304.98 257.844ZM287.23 246.395C287.23 245.566 295.021 238.542 301.73 233.323C313.13 224.454 323.867 216.542 326.23 215.269C329.26 213.636 334.222 211.655 334.525 211.957C334.967 212.399 329.905 216.597 319.866 224.116C304.822 235.383 298.059 240.293 292.128 244.256C288.356 246.775 287.23 247.267 287.23 246.395ZM94.98 205.015C87.945 203.622 84.093 202.159 79.939 199.301C72.548 194.215 70.018 188.805 70.365 178.821C70.675 169.882 71.723 167.274 77.202 161.812C83.754 155.28 90.553 152.67 100.98 152.684C107.395 152.692 110.75 153.349 115.511 155.529C121.656 158.342 126.07 162.373 128.431 167.329C129.95 170.515 129.98 170.726 129.98 178.079C129.98 185.247 129.915 185.732 128.518 189.038C125.183 196.931 115.697 203.253 104.833 204.824C101.505 205.306 96.898 205.395 94.98 205.015ZM108.552 199.798C116.377 197.444 121.551 193.667 123.976 188.541C125.076 186.216 125.648 183.329 125.008 183.329C124.886 183.329 123.607 184.576 122.165 186.101C117.37 191.171 106.664 195.253 99.73 194.655C95.689 194.307 90.715 193.016 89.76 192.068C88.722 191.038 89.29 190.77 91.263 191.359C93.527 192.035 104.498 192.069 107.007 191.408C108.092 191.122 110.077 190.613 111.417 190.276C114.834 189.418 120.794 185.402 122.584 182.751C124.76 179.527 125.376 177.618 125.328 174.241C125.216 166.351 118.015 159.8 106.98 157.549C99.69 156.062 90.919 157.521 84.711 161.253C80.815 163.595 77.723 167.209 76.238 171.157C75.241 173.811 75.197 174.331 75.758 176.829C76.631 180.717 78.247 183.308 81.807 186.529C83.507 188.068 84.759 189.467 84.588 189.638C83.664 190.562 78.524 187.629 76.951 185.281C75.711 183.431 75.23 183.446 75.23 185.334C75.23 189.348 80.176 195.475 85.218 197.707C92.438 200.903 102.024 201.762 108.552 199.798ZM154.223 187.829C153.354 186.304 149.23 177.815 149.23 177.549C149.23 177.444 148.694 176.171 148.039 174.719C147.383 173.267 146.059 170.279 145.097 168.079C144.134 165.879 142.78 162.841 142.087 161.329C139.285 155.209 133.23 140.604 133.23 139.965C133.23 139.89 133.565 139.829 133.974 139.829C134.87 139.829 136.871 143.723 142.254 155.936C144.47 160.965 146.584 165.754 146.952 166.579C152.23 178.416 155.406 186.845 155.114 188.236C154.97 188.917 154.799 188.839 154.223 187.829ZM183.73 175.109C179.245 174.18 177.729 173.654 174.347 171.851C168.779 168.884 164.64 164.37 162.863 159.33C162.07 157.083 162.017 143.904 162.793 141.978C165.82 134.461 170.67 129.612 178.236 126.537C193.656 120.272 212.693 125.711 219.015 138.189C220.464 141.048 220.48 141.172 220.48 149.579C220.48 158.029 220.472 158.094 219.042 160.579C215.466 166.797 208.398 172.05 200.23 174.562C196.568 175.688 187.91 175.975 183.73 175.109ZM198.205 170.904C201.101 170.323 208.31 166.999 209.98 165.473C212.893 162.812 214.69 160.224 215.458 157.581C215.915 156.008 216.156 154.589 215.994 154.426C215.832 154.264 214.688 155.288 213.451 156.701C211.13 159.354 207.514 161.727 202.732 163.734C197.378 165.98 185.133 165.651 181.132 163.152C179.483 162.122 180.178 161.694 182.855 162.091C186.63 162.651 196.094 162.573 198.73 161.96C209.437 159.473 216.23 153.058 216.23 145.437C216.23 134.848 201.645 126.274 187.568 128.589C182.263 129.461 179.549 130.512 175.391 133.302C170.177 136.8 167.23 141.404 167.23 146.052C167.23 148.57 168.977 152.855 170.926 155.119C171.855 156.197 173.758 157.754 175.157 158.579C177.497 159.96 178.585 161.14 178.03 161.696C177.426 162.3 171.534 158.978 169.721 157.011C168.615 155.811 167.517 154.829 167.281 154.829C166.485 154.829 167.375 159.566 168.502 161.329C171.544 166.086 176.868 169.299 184.98 171.272C187.382 171.857 194.43 171.66 198.205 170.904ZM240.794 150.204C237.05 142.494 233.938 135.765 228.713 124.079C228.221 122.979 227.106 120.279 226.234 118.079C225.363 115.879 224.301 113.34 223.874 112.436C223.024 110.634 223.293 109.844 224.435 110.792C226.499 112.504 246.23 155.615 246.23 158.412C246.23 160.678 244.921 158.702 240.794 150.204ZM273.23 145.85C264.253 144.157 255.878 138.467 252.85 132.004C251.615 129.367 251.464 128.435 251.318 122.534C251.196 117.621 251.355 115.303 251.956 113.237C252.765 110.453 254.941 106.567 256.907 104.393C258.51 102.62 262.696 99.6132 265.501 98.2192C267.845 97.0542 269.277 96.6152 274.826 95.3602C279.45 94.3142 286.436 94.9902 292.48 97.0692C298.923 99.2852 304.915 104.271 307.512 109.579C308.881 112.377 308.991 113.038 309.142 119.404C309.332 127.418 308.856 129.356 305.469 134.363C302.189 139.212 297.497 142.525 290.583 144.874C287.115 146.052 277.244 146.607 273.23 145.85ZM290.41 140.592C294.649 139.047 296.787 137.756 299.902 134.857C302.659 132.293 304.23 129.567 304.23 127.349C304.23 126.513 304.16 125.829 304.075 125.829C303.99 125.829 302.778 126.931 301.381 128.277C294.562 134.85 281.508 137.805 272.338 134.852C268.998 133.776 267.802 133.091 268.335 132.558C268.447 132.445 271.113 132.692 274.26 133.105C278.684 133.687 280.83 133.741 283.73 133.341C293.234 132.031 295.809 131.01 300.078 126.858C304.589 122.472 305.817 117.703 303.892 112.043C302.891 109.099 298.627 104.632 295.23 102.968C285.998 98.4462 275.344 98.4392 266.31 102.949C262.027 105.087 258.342 109.136 256.863 113.329C254.909 118.866 257.879 125.18 264.605 129.785C267.943 132.07 265.723 132.654 262.203 130.417C260.98 129.64 259.256 128.177 258.37 127.167C257.485 126.156 256.641 125.329 256.495 125.329C256.349 125.329 256.23 126.42 256.23 127.754C256.23 131.436 259.177 135.079 264.97 138.557C269.771 141.44 274.365 142.385 281.98 142.058C285.656 141.9 287.888 141.512 290.41 140.592ZM66.48 138.21C61.862 137.322 57.002 135.75 54.072 134.196C50.296 132.194 46.131 127.995 44.375 124.42C43.019 121.659 42.98 121.346 42.98 113.329C42.98 105.179 42.998 105.044 44.46 102.155C48.026 95.1102 55.39 89.7982 64.73 87.5322C68.359 86.6512 77.479 86.6462 80.831 87.5222C89.888 89.8892 96.544 94.6892 100.058 101.388C101.429 104.003 101.47 104.299 101.475 111.829L101.48 119.579L99.777 123.079C96.008 130.823 87.929 136.146 76.98 138.097C72.517 138.893 70.161 138.919 66.48 138.21ZM75.585 134.289C85.992 132.848 96.23 125.401 96.23 119.272C96.23 117.012 95.971 116.888 94.682 118.527C94.164 119.186 92.938 120.198 91.958 120.776L90.177 121.826L92.483 118.995C95.252 115.596 95.894 114.39 96.758 110.954C97.308 108.771 97.306 107.888 96.749 105.713C95.372 100.341 92.234 96.7692 86.311 93.8302C75.999 88.7142 61.599 90.4952 53.511 97.8882C49.206 101.822 47.977 104.258 47.992 108.829C48 111.673 48.26 113.063 49.065 114.582C50.158 116.645 54.648 121.215 56.618 122.269C57.959 122.987 58.072 123.829 56.828 123.829C55.472 123.829 51.726 121.27 49.566 118.869C48.514 117.698 47.542 116.851 47.407 116.986C46.838 117.555 48.334 123.175 49.503 124.863C52.882 129.738 59.302 133.199 66.98 134.283C71.243 134.886 71.281 134.886 75.585 134.289ZM124.994 121.204C120.581 111.703 107.23 79.2102 107.23 77.9732C107.23 76.3092 108.262 77.7862 110.711 82.9542C113.312 88.4452 121.23 106.608 121.23 107.085C121.23 107.217 121.98 108.957 122.897 110.952C123.813 112.947 125.179 116.267 125.932 118.329C126.685 120.391 127.51 122.596 127.766 123.228C128.348 124.667 128.367 126.329 127.802 126.329C127.567 126.329 126.303 124.023 124.994 121.204ZM154.73 110.096C148.558 108.917 144.273 106.808 140.044 102.864C134.682 97.8632 133.527 94.4302 133.831 84.3942C134.036 77.6192 134.154 76.8802 135.433 74.3882C137.956 69.4712 143.841 64.2382 149.23 62.1192C155.552 59.6342 155.79 59.5912 163.23 59.6362C169.64 59.6742 170.896 59.8252 174.075 60.9442C181.592 63.5902 187.594 68.1632 190.166 73.2032C191.445 75.7112 192.453 83.5892 192.109 88.3952C191.074 102.87 172.712 113.53 154.73 110.096ZM170.395 105.585C174.641 104.472 178.313 102.523 181.479 99.7012C184.503 97.0062 185.953 94.6472 186.489 91.5562L186.831 89.5792L184.906 91.6092C180.826 95.9092 174.894 98.8362 167.748 100.076C163.519 100.81 162.982 100.799 158.556 99.8952C153.857 98.9352 150.106 97.2612 151.885 96.9182C152.356 96.8282 154.3 96.9962 156.206 97.2912C160.447 97.9492 164.761 97.9812 167.172 97.3722C168.166 97.1212 170.218 96.6412 171.73 96.3052C175.578 95.4502 178.63 93.8042 181.888 90.8262C192.168 81.4312 187.138 69.3332 170.98 64.5882C166.653 63.3172 159.002 63.4432 154.741 64.8552C149.846 66.4762 146.842 68.1672 143.887 70.9622C139.753 74.8712 139.007 76.3782 138.993 80.8542C138.982 83.9102 139.217 85.1072 140.202 87.0242C141.356 89.2692 146.739 94.8292 147.758 94.8292C148.018 94.8292 148.23 95.0542 148.23 95.3292C148.23 97.0972 142.635 94.3942 140.127 91.4132C138.394 89.3532 138.041 89.4152 138.47 91.7042C139.753 98.5612 146.849 104.518 155.367 105.89C157.065 106.163 158.573 106.513 158.717 106.666C159.167 107.143 167.332 106.388 170.395 105.585ZM214.999 93.4542C210.549 84.3522 201.357 63.6792 199.269 58.0792C198.653 56.4292 197.943 54.6882 197.69 54.2112C197.104 53.1042 197.096 52.1872 197.677 52.5462C198.487 53.0472 209.2 75.1232 213.586 85.3292C218.241 96.1632 218.98 98.3292 218.021 98.3292C217.669 98.3292 216.309 96.1352 214.999 93.4542ZM242.48 82.1052C237.838 81.2092 235.161 80.1202 231.148 77.4922C227.11 74.8472 225.005 72.5312 223.299 68.8562C222.087 66.2432 222.01 65.6082 221.995 58.0792L221.98 50.0792L223.637 46.7462C226.417 41.1542 232.682 36.2012 240.14 33.6992C243.019 32.7342 244.48 32.5842 250.73 32.6192C257.18 32.6542 258.379 32.8002 261.596 33.9412C263.585 34.6472 266.285 35.8512 267.596 36.6172C270.917 38.5582 275.343 43.1192 277.047 46.3562C278.451 49.0242 278.48 49.2402 278.48 57.0792C278.48 64.8002 278.433 65.1662 277.14 67.5792C273.96 73.5122 267.574 78.6982 260.461 81.1222C255.66 82.7582 248.025 83.1752 242.48 82.1052ZM255.331 78.3912C255.963 78.1502 257.576 77.6932 258.916 77.3762C264.572 76.0392 271.63 71.0572 272.652 67.6832C273.424 65.1332 273.739 62.8292 273.316 62.8292C273.101 62.8292 272.151 63.6392 271.203 64.6292C265.633 70.4462 253.431 74.2302 246.288 72.3542C245.294 72.0932 243.417 71.5962 242.118 71.2492C240.819 70.9022 239.639 70.3142 239.496 69.9412C239.321 69.4852 239.521 69.3442 240.108 69.5112C242.469 70.1792 251.545 70.3762 255.798 69.8502C261.879 69.0982 265.971 67.1842 269.775 63.3122C274.128 58.8822 275.198 54.4532 273.203 49.1222C270.39 41.6032 261.749 36.8292 250.955 36.8292C242.85 36.8292 236.38 39.1432 231.566 43.7622C227.449 47.7132 226.015 51.6792 226.997 56.4022C227.93 60.8862 230.235 63.8082 235.355 66.9962C236.723 67.8482 237.189 68.8292 236.225 68.8292C234.893 68.8292 231.106 66.5382 229.155 64.5512C227.959 63.3332 226.797 62.3352 226.574 62.3332C225.891 62.3262 226.79 66.9832 227.792 68.6432C230.314 72.8202 236.39 76.6332 242.734 78.0192C246.442 78.8302 253.626 79.0412 255.331 78.3912ZM90.23 186.601C90.23 185.821 92.675 181.602 96.169 176.352C99.783 170.921 107.804 161.759 108.419 162.359C109.062 162.986 106.665 167.77 103.814 171.551C100.456 176.003 91.401 186.483 90.685 186.746C90.435 186.837 90.23 186.772 90.23 186.601ZM181.23 157.574C181.23 156.624 189.468 144.366 193.433 139.416C195.781 136.484 200.537 132.469 201.052 132.984C201.175 133.107 200.591 134.369 199.754 135.788C195.033 143.794 181.23 160.028 181.23 157.574ZM270.73 127.915C270.73 125.905 281.712 109.829 283.085 109.829C283.48 109.829 285.119 108.424 286.728 106.707C288.337 104.99 289.793 103.725 289.964 103.897C290.458 104.39 283.72 114.098 279.08 119.579C274.207 125.335 270.73 128.806 270.73 127.915ZM65.23 127.309C64.267 127.042 62.636 126.59 61.605 126.306C60.531 126.01 59.73 125.477 59.73 125.059C59.73 124.166 59.321 124.161 66.25 125.131C72.399 125.993 77.579 125.649 82.086 124.08C83.245 123.677 85.157 123.213 86.336 123.048L88.48 122.75L87.23 123.776C86.542 124.34 84.517 125.407 82.73 126.147C79.902 127.317 78.669 127.512 73.23 127.644C69.792 127.727 66.193 127.577 65.23 127.309ZM62.313 119.44C63.172 117.434 68.208 109.828 72.162 104.567C76.418 98.9042 81.45 93.8832 82.159 94.5922C83.143 95.5762 72.883 109.725 66.306 116.454C63.392 119.435 61.808 120.619 62.313 119.44ZM153.753 91.6792C153.66 90.0682 162.921 76.3742 166.924 72.2042C170.247 68.7432 171.231 68.1712 171.228 69.7042C171.226 70.8622 169.9 72.9832 165.724 78.5052C162.216 83.1452 153.795 92.4112 153.753 91.6792ZM241.23 63.2322C241.23 62.4402 249.437 50.2682 251.98 47.2892C254.584 44.2382 259.186 40.1192 259.566 40.4992C259.97 40.9032 256.295 47.0122 253.065 51.3062C250.79 54.3302 241.955 63.8292 241.417 63.8292C241.314 63.8292 241.23 63.5602 241.23 63.2322Z" fill="white"/>
</svg>
