<svg width="250" height="141" viewBox="0 0 250 141" fill="none" xmlns="http://www.w3.org/2000/svg">
<path fill-rule="evenodd" clip-rule="evenodd" d="M104.763 140.362C89.5679 138.919 73.7219 136.264 63.5129 133.45C49.7879 129.667 43.5589 127.352 33.0129 122.118C16.6959 114.018 5.27888 103.265 1.19088 92.1436C-0.158123 88.4766 -0.420125 79.2006 0.709875 75.1486C2.45987 68.8766 7.96188 60.9896 14.5129 55.3656C17.2989 52.9736 24.7959 48.0116 29.7629 45.2736C33.0629 43.4536 44.0489 38.8246 49.5129 36.9516C60.2419 33.2736 73.2629 30.7466 73.2629 32.3416C73.2629 33.2056 69.6769 34.5646 59.2629 37.6456C54.9999 38.9066 50.1629 40.4216 48.5129 41.0116C43.8649 42.6736 30.8709 48.6926 27.5219 50.7336C18.3789 56.3076 8.16288 65.7766 5.56588 71.0856C1.58888 79.2146 1.76188 86.3255 6.15788 95.3085C7.72988 98.5215 11.9469 103.217 17.1579 107.556C32.7789 120.564 59.1399 130.373 90.7629 134.944C107.637 137.384 142.149 137.516 156.513 135.197C157.338 135.063 159.813 134.696 162.013 134.38C173.181 132.778 188.879 128.917 197.652 125.615C201.62 124.121 203.543 124.053 204.254 125.382C204.999 126.775 203.912 127.358 195.013 130.341C179.69 135.478 166.031 138.206 146.013 140.127C137.398 140.955 112.492 141.097 104.763 140.362ZM130.616 124.391C129.911 123.836 128.85 122.599 128.258 121.641C127.238 119.99 127.037 119.899 124.402 119.899C122.676 119.899 121.413 120.155 121.068 120.574C120.763 120.946 119.207 121.764 117.611 122.393C114.925 123.452 114.254 123.511 108.642 123.183C102.35 122.815 100.217 122.181 99.2629 120.398C98.0719 118.173 101.523 114.476 106.007 113.172C109.187 112.248 109.372 111.688 107.5 108.649C105.038 104.652 106.396 102.428 111.559 101.999C114.825 101.729 115.169 100.722 112.388 99.5736C109.019 98.1826 102.619 94.8476 100.434 93.3436C98.8669 92.2656 98.1559 91.3566 97.7749 89.9436C97.0969 87.4256 96.5729 87.0506 92.9129 86.4616C89.3079 85.8806 87.0669 84.8266 86.0109 83.2156C84.9129 81.5396 83.1429 80.8986 79.6139 80.8986C77.7949 80.8986 75.4799 80.5086 74.0129 79.9556C70.1199 78.4896 67.5569 78.1926 66.7869 79.1196C65.9649 80.1106 62.7699 80.1376 61.4839 79.1646C60.1989 78.1926 59.7229 78.2135 60.1109 79.2225C60.3759 79.9155 60.1949 79.9896 58.9699 79.6886C58.1689 79.4906 56.3309 79.1646 54.8859 78.9626C51.4439 78.4816 50.5989 77.6656 52.1929 76.3636C53.6099 75.2056 56.2329 75.1186 60.1909 76.0956C61.7429 76.4796 63.8769 76.9185 64.9329 77.0715C66.8309 77.3465 66.8439 77.3376 66.0729 76.2496C61.7669 70.1736 59.1959 63.9576 59.0669 59.3096C58.9929 56.6576 58.5989 55.9976 57.5879 56.8356C56.7999 57.4906 55.5719 57.1575 53.8209 55.8135C53.1649 55.3105 52.0009 54.8986 51.2339 54.8986C50.0849 54.8986 49.7389 55.2056 49.2629 56.6486C48.9449 57.6106 48.5339 58.3956 48.3489 58.3906C46.9159 58.3586 46.0259 56.0686 46.4879 53.6056C46.8019 51.9336 46.8599 51.8986 49.3059 51.8986C50.8399 51.8986 52.5809 52.2956 53.8199 52.9276C54.9459 53.5026 56.5249 53.8886 57.3959 53.8026C58.6829 53.6756 59.0279 53.3656 59.3709 52.0326C59.8999 49.9776 62.4829 45.2076 64.3869 42.7686C67.8889 38.2846 81.9459 27.8296 88.3539 24.9436C98.0219 20.5906 107.005 18.7236 118.263 18.7266C130.215 18.7316 138.17 20.2536 151.763 25.1376C154.398 26.0846 168.406 33.1236 170.34 34.4726C173.615 36.7566 173.566 34.8256 170.263 31.3986C168.888 29.9716 167.763 28.5256 167.763 28.1846C167.763 26.9896 168.431 26.9206 170.09 27.9456L171.763 28.9806L171.761 27.0646C171.759 25.3456 171.219 24.1476 169.158 21.2906C168.641 20.5736 168.723 20.2606 169.651 19.3956C170.641 18.4736 170.763 17.8666 170.763 13.8796C170.763 9.85456 170.857 9.39857 171.687 9.39857C172.518 9.39857 172.673 10.1646 173.231 17.0236C174.094 27.6416 174.064 27.3656 174.432 27.7336C174.614 27.9166 175.532 27.1836 176.471 26.1066C178.916 23.3036 179.325 24.8136 177.24 28.9436C176.366 30.6756 175.489 33.2816 175.292 34.7346C174.899 37.6296 175.092 37.9326 179.263 40.9866C180.226 41.6906 182.551 43.8076 184.43 45.6896L187.847 49.1126L188.823 47.8806C192.811 42.8476 193.021 42.3576 192.872 38.4696C192.714 34.3676 193.009 32.8986 193.993 32.8986C194.762 32.8986 195.263 33.9836 195.263 35.6486C195.263 37.0746 195.737 38.3986 196.248 38.3986C196.456 38.3986 197.834 36.7676 199.311 34.7736C204.306 28.0316 206.623 25.9576 207.527 27.4206C207.92 28.0576 207.326 28.9806 203.08 34.3196C201.256 36.6136 199.763 38.8056 199.763 39.1906C199.763 39.7096 200.377 39.8596 202.138 39.7696C205.35 39.6056 205.429 40.8826 202.263 41.8016C198.33 42.9416 196.043 44.2166 193.096 46.9096C189.03 50.6256 189.019 50.6726 191.303 54.1476C192.379 55.7826 193.502 57.8586 193.8 58.7596C194.446 60.7166 194.957 60.7725 197.825 59.1965C199.028 58.5345 201.363 57.7116 203.013 57.3676C204.663 57.0236 206.463 56.3286 207.013 55.8236C209.069 53.9336 211.175 52.3986 211.71 52.3986C212.014 52.3986 212.263 52.9606 212.263 53.6486C212.263 55.1446 212.005 55.1296 217.419 53.9466C221.83 52.9826 223.763 53.0316 223.763 54.1076C223.763 55.0506 219.429 56.8986 217.217 56.8986C216.106 56.8986 214.718 57.1546 214.133 57.4686C213.076 58.0336 213.078 58.0455 214.48 59.1625C216.315 60.6265 215.782 61.5375 213.349 61.0975C212.339 60.9145 210.933 60.4716 210.224 60.1136C208.467 59.2256 204.318 59.8506 200.623 61.5616C199.034 62.2966 197.416 62.8986 197.028 62.8986C196.044 62.8986 195.932 63.2066 195.535 67.0236C195.286 69.4106 195.349 70.3986 195.75 70.3986C196.061 70.3986 198.385 69.2086 200.915 67.7536C206.276 64.6696 209.95 62.8986 210.988 62.8986C212.203 62.8986 213.724 64.9375 214.613 67.7565C215.073 69.2175 215.866 70.7896 216.374 71.2496C217.242 72.0346 217.364 72.0196 218.374 71.0096C219.415 69.9686 219.421 69.9016 218.546 68.9346C216.989 67.2146 217.847 66.4156 221.205 66.4626C222.845 66.4866 224.411 66.3665 224.685 66.1965C224.96 66.0265 225.34 64.4345 225.531 62.6575C225.909 59.1265 226.215 58.6846 228.647 58.1646C229.747 57.9296 230.527 57.3386 231.035 56.3566C231.673 55.1226 232.089 54.8986 233.747 54.8986C236.061 54.8986 237.263 53.5836 237.263 51.0546C237.263 48.8656 236.208 48.3986 231.262 48.3986C227.263 48.3986 227.169 48.3696 225.545 46.6486C223.755 44.7496 222.092 44.4166 220.484 45.6326C219.066 46.7056 217.763 46.5896 217.763 45.3916C217.763 44.0116 220.556 42.4026 222.954 42.4006C224.524 42.3986 225.209 42.7316 226.538 44.1406L228.181 45.8826L230.285 45.1406C234.088 43.7986 237.921 44.4046 240.35 46.7326C241.498 47.8316 241.763 48.5156 241.763 50.3756C241.763 53.2686 239.861 56.3036 237.788 56.7186C237.011 56.8736 235.897 57.6476 235.313 58.4376C234.57 59.4426 233.389 60.1196 231.382 60.6916C229.804 61.1416 228.349 61.6596 228.148 61.8436C227.947 62.0276 228.021 63.0416 228.313 64.0966C229.15 67.1286 228.597 68.2596 225.626 69.6016C224.189 70.2506 222.263 71.5956 221.347 72.5906C220.43 73.5856 219.08 74.5316 218.347 74.6916C217.613 74.8516 216.732 75.0686 216.388 75.1746C215.942 75.3126 215.761 76.8356 215.757 80.5076C215.75 86.3206 215.098 89.2936 212.859 93.7166C209.077 101.189 204.488 106.13 198.376 109.31C187.829 114.797 175.59 115.354 166.513 110.761L163.513 109.242L155.513 109.356C148.156 109.46 147.423 109.553 146.388 110.521C144.806 112.001 144.977 112.399 147.196 112.399C148.423 112.399 149.654 112.803 150.571 113.507C152.583 115.052 152.747 115.372 152.755 117.766C152.761 119.405 152.434 120.252 151.304 121.516C149.968 123.011 149.596 123.149 146.89 123.149C144.399 123.149 143.636 122.921 142.032 121.698C140.986 120.899 140.021 119.831 139.888 119.323C139.522 117.925 138.925 118.214 138.576 119.957C138.167 122.002 134.773 125.399 133.139 125.399C132.456 125.399 131.321 124.945 130.616 124.391ZM135.446 120.363C136.795 119.302 137.18 117.716 136.231 117.13C135.939 116.949 135.268 117.192 134.741 117.669C133.499 118.793 132.493 118.034 132.043 115.631C131.816 114.421 131.448 113.899 130.822 113.899C130.33 113.899 126.765 114.553 122.901 115.353C113.628 117.273 109.055 117.775 109.365 116.839C110.014 114.878 118.703 112.585 126.138 112.413C127.151 112.39 126.853 111.019 125.652 110.177C125.041 109.749 123.718 109.399 122.713 109.399C120.719 109.399 119.577 108.457 119.863 107.048C120.141 105.685 123.178 105.966 125.545 107.574C128.183 109.366 129.094 109.27 129.999 107.105C130.899 104.95 131.705 105.077 132.892 107.56C133.756 109.369 133.819 109.399 136.694 109.399C141.803 109.399 145.763 108.822 145.763 108.078C145.763 107.686 145.232 107.399 144.508 107.399C143.55 107.399 142.908 106.838 141.791 105.024C139.71 101.644 136.168 99.7606 135.444 101.649C134.982 102.852 134.158 102.534 132.207 100.399C131.189 99.2846 129.915 98.3986 129.332 98.3986C128.024 98.3986 126.671 100.399 126.566 102.488C126.462 104.566 125.778 104.718 123.499 103.172C120.795 101.337 118.845 101.483 117.117 103.649C115.828 105.265 115.511 105.399 112.992 105.399C110.993 105.399 110.263 105.585 110.263 106.096C110.263 106.892 111.325 107.399 112.993 107.399C114.201 107.399 115.486 108.51 114.925 109.07C114.744 109.251 114.106 109.399 113.506 109.399C112.719 109.399 112.166 109.95 111.523 111.377C110.708 113.185 109.633 114.135 105.638 116.58C104.882 117.043 104.263 117.785 104.263 118.228C104.263 118.9 104.651 118.982 106.586 118.716C108.136 118.504 109.16 118.606 109.663 119.024C110.158 119.434 112.174 119.649 115.537 119.649C119.646 119.649 120.843 119.482 121.593 118.803C122.107 118.338 123.537 117.703 124.77 117.393C126.004 117.084 127.484 116.714 128.059 116.571C128.887 116.366 129.244 116.661 129.767 117.981C131.17 121.522 132.997 122.289 135.446 120.363ZM148.652 119.121C149.361 118.624 149.763 117.823 149.763 116.907V115.471L147.071 115.749C144.458 116.019 144.314 115.967 142.143 113.965L139.906 111.904L137.085 112.47C134.14 113.062 133.913 113.311 134.803 114.973C135.31 115.922 135.398 115.932 136.27 115.143C136.78 114.681 137.943 114.269 138.855 114.226C140.337 114.157 140.531 114.304 140.679 115.61C141.041 118.779 146.013 120.969 148.652 119.121ZM189.085 109.347C195.093 107.502 198.749 105.423 202.818 101.536C206.016 98.4796 207.002 97.1235 208.942 93.1105C212.793 85.1455 213.551 80.2126 212.035 73.0026C211.214 69.1026 210.403 67.0596 209.544 66.7296C209.223 66.6066 205.597 68.4946 201.487 70.9246C192.504 76.2356 190.263 77.7276 190.263 78.3936C190.263 78.6716 191.444 78.8936 192.888 78.8866C195.81 78.8736 201.26 81.1196 201.262 82.3386C201.263 83.2156 196.934 82.7866 191.547 81.3756C188.008 80.4486 186.263 80.4746 186.263 81.4516C186.263 81.6976 186.524 81.8986 186.843 81.8986C187.901 81.8986 192.758 85.9126 194.037 87.8446C194.729 88.8906 195.851 90.0445 196.529 90.4075C197.208 90.7705 197.763 91.3666 197.763 91.7326C197.763 92.8316 197.034 92.4966 195.398 90.6486C194.546 89.6866 193.495 88.8986 193.062 88.8986C192.63 88.8986 190.834 87.6756 189.072 86.1796C187.309 84.6846 185.782 83.5456 185.679 83.6486C185.576 83.7526 185.655 85.9316 185.854 88.4926C186.054 91.0536 186.106 93.7286 185.969 94.4366C185.833 95.1456 185.942 96.3036 186.21 97.0096C186.798 98.5546 185.842 100.228 184.636 99.7646C184.035 99.5346 183.794 98.2695 183.546 94.0585C183.017 85.0375 182.724 82.8986 182.016 82.8986C181.345 82.8986 180.183 84.8825 175.537 93.9595C173.042 98.8335 171.85 100.319 171.062 99.5306C170.897 99.3666 170.763 98.9276 170.763 98.5556C170.763 97.5696 175.625 87.9346 177.103 85.9906C177.797 85.0786 178.238 84.2076 178.085 84.0536C177.717 83.6866 172.99 85.6186 165.138 89.3456C158.644 92.4286 157.563 93.4666 159.916 94.3616C160.55 94.6026 161.813 95.4256 162.721 96.1896C164.917 98.0376 169.356 100.688 170.907 101.078C173.266 101.67 173.158 104.399 170.777 104.399C170.018 104.399 168.861 103.981 168.205 103.47C167.55 102.959 166.128 102.228 165.047 101.845C163.966 101.462 161.877 100.051 160.405 98.7076C158.933 97.3646 157.597 96.3976 157.437 96.5576C157.277 96.7176 157.676 98.1246 158.322 99.6856C160.101 103.978 163.599 106.556 171.238 109.205C175.812 110.791 184.165 110.857 189.085 109.347ZM158.263 105.616C158.263 105.46 157.745 104.616 157.113 103.741C155.267 101.187 154.541 98.4586 154.626 94.3986C154.703 90.7396 154.749 90.6096 156.548 89.0396C157.856 87.8986 160.153 86.8606 164.452 85.4686C171.852 83.0716 178.012 80.6396 179.73 79.4386C180.436 78.9446 183.208 77.3636 185.891 75.9246C188.574 74.4866 191.105 72.8296 191.516 72.2426C192.542 70.7776 192.496 65.0196 191.435 62.2836C187.448 51.9986 173.92 39.9196 156.881 31.4306C152.129 29.0626 140.944 25.1746 136.101 24.2066C119.333 20.8546 101.621 22.6696 87.3299 29.2036C77.5779 33.6616 64.3209 46.0726 63.4269 51.5806C63.1849 53.0736 63.3139 53.2986 64.7609 53.8976C65.6429 54.2626 67.0889 55.0536 67.9749 55.6556C68.8609 56.2566 70.6269 56.8656 71.8979 57.0096C73.1689 57.1526 75.0959 57.7316 76.1789 58.2966C77.2629 58.8616 79.6729 59.7936 81.5349 60.3696C83.3979 60.9446 85.6639 61.8736 86.5709 62.4346C88.7139 63.7596 90.7629 66.2136 90.7629 67.4576C90.7629 67.9976 91.2099 69.0486 91.7559 69.7936C92.8219 71.2486 94.0709 78.3826 93.5109 79.8246C93.2249 80.5626 93.1169 80.5466 92.4769 79.6776C92.0839 79.1446 91.7629 78.2236 91.7629 77.6326C91.7629 75.3056 89.7079 68.6536 88.6339 67.5056C87.0939 65.8586 81.8889 62.8325 79.7629 62.3475C76.6569 61.6395 71.2609 59.5515 70.3069 58.6885C69.6809 58.1225 68.9609 57.9556 68.0869 58.1746C67.2019 58.3966 66.2579 58.1676 65.0939 57.4486C64.1599 56.8716 63.2209 56.3986 63.0089 56.3986C62.2999 56.3986 63.1629 61.7376 64.5459 65.9056C65.7099 69.4166 66.3369 70.4596 68.7859 72.9616C71.1049 75.3326 71.9669 75.8986 73.2569 75.8986C74.1359 75.8986 75.4269 76.3486 76.1269 76.8986C77.0629 77.6346 78.1549 77.8986 80.2689 77.8986C83.5289 77.8986 85.9049 78.7416 88.2789 80.7386C89.6109 81.8596 90.6109 82.1825 93.6509 82.4725C96.7809 82.7715 97.6199 83.0536 98.8329 84.2156C99.6279 84.9776 100.516 86.4806 100.805 87.5556C101.095 88.6306 101.935 90.0705 102.672 90.7565C105.302 93.2035 113.589 96.8316 119.695 98.2106L122.878 98.9296L125.345 97.3456C128.1 95.5786 130.955 95.2586 132.872 96.5036C133.499 96.9106 135.56 97.4006 137.452 97.5916C140.866 97.9366 140.888 97.9316 140.558 96.7936C140.376 96.1636 140.096 94.5166 139.936 93.1336C139.711 91.1796 139.825 90.4696 140.448 89.9526C141.431 89.1366 141.553 89.4226 141.979 93.5566C142.271 96.3786 144.359 103.195 145.186 104.022C146.216 105.052 158.263 106.52 158.263 105.616ZM210.863 122.299C209.714 121.15 210.286 120.455 213.888 118.626C226.863 112.035 236.34 104.506 241.551 96.6486C243.417 93.8356 245.537 87.9066 246.022 84.1486C246.432 80.9626 245.258 75.2546 243.355 71.1886C242.569 69.5086 240.539 66.4786 238.844 64.4556C235.639 60.6276 235.235 59.7086 236.539 59.2076C237.732 58.7496 239.533 60.2016 242.281 63.8356C251.639 76.2136 251.663 89.6346 242.349 101.939C239.437 105.785 233.156 111.755 229.181 114.455C227.61 115.521 225.265 117.622 223.97 119.121C221.188 122.344 219.995 123.037 220.467 121.155C220.64 120.464 220.689 119.899 220.575 119.899C220.461 119.899 218.781 120.574 216.843 121.399C213.003 123.033 211.781 123.217 210.863 122.299ZM216.263 112.376C216.263 112.088 216.956 111.469 217.803 111.001C219.515 110.054 224.962 106.094 229.437 102.543C231.046 101.267 232.905 99.3626 233.569 98.3106C234.73 96.4706 235.891 95.8926 236.488 96.8576C237.209 98.0246 225.038 109.877 223.087 109.908C222.771 109.913 221.523 110.588 220.313 111.408C218.099 112.908 216.263 113.347 216.263 112.376ZM30.2999 111.194C29.3789 110.084 30.6009 109.678 32.0349 110.617C32.7099 111.06 33.2629 111.529 33.2629 111.661C33.2629 112.22 30.8339 111.838 30.2999 111.194ZM62.2629 107.045C52.1729 103.347 49.1189 101.84 43.9539 98.0096C36.9609 92.8256 33.5639 87.4306 36.0129 85.3986C36.4249 85.0566 36.7629 84.4446 36.7629 84.0396C36.7629 82.6436 38.7699 80.4896 41.5129 78.9416C43.0259 78.0886 44.2629 77.2826 44.2629 77.1506C44.2629 77.0186 43.3629 76.3426 42.2629 75.6486C39.4349 73.8636 39.5589 72.6386 42.5429 72.8666C45.4729 73.0906 54.2629 69.8826 54.2629 68.5896C54.2629 67.8076 52.1419 67.1616 50.8799 67.5596C50.4029 67.7096 49.0419 68.1886 47.8549 68.6246C44.5039 69.8546 43.4419 68.6396 46.5699 67.1556C48.8129 66.0906 48.2979 65.4676 44.1379 64.2136C42.3589 63.6776 41.2629 63.0716 41.2629 62.6226C41.2629 62.0536 42.0779 61.8986 45.0589 61.8986C48.0979 61.8986 49.1089 62.0976 50.1269 62.8986C51.7539 64.1796 52.1569 64.1576 52.3529 62.7786C52.6069 61.0036 54.1399 61.0896 55.1399 62.9356C55.6199 63.8216 56.6789 65.3275 57.4929 66.2825L58.9729 68.0195L57.8939 68.8336C53.8379 71.8966 50.6919 73.8736 48.6739 74.6306C46.0779 75.6036 44.2629 77.0566 44.2629 78.1636C44.2629 78.5626 43.2499 79.8415 42.0129 81.0065C38.9519 83.8875 38.9949 85.1676 42.3269 90.1486C45.2569 94.5286 47.5749 96.3946 54.0129 99.5546C61.5189 103.238 68.3209 104.217 75.2629 102.613C77.0499 102.2 81.1009 101.321 84.2629 100.66C90.6329 99.3286 92.6859 98.5845 95.2349 96.6835C96.8259 95.4965 98.2629 95.0176 98.2629 95.6736C98.2629 97.2566 93.9389 101.399 92.2859 101.399C92.0119 101.399 90.2639 102.099 88.4009 102.955C84.6889 104.66 82.4979 105.096 73.5129 105.917C70.2129 106.219 67.1219 106.675 66.6449 106.932C65.7109 107.434 63.4809 107.492 62.2629 107.045ZM76.6189 98.5886C75.6789 97.6486 76.3209 96.8406 77.8879 96.9916C79.8639 97.1826 80.1389 98.5756 78.2439 98.7966C77.5459 98.8776 76.8149 98.7846 76.6189 98.5886ZM68.2629 97.6486C68.2629 97.1816 68.7349 96.8986 69.5129 96.8986C70.2909 96.8986 70.7629 97.1816 70.7629 97.6486C70.7629 98.1156 70.2909 98.3986 69.5129 98.3986C68.7349 98.3986 68.2629 98.1156 68.2629 97.6486ZM81.8219 92.6976C80.3429 92.0586 78.7969 90.9846 78.3879 90.3106C77.9789 89.6366 77.1789 88.8736 76.6109 88.6166C75.1199 87.9416 75.0039 86.9826 76.3719 86.6396C77.8749 86.2626 79.6379 86.9636 81.3979 88.6396C83.7659 90.8936 85.4729 91.2056 88.2699 89.8956C89.5999 89.2726 91.0419 88.8986 91.4749 89.0646C92.8699 89.5996 92.3549 91.2996 90.3969 92.6306C88.0369 94.2346 85.4309 94.2546 81.8219 92.6976ZM50.3149 92.9436C49.1589 92.2076 50.0759 90.8986 51.7469 90.8986C52.9299 90.8986 53.2629 91.1186 53.2629 91.8986C53.2629 92.4486 53.0559 92.8986 52.8039 92.8986C52.5509 92.8986 52.0449 93.0086 51.6789 93.1436C51.3129 93.2776 50.6989 93.1886 50.3149 92.9436ZM64.0749 86.2565C62.9179 85.4095 63.5219 83.9646 65.4689 82.9216C66.6029 82.3156 66.8709 82.3415 67.7579 83.1445C68.3109 83.6445 68.7629 84.3286 68.7629 84.6646C68.7629 86.2056 65.5129 87.3095 64.0749 86.2565ZM36.4999 71.8766C35.9689 71.0176 37.9039 69.2916 38.9479 69.6926C40.3289 70.2226 39.7749 72.1186 38.1849 72.3026C37.4549 72.3866 36.6959 72.1956 36.4999 71.8766ZM10.7629 70.9446C10.7629 69.4956 13.8269 64.9736 16.1679 62.9656C17.6539 61.6916 19.9939 59.5606 21.3669 58.2296C23.7919 55.8816 30.0669 52.3986 31.8739 52.3986C33.1969 52.3986 32.9489 53.8356 31.5129 54.4896C29.3249 55.4866 30.1409 55.9625 33.3879 55.5845C37.9949 55.0485 38.5129 55.0766 38.5129 55.8656C38.5129 56.9996 33.4649 58.5006 29.3899 58.5796C26.8749 58.6276 25.7659 58.8385 25.7649 59.2695C25.7629 59.8295 30.5439 64.7986 33.2369 67.0366C34.4099 68.0116 34.2069 68.8986 32.8109 68.8986C31.5469 68.8986 26.3319 65.4265 23.4559 62.6705L21.0239 60.3416L18.3769 63.2446C16.9219 64.8416 14.8109 67.3296 13.6869 68.7736C11.7639 71.2426 10.7629 71.9866 10.7629 70.9446ZM201.65 53.0236C201.227 52.5426 200.726 51.6396 200.536 51.0176C200.233 50.0226 200.514 49.7356 202.852 48.6466C205.64 47.3496 207.501 47.0706 207.999 47.8766C208.162 48.1396 207.725 48.7276 207.028 49.1846C206.332 49.6406 205.271 50.8886 204.67 51.9566C203.466 54.1006 202.801 54.3346 201.65 53.0236ZM209.513 48.0156C209.238 47.8136 209.013 46.1946 209.013 44.4176C209.013 41.4736 209.124 41.1296 210.263 40.5496C210.951 40.1996 212.098 39.9096 212.814 39.9056C213.53 39.9016 214.88 39.3846 215.814 38.7576C218.151 37.1876 218.273 35.5136 216.221 33.1766C214.389 31.0906 214.269 31.5596 218.274 25.1886C221.074 20.7326 221.446 18.5816 219.715 16.8506C218.857 15.9926 218.29 15.8586 216.59 16.1126C215.448 16.2836 213.071 16.5946 211.308 16.8036C208.255 17.1666 207.993 17.3086 205.769 19.7916C204.484 21.2256 203.171 22.3986 202.85 22.3986C202.529 22.3986 201.374 21.5926 200.284 20.6086C198.746 19.2186 198.047 18.8956 197.158 19.1646C195.677 19.6126 193.377 21.7596 192.426 23.5806C191.876 24.6346 191.53 24.8656 191.12 24.4556C190.407 23.7426 191.383 20.8176 193.099 18.5226C195.711 15.0296 199.177 14.6346 201.521 17.5616L202.792 19.1486L204.343 17.2526C206.393 14.7466 208.424 13.7306 211.763 13.5426C213.275 13.4576 215.825 13.2566 217.429 13.0946C220.022 12.8336 220.484 12.9316 221.601 13.9746C225.547 17.6606 224.91 23.5546 220.122 27.6536L218.222 29.2796L219.54 32.1616C221.526 36.5026 220.401 39.7826 216.292 41.6356C214.374 42.5006 213.529 43.8746 214.888 43.9186C215.232 43.9296 214.924 44.2586 214.204 44.6496C213.405 45.0836 212.777 45.9526 212.592 46.8796C212.36 48.0406 212.02 48.3966 211.15 48.3906C210.525 48.3866 209.788 48.2176 209.513 48.0156ZM183.272 37.1716C182.339 34.7196 182.478 30.7296 183.56 28.8716C184.665 26.9746 186.876 25.6436 188.126 26.1226C188.786 26.3766 188.631 26.7376 187.247 28.1656C185.604 29.8606 185.577 29.9556 186.073 32.3746C186.423 34.0856 186.415 35.3556 186.046 36.4926C185.368 38.5846 183.941 38.9336 183.272 37.1716ZM182.363 25.2986C181.482 24.4176 181.629 22.6206 182.763 20.3986C183.9 18.1706 184.064 15.7706 183.132 14.9976C182.691 14.6316 181.849 14.6486 180.331 15.0536C178.306 15.5936 178.098 15.5546 177.212 14.4596C176.55 13.6416 176.263 12.4966 176.263 10.6686C176.263 8.58356 175.973 7.65058 174.846 6.09858C172.459 2.81158 172.11 2.67057 170.248 4.23857C168.218 5.94557 166.788 9.01656 166.774 11.6986C166.751 15.9366 165.082 18.1396 162.815 16.9266C161.186 16.0546 159.835 16.3236 158.934 17.6986C158.217 18.7936 158.171 19.3246 158.641 21.0736C159.563 24.5036 157.641 25.0096 156.092 21.7436C154.733 18.8816 154.994 16.0906 156.787 14.2976C158.345 12.7396 159.574 12.6156 163.064 13.6616C164.057 13.9596 164.13 13.7526 164.394 9.90556C164.709 5.30056 166.048 2.62457 168.908 0.880566C171.844 -0.909434 174.792 0.0365829 177.552 3.65458C178.686 5.14158 179.01 6.18358 179.237 9.07258C179.392 11.0396 179.742 12.6026 180.016 12.5466C180.289 12.4906 181.222 12.1686 182.088 11.8306C183.419 11.3116 183.859 11.3466 184.942 12.0556C186.733 13.2296 187.597 16.3116 186.842 18.8316C186.524 19.8946 186.263 21.4846 186.263 22.3646C186.263 23.2446 186.03 24.3996 185.745 24.9316C185.167 26.0126 183.282 26.2176 182.363 25.2986ZM137.253 105.137C136.905 104.718 136.755 104.24 136.92 104.075C137.432 103.563 138.763 104.327 138.763 105.133C138.763 106.113 138.064 106.114 137.253 105.137ZM177.45 106.828C175.099 106.3 173.492 104.827 173.953 103.624C174.206 102.966 174.669 102.88 176.389 103.174C177.557 103.373 180.332 103.529 182.555 103.52C187.588 103.501 193.924 101.467 197.79 98.6286C200.364 96.7386 204.763 91.3926 204.763 90.1536C204.763 89.4396 207.158 83.9686 207.872 83.0536C208.62 82.0936 209.763 82.8906 209.763 84.3726C209.763 86.5716 206.797 91.8846 203.898 94.8776C201.861 96.9806 201.282 97.9045 201.487 98.7225C201.778 99.8805 200.05 101.713 196.736 103.761C191.923 106.736 183.207 108.122 177.45 106.828ZM207.431 74.1146C207.266 73.6836 207.4 73.0656 207.73 72.7396C208.193 72.2836 208.49 72.3655 209.031 73.0975C209.416 73.6185 209.612 74.2375 209.467 74.4725C209.032 75.1775 207.752 74.9526 207.431 74.1146ZM139.263 88.2966C138.3 88.0976 135.109 87.4706 132.171 86.9026C124.933 85.5046 119.263 83.1706 119.263 81.5906C119.263 80.6856 121.265 80.7086 124.763 81.6536C126.275 82.0626 128.976 82.6516 130.763 82.9616C132.55 83.2726 135.025 83.7416 136.263 84.0056C137.501 84.2686 142.11 84.6336 146.507 84.8166C153.225 85.0956 154.526 85.2746 154.653 85.9386C154.929 87.3856 151.479 88.4266 146.013 88.5476C143.263 88.6076 140.226 88.4946 139.263 88.2966ZM107.263 77.3466C105.201 76.2266 103.175 75.0176 102.763 74.6606C102.351 74.3046 100.888 73.4316 99.5129 72.7216C95.7969 70.8026 93.3649 68.6096 94.1139 67.8536C94.7669 67.1936 94.3259 67.0015 105.513 72.8085C112.718 76.5485 114.029 77.4845 113.607 78.5845C113.107 79.8865 111.281 79.5296 107.263 77.3466ZM162.763 78.1166C162.763 77.6866 163.707 76.2386 164.861 74.8986C166.66 72.8096 167.156 72.5026 168.343 72.7396C169.526 72.9766 169.877 72.7616 170.762 71.2626C171.68 69.7066 172.095 69.4726 174.464 69.1766C176.403 68.9346 177.421 68.5096 178.194 67.6206C179.322 66.3236 181.162 66.0416 182.796 66.9166C184.291 67.7166 183.958 68.8166 182.116 69.1626C181.135 69.3466 180.276 69.8936 179.991 70.5146C179.698 71.1546 178.954 71.6136 178.067 71.7016C177.272 71.7806 175.734 72.5586 174.649 73.4296C173.2 74.5946 172.531 74.8666 172.121 74.4566C171.058 73.3936 169.66 73.9106 166.868 76.3986C163.981 78.9716 162.763 79.4816 162.763 78.1166ZM141.981 77.8466C141.788 77.5336 143.366 75.5246 145.616 73.2216C147.803 70.9816 150.18 68.4156 150.898 67.5206C152.718 65.2506 158.831 60.4126 159.888 60.4046C160.554 60.4006 160.763 60.8116 160.763 62.1276C160.763 63.5436 160.424 64.1086 158.888 65.2526C157.857 66.0206 154.712 68.9636 151.9 71.7936C146.323 77.4066 142.972 79.4506 141.981 77.8466ZM122.538 74.4386C122.381 74.1856 122.874 73.5156 123.633 72.9496C125.948 71.2226 127.227 69.7916 129.532 66.3466C132.858 61.3796 138.642 56.4886 139.517 57.9056C139.963 58.6266 138.792 59.9506 131.763 66.6716C128.325 69.9586 125.103 73.1546 124.602 73.7736C123.628 74.9756 122.996 75.1796 122.538 74.4386ZM115.096 73.0656C114.913 72.8816 114.763 72.0896 114.763 71.3046C114.763 70.2226 115.095 69.7366 116.138 69.2936C120.216 67.5636 126.711 62.0326 129.513 57.9046C132.935 52.8626 137.443 48.1556 140.552 46.3766C141.979 45.5596 143.417 44.5656 143.748 44.1666C144.886 42.7956 154.447 39.4346 158.202 39.0856C160.16 38.9036 161.763 38.8936 161.763 39.0636C161.763 39.5756 159.134 40.7426 157.188 41.0946C156.185 41.2766 154.543 41.9816 153.541 42.6616C152.539 43.3416 151.579 43.8986 151.409 43.8986C151.239 43.8986 149.055 45.1186 146.556 46.6106C141.99 49.3356 136.103 54.8166 132.282 59.8986C129.291 63.8776 127.065 65.9836 124.815 66.9656C123.607 67.4936 121.288 69.1566 119.662 70.6616C116.84 73.2746 115.835 73.8036 115.096 73.0656ZM93.9679 61.6776C93.0459 61.0036 93.0459 60.9666 93.9789 59.9366C94.5029 59.3576 97.2889 57.7086 100.171 56.2726C105.005 53.8646 105.673 53.3486 108.801 49.6036C113.539 43.9306 121.201 36.9946 125.168 34.7866C127.008 33.7626 130.876 32.1506 133.763 31.2056C138.221 29.7466 139.484 29.5276 142.138 29.7526C144.31 29.9376 145.263 30.2266 145.263 30.6996C145.263 31.3836 144.696 31.5776 141.013 32.1546C135.565 33.0076 123.598 38.8616 121.376 41.7606C120.626 42.7386 119.675 43.8296 119.263 44.1846C117.956 45.3106 110.582 52.6286 108.834 54.5346C107.91 55.5416 106.673 56.5096 106.084 56.6866C105.495 56.8626 104.187 57.7986 103.177 58.7666C101.689 60.1926 101.09 60.4635 100.026 60.1965C99.1299 59.9715 98.2829 60.1635 97.3629 60.8005C95.1289 62.3465 94.9469 62.3936 93.9679 61.6776ZM162.442 60.1445C162.034 59.0795 163.483 57.0726 165.393 56.0596C166.994 55.2096 171.908 54.3806 176.253 54.2276C177.894 54.1696 178.532 54.3496 178.641 54.9026C178.753 55.4696 177.636 55.9476 174.151 56.8256C171.6 57.4676 168.335 58.6476 166.896 59.4456C163.957 61.0766 162.866 61.2475 162.442 60.1445ZM81.5009 53.5236C81.9889 50.2196 86.4009 43.7186 91.7469 38.4226C97.0199 33.1986 105.568 27.3826 108.476 27.0396C109.596 26.9076 112.185 26.2386 114.229 25.5536C118.995 23.9556 127.263 23.3126 127.263 24.5396C127.263 25.0986 126.428 25.4946 124.388 25.9036C118.284 27.1246 107.78 30.8166 104.22 32.9916C101.12 34.8856 100.572 35.4716 101.414 35.9926C101.856 36.2656 101.79 36.5856 101.163 37.2126C100.506 37.8706 100.156 37.9316 99.6169 37.4846C98.6889 36.7146 98.2629 37.2326 98.2629 39.1316C98.2629 40.6236 97.5259 41.8986 96.6629 41.8986C96.4429 41.8986 96.2629 41.3366 96.2629 40.6486C96.2629 38.8706 95.5489 39.0856 92.9999 41.6356C90.5369 44.0976 90.0329 45.3996 92.0559 44.0746C93.1469 43.3596 93.4159 43.3366 93.7829 43.9306C94.3009 44.7696 92.5139 46.8986 91.2919 46.8986C90.1729 46.8986 85.5449 51.0586 83.7319 53.6936C81.7289 56.6046 81.0529 56.5526 81.5009 53.5236ZM146.851 53.7866C146.079 53.0146 146.1 50.8106 146.888 49.7436C147.232 49.2776 148.751 48.4316 150.263 47.8626C155.226 45.9966 169.263 45.9856 169.263 47.8476C169.263 48.0526 167.407 48.1236 165.138 48.0066C162.869 47.8896 159.7 48.0386 158.096 48.3366C154.344 49.0356 149.372 51.2666 149.008 52.4156C148.559 53.8276 147.54 54.4756 146.851 53.7866ZM114.763 52.0896C114.763 51.9196 115.438 51.0116 116.263 50.0726C117.088 49.1326 117.763 48.1466 117.763 47.8816C117.763 47.6156 117.988 47.3986 118.263 47.3986C119.294 47.3986 118.711 49.7616 117.361 51.0546C116.062 52.2996 114.763 52.8166 114.763 52.0896Z" fill="white"/>
</svg>
