<svg width="209" height="299" viewBox="0 0 209 299" fill="none" xmlns="http://www.w3.org/2000/svg">
<path fill-rule="evenodd" clip-rule="evenodd" d="M83.4121 297.954C81.0741 297.741 77.1371 297.202 74.6621 296.754C72.1871 296.306 68.4741 295.727 66.4121 295.467C64.3501 295.206 61.8751 294.784 60.9121 294.528C56.0791 293.243 49.6031 291.127 44.6621 289.22C40.4251 287.585 38.1861 287.022 34.9121 286.77C32.5751 286.591 28.8621 286.233 26.6621 285.975C24.4621 285.717 19.0391 285.43 14.6101 285.335C5.25113 285.136 4.22813 284.777 1.48613 280.718C-0.0298724 278.473 -0.159872 277.999 0.115128 275.737C0.641128 271.411 2.68713 264.441 4.99413 259.117C5.49913 257.952 5.91213 256.778 5.91213 256.508C5.91213 255.987 9.09713 249.386 10.7321 246.521C11.9211 244.436 12.8841 244.021 13.2531 245.434C13.4051 246.013 13.7231 246.487 13.9611 246.487C14.9051 246.487 15.0551 243.377 14.4911 235.491C14.1661 230.951 13.8691 226.112 13.8311 224.737C13.7581 222.11 13.7241 222.344 12.6621 232.987C12.3441 236.175 11.6471 237.877 11.2471 236.446C9.04613 228.578 9.51613 218.122 12.7261 203.487C14.2201 196.68 18.0971 184.799 19.4501 182.886C20.1701 181.869 20.2941 181.242 19.9531 180.344C19.3641 178.795 19.8261 165.066 20.5151 163.646C20.8071 163.046 20.9221 162.235 20.7731 161.845C20.3711 160.798 22.3571 149.914 23.4381 147.237C23.6611 146.687 24.1101 145.337 24.4381 144.237C24.7651 143.137 25.2311 142.023 25.4721 141.762C25.7141 141.501 25.9121 141 25.9121 140.65C25.9121 140.299 26.5471 138.6 27.3241 136.875C28.1001 135.149 29.0401 132.95 29.4111 131.987C29.7831 131.024 30.4971 129.64 30.9991 128.91C31.5011 128.18 31.9121 127.46 31.9121 127.311C31.9121 126.577 38.3521 116.869 40.5851 114.237C48.6141 104.774 57.6041 95.9784 64.4121 90.9264C67.0361 88.9784 71.9081 86.6714 74.1241 86.3274C75.6701 86.0864 76.5541 85.4864 78.3001 83.4904C79.5181 82.0974 81.3231 80.5444 82.3101 80.0374C84.0111 79.1654 84.1111 78.9734 84.1981 76.4264C84.3851 70.9474 85.6431 67.3514 88.0421 65.4344C89.0331 64.6424 89.0191 64.5904 86.9791 61.5864C85.8421 59.9124 84.9121 58.3484 84.9121 58.1124C84.9121 57.8754 83.7951 55.9634 82.4311 53.8634C81.0661 51.7644 79.0161 48.0644 77.8741 45.6414C75.3591 40.3014 74.3931 38.3504 72.9751 35.7374C71.6921 33.3724 67.7821 22.3124 66.3471 16.9874C64.5011 10.1354 65.9491 4.30944 69.9331 2.55444C72.0251 1.63344 76.5581 2.03344 79.5071 3.39844C82.2901 4.68844 82.8031 5.34144 81.6801 6.16244C80.9201 6.71744 80.9601 6.89344 82.1301 8.15544C82.8351 8.91644 83.4121 9.66444 83.4121 9.81744C83.4121 10.2274 80.6301 9.75345 76.7801 8.68745C74.2891 7.99845 73.1761 7.89144 72.5561 8.28244C71.4711 8.96744 70.8571 11.2724 71.3911 12.6574C71.6201 13.2514 72.0891 14.7494 72.4321 15.9874C73.6131 20.2454 75.8401 26.6034 78.2991 32.7374C80.0631 37.1384 86.3401 49.0034 91.0711 56.8804C94.7021 62.9244 95.9231 64.5734 96.9121 64.7664C97.6001 64.8994 99.6891 65.3714 101.554 65.8144C103.42 66.2574 105.062 66.5044 105.202 66.3644C105.342 66.2244 104.659 61.8974 103.684 56.7484C102.365 49.7844 101.828 45.3684 101.586 39.4964C101.27 31.8444 101.292 31.5864 102.301 31.0464C103.118 30.6094 103.508 30.6544 104.108 31.2544C104.941 32.0884 105.164 33.0914 105.938 39.4874C106.74 46.1184 107.233 49.2254 108.622 56.4294C109.331 60.1094 109.912 63.9834 109.912 65.0364C109.912 67.3504 110.496 67.7284 114.783 68.1964L117.903 68.5364L119.168 65.8864C120.704 62.6664 121.645 61.0064 124.26 56.8984C125.367 55.1594 127.072 52.2744 128.049 50.4874C129.026 48.6994 130.396 46.7024 131.093 46.0494C132.542 44.6914 133.912 44.9204 133.912 46.5204C133.912 47.6884 128.547 58.4954 126.313 61.8274C125.543 62.9774 124.912 64.0694 124.912 64.2554C124.912 64.4404 124.25 65.5734 123.441 66.7724L121.969 68.9524L123.697 69.2764C124.647 69.4554 125.858 69.4874 126.389 69.3484C126.92 69.2094 128.359 69.3104 129.588 69.5724C131.711 70.0254 131.943 69.9584 134.242 68.2304C138.711 64.8714 156.916 46.9274 159.025 43.8034C160.163 42.1174 161.718 39.9494 162.481 38.9874C163.244 38.0254 164.577 35.6714 165.443 33.7574L167.018 30.2764L165.638 29.0904C164.461 28.0774 163.886 27.9414 161.71 28.1594C157.309 28.6014 152.795 29.6114 148.27 31.1654C142.781 33.0514 137.98 31.5254 135.974 27.2584C135.149 25.5034 134.912 24.0394 134.912 20.7104C134.912 18.3514 135.126 16.0224 135.387 15.5344C136.006 14.3784 134.769 10.1814 133.371 8.69344C132.013 7.24844 129.062 6.51945 124.162 6.41745C118.034 6.29045 115.261 7.32344 108.412 12.2794C103.368 15.9294 102.443 16.4374 99.3621 17.2504C97.3501 17.7814 96.6541 17.7464 94.4631 17.0044C93.0591 16.5294 91.4391 15.7144 90.8631 15.1934L89.8171 14.2464L90.9891 13.9724C91.8221 13.7774 92.2101 13.2854 92.3261 12.2774L92.4911 10.8574L95.6091 11.1764L98.7271 11.4964L104.387 7.68745C110.001 3.91145 112.271 2.70444 115.162 1.96044C115.987 1.74744 117.967 1.21744 119.561 0.780445C122.796 -0.104555 128.685 -0.284555 129.162 0.487445C129.332 0.762445 130.089 0.987445 130.844 0.987445C132.608 0.987445 136.436 3.41444 137.888 5.45444C140.302 8.84344 140.962 11.7564 140.829 18.4244C140.71 24.3574 140.753 24.6494 141.86 25.5454C143.113 26.5604 143.628 26.5184 148.662 24.9864C152.513 23.8144 156.612 22.9354 161.795 22.1704C164.731 21.7374 169.026 23.1344 170.635 25.0464C172.982 27.8364 172.902 32.7784 170.437 37.2374C165.582 46.0184 164.913 46.8344 151.833 59.9044C145.735 65.9994 138.518 70.9544 135.64 71.0224C134.681 71.0454 134.431 71.1774 134.929 71.3974C137.582 72.5734 138.912 74.5044 138.912 77.1804C138.912 78.7724 137.966 83.0924 137.203 84.9884C137.016 85.4514 137.333 86.0084 138.031 86.4424C145.402 91.0244 159.094 103.695 167.412 113.63C170.466 117.278 171.16 118.257 173.662 122.44C174.212 123.36 175.125 124.703 175.691 125.425C180.264 131.253 185.846 144.114 188.415 154.74C190.079 161.621 191.518 173.874 191.351 179.737C191.244 183.505 191.426 184.848 192.37 187.237C193.165 189.251 194.53 193.283 194.993 194.987C195.254 195.95 195.696 197.524 195.973 198.487C197.148 202.557 198.138 207.49 199.183 214.487C200.037 220.202 200.144 236.324 199.358 240.837C198.807 243.998 198.91 244.693 200.447 248.237C200.685 248.787 201.762 251.6 202.841 254.487C209.474 272.25 210.286 278.763 206.51 283.915C204.026 287.304 200.889 287.768 182.787 287.423C180.793 287.386 177.362 287.509 175.162 287.697C164.725 288.591 159.565 288.816 158.512 288.422C157.697 288.118 156.821 288.265 155.512 288.924C151.273 291.058 140.067 294.329 133.162 295.449C128.883 296.142 126.668 296.36 119.912 296.75C117.025 296.917 112.47 297.376 109.79 297.77C104.598 298.534 90.8551 298.63 83.4121 297.954ZM115.162 291.585C121.974 291.033 136.426 288.714 140.662 287.495C141.487 287.258 143.453 286.806 145.03 286.491C150.718 285.356 162.074 280.243 170.912 274.837C177.933 270.542 179.412 270.142 179.412 272.537C179.412 274.217 173.82 278.911 168.777 281.465C166.459 282.639 167.927 283.287 171.317 282.587C173.107 282.217 178.843 281.987 186.256 281.987C201.997 281.987 203.191 281.564 202.788 276.131C202.478 271.936 199.17 260.543 196.897 255.838C196.355 254.717 195.912 253.504 195.912 253.143C195.912 252.328 195.664 252.322 194.39 253.112C192.224 254.454 192.159 252.877 193.752 237.737C194.592 229.757 194.438 217.068 193.466 214.237C193.183 213.412 192.394 210.037 191.713 206.737C189.515 196.089 188.788 193.419 187.715 192.042C186.539 190.534 185.955 186.427 185.934 179.522C185.922 175.555 185.697 171.617 185.435 170.772C185.172 169.928 184.591 166.762 184.142 163.737C183.157 157.095 181.965 152.319 180.218 148.026C179.5 146.26 178.912 144.63 178.912 144.404C178.912 143.084 170.855 128.079 168.037 124.151C167.418 123.288 166.912 122.443 166.912 122.273C166.912 121.619 159.433 112.635 157.229 110.641C155.955 109.489 154.912 108.324 154.912 108.054C154.912 107.574 148.896 102.388 137.551 93.0894L131.939 88.4894L128.051 89.0554C125.912 89.3664 124.098 89.6734 124.019 89.7384C123.884 89.8494 124.863 91.4824 131.515 102.237C137.062 111.205 141.137 119.945 142.392 125.564C142.72 127.034 143.196 128.928 143.45 129.772C144.15 132.1 144.012 133.241 142.912 134.237C141.964 135.095 141.863 135.097 140.957 134.278C140.432 133.802 139.852 132.811 139.668 132.075C139.485 131.339 139.04 130.062 138.679 129.237C138.319 128.412 137.287 125.825 136.387 123.487C135.487 121.149 134.592 119.012 134.397 118.737C134.202 118.462 133.039 116.325 131.811 113.987C129.639 109.853 128.422 107.72 124.388 100.987C123.317 99.2004 121.59 95.9894 120.551 93.8534C119.293 91.2684 118.328 89.9004 117.662 89.7604C117.112 89.6444 114.152 89.4214 111.085 89.2634L105.507 88.9754L104.304 91.3564C97.4471 104.917 95.4061 109.028 94.6821 110.737C94.2161 111.837 93.3051 113.862 92.6571 115.237C92.0101 116.612 91.0031 118.956 90.4201 120.447C89.8371 121.937 88.9491 124.075 88.4481 125.197C87.9461 126.319 87.0901 128.249 86.5461 129.487C85.3631 132.179 83.8701 133.631 82.7341 133.196C80.6371 132.391 82.4711 125.534 88.0081 113.487C93.7041 101.093 96.0451 96.4844 99.3881 91.0874C100.29 89.6294 100.946 88.3714 100.845 88.2924C100.744 88.2124 99.6111 87.8614 98.3271 87.5134C95.9921 86.8794 94.9121 87.0634 94.9121 88.0934C94.9121 88.3944 90.2431 93.2774 84.5371 98.9464C78.8311 104.614 72.4741 111.425 70.4121 114.082C66.2661 119.422 64.9051 120.518 63.6791 119.501C62.4211 118.457 62.7811 117.136 65.3661 113.304C70.8421 105.19 80.7991 94.3414 88.6011 87.9874C90.1201 86.7504 91.3741 85.6104 91.3881 85.4554C91.4011 85.2994 90.5981 84.7844 89.6041 84.3104C87.9281 83.5114 87.7061 83.5074 86.5541 84.2624C85.8701 84.7104 84.0401 85.7724 82.4861 86.6234C67.3901 94.8914 52.5521 107.406 45.0571 118.192C39.6451 125.98 38.5291 127.779 35.7131 133.253C34.1521 136.287 32.4051 139.063 31.8311 139.422C30.8441 140.038 30.7981 139.989 31.0121 138.531C31.1371 137.682 31.1091 136.99 30.9501 136.995C30.4871 137.007 27.9791 143.487 28.4371 143.487C28.6661 143.487 28.9921 143.262 29.1621 142.987C29.3321 142.712 29.8211 142.487 30.2501 142.487C31.1291 142.487 31.0971 142.721 29.4341 148.487C26.8671 157.389 25.5781 165.769 24.9731 177.487C24.7201 182.404 24.3951 184.644 23.7771 185.734C23.3111 186.557 22.6841 188.47 22.3841 189.984C21.7391 193.245 21.0401 195.911 20.0261 198.987C17.9731 205.209 15.3441 220.325 15.4161 225.487C15.5421 234.528 15.9051 238.569 16.9031 242.049C17.4851 244.077 18.2001 246.637 18.4931 247.737C19.1161 250.074 19.2991 250.547 21.4561 255.387L23.0831 259.038L22.0101 260.111L20.9371 261.185L19.6251 259.961C18.0591 258.5 16.0411 254.684 15.5281 252.213C15.0931 250.12 14.2261 249.705 14.0121 251.487C13.8561 252.798 11.5201 259.227 9.87613 262.875C9.34613 264.051 8.91213 265.42 8.91213 265.917C8.91213 266.414 8.76013 266.973 8.57313 267.159C8.07513 267.658 5.94013 274.088 5.92513 275.137C5.91813 275.632 6.23813 276.667 6.63713 277.438C7.78113 279.651 11.5911 280.252 23.9121 280.163C29.5501 280.123 34.8541 280.026 35.7001 279.947C36.9831 279.829 43.5921 281.993 46.4211 283.458C47.0651 283.791 53.8651 285.949 59.1621 287.5C62.3961 288.447 76.1511 291.051 78.8291 291.222C80.3871 291.322 84.2501 291.562 87.4121 291.756C90.5741 291.95 93.2711 292.208 93.4031 292.331C93.7501 292.65 108.098 292.158 115.162 291.585ZM22.9311 185.362C22.9411 185.293 23.0781 183.1 23.2351 180.487C23.5041 176 23.4721 175.783 22.6581 176.563C22.1841 177.017 21.6241 178.326 21.4151 179.47C21.0211 181.628 21.6991 185.487 22.4731 185.487C22.7141 185.487 22.9211 185.431 22.9311 185.362ZM50.7861 107.648C51.7541 106.736 51.5261 106.391 50.3681 107.011C48.8941 107.799 45.4121 111.009 45.4121 111.579C45.4121 111.986 48.8511 109.471 50.7861 107.648ZM129.956 83.3574C131.437 82.8974 132.024 82.4144 132.224 81.4874C132.372 80.7994 132.71 79.6604 132.975 78.9544C133.29 78.1154 133.28 77.2064 132.947 76.3294C132.463 75.0554 132.265 74.9874 129.049 74.9884C124.238 74.9914 112.351 73.9944 111.162 73.4894C110.612 73.2564 108.925 72.9334 107.412 72.7734C103.25 72.3314 98.1661 71.2934 93.6921 69.9704C91.9841 69.4654 91.6381 69.5014 91.0961 70.2434C90.2141 71.4494 89.6821 76.3364 90.2891 77.6664C90.9771 79.1774 94.3901 80.7434 99.1621 81.7384C101.362 82.1964 104.243 82.8034 105.563 83.0854C111.888 84.4394 125.965 84.5964 129.956 83.3574ZM138.912 67.9874C138.5 67.7204 137.824 67.5024 137.412 67.5024C136.745 67.5024 136.745 67.5564 137.412 67.9874C137.824 68.2544 138.5 68.4724 138.912 68.4724C139.579 68.4724 139.579 68.4184 138.912 67.9874ZM66.1621 266.38C57.4071 263.461 48.4481 256.253 44.0241 248.568C42.8621 246.55 41.9121 244.702 41.9121 244.46C41.9121 244.219 41.5311 243.221 41.0651 242.244C40.2951 240.629 40.2891 240.396 41.0031 239.682C41.9641 238.721 42.0071 238.765 45.5131 244.237C48.8061 249.377 55.9691 256.493 61.5111 260.132C63.9031 261.702 66.0191 262.987 66.2141 262.987C67.1671 262.987 69.8471 265.575 69.5891 266.247C69.2701 267.078 68.3611 267.114 66.1621 266.38ZM149.215 261.073C148.631 260.128 149.453 259.225 153.048 256.864C158.116 253.535 162.381 249.481 166.33 244.237C170.065 239.277 171.195 238.653 171.106 241.599C170.968 246.202 162.553 255.904 155.885 259.146C151.633 261.213 149.655 261.785 149.215 261.073ZM37.1821 211.526C34.7461 206.815 33.7551 200.4 34.0081 190.981C34.1681 185.013 34.3751 183.407 35.1821 181.864C36.4481 179.444 37.7671 179.521 37.4121 181.995C36.7201 186.819 37.3581 197.331 38.8541 205.737C40.1341 212.933 40.1351 212.987 38.9931 212.987C38.3321 212.987 37.6551 212.44 37.1821 211.526ZM163.654 191.974C163.461 191.662 163.455 189.993 163.641 188.264C164.032 184.607 164.067 173.812 163.693 171.987C163.552 171.299 162.722 167.858 161.848 164.339C160.238 157.858 160.288 156.449 162.099 157.144C164.643 158.12 167.502 168.859 167.515 177.487C167.521 181.617 166.978 186.942 166.417 188.237C166.18 188.787 165.786 189.898 165.542 190.706C165.061 192.301 164.209 192.873 163.654 191.974ZM125.412 79.4874C125.412 79.2124 125.988 78.9874 126.692 78.9874C127.417 78.9874 127.837 79.2034 127.662 79.4874C127.492 79.7624 126.916 79.9874 126.382 79.9874C125.849 79.9874 125.412 79.7624 125.412 79.4874ZM98.9011 78.4664C95.5551 77.9284 92.6621 76.4294 92.6621 75.2334C92.6621 74.4164 93.0501 74.2094 94.8241 74.0814C96.0131 73.9964 97.2661 74.1584 97.6081 74.4424C97.9501 74.7264 99.3711 75.2034 100.766 75.5024C103.696 76.1314 105.415 77.1834 104.662 77.8874C103.884 78.6144 101.384 78.8664 98.9011 78.4664Z" fill="white"/>
</svg>
