<svg width="389" height="366" viewBox="0 0 389 366" fill="none" xmlns="http://www.w3.org/2000/svg">
<path fill-rule="evenodd" clip-rule="evenodd" d="M71.4424 364.333C65.7444 363.634 57.5204 361.738 51.4964 359.733C27.9204 351.889 11.6954 330.888 3.74935 297.931C0.556354 284.686 -0.269644 276.545 0.0713562 261.682C0.339356 250.018 1.24836 243.267 3.67736 234.919C7.12036 223.083 10.5044 216.977 17.5684 209.854L22.5084 204.873L21.9584 199.772C21.5744 196.2 21.5644 193.703 21.9254 191.443C23.0034 184.69 24.8244 181.645 29.5104 178.753L32.4424 176.943L32.4444 168.139C32.4474 155.542 33.7384 142.868 36.4224 129.085C37.4274 123.927 41.0504 111.914 43.2744 106.369C46.0244 99.5135 51.3634 88.6515 55.6564 81.1815C68.7734 58.3555 86.7183 40.1105 109.521 26.4155C127.103 15.8565 147.58 7.76649 165.942 4.12549C176.094 2.11149 177.099 1.95949 189.226 0.595491C199.914 -0.606509 221.136 0.0754941 234.856 2.06249C247.532 3.89849 263.201 8.34949 273.812 13.1305C274.977 13.6555 276.068 14.0855 276.235 14.0855C276.905 14.0855 285.531 18.4925 291.033 21.6455C309.393 32.1675 321.595 42.8095 333.678 58.8355C340.001 67.2215 348.074 80.9975 351.699 89.5855C352.454 91.3725 353.492 93.7895 354.007 94.9555C354.521 96.1205 354.942 97.2725 354.942 97.5135C354.942 97.7545 355.369 99.0505 355.89 100.393C358.281 106.548 361.122 117.531 362.407 125.585C362.736 127.647 363.204 130.573 363.447 132.085C364.795 140.489 365.248 161.088 364.301 170.975C364.219 171.835 364.983 172.755 367.423 174.732C371.368 177.93 373.491 180.643 375.024 184.444C376.066 187.025 376.191 188.139 376.191 194.835C376.192 199.522 375.938 203.325 375.514 204.975L374.835 207.615L377.366 211.476C381.972 218.5 384.509 225.127 387.058 236.788C388.043 241.295 388.161 243.28 388.164 255.335C388.166 268.018 388.08 269.304 386.747 276.583C381.571 304.841 370.006 327.426 352.763 342.95C337.095 357.057 318.582 364.089 297.128 364.083C285.968 364.08 273.647 361.532 264.442 357.324C261.829 356.129 258.646 355.014 257.368 354.846C253.956 354.396 247.613 351.126 244.33 348.125C234.765 339.381 231.218 326.177 232.471 303.98C233.647 283.145 238.603 259.898 247.372 234.085C257.752 203.527 269.846 184.549 283.942 176.695C291.096 172.71 300.244 171.573 308.942 173.589C315.665 175.148 315.361 175.196 316.872 172.335C317.598 170.96 319.448 168.562 320.983 167.005C323.256 164.699 324.369 163.989 326.983 163.179L330.192 162.186L330.062 156.26C329.81 144.776 327.504 136.535 320.432 121.835C305.231 90.2395 276.557 67.2125 240.982 58.0325C223.227 53.4505 206.079 52.0965 187.942 53.8435C180.092 54.6005 178.169 54.8865 169.192 56.6375C158.205 58.7795 147.884 62.2885 136.286 67.8255C126.471 72.5115 114.764 80.3405 106.614 87.6685C102.233 91.6075 93.7813 100.447 90.9673 104.033C84.0653 112.829 76.2574 125.945 72.1874 135.585C71.4324 137.372 70.5074 139.54 70.1334 140.401C68.6424 143.827 66.4764 151.176 65.7174 155.388C64.9194 159.809 63.9574 170.874 64.2864 171.842C64.3814 172.12 65.5944 172.87 66.9814 173.507C68.9184 174.395 69.8823 175.265 71.1273 177.249C72.5783 179.562 73.1174 180.912 74.2294 185.024C74.5844 186.338 74.4914 186.337 83.4424 185.074C85.5044 184.783 88.7674 184.685 90.6924 184.856C106.96 186.304 116.594 197.933 126.713 228.335C132.11 244.549 135.045 256.035 138.684 275.183C140.919 286.944 142.915 305.009 142.927 313.585C142.938 321.429 141.408 331.361 139.171 337.968C135.211 349.66 125.906 358.186 114.457 360.612C112.111 361.108 108.055 361.997 105.442 362.585C94.5794 365.033 82.3014 365.664 71.4424 364.333ZM80.5784 354.585C81.2784 354.035 82.4424 353.585 83.1664 353.585C83.8904 353.585 85.3644 354.035 86.4424 354.585C88.8194 355.798 92.9424 355.965 92.9424 354.848C92.9424 354.442 92.3163 353.787 91.5513 353.392C88.4003 351.762 81.4184 342.875 77.4524 335.445C71.0964 323.539 63.1494 301.148 59.9324 286.085C56.6594 270.757 54.7404 257.579 53.8374 244.234C52.9564 231.216 54.1774 217.391 56.9804 208.634C57.9364 205.647 60.1674 200.939 61.5534 198.984C62.5294 197.608 61.7494 197.463 58.1154 198.344C39.0114 202.972 25.6214 211.12 18.0424 222.73C10.5354 234.231 6.60335 253.202 7.94235 271.47C8.88835 284.374 10.7184 293.953 14.3174 304.835C18.2614 316.759 24.9354 328.669 31.8904 336.193C40.9604 346.007 54.5384 352.612 70.1924 354.828C77.0204 355.794 79.1034 355.746 80.5784 354.585ZM314.192 353.163C334.642 348.599 349.657 337.941 362.352 318.979C367.485 311.312 373.744 297.661 376.489 288.144C381.214 271.76 382.281 251.849 379.21 237.335C377.653 229.974 373.974 221.349 370.121 216.023C367.357 212.202 359.418 204.982 354.145 201.494C348.684 197.882 338.989 192.866 333.942 191.042C332.154 190.396 329.906 189.487 328.945 189.022C326.771 187.97 326.245 188.251 327.136 189.988C329.784 195.149 331.942 205.662 331.942 213.398C331.942 224.295 329.249 242.982 325.359 259.085C322.139 272.411 315.154 293.858 310.419 304.955C301.243 326.461 290.604 342.294 280.942 348.822C279.43 349.844 278.192 350.94 278.192 351.257C278.192 352.046 283.222 353.017 285.742 352.715C286.932 352.573 288.295 352.74 288.992 353.114C291.29 354.349 293.243 354.543 301.442 354.356C307.287 354.222 311.004 353.875 314.192 353.163ZM114.542 351.022C118.565 350.168 121.299 348.686 124.649 345.542C128.239 342.173 130.647 338.372 132.298 333.468C134.629 326.547 135.092 322.672 135.124 309.835C135.16 294.868 134.393 288.346 130.447 270.085C129.883 267.472 129.208 264.323 128.947 263.085C128.167 259.381 124.59 245.591 123.435 241.835C122.844 239.91 122.176 237.66 121.951 236.835C119.475 227.73 113.005 213.097 108.513 206.44C105.473 201.935 100.877 197.616 97.2184 195.826C92.4004 193.469 84.8053 193.286 78.6433 195.378C69.5293 198.473 64.0524 207.733 61.3694 224.585C60.5514 229.723 60.5794 245.127 61.4204 252.906C62.0294 258.534 64.5124 273.962 65.5124 278.335C68.3054 290.542 71.7554 302.705 74.3064 309.335C75.2584 311.81 76.5004 315.073 77.0644 316.585C78.9234 321.56 83.7284 330.831 87.0954 335.937C94.9064 347.785 104.628 353.128 114.542 351.022ZM269.173 345.319C275.969 343.549 282.203 338.185 289.493 327.835C293.961 321.492 300.116 310.235 303.163 302.835C305.689 296.699 306.97 293.612 307.729 291.835C308.652 289.673 312.592 277.798 314.614 271.085C316.13 266.05 317.521 260.648 320.214 249.335C324.045 233.234 325.202 214.034 322.954 203.835C320.901 194.524 316.246 187.485 309.904 184.105C305.755 181.894 302.494 181.098 297.551 181.091C286.606 181.075 277.722 187.745 268.59 202.835C264.777 209.134 263.536 211.612 259.963 220.045C250.368 242.692 242.872 270.507 240.194 293.402C239.333 300.757 239.204 316.276 239.962 321.085C241.644 331.744 246.779 339.974 253.946 343.5C259.191 346.08 264.031 346.658 269.173 345.319ZM368.659 196.96C369.017 193.603 368.213 189.026 366.779 186.253C365.523 183.823 361.991 181.036 356.623 178.235C344.156 171.731 332.601 168.751 327.734 170.785C326.044 171.491 322.942 175.356 322.942 176.755C322.942 177.26 324.961 178.154 329.317 179.577C342.26 183.805 353.739 189.649 362.858 196.653C365.242 198.484 367.447 200.005 367.759 200.033C368.095 200.064 368.461 198.812 368.659 196.96ZM31.2174 199.115C32.1154 198.223 43.1994 193.492 48.1924 191.868C53.0874 190.277 59.9634 188.517 64.4384 187.71C67.1304 187.224 67.3953 186.502 66.0183 183.391C64.5413 180.052 62.8434 179.323 56.6924 179.388C51.4894 179.443 48.4644 180.031 39.4584 182.738C31.1454 185.236 28.9514 187.995 28.9454 195.96C28.9424 199.118 29.0584 199.585 29.8424 199.585C30.3374 199.585 30.9564 199.374 31.2174 199.115ZM47.6924 172.666C50.4424 172.092 53.4794 171.558 54.4424 171.479C56.0504 171.347 56.2034 171.193 56.3304 169.585C56.7524 164.255 58.6194 150.337 59.4614 146.24C64.1044 123.678 72.8133 104.645 87.0603 85.9305C100.839 67.8295 122.817 51.6295 145.692 42.7115C154.07 39.4455 155.781 38.8855 163.653 36.8385C177.663 33.1965 192.961 31.1075 205.744 31.0915C215.783 31.0795 229.519 32.5535 238.942 34.6535C244.562 35.9065 246.055 36.3175 251.692 38.1575C265.578 42.6905 276.22 48.1635 287.775 56.7125C306.128 70.2915 320.148 89.2635 328.689 112.078C333.553 125.073 336.019 137.167 337.601 155.79L338.192 162.744L343.535 164.136C346.473 164.901 350.37 166.125 352.195 166.854C354.019 167.584 355.665 168.028 355.852 167.841C356.464 167.229 356.194 142.056 355.525 137.335C352.913 118.915 350.138 108.023 345.08 96.3375C337.145 78.0045 328.412 64.9355 315.493 52.0615C301.512 38.1275 288.656 29.7695 266.692 20.3335C264.126 19.2305 253.388 15.7155 249.192 14.6045C241.759 12.6365 234.163 11.2955 220.442 9.53149C214.562 8.77549 190.719 8.78849 184.32 9.55149C175.951 10.5485 171.744 11.1615 167.942 11.9385C165.88 12.3595 163.292 12.8865 162.192 13.1105C160.018 13.5535 150.319 16.4435 144.643 18.3415C126.497 24.4065 106.822 35.6925 92.5264 48.2375C66.2324 71.3085 46.6474 106.556 41.3524 140.335C40.6064 145.096 40.2654 150.276 40.0794 159.695C39.9394 166.769 39.9664 172.926 40.1394 173.378C40.3474 173.92 40.8344 174.116 41.5734 173.955C42.1894 173.82 44.9424 173.241 47.6924 172.666ZM74.8314 121.085C80.8544 109.35 85.4344 102.377 92.8934 93.5855C95.1104 90.9725 96.9283 88.6515 96.9333 88.4265C96.9683 86.8885 88.6844 94.8615 85.3394 99.5855C80.7174 106.111 73.4904 119.548 71.1874 125.897C68.9824 131.978 69.7864 130.915 74.8314 121.085ZM304.827 84.9765C302.654 81.6715 292.118 70.4105 287.964 66.9525C281.199 61.3195 271.466 54.8435 265.692 52.1325C247.131 43.4195 232.253 39.7665 211.442 38.8145C194.741 38.0515 170.747 41.4935 157.442 46.5615C155.38 47.3475 152.792 48.2685 151.692 48.6085C143.328 51.1955 132.394 56.4895 124.762 61.6475C117.572 66.5055 111.138 71.4485 111.514 71.8245C111.638 71.9485 117.297 69.2335 124.089 65.7925C138.379 58.5515 152.315 52.9395 161.03 50.9165C178.368 46.8905 186.237 45.9405 202.442 45.9155C215.988 45.8945 223.403 46.6105 234.991 49.0585C245.433 51.2645 255.976 54.5065 262.61 57.5515C272.023 61.8715 274.052 62.8865 278.4 65.4455C285.926 69.8745 293.119 75.3075 299.294 81.2265C304.616 86.3265 306.6 87.6715 304.827 84.9765ZM68.5854 345.58C67.1294 344.745 65.2464 344.085 64.3214 344.085C61.6123 344.085 59.7124 342.393 56.5254 337.141C51.5954 329.02 46.3424 315.193 46.2444 310.085C46.1974 307.614 46.3034 307.319 47.2914 307.179C48.2734 307.039 48.5324 307.493 49.7124 311.429C52.1104 319.426 53.3494 322.798 55.9824 328.495C56.7854 330.233 57.4424 331.835 57.4424 332.056C57.4424 332.276 58.5354 334.117 59.8714 336.146C62.4254 340.025 64.7153 342.479 65.2663 341.928C65.4463 341.748 64.5194 339.291 63.2074 336.468C60.7034 331.083 59.9174 327.969 60.9074 327.357C61.8764 326.758 62.6863 327.856 65.6153 333.745C67.4593 337.452 69.3773 340.448 71.1853 342.446C72.7013 344.121 73.9424 345.851 73.9424 346.289C73.9424 347.569 71.4854 347.244 68.5854 345.58ZM45.8094 338.71C44.5004 337.256 40.9004 329.406 41.0514 328.335C41.1374 327.727 41.5724 327.335 42.1624 327.335C42.8974 327.335 43.8334 328.725 46.0334 333.085C47.6294 336.248 48.9364 339.004 48.9384 339.21C48.9464 339.947 46.5824 339.569 45.8094 338.71ZM42.7864 236.762C42.0354 236.011 42.4704 225.991 43.4814 220.751C44.9504 213.138 46.3924 210.085 48.5194 210.085C49.7164 210.085 49.7054 211.357 48.4844 214.146C47.4144 216.589 46.3194 221.892 45.0454 230.795C44.2644 236.251 43.7174 237.694 42.7864 236.762ZM295.442 345.689C295.442 345.196 296.474 343.79 297.735 342.564C300.262 340.107 305.824 332.669 310.056 326.085C313.268 321.088 314.003 319.724 317.614 312.066C320.513 305.916 321.289 304.873 322.437 305.582C324.829 307.061 312.264 331.092 303.677 341.46C299.59 346.395 299.359 346.585 297.438 346.585C295.853 346.585 295.442 346.401 295.442 345.689ZM311.704 343.906C310.831 343.267 310.964 343.002 313.888 339.531C319.949 332.335 325.864 322.54 330.16 312.585C332.916 306.2 332.988 306.085 334.249 306.085C336.534 306.085 335.609 309.231 329.874 320.97C323.961 333.07 315.873 344.585 313.286 344.585C312.927 344.585 312.215 344.279 311.704 343.906ZM328.504 337.909C328.073 337.39 328.292 336.752 329.449 335.155C335.589 326.679 341.44 316.691 343.916 310.46C344.715 308.447 345.328 307.585 345.958 307.585C347.657 307.585 347.487 309.027 345.027 315.469C342.464 322.184 334.258 335.58 331.509 337.537C329.788 338.763 329.266 338.828 328.504 337.909ZM344.7 328.598C344.535 328.331 346.062 325.35 348.094 321.973C351.337 316.585 356.942 305.671 356.942 304.746C356.942 303.982 358.59 302.673 359.239 302.922C360.17 303.28 360.13 303.846 358.914 307.552C356.298 315.519 350.073 326.074 346.676 328.299C345.272 329.22 345.1 329.246 344.7 328.598ZM339.683 236.57C339.507 236.286 339.633 233.53 339.962 230.445C340.849 222.118 340.059 209.902 338.344 205.447C337.907 204.312 337.973 203.879 338.707 203.068C339.539 202.149 339.67 202.136 340.503 202.89C343.026 205.174 344.396 216.2 343.522 227.192C343.2 231.239 342.677 235.12 342.359 235.817C341.776 237.097 340.27 237.52 339.683 236.57ZM359.236 227.656C359.038 227.337 358.743 225.021 358.581 222.512C358.335 218.723 358.404 217.989 358.989 218.182C360.168 218.571 360.927 220.69 360.935 223.614C360.942 226.43 359.944 228.803 359.236 227.656ZM350.936 226.075C350.639 225.519 350.516 224.87 350.663 224.632C350.81 224.394 350.602 221.554 350.201 218.321C349.458 212.335 349.507 211.585 350.644 211.585C351.937 211.585 352.828 213.423 353.378 217.23C354.141 222.499 354.088 224.656 353.164 225.975C352.199 227.352 351.633 227.376 350.936 226.075ZM113.392 322.874C108.273 319.396 101.323 303.206 96.5264 283.585C91.8064 264.276 88.9723 246.614 88.9523 236.369C88.9313 225.678 90.5333 219.508 93.9283 217.21C96.0173 215.796 97.6583 215.798 100.159 217.218C104.038 219.421 106.742 225.943 112.232 246.335C112.973 249.085 114.02 252.91 114.56 254.835C115.616 258.598 116.195 261.03 116.883 264.585C117.123 265.823 117.907 269.76 118.625 273.335C119.343 276.91 120.179 281.073 120.481 282.585C123.837 299.342 124.798 312.237 123.121 318.004C121.494 323.603 117.446 325.629 113.392 322.874ZM117.215 311.821C117.595 308.78 117.136 297.914 116.445 293.585C116.203 292.073 115.752 289.147 115.442 287.085C114.788 282.726 113.134 273.729 112.455 270.835C112.197 269.735 111.653 267.373 111.247 265.585C108.608 253.979 106.629 246.983 102.834 235.835C101.507 231.937 98.2984 225.454 97.5764 225.213C96.5844 224.882 96.2844 229.473 96.6394 239.568C97.0624 251.596 98.2274 260.085 99.4564 260.085C99.6504 260.085 99.9244 257.216 100.063 253.71C100.323 247.204 100.961 244.342 102.07 244.71C102.523 244.861 102.729 247.052 102.83 252.761L102.967 260.605L101.455 260.907C99.9794 261.203 99.9424 261.281 99.9424 264.124C99.9424 266.892 100.689 269.585 101.457 269.585C101.879 269.585 102.426 266.539 102.444 264.085C102.459 262.089 103.092 260.81 103.837 261.27C104.116 261.442 104.496 262.896 104.682 264.501C104.947 266.783 104.795 268.107 103.981 270.584C102.846 274.042 102.656 277.787 103.468 280.71C104.507 284.45 104.921 283.126 105.734 273.46C106.194 267.983 106.893 268.296 108.244 274.585C109.173 278.913 109.144 287.714 108.191 290.45C107.696 291.871 107.58 293.173 107.838 294.414C108.494 297.573 109.342 296.99 109.723 293.116C109.915 291.174 110.263 289.585 110.497 289.585C111.329 289.585 111.568 292.248 111.23 297.754C110.853 303.877 110.873 303.962 114.291 310.96C115.265 312.954 116.243 314.585 116.466 314.585C116.688 314.585 117.025 313.341 117.215 311.821ZM67.1693 218.048C66.7113 217.308 67.3804 212.313 68.3024 209.593C70.1834 204.038 74.5104 199.746 79.0954 198.886C82.9354 198.166 84.1904 199.733 81.2364 201.559C80.2774 202.151 79.2894 203.303 78.9804 204.191C78.3784 205.917 77.0644 207.585 76.3064 207.585C75.8214 207.585 76.0024 206.075 76.6814 204.46C77.3124 202.958 75.9984 203.472 74.1214 205.46C71.9414 207.768 70.2594 211.163 71.0524 211.653C71.4334 211.888 71.2504 212.824 70.4664 214.665C68.8474 218.461 67.9773 219.355 67.1693 218.048ZM260.542 338.985C259.458 337.901 259.905 337.148 262.817 335.148C267.912 331.649 273.675 325.174 277.226 318.96C278.398 316.91 279.483 315.585 279.99 315.585C283.394 315.585 278.344 325.233 271.215 332.352C269.277 334.287 266.313 336.706 264.627 337.727C261.136 339.843 261.338 339.781 260.542 338.985ZM269.543 338.986C269.078 338.521 270.089 337.208 274.068 333.107C276.886 330.203 280.5 326.182 282.098 324.171C284.426 321.242 285.142 320.628 285.693 321.086C286.631 321.864 286.277 322.656 282.796 327.585C278.251 334.02 272.58 339.585 270.567 339.585C270.333 339.585 269.873 339.316 269.543 338.986ZM253.267 315.51C250.695 312.938 250.112 309.653 250.908 302.205C251.976 292.211 253.552 283.16 255.868 273.724C256.393 271.585 257.213 268.147 257.689 266.085C258.625 262.038 259.657 258.6 263.543 246.585C269.308 228.766 276.538 212.03 280.419 207.525C283.722 203.69 287.507 202.563 290.135 204.63C293.046 206.921 293.839 211.109 293.011 219.835C292.553 224.654 290.319 237.016 288.988 242.085C284.91 257.628 283.33 262.958 278.686 276.835C271.232 299.105 265.288 311.863 260.755 315.321C259.778 316.066 258.077 316.796 256.975 316.944C255.189 317.184 254.784 317.027 253.267 315.51ZM260.373 304.21C261.442 302.079 262.887 298.76 263.586 296.835C264.284 294.91 265.552 291.647 266.402 289.585C267.252 287.523 268.42 284.147 268.997 282.085C269.574 280.023 270.789 276.76 271.698 274.835C272.606 272.91 274.065 268.748 274.939 265.585C275.813 262.422 277.276 257.36 278.19 254.335C279.104 251.31 280.125 247.597 280.46 246.085C280.794 244.573 281.485 242.012 281.994 240.395C282.951 237.359 282.807 235.824 281.716 237.424C281.046 238.407 277.056 248.387 274.255 256.085C272.182 261.782 271.267 265.266 270.183 271.585C269.735 274.198 269.058 276.679 268.679 277.099C267.501 278.401 265.474 283.279 264.941 286.092C264.661 287.569 264.091 289.296 263.675 289.931C262.706 291.41 260.942 291.483 260.942 290.043C260.942 288.269 262.911 281.184 264.237 278.187C264.93 276.618 266.045 272.748 266.713 269.585C269.42 256.771 278.545 233.464 282.472 229.333C283.257 228.507 284.274 226.82 284.733 225.583C285.736 222.876 286.373 212.085 285.529 212.085C284.498 212.085 281.752 216.808 278.571 224.049C271.798 239.47 269.287 246.532 264.888 262.527C260.862 277.161 259.991 281.421 257.919 296.585C257.312 301.028 257.323 308.085 257.936 308.085C258.208 308.085 259.305 306.341 260.373 304.21ZM51.7464 166.296C51.4344 165.482 51.8414 157.414 52.2614 156.1C53.1244 153.398 53.9564 162.867 53.1274 165.96C52.7754 167.273 52.1774 167.419 51.7464 166.296Z" fill="white"/>
</svg>
