<svg width="393" height="397" viewBox="0 0 393 397" fill="none" xmlns="http://www.w3.org/2000/svg">
<path fill-rule="evenodd" clip-rule="evenodd" d="M61.827 395.712C57.509 394.651 50.475 391.418 47.291 389.03C46.167 388.188 44.31 386.861 43.163 386.082C39.982 383.921 31.234 375.486 28.071 371.529C20.417 361.956 17.876 358.008 12.676 347.612C7.58704 337.436 3.48904 326.152 1.46904 316.749C0.0910423 310.332 -0.491958 294.329 0.487042 289.774C2.14104 282.076 2.44704 281.016 4.06104 277.379C4.57904 276.214 5.00204 275.115 5.00204 274.939C5.00204 273.745 10.591 265.235 13.288 262.321C18.601 256.583 27.038 251.64 31.848 251.448C33.275 251.391 34.656 251.213 34.915 251.053C35.174 250.893 36.481 251.094 37.819 251.5C39.157 251.906 40.997 252.241 41.907 252.244C42.881 252.247 43.434 252.454 43.252 252.749C43.082 253.024 42.616 253.249 42.217 253.249C40.885 253.249 31.554 257.642 27.502 260.176C23.737 262.531 18.457 267.305 15.959 270.615C13.816 273.452 10.723 279.634 9.27004 283.984C7.04804 290.631 6.10904 302.828 7.38104 308.499C7.69004 309.874 8.31304 313.024 8.76504 315.499C10.2 323.353 13.76 333.08 19.004 343.478C21.671 348.767 24.572 354.086 25.449 355.297C38.483 373.29 45.669 380.329 56.337 385.553C66.455 390.508 74.709 390.419 86.252 385.231C92.495 382.426 94.464 382.023 102.002 382.011C108.047 382.001 109.958 382.191 113.502 383.156C120.632 385.097 121.095 385.194 126.069 385.779C129.573 386.192 131.165 386.197 131.911 385.798C132.475 385.496 133.57 385.247 134.344 385.244C136 385.237 139.438 384.237 142.252 382.943C149.73 379.504 158.897 370.478 166.062 359.499C169.621 354.046 177.002 340.078 177.002 338.796C177.002 338.488 177.21 337.845 177.465 337.367C178.749 334.959 182.484 323.693 183.231 319.974C183.525 318.513 183.412 318.39 180.493 316.994C177.456 315.543 172.444 311.017 171.16 308.567C168.859 304.174 167.824 298 168.467 292.499C168.757 290.024 168.995 287.886 168.997 287.749C168.998 287.612 167.427 287.482 165.505 287.461C163.583 287.44 161.503 287.198 160.881 286.922C151.751 282.879 149.199 279.776 148.662 272.069C148.504 269.799 148.609 267.168 148.901 266.121C149.415 264.272 149.391 264.22 147.338 262.794C140.043 257.725 138.019 250.906 141.582 243.405C142.472 241.532 143.276 239.862 143.369 239.695C143.764 238.984 136.839 237.576 131.874 237.357C126.16 237.106 122.999 237.536 116.162 239.496C111.857 240.73 111.33 240.945 103.063 244.818C97.504 247.422 96.463 247.658 95.522 246.523C94.422 245.198 95.225 244.037 99.258 241.123C104.404 237.405 111.534 233.902 116.895 232.457C121.036 231.341 128.286 230.268 131.752 230.259C137.362 230.243 146.75 232.399 149.608 234.36C151.537 235.683 151.984 238.398 150.564 240.169C147.194 244.376 146.081 248.992 147.411 253.249C148.194 255.754 148.559 256.188 151.511 258.126C156.301 261.27 156.128 261.036 155.799 263.935C154.602 274.462 154.839 275.413 159.551 278.997L162.625 281.334L168.189 281.183C175.839 280.976 176.211 281.224 175.788 286.249C175.615 288.311 175.295 291.331 175.077 292.96C174.326 298.564 175.986 304.127 179.568 308.013C181.683 310.307 185.987 312.48 187.479 312.006C188.059 311.822 188.931 312.166 189.817 312.928C192.142 314.928 191.986 316.015 187.25 330.771C184.597 339.037 181.393 346.657 179.166 349.992C178.251 351.364 177.502 353.07 177.502 353.784C177.502 354.921 172.343 364.134 170.072 367.053C169.621 367.633 167.643 370.22 165.677 372.803C160.39 379.748 153.757 385.377 146.035 389.471C137.56 393.965 126.619 394.405 114.002 390.759C111.94 390.163 108.164 389.424 105.613 389.115C99.24 388.345 95.437 389.174 84.623 393.694C77.195 396.798 69.145 397.51 61.827 395.712ZM12.303 335.022C12.127 334.322 11.774 333.749 11.518 333.749C11.247 333.749 11.275 334.384 11.586 335.275C12.211 337.068 12.767 336.872 12.303 335.022ZM5.00204 291.79C5.00204 291.262 5.13004 290.419 5.28704 289.915C5.44304 289.411 5.22604 289.561 4.80404 290.249C3.91404 291.7 3.78704 292.749 4.50204 292.749C4.77704 292.749 5.00204 292.317 5.00204 291.79ZM124.789 379.308C124.639 379.066 126.098 377.55 128.031 375.939C129.964 374.329 132.108 372.052 132.795 370.88C133.482 369.708 134.26 368.749 134.523 368.749C136.561 368.749 130.936 377.91 128.194 379.055C126.282 379.854 125.177 379.937 124.789 379.308ZM135.002 378.586C135.002 378.222 135.57 377.389 136.265 376.737C138.356 374.772 142.229 368.711 144.687 363.556C145.96 360.885 147.002 358.525 147.002 358.312C147.002 357.719 149.237 355.749 149.909 355.749C150.235 355.749 150.502 355.968 150.502 356.236C150.502 357.964 142.89 373.926 141.123 375.904C139.943 377.224 136.698 379.249 135.762 379.249C135.344 379.249 135.002 378.951 135.002 378.586ZM145.502 373.143C145.502 372.81 146.39 371.628 147.476 370.518C148.562 369.408 151.093 366.379 153.101 363.788C158.279 357.108 159.718 356.856 155.877 363.303C152.293 369.318 145.502 375.759 145.502 373.143ZM225.502 365.731C223.715 365.53 220.34 365.338 218.002 365.303C212.302 365.22 201.816 363.873 195.752 362.446C193.448 361.903 190.502 359.858 190.502 358.8C190.502 358.285 191.103 357.47 191.838 356.989C193.101 356.161 193.474 356.159 198.713 356.942C218.931 359.963 246.794 359.883 263.752 356.754C265.127 356.5 267.714 356.043 269.502 355.737C271.29 355.432 273.652 354.99 274.752 354.755C275.852 354.52 278.037 354.071 279.607 353.757C283.451 352.988 291.159 350.506 295.252 348.719C295.802 348.479 297.528 347.733 299.088 347.06C308.962 342.805 317.019 335.443 319.674 328.249C320.557 325.857 321.372 317.333 321.778 306.249C321.914 302.537 322.144 298.599 322.288 297.499C322.433 296.399 322.752 289.199 322.998 281.499C323.244 273.799 323.682 260.636 323.97 252.249C324.571 234.791 325.418 204.713 325.957 181.749C326.181 172.188 326.544 165.48 326.881 164.678C327.187 163.951 327.321 162.916 327.181 162.379C327.04 161.841 327.255 160.612 327.658 159.647C328.47 157.704 328.368 156.617 326.899 151.517C325.039 145.061 322.077 141.647 315.252 138.092C311.223 135.994 301.176 131.757 299.002 131.239C291.535 129.461 273.335 125.853 270.002 125.491C253.767 123.725 251.409 123.336 250.228 122.226C249.656 121.689 248.611 121.249 247.906 121.249C246.372 121.249 245.267 120.083 245.709 118.932C245.994 118.187 246.803 118.138 253.562 118.453C257.706 118.646 262.819 119.004 264.924 119.249C267.03 119.494 269.99 119.833 271.502 120.001C273.014 120.17 275.377 120.498 276.752 120.731C278.127 120.964 280.94 121.432 283.002 121.772C285.064 122.112 287.281 122.716 287.928 123.114C288.575 123.513 289.57 123.717 290.14 123.568C291.155 123.303 295.022 123.909 297.502 124.723C298.19 124.948 299.764 125.419 301.002 125.769C310.137 128.353 317.929 131.858 323.677 135.969C327.652 138.813 329.151 140.43 330.656 143.499C332.948 148.174 333.148 150.215 332.749 164.858L332.38 178.398L333.566 178.022C337.602 176.744 349.245 176.604 353.377 177.785C354.271 178.04 355.846 178.49 356.877 178.785C365.232 181.176 371.979 185.165 377.194 190.798C380.598 194.474 385.007 200.828 386.701 204.499C392.812 217.737 394.583 238.313 391.155 256.249C390.761 258.311 390.268 260.899 390.059 261.999C389.851 263.099 389.302 264.719 388.841 265.599C388.38 266.479 388.002 267.463 388.002 267.786C388.002 268.808 384.449 276.352 382.132 280.249C379.126 285.305 371.814 292.973 365.752 297.427C357.083 303.797 346.11 307.312 334.502 307.437L328.752 307.499L328.385 313.249C327.829 321.959 327.014 328.705 326.162 331.646C324.808 336.321 319.54 342.819 313.562 347.187C307.915 351.314 293.595 357.259 282.002 360.289C266.112 364.442 238.065 367.143 225.502 365.731ZM338.026 300.723C344.757 300.032 347.246 299.337 353.252 296.474C362.823 291.911 368.483 287.454 373.45 280.568C380.918 270.215 384.707 259.885 386.038 246.249C386.266 243.912 386.606 241.108 386.794 240.019C387.395 236.539 385.076 219.999 383.194 214.335C377.422 196.972 365.609 186.436 348.891 183.739C344.978 183.108 333.696 183.226 332.627 183.909C332.166 184.203 332.002 186.598 332.002 193.029C332.002 197.825 332.086 201.749 332.189 201.749C332.292 201.749 333.345 201.407 334.529 200.99C335.712 200.572 338.467 200.136 340.649 200.02C354.246 199.299 365.981 208.867 369.05 223.174C371.104 232.754 371.38 238.22 370.242 246.749C368.983 256.186 368.279 258.662 364.839 265.746C363.172 269.181 361.914 270.865 358.264 274.551C352.554 280.317 346.502 283.63 346.502 280.989C346.502 280.594 345.837 280.247 344.907 280.156C343.345 280.002 343.392 279.946 347.149 277.471C355.042 272.27 360.843 265.396 361.847 260.055C362.008 259.199 362.405 258.162 362.729 257.749C364.167 255.923 365.352 244.995 365.686 230.499C365.768 226.924 365.994 223.512 366.189 222.916C366.658 221.479 365.612 220.865 365.091 222.272L364.689 223.359L363.939 222.179C362.953 220.627 361.002 216.386 361.002 215.795C361.002 214.83 355.862 209.756 353.608 208.497C349.145 206.002 345.375 205.103 340.579 205.39C336.526 205.633 333.499 206.259 332.188 207.126C331.294 207.717 329.215 279.55 330.062 280.571C330.374 280.947 331.235 281.111 332.171 280.973C333.655 280.753 333.675 280.77 332.502 281.248C331.814 281.528 330.746 282.5 330.127 283.409C329.075 284.954 329.002 285.584 329.002 293.155V301.249H330.949C332.02 301.249 335.205 301.012 338.026 300.723ZM305.845 332.874C306.017 332.393 306.32 331.774 306.518 331.499C307.417 330.255 310.917 323.212 311.984 320.499C313.932 315.552 315.002 314.854 315.002 318.532C315.002 321.436 312.461 326.932 309.296 330.874C307.063 333.655 305.177 334.748 305.845 332.874ZM306.021 316.392C306.01 315.783 307.225 312.746 308.719 309.642C310.213 306.538 311.871 302.742 312.402 301.207C314.462 295.254 315.898 293.863 315.572 298.136C315.256 302.282 310.969 311.744 307.654 315.615C306.213 317.296 306.038 317.38 306.021 316.392ZM144.107 303.84C141.56 301.219 139.261 296.693 138.074 291.964C136.898 287.28 137.084 285.434 139.617 276.637C140.176 274.695 141.657 272.749 142.575 272.749C142.891 272.749 142.958 273.105 142.738 273.624C142.249 274.78 141.6 278.171 141.028 282.57C140.239 288.624 141.158 292.435 145.569 301.417C147.888 306.14 147.296 307.122 144.107 303.84ZM304.771 297.124C304.963 296.23 306.331 292.843 307.811 289.597C309.291 286.351 310.502 283.572 310.502 283.422C310.502 283.273 310.839 282.385 311.252 281.45C312.912 277.687 313.456 276.408 314.265 274.374C315.762 270.611 316.9 272.194 315.69 276.357C313.859 282.658 313.78 282.843 308.571 293.073C305.89 298.34 304.101 300.246 304.771 297.124ZM16.002 280.737C16.002 278.326 23.764 267.249 25.453 267.249C26.358 267.249 26.074 268.529 24.944 269.547C23.494 270.851 21.084 274.401 19.203 277.999C17.789 280.706 16.002 282.234 16.002 280.737ZM303.691 275.678C303.866 274.804 306.01 270.019 308.456 265.044C310.903 260.069 313.57 254.434 314.384 252.522C316.112 248.466 317.005 247.802 316.995 250.582C316.985 253.183 316.037 255.723 312.198 263.438C306.748 274.388 302.818 280.043 303.691 275.678ZM76.252 266.219C73.492 265.794 71.112 265.126 66.502 263.484C65.181 263.013 64.752 262.575 64.752 261.694C64.752 259.912 66.663 259.176 70.502 259.48C79.768 260.214 82.072 260.329 82.7 260.088C83.268 259.87 83.217 259.229 82.403 256.411C80.172 248.68 78.943 237.713 78.885 224.999C78.846 216.256 78.991 214.894 80.945 205.749C81.825 201.627 84.08 195.513 85.142 194.366C86.755 192.624 89.659 191.925 91.909 192.736C96.206 194.284 99.002 197.033 99.002 199.708C99.002 200.263 97.669 203.368 96.04 206.608C90.376 217.875 88.399 226.74 88.332 241.172C88.271 254.536 89.184 260.377 91.106 258.915C91.461 258.645 92.749 258.138 93.968 257.789C95.186 257.44 97.549 256.543 99.218 255.795C104.277 253.529 106.346 252.997 107.236 253.736C108.443 254.738 108.158 255.501 105.877 257.369C97.205 264.473 86.217 267.756 76.252 266.219ZM85.73 223.107C86.974 215.617 90.055 207.05 93.574 201.297C94.173 200.317 94.136 200.102 93.252 199.447C92 198.519 90.225 198.056 89.291 198.415C87.551 199.083 85.866 205.163 84.488 215.749C83.51 223.27 83.227 230.307 83.877 230.958C84.288 231.369 84.521 230.384 85.73 223.107ZM303.002 257.268C303.002 256.317 305.163 250.971 306.073 249.672C306.584 248.942 307.002 248.224 307.002 248.077C307.002 247.929 308.127 245.441 309.502 242.548C310.877 239.654 312.002 237.034 312.002 236.725C312.002 236.416 312.661 234.776 313.465 233.081C314.27 231.386 315.058 229.587 315.216 229.082C315.636 227.741 316.725 228.345 316.921 230.029C317.186 232.297 316.225 234.898 312.019 243.295C306.979 253.357 303.002 259.52 303.002 257.268ZM52.42 248.897C45.866 247.105 43.143 245.9 38.455 242.717C30.505 237.318 24.184 228.397 21.784 219.189C21.114 216.618 21.451 215.15 23.119 213.374C24.082 212.349 24.632 212.249 29.312 212.249C42.205 212.249 50.962 213.715 57.002 216.883C58.515 217.677 60.602 218.639 61.642 219.02C66.98 220.983 73.116 226.983 73.775 230.886C74.438 234.809 73.082 234.364 65.989 228.335C61.431 224.46 53.36 220.834 47.002 219.807C42.71 219.113 29.339 218.989 29.121 219.641C28.846 220.468 31.843 226.201 34.041 229.05C37.663 233.745 42.479 237.838 47.029 240.088C53.922 243.497 57.363 244.501 66.502 245.77C71.8 246.506 72.131 246.605 71.885 247.374C71.572 248.354 66.636 249.813 62.344 250.194C58.849 250.505 57.798 250.367 52.42 248.897ZM63.318 235.691C61.98 234.876 59.224 233.512 57.193 232.66C53.487 231.104 52.564 230.249 54.592 230.249C58.371 230.249 67.653 235.291 66.703 236.828C66.327 237.437 66.017 237.333 63.318 235.691ZM300.002 235.332C300.002 234.828 300.149 234.268 300.329 234.089C300.662 233.756 302.575 228.533 304.849 221.749C306.164 217.828 306.587 216.769 308.648 212.249C311.814 205.302 314.474 199.914 315.189 198.999C315.969 198.001 315.97 198.001 315.986 198.996C316.002 200.012 312.71 209.27 310.964 213.119C310.435 214.284 310.002 215.565 310.002 215.964C310.002 216.363 309.777 216.829 309.502 216.999C309.227 217.169 309.002 217.708 309.002 218.196C309.002 219.422 305.465 227.956 303.695 230.999C302.896 232.374 301.925 234.118 301.537 234.874C300.728 236.453 300.002 236.67 300.002 235.332ZM132.147 217.145C130.582 215.171 130.249 213.597 129.895 206.499C129.209 192.71 128.846 149.843 129.403 148.369C129.688 147.616 130.05 146.405 130.207 145.679C130.644 143.665 134.676 138.615 137.621 136.394C140.487 134.232 147.006 130.564 149.002 129.991C149.69 129.793 151.377 129.138 152.752 128.534C154.127 127.931 156.264 127.152 157.502 126.803C158.74 126.455 161.215 125.748 163.002 125.232C176.218 121.414 191.996 119.273 195.166 120.867C195.785 121.178 196.732 121.066 198.094 120.521C200.326 119.627 202.142 119.912 201.905 121.118C201.626 122.547 198.219 123.763 191.697 124.761C188.152 125.303 183.227 126.206 180.752 126.766C178.277 127.327 174.142 128.221 171.564 128.752C166.129 129.872 157.674 132.648 153.002 134.847C151.215 135.688 148.99 136.701 148.059 137.098C140.933 140.135 135.002 146.549 135.002 151.22C135.002 151.994 134.69 152.886 134.308 153.203C133.786 153.636 133.723 154.24 134.052 155.639C134.293 156.662 134.676 165.036 134.902 174.249C135.129 183.462 135.41 192.687 135.527 194.749C136.035 203.687 135.766 214.471 134.998 215.993C134.165 217.644 132.937 218.141 132.147 217.145ZM299.002 209.526C299.002 208.271 302.706 200.57 306.35 194.249C308.015 191.362 310.774 186.357 312.482 183.127C314.19 179.898 315.808 177.119 316.078 176.952C316.895 176.447 317.201 177.182 316.669 178.375C314.41 183.436 308.29 195.398 305.942 199.338C304.356 202 302.575 205.125 301.984 206.284C301.393 207.442 300.481 208.85 299.956 209.414C299.074 210.36 299.002 210.369 299.002 209.526ZM214.252 176.736C200.255 175.683 185.769 173.879 178.752 172.315C177.652 172.07 174.988 171.491 172.831 171.03C170.675 170.568 166.886 169.528 164.411 168.719C161.937 167.911 159.683 167.249 159.403 167.249C158.903 167.249 154.416 165.277 150.002 163.118C146.668 161.487 142.155 156.825 141.733 154.576C141.105 151.228 141.844 149.221 144.705 146.499C147.117 144.204 152.137 141.266 154.877 140.545C155.496 140.382 156.452 140.121 157.002 139.965C157.642 139.784 158.002 139.92 158.002 140.346C158.002 140.711 156.023 142.166 153.604 143.58C149.117 146.203 146.926 148.52 146.226 151.386C145.943 152.548 146.174 153.043 147.653 154.438C149.221 155.917 157.196 160.249 158.35 160.249C158.595 160.249 161.599 161.146 165.024 162.243C171.047 164.171 174.288 164.679 175.277 163.851C176.112 163.151 180.818 161.825 190.505 159.56C193.934 158.758 201.716 157.774 204.252 157.821C205.077 157.837 208.677 157.497 212.252 157.065C224.355 155.605 248.641 156.139 250.914 157.915C251.289 158.208 253.566 158.38 256.164 158.312C259.526 158.224 261.28 158.413 262.728 159.019C264.249 159.656 264.529 159.944 263.947 160.27C263.322 160.62 255.484 160.905 251.752 160.713C248.718 160.557 235.002 161.469 235.002 161.826C235.002 162.059 235.171 162.254 235.377 162.259C236 162.276 251.946 163.716 256.562 164.172C258.979 164.41 261.835 165.041 263.062 165.608C267.304 167.565 268.421 167.85 270.598 167.53C274.541 166.95 279.211 166.135 283.002 165.366C285.064 164.948 287.877 164.448 289.252 164.257C292.551 163.797 298.502 162.137 298.502 161.676C298.502 161.306 290.679 158.807 286.377 157.803C281.405 156.643 275.642 155.469 272.502 154.976C243.207 150.374 219.507 150.166 192.252 154.271C190.602 154.519 188.352 154.853 187.252 155.013C186.152 155.173 181.461 156.231 176.828 157.366C169.998 159.038 168.225 159.317 167.46 158.839C166.94 158.514 165.81 158.249 164.948 158.249C163.558 158.249 163.456 158.157 164.053 157.438C164.978 156.323 173.316 152.484 176.854 151.544C192.777 147.312 210.263 145.237 229.927 145.245C242.902 145.25 255.312 145.967 265.002 147.271C281.852 149.538 296.21 153.78 302.585 158.374C303.635 159.13 304.592 159.749 304.713 159.749C305.432 159.749 311.588 156.58 313.353 155.3C316.093 153.315 317.022 150.645 315.815 148.225C314.769 146.127 314.791 145.749 315.964 145.749C317.188 145.749 319.907 148.445 320.312 150.061C322.003 156.799 313.951 163.839 299.252 168.474C293.096 170.415 282.698 172.833 276.752 173.706C274.552 174.029 271.627 174.5 270.252 174.753C262.406 176.198 253.255 176.784 235.502 176.978C226.84 177.072 217.277 176.963 214.252 176.736ZM253.619 169.454C258.42 169.203 260.141 168.933 260.619 168.356C261.185 167.673 260.32 167.621 252.502 167.874C244.041 168.147 237.502 169.013 237.502 169.86C237.502 170.252 239.155 170.21 253.619 169.454ZM209.681 163.531C211.903 163.213 213.772 162.69 213.884 162.354C214.153 161.546 212.501 161.58 205.259 162.529C199.045 163.344 198.502 163.487 198.502 164.309C198.502 164.839 202.446 164.564 209.681 163.531ZM271.502 162.756C270.814 162.509 269.482 162.122 268.541 161.896C266.344 161.367 266.033 160.403 267.836 159.714C269.875 158.936 275.321 159.649 279.208 161.204C280.261 161.624 280.513 161.938 280.119 162.332C279.418 163.033 273.137 163.342 271.502 162.756ZM202.76 122.807C201.792 122.414 201.795 122.387 202.885 121.706C203.499 121.322 204.002 120.76 204.002 120.456C204.002 118.395 210.987 117.357 220.275 118.039C224.281 118.333 225.023 118.519 224.894 119.194C224.792 119.725 224.015 120.096 222.617 120.283C221.45 120.439 220.216 120.928 219.874 121.368C219.509 121.838 218.115 122.302 216.502 122.49C211.74 123.043 203.793 123.227 202.76 122.807ZM258.335 108.916C257.442 108.022 258.126 105.747 259.904 103.694C264.404 98.5023 265.78 95.1193 265.3 90.4333C264.902 86.5413 264.527 85.6573 260.978 80.2493C256.441 73.3343 256.25 72.7773 256.264 66.4993C256.278 60.4353 256.61 59.3583 260.059 54.2053C261.82 51.5743 265.735 47.8353 269.364 45.3183C270.656 44.4213 271.177 44.3073 271.989 44.7423C272.546 45.0403 273.002 45.5693 273.002 45.9173C273.002 46.2643 270.847 48.5383 268.214 50.9693C265.581 53.4003 262.92 56.2023 262.303 57.1943C261.021 59.2533 259.502 64.3383 259.502 66.5683C259.502 69.2403 261.093 72.8893 264.487 77.9993C269.29 85.2323 270.682 90.2273 269.323 95.3563C268.19 99.6343 267.256 101.286 263.615 105.453C260.577 108.929 259.231 109.812 258.335 108.916ZM206.318 106.991C206.06 106.319 206.445 105.408 208.455 101.943C211.117 97.3523 211.581 93.5233 209.984 89.3213C208.567 85.5933 207.188 83.7243 203.372 80.3553C198.977 76.4753 196.284 73.1423 195.485 70.5923C195.124 69.4413 194.642 68.2853 194.415 68.0243C193.659 67.1553 193.988 61.7813 195.037 57.8653C196.726 51.5623 200.053 46.6923 205.573 42.4453C208.797 39.9633 209.249 39.8423 210.003 41.2513C210.471 42.1253 210.01 42.8173 206.396 46.6623C196.12 57.5943 195.528 67.0353 204.582 75.5923C211.75 82.3663 213.49 84.9003 214.561 90.1243C215.323 93.8383 214.672 97.9603 212.714 101.824C210.363 106.463 207.121 109.083 206.318 106.991ZM238.097 85.6643C238.205 80.4863 236.958 76.9603 233.56 72.8433C228.439 66.6373 227.002 63.3513 227.002 57.8413C227.002 51.4943 229.421 46.1373 235.43 39.1793C239.115 34.9113 240.238 33.4193 241.838 30.6573C243.485 27.8163 245.002 23.1683 245.002 20.9643C245.002 18.6513 242.967 12.7553 241.295 10.2263C240.219 8.59928 239.363 7.78828 235.358 4.60628C233.73 3.31228 233.312 0.926284 234.571 0.107284C236.24 -0.977716 243.78 6.40228 246.333 11.6193C248.24 15.5183 249.156 20.8803 248.446 23.9993C246.995 30.3723 244.361 35.0623 238.758 41.2493C232.719 47.9163 231.021 51.4013 231.01 57.1553C231 61.7363 232.003 64.8533 234.507 68.0233C240.486 75.5943 242.092 81.0453 240.087 86.9633C238.727 90.9753 237.996 90.4973 238.097 85.6643ZM349.002 291.315C349.002 290.527 356.403 285.983 356.891 286.471C357.306 286.887 355.578 288.605 353.079 290.26C350.895 291.706 349.002 292.197 349.002 291.315ZM357.822 284.924C358.001 284.415 358.654 283.437 359.272 282.749C359.89 282.061 361.114 280.318 361.992 278.874C364.634 274.529 366.212 276.078 363.85 280.697C363.031 282.298 362.016 283.296 360.11 284.372C357.902 285.62 357.546 285.706 357.822 284.924ZM338.752 280.749C338.922 280.474 339.61 280.249 340.282 280.249C340.953 280.249 341.502 280.474 341.502 280.749C341.502 281.024 340.814 281.249 339.972 281.249C339.08 281.249 338.572 281.041 338.752 280.749Z" fill="white"/>
</svg>
