<svg width="163" height="332" viewBox="0 0 163 332" fill="none" xmlns="http://www.w3.org/2000/svg">
<path fill-rule="evenodd" clip-rule="evenodd" d="M133.701 331.565C127.449 330.516 120.604 325.53 116.327 318.911C110.57 310 105.347 295.142 99.0145 269.661C91.7675 240.497 87.1025 210.906 84.7035 178.874C83.9985 169.467 84.0125 145.991 84.7235 145.135C86.3745 143.145 87.3995 146.651 88.1885 156.989C90.5705 188.193 93.3064 212.808 95.9614 226.911C96.3494 228.973 97.1444 233.248 97.7284 236.411C100.933 253.778 104.467 269.841 107.19 279.411C107.464 280.373 108.385 283.636 109.236 286.661C115.781 309.905 121.635 320.85 129.618 324.77C132.113 325.995 133.018 326.161 137.201 326.161C141.537 326.161 142.256 326.017 145.451 324.508C151.218 321.785 154.618 317.869 156.971 311.24C158.056 308.186 158.636 307.221 159.612 306.85C160.564 306.488 160.724 306.234 160.282 305.792C159.963 305.473 159.701 304.431 159.701 303.477C159.701 302.523 159.491 300.374 159.235 298.702C158.979 297.029 158.518 293.298 158.211 290.411C156.853 277.654 154.701 264.678 151.661 250.911C150.305 244.773 145.772 226.107 145.164 224.161C144.906 223.336 143.783 219.399 142.668 215.411C140.282 206.882 140.566 207.797 136.465 195.411C131.782 181.27 130.33 177.108 128.632 172.971C127.799 170.941 126.711 168.016 126.215 166.471C125.718 164.925 123.506 159.161 121.299 153.661C119.092 148.161 117.125 142.795 116.929 141.737C116.352 138.631 118.001 139.574 120.294 143.661C123.591 149.536 129.619 162.373 132.034 168.661C132.984 171.136 134.198 174.115 134.731 175.281C135.265 176.446 135.701 177.585 135.701 177.812C135.701 178.038 136.151 179.155 136.701 180.293C137.251 181.431 137.701 182.602 137.701 182.894C137.701 183.186 137.919 183.815 138.186 184.293C138.453 184.77 139.555 187.749 140.637 190.911C142.388 196.034 143.329 199.013 146.718 210.161C149.677 219.898 153.172 232.546 154.593 238.661C155.168 241.136 156.009 244.713 156.461 246.609C156.914 248.506 157.467 251.093 157.69 252.359C160.784 269.906 161.46 274.712 162.247 284.718C163.065 295.123 162.122 309.534 160.291 314.606C157.975 321.021 153.404 326.271 147.556 329.235C143.805 331.135 137.48 332.199 133.701 331.565ZM126.589 308.036C126.167 307.555 125.436 306.401 124.965 305.471C124.137 303.839 124.143 303.746 125.142 302.747L126.176 301.713L127.424 302.886C128.812 304.19 129.943 307.058 129.512 308.182C129.129 309.18 127.521 309.099 126.589 308.036ZM134.831 304.286C132.882 302.188 128.701 291.682 128.701 288.885C128.701 287.375 129.831 286.162 130.866 286.559C131.511 286.807 132.167 287.994 133.822 291.911C134.228 292.873 135.38 295.471 136.381 297.683C137.382 299.895 138.201 302.183 138.201 302.767C138.201 305.545 136.649 306.244 134.831 304.286ZM119.907 293.609C117.798 288.841 112.75 273.088 110.42 264.006C104.016 239.041 101.076 221.705 98.1964 191.911C97.3384 183.036 97.6575 178.316 98.9705 180.442C99.1515 180.734 100.059 186.303 100.989 192.817C101.919 199.331 103.028 206.236 103.455 208.161C103.881 210.086 104.449 212.842 104.716 214.286C105.44 218.206 106.145 222.095 106.664 225.036C107.878 231.916 110.901 246.153 112.053 250.411C112.76 253.024 113.503 255.949 113.704 256.911C114.173 259.152 115.72 264.748 117.713 271.411C118.577 274.298 119.463 277.336 119.683 278.161C119.903 278.986 120.413 280.673 120.817 281.911C121.221 283.149 122.063 285.849 122.687 287.911C123.312 289.973 124.021 292.317 124.264 293.119C124.602 294.231 124.51 294.793 123.876 295.494C122.36 297.169 121.247 296.64 119.907 293.609ZM94.9935 171.978C93.9565 170.301 91.9555 153.271 91.9535 146.099L91.9515 141.536L88.2325 141.222C86.1865 141.049 84.0945 140.627 83.5835 140.284C83.0725 139.942 81.9054 137.861 80.9894 135.661C77.4494 127.155 76.8005 126.063 74.5985 124.916C65.6005 120.226 58.6325 110.71 56.9195 100.77C56.5025 98.355 56.2985 96.158 56.4655 95.889C56.8455 95.274 55.2785 89.771 54.6045 89.353C54.3315 89.183 52.1605 89.717 49.7795 90.54C45.1015 92.157 39.0765 92.922 38.4905 91.973C37.8865 90.996 36.7325 91.364 36.4135 92.635C36.0355 94.14 34.8325 94.951 30.9185 96.337C24.9025 98.467 21.8845 97.518 15.5925 91.516C10.9845 87.121 7.86446 82.382 4.17846 74.177C-0.0105429 64.853 -1.33154 50.292 1.51346 44.792C3.15646 41.614 12.4745 38.954 14.5575 41.068C15.4165 41.94 15.4065 42.013 14.2875 42.93C13.6475 43.455 11.9035 44.269 10.4125 44.739C8.92145 45.209 7.70146 45.76 7.70146 45.964C7.70146 46.168 8.32046 47.066 9.07646 47.961C13.6425 53.363 22.1755 66.422 25.5405 73.161C28.6415 79.37 28.9515 80.596 28.9515 86.661C28.9515 90.049 29.1435 92.13 29.4515 92.079C30.6855 91.877 37.0505 90.238 37.9515 89.89C41.7495 88.423 44.4145 87.455 51.7015 84.895C56.2385 83.301 61.6395 81.392 63.7015 80.654C65.7635 79.916 70.4885 78.229 74.2015 76.905C81.6315 74.257 102.274 66.83 112.451 63.144C141.633 52.574 146.831 50.86 147.784 51.492C149.325 52.514 142.643 56.375 130.68 61.375C120.287 65.719 121.141 65.017 121.017 69.314C120.922 72.599 121.04 73.111 122.183 74.391C124.106 76.545 124.874 79.92 124.915 86.399C124.961 93.726 123.688 99.414 120.326 106.911C119.648 108.423 118.793 110.336 118.426 111.161C115.719 117.249 114.567 125.149 115.865 128.725C116.559 130.64 116.544 130.904 115.655 132.367C113.787 135.439 111.985 134.852 111.501 131.015C111.338 129.72 111.071 126.636 110.907 124.161C110.547 118.702 111.601 114.178 114.927 106.911C117.027 102.324 117.895 99.866 119.225 94.748C120.295 90.633 119.874 76.911 118.679 76.911C118.431 76.911 116.366 78.374 114.09 80.163C111.813 81.951 108.973 83.865 107.777 84.416L105.603 85.417L107.149 87.178C110.071 90.506 110.892 92.732 110.923 97.411C110.963 103.505 109.51 107.172 105.472 111.161C103.097 113.508 101.73 114.407 99.1945 115.291C91.0665 118.123 85.1635 115.845 79.7495 107.787C76.9395 103.605 77.1995 98.411 80.2175 98.411C81.4535 98.411 82.0095 99.304 82.6435 102.311C83.3495 105.664 84.1895 107.259 86.2835 109.23C89.8255 112.562 92.5534 113.11 97.1834 111.418C100.885 110.064 103.182 108.086 104.88 104.787C108.342 98.06 106.35 88.248 101.045 85.901C99.0404 85.014 98.6984 85.004 95.1834 85.723C90.3104 86.719 87.6744 88.278 83.6574 92.539C80.8144 95.553 80.2285 95.961 79.3865 95.51C78.7305 95.159 77.6685 95.146 76.1455 95.471C73.1525 96.109 71.4305 95.425 70.3565 93.172C69.2515 90.855 68.7015 90.945 68.7015 93.444C68.7015 95.367 68.6275 95.469 67.3265 95.319C65.7945 95.143 64.9855 93.379 64.2915 88.693C63.8835 85.948 63.5875 85.815 60.5385 87.01C59.4085 87.453 59.1935 87.774 59.4655 88.613C59.6525 89.189 60.2065 92.473 60.6955 95.911C62.0665 105.555 63.7625 109.426 68.9205 114.684C72.4425 118.275 74.9035 119.907 76.8025 119.909C78.5805 119.912 84.7925 123.179 87.4325 125.501C89.5915 127.399 92.7015 132.569 92.7015 134.26C92.7015 134.788 92.9825 135.587 93.3265 136.035C93.9015 136.786 94.2685 136.788 97.9515 136.059C100.151 135.623 102.905 134.849 104.071 134.339C106.776 133.155 109.617 133.111 110.053 134.248C110.765 136.101 104.207 139.597 97.5395 140.92C95.1455 141.394 94.6845 141.645 94.9495 142.329C96.9235 147.436 98.4615 168.142 97.0695 170.872C96.3805 172.221 95.4495 172.717 94.9935 171.978ZM89.0135 136.679C89.6225 135.093 84.1035 127.411 82.3565 127.411C81.9965 127.411 81.7015 127.484 81.7015 127.573C81.7015 127.753 85.4275 135.157 86.2125 136.536C86.8165 137.599 88.6255 137.691 89.0135 136.679ZM79.6294 90.286C81.2704 87.644 84.2414 85.075 87.5454 83.443C91.7074 81.386 95.1585 80.704 99.1765 81.143C103.787 81.647 104.011 81.617 106.461 80.181L108.657 78.894L107.618 77.133C106.819 75.778 106.653 74.909 106.901 73.361C107.078 72.255 107.104 71.159 106.959 70.925C106.815 70.69 105.516 70.955 104.074 71.511C101.06 72.675 92.2674 75.852 83.1854 79.06C79.7384 80.277 76.2435 81.622 75.4175 82.049C74.5925 82.476 73.0245 82.987 71.9345 83.184C68.0085 83.894 67.4115 84.86 69.1445 87.701C70.3525 89.683 74.4515 91.655 77.7855 91.86C78.2445 91.888 79.0744 91.18 79.6294 90.286ZM24.3835 89.091C24.5585 87.815 24.7015 85.342 24.7015 83.595C24.7015 80.961 24.8715 80.313 25.7015 79.795C27.0295 78.966 26.9665 78.411 25.5455 78.411C23.8545 78.411 22.1975 76.396 18.3095 69.613C13.3275 60.92 6.12746 50.411 5.15446 50.411C4.44346 50.411 4.62546 57.794 5.43246 61.661C7.00546 69.201 9.56345 75.267 13.8645 81.661C16.2405 85.192 22.2785 91.411 23.3315 91.411C23.8255 91.411 24.1695 90.653 24.3835 89.091ZM117.089 73.151C117.164 73.097 117.077 71.783 116.895 70.232C116.521 67.047 116.336 66.96 112.992 68.393L110.701 69.375V72.56C110.701 74.311 110.824 75.867 110.974 76.017C111.176 76.219 115.907 74.001 117.089 73.151ZM34.3745 84.14C34.2115 83.716 34.1875 82.229 34.3215 80.837C34.5525 78.439 35.3395 77.236 36.4515 77.583C37.1995 77.816 37.3505 81.843 36.6725 83.48C36.0295 85.033 34.8475 85.373 34.3745 84.14ZM33.6205 75.044C32.9145 74.283 31.2635 71.861 29.9525 69.661C28.6415 67.461 26.4005 63.861 24.9735 61.661C16.0945 47.971 14.7015 45.739 14.7015 45.205C14.7015 44.36 15.7605 43.411 16.7035 43.411C17.9605 43.411 22.0185 48.25 25.4525 53.845C25.7275 54.294 27.0565 56.349 28.4065 58.411C32.4715 64.625 35.8615 71.67 35.9095 74.001C35.9615 76.541 35.2925 76.845 33.6205 75.044ZM39.4065 74.723C39.2325 74.269 39.3365 73.601 39.6385 73.237C40.5255 72.168 47.4135 69.129 55.0765 66.425C58.9955 65.042 65.4075 62.768 69.3265 61.372C73.2455 59.975 80.6135 57.363 85.7015 55.567C90.7895 53.772 98.3265 51.11 102.451 49.652C128.277 40.524 139.31 36.712 141.951 36.004C143.601 35.562 145.019 35.161 145.101 35.114C145.184 35.066 144.34 33.726 143.226 32.136C142.112 30.546 141.198 29.001 141.193 28.703C141.189 28.405 140.991 27.853 140.753 27.477C140.399 26.92 140.055 26.986 138.885 27.834C136.601 29.491 118.06 36.419 110.813 38.323C105.823 39.635 103.201 39.744 103.201 38.64C103.201 36.85 131.927 25.911 136.628 25.911C138.86 25.911 139.014 24.94 137.23 22.126C135.473 19.356 135.317 18.152 136.624 17.452C138.038 16.695 139.319 17.892 142.367 22.819C146.038 28.754 147.769 32.263 147.937 34.113C148.015 34.965 148.132 35.886 148.199 36.161C148.645 38.008 148.137 38.305 138.451 41.877C134.601 43.297 128.301 45.681 124.451 47.175C113.101 51.579 107.057 53.77 96.2015 57.415C90.5645 59.308 83.3635 61.787 80.2015 62.924C77.0395 64.061 71.8635 65.858 68.7015 66.918C65.5395 67.977 61.3765 69.405 59.4515 70.09C52.4785 72.574 44.4005 74.978 42.0875 75.26C40.1765 75.492 39.6615 75.389 39.4065 74.723ZM34.5765 62.62C33.6065 61.649 34.5985 60.945 40.7015 58.275C48.0175 55.074 55.0185 52.688 60.9515 51.373C62.9475 50.931 65.0755 50.199 83.9515 43.466C89.4515 41.504 95.2455 39.757 96.8265 39.584C99.4985 39.291 99.7015 39.341 99.7015 40.299C99.7015 41.474 97.6145 42.91 94.2015 44.083C92.9635 44.508 89.3635 45.782 86.2015 46.914C83.0395 48.046 71.4515 51.978 60.4515 55.653C41.9125 61.846 35.5235 63.567 34.5765 62.62ZM26.2765 52.64C26.7145 50.369 32.0125 48.373 83.4515 31.104C96.1015 26.857 109.263 22.388 112.701 21.171C121.018 18.228 127.398 16.516 130.451 16.41C133.828 16.291 133.805 16.283 133.233 17.351C132.692 18.361 126.043 21.798 121.951 23.182C120.576 23.648 110.226 27.168 98.9515 31.005C78.7545 37.879 58.1165 44.773 41.4515 50.213C31.8545 53.346 25.9595 54.289 26.2765 52.64ZM151.37 51.129C151.205 50.699 151.349 49.743 151.69 49.004C153.08 45.992 153.761 42.917 154.037 38.411L154.327 33.661L151.099 27.911C146.919 20.465 139.772 9.63899 137.057 6.63899L134.924 4.28299L131.332 4.88899C127.5 5.53499 126.701 5.37499 126.701 3.95899C126.701 0.866985 134.503 -1.27301 138 0.858986C140.717 2.51599 146.681 10.323 151.114 18.025C156.508 27.395 158.701 32.212 158.701 34.686C158.701 40.22 156.758 48.173 154.852 50.438C153.503 52.041 151.846 52.37 151.37 51.129ZM18.8945 40.819C18.3845 39.994 19.8515 38.845 24.1745 36.687C33.1105 32.225 51.0345 25.813 76.7015 17.895C80.4145 16.75 84.6895 15.405 86.2015 14.906C89.9305 13.675 115.117 6.68199 119.357 5.69999C123.59 4.71999 124.701 4.70898 124.701 5.64798C124.701 6.64498 122.813 7.55498 114.242 10.691C103.991 14.441 61.3765 28.451 46.7015 32.895C43.8135 33.77 38.9765 35.247 35.9515 36.177C21.9715 40.474 19.1555 41.241 18.8945 40.819ZM131.656 13.77C129.068 10.729 128.493 9.51298 129.228 8.62898C130.688 6.86998 132.798 8.08698 135.176 12.06C136.266 13.882 136.276 13.999 135.429 14.935C134.184 16.311 133.69 16.159 131.656 13.77Z" fill="white"/>
</svg>
