<svg width="384" height="425" viewBox="0 0 384 425" fill="none" xmlns="http://www.w3.org/2000/svg">
<path fill-rule="evenodd" clip-rule="evenodd" d="M184.432 424.02C177.12 423.834 159.486 422.824 155.682 422.374C153.62 422.13 150.02 421.798 147.682 421.637C142.119 421.254 129.055 420.018 123.682 419.366C114.252 418.222 97.8213 415.918 94.9323 415.335C93.5573 415.057 90.2943 414.51 87.6823 414.119C80.5443 413.05 69.1723 410.968 64.9323 409.952C63.8323 409.688 61.6953 409.202 60.1823 408.872C55.0663 407.754 53.9363 407.471 52.4323 406.933C51.6073 406.638 48.9073 405.811 46.4323 405.096C43.9573 404.381 41.0323 403.392 39.9323 402.899C38.8323 402.406 37.4133 401.841 36.7783 401.644C36.1443 401.448 35.4183 400.743 35.1663 400.079C34.8603 399.275 34.3143 398.872 33.5303 398.872C30.7813 398.872 22.9513 391.813 21.3993 387.936C20.7613 386.34 19.9793 385.543 17.8623 384.332C11.9813 380.967 6.04025 372.94 4.20025 365.872C3.87825 364.634 3.42625 362.947 3.19625 362.122C2.77825 360.621 2.11525 356.136 1.20225 348.622C0.756252 344.946 -0.138748 319.263 0.0182525 314.622C1.05125 284.02 3.44125 255.696 5.65925 247.747C5.94725 246.716 6.38525 245.141 6.63325 244.247C7.59725 240.769 9.26425 236.544 10.3323 234.873C10.9473 233.91 11.7843 232.454 12.1913 231.638C12.5993 230.822 14.7533 228.305 16.9803 226.046L21.0273 221.937L21.3593 216.78C21.5413 213.943 22.1303 207.797 22.6683 203.122C23.2053 198.447 23.8883 191.922 24.1853 188.622C26.0573 167.798 29.7333 142.815 32.5353 131.872C35.0563 122.028 36.5292 117.25 38.1162 113.768C38.6732 112.543 39.6093 110.322 40.1953 108.832C41.6383 105.163 43.3513 102.011 46.9663 96.3716C54.8603 84.0556 64.4413 75.3446 80.8433 65.5716C82.8173 64.3946 91.1723 60.2736 96.2503 57.9706C100.744 55.9336 108.948 53.4466 111.077 53.4776L113.222 53.5076L111.702 54.4326C110.866 54.9406 110.18 55.7536 110.179 56.2396C110.177 56.7246 109.384 57.6606 108.417 58.3186C107.451 58.9776 106.773 59.6296 106.911 59.7676C107.05 59.9056 109.192 59.7606 111.673 59.4456C121.089 58.2476 125.151 57.8926 132.182 57.6556C141.448 57.3426 156.23 58.1596 162.432 59.3266C163.807 59.5846 167.407 60.1786 170.432 60.6456C173.457 61.1126 177.057 61.8196 178.432 62.2166C184.567 63.9866 191.114 66.1306 193.182 67.0446C209.654 74.3296 220.902 83.2806 229.283 95.7716C232.753 100.944 239.682 114.13 239.682 115.561C239.682 115.975 239.881 116.436 240.124 116.586C240.368 116.737 240.688 117.481 240.837 118.241C240.985 119 241.596 120.972 242.196 122.622C244.063 127.766 245.811 134.492 246.712 139.997C251.432 168.856 252.149 179.64 252.518 227.372L252.779 261.122L256.605 261.115L260.432 261.109L260.52 257.615C260.866 243.78 260.641 190.724 260.221 187.286C259.942 184.996 259.587 180.31 259.432 176.872C259.177 171.179 258.625 164.857 257.927 159.622C256.973 152.464 256.585 149.862 256.175 147.872C255.92 146.634 255.465 144.159 255.164 142.372C254.864 140.585 254.411 138.447 254.159 137.622C253.907 136.797 253.001 133.422 252.147 130.122C251.293 126.822 250.164 122.941 249.638 121.497C247.109 114.552 246.031 111.905 243.275 105.872C242.835 104.909 240.92 101.534 239.02 98.3716C235.65 92.7626 233.461 89.9326 226.557 82.2596C224.701 80.1966 223.182 78.3656 223.182 78.1896C223.182 76.1496 231.954 83.1726 235.476 88.0336C236.706 89.7316 238.39 92.0216 239.218 93.1216C241.491 96.1436 244.282 100.698 246.582 105.136C248.915 109.637 251.682 115.694 251.682 116.298C251.682 116.519 252.275 118.145 253.001 119.911C253.726 121.677 254.513 123.853 254.751 124.747C254.988 125.641 255.41 127.216 255.688 128.247C255.967 129.278 256.439 131.247 256.739 132.622C257.038 133.997 257.464 135.909 257.686 136.872C261.365 152.859 263.266 168.476 264.9 196.122C266.182 217.819 265.524 247.117 263.581 254.872C262.995 257.209 262.296 259.409 262.028 259.759C261.126 260.936 262.169 261.058 267.971 260.453C271.146 260.122 273.952 259.98 274.206 260.137C274.461 260.294 276.416 259.87 278.55 259.195C280.685 258.519 284.345 257.476 286.682 256.876C292.208 255.459 300.641 252.744 304.432 251.162L307.432 249.91L307.3 244.516C307.227 241.549 306.949 235.86 306.682 231.872C305.842 219.315 304.706 201.779 304.463 197.622C304.335 195.422 304.003 191.147 303.726 188.122C303.45 185.097 303.109 180.822 302.969 178.622C302.335 168.653 298.074 139.272 296.188 131.872C295.943 130.909 295.479 128.659 295.157 126.872C294.532 123.404 294.378 122.817 292.471 116.622C289.789 107.91 287.943 103.322 284.333 96.3976C279.276 86.6996 277.4 84.0986 271.039 77.9586C266.392 73.4726 264.24 71.7736 256.932 66.8186C253.632 64.5806 250.857 62.5526 250.765 62.3106C250.674 62.0696 250.211 61.8716 249.737 61.8716C249.264 61.8716 246.864 61.0596 244.404 60.0666C237.258 57.1826 225.035 54.0806 213.978 52.3456C210.428 51.7886 207.362 51.2326 207.165 51.1106C206.571 50.7436 184.831 49.4156 178.932 49.3856C169.663 49.3386 153.367 50.2886 144.682 51.3816C131.851 52.9966 129.815 53.2936 123.932 54.4116C120.907 54.9876 117.194 55.6386 115.682 55.8606C114.17 56.0826 112.426 56.4266 111.807 56.6256C111.096 56.8546 110.682 56.7826 110.682 56.4296C110.682 56.1226 111.079 55.8716 111.564 55.8716C112.049 55.8716 113.6 55.4496 115.01 54.9346C116.42 54.4186 118.724 53.7216 120.128 53.3846C121.533 53.0476 122.682 52.5696 122.682 52.3216C122.682 52.0746 122.457 51.8716 122.182 51.8716C121.907 51.8716 121.682 51.5556 121.682 51.1706C121.682 50.2156 128.42 48.2276 137.986 46.3606L141.041 45.7646L141.337 41.5746C141.983 32.4146 146.814 22.2666 154.134 14.6916C159.958 8.66557 165.15 5.48957 173.432 2.88757C179.108 1.10357 179.686 0.978571 185.258 0.322571C191.004 -0.354429 194.89 -0.0254291 203.698 1.88057C209.661 3.17157 213.026 4.52857 217.536 7.46157C223.379 11.2616 228.105 16.3746 230.712 21.7156C233.276 26.9696 233.3 27.0336 234.627 32.1216C236.014 37.4436 236.679 42.9496 236.377 46.6216C236.241 48.2716 236.311 49.8556 236.531 50.1416C237.035 50.7946 242.058 52.9686 245.682 54.1026C247.194 54.5756 250.569 56.0456 253.182 57.3686C259.445 60.5406 259.304 60.5106 262.318 59.2866C267.9 57.0186 283.338 56.2016 293.682 57.6276C301.797 58.7466 303.651 59.1556 309.386 61.0946C321.975 65.3506 329.758 70.6986 338.169 80.8716C343.485 87.3006 346.532 92.4856 352.861 105.872C355.019 110.435 357.861 118.573 360.023 126.372C360.442 127.884 360.96 129.684 361.175 130.372C362.04 133.139 363.019 137.175 364.206 142.872C364.522 144.384 364.972 146.522 365.206 147.622C365.441 148.722 365.89 150.86 366.203 152.372C366.517 153.884 366.964 155.909 367.198 156.872C367.431 157.835 367.879 160.085 368.193 161.872C368.942 166.139 369.667 169.71 370.223 171.872C370.608 173.371 371.463 178.208 373.758 191.872C374.012 193.384 374.439 195.972 374.706 197.622C374.973 199.272 375.412 201.86 375.682 203.372C376.399 207.392 376.937 210.979 379.172 226.622C379.675 230.139 380.151 234.439 381.168 244.622C381.47 247.647 381.928 252.035 382.186 254.372C384.226 272.886 384.422 294.314 382.708 311.622C381.718 321.619 379.529 327.545 375.312 331.64C373.636 333.267 373.443 333.742 373.123 337.023C372.577 342.634 370.844 347.236 368.334 349.746C367.165 350.915 365.755 351.872 365.201 351.872C364.455 351.872 363.735 352.784 362.421 355.394C355.72 368.7 344.687 379.036 333.682 382.317C332.444 382.686 330.87 383.168 330.182 383.389C326.618 384.532 317.329 384.926 312.566 384.136C310.501 383.794 310.156 383.863 309.857 384.683C309.668 385.199 308.412 387.355 307.065 389.474C304.359 393.728 300.025 398.022 295.432 400.996C291.194 403.741 278.488 409.872 277.037 409.872C276.677 409.872 276.168 410.073 275.907 410.319C275.176 411.008 262.225 415.137 254.682 417.086C233.949 422.443 211.086 424.7 184.432 424.02ZM216.682 416.151C219.02 415.774 222.221 415.209 223.796 414.895C225.54 414.548 227.007 414.5 227.546 414.771C228.488 415.245 236.832 414.048 242.682 412.599C244.47 412.156 246.832 411.596 247.932 411.355C264.775 407.659 283.117 400.658 292.441 394.366C306.176 385.097 310.695 368.546 310.869 326.872C310.922 313.964 310.407 288.015 309.96 281.122C309.889 280.022 309.802 275.634 309.767 271.372C309.732 267.11 309.684 263.285 309.66 262.872C309.191 254.723 309.075 254.357 307.3 255.365C301.581 258.614 287.18 262.909 278.682 263.901C276.62 264.142 273.582 264.566 271.932 264.844C267.049 265.666 258.189 266.376 254.451 266.244C251.098 266.126 250.945 266.173 250.299 267.497C249.635 268.856 248.682 269.36 248.682 268.352C248.682 268.066 248.254 267.222 247.732 266.477C246.404 264.584 246.229 261.007 245.926 229.56C245.783 214.744 245.553 200.597 245.415 198.122C245.276 195.647 245.054 190.81 244.922 187.372C244.789 183.934 244.532 178.985 244.351 176.372C244.169 173.759 243.979 170.722 243.928 169.622C243.479 159.959 240.19 139.35 237.743 130.872C237.466 129.909 237.026 128.335 236.766 127.372C236.278 125.561 233.137 117.259 231.943 114.622C231.57 113.797 230.873 112.109 230.394 110.872C229.915 109.635 229.358 108.397 229.156 108.122C228.954 107.847 228.345 106.835 227.803 105.872C223.754 98.6776 221.636 95.8426 215.706 89.6776C210.199 83.9516 204.837 79.9686 198.226 76.6926C184.302 69.7926 173.559 66.8396 154.182 64.5866C146.387 63.6806 123.988 63.5226 121.185 64.3536C120.225 64.6386 118.425 64.8706 117.185 64.8696C114.406 64.8676 105.895 66.1386 100.104 67.4206C74.0562 73.1876 53.8543 91.6406 43.7783 118.872C41.7173 124.444 39.6503 132.109 38.1823 139.622C37.8603 141.272 37.1703 144.647 36.6493 147.122C35.5153 152.507 34.2562 160.886 33.9072 165.372C33.7672 167.159 33.5053 168.96 33.3253 169.372C33.1443 169.784 32.8373 172.034 32.6423 174.372C32.2143 179.51 31.3553 188.091 30.6893 193.872C30.4193 196.21 30.0893 199.472 29.9553 201.122C29.8213 202.772 29.4913 205.922 29.2213 208.122C28.5563 213.546 28.1153 218.872 28.3323 218.872C28.4303 218.872 29.9553 218.284 31.7213 217.566C41.8403 213.45 52.6343 212.203 68.1823 213.355C71.8953 213.63 80.1073 214.094 86.4323 214.387C92.7573 214.679 100.294 215.126 103.182 215.381C106.07 215.636 113.045 216.181 118.682 216.591C132.112 217.569 137.492 217.977 139.932 218.205C141.032 218.307 145.082 218.596 148.932 218.847C152.782 219.098 158.969 219.658 162.682 220.091C166.395 220.524 171.682 221.127 174.432 221.431C180.951 222.151 190.286 224.039 193.992 225.386C195.609 225.974 197.616 226.658 198.453 226.908C202.091 227.993 211.01 234.5 214.058 238.293C215.459 240.036 219.145 246.805 220.227 249.622C224.225 260.033 225.509 281.669 225.005 330.122C224.585 370.468 223.754 377.387 217.975 388.622C215.035 394.338 207.814 400.394 202.432 401.658C201.607 401.851 200.707 402.184 200.432 402.396C199.548 403.078 193.549 404.837 189.486 405.605C181.835 407.052 172.868 407.487 156.846 407.19C148.274 407.031 139.274 406.676 136.846 406.401C132.31 405.887 119.99 404.809 116.432 404.614C114.119 404.488 99.6553 402.957 97.4323 402.603C96.6073 402.471 94.2443 402.145 92.1823 401.878C90.1203 401.611 87.0823 401.162 85.4323 400.881C83.7823 400.599 80.6323 400.139 78.4323 399.859C71.9213 399.029 54.9333 396.25 50.9323 395.361C42.6503 393.52 38.9183 392.592 35.5123 391.524C33.3563 390.848 31.5123 390.376 31.4143 390.473C30.9933 390.894 32.1303 391.878 34.9363 393.52C41.4533 397.334 57.9223 402.254 71.1823 404.348C73.2443 404.674 75.7193 405.149 76.6823 405.404C77.6453 405.659 80.7943 406.227 83.6823 406.666C86.5703 407.106 90.1693 407.67 91.6823 407.92C93.1953 408.17 96.0073 408.619 97.9323 408.918C99.8573 409.216 102.782 409.674 104.432 409.936C107.896 410.486 112.449 411.084 119.182 411.874C121.795 412.181 125.62 412.631 127.682 412.875C129.744 413.119 134.132 413.545 137.432 413.823C140.732 414.101 146.02 414.558 149.182 414.838C156.733 415.508 176.667 416.824 182.682 417.051C191.697 417.39 212.394 416.842 216.682 416.151ZM179.875 400.333C181.219 400.08 183.185 399.872 184.243 399.872C189.912 399.872 201.088 395.911 205.945 392.181C214.705 385.453 217.007 376.907 218.482 345.622C218.926 336.192 218.724 285.214 218.24 284.73C217.901 284.391 216.868 284.601 215.084 285.372C211.207 287.048 207.948 287.81 205.813 287.541C204.715 287.403 202.683 287.696 200.932 288.246C198.491 289.013 197.961 289.368 198.089 290.155C199.156 296.748 198.429 306.116 196.664 308.503C195.609 309.931 195.59 310.163 196.147 314.804C196.466 317.454 196.853 320.297 197.007 321.122C198.079 326.853 198.979 340.383 198.469 343.1C198.042 345.378 195.522 348.265 192.936 349.44C190.725 350.444 185.313 350.669 181.976 349.894C179.174 349.245 177.337 347.174 176.406 343.616C175.676 340.827 175.695 339.936 176.681 330.622C177.263 325.122 177.937 320.06 178.178 319.372C178.42 318.684 178.727 317.11 178.861 315.872C178.995 314.634 179.335 313.019 179.617 312.283C180.058 311.133 179.924 310.685 178.669 309.105C177.865 308.094 177.058 306.471 176.876 305.499C176.412 303.026 176.98 293.874 177.638 293.216C178.711 292.143 178.23 291.007 176.557 290.667C175.663 290.485 169.307 290.128 162.432 289.873C155.557 289.618 148.582 289.29 146.932 289.143C145.282 288.997 138.42 288.531 131.682 288.108C118.726 287.294 104.904 286.181 97.4323 285.351C94.9573 285.076 88.7703 284.41 83.6823 283.871C67.1263 282.117 63.0723 281.59 47.1823 279.124C44.5703 278.718 40.6323 278.132 38.4323 277.82C36.2323 277.509 33.3073 277.056 31.9323 276.814C30.5573 276.572 27.9563 276.179 26.1513 275.941C21.8453 275.373 19.3883 274.182 18.7503 272.351C18.2683 270.971 18.1483 270.923 15.8323 271.197C14.5033 271.355 12.5263 271.238 11.4393 270.938C10.3523 270.638 9.30225 270.556 9.10725 270.757C8.91125 270.958 8.62025 273.822 8.45925 277.122C8.29825 280.422 7.89325 288.072 7.55925 294.122C6.24325 317.927 7.24925 348.801 9.66625 358.747C9.95025 359.916 10.3793 361.785 10.6203 362.901C11.3503 366.279 14.7103 372.462 17.3133 375.214C21.1693 379.291 29.0503 383.573 35.9323 385.329C37.3073 385.68 38.9943 386.147 39.6823 386.366C40.3703 386.586 42.2823 387.051 43.9323 387.401C45.5823 387.751 47.2693 388.199 47.6823 388.398C48.0953 388.596 51.3573 389.234 54.9323 389.816C58.5073 390.398 62.4453 391.09 63.6823 391.353C64.9193 391.616 67.6203 392.063 69.6823 392.347C74.1613 392.962 75.8873 393.209 80.1823 393.854C85.0703 394.587 98.2013 396.166 105.182 396.86C107.794 397.12 111.582 397.568 113.598 397.856C119.328 398.675 139.578 400.226 152.432 400.831C161.703 401.268 176.332 401.002 179.875 400.333ZM324.182 377.944C327.592 377.545 328.045 376.276 324.932 375.845C322.298 375.479 320.992 374.722 317.815 371.717C316.361 370.342 315.034 369.354 314.866 369.521C314.568 369.82 313.342 374.308 312.835 376.961C312.604 378.168 312.746 378.324 314.255 378.534C315.887 378.762 318.547 378.603 324.182 377.944ZM336.536 373.037C340.57 371.436 343.735 368.979 348.511 363.74C351.924 359.996 357.182 352.85 357.182 351.956C357.182 351.714 355.776 351.379 354.057 351.212C352.338 351.044 349.694 350.43 348.182 349.847C344.245 348.33 343.682 348.194 343.682 348.759C343.682 349.9 337.593 358.323 334.867 360.954C331.826 363.888 329.462 365.45 324.561 367.766C322.982 368.512 321.688 369.282 321.686 369.477C321.684 369.672 322.638 370.081 323.807 370.386C330.067 372.018 330.432 372.173 330.403 373.182C330.359 374.67 332.552 374.618 336.536 373.037ZM319.855 363.079C323.611 362.182 327.53 359.659 331.718 355.441C336.705 350.418 339.533 345.961 338.709 344.422C337.987 343.072 338.057 340.569 338.895 337.808C339.565 335.601 339.8 335.035 341.084 332.536C341.544 331.641 341.384 330.935 340.174 328.515C337.879 323.921 337.601 320.382 338.703 309.748C340.396 293.413 340.832 281.786 340.216 269.375C339.515 255.266 338.056 239.225 336.191 225.122C335.936 223.197 335.257 217.909 334.682 213.372C334.107 208.835 333.292 203.097 332.871 200.622C332.45 198.147 331.908 194.547 331.666 192.622C331.424 190.697 330.754 186.647 330.178 183.622C329.197 178.475 328.925 176.997 327.709 170.247C327.45 168.803 326.987 166.497 326.683 165.122C326.378 163.747 325.921 161.506 325.669 160.142C325.416 158.778 324.882 156.528 324.482 155.142C323.793 152.758 323.515 151.6 322.19 145.622C321.65 143.188 319.704 136.446 317.643 129.872C316.601 126.548 315.064 122.297 313.936 119.622C310.24 110.86 309.304 108.795 308.089 106.725C307.315 105.407 306.682 104.232 306.682 104.116C306.682 103.999 305.626 102.265 304.336 100.263C301.507 95.8726 297.161 91.1936 294.432 89.6006C292.377 88.4006 287.182 87.3886 287.182 88.1886C287.182 88.4346 288 89.8506 289.001 91.3356C290.542 93.6246 292.04 96.6156 294.15 101.622C296.74 107.765 297.586 109.921 298.073 111.622C298.388 112.722 299.311 115.759 300.125 118.372C302.656 126.499 305.201 139.826 306.618 152.372C306.882 154.71 307.216 156.96 307.36 157.372C307.505 157.784 307.74 159.922 307.884 162.122C308.171 166.534 308.785 173.345 309.889 184.372C310.288 188.36 310.865 194.659 311.171 198.372C311.478 202.085 311.943 207.485 312.205 210.372C312.467 213.259 312.774 217.759 312.886 220.372C313.725 239.899 314.274 248.864 314.923 253.622C317.377 271.633 318.573 342.125 316.687 357.512C316.031 362.855 316.204 364.081 317.555 363.68C318.037 363.537 319.073 363.266 319.855 363.079ZM360.708 344.823C361.017 344.246 361.677 342.615 362.174 341.198C362.672 339.781 363.239 338.228 363.434 337.747C363.752 336.964 363.427 336.872 360.36 336.871C358.475 336.871 355.244 336.515 353.182 336.08C347.154 334.809 347.204 334.799 346.335 337.372C345.917 338.61 345.37 339.875 345.12 340.184C344.404 341.067 345.166 342.351 346.612 342.695C347.338 342.868 348.157 343.171 348.432 343.369C349.195 343.917 353.633 344.933 356.422 345.198C357.791 345.328 359.01 345.533 359.13 345.653C359.602 346.125 360.172 345.825 360.708 344.823ZM191.283 343.57L192.834 342.768L192.517 334.445C192.246 327.324 191.044 314.747 190.478 313.111C190.37 312.801 189.155 312.703 187.378 312.861L184.456 313.122L184.142 315.122C183.97 316.222 183.555 320.384 183.221 324.372C182.887 328.36 182.404 332.702 182.148 334.022C181.396 337.894 181.581 340.951 182.677 342.747C183.619 344.293 183.815 344.372 186.699 344.372C188.505 344.372 190.359 344.047 191.283 343.57ZM367.846 338.679C368.114 336.918 368.074 336.825 367.427 337.679C367.035 338.198 366.707 339.286 366.698 340.097C366.676 342.106 367.477 341.118 367.846 338.679ZM365.733 329.507C368.513 328.272 370.962 326.212 372.381 323.913C374.341 320.74 376.682 312.144 376.682 308.119C376.682 307.017 376.911 305.329 377.191 304.369C377.713 302.58 377.944 281.82 377.497 276.872C377.36 275.36 377.075 271.422 376.863 268.122C376.65 264.822 376.454 261.785 376.427 261.372C376.4 260.959 376.226 259.834 376.04 258.872C375.854 257.91 375.582 254.985 375.436 252.372C375.021 244.942 374.694 241.51 373.89 236.122C373.48 233.372 372.926 229.322 372.659 227.122C371.409 216.829 369.002 200.661 368.081 196.372C367.519 193.759 366.885 190.313 366.671 188.714C366.458 187.114 365.932 184.189 365.502 182.214C364.396 177.131 362.891 169.666 361.702 163.372C360.988 159.595 360.338 156.536 359.684 153.872C359.38 152.634 358.929 150.536 358.681 149.209C357.906 145.06 353.76 128.801 352.475 124.872C347.566 109.867 341.414 96.9836 335.175 88.6466C331.092 83.1906 325.145 77.4256 320.32 74.2466C310.832 67.9966 303.142 65.6456 284.503 63.2996C280.268 62.7666 278.756 62.7956 273.753 63.5096C270.552 63.9666 267.595 64.2916 267.182 64.2316C265.891 64.0426 265.901 65.0926 267.196 65.7216C269.11 66.6516 277.154 74.6496 280.924 79.3716C282.791 81.7096 284.391 83.7066 284.481 83.8106C284.57 83.9146 285.662 83.5206 286.907 82.9356C288.764 82.0626 290.094 81.8736 294.302 81.8836C300.311 81.8976 302.94 82.4076 304.369 83.8356L305.404 84.8716H302.543C300.709 84.8716 299.682 85.0796 299.682 85.4506C299.682 85.7686 301.209 87.7376 303.075 89.8256C304.941 91.9136 307.283 94.7756 308.28 96.1856C310.534 99.3736 316.794 111.062 318.824 115.872C321.022 121.082 325.36 134.606 326.393 139.475C327.179 143.175 328.246 146.95 330.236 153.063C331.031 155.506 331.682 157.965 331.682 158.528C331.682 159.091 331.893 160.242 332.152 161.087C332.41 161.931 333.007 164.759 333.478 167.372C333.95 169.985 334.504 173.022 334.711 174.122C335.118 176.292 336.941 186.539 337.423 189.372C337.587 190.335 337.933 192.247 338.193 193.622C338.453 194.997 339.126 199.722 339.689 204.122C340.252 208.522 340.935 213.472 341.207 215.122C341.834 218.93 343.106 229.628 343.704 236.122C343.957 238.872 344.385 243.035 344.655 245.372C346.517 261.499 347.022 287.439 345.764 302.372C344.711 314.867 344.534 320.464 345.121 322.644C345.727 324.894 348.971 328.495 351.087 329.266C356 331.056 362.024 331.155 365.733 329.507ZM378.682 310.184C378.682 309.531 378.823 308.29 378.996 307.426C379.259 306.11 379.178 305.905 378.496 306.167C377.897 306.396 377.682 307.126 377.682 308.925C377.682 310.271 377.907 311.372 378.182 311.372C378.457 311.372 378.682 310.838 378.682 310.184ZM189.581 306.578C189.763 305.304 188.603 304.242 187.495 304.667C186.998 304.858 186.682 305.553 186.682 306.459C186.682 307.778 186.831 307.921 188.057 307.78C189.005 307.671 189.478 307.298 189.581 306.578ZM182.884 303.702C183.333 301.311 184.961 300.055 188.061 299.711C190.474 299.442 190.757 299.521 191.513 300.675C192.036 301.473 192.462 301.728 192.681 301.374C192.87 301.068 192.96 296.63 192.88 291.514C192.772 284.593 192.564 282.04 192.069 281.545C191.104 280.58 186.077 279.747 184.603 280.307C182.099 281.259 182.016 281.669 181.846 293.905C181.757 300.331 181.881 305.372 182.129 305.372C182.372 305.372 182.712 304.62 182.884 303.702ZM176.682 283.036C176.682 281.553 176.988 280.363 177.52 279.775C178.02 279.222 178.171 278.681 177.895 278.434C177.64 278.207 172.145 277.75 165.682 277.419C159.219 277.088 151.457 276.612 148.432 276.362C145.407 276.111 140.344 275.778 137.182 275.623C131.387 275.339 115.64 274.077 111.932 273.6C110.832 273.459 108.582 273.257 106.932 273.151C94.2063 272.338 86.9973 271.768 84.4323 271.372C82.7823 271.117 78.9573 270.669 75.9323 270.376C68.1603 269.625 62.3262 268.905 59.5192 268.349C58.1922 268.087 56.0013 267.872 54.6513 267.872C53.3013 267.872 51.2373 267.655 50.0643 267.39C48.8913 267.125 45.2323 266.532 41.9323 266.072C38.6323 265.612 34.0193 264.937 31.6823 264.572C25.2343 263.564 24.2473 263.636 23.6703 265.155C23.4013 265.86 23.1823 267.21 23.1823 268.155C23.1823 269.72 23.3123 269.872 24.6443 269.872C25.4483 269.872 27.3043 270.112 28.7693 270.405C32.4663 271.144 35.8323 271.727 39.9323 272.338C51.3343 274.038 54.7653 274.531 57.6823 274.887C59.4693 275.105 62.6203 275.516 64.6823 275.799C66.7443 276.083 69.6693 276.447 71.1823 276.608C72.6953 276.769 74.9453 277.032 76.1823 277.191C79.1033 277.568 96.0713 279.312 102.182 279.865C112.251 280.774 125.223 281.87 131.932 282.378C135.782 282.67 141.52 283.127 144.682 283.393C147.844 283.66 154.145 284.008 158.682 284.165C165.429 284.4 171.912 284.824 176.057 285.3C176.478 285.349 176.682 284.61 176.682 283.036ZM209.682 282.706L217.932 280.587L217.764 275.854C217.62 271.796 216.739 264.484 215.99 261.122C215.867 260.572 215.495 258.772 215.162 257.122C212.524 244.039 205.531 236.294 192.432 231.95C188.816 230.751 180.968 229.055 177.182 228.655C175.67 228.495 170.607 227.922 165.932 227.382C161.257 226.842 153.045 226.062 147.682 225.649C142.319 225.235 135.007 224.668 131.432 224.388C90.1343 221.158 61.4573 219.586 51.6823 220.016C44.6693 220.324 36.3293 221.83 32.7873 223.427C28.1743 225.508 20.7153 231.336 18.5403 234.559C16.8223 237.104 13.6823 243.581 13.6823 244.578C13.6823 244.982 13.4833 245.436 13.2403 245.586C12.9963 245.737 12.6783 246.481 12.5333 247.241C12.3873 248 11.9303 250.197 11.5173 252.122C11.1043 254.047 10.6263 256.458 10.4553 257.479C10.2833 258.501 9.89125 259.493 9.58225 259.684C9.00425 260.041 9.31625 252.057 9.98525 249.372C10.2853 248.166 10.2703 248.157 9.55425 249.122C8.71825 250.249 8.31925 252.353 7.86325 258.034C7.57125 261.679 7.61425 261.935 8.49125 261.784C9.28325 261.648 9.43225 261.939 9.43225 263.622V265.622L13.6333 266.979C15.9443 267.726 18.0253 268.219 18.2583 268.075C18.4913 267.931 18.6823 267.144 18.6823 266.326C18.6823 264.218 19.8423 261.709 21.2393 260.798C23.5613 259.282 26.5403 259.302 38.1823 260.911C49.1243 262.424 52.9123 262.917 60.6823 263.838C62.7443 264.082 66.5703 264.536 69.1823 264.847C77.7723 265.868 96.8503 267.815 101.182 268.112C110.632 268.76 112.607 268.921 116.682 269.37C120.612 269.803 129.872 270.498 140.182 271.136C146.822 271.546 159.228 272.373 167.182 272.936C171.17 273.218 178.707 273.606 183.932 273.797C196.273 274.249 197.488 274.852 198.014 280.792C198.152 282.348 198.352 283.903 198.458 284.247C198.768 285.252 200.923 284.956 209.682 282.706ZM313.06 255.333C313.178 253.749 311.627 250.747 311.016 251.379C310.887 251.513 311.009 252.926 311.286 254.521C311.839 257.706 312.848 258.168 313.06 255.333ZM376.541 239.004C376.426 238.244 376.329 238.747 376.325 240.122C376.321 241.497 376.415 242.119 376.534 241.504C376.653 240.889 376.656 239.764 376.541 239.004ZM374.971 219.545C374.694 218.821 374.547 218.782 374.201 219.341C373.629 220.266 374.145 221.609 374.815 220.939C375.09 220.664 375.16 220.037 374.971 219.545ZM253.105 60.4606C252.589 60.3726 252.296 60.0916 252.454 59.8356C252.612 59.5806 252.409 59.3716 252.003 59.3716C251.597 59.3716 251.178 59.1106 251.072 58.7926C250.94 58.3956 250.415 58.3476 249.406 58.6396L247.932 59.0656L249.307 59.2516C250.063 59.3546 250.682 59.7486 250.682 60.1276C250.682 60.5066 251.301 61.1186 252.057 61.4876C253.244 62.0676 253.474 62.0536 253.738 61.3906C253.939 60.8846 253.722 60.5666 253.105 60.4606ZM247.682 57.8716C248.288 57.4796 248.217 57.3856 247.307 57.3796C246.688 57.3746 246.182 57.5966 246.182 57.8716C246.182 58.4976 246.713 58.4976 247.682 57.8716ZM229.969 46.2466C229.813 44.8026 229.574 42.1596 229.439 40.3716C228.814 32.0886 224.995 22.9206 220.089 17.9286C218.904 16.7216 216.318 14.6446 214.343 13.3116C206.983 8.34557 193.652 5.43557 184.932 6.89157C183.007 7.21257 180.532 7.58857 179.432 7.72457C178.332 7.86157 177.218 8.17557 176.957 8.42257C176.696 8.66957 176.046 8.87157 175.514 8.87157C173.951 8.87157 166.462 12.8426 162.808 15.6106C158.981 18.5076 153.515 25.3696 151.179 30.2066C149.82 33.0236 148.774 36.2036 147.673 40.8716C147.445 41.8336 147.095 43.1596 146.894 43.8176C146.532 45.0006 146.557 45.0106 149.23 44.6956C150.716 44.5206 153.647 44.2326 155.744 44.0576L159.556 43.7376L159.815 40.6796C160.085 37.5016 162.047 31.0836 163.807 27.6216C164.935 25.4026 169.045 19.8806 169.586 19.8556C170.187 19.8286 172.81 17.3326 172.531 17.0536C172.384 16.9066 170.565 17.5936 168.487 18.5796C164.575 20.4356 163.682 20.6856 163.682 19.9236C163.682 18.3516 170.497 14.3666 174.805 13.4196C175.975 13.1626 178.282 12.6576 179.932 12.2986C184.056 11.4006 196.088 11.6306 199.14 12.6666C204.949 14.6376 207.841 16.6876 210.653 20.8296C214.808 26.9466 216.31 31.8136 216.56 39.9676L216.74 45.8126L219.336 46.3056C225.854 47.5436 228.676 48.1986 229.035 48.5576C229.9 49.4236 230.226 48.6166 229.969 46.2466ZM210.203 41.8676C209.962 40.0826 209.648 37.2546 209.505 35.5846C209.069 30.4976 206.445 25.0596 202.951 22.0066C200.63 19.9776 195.79 17.8716 193.448 17.8716C192.653 17.8716 191.269 17.6066 190.372 17.2816C189.105 16.8236 188.26 16.8316 186.587 17.3156C185.402 17.6586 183.645 18.1646 182.682 18.4396C179.153 19.4486 176.557 21.1326 173.444 24.4326C169.694 28.4076 168.976 29.8186 166.708 37.6756C166.144 39.6306 165.682 41.7456 165.682 42.3756V43.5216L174.307 43.1896C180.478 42.9516 185.493 43.0806 191.932 43.6416C196.882 44.0726 202.774 44.5876 205.026 44.7846C207.278 44.9816 209.288 45.3106 209.493 45.5156C210.336 46.3586 210.615 44.9226 210.203 41.8676ZM300.061 242.545C299.672 241.859 300.8 229.372 301.251 229.372C302.567 229.372 302.367 240.901 301.027 242.241C300.627 242.641 300.192 242.778 300.061 242.545ZM298.372 226.497C299.473 215.511 299.219 211.178 297.724 215.465C296.728 218.324 296.128 216.463 296.72 212.348C297.014 210.299 297.46 207.174 297.71 205.405C298.184 202.057 298.918 200.601 299.442 201.968C299.603 202.388 299.804 204.507 299.888 206.677C299.972 208.847 300.307 212.31 300.632 214.372C301.289 218.534 300.98 223.357 299.822 226.997C298.773 230.294 298.017 230.034 298.372 226.497ZM294.915 199.497C295.102 199.016 295.354 196.485 295.476 193.872C295.597 191.259 295.832 188.503 295.997 187.747C296.222 186.721 296.107 186.372 295.544 186.372C294.475 186.372 294.195 185.301 294.677 183.059C294.905 181.993 295.249 179.041 295.44 176.497C295.632 173.953 295.979 171.872 296.212 171.872C296.982 171.872 297.328 175.458 297.03 180.349C296.756 184.849 296.805 185.208 297.774 185.813C298.739 186.416 298.795 186.807 298.574 191.401C298.367 195.689 298.16 196.606 297.002 198.356C295.657 200.388 294.275 201.143 294.915 199.497ZM290.857 173.997C291.012 171.866 291.383 168.772 291.682 167.122C292.57 162.216 292.839 156.464 292.25 154.98C291.537 153.186 291.272 143.171 291.932 142.967C292.207 142.882 292.687 144.232 293 145.967C295.928 162.246 295.974 162.914 294.418 166.62C294.071 167.446 293.525 169.36 293.204 170.872C291.538 178.733 290.404 180.243 290.857 173.997ZM289.916 137.997C289.745 136.966 289.397 135.47 289.143 134.672C288.547 132.798 288.555 131.372 289.163 131.372C289.7 131.372 290.445 133.915 290.956 137.497C291.367 140.373 290.389 140.844 289.916 137.997ZM217.143 74.1326C214.002 71.9466 212.995 70.4596 214.874 70.7836C217.176 71.1806 221.506 75.2136 220.602 76.1186C220.465 76.2556 218.908 75.3616 217.143 74.1326ZM235.557 409.262C234.188 408.791 233.669 407.248 234.672 406.628C235.832 405.911 238.818 399.911 240.466 394.985C243.348 386.371 243.92 380.489 245.743 340.682C246.219 330.284 246.448 328.106 247.14 327.414C247.86 326.694 247.983 324.953 248.085 314.104C248.149 307.239 248.305 299.934 248.431 297.872C248.557 295.81 248.795 290.186 248.96 285.375C249.125 280.564 249.355 276.533 249.471 276.417C250.078 275.809 250.295 277.549 250.597 285.455C250.991 295.765 250.917 361.033 250.501 369.622C250.103 377.853 249.004 386.935 247.78 392.122C247.337 393.994 247.162 394.558 246.226 397.122C245.239 399.827 242.533 404.826 241.147 406.507C239.08 409.014 237.335 409.874 235.557 409.262ZM247.182 405.6C247.182 405.451 248.251 404.005 249.557 402.388C251.965 399.408 253.567 396.94 255.734 392.872C258.049 388.525 258.863 389.215 256.957 393.907C256.256 395.633 255.682 397.226 255.682 397.448C255.682 398.399 252.046 403.425 250.512 404.595C249.001 405.748 247.182 406.297 247.182 405.6ZM256.682 402.388C256.682 402.122 257.976 400.941 259.557 399.763C261.138 398.586 263.158 396.834 264.045 395.872C265.195 394.625 265.662 394.362 265.67 394.955C265.677 395.414 265.513 395.864 265.307 395.955C265.101 396.047 264.514 396.945 264.003 397.951C263.492 398.957 262.105 400.476 260.921 401.326C258.828 402.829 256.682 403.367 256.682 402.388ZM266.182 399.396C266.182 398.652 270.493 395.872 271.647 395.872C273.508 395.872 272.741 397.325 270.199 398.614C267.606 399.927 266.182 400.205 266.182 399.396ZM273.682 396.478C273.682 396.062 277.924 392.372 278.402 392.372C279.256 392.372 278.448 393.974 276.915 395.32C275.244 396.787 273.682 397.346 273.682 396.478ZM284.182 392.122C284.525 391.709 286.271 390.19 288.064 388.747C290.058 387.14 292.167 384.813 293.499 382.747C295.64 379.426 296.682 378.587 296.682 380.182C296.682 381.444 293.454 386.428 291.34 388.429C288.794 390.841 285.669 392.872 284.505 392.872C283.721 392.872 283.666 392.744 284.182 392.122ZM246.332 323.872C246.332 322.36 246.426 321.741 246.54 322.497C246.655 323.253 246.655 324.491 246.54 325.247C246.426 326.003 246.332 325.384 246.332 323.872ZM302.69 270.747C302.697 268.248 303.308 266.331 303.906 266.929C304.337 267.36 303.595 273.372 303.111 273.372C302.875 273.372 302.685 272.191 302.69 270.747ZM35.1992 206.247C35.2322 205.045 40.9373 194.196 41.4243 194.408C43.0863 195.132 37.8903 206.872 35.9083 206.872C35.5093 206.872 35.1902 206.591 35.1992 206.247ZM35.6823 195.74C35.6823 191.535 38.8593 183.804 40.2383 184.656C40.8403 185.029 36.7752 198.372 36.0592 198.372C35.8522 198.372 35.6823 197.188 35.6823 195.74ZM36.6823 180.897C36.6823 180.426 37.2072 177.569 38.2262 172.497C38.5912 170.68 38.9932 169.872 39.5322 169.872C40.1802 169.872 40.2553 170.312 39.9783 172.497C39.4653 176.531 37.9083 181.372 37.1213 181.372C36.8803 181.372 36.6823 181.158 36.6823 180.897ZM61.6823 99.8986C61.6823 98.6546 65.7023 92.7636 68.6253 89.7226C71.5753 86.6536 77.0443 82.5596 79.3073 81.7256C81.4233 80.9456 79.8852 82.9456 76.0042 86.0206C71.5492 89.5516 67.0782 94.1246 64.2952 97.9966C62.6862 100.236 61.6823 100.967 61.6823 99.8986ZM187.682 393.074C187.682 392.635 188.592 391.241 189.705 389.978C193.404 385.774 196.809 377.029 197.961 368.77C198.31 366.262 199.237 364.538 199.986 365.001C200.596 365.378 200.461 374.538 199.805 377.372C198.106 384.71 195.272 389.724 191.362 392.315C188.745 394.048 187.682 394.267 187.682 393.074ZM199.496 389.519C199.209 389.233 207.403 380.26 208.23 379.955C209.864 379.353 207.183 384.348 204.61 386.698C203.07 388.105 199.855 389.879 199.496 389.519ZM185.357 290.107C184.985 289.137 185.513 286.428 186.246 285.545C186.553 285.175 187.343 284.872 188.001 284.872C189.514 284.872 190.976 287.631 190.49 289.569C190.198 290.732 189.921 290.872 187.907 290.872C186.342 290.872 185.561 290.637 185.357 290.107ZM197.217 265.028C196.926 263.979 196.686 262.833 196.685 262.481C196.678 260.924 193.353 253.326 191.341 250.268C189.148 246.937 185.437 243.218 183.335 242.245C182.293 241.762 181.427 240.461 181.859 240.028C182.274 239.613 186.998 241.08 188.682 242.146C195.263 246.312 199.926 255.282 199.584 263.117C199.462 265.922 199.266 266.643 198.589 266.772C197.983 266.888 197.597 266.398 197.217 265.028Z" fill="white"/>
</svg>
