<svg width="245" height="238" viewBox="0 0 245 238" fill="none" xmlns="http://www.w3.org/2000/svg">
<path fill-rule="evenodd" clip-rule="evenodd" d="M79.7215 236.892C79.1175 235.319 88.1765 226.173 98.7885 217.642C107.462 210.669 122.884 200.473 133.038 195C134.55 194.185 137.476 192.608 139.538 191.497C141.6 190.385 143.963 189.105 144.788 188.652C145.613 188.2 147.075 187.516 148.038 187.134C149.001 186.752 151.038 185.593 152.566 184.56C155.9 182.305 175.492 172.716 182.038 170.136C183.506 169.557 185.644 168.657 186.788 168.136C192.092 165.72 204.95 160.959 209.788 159.619C225.862 155.17 236.527 153.565 238.025 155.37C238.463 155.898 239.22 156.023 240.73 155.816C242.299 155.601 242.993 155.73 243.489 156.327C244.327 157.336 243.933 157.485 239.538 157.815C230.065 158.526 213.654 162.646 201.088 167.466C199.273 168.162 196.55 169.187 195.038 169.743C191.946 170.88 185.062 173.698 181.288 175.372C179.913 175.982 177.776 176.909 176.538 177.433C175.3 177.957 169.45 180.769 163.538 183.681C157.626 186.594 150.167 190.255 146.963 191.816C143.76 193.377 139.429 195.77 137.339 197.135C135.249 198.499 132.601 200.094 131.455 200.678C129.698 201.575 122.788 205.935 117.985 209.179C110.36 214.329 106.115 217.327 102.538 220.09C97.7555 223.785 87.8085 232.481 84.8125 235.587C82.7285 237.747 80.2895 238.372 79.7215 236.892ZM52.3275 226.807C51.6265 224.982 57.0085 218.879 67.0965 210.058C70.9785 206.664 75.7595 202.689 77.7215 201.227C81.5485 198.373 82.1005 197.728 81.9355 196.303C81.7505 194.708 82.6555 190.431 83.4295 189.245C84.4635 187.662 83.9595 187.41 81.1825 188.121C79.8655 188.458 76.0205 188.857 72.6365 189.009L66.4845 189.284L65.0395 191.384C62.6395 194.874 58.5085 198.311 55.8755 199.011C52.6415 199.871 51.3765 199.8 48.8645 198.619C46.4925 197.504 44.9185 195.701 44.2955 193.386C43.7565 191.38 43.6925 186.258 44.1845 184.348C44.5615 182.881 44.4355 182.709 41.4635 180.624C37.4385 177.8 32.3395 172.976 28.7735 168.618L25.9455 165.161L24.3675 165.861C14.3615 170.296 13.7625 170.514 12.8835 170.048C12.3355 169.758 12.0395 169.137 12.1335 168.477C12.2505 167.652 13.4475 166.813 17.0385 165.038C19.6505 163.746 22.1825 162.678 22.6635 162.663C23.1445 162.648 23.5385 162.46 23.5385 162.245C23.5385 162.031 21.9655 158.937 20.0435 155.37C18.1205 151.804 16.5455 148.499 16.5435 148.025C16.5405 147.552 15.9555 145.864 15.2435 144.275C13.6255 140.666 12.4105 136.9 11.4045 132.386C10.9765 130.461 10.3245 127.536 9.95648 125.886C9.06448 121.88 9.04848 103.86 9.93648 102.275C10.5195 101.235 10.3605 101.037 7.42348 99.16C0.832481 94.948 -1.53552 89.326 0.988484 83.886C3.84948 77.721 11.7875 75.509 19.5215 78.723L22.0925 79.792L24.1905 77.8C26.9825 75.149 32.1985 71.168 35.2885 69.33C39.3885 66.89 48.9875 62.104 52.2475 60.875C53.9205 60.245 56.4135 59.275 57.7885 58.721C64.4575 56.032 71.2065 53.636 72.1085 53.636C72.6605 53.636 74.7805 53.076 76.8195 52.391C80.0475 51.308 86.3615 49.8 94.7015 48.122C97.0285 47.653 101.629 47.328 111.427 46.939C115.596 46.774 116.118 46.852 116.58 47.714C116.862 48.242 116.953 49.115 116.782 49.655C116.51 50.513 116.008 50.636 112.773 50.636C107.636 50.636 94.6605 52.369 86.8375 54.099C79.8855 55.637 64.2605 60.628 55.5385 64.098C50.7425 66.005 44.0435 69.215 39.9205 71.582C30.3595 77.069 30.0195 77.299 23.3035 82.805C22.2365 83.68 22.0635 83.684 19.7355 82.888C16.0355 81.622 10.6935 81.37 8.39848 82.353C5.06448 83.78 3.58248 87.867 5.24848 91.036C6.20048 92.846 9.89048 96.327 11.9645 97.371C13.4705 98.129 13.6095 98.375 13.3355 99.8C12.2305 105.54 12.6395 116.168 14.3175 125.316C14.7145 127.478 15.0435 130.628 15.0495 132.316C15.0565 134.352 15.4105 136.144 16.1005 137.636C16.6735 138.874 17.5445 141.035 18.0385 142.439C18.5315 143.843 19.4775 145.868 20.1405 146.939C20.8025 148.01 21.9745 150.236 22.7435 151.886C26.1415 159.179 38.4405 173.655 45.0505 178.144C49.0795 180.881 49.0565 180.829 48.1645 184.952C47.4945 188.052 47.4845 188.829 48.0905 190.888C49.3535 195.176 52.2125 196.188 56.4235 193.837C59.0615 192.364 59.4655 191.928 61.6275 188.217C63.4715 185.054 64.7945 184.279 67.0245 185.056C68.7695 185.664 74.1275 185.166 80.5385 183.799C82.6005 183.36 84.9635 182.885 85.7885 182.744C86.6135 182.604 88.4595 181.446 89.8905 180.172C93.4385 177.013 99.0835 174.211 104.113 173.114C109.971 171.835 112.591 171.156 113.393 170.707C113.898 170.424 113.01 169.35 110.087 166.711L106.089 163.101L104.253 163.869C103.242 164.291 101.192 164.636 99.6965 164.636C92.6355 164.636 85.5385 157.605 85.5385 150.608C85.5385 149.591 85.2575 148.535 84.9135 148.262C84.2885 147.766 80.6415 146.41 79.8905 146.394C79.6725 146.39 78.7445 147.849 77.8305 149.636C76.4955 152.243 75.9075 152.917 74.8525 153.044C72.6435 153.31 73.0605 151.929 77.1925 145.288C77.8295 144.263 74.2265 143.578 71.5735 144.219C70.3165 144.523 69.0745 144.966 68.8135 145.204C68.2105 145.752 66.1785 145.767 65.8435 145.226C65.3275 144.389 67.5665 141.642 69.6175 140.596C71.3505 139.711 72.3105 139.561 74.8935 139.768C76.6295 139.908 78.1645 139.837 78.3035 139.611C78.4435 139.385 78.1455 138.455 77.6425 137.543C76.6235 135.698 75.0085 131.554 73.9805 128.15C73.5485 126.72 73.3225 123.565 73.3525 119.4C73.3915 114.07 73.5955 112.346 74.4755 109.914L75.5515 106.942L73.7505 104.229C71.0835 100.214 68.2335 97.318 64.9565 95.295C62.0655 93.51 61.4465 92.428 62.6385 91.236C63.5385 90.336 64.6725 90.502 67.1655 91.895C69.6395 93.278 73.1195 96.769 75.2825 100.037C76.0465 101.191 76.8215 102.136 77.0055 102.136C77.1885 102.136 77.8575 101.07 78.4905 99.767C80.0505 96.555 85.2805 89.942 88.8925 86.615C90.5215 85.114 94.1165 82.353 96.8805 80.479C102.748 76.501 106.094 73.366 108.802 69.307C112.792 63.325 114.844 61.988 116.77 64.116C117.486 64.907 117.616 65.737 117.445 68.419L117.234 71.741L119.011 71.451C119.988 71.291 121.913 70.882 123.288 70.542C127.352 69.538 138.911 70.072 140.996 71.36C141.29 71.541 141.909 71.478 142.371 71.219C143.433 70.625 145.893 71.43 146.504 72.572C146.748 73.029 147.812 73.713 148.868 74.093C152.015 75.225 157.569 79.266 161.038 82.947C164.916 87.063 166.25 90.506 167.018 98.386C167.286 101.136 167.808 104.511 168.177 105.886L168.849 108.386L171.741 108.646C174.29 108.875 174.837 109.128 176.35 110.779C177.294 111.809 178.201 113.328 178.367 114.154C178.721 115.925 179.056 116.181 181.441 116.502C184.848 116.962 186.621 119.114 184.822 120.608C184.291 121.048 183.612 121.065 182.197 120.672C181.147 120.38 180.146 120.14 179.973 120.139C179.8 120.137 179.561 121.479 179.442 123.12C179.267 125.544 178.878 126.61 177.369 128.801C175.749 131.153 175.576 131.672 176.024 132.85C176.828 134.964 176.648 142.362 175.724 145.186C175.276 146.555 175.04 147.805 175.2 147.964C175.502 148.266 180.372 146.73 181.349 146.025C181.657 145.802 182.033 144.858 182.185 143.927C182.601 141.363 184.801 138.435 187.815 136.434C189.304 135.445 190.754 134.636 191.037 134.636C191.32 134.636 191.942 134.439 192.42 134.197C193.51 133.647 196.024 132.905 199.417 132.133C201.431 131.674 202.822 131.67 205.372 132.114C209.385 132.813 210.939 133.569 213.247 135.945C214.732 137.474 215.218 137.698 216.395 137.397C221.682 136.044 235.187 135.351 239.909 136.19C243.7 136.864 244.863 137.567 244.36 138.88C244.122 139.498 242.944 139.636 237.883 139.636C231.886 139.636 227.238 140.04 219.62 141.223C216.043 141.778 215.958 141.825 216.213 143.089C216.595 144.985 215.543 148.059 214.131 149.17C213.413 149.735 212.124 150.136 211.028 150.136C209.589 150.136 208.966 150.421 208.349 151.363C207.415 152.789 204.547 153.511 202.587 152.813C201.467 152.415 201.073 152.578 199.729 153.993C196.984 156.885 193.555 155.838 190.579 151.2C189.674 149.79 188.718 148.636 188.455 148.636C186.886 148.636 165.083 156.18 160.162 158.425C158.717 159.084 156.017 160.114 154.162 160.713C152.306 161.312 148.047 163.115 144.697 164.719C141.347 166.323 138.284 167.636 137.889 167.636C136.806 167.636 125.744 173.39 123.635 175.051C122.619 175.851 120.607 177.229 119.163 178.114C117.719 178.998 116.538 179.836 116.538 179.977C116.538 180.117 117.014 180.9 117.596 181.717C118.38 182.818 118.671 184.024 118.721 186.367C118.801 190.162 117.954 191.397 114.851 192.007C113.118 192.348 112.763 192.624 112.634 193.735C112.549 194.463 111.899 195.639 111.19 196.347C110.133 197.404 109.431 197.636 107.282 197.636C104.772 197.636 104.651 197.698 104.363 199.136C103.789 202.007 99.2355 203.553 96.1385 201.927C95.3965 201.537 93.9025 200.303 92.8195 199.185L90.8505 197.151L88.5695 198.475C82.5025 201.998 66.5965 215.4 58.8085 223.551C54.8575 227.686 53.0195 228.61 52.3275 226.807ZM100.782 197.655C101.174 196.419 100.392 194.881 98.2125 192.597C96.3305 190.627 96.3575 189.326 98.2895 188.841C99.8725 188.444 101.988 189.659 103.937 192.084C104.843 193.213 105.98 194.136 106.462 194.136C107.596 194.136 108.538 193.179 108.538 192.026C108.538 190.936 106.588 187.762 105.103 186.434C103.836 185.3 103.76 184.485 104.824 183.422C106.233 182.013 107.542 182.538 110.596 185.738L113.557 188.84L114.598 187.799C115.485 186.911 115.549 186.591 115.033 185.626C113.776 183.279 109.935 178.749 108.737 178.204C107.129 177.471 103.159 177.476 100.988 178.213C96.3315 179.793 89.5595 185.616 87.4125 189.886C86.1575 192.383 85.8285 194.636 86.7195 194.636C87.1375 194.636 87.6185 194.411 87.7885 194.136C88.3035 193.303 91.6925 193.579 93.2885 194.585C94.1135 195.104 95.5755 196.219 96.5385 197.063C98.5695 198.842 100.327 199.087 100.782 197.655ZM116.452 175.011C117.842 174.117 118.993 173.113 119.009 172.78C119.025 172.447 118.082 171.915 116.913 171.598C115.135 171.116 114.557 171.154 113.372 171.829C112.594 172.273 111.651 172.636 111.277 172.636C109.845 172.636 109.994 173.778 111.607 175.158C112.532 175.948 113.431 176.605 113.606 176.616C113.782 176.627 115.062 175.905 116.452 175.011ZM127.696 169.57C128.297 169.259 130.281 168.022 132.105 166.82C133.93 165.619 135.576 164.636 135.764 164.636C135.951 164.636 138.171 163.647 140.696 162.438C147.664 159.102 150.423 157.887 157.288 155.131C157.838 154.911 160.763 153.773 163.788 152.603C166.813 151.434 169.533 150.29 169.832 150.063C170.131 149.835 170.658 148.352 171.004 146.767C171.35 145.183 171.837 143.369 172.086 142.737C172.674 141.244 172.668 135.39 172.076 133.421C171.822 132.577 171.34 130.648 171.005 129.136C170.669 127.624 169.889 125.261 169.271 123.886C168.653 122.511 166.843 118.349 165.248 114.636C162.265 107.691 158.488 100.79 155.888 97.535C154.575 95.891 154.122 95.667 151.849 95.535C149.398 95.392 149.292 95.327 149.382 94.011C149.465 92.802 149.299 92.636 148.007 92.636C146.432 92.636 145.976 93.874 147.126 95.024C147.577 95.475 147.501 95.849 146.799 96.624C146.295 97.181 145.645 97.636 145.354 97.636C145.063 97.636 143.017 98.512 140.807 99.583C135.381 102.211 133.907 102.639 130.338 102.618C127.681 102.603 125.543 102.326 116.508 100.825C114.763 100.536 114.715 100.573 114.081 102.708C113.445 104.85 110.932 109.699 108.676 113.136C108.045 114.099 106.287 116.011 104.77 117.386L102.013 119.886L102.554 122.386C102.852 123.761 103.327 125.898 103.609 127.136C103.891 128.374 104.237 132.443 104.376 136.18C104.625 142.844 104.607 143 103.403 144.4L102.176 145.827L99.5405 144.731C96.4245 143.436 95.0065 143.367 92.8235 144.403C91.0555 145.242 89.5355 147.848 89.5435 150.028C89.5495 151.823 91.6005 156.111 93.0975 157.459C97.0595 161.026 100.873 161.629 103.712 159.136C106.128 157.014 107.093 157.206 109.771 160.34C112.841 163.934 116.503 166.38 121.867 168.421C127.085 170.406 126.359 170.263 127.696 169.57ZM197.438 151.036C198.411 150.063 198.13 148.003 196.747 145.969C195.278 143.807 195.427 142.808 197.287 142.342C198.975 141.918 200.171 143.014 201.818 146.495C202.859 148.696 203.3 149.169 204.192 149.042C205.734 148.823 205.874 146.621 204.502 144.179C203.098 141.681 203.476 140.517 205.623 140.729C206.942 140.859 207.412 141.271 208.365 143.136C210.267 146.856 211.08 147.426 212.009 145.691C212.747 144.312 211.344 140.604 209.281 138.48C207.955 137.115 207.038 136.661 205.054 136.388C201.31 135.873 196.698 136.575 193.15 138.199C191.425 138.989 189.817 139.636 189.577 139.636C189.017 139.636 186.038 143.018 186.038 143.653C186.038 143.919 185.982 144.297 185.913 144.494C185.844 144.691 186.817 144.789 188.076 144.712C190.191 144.582 190.501 144.724 192.201 146.605C193.211 147.724 194.038 148.863 194.038 149.137C194.038 149.732 195.867 151.636 196.438 151.636C196.658 151.636 197.108 151.366 197.438 151.036ZM88.9225 142.443C91.0005 140.304 94.4325 139.255 96.9835 139.979C97.9765 140.26 99.1265 140.579 99.5385 140.688C100.856 141.036 100.346 131.417 98.7265 125.372C97.2235 119.765 97.1165 118.361 98.0255 116.167C98.7515 114.416 100.656 114.055 101.489 115.511C101.939 116.299 102.163 116.212 103.734 114.636C105.582 112.783 110.538 103.337 110.538 101.669C110.538 100.477 111.472 98.197 112.434 97.042C113 96.362 113.394 96.3 114.462 96.72C115.191 97.008 117.026 97.422 118.538 97.642C120.05 97.861 122.638 98.424 124.288 98.892C127.73 99.868 132.527 99.698 134.777 98.519L136.204 97.771L133.657 96.925C130.658 95.929 127.038 93.445 127.038 92.383C127.038 90.919 131.419 91.779 136.084 94.159C138.146 95.211 139.543 95.124 142.22 93.773C143.534 93.111 143.626 92.888 143.337 91.077C142.972 88.799 143.669 87.136 144.988 87.136C146.314 87.136 148.302 88.86 149.046 90.654C149.607 92.011 149.853 92.159 150.988 91.829C153.38 91.133 154.894 91.474 157.034 93.186C158.202 94.121 159.916 96.067 160.842 97.511C161.768 98.955 162.753 100.136 163.032 100.136C163.696 100.136 163.685 100.031 162.553 95.54C161.135 89.912 159.551 87.179 155.685 83.687C150.224 78.756 144.317 76.069 135.788 74.638C134.413 74.407 132.341 74.059 131.185 73.864C128.428 73.4 120.118 74.874 116.648 76.443C113.44 77.893 113.216 77.903 112.529 76.619C112.1 75.817 112.211 75.149 113.054 73.462C113.641 72.285 114.047 70.697 113.955 69.934C113.8 68.646 113.464 68.936 109.288 73.966C105.754 78.222 103.607 80.245 99.2885 83.386C93.6355 87.498 85.2085 95.497 84.2465 97.665C83.9485 98.336 82.8275 100.686 81.7545 102.886C79.1585 108.21 78.6645 109.7 78.0045 114.183C76.8875 121.776 78.2935 129.22 82.3865 137.386C84.1895 140.983 86.3205 144.14 86.9385 144.131C87.1315 144.128 88.0235 143.368 88.9225 142.443ZM175.538 123.261C175.538 120.958 174.36 115.171 173.603 113.757C173.025 112.677 170.459 111.817 169.53 112.391C168.916 112.771 169.185 113.793 170.911 117.636C171.59 119.148 172.498 121.173 172.927 122.136C174.506 125.673 175.538 126.118 175.538 123.261ZM49.5575 176.042C48.9975 175.44 48.5385 174.782 48.5385 174.58C48.5385 174.378 47.4135 171.816 46.0385 168.886C44.6635 165.956 43.5385 163.376 43.5385 163.153C43.5385 161.708 34.5955 142.136 33.9355 142.136C33.6945 142.136 32.8575 142.609 32.0755 143.188C30.3155 144.489 28.5385 144.108 28.5385 142.43C28.5385 141.131 29.9635 139.636 31.2025 139.636C32.3235 139.636 32.2555 138.4 30.9925 135.79C29.9915 133.723 29.8565 133.634 27.9205 133.757C25.4075 133.917 25.0005 133.087 26.7825 131.435L28.1025 130.212L26.8835 127.549C26.2125 126.084 25.1715 123.761 24.5695 122.386C23.9675 121.011 22.8205 118.536 22.0205 116.886C21.2195 115.236 20.0845 112.569 19.4965 110.959C18.5085 108.254 18.4895 107.971 19.2425 107.218C19.8585 106.602 20.2685 106.532 20.9225 106.931C21.8835 107.517 38.3725 140.21 43.7215 152.136C46.1125 157.465 49.2995 165.544 50.8705 170.26C52.3305 174.642 52.5465 175.774 52.0385 176.385C51.2015 177.394 50.7615 177.334 49.5575 176.042ZM140.347 68.261C139.37 67.23 137.883 65.301 137.042 63.975C136.202 62.648 134.381 60.202 132.996 58.538C131.294 56.492 130.586 55.249 130.811 54.699C130.995 54.252 131.47 52.352 131.869 50.477C132.644 46.833 132.265 44.363 130.647 42.511C129.686 41.411 126.347 41.349 123.865 42.386C122.878 42.798 121.586 43.136 120.995 43.136C120.404 43.136 119.241 43.867 118.412 44.761L116.904 46.386L117.808 44.886C119.696 41.754 122.368 39.025 124.506 38.044C130.863 35.127 136.541 39.733 136.536 47.802C136.535 49.981 136.247 51.357 135.555 52.492L134.576 54.098L136.559 56.492C141.211 62.11 142.253 64.045 142.323 67.195C142.358 68.812 142.328 70.136 142.255 70.136C142.182 70.136 141.323 69.292 140.347 68.261ZM175.798 56.324C174.828 55.355 174.978 54.359 177.126 47.488C177.969 44.794 178.55 42.481 178.418 42.349C178.285 42.216 176.549 43.03 174.56 44.157C170.86 46.254 169.538 46.4 169.538 44.711C169.538 43.498 174.148 39.876 178.547 37.631C180.989 36.385 181.656 36.385 182.781 37.629C183.762 38.712 183.728 38.903 181.007 47.421C180.474 49.091 180.038 50.706 180.038 51.012C180.038 51.317 181.944 50.57 184.273 49.352C186.602 48.133 188.732 47.136 189.005 47.136C189.279 47.136 189.758 47.613 190.071 48.197C190.534 49.062 190.468 49.424 189.713 50.16C188.588 51.257 178.051 57.136 177.21 57.136C176.88 57.136 176.244 56.771 175.798 56.324ZM195.163 43.305C193.743 42.732 195.094 37.2 198.345 30.284C199.974 26.818 200.338 25.636 199.774 25.636C199.28 25.636 193.364 28.737 191.48 29.983C189.487 31.303 187.873 31.23 187.322 29.795C186.967 28.869 188.123 27.426 189.994 26.461C190.706 26.094 193.943 24.406 197.188 22.71C203.231 19.552 204.437 19.349 205.207 21.356C205.604 22.389 203.884 27.478 201.242 33.089C200.024 35.676 199.106 37.871 199.202 37.967C199.37 38.135 200.41 37.603 206.566 34.201C209.894 32.362 212.4 32.005 213.211 33.254C214.16 34.717 212.622 35.798 201.729 41.324C197.288 43.576 196.457 43.827 195.163 43.305ZM220.357 26.583C219.731 25.69 219.719 25.254 220.275 23.708C221.59 20.047 222.984 16.78 225.28 11.973C226.571 9.27 227.507 6.939 227.361 6.792C227.115 6.546 224.03 8.019 216.304 12.069C213.279 13.655 211.872 13.727 211.333 12.324C210.805 10.947 211.814 10.047 216.846 7.405C219.564 5.978 223.955 3.644 226.603 2.22C231.395 -0.358999 231.424 -0.365999 232.577 0.567001C233.677 1.458 233.702 1.616 233.08 3.696C232.72 4.9 231.888 6.947 231.232 8.244C230.575 9.541 230.038 11.145 230.038 11.808C230.038 12.471 229.675 13.315 229.232 13.683C227.674 14.975 224.677 22.096 225.919 21.553C226.129 21.461 227.535 20.799 229.044 20.082C234.807 17.342 239.853 15.136 240.358 15.136C240.647 15.136 241.273 15.567 241.75 16.094C242.44 16.857 242.504 17.265 242.063 18.089C241.516 19.112 239.107 20.636 238.037 20.636C237.583 20.636 232.082 23.163 224.336 26.93C222.322 27.91 221.219 27.813 220.357 26.583ZM99.6825 155.317C99.3495 155.179 98.6075 154.307 98.0355 153.381C97.2595 152.126 96.5845 151.656 95.3915 151.541C94.0615 151.412 93.7885 151.175 93.7885 150.151C93.7885 149.338 94.2095 148.706 95.0185 148.303C96.0635 147.781 96.5295 147.848 98.1365 148.751C100.65 150.164 102.926 153.408 102.206 154.552C101.648 155.437 100.679 155.731 99.6825 155.317ZM141.577 152.004C140.008 151.203 139.793 150.453 140.834 149.412C141.464 148.782 142.148 148.651 143.564 148.89C146.819 149.44 149.78 148.703 152.021 146.785C155.14 144.115 156.7 145.474 154.556 148.991C153.086 151.401 150.241 152.637 146.183 152.629C144.316 152.625 142.243 152.343 141.577 152.004ZM148.979 138.011C148.861 136.768 149.133 135.966 150.135 134.611C151.342 132.979 151.11 132.454 148.666 131.295C147.66 130.817 145.87 129.5 144.688 128.367C142.268 126.049 141.835 124.048 143.553 123.128C144.429 122.659 145.018 122.981 147.87 125.486C154.096 130.955 154.538 131.452 154.538 132.996C154.538 135.694 149.214 140.497 148.979 138.011ZM121.456 134.569C118.345 133.43 119.739 130.977 123.227 131.455C125.918 131.824 128.126 130.764 129.669 128.362C131.144 126.067 132.719 126.163 132.949 128.563C133.085 129.991 132.781 130.553 130.895 132.361C128.107 135.033 124.82 135.801 121.456 134.569ZM113.558 123.41C113.227 123.011 113.095 122.244 113.266 121.706C113.909 119.681 123.152 113.689 124.711 114.287C126.426 114.946 125.05 118.636 123.089 118.636C122.435 118.636 118.764 121.007 116.375 122.973C114.722 124.333 114.369 124.387 113.558 123.41ZM150.538 122.944C149.201 122.45 148.788 122.012 148.788 121.091C148.788 119.961 148.962 119.886 151.587 119.886C154.92 119.886 156.758 119.02 157.566 117.069C158.246 115.427 159.506 115.219 160.711 116.55C161.767 117.718 161.753 117.93 160.496 119.695C158.471 122.539 153.673 124.104 150.538 122.944ZM146.066 107.919C145.504 107.243 145.538 106.965 146.279 106.145C148.626 103.553 157.038 103.189 157.038 105.68C157.038 106.376 155.066 107.213 152.349 107.671C150.94 107.909 149.1 108.242 148.26 108.412C147.178 108.631 146.536 108.487 146.066 107.919Z" fill="white"/>
</svg>
