<svg width="378" height="318" viewBox="0 0 378 318" fill="none" xmlns="http://www.w3.org/2000/svg">
<path fill-rule="evenodd" clip-rule="evenodd" d="M309.38 316.904C309.262 316.786 305.906 316.217 301.922 315.639C286.699 313.433 269.938 309.46 257.949 305.215C251.984 303.104 251.428 302.458 251.428 297.64C251.428 295.51 251.643 293.115 251.906 292.318C252.169 291.52 252.508 289.856 252.661 288.618C253.013 285.765 253.647 282.134 254.404 278.618C254.73 277.106 255.421 273.168 255.94 269.868C256.459 266.568 257.361 261.281 257.944 258.118C259.104 251.817 259.727 248.312 260.431 244.118C260.882 241.431 262.553 233.607 263.421 230.118C264.675 225.078 265.386 221.408 265.154 221.176C265.011 221.033 263.832 221.319 262.535 221.812C261.239 222.305 258.828 223.115 257.178 223.612C255.528 224.109 252.603 225.003 250.678 225.6C248.753 226.196 245.828 227.016 244.178 227.421C242.528 227.827 240.336 228.41 239.306 228.717C237.699 229.197 237.291 229.148 236.431 228.37C233.891 226.072 235.856 223.814 241.448 222.605C243.775 222.102 246.353 221.475 247.178 221.213C249.053 220.618 260.406 216.104 263.428 214.753C264.666 214.199 267.14 213.117 268.928 212.348C273.823 210.241 273.783 210.315 272.464 206.022C271.538 203.009 270.341 199.218 270.173 198.763C270.152 198.705 267.899 199.778 265.168 201.148C262.437 202.518 258.847 204.059 257.19 204.573C255.533 205.087 251.928 206.289 249.178 207.244C243.086 209.359 241.734 209.755 234.428 211.562L228.678 212.985L228.719 214.926C228.799 218.883 231.069 232.564 231.862 233.868C232.465 234.86 232.29 240.881 231.62 242.204C231.248 242.938 230.306 243.993 229.527 244.548C228.578 245.223 227.645 246.765 226.703 249.212C225.93 251.223 224.535 254.502 223.603 256.5C222.671 258.497 221.445 261.31 220.879 262.75C220.312 264.19 219.094 266.83 218.172 268.618C216.179 272.486 212.428 280.485 212.428 280.869C212.428 281.018 211.506 283.104 210.378 285.504C209.25 287.904 208.065 290.43 207.745 291.118C207.425 291.806 206.353 292.766 205.361 293.253C203.67 294.084 203.374 294.088 200.617 293.33C196.123 292.094 193.931 291.594 190.928 291.122C189.416 290.884 186.603 290.205 184.678 289.613C182.753 289.02 180.503 288.358 179.678 288.142C178.853 287.925 176.828 287.251 175.178 286.644C171.902 285.437 169.872 284.758 164.928 283.212C154.846 280.061 148.623 277.61 147.553 276.368C146.227 274.829 146.115 273.06 147.236 271.35C147.892 270.349 148.457 270.118 150.249 270.118C152.08 270.118 152.526 270.31 152.883 271.251C153.195 272.071 154.26 272.709 156.746 273.563C167.054 277.106 168.933 277.716 171.678 278.411C173.328 278.828 175.465 279.534 176.428 279.979C178.779 281.066 187.133 283.643 189.928 284.142C191.166 284.364 194.315 285.122 196.928 285.827C202.773 287.404 202.844 287.405 203.424 285.88C203.683 285.198 204.915 282.544 206.161 279.981C207.408 277.419 208.428 275.164 208.428 274.97C208.428 274.776 207.915 274.618 207.287 274.618C205.72 274.618 189.43 270.03 183.928 268.04C182.416 267.492 180.447 266.825 179.553 266.558C178.659 266.29 177.928 265.898 177.928 265.686C177.928 265.196 184.679 263.603 186.721 263.612C187.569 263.615 188.43 263.787 188.637 263.993C188.844 264.199 189.951 264.385 191.096 264.406C192.242 264.426 194.866 264.949 196.928 265.567C198.99 266.185 201.69 266.898 202.928 267.151C206.076 267.796 208.983 268.48 210.285 268.883C211.26 269.184 211.553 268.875 212.728 266.297C213.461 264.686 215.607 260.013 217.496 255.912C219.386 251.811 220.829 248.351 220.702 248.224C220.575 248.097 219.515 248.375 218.348 248.842C215.863 249.836 210.036 251.767 207.178 252.542C206.078 252.841 202.928 253.743 200.178 254.548C193.226 256.581 188.85 257.583 174.678 260.386C171.103 261.093 167.278 261.887 166.178 262.151C165.078 262.414 162.94 262.853 161.428 263.126C159.916 263.399 157.553 263.852 156.178 264.133C153.694 264.64 148.754 265.215 139.178 266.109C136.428 266.366 131.141 266.919 127.428 267.337C119.575 268.222 106.588 268.316 87.9285 267.621C68.1785 266.886 60.2855 265.572 59.2385 262.845C59.0795 262.43 58.8025 260.241 58.6215 257.98C58.4415 255.718 58.1195 253.643 57.9055 253.368C57.6925 253.093 57.2695 249.83 56.9655 246.118C56.6615 242.406 56.2805 238.425 56.1185 237.273L55.8235 235.178L53.2515 235.523C46.9645 236.366 25.0505 235.533 16.5175 234.126C12.1535 233.406 9.27049 232.791 8.25349 232.362C6.83149 231.763 6.54049 232.756 6.46549 238.444C6.39749 243.608 6.40249 243.633 7.70849 244.13C9.63949 244.864 15.5485 245.999 20.6785 246.622C23.1535 246.923 26.4155 247.396 27.9285 247.673C29.4415 247.951 34.7285 248.306 39.6785 248.462C49.1275 248.759 50.4285 249.089 50.4285 251.184C50.4285 253.192 48.3145 253.769 40.0425 254.02C31.3015 254.286 24.2375 253.704 13.1785 251.805C9.05349 251.097 4.94649 250.403 4.05149 250.263C3.06649 250.109 1.92249 249.411 1.14949 248.493C-0.103507 247.004 -0.120507 246.869 0.121493 240.673C0.257493 237.205 0.580493 228.604 0.838493 221.559C1.27249 209.694 1.67649 204.004 2.96349 191.618C3.73449 184.198 5.42149 170.628 5.91649 167.868C6.16349 166.493 6.74749 162.893 7.21449 159.868C7.68149 156.843 8.23149 153.356 8.43749 152.118C8.64249 150.88 9.28149 146.943 9.85849 143.368C11.9265 130.53 13.5915 121.483 14.4585 118.368C14.7655 117.268 15.4295 114.118 15.9355 111.368C16.4415 108.618 17.2995 104.68 17.8435 102.618C18.3875 100.556 18.9835 97.7426 19.1685 96.3676C19.4845 94.0146 20.9425 87.0046 21.9235 83.1176C22.1665 82.1546 22.6185 80.2426 22.9285 78.8676C24.1365 73.5026 26.9835 64.4506 28.1965 62.1176C29.3775 59.8456 34.7495 53.8686 36.8765 52.4616C38.0265 51.7006 39.7885 50.1686 40.7925 49.0576C43.4805 46.0826 49.1815 41.5956 55.9955 37.0936C62.3895 32.8686 63.9285 32.3256 63.9285 34.2926C63.9285 34.9396 64.1755 36.1766 64.4775 37.0426C65.2525 39.2656 66.6995 39.1306 67.7025 36.7426C68.8585 33.9886 69.3695 35.5176 68.9135 40.3676C68.7065 42.5676 68.4005 46.6586 68.2325 49.4586C67.8705 55.5016 67.0785 54.8886 76.5695 55.8966C86.4725 56.9486 87.4285 57.1726 88.5785 58.7156L89.5835 60.0636L87.7155 68.1576C86.1615 74.8906 85.9595 76.3616 86.5125 76.9096C86.8785 77.2716 93.9095 80.9466 102.135 85.0756C110.362 89.2046 117.326 92.8156 117.61 93.0996C118.213 93.7026 119.763 93.7896 120.103 93.2386C120.232 93.0306 120.482 92.0746 120.658 91.1136C120.92 89.6906 120.745 89.0906 119.71 87.8676C109.223 75.4796 95.4875 55.5186 90.4395 45.3316C86.5325 37.4466 84.1715 29.2256 84.5395 24.7866C84.8795 20.6846 87.2885 18.0496 89.2285 19.6586C89.8065 20.1386 89.9045 20.8826 89.6545 22.8876C89.4635 24.4166 89.5915 26.7066 89.9655 28.4306C90.7515 32.0596 94.1715 40.2356 97.1745 45.6636C98.4145 47.9056 99.4295 49.8806 99.4295 50.0536C99.4345 50.9986 106.413 61.5026 111.158 67.7046C114.172 71.6446 118.109 76.8246 119.908 79.2176C123.457 83.9376 123.685 83.9896 124.899 80.3676C125.268 79.2676 126.125 77.1306 126.803 75.6176C127.481 74.1046 128.333 72.1926 128.695 71.3676C130.486 67.2886 137.928 47.8796 137.928 47.2896C137.928 46.9176 138.699 43.8576 139.641 40.4906C141.274 34.6516 142.394 29.1066 142.589 25.8796C142.676 24.4416 142.585 24.3776 139.928 23.9926C137.301 23.6116 128.868 23.4976 121.928 23.7496L118.678 23.8676V22.3676C118.678 21.0866 119.007 20.7066 120.928 19.7636C122.166 19.1556 123.854 18.6496 124.681 18.6386C125.508 18.6266 126.899 18.4126 127.771 18.1626C129.111 17.7786 137.414 18.1176 141.178 18.7106C142.271 18.8826 142.337 18.2776 141.661 14.2916C141.357 12.4966 141.451 12.1406 142.357 11.6556C144.545 10.4846 146.445 13.3926 147.947 20.2106C148.834 24.2376 147.895 32.0786 145.505 40.6176C145.235 41.5806 144.654 43.7176 144.212 45.3676C143.136 49.3846 141.109 54.6876 137.891 61.9076C136.799 64.3576 135.612 67.3276 132.414 75.6176C130.023 81.8176 125.866 91.9466 124.925 93.8676C124.249 95.2476 122.928 99.1346 122.928 99.7436C122.928 100.02 124.616 98.6416 126.68 96.6816C130.741 92.8226 131.733 92.3326 131.203 94.4456C130.994 95.2766 131.097 95.9136 131.479 96.1486C132.659 96.8786 130.805 99.7816 125.865 104.941C119.208 111.894 119.223 111.858 119.61 119.848C120.005 128.011 120.688 134.545 122.435 146.868C122.707 148.793 123.146 152.168 123.41 154.368C123.674 156.568 124.348 162.081 124.909 166.618C125.47 171.155 126.145 176.668 126.41 178.868C127.165 185.132 127.879 190.56 128.449 194.368C128.738 196.293 129.189 199.443 129.451 201.368C129.713 203.293 130.134 206.218 130.389 207.868C131.422 214.569 133.036 225.565 133.434 228.618C133.667 230.406 134.098 233.218 134.391 234.868C134.685 236.518 135.362 241.029 135.895 244.894C136.427 248.758 136.915 252.133 136.98 252.394C137.293 253.644 136.26 257.618 135.621 257.618C135.24 257.618 134.928 257.843 134.928 258.118C134.928 259.084 133.442 258.605 132.639 257.379C131.439 255.548 130.383 250.7 129.205 241.618C128.729 237.951 127.079 226.381 125.96 218.868C124.75 210.746 124.01 205.196 123.76 202.368C123.593 200.479 120.938 180.647 119.911 173.618C119.65 171.831 118.975 166.206 118.412 161.118C117.849 156.03 117.172 151.054 116.908 150.06C116.644 149.066 116.428 147.13 116.428 145.76C116.428 144.389 116.213 142.615 115.951 141.818C115.689 141.02 115.362 139.018 115.225 137.368C115.088 135.718 114.615 131.106 114.174 127.118C112.981 116.329 113.42 110.83 116.101 102.982C117.644 98.4656 117.684 98.1176 116.671 98.1176C116.255 98.1176 115.524 97.9056 115.046 97.6456C114.569 97.3856 110.69 95.5756 106.428 93.6236C96.6845 89.1596 91.0155 86.3556 87.1815 84.1046C85.5295 83.1356 83.5405 82.0186 82.7615 81.6226C80.4815 80.4656 79.2555 78.3586 79.6075 76.2046C80.0175 73.6946 80.6705 70.9306 81.6935 67.3676C83.1185 62.4066 83.1215 62.4146 79.6785 62.0506C78.0285 61.8766 74.4285 61.4806 71.6785 61.1706C62.0595 60.0886 62.4285 60.4606 62.4285 51.8286C62.4285 48.1796 62.6915 44.0526 63.0135 42.6576C63.3355 41.2626 63.4545 39.9766 63.2775 39.7996C62.8555 39.3786 55.8425 44.0456 47.5225 50.2846C40.5665 55.5016 36.1545 59.9276 34.5025 63.3466C33.0145 66.4266 30.5965 73.0696 29.9445 75.8676C29.6245 77.2426 28.9335 80.0556 28.4095 82.1176C27.5825 85.3746 26.6915 89.2836 24.9335 97.3676C24.6945 98.4676 24.2685 100.38 23.9875 101.618C23.7075 102.856 23.2435 104.993 22.9585 106.368C22.6725 107.743 22.0735 110.443 21.6265 112.368C21.1795 114.293 20.6045 117.106 20.3475 118.618C20.0915 120.13 19.6885 122.493 19.4515 123.868C19.2145 125.243 18.7945 127.718 18.5175 129.368C18.2415 131.018 17.6795 134.056 17.2695 136.118C16.8605 138.18 16.0395 143.018 15.4455 146.868C14.8525 150.718 14.0535 155.78 13.6695 158.118C13.2855 160.456 12.5005 165.63 11.9255 169.618C11.3495 173.606 10.7775 177.318 10.6525 177.868C10.3295 179.297 8.91149 193.91 8.49349 200.12C8.29949 203.008 7.99649 205.603 7.82149 205.886C7.64649 206.17 7.44949 210.661 7.38349 215.867L7.26449 225.332L12.9715 226.712C22.8545 229.102 27.2295 229.661 38.1785 229.931C43.9535 230.073 49.2405 230.388 49.9285 230.631C50.6165 230.875 52.0785 231.137 53.1785 231.216L55.1785 231.358L55.0445 228.113C54.9705 226.328 54.5885 222.955 54.1955 220.618C53.2935 215.256 51.7375 200.033 50.4375 183.868C49.8845 176.993 49.0915 167.88 48.6745 163.618C47.8615 155.304 47.1615 142.433 46.6475 126.368C46.3775 117.937 46.4515 116.015 47.1205 114.118C47.5575 112.88 47.9175 111.263 47.9215 110.523C47.9365 107.78 50.0275 108.34 50.6555 111.254C51.0485 113.078 51.7445 121.005 52.4225 131.368C54.2825 159.825 54.5375 163.276 55.6135 174.618C56.0435 179.155 56.6405 185.793 56.9395 189.368C57.2375 192.943 57.5905 196.88 57.7245 198.118C57.8575 199.356 58.1705 202.731 58.4195 205.618C58.6675 208.505 59.1145 212.893 59.4105 215.368C59.8995 219.454 60.4215 224.598 61.1855 232.868C61.7295 238.753 63.4645 252.924 64.0415 256.196L64.6285 259.524L69.9035 260.349C80.6115 262.026 110.027 262.789 120.788 261.67C123.478 261.39 128.603 260.919 132.178 260.622C141.488 259.849 147.494 259.187 152.928 258.336C160.071 257.217 171.947 255.103 173.928 254.597C174.891 254.352 178.603 253.579 182.178 252.88C189.917 251.367 191.468 250.994 194.428 249.937C195.666 249.494 197.424 249.129 198.335 249.125C200.988 249.114 208.547 246.774 217.31 243.253C226.805 239.437 226.521 239.809 225.266 232.894C224.814 230.405 224.339 227.693 224.211 226.868C224.083 226.043 223.727 224.018 223.422 222.368C223.117 220.718 222.647 217.906 222.379 216.118C221.623 211.092 220.98 207.128 220.431 204.118C220.155 202.606 219.723 199.905 219.47 198.118C219.218 196.331 218.743 193.63 218.415 192.118C218.087 190.606 217.619 188.412 217.374 187.243C217.129 186.074 216.701 184.049 216.423 182.743C216.146 181.437 215.722 179.13 215.482 177.618C214.834 173.533 213.615 167.077 212.172 160.084C211.466 156.665 210.679 152.293 210.423 150.368C210.167 148.443 209.716 145.743 209.421 144.368C209.125 142.993 208.199 137.93 207.361 133.118C204.844 118.647 203.794 112.913 202.399 105.993C201.535 101.707 200.968 98.1316 200.417 93.4886C199.81 88.3726 200.194 87.1176 202.368 87.1176C204.797 87.1176 205.143 87.8826 206.93 97.2426C207.206 98.6866 207.787 101.556 208.223 103.618C208.658 105.68 209.185 108.38 209.391 109.618C209.597 110.856 210.157 113.893 210.636 116.368C211.116 118.843 211.718 121.993 211.974 123.368C212.513 126.264 214.879 140.193 215.457 143.868C215.848 146.36 216.515 150.401 217.396 155.618C217.651 157.13 218.113 159.493 218.424 160.868C218.734 162.243 219.19 164.493 219.434 165.868C219.679 167.243 220.116 169.606 220.405 171.118C220.694 172.63 221.133 175.106 221.383 176.618C221.633 178.13 222.334 181.618 222.941 184.368C224.116 189.692 224.515 191.803 225.397 197.368C226.061 201.554 227.415 207.237 227.859 207.7C228.307 208.167 236.539 206.025 240.389 204.44C242.155 203.713 243.982 203.118 244.449 203.118C246.141 203.118 256.321 199.159 262.301 196.174C265.669 194.493 268.625 193.118 268.87 193.118C269.717 193.118 270.928 190.644 270.928 188.915C270.928 185.352 272.841 186.426 273.961 190.618C274.291 191.856 275.343 195.231 276.296 198.118C278.72 205.463 279.428 208.336 279.428 210.815C279.428 213.316 279.125 213.644 274.137 216.522L270.595 218.565L270.493 223.169C270.437 225.701 270.291 227.937 270.167 228.138C270.043 228.338 269.721 229.935 269.453 231.685C269.186 233.436 268.514 236.893 267.96 239.368C266.938 243.934 265.84 249.232 264.931 253.993C264.655 255.437 264.194 257.799 263.908 259.243C263.621 260.687 263.055 264.005 262.651 266.618C262.006 270.793 261.232 275.359 260.915 276.868C260.688 277.946 260.959 278.618 261.621 278.618C262.357 278.618 267.005 279.949 268.678 280.639C269.228 280.866 270.466 281.277 271.428 281.551C272.39 281.826 275.067 282.634 277.374 283.346C279.682 284.059 283.057 284.854 284.874 285.115C289.697 285.805 295.069 286.939 299.178 288.133C300.278 288.452 302.866 288.9 304.928 289.128C306.99 289.356 310.253 289.807 312.178 290.132C318.504 291.199 319.207 291.237 319.784 290.536C320.086 290.169 321.165 287.505 322.18 284.618C328.375 266.997 330.568 260.56 331.211 258.118C331.61 256.606 332.244 254.468 332.621 253.368C332.997 252.268 333.896 249.399 334.617 246.993C335.846 242.891 336.932 239.282 339.469 230.868C340.049 228.943 340.922 226.13 341.409 224.618C342.463 221.343 343.034 219.352 344.634 213.368C345.295 210.893 346.422 206.843 347.138 204.368C347.853 201.893 348.645 199.081 348.898 198.118C349.15 197.155 349.831 194.68 350.411 192.618C350.99 190.556 351.707 187.968 352.004 186.868C352.301 185.768 352.717 184.306 352.928 183.618C353.833 180.673 354.958 176.119 356.448 169.368C357.055 166.618 357.748 163.693 357.987 162.868C358.375 161.526 360.343 152.046 361.465 146.118C361.699 144.88 362.364 141.393 362.944 138.368C363.525 135.343 364.208 131.518 364.461 129.868C364.714 128.218 365.148 125.518 365.426 123.868C368.004 108.571 370.088 84.5436 369.233 79.9856L368.904 78.2256L365.29 77.9636C363.304 77.8196 360.778 77.5576 359.678 77.3816C350.931 75.9786 342.344 74.5026 340.678 74.1166C339.578 73.8626 337.328 73.3236 335.678 72.9216C334.028 72.5186 331.328 71.9236 329.678 71.5986C328.028 71.2746 325.378 70.6146 323.79 70.1316C322.202 69.6496 320.78 69.4546 320.629 69.6986C320.478 69.9426 320.734 72.0536 321.198 74.3906C322.409 80.4946 322.05 84.4526 319.861 89.1276C317.825 93.4756 315.46 96.3816 313.186 97.3316C310.753 98.3486 308.328 103.652 308.53 107.512C308.662 110.044 308.807 110.386 309.81 110.528C312.335 110.887 313.393 116.537 311.303 118.5C309.766 119.944 306.416 120.664 304.93 119.869C302.753 118.703 301.802 115.608 303.021 113.656C303.478 112.925 303.478 112.254 303.021 110.729C302.696 109.642 302.428 107.939 302.428 106.946C302.428 105.046 304.073 100.206 305.836 96.9176L306.883 94.9676L305.676 92.9096C304.314 90.5856 303.882 85.1366 304.816 82.0816C305.302 80.4946 305.963 73.3926 306.115 68.1276C306.164 66.4106 305.986 65.8506 305.352 65.7256C304.778 65.6126 304.339 66.1266 303.918 67.4016C303.584 68.4136 302.625 70.5066 301.788 72.0546C300.951 73.6016 298.971 77.4736 297.389 80.6576C295.282 84.8966 293.652 87.3856 291.301 89.9476C288.163 93.3666 288.082 93.5246 287.775 96.8196C287.448 100.317 285.586 104.415 283.444 106.354C282.885 106.859 282.428 107.785 282.428 108.41C282.428 109.733 279.433 113.118 278.262 113.118C276.788 113.118 272.754 110.158 272.096 108.591C271.516 107.212 271.574 106.868 272.672 105.129C273.975 103.065 275.312 102.355 276.932 102.869C278.506 103.369 280.653 100.846 281.629 97.3466C282.086 95.7086 282.681 93.8426 282.952 93.1996C283.352 92.2526 283.218 91.7616 282.237 90.5956C280.667 88.7296 278.804 80.8936 279.232 77.9556C279.792 74.1126 282.779 68.8716 286.564 65.0866C288.489 63.1616 289.926 61.4496 289.759 61.2816C289.592 61.1146 288.381 60.6856 287.068 60.3286C284.76 59.7006 278.155 57.7466 271.428 55.7006C263.406 53.2606 258.051 51.1606 257.732 50.3286C257.045 48.5376 264.556 47.1206 267.292 48.5246C267.78 48.7756 269.134 49.1266 270.303 49.3046L272.428 49.6296V47.8676C272.428 46.8996 272.855 45.1526 273.375 43.9876C273.895 42.8216 274.446 41.4866 274.598 41.0216C275.083 39.5416 277.21 38.4656 278.395 39.0996C279.447 39.6626 279.786 41.5236 278.996 42.3926C278.208 43.2606 275.763 50.1176 276.116 50.4706C276.983 51.3376 288.643 54.6076 289.323 54.1736C289.587 54.0056 289.957 53.0806 290.145 52.1176C290.333 51.1546 290.681 49.9176 290.918 49.3676C291.156 48.8176 291.476 47.8056 291.629 47.1176C292.443 43.4636 295.464 41.2756 296.358 43.6916C296.771 44.8086 295.504 51.1076 294.482 53.0166C293.614 54.6386 293.822 55.5296 295.24 56.2726C296.957 57.1726 299.984 56.1996 301.922 54.1246C303.963 51.9406 305.224 51.7666 310.806 52.9016C312.728 53.2916 314.613 55.4846 316.906 59.9966C318.363 62.8636 318.633 63.1246 320.211 63.2006C321.156 63.2466 322.314 63.3026 322.784 63.3256C323.335 63.3526 323.766 62.8366 323.999 61.8676C326.343 52.1346 326.35 52.1176 327.681 52.1176C330.102 52.1176 330.271 53.8846 328.56 61.2896C327.98 63.7996 327.922 64.8046 328.339 65.0616C328.652 65.2556 331.528 65.9316 334.732 66.5646C341.136 67.8296 341.407 67.7616 341.421 64.8816C341.433 62.5406 343.486 56.6216 344.469 56.0956C345.636 55.4716 346.685 55.9136 347.253 57.2706C347.814 58.6086 347.258 62.9496 345.87 68.0756C345.675 68.7926 346.711 69.1766 351.428 70.1376C352.666 70.3896 354.69 70.7376 355.928 70.9106L358.178 71.2246L358.28 66.6206C358.351 63.3726 358.617 61.6546 359.184 60.7896C360.174 59.2786 361.309 58.7976 362.076 59.5646C362.956 60.4446 362.52 66.4996 361.393 69.0566C360.862 70.2596 360.428 71.4106 360.428 71.6126C360.428 71.8146 361.609 72.1236 363.053 72.2996C364.497 72.4746 366.498 72.7556 367.499 72.9246L369.319 73.2306L369.594 71.0496C369.746 69.8496 370.138 67.2926 370.466 65.3676C370.794 63.4426 371.088 61.0966 371.12 60.1536L371.178 58.4396L364.928 57.3006C361.49 56.6746 357.778 55.9406 356.678 55.6686C355.578 55.3976 352.541 54.6916 349.928 54.1006C347.315 53.5086 343.716 52.6076 341.928 52.0976C340.14 51.5876 336.428 50.6806 333.678 50.0816C330.928 49.4816 327.553 48.6596 326.178 48.2536C323.775 47.5436 322.545 47.2266 318.178 46.1876C314.057 45.2076 296.098 40.4006 291.928 39.1616C290.14 38.6306 287.778 37.9596 286.678 37.6706C284.646 37.1356 281.584 36.3086 276.178 34.8326C274.528 34.3826 272.053 33.5976 270.678 33.0896C269.303 32.5816 267.166 31.9146 265.928 31.6086C264.69 31.3026 262.44 30.6276 260.928 30.1096C259.416 29.5916 257.305 29.1006 256.238 29.0176L254.298 28.8676L252.846 32.3676C252.047 34.2926 250.695 37.8916 249.84 40.3666C248.794 43.3926 247.191 46.5026 244.943 49.8666C240.915 55.8916 238.985 59.2856 234.63 68.0046L231.315 74.6426L232.319 77.0046C232.871 78.3046 233.482 80.7746 233.676 82.4936C233.869 84.2126 234.23 85.7446 234.478 85.8976C234.726 86.0516 234.931 87.0066 234.936 88.0226C234.941 89.2156 235.093 89.6336 235.365 89.2036C235.622 88.7996 235.785 89.6496 235.785 91.3796C235.785 92.9426 235.998 94.3656 236.258 94.5436C236.966 95.0306 239.205 100.031 240.34 103.66C241.44 107.174 242.574 109.815 246.613 118.265C249.756 124.841 250.133 125.895 250.004 127.779C249.946 128.632 250.11 129.065 250.418 128.875C250.726 128.684 250.931 129.216 250.936 130.213C250.941 131.466 251.061 131.686 251.428 131.118C251.788 130.561 251.927 130.881 251.97 132.368C252.02 134.112 252.079 134.208 252.428 133.118C252.657 132.403 252.851 132.216 252.879 132.682C252.907 133.129 253.265 133.776 253.678 134.118C254.091 134.46 254.428 135.14 254.428 135.629C254.428 136.118 255.285 138.397 256.333 140.693C257.381 142.989 258.71 146.106 259.284 147.618C262.383 155.77 263.434 158.716 264.457 162.118C265.078 164.18 266.189 167.226 266.926 168.886C268.648 172.757 269.238 177.912 268.189 179.923C267.298 181.631 267.234 182.819 267.96 184.176C268.252 184.721 268.421 185.75 268.335 186.463C268.175 187.795 266.189 183.28 263.125 174.618C262.395 172.556 260.914 168.393 259.833 165.368C258.753 162.343 257.407 158.405 256.842 156.618C256.277 154.831 254.911 151.118 253.807 148.368C252.702 145.618 250.95 141.005 249.914 138.118C246.337 128.154 240.516 113.146 238.181 107.868C237.816 107.043 236.808 104.456 235.94 102.118C235.073 99.7796 233.228 95.0556 231.84 91.6176C224.757 74.0696 224.858 74.3876 225.988 73.2576C226.897 72.3486 227.427 68.4786 226.759 67.6176C226.254 66.9666 226.292 66.9566 227.047 67.5486C227.524 67.9226 228.213 68.1156 228.577 67.9756C229.251 67.7166 230.428 64.4696 230.428 62.8686C230.428 61.0786 239.946 45.6136 242.432 43.3636C242.98 42.8686 243.428 42.1006 243.428 41.6586C243.428 40.7086 245.582 33.7976 246.6 31.4836C246.991 30.5946 247.598 29.0806 247.949 28.1176C249.652 23.4506 252.584 21.7606 256.928 22.9406C258.166 23.2766 260.44 23.8926 261.983 24.3096C263.525 24.7266 266 25.5296 267.483 26.0926C268.965 26.6566 270.589 27.1176 271.09 27.1176C272.864 27.1176 283.141 29.6656 294.428 32.9036C301.68 34.9836 307.442 36.5356 309.928 37.0796C311.464 37.4146 317.585 39.0446 323.678 40.7406C324.778 41.0476 325.903 41.4596 326.178 41.6586C326.453 41.8566 328.478 42.2696 330.678 42.5756C332.878 42.8816 336.14 43.5626 337.928 44.0876C339.716 44.6136 342.386 45.3976 343.861 45.8306C345.337 46.2636 346.906 46.6176 347.348 46.6176C347.79 46.6176 351.419 47.4136 355.414 48.3866C362.682 50.1566 363.484 50.3476 370.362 51.9326C372.63 52.4546 374.627 53.2696 375.555 54.0506L377.064 55.3196L376.728 60.9336C376.543 64.0206 376.031 68.1936 375.591 70.2076C375.076 72.5616 374.859 75.3846 374.984 78.1176C375.328 85.6536 375.063 100.234 374.493 105.118C373.09 117.138 371.88 126.58 371.448 128.868C371.188 130.243 370.521 133.956 369.965 137.118C368.588 144.948 366.861 153.516 365.908 157.243C365.645 158.274 365.212 159.962 364.949 160.993C364.685 162.024 364.226 163.993 363.926 165.368C363.321 168.15 361.623 174.924 359.355 183.618C357.231 191.761 357.132 192.115 356.289 194.618C355.873 195.856 355.262 198.106 354.931 199.618C354.6 201.13 353.676 204.618 352.876 207.368C350.919 214.094 350.661 215.003 349.961 217.618C348.658 222.488 344.704 235.38 342.678 241.368C341.747 244.118 340.624 247.83 340.181 249.618C339.305 253.158 337.816 258.297 336.414 262.618C335.923 264.13 334.128 269.755 332.424 275.118C329.455 284.465 329.027 285.67 327.267 289.618C326.838 290.58 326.227 292.38 325.909 293.618C325.591 294.856 325.157 296.093 324.945 296.368C324.734 296.643 323.987 298.443 323.284 300.368C322.581 302.293 321.221 305.781 320.262 308.118C319.303 310.455 318.268 313.043 317.962 313.868C317.225 315.861 314.907 317.118 311.971 317.118C310.664 317.118 309.498 317.022 309.38 316.904ZM313.328 309.368C313.501 308.281 316.219 300.907 316.967 299.5C317.922 297.702 317.511 297.266 314.553 296.94C312.972 296.765 310.497 296.397 309.053 296.12C307.609 295.844 305.247 295.391 303.803 295.113C302.359 294.836 299.828 294.39 298.178 294.124C296.528 293.857 294.278 293.439 293.178 293.195C286.159 291.639 283.28 290.882 280.178 289.78C278.253 289.096 275.328 288.329 273.678 288.075C270.843 287.638 263.526 285.625 261.036 284.596C259.782 284.078 259.708 284.18 259.199 287.118C259.032 288.08 258.651 290.106 258.352 291.618C258.052 293.13 257.777 295.246 257.742 296.318L257.678 298.269L261.928 299.663C271.569 302.827 280.985 305.363 288.928 306.938C290.99 307.347 293.69 307.893 294.928 308.151C300.138 309.238 309.599 310.529 311.674 310.436C312.755 310.387 313.214 310.09 313.328 309.368ZM257.773 271.243C257.647 270.762 257.544 271.156 257.544 272.118C257.544 273.08 257.647 273.474 257.773 272.993C257.898 272.512 257.898 271.724 257.773 271.243ZM313.365 89.8786C314.5 88.6476 315.428 87.2296 315.428 86.7286C315.428 86.2276 315.67 85.5766 315.965 85.2816C316.657 84.5896 316.29 76.4936 315.367 72.0716C314.654 68.6586 312.455 65.2336 311.396 65.8886C311.081 66.0826 310.921 67.3076 311.016 68.7956C311.244 72.3936 310.434 81.2376 309.805 82.0066C309.478 82.4076 309.394 84.2316 309.582 86.8916C310.016 93.0356 310.27 93.2366 313.365 89.8786ZM289.031 84.6546C289.955 83.5746 292.269 79.5806 294.174 75.7796C296.079 71.9776 298.291 67.7876 299.091 66.4676C299.89 65.1476 300.454 63.9766 300.342 63.8656C300.231 63.7546 299.309 63.6076 298.293 63.5386C296.358 63.4086 296.33 63.4276 291.014 68.3596C287.79 71.3506 284.928 76.4976 284.928 79.3056C284.928 82.6066 285.89 86.6176 286.681 86.6176C287.05 86.6176 288.106 85.7346 289.031 84.6546ZM308.763 59.3286C309.164 58.2836 307.829 56.9956 306.767 57.4026C305.931 57.7236 305.629 59.1506 306.262 59.7846C306.885 60.4076 308.459 60.1206 308.763 59.3286ZM143.106 233.122C141.533 232.487 139.428 229.487 139.428 227.88C139.428 225.038 142.982 221.118 145.557 221.118C147.555 221.118 150.104 223.178 150.837 225.386C152.458 230.265 147.735 234.99 143.106 233.122ZM146.348 227.635C146.531 226.381 145.667 225.558 144.598 225.968C143.763 226.288 143.728 227.717 144.535 228.524C145.383 229.372 146.149 228.997 146.348 227.635ZM137.318 197.687C132.919 195.49 133.359 189.231 138.085 186.788C139.335 186.141 139.739 186.154 141.693 186.9C144.421 187.942 145.428 189.417 145.428 192.368C145.428 194.761 144.454 196.791 143.023 197.384C140.589 198.391 138.905 198.48 137.318 197.687ZM140.678 192.583C140.678 191.836 140.347 191.318 139.801 191.213C138.677 190.996 138.126 192.402 138.947 193.391C139.814 194.435 140.678 194.032 140.678 192.583ZM269.987 184.407C269.657 183.604 269.474 182.592 269.579 182.157C269.71 181.616 269.96 181.827 270.37 182.829C270.7 183.632 270.882 184.644 270.777 185.079C270.646 185.62 270.397 185.409 269.987 184.407ZM276.905 183.743C276.631 182.987 276.201 181.918 275.949 181.368C274.663 178.561 274.807 177.189 277.464 166.877C277.959 164.957 278.28 163.303 278.178 163.202C277.79 162.814 276.924 163.727 276.167 165.322C275.734 166.235 274.912 167.485 274.34 168.098L273.301 169.213L272.258 168.17C270.467 166.379 270.991 163.905 274.836 155.991C278.758 147.914 279.423 146.455 280.915 142.658C282.864 137.699 283.893 135.739 284.706 135.427C286.223 134.845 287.393 135.119 287.967 136.191C288.539 137.26 288.464 138.367 287.411 144.368C287.122 146.018 286.681 148.606 286.431 150.118C286.181 151.63 285.761 153.88 285.499 155.118C285.236 156.356 284.779 158.606 284.482 160.118C284.014 162.503 283.156 166.495 281.422 174.368C281.18 175.468 280.845 177.043 280.678 177.868C279.242 184.948 278.027 186.841 276.905 183.743ZM131.32 160.243C128.446 156.948 128.976 152.153 132.412 150.376C134.835 149.124 136.346 149.418 138.488 151.559C141.068 154.139 141.195 156.709 138.876 159.351C137.47 160.952 137.078 161.118 134.704 161.118C132.832 161.118 131.865 160.868 131.32 160.243ZM135.708 154.666C135.278 153.971 134.087 153.956 133.664 154.64C133.487 154.927 133.623 155.501 133.967 155.915C134.514 156.574 134.684 156.577 135.32 155.941C135.72 155.541 135.894 154.967 135.708 154.666ZM172.428 151.288C168.374 150.66 160.935 148.375 158.428 146.989C155.966 145.626 154.62 144.281 153.628 142.19C152.253 139.293 150.968 133.252 149.414 122.368C148.825 118.243 148.224 114.53 148.078 114.118C147.668 112.956 147.382 106.999 147.676 105.757C147.821 105.147 148.357 104.424 148.867 104.151C150.123 103.478 156.153 102.306 161.928 101.612C164.541 101.298 167.465 100.843 168.428 100.6C171.358 99.8616 188.015 97.4796 190.649 97.4216C192.891 97.3726 193.22 97.5146 194.199 98.9546C194.911 100.002 195.387 101.701 195.6 103.955C195.777 105.832 196.169 108.943 196.473 110.868C197.217 115.583 197.726 119.693 198.468 126.977C199.079 132.971 199.069 133.143 197.897 136.092C196.723 139.049 194.008 142.618 192.932 142.618C192.572 142.618 192.499 141.975 192.721 140.743C193.153 138.347 193.279 138.15 194.727 137.6C196.081 137.085 196.284 136.036 195.203 135.139C194.113 134.234 191.428 120.165 191.428 115.359C191.428 114.152 191.228 112.648 190.984 112.017C190.739 111.385 190.285 109.209 189.975 107.18C189.664 105.152 189.317 103.343 189.204 103.16C189.091 102.977 186.34 103.235 183.089 103.733C179.839 104.232 175.715 104.84 173.928 105.086C172.141 105.332 170.003 105.655 169.178 105.804C168.353 105.953 166.215 106.296 164.428 106.567C162.641 106.837 159.417 107.332 157.264 107.666L153.348 108.273L153.618 111.071C153.937 114.365 154.689 119.759 155.367 123.618C155.632 125.13 156.071 127.831 156.343 129.618C157.289 135.844 158.306 138.7 160.3 140.743C161.33 141.797 162.736 142.795 163.425 142.959C164.114 143.124 165.323 143.583 166.111 143.98C168.436 145.153 172.778 146.118 175.731 146.118C178.153 146.118 178.649 146.299 179.855 147.619C180.863 148.722 181.374 148.972 181.783 148.563C182.09 148.256 182.641 148.106 183.009 148.229C183.383 148.354 182.464 149.15 180.928 150.031C178.218 151.586 176.238 151.878 172.428 151.288ZM129.52 126.604C127.417 126.131 125.614 124.445 124.901 122.287C123.806 118.969 127.176 114.618 130.842 114.618C132.79 114.618 135.191 116.636 135.939 118.902C136.444 120.433 136.37 120.949 135.348 123.002C133.914 125.881 131.884 127.136 129.52 126.604ZM131.643 121.279C131.825 120.805 131.632 120.107 131.197 119.672C130.506 118.981 130.351 118.981 129.66 119.672C128.721 120.611 129.194 122.118 130.428 122.118C130.919 122.118 131.466 121.741 131.643 121.279ZM156.96 117.906C156.395 117.226 156.416 116.96 157.089 116.216C158.357 114.815 161.089 114.014 162.618 114.595C163.338 114.869 163.928 115.41 163.928 115.798C163.928 117.648 158.187 119.385 156.96 117.906ZM135.156 92.1856C135.428 91.3306 135.291 91.1176 134.464 91.1176C133.729 91.1176 136.957 87.6216 145.68 78.9716C152.417 72.2916 157.928 66.5596 157.928 66.2346C157.928 65.6616 156.418 62.5316 152.718 55.4326C151.734 53.5426 150.928 51.4506 150.928 50.7836C150.928 49.6576 153.047 47.1176 153.986 47.1176C154.213 47.1176 155.586 46.5836 157.038 45.9316C158.49 45.2786 162.097 43.6756 165.053 42.3676C171.051 39.7136 171.012 39.7746 169.477 35.5116C167.548 30.1546 164.928 21.5836 164.928 20.6276C164.928 20.0216 164.303 19.3216 163.303 18.8066C162.409 18.3466 159.428 16.3686 156.678 14.4096C145.16 6.20663 145.118 6.18964 136.611 6.01164C129.977 5.87364 120.346 6.56863 115.13 7.56263C113.781 7.81863 110.99 8.28163 108.928 8.58963C104.902 9.19163 103.725 9.46263 97.9285 11.1176C86.9995 14.2386 84.7575 15.7646 75.9805 26.0576C73.1805 29.3396 70.5075 32.1726 70.0395 32.3516C69.1285 32.7016 67.4285 31.0586 67.4285 29.8296C67.4285 29.1316 71.3745 24.4016 79.8335 14.9586C85.6085 8.51263 86.1375 8.20364 96.1785 5.42164C108.095 2.12064 128.833 -0.514367 138.178 0.0856332C146.925 0.647633 150.34 2.06763 159.678 9.02263C166.384 14.0166 167.428 15.0416 167.428 16.6306C167.428 18.3136 169.5 19.4856 170.451 18.3396C171.246 17.3816 172.531 17.4286 176.43 18.5596C190.56 22.6566 207.475 31.9296 212.314 38.2336C214.707 41.3506 219.163 48.5406 220.451 51.3676C225.055 61.4646 225.558 63.3006 224.236 65.1876C223.792 65.8216 223.428 66.7396 223.428 67.2286C223.428 68.1806 223.033 68.3276 222.09 67.7286C221.767 67.5226 219.475 63.3056 216.995 58.3576C211.685 47.7626 209.586 44.4366 205.617 40.3186C201.124 35.6586 197.45 33.3986 186.178 28.3626C185.353 27.9936 182.878 27.0996 180.678 26.3746C178.478 25.6496 175.725 24.6206 174.559 24.0876C173.394 23.5536 172.212 23.1176 171.934 23.1176C171.302 23.1176 171.274 24.2586 171.891 24.8926C172.49 25.5076 176.182 36.3006 176.63 38.7436C177.166 41.6706 175.938 43.7116 172.785 45.1256C171.352 45.7686 168.603 47.0136 166.678 47.8936C164.753 48.7726 161.884 50.0706 160.303 50.7776C158.722 51.4836 157.428 52.2026 157.428 52.3746C157.428 52.5466 158.067 53.6276 158.848 54.7776C161.766 59.0716 163.928 63.5816 163.928 65.3716C163.928 66.3536 163.49 68.0166 162.954 69.0666C161.914 71.1056 155.747 77.1336 153.053 78.7446C152.159 79.2786 151.428 79.9056 151.428 80.1376C151.428 80.5106 141.594 89.5076 138.768 91.7196C138.169 92.1886 137.035 92.7256 136.249 92.9136C134.956 93.2206 134.85 93.1516 135.156 92.1856ZM40.0715 80.4926C39.8075 80.1486 39.0875 78.5176 38.4705 76.8676C37.8535 75.2176 36.7715 72.5936 36.0675 71.0376C35.3635 69.4806 34.9265 67.8446 35.0965 67.4006C35.5355 66.2556 36.8065 65.8936 37.7215 66.6536C38.6475 67.4216 41.0585 72.6066 42.2535 76.3986C43.0665 78.9746 43.0635 79.1396 42.1885 80.1066C41.1255 81.2806 40.7315 81.3526 40.0715 80.4926ZM253.447 49.1396C252.881 48.7816 252.826 48.3586 253.206 47.2716C253.834 45.4776 255.836 45.1336 257.158 46.5936C258.052 47.5826 258.052 47.6526 257.178 48.6176C256.215 49.6816 254.65 49.9006 253.447 49.1396ZM257.762 45.7846C257.059 45.0806 257.475 41.1356 258.525 38.5596C260.594 33.4826 261.802 32.5446 263.648 34.5846C264.443 35.4626 264.454 35.6816 263.773 36.9596C263.36 37.7336 262.63 39.4926 262.151 40.8676C260.729 44.9476 258.935 46.9576 257.762 45.7846Z" fill="white"/>
</svg>
