<svg width="255" height="162" viewBox="0 0 255 162" fill="none" xmlns="http://www.w3.org/2000/svg">
<path fill-rule="evenodd" clip-rule="evenodd" d="M1.91078 160.334C0.84378 159.657 0.248779 158.803 0.0297794 157.634C-0.247221 156.159 1.45178 142.9 3.31378 132.001C3.59578 130.351 4.01678 127.651 4.24978 126.001C4.48378 124.351 4.91778 121.538 5.21678 119.751C6.08678 114.541 6.64078 110.886 7.49078 104.751C7.92778 101.589 8.49678 98.3101 8.75378 97.4661C9.01178 96.6211 9.22178 95.1361 9.22178 94.1651C9.22178 93.1941 9.43578 91.7481 9.69678 90.9511C9.95778 90.1531 10.2938 88.3761 10.4448 87.0011C10.5958 85.6261 10.9278 83.2641 11.1818 81.7511C11.7438 78.4151 13.7108 65.5551 14.2418 61.7511C14.7708 57.9571 16.5598 46.8111 17.3918 42.1191C17.7818 39.9201 18.4708 37.8051 18.9808 37.2421C20.0028 36.1121 22.8338 35.2321 25.8868 35.0941L27.9598 35.0011L28.3238 32.4661C28.8878 28.5371 30.1308 24.1801 30.9448 23.2811C31.3498 22.8331 32.5348 22.1611 33.5768 21.7881C34.6188 21.4151 36.8538 20.4801 38.5428 19.7111C43.4908 17.4571 53.1978 14.3681 58.9718 13.2111C67.7568 11.4501 76.6598 10.2411 80.7218 10.2581C86.2048 10.2801 96.5128 11.7121 101.722 13.1761C110.529 15.6511 116.228 18.5491 121.299 23.1301C123.466 25.0871 123.685 25.9681 122.203 26.7611C121.371 27.2071 120.664 27.0151 118.328 25.7081C108.272 20.0841 99.5008 17.3621 86.2668 15.7601C78.6128 14.8331 74.6408 15.1401 62.9718 17.5571C59.6718 18.2401 55.9238 18.9971 54.6428 19.2381C51.9968 19.7361 38.6198 24.1081 36.7218 25.0951C36.0338 25.4521 34.9478 25.7461 34.3068 25.7481C33.2758 25.7511 33.1798 25.9221 33.4688 27.2351C33.7878 28.6911 32.6588 40.5711 31.7328 45.5011C31.4738 46.8761 31.0098 50.1391 30.7008 52.7511C30.3918 55.3631 29.7188 60.3131 29.2038 63.7511C28.6888 67.1891 27.6778 74.1631 26.9568 79.2511C26.2358 84.3391 25.0038 92.8891 24.2188 98.2511C22.7428 108.341 21.6018 116.274 20.6948 122.751C20.4068 124.813 19.9668 127.739 19.7178 129.251C18.9118 134.145 18.7038 136.251 19.0238 136.251C19.1958 136.251 22.0678 134.921 25.4048 133.296C35.4088 128.422 50.3298 123.772 61.6778 121.99C70.6528 120.581 87.8798 121.367 95.7218 123.543C100.758 124.94 101.936 125.37 107.472 127.827C113.408 130.462 120.664 135.431 122.948 138.426C125.117 141.268 123.479 142.266 120.213 140.092C112.687 135.083 101.344 130.29 92.2218 128.265C89.6098 127.685 86.5718 127.007 85.4718 126.759C80.1778 125.563 59.6738 126.768 52.2218 128.712C51.2588 128.963 49.4588 129.429 48.2218 129.747C41.8138 131.394 32.3128 134.755 26.9648 137.267C24.7618 138.302 22.0048 139.405 20.8398 139.719C19.2408 140.15 18.7218 140.536 18.7218 141.295C18.7218 142.421 17.5808 144.806 16.0548 146.87C15.4978 147.623 15.1398 148.319 15.2578 148.418C15.5258 148.642 20.0218 148.09 26.2218 147.073C33.9078 145.811 42.6288 144.659 47.7218 144.234C66.9948 142.623 72.4278 142.264 81.8308 141.978C95.3828 141.565 104.584 142.228 112.222 144.167L117.972 145.626L120.176 144.345C123.149 142.617 129.341 142.224 133.413 143.504C136.072 144.341 136.275 144.34 138.082 143.478C144.698 140.325 160.213 137.574 181.801 135.724C193.853 134.691 233.135 136.096 238.304 137.744C240.153 138.334 240.361 137.894 239.221 135.802C238.681 134.812 237.793 132.932 237.248 131.626C236.439 129.686 236.028 129.251 235.001 129.251C234.31 129.251 232.221 128.673 230.358 127.968C223.824 125.491 212.93 122.232 207.722 121.195C200.817 119.82 197.085 119.511 187.472 119.516C173.734 119.524 171.632 119.826 161.222 123.291C151.973 126.37 144.45 130.45 135.895 137.029C130.575 141.121 129.799 141.534 129.398 140.489C128.898 139.186 130.205 137.236 134.191 133.336C142.672 125.039 155.426 118.575 169.472 115.455C184.167 112.191 206.785 114.222 219.972 119.989C220.797 120.35 222.259 120.802 223.222 120.994C225.911 121.529 228.794 122.552 231.883 124.067C233.429 124.825 234.827 125.313 234.99 125.15C235.314 124.826 233.724 113.386 232.258 105.501C231.747 102.751 231.079 98.8131 230.774 96.7511C230.469 94.6891 229.559 88.8391 228.751 83.7511C227.944 78.6631 227.039 72.7011 226.74 70.5011C226.441 68.3011 225.99 65.6011 225.738 64.5011C225.273 62.4741 224.23 56.5941 221.926 43.0011C221.226 38.8761 220.43 34.2641 220.157 32.7511C219.641 29.8891 219.036 25.0091 218.449 18.9641C218.174 16.1411 218.274 15.1011 218.943 13.8071C219.927 11.9051 220.81 11.9921 221.287 14.0381C221.875 16.5671 223.233 21.3651 223.468 21.7451C223.592 21.9461 224.994 22.2531 226.583 22.4281C233.642 23.2071 233.785 23.3171 234.661 28.6111C235.321 32.6051 235.868 35.7751 236.692 40.3761C236.95 41.8201 237.416 44.6891 237.726 46.7511C238.037 48.8131 238.485 51.2881 238.721 52.2511C238.958 53.2141 239.411 55.6891 239.727 57.7511C240.043 59.8131 240.421 61.9511 240.566 62.5011C240.711 63.0511 241.015 64.7381 241.241 66.2511C241.467 67.7641 242.098 71.3631 242.643 74.2511C244.543 84.3141 246.107 93.0211 247.178 99.5011C247.451 101.151 248.374 106.439 249.229 111.251C250.084 116.063 250.993 121.351 251.248 123.001C251.504 124.651 251.953 127.239 252.247 128.751C254.114 138.368 254.896 145.342 254.281 146.9C253.227 149.569 252.945 149.595 220.722 149.949C204.359 150.129 186.359 150.484 180.722 150.738C175.085 150.991 164.383 151.469 156.941 151.8L143.409 152.4L142.34 154.032C141.006 156.066 138.441 158.011 136.472 158.481C133.651 159.155 123.976 159.716 120.472 159.408C116.534 159.062 114.034 157.796 112.197 155.216C111.082 153.649 111.017 153.63 108.018 153.946C103.462 154.426 94.1488 155.162 88.2218 155.512C85.3338 155.682 80.2718 156.012 76.9718 156.245C73.6718 156.479 65.7968 157.021 59.4718 157.449C53.1468 157.877 45.1598 158.466 41.7218 158.758C31.0988 159.66 16.2698 160.71 9.72178 161.024C4.04978 161.296 3.32778 161.232 1.91078 160.334ZM13.4718 155.943C16.2218 155.755 19.1468 155.556 19.9718 155.502C20.7968 155.448 23.0468 155.26 24.9718 155.086C26.8968 154.911 30.2718 154.649 32.4718 154.504C34.6718 154.359 38.7218 154.022 41.4718 153.756C44.2218 153.49 50.6348 153.037 55.7218 152.749C60.8098 152.462 66.9968 152.017 69.4718 151.761C73.6688 151.327 77.3538 151.086 100.222 149.751C113.367 148.984 112.354 148.846 115.519 151.839L118.255 154.428L125.646 154.372C134.687 154.305 136.393 153.774 138.932 150.241C140.553 147.984 140.832 147.813 143.318 147.562C146.8 147.21 158.782 146.557 179.472 145.594C181.397 145.504 198.103 145.241 216.597 145.009C235.091 144.777 250.222 144.52 250.222 144.438C250.222 144.357 249.771 142.353 249.219 139.987C248.308 136.083 247.44 131.39 246.215 123.751C245.973 122.239 245.53 119.763 245.232 118.251C244.933 116.739 244.362 113.476 243.962 111.001C242.571 102.389 241.081 93.6421 240.301 89.5011C240.042 88.1261 239.12 83.0631 238.253 78.2511C237.386 73.4391 236.449 68.2641 236.17 66.7511C235.892 65.2381 235.562 63.3261 235.436 62.5011C235.31 61.6761 235.001 60.2141 234.749 59.2511C234.497 58.2881 233.917 55.0261 233.461 52.0011C233.005 48.9761 232.414 45.3761 232.149 44.0011C230.952 37.8051 230.642 35.7321 230.318 31.7791L229.972 27.5571L227.031 26.4201L224.09 25.2831L224.44 27.6421C224.632 28.9391 224.98 31.1261 225.212 32.5011C225.444 33.8761 225.996 37.4761 226.438 40.5011C226.88 43.5261 227.462 47.1261 227.732 48.5011C228.002 49.8761 228.568 53.5891 228.991 56.7511C229.414 59.9131 229.957 62.9511 230.197 63.5011C230.674 64.5891 232.518 74.8281 233.035 79.2511C233.211 80.7641 233.534 82.3481 233.751 82.7721C233.968 83.1961 234.39 85.4461 234.689 87.7721C235.585 94.7561 235.708 95.2511 236.553 95.2511C237.14 95.2511 237.272 95.5981 237.077 96.6211C236.933 97.3741 237 98.3371 237.227 98.7611C237.454 99.1841 237.871 101.099 238.154 103.016C238.437 104.933 239.139 109.201 239.713 112.501C240.288 115.801 241.075 121.089 241.462 124.251C241.849 127.413 242.301 130.563 242.466 131.251C243.406 135.169 243.712 138.336 243.236 139.224C242.421 140.748 238.863 140.899 218.655 140.267C194.02 139.496 181.029 139.996 161.222 142.48C154.051 143.379 153.204 143.512 150.472 144.173C149.372 144.44 146.174 145.097 143.366 145.634C140.558 146.172 137.636 147.02 136.874 147.519C135.741 148.262 134.353 148.44 129.231 148.498C125.788 148.537 121.96 148.819 120.722 149.124C118.892 149.576 118.192 149.538 116.972 148.924C115.969 148.419 111.222 147.817 102.647 147.107C90.7828 146.125 88.8918 146.091 77.3968 146.653C62.7358 147.371 52.2268 148.12 47.7218 148.769C45.9338 149.027 42.4468 149.47 39.9718 149.754C37.4968 150.039 33.8968 150.483 31.9718 150.742C30.0468 151.001 25.3768 151.472 21.5938 151.789L14.7158 152.365L12.9688 151.033C10.9068 149.46 10.7648 148.237 12.1918 144.332C12.7258 142.872 13.0478 141.38 12.9088 141.017C12.6268 140.282 13.1858 136.25 14.7138 128.001C15.2738 124.976 15.8498 121.489 15.9938 120.251C16.1378 119.013 16.4548 117.214 16.6988 116.251C16.9438 115.288 17.5128 111.689 17.9638 108.251C18.4148 104.813 19.2278 98.7381 19.7708 94.7511C20.3128 90.7641 20.8458 86.4361 20.9538 85.1351C21.0628 83.8341 21.2858 82.5521 21.4508 82.2851C21.7588 81.7871 22.5868 74.8211 22.9718 69.5011C23.0908 67.8511 23.4308 65.1511 23.7268 63.5011C24.8008 57.5141 25.5138 51.2511 25.1228 51.2511C24.3678 51.2511 24.6898 47.7321 25.4718 47.4321C25.8848 47.2741 26.2218 46.5381 26.2218 45.7981C26.2218 45.0571 26.4188 44.2371 26.6598 43.9761C26.9008 43.7151 27.2458 42.3201 27.4268 40.8761C27.7318 38.4441 27.4328 37.7061 26.5138 38.6261C26.3088 38.8321 25.3148 39.2331 24.3058 39.5161C22.5488 40.0101 22.4568 40.1461 22.1168 42.7661C21.7798 45.3581 20.2768 55.6741 19.2048 62.7511C18.9338 64.5381 18.5138 67.3511 18.2718 69.0011C17.3218 75.4791 15.2118 89.1571 14.7238 92.0011C14.4408 93.6511 13.7628 98.1511 13.2168 102.001C12.6708 105.851 11.9868 110.464 11.6968 112.251C10.2188 121.363 9.60778 125.271 9.23278 128.001C8.89078 130.492 7.64278 138.335 6.52778 145.001C6.38978 145.826 6.00678 148.301 5.67678 150.501C5.34578 152.701 4.89178 154.865 4.66678 155.31C4.08578 156.458 4.60978 156.772 6.67378 156.512C7.66278 156.388 10.7218 156.132 13.4718 155.943ZM109.972 140.77C108.431 140.134 99.6378 137.936 94.9718 137.022C90.9998 136.243 80.4198 135.282 75.7218 135.273C70.6348 135.263 59.8128 136.284 55.2218 137.206C45.5308 139.154 45.4718 139.16 45.4718 138.292C45.4718 137.003 55.3838 134.428 65.4718 133.095C70.1538 132.477 87.3038 132.365 91.2218 132.928C94.5688 133.408 98.8058 134.253 100.222 134.721C100.91 134.949 102.485 135.429 103.722 135.787C107.945 137.012 113.222 139.803 113.222 140.812C113.222 141.353 111.323 141.328 109.972 140.77ZM137.463 140.736C137.002 139.99 137.543 139.41 140.7 137.266C148.046 132.278 162.518 127.323 172.222 126.475C174.284 126.294 180.359 126.185 185.722 126.231C193.372 126.297 196.01 126.497 197.972 127.158L200.472 128.001L190.972 128.34C182.513 128.641 177.961 129.043 172.222 129.995C159.642 132.083 153.862 133.898 140.617 139.922C138.94 140.685 137.639 141.021 137.463 140.736ZM125.987 133.798C124.839 130.181 123.91 107.987 123.781 81.0931C123.746 73.8011 123.513 68.2951 123.216 67.7401C122.922 67.1911 122.58 59.6991 122.4 49.8981C122.158 36.7421 122.234 32.5031 122.741 30.7511C123.1 29.5141 123.342 28.1191 123.281 27.6531C123.219 27.1861 123.516 26.3991 123.94 25.9031C131.077 17.5671 132.408 16.2601 137.005 13.0801C139.737 11.1891 143.547 8.90809 145.472 8.01009C149.85 5.96809 158.401 2.72709 160.722 2.22909C161.685 2.02309 164.384 1.44209 166.722 0.937087C171.913 -0.182913 189.216 -0.340913 193.722 0.691087C205.448 3.37609 209.586 4.71809 216.644 8.12509C219.774 9.63509 220.246 10.4501 218.817 11.8781L217.774 12.9211L214.373 11.8711C212.502 11.2931 209.622 10.3281 207.972 9.72709C203.6 8.13209 197.084 6.47109 192.222 5.71109C186.63 4.83809 173.889 4.81309 169.722 5.66809C161.279 7.40009 159.215 7.90109 155.761 9.05809C147.912 11.6881 138.621 16.9911 130.016 23.7531C128.268 25.1271 126.499 26.2511 126.084 26.2511C124.945 26.2511 124.719 27.4161 125.288 30.3491C126.902 38.6691 128.782 123.038 127.551 131.876C127.145 134.789 126.538 135.534 125.987 133.798ZM101.222 103.486C96.0798 101.471 86.3508 99.2511 82.6678 99.2511C81.0498 99.2511 80.5318 98.6381 80.9728 97.2471C81.7738 94.7251 96.2438 96.9991 104.195 100.895C106.929 102.235 107.472 102.708 107.472 103.751C107.472 105.514 106.27 105.463 101.222 103.486ZM40.9218 103.551C40.3218 101.988 42.0718 100.684 46.3058 99.5381C52.9968 97.7261 54.7868 97.3501 59.4718 96.7651C65.6908 95.9891 67.4718 96.1491 67.4718 97.4821C67.4718 98.2021 67.0058 98.5581 65.7218 98.8201C64.7588 99.0161 61.0188 99.7631 57.4108 100.481C53.8018 101.198 49.3018 102.252 47.4108 102.822C42.2308 104.385 41.2828 104.491 40.9218 103.551ZM144.969 100.747C144.798 100.469 144.786 99.8381 144.942 99.3451C145.937 96.2121 167.197 87.8631 169.439 89.7241C171.232 91.2121 169.9 92.3551 164.722 93.7701C159.82 95.1101 156.253 96.4601 151.425 98.8021C146.131 101.371 145.477 101.568 144.969 100.747ZM210.222 95.2551C209.534 95.0251 207.622 94.4651 205.972 94.0091C204.322 93.5541 202.185 92.9631 201.222 92.6961C198.868 92.0431 195.82 91.6771 190.722 91.4341C184.842 91.1541 184.123 90.9511 184.315 89.6271C184.421 88.8911 185.093 88.3021 186.388 87.8111C188.025 87.1901 189.008 87.1781 193.138 87.7311C198.637 88.4671 205.268 89.8001 209.404 91.0031C213.289 92.1321 214.637 93.6361 213.122 95.1511C212.442 95.8311 211.995 95.8471 210.222 95.2551ZM102.995 82.2161C96.3738 79.7041 83.1888 77.2841 75.9718 77.2571C70.3038 77.2361 53.4478 79.7251 48.8598 81.2601C45.4208 82.4111 43.4278 82.5101 43.0588 81.5481C42.5308 80.1721 44.3138 79.3151 52.9718 76.7841C53.7968 76.5431 56.0468 76.0841 57.9718 75.7641C59.8968 75.4441 62.1628 74.9731 63.0068 74.7171C65.0008 74.1121 84.4218 74.1111 87.5588 74.7161C88.8858 74.9721 91.3498 75.4251 93.0348 75.7231C99.2328 76.8191 106.903 79.6981 107.454 81.1351C107.777 81.9771 106.887 83.2751 106.036 83.2031C105.726 83.1771 104.357 82.7331 102.995 82.2161ZM143.754 78.5401C142.929 77.5461 143.317 77.0381 146.38 75.0961C152.203 71.4041 159.947 68.6851 170.972 66.4611C176.257 65.3951 188.913 64.9661 193.722 65.6901C198.157 66.3571 206.495 68.1551 208.111 68.7931C209.613 69.3851 210.047 70.6401 209.085 71.6031C208.386 72.3021 207.905 72.2761 204.141 71.3361C195.798 69.2521 194.01 69.0361 185.472 69.0841C171.408 69.1631 159.906 71.6951 148.738 77.1701C146.684 78.1771 144.861 79.0651 144.688 79.1431C144.514 79.2211 144.094 78.9491 143.754 78.5401ZM101.859 60.1821C98.0638 58.8341 88.9588 56.8171 82.9718 55.9991C80.1608 55.6151 79.1518 55.0141 79.5548 53.9641C80.2128 52.2491 93.3758 53.7091 100.611 56.3001C104.741 57.7791 107.722 59.3211 107.722 59.9801C107.722 60.5941 106.699 61.7851 106.247 61.6981C106.096 61.6681 104.121 60.9861 101.859 60.1821ZM45.8898 59.9671C45.2218 58.2261 49.2178 56.5981 59.2898 54.5091C64.9078 53.3431 76.2608 52.6231 77.0218 53.3841C77.1998 53.5621 77.2208 54.0321 77.0688 54.4281C76.7848 55.1681 76.3478 55.2551 62.7218 57.2771C58.7348 57.8691 54.1638 58.7731 52.5648 59.2861C47.6858 60.8501 46.2838 60.9931 45.8898 59.9671ZM142.396 56.9821C141.911 55.7181 143.508 54.4781 149.388 51.5561C155.872 48.3341 161.39 46.4731 165.889 45.9911C168.503 45.7121 169.129 45.7881 169.369 46.4141C169.787 47.5031 168.967 48.0021 164.722 49.2401C156.98 51.4961 150.646 53.9391 146.562 56.2441C143.539 57.9501 142.816 58.0781 142.396 56.9821ZM201.472 49.6351C196.537 48.2021 187.494 46.8921 181.806 46.7871C179.147 46.7381 176.773 46.5001 176.531 46.2581C173.943 43.6801 185.301 42.9631 195.472 45.0631C204.768 46.9821 206.899 47.6901 207.139 48.9411C207.318 49.8661 206.452 50.7761 205.472 50.6941C205.197 50.6711 203.397 50.1941 201.472 49.6351ZM101.722 39.9741C97.2828 38.3711 93.2138 37.3721 85.9718 36.1061C78.0778 34.7251 61.8108 36.7401 51.6018 40.3631C49.2478 41.1981 48.5938 41.2671 47.9638 40.7451C45.3048 38.5381 55.4948 35.0611 69.9738 33.2361C74.6288 32.6491 79.4578 32.2871 80.7048 32.4301C93.7328 33.9311 97.0008 34.5831 102.805 36.8391C107.222 38.5561 108.71 39.8111 107.73 40.9921C106.944 41.9391 107.355 42.0091 101.722 39.9741ZM141.222 36.2751C141.222 33.7141 153.579 27.7941 165.222 24.7771C176.528 21.8481 200.42 23.5221 203.7 27.4741C204.283 28.1761 204.279 28.4071 203.679 29.0041C203.123 29.5561 202.544 29.5971 200.972 29.1971C187.49 25.7631 179.657 25.5361 164.972 28.1511C160.622 28.9251 154.161 31.3241 148.315 34.3361C145.204 35.9391 142.336 37.2511 141.94 37.2511C141.545 37.2511 141.222 36.8121 141.222 36.2751Z" fill="white"/>
</svg>
