<svg width="245" height="214" viewBox="0 0 245 214" fill="none" xmlns="http://www.w3.org/2000/svg">
<path fill-rule="evenodd" clip-rule="evenodd" d="M162.732 213.105C161.488 212.78 161.647 211.57 163.2 209.534C167.309 204.146 172.498 200.565 187.607 192.686C197.24 187.663 198.329 187.042 201.607 184.706C205.875 181.664 209.948 177.183 211.568 173.746C212.756 171.227 212.932 170.307 212.767 167.496C212.404 161.344 208.787 156.496 199.11 149.192C192.542 144.234 190.622 142.234 189.887 139.589C189.183 137.055 189.224 136.542 190.317 134.134C191.267 132.043 194.999 128.95 196.572 128.95C197.595 128.95 197.572 129.651 196.522 130.514C195.058 131.716 192.857 135.598 192.857 136.977C192.857 138.996 196.165 142.382 202.05 146.388C208.178 150.559 212.737 155.318 214.991 159.896C216.502 162.964 216.607 163.52 216.607 168.439C216.607 173.59 216.567 173.776 214.672 177.321C212.384 181.602 208.091 185.849 201.836 190.018C196.874 193.324 196.411 193.588 186.607 198.692C173.52 205.505 172.497 206.144 167.463 210.641C165.734 212.186 164.159 213.424 163.963 213.392C163.767 213.36 163.213 213.231 162.732 213.105ZM74.9141 210.996C72.0101 209.157 82.5981 199.94 94.8571 193.635C105.259 188.285 122.993 181.917 134.357 179.452C135.869 179.124 137.782 178.66 138.607 178.422C139.432 178.183 142.019 177.522 144.357 176.952C157.906 173.648 169.216 169.415 173.186 166.162C176.771 163.225 177.972 161.308 177.972 158.527C177.972 155.568 177.577 154.795 174.037 150.827C170.509 146.874 169.357 144.61 169.357 141.634C169.357 138.38 171.806 133.463 174.524 131.259C177.578 128.784 180.841 127.234 181.537 127.93C181.951 128.344 181.146 129.35 178.457 131.78C172.814 136.879 171.544 140.39 173.958 144.213C174.648 145.306 176.268 147.436 177.558 148.947C182.712 154.984 183.626 159.822 180.552 164.794C176.821 170.828 167.439 175.21 144.857 181.468C137.221 183.583 131.88 184.981 127.982 185.884C126.066 186.328 115.913 189.644 114.107 190.415C110.708 191.867 107.603 192.95 106.836 192.95C105.576 192.95 96.7781 197.434 90.4631 201.295C83.7901 205.375 82.7441 206.115 79.4771 209.071C76.7971 211.495 76.1401 211.772 74.9141 210.996ZM3.53811 185.7C3.06811 184.477 3.72111 183.499 5.21111 183.194C5.97911 183.036 9.08211 182.137 12.1071 181.194C15.1321 180.252 19.4071 179.037 21.6071 178.494C23.8071 177.951 27.2951 177.033 29.3571 176.454C36.5171 174.443 40.6151 173.354 41.9961 173.094C42.7601 172.95 43.6041 172.423 43.8711 171.923C44.1391 171.423 44.5861 167.569 44.8661 163.357C45.1451 159.146 45.5821 153.112 45.8371 149.95C46.0911 146.788 46.3121 140.319 46.3281 135.576L46.3571 126.953L44.6851 125.076C41.3611 121.347 32.3571 109.745 32.3571 109.191C32.3571 108.879 32.9161 108.1 33.5981 107.458L34.8401 106.292L36.6421 108.203C37.6341 109.255 40.1341 112.344 42.1971 115.069C44.2611 117.794 46.0841 119.89 46.2491 119.725C46.6371 119.337 46.6451 119.071 46.7601 103.13C46.8461 91.0297 46.9521 89.4467 47.7321 88.5077C48.2291 87.9107 48.8531 87.6167 49.1771 87.8277C49.7931 88.2307 50.6021 97.2787 51.1421 109.825C51.3221 114.019 51.6311 117.45 51.8271 117.45C52.0231 117.45 53.7801 115.256 55.7301 112.575C57.6801 109.894 60.0691 106.842 61.0391 105.793C62.5571 104.149 62.9441 103.961 63.8291 104.435C65.9721 105.582 65.1951 107.189 56.6111 119.364C55.3851 121.104 53.7941 123.224 53.0771 124.076L51.7741 125.625L51.9921 133.663C52.4191 149.413 54.3541 168.95 55.4871 168.95C57.0341 168.95 84.6021 159.264 89.7271 156.92C90.8921 156.386 91.9551 155.95 92.0891 155.95C92.4391 155.95 98.9201 153.043 100.107 152.353C102.779 150.802 110.977 146.95 111.607 146.95C112.39 146.95 116.752 144.671 117.7 143.766C118.027 143.455 118.364 142.525 118.45 141.7L118.607 140.2L113.107 140.225C110.082 140.238 104.513 140.442 100.732 140.677C94.4441 141.069 93.7721 141.028 92.8571 140.2C92.3071 139.702 91.8571 138.789 91.8571 138.17C91.8571 137.552 93.4701 134.605 95.4421 131.623C99.4901 125.5 103.599 118.551 104.094 116.992C104.408 116 104.246 115.95 100.741 115.95C94.6311 115.95 94.4351 114.709 99.3291 107.029C102.998 101.272 103.428 100.536 106.842 94.1997C108.027 91.9997 109.21 89.9287 109.47 89.5967C110.345 88.4807 109.436 88.0677 107.339 88.6277C105.695 89.0657 105.037 89.0257 103.956 88.4187C103.218 88.0047 102.538 87.2707 102.445 86.7877C102.245 85.7477 103.658 82.9137 106.605 78.4497C111.186 71.5087 115.427 62.9447 119.852 51.6997C122.356 45.3367 122.599 44.9497 124.091 44.9497C125.622 44.9497 126.589 46.1677 128.278 50.2247C132.918 61.3687 137.913 70.9647 143.45 79.3727C147.168 85.0177 147.643 86.8427 145.743 88.1737C144.922 88.7487 144 88.8707 142.243 88.6377C140.473 88.4027 139.857 88.4857 139.857 88.9607C139.857 89.6867 146.79 101.386 150.41 106.767C153.352 111.142 153.755 112.518 152.607 114.27C151.776 115.538 151.627 115.572 148.302 115.263C145.012 114.957 144.333 115.174 145.29 116.225C145.528 116.486 146.392 117.942 147.21 119.46C150.095 124.814 151.026 125.999 152.107 125.69C157.702 124.089 165.082 122.415 171.107 121.381C175.847 120.568 196.431 120.551 199.194 121.358C200.342 121.694 203.717 122.195 206.694 122.473C209.671 122.751 213.795 123.338 215.857 123.778C217.919 124.219 220.507 124.751 221.607 124.962C225.958 125.795 239.387 130.164 242.427 131.736C244.42 132.767 244.989 134.039 244.055 135.373C243.64 135.965 242.988 136.45 242.607 136.45C242.225 136.45 238.492 135.318 234.31 133.934C226.431 131.328 222.136 130.253 212.357 128.443C209.195 127.857 205.482 127.169 204.107 126.913C199.365 126.029 192.598 125.309 189.357 125.343C178.783 125.453 153.685 127.456 152.887 128.253C152.743 128.397 153.046 129.231 153.56 130.107C154.074 130.983 155.153 133.011 155.958 134.613C157.328 137.337 157.372 137.603 156.643 138.714C155.49 140.474 153.348 140.665 141.366 140.075C135.448 139.784 130.418 139.724 130.186 139.943C129.471 140.62 130.546 156.783 131.362 157.636C131.597 157.881 132.47 157.582 133.351 156.954C134.571 156.086 135.858 155.777 139.102 155.575C141.4 155.431 143.692 155.485 144.194 155.695C144.696 155.905 146.79 156.105 148.847 156.138C151.86 156.188 152.619 156.357 152.746 157.007C152.956 158.081 150.295 158.532 142.831 158.687C136.7 158.814 134.21 159.378 131.311 161.293C127.926 163.528 127.034 162.094 126.366 153.345C126.088 149.69 125.859 144.956 125.858 142.825C125.857 139.05 125.825 138.95 124.637 138.95C123.965 138.95 123.311 139.12 123.182 139.329C123.053 139.537 122.806 144.294 122.632 149.901C122.457 155.507 122.093 160.509 121.822 161.016C121.182 162.212 119.06 162.741 118.101 161.945C117.16 161.164 117.163 160.085 118.11 158.268C118.842 156.865 119.208 148.968 118.571 148.331C118.414 148.174 116.93 148.811 115.273 149.747C113.616 150.684 112.131 151.45 111.971 151.45C111.812 151.45 108.589 153.02 104.808 154.94C101.027 156.859 96.1731 159.129 94.0201 159.984C91.8681 160.839 89.2071 161.949 88.1071 162.449C81.5501 165.434 71.7551 169.048 63.1071 171.674C59.8071 172.676 56.2071 173.802 55.1071 174.176C54.0071 174.549 52.4321 174.999 51.6071 175.175C50.7821 175.351 48.3071 176.049 46.1071 176.727C41.4351 178.166 40.5721 178.406 32.6071 180.477C29.3071 181.335 26.0451 182.218 25.3571 182.44C24.6691 182.662 22.7571 183.109 21.1071 183.434C19.4571 183.759 17.3191 184.217 16.3571 184.452C12.3511 185.432 6.72811 186.45 5.32711 186.45C4.45411 186.45 3.70511 186.136 3.53811 185.7ZM51.0861 169.89C51.3851 169.61 51.2331 169.117 50.6801 168.571C49.8391 167.743 49.7611 167.747 49.0761 168.671C47.9681 170.166 48.1531 171.079 49.4821 170.677C50.1011 170.491 50.8221 170.136 51.0861 169.89ZM125.626 135.919C126.467 134.558 128.741 134.406 139.477 134.99C145.479 135.317 150.51 135.463 150.658 135.316C150.806 135.168 150.011 133.54 148.892 131.697C147.773 129.855 146.857 128.216 146.857 128.054C146.857 127.789 145.218 124.912 141.363 118.411C138.414 113.44 137.764 109.977 139.642 109.256C140.053 109.098 141.732 109.282 143.373 109.665C145.238 110.1 146.357 110.173 146.357 109.86C146.357 109.584 144.882 107.01 143.08 104.138C139.724 98.7917 135.885 91.6367 134 87.2137C132.345 83.3297 133.675 81.8907 137.668 83.2457C140.276 84.1317 140.867 83.8787 139.878 82.3017C135.287 74.9847 132.339 69.8277 130.119 65.2317C126.447 57.6257 124.857 53.9607 124.857 53.0977C124.857 51.6887 123.734 52.7587 122.893 54.9687C120.573 61.0647 112.933 76.4547 110.398 80.1407C108.473 82.9377 108.437 83.6127 110.232 83.2567C115.193 82.2727 115.301 82.2787 115.896 83.5857C116.401 84.6937 115.989 85.7587 112.096 93.4137C109.695 98.1347 106.522 103.924 105.044 106.278C103.566 108.632 102.357 110.646 102.357 110.754C102.357 111.198 104.749 110.886 106.787 110.176C109.268 109.312 110.668 109.567 111.112 110.966C111.402 111.881 107.113 120.778 104.842 123.97C104.345 124.668 103.209 126.581 102.318 128.22C101.427 129.859 100.047 132.159 99.2501 133.33C97.3651 136.103 97.7741 136.257 105.052 135.519C113.249 134.688 121.924 134.767 123.136 135.684C124.295 136.561 125.178 136.644 125.626 135.919ZM31.6071 139.249C26.5641 137.65 22.6101 134.455 21.8761 131.386C21.6541 130.459 21.3101 129.306 21.1111 128.825C20.8021 128.075 21.0431 127.95 22.7961 127.95C24.6231 127.95 24.9821 128.16 26.1411 129.911C27.8431 132.484 34.8491 135.923 38.4291 135.943C40.1781 135.952 40.5381 137.086 39.2931 138.668C38.4581 139.73 37.8821 139.944 35.9461 139.917C34.6591 139.898 32.7071 139.598 31.6071 139.249ZM60.1071 138.134C57.1461 137.723 56.3571 137.42 56.3571 136.69C56.3571 136.214 56.8531 135.95 57.7461 135.95C58.5161 135.95 59.5161 135.505 59.9911 134.95C60.4621 134.4 61.2891 133.95 61.8301 133.95C63.6971 133.95 69.2551 130.868 72.7841 127.875C74.7321 126.223 76.5581 125.015 76.8411 125.19C77.1251 125.366 77.3571 126.378 77.3571 127.441C77.3571 130.597 74.5061 133.609 69.0521 136.216C65.4381 137.944 62.8061 138.508 60.1071 138.134ZM13.0761 127.489C7.80011 124.463 2.22311 116.611 0.797112 110.2C-2.01489 97.5617 2.87511 81.8967 11.3451 76.4087C13.4151 75.0677 13.8601 74.5407 13.6201 73.7207C13.4561 73.1587 13.1841 71.0597 13.0151 69.0557C12.7071 65.3827 12.8181 64.7467 14.9431 57.9497C18.2941 47.2327 26.8741 38.0697 37.1071 34.2777C52.4201 28.6047 67.0311 33.5117 75.5811 47.1997C78.1021 51.2367 79.7391 55.7167 79.9561 59.1747C80.0871 61.2757 80.3331 61.7527 81.8571 62.8647C84.7701 64.9927 86.4051 66.5997 87.7891 68.6997C88.9921 70.5247 89.1071 71.1387 89.1121 75.7297C89.1161 79.4107 89.3261 81.0877 89.8941 81.9797C91.4791 84.4717 92.7631 87.8107 93.6151 91.6537C95.8201 101.592 92.5441 112.848 85.1751 120.663C83.6571 122.272 81.3571 123.097 81.3571 122.032C81.3571 121.802 82.4891 120.204 83.8721 118.48C86.7701 114.87 87.5441 113.227 88.9531 107.7C89.6511 104.96 89.9771 102.047 89.9881 98.4497C90.0101 91.2927 88.8031 87.4967 84.6761 81.7407C82.9371 79.3147 82.9241 79.2587 83.6811 77.4907C84.1031 76.5057 84.5661 75.4147 84.7091 75.0657C85.5051 73.1367 81.5201 67.9667 78.0131 66.3787C75.6821 65.3227 75.1511 64.3057 75.6221 61.7967C76.3571 57.8757 72.7031 50.1557 67.8531 45.3827C63.0271 40.6337 58.3141 38.4277 50.1951 37.1167C48.4141 36.8297 45.0201 37.3597 40.8571 38.5757C35.5241 40.1337 28.6801 44.5087 25.5171 48.3827C22.9971 51.4687 20.1601 57.1437 19.2891 60.8397C18.9841 62.1377 18.5361 63.7167 18.2951 64.3487C17.7061 65.8927 17.7381 72.0707 18.3431 73.6627C19.0391 75.4937 18.6401 76.1367 15.0521 78.9557C11.2701 81.9277 7.93211 86.6907 6.12211 91.6977C2.80711 100.866 6.13511 115.419 12.9891 121.725C14.4681 123.086 16.5071 124.828 17.5181 125.596C21.6871 128.762 18.0201 130.325 13.0761 127.489ZM10.1301 108.825C9.17011 105.755 8.79111 102.434 9.07111 99.5507C9.39411 96.2347 10.6041 92.5297 11.5891 91.8457C12.6371 91.1177 13.0261 92.4237 12.3611 94.4367C11.9951 95.5467 11.8251 96.5847 11.9841 96.7427C12.1421 96.9017 11.9541 97.7927 11.5641 98.7247C10.5451 101.164 10.6651 103.622 11.8571 104.7C12.4071 105.198 12.8501 106.076 12.8411 106.652C12.8111 108.642 10.6221 110.397 10.1301 108.825ZM81.8571 102.463C81.8571 100.55 83.6691 95.9497 84.4231 95.9497C85.0761 95.9497 85.4401 97.9307 85.0921 99.5857C84.1331 104.136 81.8571 106.16 81.8571 102.463ZM80.8571 90.4497C80.8571 88.9737 81.4981 88.4647 82.1101 89.4537C82.5121 90.1057 81.9311 91.9497 81.3231 91.9497C81.0671 91.9497 80.8571 91.2747 80.8571 90.4497ZM185.337 83.4297C184.331 82.4237 184.259 81.9537 184.451 77.5837C184.618 73.7457 184.831 72.7047 185.556 72.1747C187.634 70.6557 188.516 72.7617 188.574 79.3807C188.603 82.6237 188.478 83.1487 187.519 83.7927C186.532 84.4547 186.329 84.4217 185.337 83.4297ZM22.8971 72.2997C21.8721 69.6147 23.9441 64.3367 25.4371 65.8297C26.1381 66.5307 25.2481 71.2267 24.1231 72.7577C23.4651 73.6547 23.4061 73.6327 22.8971 72.2997ZM156.457 72.3497C156.127 72.0197 155.857 71.3217 155.857 70.7977C155.857 69.5107 162.474 62.9497 163.772 62.9497C164.909 62.9497 165.643 64.5387 165.012 65.6337C163.916 67.5387 158.178 72.9497 157.255 72.9497C157.146 72.9497 156.787 72.6797 156.457 72.3497ZM212.621 69.3977C209.535 66.4667 208.836 65.5297 208.957 64.4877C209.07 63.5187 209.431 63.1617 210.415 63.0477C211.457 62.9267 212.461 63.6107 215.333 66.3927C219.11 70.0517 219.465 71.0117 217.521 72.3007C216.495 72.9797 216.221 72.8177 212.621 69.3977ZM69.4631 66.3557C68.6241 65.5167 68.7051 64.1977 69.6451 63.4177C70.2981 62.8757 70.5131 62.8867 70.9001 63.4817C71.4851 64.3827 71.2801 66.5657 70.5881 66.7927C70.3031 66.8857 69.7971 66.6897 69.4631 66.3557ZM183.357 62.8217C167.405 60.7677 160.036 42.4927 169.627 28.7717C170.983 26.8317 176.094 22.9717 178.549 22.0347C183.333 20.2077 186.429 19.7547 189.414 20.4457C193.67 21.4297 196.568 22.7047 199.539 24.8997C205.698 29.4497 208.235 35.1557 207.726 43.3157C207.227 51.3137 202.715 57.7517 195.206 61.1837C191.185 63.0217 188.158 63.4397 183.357 62.8217ZM191.446 57.4337C196.199 56.1127 201.041 51.1237 202.616 45.9207C204.312 40.3177 202.838 34.9567 198.357 30.4367C192.755 24.7867 184.511 23.9527 177.172 28.2937C174.397 29.9357 173.901 30.4827 172.533 33.4157C169.907 39.0477 169.584 40.5967 170.305 44.0847C171.691 50.7957 175.601 55.3797 181.519 57.2297C184.063 58.0257 188.953 58.1257 191.446 57.4337ZM25.0551 59.7437C24.6331 58.6457 26.8651 54.9497 27.9491 54.9497C29.0551 54.9497 29.1091 56.0127 28.1021 57.9597C27.1341 59.8317 25.4641 60.8097 25.0551 59.7437ZM29.6661 53.1747C28.9511 51.3097 31.7191 48.1117 32.9681 49.3607C33.4861 49.8787 33.4041 50.3487 32.5351 51.8497C31.3531 53.8907 30.1541 54.4447 29.6661 53.1747ZM143.862 42.7057C143.028 41.7007 143.557 40.5387 145.119 39.9447C147.093 39.1947 154.278 39.6557 155.215 40.5937C157.103 42.4807 154.705 43.4337 148.043 43.4437C145.494 43.4477 144.304 43.2377 143.862 42.7057ZM217.357 42.4567C216.777 42.0867 216.732 41.7767 217.16 41.0887C218.268 39.3097 225.958 38.8117 227.91 40.3927C228.908 41.2007 228.979 41.4507 228.405 42.1427C227.872 42.7847 226.748 42.9477 222.921 42.9417C220.273 42.9377 217.769 42.7197 217.357 42.4567ZM208.877 20.2237C208.031 19.2047 208.543 18.0317 210.908 15.5627C215.278 11.0007 217.857 9.89371 217.857 12.5787C217.857 14.0197 211.665 20.9497 210.378 20.9497C209.884 20.9497 209.208 20.6227 208.877 20.2237ZM158.721 18.0687C157.133 16.7657 155.372 14.9357 154.808 14.0007C153.801 12.3337 153.799 12.2847 154.73 11.3547C156.093 9.99171 157.575 10.7217 161.034 14.4577C163.263 16.8647 163.878 17.8637 163.76 18.8827C163.517 20.9727 161.95 20.7197 158.721 18.0687ZM184.466 10.3117C183.476 7.57471 183.678 2.27871 184.826 0.879711C185.615 -0.0812888 185.962 -0.197289 186.701 0.253711C187.486 0.734711 187.607 1.53371 187.607 6.25371V11.6997L186.341 11.8477C185.3 11.9687 184.966 11.6947 184.466 10.3117Z" fill="white"/>
</svg>
