<svg width="162" height="154" viewBox="0 0 162 154" fill="none" xmlns="http://www.w3.org/2000/svg">
<path fill-rule="evenodd" clip-rule="evenodd" d="M68.5376 152.423C62.5006 151.36 54.2876 149.02 49.7876 147.08C41.2806 143.414 36.4936 140.609 30.2606 135.636C26.1416 132.349 19.9816 125.699 18.2876 122.711C17.5996 121.498 15.6046 118.642 13.8546 116.364C8.78764 109.772 3.78564 98.224 2.28564 89.657C1.94864 87.732 1.48264 85.595 1.25064 84.907C0.0856422 81.458 -0.329358 75.315 0.278642 70.508C1.74164 58.928 5.64664 47.52 11.0096 39.157C11.8916 37.782 13.0196 36.001 13.5156 35.2C14.0116 34.399 16.4346 31.524 18.8986 28.812C24.6766 22.452 32.9986 15.47 38.2876 12.545C44.1386 9.30899 48.0096 7.37299 51.5376 5.91999C57.8836 3.30699 59.5426 2.77401 64.0376 1.90601C65.6876 1.58701 68.0476 1.10298 69.2836 0.828985C73.9086 -0.195015 85.1706 -0.286999 91.7876 0.646001C95.2256 1.131 98.2626 1.69399 98.5376 1.89899C98.8126 2.10299 100.323 2.41501 101.894 2.59101C105.779 3.02701 112.164 5.086 117.288 7.555C139.781 18.397 155.262 38.374 160.375 63.157C161.34 67.834 161.504 70.116 161.47 78.407C161.414 92.314 159.634 99.779 153.426 112.157C147.818 123.337 139.53 132.826 129.563 139.479C118.167 147.086 108.308 150.967 96.0376 152.678C88.9676 153.664 74.8426 153.533 68.5376 152.423ZM92.5376 148.94C99.3246 148.1 106.869 146.534 108.253 145.679C109.445 144.942 108.654 144.407 106.371 144.407C103.979 144.407 98.1236 142.79 96.9086 141.793C96.3006 141.295 95.2926 141.391 91.0376 142.35C83.8326 143.975 80.4966 144.404 75.2876 144.372C72.1256 144.352 69.0926 144.163 68.5486 143.95C67.5636 143.565 67.5636 143.562 68.5486 143.054C69.0926 142.773 70.7746 142.404 72.2876 142.234C78.1166 141.579 82.4116 140.904 85.9056 140.094C95.2416 137.93 94.4376 138.279 95.6386 135.868C96.9596 133.214 101.214 122.605 103.018 117.467L104.313 113.777L99.4296 108.717C96.7436 105.934 91.5456 100.644 87.8776 96.961L81.2086 90.265L76.6236 90.591C74.1016 90.771 70.0126 91.136 67.5376 91.403C65.0626 91.67 60.2276 92.139 56.7926 92.445C53.3576 92.75 50.1806 93.196 49.7336 93.436C48.7076 93.985 42.5686 108.346 41.3276 113.099C39.5836 119.78 39.5716 120.277 41.1106 122.321C44.2926 126.547 51.4086 133.722 56.6626 138.003C59.7566 140.523 62.2876 142.941 62.2876 143.376C62.2876 143.811 61.8376 144.447 61.2876 144.791C59.7166 145.772 60.0866 146.309 62.9126 147.148C66.6706 148.264 71.1966 148.943 77.7876 149.378C80.9496 149.587 83.8756 149.783 84.2876 149.814C84.6996 149.844 88.4126 149.451 92.5376 148.94ZM115.746 141.282C115.98 140.663 116.091 140.069 115.992 139.961C115.663 139.601 114.288 141.019 114.288 141.718C114.288 142.813 115.279 142.517 115.746 141.282ZM111.594 140.141C112.05 139.445 112.315 138.767 112.182 138.634C111.857 138.309 109.288 140.358 109.288 140.943C109.288 141.889 110.792 141.366 111.594 140.141ZM120.933 140.334C127.105 137.187 136.99 129.442 136.043 128.496C135.45 127.903 131.141 130.599 130.24 132.127C129.314 133.695 127.935 134.72 127.43 134.215C127.311 134.097 127.585 133.283 128.038 132.407C128.491 131.531 128.777 130.73 128.674 130.627C128.571 130.523 126.192 132.753 123.387 135.581C117.265 141.754 116.95 142.365 120.933 140.334ZM104.125 139.532C104.293 139.051 105.228 137.817 106.202 136.791C108.01 134.887 108.248 133.7 106.502 135.301C104.937 136.735 102.426 138.407 101.836 138.407C100.596 138.407 101.425 136.949 103.413 135.634C105.607 134.182 108.068 131.952 112.169 127.702C118.79 120.839 131.448 108.637 132.097 108.491C132.503 108.399 133.134 108.572 133.499 108.874C134.158 109.421 135.788 109.119 135.788 108.449C135.788 108.256 135.498 107.701 135.143 107.216C134.554 106.411 134.367 106.399 133.018 107.081C130.779 108.211 124.623 110.407 123.692 110.407C123.24 110.407 121.821 110.857 120.538 111.407C119.255 111.957 117.672 112.407 117.02 112.407C116.368 112.407 115.318 112.614 114.687 112.866C114.055 113.119 113.088 113.472 112.538 113.65C111.609 113.951 111.6 114.009 112.413 114.465C114.086 115.405 113.337 116.669 108.968 120.282C107.555 121.451 106.146 122.407 105.836 122.407C105.161 122.407 103.474 125.759 103.922 126.208C104.317 126.603 111.457 120.098 114.815 116.284C117.274 113.49 119.229 112.598 120.035 113.902C120.212 114.188 120.804 113.955 121.439 113.35C123.507 111.379 124.795 110.714 125.391 111.31C126.196 112.115 124.461 114.181 115.921 122.585C108.829 129.564 104.236 133.51 100.696 135.667C98.3816 137.077 98.4216 138.804 100.788 139.657C103.256 140.547 103.777 140.527 104.125 139.532ZM107.667 139.032C108.644 137.553 107.909 137.631 106.038 139.204C104.594 140.418 104.582 140.459 105.731 140.311C106.387 140.226 107.258 139.651 107.667 139.032ZM42.7876 138.007C42.7876 137.787 41.7416 136.945 40.4636 136.138C39.1856 135.33 35.4176 132.476 32.0886 129.795C28.7606 127.115 25.8126 124.925 25.5376 124.93C24.4416 124.947 33.0646 132.607 37.3416 135.415C41.8026 138.345 42.7876 138.814 42.7876 138.007ZM41.4226 133.282C35.7546 126.007 33.7876 123.959 33.7876 125.333C33.7876 126.006 40.7796 133.907 41.3746 133.907C41.7296 133.907 41.7456 133.696 41.4226 133.282ZM106.957 128.487C110.027 125.506 114.113 121.587 116.037 119.778C117.962 117.969 119.392 116.344 119.215 116.168C119.039 115.991 118.364 116.371 117.716 117.012C113.785 120.9 104.55 128.907 103.997 128.907C103.157 128.907 100.788 131.988 100.788 133.079C100.788 133.534 100.92 133.907 101.082 133.907C101.244 133.907 103.888 131.468 106.957 128.487ZM44.9736 132.782C43.9646 131.089 36.7526 122.501 36.1446 122.267C35.7606 122.12 35.1296 122.221 34.7426 122.491C34.1416 122.91 34.1486 123.023 34.7876 123.255C35.1996 123.404 36.6626 124.78 38.0376 126.314C42.8296 131.657 46.1476 134.751 44.9736 132.782ZM32.3526 126.836C30.8756 125.474 29.5276 124.5 29.3576 124.67C29.1876 124.84 30.2376 126.115 31.6926 127.502C33.1466 128.89 34.4946 129.864 34.6876 129.668C34.8796 129.471 33.8296 128.197 32.3526 126.836ZM124.314 125.299C125.774 123.571 129.178 120.015 131.878 117.398C136.587 112.834 137.592 111.407 136.1 111.407C135.215 111.407 124.404 123.155 120.264 128.614C119.587 129.506 119.609 129.533 120.599 129.005C121.183 128.695 122.855 127.026 124.314 125.299ZM118.949 125.096C119.961 123.963 120.788 122.842 120.788 122.605C120.788 122.367 119.663 123.403 118.288 124.907C116.913 126.411 115.788 127.712 115.788 127.799C115.788 128.235 117.31 126.934 118.949 125.096ZM134.239 119.951C135.136 119.15 136.538 118.218 137.355 117.879C138.437 117.431 138.798 116.979 138.688 116.211C138.451 114.545 137.669 114.938 134.573 118.282C131.578 121.517 131.381 122.503 134.239 119.951ZM109.217 117.119C110.362 115.86 111.198 114.666 111.074 114.465C110.95 114.265 110.046 114.194 109.064 114.309C107.666 114.472 107.226 114.776 107.034 115.712C106.899 116.369 106.671 117.469 106.528 118.157C106.15 119.978 106.867 119.701 109.217 117.119ZM146.569 115.531C151.746 106.745 154.774 98.584 156.535 88.672C157.255 84.617 157.362 82.147 157.109 75.422C156.779 66.642 156.451 63.907 155.726 63.907C155.479 63.907 153.279 65.267 150.835 66.929L146.393 69.951L145.856 73.054C145.561 74.761 145.175 77.394 144.998 78.907C144.483 83.3 142.502 90.529 139.965 97.274C137.799 103.03 137.664 103.648 138.256 105.091C139.78 108.808 143.239 118.072 143.206 118.352C142.969 120.357 144.465 119.102 146.569 115.531ZM37.5576 114.555C39.3366 108.023 43.1226 98.004 45.8616 92.579C46.3156 91.68 46.0306 90.722 44.1526 86.829C40.7286 79.733 38.9676 75.518 37.0916 69.927C36.1526 67.128 35.3026 64.755 35.2026 64.655C34.9036 64.357 23.8776 62.984 18.9746 62.635L14.4106 62.311L12.3886 65.984C10.3396 69.706 8.13864 74.911 6.27564 80.443C5.40264 83.033 5.32664 83.892 5.76064 86.237C7.49864 95.641 16.8816 116.554 18.9976 115.742C19.3676 115.6 20.5906 115.801 21.7166 116.189C24.1396 117.023 34.1246 118.879 35.4896 118.748C36.2356 118.677 36.6816 117.772 37.5576 114.555ZM108.788 110.624C114.5 109.334 117.56 108.515 123.038 106.812C126.613 105.7 130.048 104.678 130.67 104.539C131.293 104.401 131.925 104.089 132.075 103.847C132.225 103.605 132.869 103.407 133.507 103.407C134.854 103.407 134.995 103.105 137.484 94.907C139.906 86.931 140.71 83.63 142.016 76.313C143.083 70.331 143.1 69.895 142.311 68.692C140.991 66.68 130.207 55.372 126.117 51.712L122.41 48.393L119.224 49.141C117.472 49.552 113.675 50.581 110.788 51.427C107.901 52.273 103.963 53.392 102.038 53.914C98.5656 54.855 91.8546 57.173 91.4606 57.568C91.2216 57.806 90.2866 61.487 88.5816 68.907C87.9176 71.795 86.8896 75.845 86.2986 77.907C85.0616 82.217 84.2106 85.765 84.1086 87.041C84.0066 88.316 106.31 111.443 107.288 111.075C107.7 110.92 108.376 110.717 108.788 110.624ZM51.0106 87.537C51.0326 86.294 51.8346 85.148 55.0126 81.82C57.1986 79.53 60.1166 76.476 61.4956 75.032C66.2046 70.103 63.0506 72.415 56.5376 78.667C52.9626 82.098 49.8286 84.837 49.5736 84.752C49.3176 84.667 48.8776 84.231 48.5946 83.782C48.1896 83.139 48.5856 82.317 50.4706 79.89C51.7846 78.197 52.7706 76.724 52.6626 76.615C52.4296 76.382 47.1906 80.767 46.7006 81.606C46.2426 82.389 49.6906 89.523 50.4106 89.283C50.7266 89.177 50.9966 88.392 51.0106 87.537ZM56.1626 88.093C58.0676 86.892 57.3966 85.808 55.4056 86.871C54.9286 87.125 54.1436 87.456 53.6626 87.605C53.1816 87.754 52.7876 88.235 52.7876 88.675C52.7876 89.574 54.2006 89.331 56.1626 88.093ZM62.5666 87.698C63.0996 87.308 63.3676 86.82 63.1606 86.614C62.6756 86.128 60.2386 87.423 60.5846 87.982C60.9556 88.583 61.4526 88.512 62.5666 87.698ZM68.8406 86.282C69.4576 85.388 70.9796 83.42 72.2236 81.907C73.8566 79.921 74.0746 79.501 73.0106 80.394C69.6316 83.231 65.8526 87.107 66.0906 87.493C66.6216 88.352 67.7576 87.851 68.8406 86.282ZM76.0076 86.599C76.6886 86.338 76.6206 86.104 75.5516 85.035C74.4936 83.976 74.1716 83.88 73.5146 84.426C73.0846 84.783 72.5126 85.487 72.2426 85.991C71.8116 86.797 71.9596 86.907 73.4796 86.907C74.4286 86.907 75.5666 86.769 76.0076 86.599ZM81.9126 78.504C82.9636 77.601 83.0716 75.907 82.0786 75.907C81.4586 75.907 79.2876 78.76 79.2876 79.575C79.2876 80.025 80.9156 79.36 81.9126 78.504ZM47.1806 77.316C49.7566 73.965 49.2276 73.398 46.1016 76.158C44.8536 77.261 44.2706 78.142 44.4606 78.638C44.9186 79.831 45.4436 79.576 47.1806 77.316ZM45.7766 73.918C45.7836 73.417 45.3666 73.601 44.4756 74.491C43.6776 75.29 43.3146 76.046 43.5476 76.423C43.9916 77.142 45.7576 75.157 45.7766 73.918ZM61.4966 70.032C64.1066 67.351 66.9276 64.257 67.7666 63.157C68.6056 62.057 70.0646 60.137 71.0086 58.891C72.9016 56.391 76.6836 53.137 77.1516 53.605C77.6966 54.15 76.4496 56.106 72.1766 61.407C67.8886 66.725 66.4276 68.907 67.1516 68.907C67.3706 68.907 67.9976 68.307 68.5436 67.574C69.0906 66.842 69.7626 65.995 70.0376 65.693C72.5586 62.925 77.3706 57.291 78.4976 55.787C79.9706 53.821 79.9386 52.407 78.4206 52.407C77.9266 52.407 75.9816 51.507 74.0996 50.407C72.2166 49.307 70.4836 48.407 70.2476 48.407C70.0116 48.407 68.9676 47.917 67.9276 47.318C61.3226 43.513 60.7836 43.289 59.9076 43.985C50.1186 51.769 38.2666 63.086 39.0666 63.886C39.3886 64.208 42.3506 61.631 47.6686 56.402C56.5696 47.649 59.1406 45.634 60.7546 46.146C62.4726 46.692 61.9386 47.95 57.9936 52.657C55.9186 55.132 53.9856 57.607 53.6986 58.157C52.8966 59.691 61.1676 51.445 62.8526 49.032C64.4136 46.795 65.2766 46.439 66.2616 47.626C66.8716 48.361 65.7176 49.932 61.4906 54.123C58.4526 57.134 51.1266 67.407 52.0166 67.407C52.1276 67.407 53.4526 65.663 54.9606 63.532C56.4686 61.401 59.6336 57.652 61.9946 55.201C64.3556 52.751 66.2876 50.573 66.2876 50.362C66.2876 49.729 67.8096 48.407 68.5396 48.407C69.7466 48.407 69.8646 50.24 68.7806 52.169C68.2066 53.191 65.8866 56.307 63.6246 59.092C57.2266 66.971 52.7586 72.907 53.2256 72.907C53.7576 72.907 57.1196 69.268 61.0376 64.45C66.1986 58.105 67.7586 56.36 70.5706 53.79C72.8786 51.68 73.4186 51.394 74.0696 51.933C74.7416 52.491 74.5616 52.86 72.6396 54.864C71.4306 56.125 69.3476 58.619 68.0106 60.407C65.2776 64.06 61.7256 68.3 58.0896 72.249C53.8146 76.893 56.5546 75.109 61.4966 70.032ZM83.2976 73.645C83.6456 73.226 83.7906 72.744 83.6206 72.574C83.2576 72.211 81.7876 73.329 81.7876 73.968C81.7876 74.657 82.6026 74.482 83.2976 73.645ZM6.40164 71.291C7.15764 69.012 7.17364 68.633 6.52664 68.271C5.68264 67.799 5.56264 66.262 6.26664 64.947C6.52964 64.454 6.98664 62.543 7.28064 60.7C7.97864 56.329 9.67264 53.202 11.0536 53.733C11.5106 53.908 11.8046 53.455 11.9696 52.324C12.5676 48.229 13.1726 45.089 13.5186 44.282C13.7336 43.783 13.6806 43.407 13.3966 43.407C12.6666 43.407 9.06764 50.607 7.77464 54.657C7.15964 56.582 6.47464 58.607 6.25264 59.157C5.30564 61.505 4.34864 73.911 5.11564 73.902C5.34764 73.899 5.92664 72.724 6.40164 71.291ZM44.8166 70.532L46.5156 68.157L44.2016 70.157C42.1306 71.948 41.6176 72.907 42.7326 72.907C42.9446 72.907 43.8826 71.838 44.8166 70.532ZM84.9486 68.782C86.1956 65.781 86.3836 64.407 85.5476 64.407C85.1296 64.407 84.7876 64.592 84.7876 64.817C84.7876 65.043 84.0116 66.134 83.0626 67.242C81.7626 68.761 81.4796 69.399 81.9126 69.832C82.9786 70.898 84.2536 70.457 84.9486 68.782ZM44.5076 64.804L45.4706 63.157L43.2536 65.102C42.0346 66.172 40.8436 67.222 40.6066 67.434C40.3686 67.646 40.3376 68.083 40.5356 68.404C40.9816 69.126 43.1096 67.198 44.5076 64.804ZM146.794 65.397C147.445 64.179 146.954 63.041 146.132 63.863C144.66 65.335 143.385 63.532 144.263 61.223C144.754 59.933 144.193 59.347 143.516 60.442C143.334 60.736 142.709 61.154 142.126 61.369C141.094 61.751 141.107 61.803 142.614 63.31C143.466 64.161 144.296 65.207 144.459 65.633C144.878 66.724 146.152 66.595 146.794 65.397ZM79.6286 59.884C83.0786 56.243 84.3566 55.731 85.4866 57.538C85.9396 58.262 85.7496 58.688 84.4126 59.938C83.5186 60.774 82.7876 61.523 82.7876 61.604C82.7876 61.684 83.6176 61.615 84.6316 61.45C86.2086 61.193 86.5386 60.907 86.9116 59.468C87.4916 57.229 87.2886 56.857 84.7426 55.5C82.6656 54.392 82.5436 54.381 81.9326 55.25C80.5156 57.261 76.5136 62.168 76.1626 62.324C75.7456 62.509 75.6436 63.407 76.0396 63.407C76.1776 63.407 77.7926 61.822 79.6286 59.884ZM38.0866 58.742C41.2836 55.266 56.2146 42.057 58.2096 40.941C58.7556 40.635 58.9456 39.859 58.8646 38.276C58.7256 35.598 60.5576 19.383 61.2786 16.91C62.2806 13.471 62.4206 13.542 53.2876 12.837C45.5646 12.242 46.7956 11.887 38.5376 17.089C36.0626 18.648 32.6876 21.171 31.0376 22.695C28.1656 25.349 28.1046 25.454 29.6146 25.158C32.0756 24.675 32.0876 25.698 29.6526 28.553C28.4306 29.985 25.9106 33.407 24.0516 36.157C19.2796 43.215 19.1986 43.285 18.6126 40.839C18.3636 39.797 18.8196 38.72 20.7926 35.698C23.4986 31.552 23.5646 31.407 22.7186 31.407C21.9586 31.407 19.5646 34.236 16.6626 38.564C14.2056 42.228 13.9166 42.907 14.8176 42.907C15.1806 42.907 15.2386 44.775 15.0006 48.84C14.8096 52.102 14.8046 55.781 14.9896 57.013L15.3256 59.255L21.4316 59.603C24.7896 59.795 29.1126 60.254 31.0376 60.623C32.9626 60.993 34.7846 61.32 35.0866 61.351C35.3886 61.382 36.7386 60.208 38.0866 58.742ZM141.288 59.874C141.288 59.306 141.523 58.401 141.811 57.864C142.571 56.444 141.891 55.659 140.776 56.668C138.615 58.623 137.021 56.341 138.52 53.441C138.957 52.597 139.094 51.907 138.826 51.907C138.281 51.907 135.788 55.008 135.788 55.687C135.788 56.233 140.36 60.907 140.894 60.907C141.111 60.907 141.288 60.442 141.288 59.874ZM155.288 59.907C155.288 59.632 154.95 59.407 154.538 59.407C154.126 59.407 153.788 59.632 153.788 59.907C153.788 60.182 154.126 60.407 154.538 60.407C154.95 60.407 155.288 60.182 155.288 59.907ZM11.3366 55.834L10.8296 54.157L10.8956 56.407C10.9686 58.915 11.4526 60.241 11.6896 58.584C11.7746 57.995 11.6156 56.757 11.3366 55.834ZM93.7216 53.348C95.5456 52.766 98.2756 51.878 99.7876 51.375C102.217 50.568 105.637 49.597 114.538 47.188C115.913 46.816 117.997 46.355 119.17 46.164C120.368 45.969 121.492 45.453 121.736 44.987C121.975 44.53 122.439 42.244 122.767 39.907C123.095 37.57 123.571 34.307 123.825 32.657C124.079 31.007 124.43 28.691 124.605 27.51C124.854 25.827 125.227 25.205 126.331 24.635C128.208 23.664 129.265 23.716 132.334 24.925C133.755 25.485 135.008 25.854 135.118 25.743C135.564 25.298 129.283 19.694 125.538 17.194C120.715 13.976 116.587 11.76 116.409 12.294C116.337 12.509 117.743 14.186 119.533 16.021C121.323 17.856 122.788 19.593 122.788 19.882C122.788 21.048 121.196 20.255 117.739 17.366C115.738 15.694 113.186 13.703 112.069 12.943C109.161 10.962 100.236 6.40699 99.2636 6.40699C98.3966 6.40699 96.8776 5.00199 96.8316 4.15699C96.8176 3.88199 95.8746 3.58701 94.7376 3.50001C93.2166 3.38501 92.3876 3.605 91.6036 4.331C90.6316 5.232 83.4106 7.90699 81.9526 7.90699C80.2156 7.90699 69.1026 11.984 65.8116 13.829C64.7126 14.445 62.2876 31.572 62.2876 38.722C62.2876 39.735 63.3256 40.402 70.0056 43.681C74.2506 45.765 80.4946 49.023 83.8806 50.921C87.2666 52.82 90.1206 54.381 90.2216 54.39C90.3236 54.399 91.8986 53.931 93.7216 53.348ZM137.209 49.987C138.904 47.825 139.961 45.913 139.639 45.591C139.392 45.345 135.338 50.242 134.928 51.282C134.792 51.626 134.255 51.907 133.735 51.907C132.438 51.907 132.491 49.967 133.85 47.664C135.327 45.161 134.651 44.888 132.623 47.168C131.424 48.515 130.68 48.972 130.068 48.738C129.593 48.556 129.28 48.199 129.371 47.945C129.633 47.22 133.711 43 134.668 42.464C135.142 42.199 135.362 41.814 135.157 41.609C134.952 41.404 134.264 41.725 133.629 42.322C132.993 42.919 132.293 43.407 132.072 43.407C131.851 43.407 130.889 44.093 129.934 44.931C128.534 46.16 128.059 46.339 127.477 45.856C126.856 45.341 126.9 45.102 127.785 44.16C128.352 43.556 128.691 42.735 128.537 42.336C128.381 41.929 128.815 41.086 129.523 40.421C131.038 38.998 131.376 37.219 129.874 38.58C129.371 39.035 128.611 39.407 128.185 39.407C126.968 39.407 126.409 40.441 126.039 43.376L125.697 46.095L130.074 50.233L134.451 54.37L135.113 53.093C135.478 52.391 136.421 50.993 137.209 49.987ZM150.032 51.917C151.326 49.866 151.508 49.062 150.985 47.698C150.392 46.154 149.468 46.944 148.84 49.532C148.489 50.976 148.094 52.551 147.962 53.032C147.528 54.607 148.748 53.95 150.032 51.917ZM147.836 46.549C149.656 45.474 149.645 44.756 147.765 41.761C146.45 39.668 145.288 39.036 145.288 40.414C145.288 40.661 144.723 41.695 144.033 42.713C142.459 45.032 142.834 45.529 144.763 43.681C147.297 41.253 148.844 43.02 146.754 45.955C145.565 47.625 145.798 47.753 147.836 46.549ZM144.187 37.907C145.076 37.907 144.917 36.136 143.957 35.343C143.298 34.8 143.081 34.789 142.912 35.292C142.794 35.642 142.156 36.948 141.493 38.194C139.897 41.194 139.971 41.411 141.937 39.505C142.844 38.626 143.856 37.907 144.187 37.907ZM138.343 36.162C139.55 35.202 140.806 34.415 141.133 34.412C143.856 34.39 140.118 30.461 137.343 30.427C135.689 30.407 134.981 30.931 133.727 33.098C133.312 33.814 133.594 33.724 134.907 32.723C136.656 31.389 138.288 30.995 138.288 31.907C138.288 32.182 138.626 32.407 139.038 32.407C140.219 32.407 139.94 33.094 137.746 35.587C136.622 36.863 135.803 37.907 135.925 37.907C136.047 37.907 137.135 37.122 138.343 36.162ZM128.791 35.282C129.905 33.452 129.29 32.798 127.759 34.183C126.737 35.108 126.431 36.907 127.295 36.907C127.574 36.907 128.248 36.176 128.791 35.282ZM132.092 30.532C132.962 29.386 132.963 28.407 132.095 28.407C131.707 28.407 131.305 29.067 131.181 29.907C130.929 31.624 131.149 31.774 132.092 30.532ZM129.03 29.099C129.792 27.936 129.804 27.709 129.135 27.04C128.072 25.976 127.288 26.675 127.288 28.687C127.288 30.742 127.864 30.878 129.03 29.099ZM63.2876 9.87696C63.2876 9.61896 62.9496 9.40699 62.5376 9.40699C61.7646 9.40699 61.5446 9.997 62.1076 10.56C62.5066 10.96 63.2876 10.508 63.2876 9.87696ZM57.8156 9.10901L59.5376 7.81L57.7876 8.16797C55.6376 8.60697 54.2876 9.28499 54.2876 9.92499C54.2876 10.827 56.0886 10.411 57.8156 9.10901ZM80.5376 5.38996C81.6376 5.14796 83.5926 4.94096 84.8826 4.92896C86.1736 4.91696 87.3676 4.68199 87.5376 4.40699C88.0786 3.53199 78.9926 3.77299 78.1086 4.65699C77.6966 5.06999 77.1176 5.40699 76.8236 5.40699C76.5286 5.40699 76.2876 5.65797 76.2876 5.96497C76.2876 6.31397 76.7106 6.39301 77.4126 6.17701C78.0316 5.98601 79.4376 5.63196 80.5376 5.38996Z" fill="white"/>
</svg>
