<svg width="467" height="404" viewBox="0 0 467 404" fill="none" xmlns="http://www.w3.org/2000/svg">
<path fill-rule="evenodd" clip-rule="evenodd" d="M346.139 402.257C335.608 399.442 312.115 389.516 308.873 386.512C307.338 385.089 306.679 382.57 306.3 376.676C305.687 367.134 307.476 361.487 312.11 358.34C315.466 356.061 329.983 350.499 339.389 347.888C343.584 346.723 346.662 345.688 346.854 345.376C346.964 345.198 345.892 342.681 344.472 339.782C340.978 332.65 338.766 327.502 336.325 320.822C334.456 315.706 334.797 312.73 337.621 309.514L339.067 307.867L336.208 302.718C333.366 297.603 331.472 293.815 328.882 288.07C328.139 286.42 326.777 283.466 325.857 281.506C323.15 275.74 321.139 271.309 321.139 271.107C321.139 271.004 320.224 268.928 319.106 266.495C317.104 262.137 316.722 261.288 314.753 256.82C314.208 255.582 312.241 251.195 310.383 247.07C308.526 242.945 306.452 238.332 305.776 236.82C305.099 235.308 303.687 232.158 302.638 229.82C300.621 225.328 298.989 221.631 297.836 218.945C297.453 218.051 296.825 216.589 296.442 215.695C296.058 214.801 295.297 213.058 294.751 211.82C294.204 210.582 293.032 207.882 292.145 205.82C291.259 203.758 289.77 200.419 288.837 198.4C287.903 196.382 287.139 194.624 287.139 194.494C287.139 194.24 286.324 192.473 281.873 183.07C280.31 179.77 278.248 175.27 277.291 173.07C276.333 170.87 274.574 166.933 273.382 164.32C264.975 145.9 260.019 134.276 257.285 126.57C252.696 113.634 252.363 112.32 253.675 112.32C255.431 112.32 269.795 141.038 276.557 158.07C277.103 159.445 278.72 163.045 280.15 166.07C281.581 169.095 283.187 172.677 283.721 174.03C284.255 175.383 285.129 177.464 285.665 178.655C287.959 183.754 288.657 185.345 290.782 190.32C292.016 193.207 293.638 196.92 294.386 198.57C295.135 200.22 296.09 202.357 296.509 203.32C296.929 204.283 299.267 209.183 301.705 214.211C304.144 219.238 306.139 223.456 306.139 223.584C306.139 223.711 306.895 225.448 307.819 227.443C308.742 229.438 310.333 232.87 311.352 235.07C312.372 237.27 313.408 239.52 313.655 240.07C313.902 240.62 315.462 243.966 317.122 247.505C318.781 251.044 320.139 254.018 320.139 254.115C320.139 254.211 320.726 255.591 321.443 257.18C322.16 258.77 323.081 260.858 323.49 261.82C323.898 262.782 325.195 265.595 326.373 268.07C328.63 272.816 336.768 291.342 337.903 294.32C338.27 295.282 339.172 298.095 339.908 300.57C340.644 303.045 341.408 305.245 341.607 305.459C341.805 305.673 342.512 305.424 343.178 304.904C345.239 303.296 351.717 300.067 355.389 298.818C357.314 298.163 359.054 297.494 359.257 297.331C359.656 297.009 356.758 292.456 355.476 291.392C355.041 291.031 354.328 289.507 353.891 288.004C353.454 286.501 352.115 283.314 350.914 280.921C349.714 278.528 348.01 274.882 347.128 272.82C346.245 270.758 344.96 267.832 344.272 266.32C343.583 264.808 341.72 260.532 340.132 256.82C338.543 253.108 336.32 248.106 335.191 245.706C334.062 243.306 333.139 241.251 333.139 241.141C333.139 241.031 332.014 238.568 330.639 235.667C329.264 232.767 328.139 230.292 328.139 230.167C328.139 230.043 326.996 227.495 325.599 224.505C324.203 221.516 322.764 218.395 322.402 217.57C321.068 214.527 319.676 211.459 317.639 207.07C316.49 204.595 315.095 201.558 314.539 200.32C312.96 196.809 311.396 193.378 309.64 189.57C308.752 187.645 306.691 183.06 305.061 179.382C303.431 175.703 300.955 170.303 299.559 167.382C298.164 164.46 296.626 161.17 296.141 160.07C295.657 158.97 294.695 156.832 294.003 155.32C293.311 153.808 291.389 149.42 289.731 145.57C286.982 139.188 285.671 136.331 279.541 123.363C277.319 118.664 277.131 118.21 275.066 112.57C273.752 108.979 272.14 102.579 272.139 100.945C272.137 97.9176 277.759 105.95 282.899 116.32C284.739 120.033 287.544 125.995 289.132 129.57C290.72 133.145 292.817 137.645 293.792 139.57C294.768 141.495 296.056 144.195 296.654 145.57C297.253 146.945 298.369 149.42 299.135 151.07C300.598 154.225 302.601 158.565 305.192 164.195C306.046 166.051 307.648 169.482 308.751 171.82C311.569 177.789 312.706 180.256 315.663 186.82C317.087 189.982 319.352 194.89 320.696 197.725C322.04 200.56 323.139 202.973 323.139 203.087C323.139 203.201 323.84 204.819 324.697 206.682C326.175 209.897 327.128 211.987 330.001 218.32C331.715 222.097 335.987 231.929 337.495 235.57C338.179 237.22 339.139 239.47 339.629 240.57C341.562 244.909 344.353 251.32 346.486 256.32C347.718 259.207 349.494 263.221 350.433 265.24C351.371 267.258 352.139 269.083 352.139 269.297C352.139 269.51 353.618 273.033 355.425 277.127C357.233 281.221 359.755 287.22 361.03 290.458L363.348 296.346L366.156 296.028C369.269 295.676 371.629 296.546 374.306 299.033C375.958 300.569 383.22 315.381 386.457 323.82C387.67 326.983 389.096 330.47 389.625 331.57C390.154 332.67 390.711 334.171 390.862 334.905C391.014 335.639 392.614 337.849 394.418 339.815C396.303 341.868 397.633 343.747 397.544 344.23C397.458 344.692 396.713 345.373 395.889 345.743C395.064 346.113 393.786 347.275 393.049 348.325C392.138 349.623 390.682 350.725 388.51 351.762C382.886 354.446 372.304 356.301 371.357 354.768C370.762 353.805 373.36 351.797 376.831 350.537C378.675 349.868 380.618 349.32 381.147 349.32C383.777 349.32 390.639 345.099 390.639 343.481C390.639 343.069 389.608 341.57 388.349 340.151C386.217 337.749 381.391 328.62 377.962 320.504C375.614 314.948 370.019 303.569 369.455 303.203C367.409 301.874 358.447 304.114 351.468 307.698C346.467 310.267 341.138 314.006 341.142 314.944C341.148 316.277 342.272 319.704 343.674 322.663C344.48 324.365 345.139 325.861 345.139 325.989C345.139 326.225 347.126 330.536 351.952 340.768C353.43 343.903 354.639 346.737 354.639 347.066C354.639 348.879 352.638 349.752 328.889 358.298C316.42 362.785 315.11 363.392 313.685 365.344C312.586 366.85 312.468 367.552 312.327 373.41C312.243 376.939 312.345 380.289 312.553 380.853C312.814 381.557 314.892 382.747 319.161 384.636C330.495 389.653 343.112 394.678 350.517 397.124L354.645 398.487L361.267 396.374C364.909 395.211 369.351 393.731 371.139 393.085C372.927 392.438 378.776 390.435 384.139 388.634C389.502 386.833 395.464 384.797 397.389 384.11C399.314 383.423 405.389 381.263 410.889 379.309C416.389 377.355 424.377 374.513 428.639 372.993C445.284 367.06 449.576 365.622 454.639 364.287L459.889 362.902L459.778 356.283C459.678 350.327 459.561 349.551 458.613 348.543C456.034 345.797 431.606 334.684 422.639 332.177C417.389 330.71 416.107 330.696 410.264 332.041C404.525 333.363 398.942 333.715 398.371 332.792C398.192 332.501 398.187 331.697 398.36 331.006C398.745 329.474 401.667 328.109 408.889 326.088C413.271 324.862 414.445 324.724 418.389 324.977C420.864 325.136 423.564 325.488 424.389 325.76C443.501 332.058 461.466 340.442 463.939 344.216C465.288 346.275 466.127 350.272 466.133 354.67C466.144 362.545 464.499 366.416 461.092 366.535C460.07 366.57 458.213 367.322 456.498 368.395C454.915 369.385 450.418 371.482 446.505 373.054C442.591 374.627 438.377 376.329 437.139 376.836C428.313 380.451 390.364 393.768 380.139 396.839C378.077 397.458 374.364 398.619 371.889 399.418C364.939 401.663 364.385 401.819 363.354 401.828C362.823 401.832 361.489 402.159 360.389 402.556C357.476 403.605 350.646 403.462 346.139 402.257ZM354.147 393.834C353.867 393.313 353.639 391.566 353.639 389.953V387.019L351.264 385.883C349.958 385.258 346.752 383.551 344.139 382.091C339.262 379.365 328.635 373.778 323.497 371.24C320.242 369.632 319.495 368.532 320.933 367.466C323.385 365.648 336.211 370.274 346.901 376.832C348.819 378.009 351.675 379.582 353.248 380.328L356.107 381.685L363.498 379.492C367.563 378.286 373.364 376.496 376.389 375.514C379.414 374.532 386.614 372.272 392.389 370.493C398.164 368.714 405.476 366.386 408.639 365.321C428.684 358.566 446.93 353.494 447.889 354.41C448.605 355.094 447.203 356.049 441.389 358.838C431.879 363.399 403.035 373.647 376.639 381.843C365.818 385.203 364.443 385.593 360.889 386.318C359.239 386.654 357.608 387.01 357.264 387.109C356.878 387.22 356.636 388.201 356.632 389.679C356.624 392.697 356.23 394.178 355.347 394.517C354.966 394.663 354.426 394.356 354.147 393.834ZM134.639 379.812C109.581 378.568 88.2928 375.036 84.0128 371.413C83.1198 370.657 81.5348 369.407 80.4908 368.636L78.5928 367.234L75.7408 369.995C70.9218 374.662 68.9158 375.889 63.1388 377.703C57.6188 379.437 52.7618 379.973 45.2968 379.672C35.6528 379.284 29.3828 377.384 22.7028 372.824C19.1158 370.375 13.7088 364.735 11.1448 360.769C6.55777 353.672 2.34577 342.819 0.884771 334.333C-1.06123 323.028 0.33777 305.795 3.76077 298.921C4.19277 298.054 4.18677 297.225 3.73577 295.539C2.90377 292.428 2.98977 278.458 3.88877 270.57C6.07777 251.378 11.6978 237.752 21.4878 227.899L24.6388 224.727L24.6508 221.649C24.6898 211.867 29.6008 204.856 42.3528 196.38C46.2298 193.803 52.5498 190.595 57.6958 188.593C62.0198 186.91 73.1418 184.055 79.1388 183.089C93.3698 180.796 109.087 184.523 115.794 191.78C116.842 192.914 117.892 193.723 118.128 193.577C118.838 193.138 130.518 194.287 136.315 195.367C156.38 199.103 177.681 211.469 195.551 229.754C203.58 237.969 207.789 243.122 213.431 251.641C217.586 257.915 223.338 268.678 225.618 274.445C226.715 277.218 227.639 278.171 227.639 276.528C227.639 274.005 223.748 261.133 220.775 253.82C219.825 251.483 218.803 248.895 218.504 248.07C217.02 243.972 210.217 229.348 209.288 228.257C208.685 227.548 204.73 220.885 200.72 213.82C200.017 212.582 197.743 209.145 195.666 206.181C193.589 203.217 191.214 199.706 190.389 198.378C189.564 197.05 188.083 194.976 187.099 193.767C186.114 192.559 184.027 189.77 182.46 187.57C180.894 185.37 177.256 180.533 174.376 176.82C169.333 170.319 167.221 167.51 157.363 154.186C149.112 143.034 136.756 122.358 131.843 111.479C130.414 108.316 126.836 98.9826 126.127 96.5696C122.172 83.1076 120.952 75.6156 120.959 64.8196C120.963 57.3766 121.131 55.4346 122.081 51.8196C122.695 49.4826 123.431 46.5566 123.717 45.3196C124.909 40.1516 129.376 30.5476 132.45 26.5456C135.551 22.5076 146.532 12.2146 150.889 9.26057C160.851 2.50557 175.886 -0.988431 189.681 0.244569C201.126 1.26757 210.282 4.33257 219.338 10.1706C223.599 12.9186 232.757 21.7546 236.723 26.9446C239.154 30.1256 239.931 30.8196 241.063 30.8196C243.088 30.8196 247.374 33.1276 248.772 34.9686C251.048 37.9676 254.962 44.5566 258.593 51.4986C260.586 55.3096 262.603 59.1346 263.075 59.9986C263.547 60.8626 264.573 63.0326 265.354 64.8196C266.134 66.6066 267.74 70.0946 268.92 72.5696C275.411 86.1716 277.191 92.4636 275.562 96.0386C274.722 97.8826 273.274 98.6456 268.314 99.8616C263.105 101.138 258.719 103.243 253.889 106.785C251.964 108.197 249.853 109.489 249.198 109.657C247.122 110.188 242.851 108.483 241.106 106.426C240.24 105.405 235.426 96.2446 230.407 86.0696C216.644 58.1656 215.632 55.8996 215.278 52.2116C215.105 50.4166 215.241 48.7796 215.644 47.8076C216.257 46.3286 216.2 46.1736 214.337 44.2586C211.47 41.3106 204.791 36.9866 199.782 34.8356C187.158 29.4126 172.522 31.4286 162.848 39.9226C158.937 43.3566 155.067 50.6386 153.602 57.3196C152.469 62.4846 152.729 73.5326 154.113 79.0696C157.447 92.4086 162.644 103.951 171.786 118.32C178.216 128.428 182.43 134.688 184.744 137.57C189.793 143.858 196.827 153.653 197.702 155.615C198.615 157.66 200.885 160.32 201.717 160.32C202.098 160.32 208.04 168.144 216.197 179.388C220.181 184.879 230.576 200.839 232.598 204.57C233.194 205.67 234.572 208.033 235.66 209.82C238.424 214.36 243.578 224.582 246.25 230.82C251.435 242.928 252.308 245.143 254.19 250.963C259.288 266.73 261.392 279.557 261.385 294.82C261.376 312.343 257.907 325.785 250.336 337.619C246.492 343.628 241.369 348.003 233.874 351.678C229.228 353.957 228.879 354.233 228.604 355.844C228.118 358.698 224.872 364.493 222.621 366.527C217.349 371.289 202.564 375.76 182.889 378.54C171.598 380.135 151.719 380.659 134.639 379.812ZM59.7588 371.919C65.1908 370.094 67.8688 368.506 71.9428 364.695C77.8888 359.133 81.5228 349.463 82.4988 336.602C83.0608 329.2 80.3888 314.074 76.9008 304.917C73.4798 295.933 69.4028 289.573 62.8938 283.066C57.7818 277.955 57.1388 277.48 53.8888 276.406C45.3288 273.58 40.4228 273.247 34.6388 275.101C30.4938 276.43 30.0198 277.12 32.9698 277.529C36.4608 278.013 38.1388 278.781 38.1388 279.893C38.1388 281.199 36.2428 281.819 32.2308 281.825C20.1628 281.845 11.4308 291.243 8.07877 307.82C6.45677 315.838 6.41377 326.895 7.97577 333.814C8.38077 335.605 8.89077 337.858 9.11077 338.82C10.4778 344.809 14.9618 354.094 19.0038 359.303C24.2248 366.031 30.7048 370.316 38.6528 372.294C40.9418 372.864 42.9438 373.468 43.1018 373.636C43.2598 373.804 46.1158 373.808 49.4488 373.645C54.2398 373.41 56.3998 373.048 59.7588 371.919ZM161.508 372.798C186.037 371.672 204.568 368.566 214.783 363.869C218.782 362.03 219.089 361.774 220.571 359.038C221.431 357.449 222.08 356.097 222.012 356.033C221.944 355.969 220.403 355.842 218.586 355.751C215.594 355.6 215.08 355.725 213.127 357.077C211.099 358.481 210.685 358.57 206.162 358.57C202.477 358.57 200.852 358.344 199.206 357.601C197.468 356.816 196.803 356.737 195.723 357.184C194.989 357.488 193.039 358.302 191.389 358.994C179.601 363.937 139.344 364.154 118.194 359.389C115.483 358.779 114.136 357.62 115.067 356.699C115.694 356.078 126.47 355.999 136.139 356.543C150.544 357.355 155.204 357.404 166.187 356.861C178.975 356.23 191.599 355.01 192.303 354.338C192.53 354.12 192.136 353.363 191.428 352.654C189.784 351.01 189.633 348.126 191.149 347.314C192.283 346.708 192.279 346.706 196.297 349.654C197.896 350.827 200.033 351.924 201.047 352.092C202.06 352.26 203.503 352.591 204.253 352.829C206.348 353.492 206.411 352.547 204.426 350.228C201.525 346.839 200.494 343.405 200.764 338.026C200.937 334.556 201.293 332.823 202.27 330.689C203.673 327.625 207.042 323.661 209.069 322.689C210.951 321.787 210.501 321.113 207.78 320.756C205.051 320.399 200.164 321.251 197.754 322.505C195.705 323.571 193.476 326.612 192.155 330.141C191.361 332.264 191.139 334.053 191.139 338.327C191.139 343.605 191.095 343.826 189.893 344.613C188.183 345.734 187.283 345.238 186.126 342.539C184.621 339.029 184.978 333.278 186.962 329.07C189.729 323.198 191.543 320.478 193.846 318.746C196.487 316.759 203.057 314.32 205.766 314.32C209.28 314.32 215.261 316.479 217.678 318.621C218.113 319.005 218.821 319.32 219.253 319.32C220.468 319.32 224.866 314.194 225.746 311.753C228.488 304.145 228.657 302.251 227.112 296.436C222.713 279.882 213.355 261.557 201.966 247.196C191.485 233.979 183.098 226.1 170.889 218C162.981 212.753 157.538 209.859 149.639 206.701C138.645 202.307 130.913 200.84 116.787 200.468C102.36 200.088 94.3548 200.886 78.8888 204.247C61.9668 207.923 41.4418 218.19 30.2778 228.562C25.9418 232.59 21.8548 237.202 22.2608 237.609C22.3978 237.745 24.1668 237.025 26.1928 236.009C35.9608 231.106 48.4978 230.039 60.4448 233.091C64.3358 234.085 75.4088 239.579 80.2398 242.913C85.0678 246.243 94.8328 254.978 98.2398 259.014C99.6588 260.695 101.993 263.308 103.426 264.82C104.859 266.332 108.139 270.382 110.714 273.82C115.926 280.777 120.415 285.292 126.389 289.584C130.937 292.852 133.406 294.043 140.139 296.218C147.037 298.446 151.512 298.953 162.139 298.71C171.553 298.495 176.741 297.842 187.25 295.553C190.351 294.878 196.939 293.535 201.889 292.569C206.839 291.603 212.044 290.56 213.455 290.251C217.122 289.447 218.17 290.306 216.014 292.345C212.651 295.525 204.049 298.391 183.889 303.048C177.236 304.585 171.682 305.069 161.139 305.031C153.155 305.002 149.488 304.785 146.889 304.187C144.964 303.744 141.701 303.011 139.639 302.558C131.952 300.869 125.864 297.733 119.065 291.959C115.694 289.095 105.939 278.004 99.0428 269.193C91.0378 258.964 78.3678 247.964 69.3798 243.438C62.0178 239.731 53.6488 237.822 44.7548 237.821C36.8578 237.82 30.5448 239.509 21.6988 243.989L16.5078 246.618L15.0208 250.344C13.3758 254.465 11.5778 261.198 10.6868 266.57C10.3678 268.495 9.88377 271.195 9.61077 272.57C9.12877 274.993 8.17477 287.885 8.44977 288.252C8.52477 288.352 10.5668 286.415 12.9868 283.949C15.4078 281.483 17.8988 279.303 18.5218 279.106C19.1458 278.909 20.0968 277.883 20.6358 276.826C21.6648 274.809 22.6908 273.935 27.0378 271.377C32.0018 268.455 35.6418 267.578 42.6388 267.616C49.3048 267.652 51.6508 268.221 57.3888 271.192C66.0878 275.695 74.9698 285.076 80.0298 295.103C81.9558 298.921 84.9128 307.344 86.1598 312.57C90.8118 332.062 88.5208 354.017 80.7758 364.173C80.1038 365.055 79.6788 365.98 79.8318 366.228C79.9848 366.476 81.6358 366.835 83.4998 367.025C85.3638 367.215 90.0388 367.925 93.8888 368.602C105.483 370.64 120.846 372.18 135.639 372.788C149.518 373.358 149.292 373.358 161.508 372.798ZM223.266 348.738C224.573 348.453 225.758 348.032 225.9 347.803C226.041 347.573 225.061 346.29 223.722 344.95C220.504 341.733 218.639 336.48 218.639 330.635C218.639 326.786 218.615 326.711 217.514 327.057C216.895 327.252 215.106 327.53 213.539 327.674C210.005 328 209.408 328.619 208.109 333.306C206.379 339.551 207.971 346.327 211.74 348.753C213.173 349.675 213.88 349.778 217.139 349.536C219.201 349.383 221.958 349.024 223.266 348.738ZM234.784 344.246C237.49 342.866 242.946 337.388 245.303 333.685C246.313 332.099 247.139 330.605 247.139 330.367C247.139 330.129 246.181 329.79 245.011 329.614C239.769 328.828 233.82 324.477 231.649 319.841C230.592 317.584 229.139 316.439 229.139 317.863C229.139 318.162 227.789 319.812 226.139 321.531C223.301 324.486 223.139 324.788 223.142 327.112C223.15 333.625 225.233 339.581 228.768 343.195C231.138 345.617 231.851 345.742 234.784 344.246ZM251.516 321.195C253.082 317.324 255.935 304.473 255.361 303.881C255.26 303.777 254.176 303.944 252.951 304.252C250.68 304.824 247.274 304.623 244.139 303.731C241.173 302.888 236.932 301.153 236.046 300.42C234.756 299.354 234.271 300.03 233.876 303.444C233.677 305.163 233.207 307.582 232.832 308.82C232.457 310.058 232.147 311.486 232.144 311.994C232.137 313.219 238.234 319.535 241.398 321.58C244.275 323.44 245.026 323.682 248.172 323.762L250.455 323.82L251.516 321.195ZM255.774 296.123C256.232 290.066 255.176 280.82 254.026 280.82C253.777 280.82 253.094 281.077 252.508 281.39C251.84 281.748 248.175 281.981 242.666 282.015C235.142 282.062 233.913 282.177 234.056 282.82C234.148 283.233 234.373 286.267 234.556 289.563L234.889 295.555L236.639 295.869C237.602 296.041 239.064 296.458 239.889 296.794C240.714 297.131 242.514 297.622 243.889 297.886C247.827 298.641 253.811 299.674 254.692 299.75C255.34 299.807 255.548 299.11 255.774 296.123ZM238.709 277.017C241.82 276.419 244.253 276.297 248.22 276.541C251.151 276.721 253.667 276.68 253.809 276.449C254.071 276.025 252.311 266.872 250.996 261.82C250.141 258.534 249.833 258.429 243.639 259.317C235.027 260.551 230.602 261.666 229.918 262.773C229.743 263.056 230.03 264.813 230.556 266.679C231.969 271.694 232.639 274.691 232.639 275.994C232.639 278.111 232.839 278.145 238.709 277.017ZM230.38 257.83C232.431 255.564 243.33 253.157 246.348 254.304C248.14 254.986 248.853 254.402 248.222 252.771C247.967 252.11 247.244 249.995 246.616 248.07C245.988 246.145 244.94 243.382 244.286 241.931L243.097 239.291L240.493 239.632C234.494 240.419 224.639 245.192 224.639 247.312C224.639 247.793 225.08 249.285 225.62 250.628C226.159 251.971 226.963 254.364 227.405 255.945C228.26 259 228.935 259.427 230.38 257.83ZM224.654 241.15C226.979 237.758 232.65 235.32 238.217 235.32C241.078 235.32 241.193 235.272 240.887 234.195C240.154 231.613 235.354 222.202 234.55 221.773C233.542 221.233 229.87 221.938 227.162 223.19C224.865 224.252 218.558 228.463 217.68 229.521C217.095 230.225 217.217 230.812 218.546 233.705C219.397 235.556 220.663 238.364 221.36 239.945C222.056 241.526 222.825 242.82 223.068 242.82C223.311 242.82 224.025 242.068 224.654 241.15ZM217.276 223.618C220.984 219.909 225.224 217.82 229.041 217.82C230.653 217.82 232.113 217.68 232.284 217.508C232.688 217.105 231.189 214.117 227.966 208.897L225.389 204.724L222.461 204.98C217.598 205.403 211.459 209.078 208.777 213.171C208.109 214.19 208.29 214.717 211.222 220.293C212.964 223.605 214.431 226.316 214.481 226.318C214.532 226.319 215.79 225.104 217.276 223.618ZM34.2628 217.515C35.9818 216.247 39.1108 214.214 41.2158 212.998C44.3328 211.198 45.1838 210.435 45.8028 208.889C46.9218 206.093 49.6418 204.002 56.3748 200.763C62.5368 197.798 70.2478 195.396 77.2568 194.256C81.6818 193.537 84.9718 193.949 89.9168 195.843L92.9458 197.003L95.1978 195.913C96.4368 195.313 99.3488 194.575 101.669 194.273C107.163 193.558 107.657 193.403 106.5 192.754C106.012 192.48 103.649 191.554 101.25 190.697C97.5158 189.363 96.0258 189.109 90.8888 188.936C75.6388 188.422 55.1398 194.776 41.8888 204.124C36.2528 208.1 31.8818 213.645 30.4008 218.695C29.9138 220.359 30.7538 220.102 34.2628 217.515ZM206.736 209.181C208.842 204.764 212.516 202.363 218.846 201.269C220.795 200.932 222.476 200.588 222.582 200.503C222.957 200.207 218.491 193.784 217.092 192.607C215.888 191.594 215.402 191.479 213.83 191.833C208.543 193.026 199.039 200.035 199.849 202.145C200.307 203.339 205.312 210.782 205.671 210.803C205.827 210.812 206.306 210.082 206.736 209.181ZM198.417 196.082C200.257 192.204 206.267 188.395 211.259 187.942C213.325 187.755 214.12 187.491 213.95 187.05C213.596 186.125 206.177 175.787 204.76 174.242C203.548 172.92 203.531 172.917 201.215 173.692C199.936 174.12 197.763 175.209 196.388 176.111C193.935 177.721 188.139 183.906 188.139 184.914C188.139 185.63 196.68 197.82 197.182 197.82C197.408 197.82 197.963 197.038 198.417 196.082ZM185.907 178.945C186.336 177.914 187.521 176.197 188.538 175.131C190.828 172.732 195.69 169.498 197.658 169.066C198.466 168.888 199.249 168.546 199.399 168.305C199.687 167.837 191.923 156.66 190.301 155.208C189.487 154.479 189.033 154.429 187.364 154.888C182.881 156.119 179.085 158.982 176.095 163.385L174.069 166.368L175.077 168.077C176.623 170.698 184.296 180.82 184.736 180.82C184.95 180.82 185.477 179.976 185.907 178.945ZM171.665 159.522C173.284 156.496 181.36 150.341 183.747 150.312C184.1 150.308 184.697 150.11 185.073 149.871C185.607 149.533 185.223 148.728 183.323 146.202C181.984 144.422 179.826 141.47 178.526 139.643C177.227 137.815 175.857 136.32 175.484 136.32C173.481 136.32 167.358 140.07 163.816 143.466L160.006 147.119L162.116 150.592C164.676 154.807 169.524 160.82 170.361 160.82C170.696 160.82 171.283 160.236 171.665 159.522ZM159.604 140.799C161.491 137.887 165.186 134.93 169.28 133.056C170.867 132.329 172.139 131.42 172.139 131.012C172.139 130.608 171.455 129.331 170.619 128.174C169.783 127.017 167.987 124.326 166.629 122.195C165.271 120.064 163.953 118.32 163.7 118.32C162.954 118.32 157.057 121.344 154.826 122.871C153.692 123.647 151.8 125.434 150.621 126.841L148.479 129.4L149.587 131.735C151.155 135.036 156.753 143.32 157.417 143.32C157.721 143.32 158.706 142.185 159.604 140.799ZM147.707 122.354C149.875 119.496 154.153 116.53 157.639 115.467C162.036 114.126 162.004 114.385 158.569 107.883C156.88 104.686 155.357 101.909 155.186 101.713C154.874 101.355 148.697 103.114 145.889 104.361C145.064 104.728 142.853 106.012 140.977 107.216C138.337 108.908 137.644 109.592 137.919 110.237C138.114 110.695 138.527 111.745 138.836 112.57C139.852 115.279 145.214 124.879 145.624 124.723C145.845 124.639 146.782 123.573 147.707 122.354ZM138.751 103.189C141.315 100.633 146.937 97.8226 150.389 97.3726C152.171 97.1406 152.866 96.8346 152.81 96.3076C152.733 95.5916 149.247 85.7606 148.972 85.4856C148.797 85.3116 139.937 87.1206 137.663 87.7956C136.714 88.0776 134.737 88.8056 133.27 89.4126C130.724 90.4686 130.617 90.5876 130.904 92.0436C131.823 96.7036 135.194 105.32 136.098 105.32C136.381 105.32 137.575 104.361 138.751 103.189ZM248.937 102.759C251.947 99.4056 261.108 94.7756 267.139 93.5576C270.82 92.8146 270.77 92.4236 265.555 81.1766C263.615 76.9926 261.031 71.3196 259.813 68.5696C256.628 61.3796 245.712 41.0036 244.146 39.3276C242.184 37.2266 239.23 36.5796 235.694 37.4776C229.497 39.0496 224.928 42.1926 222.288 46.6976C220.134 50.3726 220.511 51.5566 229.916 70.6496C234.501 79.9556 239.699 90.5456 241.468 94.1826C244.444 100.303 246.684 103.82 247.606 103.82C247.814 103.82 248.413 103.343 248.937 102.759ZM131.941 84.5666C134.615 82.7526 139.826 81.2576 144.139 81.0686C147.425 80.9246 147.878 80.7916 147.797 79.9876C147.541 77.4286 146.582 70.9846 146.37 70.3876C146.215 69.9546 145.719 69.8146 145.008 70.0026C143.903 70.2946 130.446 69.5276 128.264 69.0476C127.168 68.8066 127.139 68.9076 127.139 72.9346C127.14 76.5786 128.053 82.7096 128.938 85.0186C129.353 86.0986 129.778 86.0346 131.941 84.5666ZM146.297 65.4446C146.416 65.2386 146.673 62.7636 146.867 59.9446C147.21 54.9506 147.192 54.8196 146.163 54.8196C145.582 54.8196 144.27 54.4636 143.248 54.0296C142.226 53.5946 139.483 52.6816 137.155 51.9996C134.826 51.3186 132.072 50.2836 131.035 49.7016C129.998 49.1186 128.982 48.8096 128.777 49.0146C128.001 49.7916 127.202 55.2556 127.171 60.0026C127.139 64.8986 127.148 64.9336 128.264 64.5746C131.718 63.4666 141.526 63.9646 144.139 65.3826C145.093 65.8996 146.018 65.9266 146.297 65.4446ZM149.411 49.5566C150.087 47.6956 150.639 46.1256 150.639 46.0666C150.639 46.0086 149.345 45.1056 147.764 44.0606C143.994 41.5696 139.036 36.4956 137.84 33.9066C137.317 32.7726 136.729 31.8396 136.533 31.8326C135.372 31.7906 130.139 41.7316 130.139 43.9786C130.139 44.6226 130.555 44.8226 137.639 47.5706C144.45 50.2126 146.59 51.2936 147.173 52.3826C147.873 53.6906 147.945 53.5996 149.411 49.5566ZM156.08 38.6416L159.085 34.9636L157.323 33.2666C155.624 31.6306 150.998 24.5516 149.747 21.6706C149.412 20.9016 149.139 19.5896 149.139 18.7546C149.139 17.9196 148.97 17.3116 148.764 17.4026C147.991 17.7466 139.639 26.7586 139.639 27.2486C139.639 27.5306 139.843 27.8866 140.091 28.0406C140.34 28.1936 141.223 29.5236 142.053 30.9946C143.565 33.6736 151.584 42.3196 152.557 42.3196C152.842 42.3196 154.427 40.6646 156.08 38.6416ZM228.128 33.3246C229.769 32.4966 231.454 31.8196 231.875 31.8196C232.295 31.8196 232.639 31.5216 232.639 31.1576C232.639 30.3306 225.886 23.3196 225.09 23.3196C224.297 23.3196 221.339 25.1266 218.772 27.1796C216.745 28.8016 213.139 34.1496 213.139 35.5356C213.139 35.9006 214.264 37.3776 215.639 38.8196L218.139 41.4406L221.643 38.1356C223.57 36.3176 226.488 34.1526 228.128 33.3246ZM210.315 30.1946C211.605 27.2826 216.283 22.5766 219.321 21.1356C220.321 20.6606 221.139 20.0576 221.139 19.7956C221.139 19.1526 215.41 14.9546 212.772 13.6636C210.801 12.6996 210.594 12.6846 209.772 13.4526C209.286 13.9066 207.916 15.1156 206.728 16.1396C205.539 17.1636 204.164 18.8046 203.672 19.7856C202.669 21.7846 200.44 28.3326 200.713 28.4766C200.81 28.5276 202.689 29.4956 204.889 30.6266C207.089 31.7586 208.948 32.7146 209.02 32.7516C209.093 32.7886 209.675 31.6386 210.315 30.1946ZM165.886 30.5836C170.017 28.0656 169.766 28.3406 169.015 27.1606C166.673 23.4756 164.922 16.5926 165.3 12.5496C165.469 10.7336 165.403 9.31957 165.149 9.31957C164.02 9.31957 157.691 12.0046 155.889 13.2486C153.994 14.5556 153.898 14.7456 154.065 16.8486C154.161 18.0706 154.539 19.7906 154.905 20.6716C155.806 22.8446 160.023 29.8116 161.254 31.1606C162.317 32.3256 163.208 32.2146 165.886 30.5836ZM197.736 24.0216C197.986 20.3156 199.905 16.2576 202.782 13.3526C203.889 12.2346 204.985 11.3196 205.217 11.3196C205.449 11.3196 205.639 11.0386 205.638 10.6946C205.637 9.96157 198.082 7.52957 194.261 7.03257L191.634 6.68957L189.823 10.6096C187.991 14.5756 187.47 17.1566 187.418 22.5326L187.389 25.4956L191.762 26.3216C194.166 26.7756 196.289 27.3026 196.478 27.4926C197.135 28.1486 197.531 27.0546 197.736 24.0216ZM174.889 26.7566C175.989 26.4506 178.464 26.0576 180.389 25.8836C183.542 25.5986 183.869 25.4686 183.692 24.5686C183.584 24.0186 183.399 21.4806 183.282 18.9276C183.042 13.6916 183.892 10.1776 185.929 7.97957C186.584 7.27257 186.98 6.46657 186.808 6.18757C186.178 5.16957 173.269 6.49457 171.179 7.79257C170.045 8.49657 170.148 18.5846 171.339 23.4446C171.861 25.5756 172.424 27.3186 172.589 27.3166C172.754 27.3156 173.789 27.0636 174.889 26.7566ZM330.451 364.421C329.708 363.218 332.559 361.644 340.567 358.835C349.692 355.634 350.159 355.549 351.539 356.834C352.887 358.09 352.653 358.587 350.23 359.619C342.052 363.099 331.255 365.721 330.451 364.421ZM400.639 341.104C400.639 339.646 404.187 337.883 411.81 335.553C417.399 333.845 420.027 334.007 423.306 336.263C426.247 338.287 426.452 339.561 423.764 339.125C418.058 338.197 417.213 338.209 413.958 339.261C412.155 339.843 410.164 340.323 409.534 340.328C408.904 340.332 407.489 340.659 406.389 341.056C403.707 342.022 400.639 342.048 400.639 341.104ZM352.691 333.167C348.396 325.116 347.021 321.307 347.703 319.35C348.288 317.672 349.509 317.316 349.95 318.695C350.104 319.176 351.25 321.707 352.496 324.32C356.832 333.409 357.624 335.552 357.215 337.083C357.006 337.865 356.587 338.587 356.284 338.688C355.981 338.789 354.364 336.305 352.691 333.167ZM374.872 328.416C374.393 328.073 372.025 323.424 369.862 318.583C369.245 317.201 368.024 315.09 367.148 313.893L365.557 311.715L362.93 312.043C360.905 312.296 360.161 312.199 359.68 311.62C358.125 309.745 360.17 307.999 364.504 307.502C366.724 307.247 367.002 307.346 368.522 308.931C370.319 310.805 375.971 322.845 376.445 325.807C376.742 327.668 375.863 329.127 374.872 328.416ZM280.301 142.695C277.35 137.139 274.639 129.98 274.639 127.741C274.639 126.288 275.681 126.135 276.946 127.4C279.603 130.057 283.57 144.32 281.652 144.32C281.384 144.32 280.776 143.589 280.301 142.695ZM37.6438 365.576C36.9108 364.693 37.3158 363.32 38.3108 363.32C39.9148 363.32 44.5608 360.791 46.0298 359.118C50.0688 354.518 53.0088 348.067 54.1418 341.32C55.3458 334.15 56.7658 332.617 57.3178 337.893C57.7988 342.499 57.7178 344.184 56.8378 347.788C54.3698 357.9 46.9948 366.302 40.5748 366.315C39.1318 366.318 38.0288 366.04 37.6438 365.576ZM58.0138 365.78C56.6688 364.997 56.9458 363.385 59.3568 357.946C62.0958 351.769 62.9078 348.985 63.8788 342.448C65.1218 334.072 64.7778 326.651 62.6908 316.82C62.0258 313.686 59.0508 305.608 57.2508 302.046C55.4208 298.426 52.0448 293.765 47.8088 289.013C46.0658 287.057 44.6388 285.314 44.6388 285.138C44.6388 284.301 47.6808 284.973 49.6658 286.248C55.2178 289.816 60.8898 296.857 64.3788 304.514C68.6018 313.78 70.6418 323.243 70.6288 333.498C70.6108 347.396 67.3868 358.771 61.7148 364.945C60.3778 366.4 59.4418 366.612 58.0138 365.78ZM33.1388 342.161C29.0628 340.032 27.1368 337.532 25.8518 332.702C24.9358 329.261 24.9578 326.348 25.9238 323.022C26.7848 320.061 27.7268 318.82 29.1128 318.82C30.7518 318.82 31.3558 320.123 30.7128 322.269C29.0728 327.743 31.5788 335.471 35.6818 337.592C37.1248 338.339 37.2978 338.331 38.2378 337.481C40.1288 335.771 41.1388 333.046 41.1388 329.653C41.1388 324.123 39.3908 320.749 35.4898 318.749C34.4448 318.213 33.4608 317.439 33.3038 317.029C32.8358 315.808 34.6008 314.32 36.5158 314.32C40.4408 314.32 43.8518 317.421 45.6898 322.661C46.9958 326.385 46.8538 334.06 45.4288 336.82C44.2848 339.033 42.2798 341.205 40.5388 342.115C38.8468 342.999 34.7908 343.024 33.1388 342.161ZM12.8668 327.284C11.1688 324.537 10.5818 313.434 11.8638 308.32C13.9378 300.047 15.0148 297.9 19.3428 293.408C22.8018 289.816 24.7388 288.611 26.3878 289.025C28.3478 289.517 28.4248 290.915 26.5688 292.32C23.2438 294.839 21.3428 297.199 19.3038 301.337C15.9738 308.097 14.1388 315.823 14.1388 323.084C14.1388 326.992 13.6608 328.569 12.8668 327.284ZM103.639 357.478C100.858 357.02 97.0898 355.193 97.2468 354.377C97.5598 352.75 104.702 352.594 107.764 354.148C109.428 354.992 109.519 355.997 108.028 357.042C106.936 357.807 106.125 357.887 103.639 357.478ZM180.841 288.124C180.351 286.848 180.982 285.873 182.493 285.571C183.261 285.417 185.014 284.948 186.389 284.528C189.852 283.471 194.889 283.33 194.889 284.292C194.889 285.399 192.24 286.702 188.119 287.623C182.092 288.969 181.189 289.031 180.841 288.124ZM246.126 93.6556C245.599 92.4656 244.748 90.9466 244.235 90.2806C241.882 87.2276 234.139 70.7716 234.139 68.8226C234.139 68.5466 234.457 68.3196 234.845 68.3196C236.103 68.3196 241.756 77.0526 246.06 85.6466C247.183 87.8896 248.387 89.8186 248.735 89.9346C249.084 90.0516 249.998 89.9086 250.766 89.6186C251.744 89.2496 252.415 89.2486 252.997 89.6156C254.41 90.5076 254.295 91.3026 252.652 91.9926C251.787 92.3566 250.645 93.3666 250.116 94.2376C248.715 96.5416 247.312 96.3366 246.126 93.6556Z" fill="white"/>
</svg>
