<svg width="431" height="348" viewBox="0 0 431 348" fill="none" xmlns="http://www.w3.org/2000/svg">
<path fill-rule="evenodd" clip-rule="evenodd" d="M321.658 347.431C321.383 347.326 319.245 347.022 316.908 346.755C311.892 346.181 295.072 343.65 286.908 342.24C280.276 341.095 264.868 338.347 262.658 337.916C261.833 337.755 258.795 337.189 255.908 336.658C253.021 336.127 249.533 335.476 248.158 335.211C246.783 334.947 244.533 334.514 243.158 334.249C241.783 333.985 238.07 333.296 234.908 332.718C231.746 332.14 226.683 331.214 223.658 330.661C220.633 330.107 216.92 329.339 215.408 328.954C213.896 328.569 209.283 327.663 205.158 326.94C201.033 326.217 196.308 325.31 194.658 324.924C193.008 324.539 188.17 323.528 183.908 322.679C165.391 318.988 157.843 317.419 150.158 315.664C146.308 314.784 142.146 313.891 140.908 313.68C139.67 313.468 135.17 312.475 130.908 311.473C113.506 307.382 110.425 306.7 109.352 306.7C108.734 306.7 107.538 306.49 106.693 306.232C101.462 304.639 88.9211 301.701 87.3501 301.701C86.6311 301.7 83.5931 301.143 80.6001 300.463C74.1361 298.994 41.9091 290.917 39.6981 290.212C38.8511 289.942 36.4701 289.24 34.4081 288.651C27.3901 286.648 19.6661 283.544 16.6031 281.494C14.9231 280.37 12.5001 278.221 11.2191 276.72C8.62012 273.672 5.34312 267.259 4.43812 263.45C4.11212 262.075 3.64512 260.162 3.40112 259.2C2.93912 257.376 2.88312 256.997 1.70012 247.664C0.480117 238.034 -0.258884 222.51 0.0841165 213.7C0.382116 206.055 1.66412 193.888 2.89112 187.075C3.80812 181.977 4.39412 178.998 4.90712 176.825C5.18212 175.656 5.60412 173.856 5.84312 172.825C6.08212 171.794 6.77712 169.15 7.38812 166.95C7.99812 164.75 8.67312 162.275 8.88812 161.45C9.10212 160.625 9.77712 158.6 10.3871 156.95C10.9961 155.3 11.6111 153.5 11.7521 152.95C11.8931 152.4 12.4131 151.044 12.9081 149.936C13.4031 148.829 14.3161 146.354 14.9371 144.436C17.4241 136.75 24.6041 121.503 28.0511 116.588C29.2101 114.935 30.8891 112.544 31.7831 111.275C35.6571 105.776 43.5381 99.0442 50.4081 95.3672C55.1561 92.8262 63.2151 90.0652 68.4081 89.2002C70.1951 88.9032 72.8131 88.4142 74.2251 88.1142C78.2201 87.2652 99.7041 88.5682 103.408 89.8842C103.82 90.0312 105.114 90.3952 106.283 90.6952C108.535 91.2712 109.109 92.4102 107.418 92.9472C106.874 93.1202 106.48 93.5162 106.543 93.8292C106.606 94.1412 105.784 94.6942 104.715 95.0572C102.748 95.7272 100.717 95.5992 90.8121 94.1792C84.1651 93.2272 77.0301 93.5872 70.4081 95.2082C69.4451 95.4442 67.5331 95.8982 66.1581 96.2162C61.2611 97.3512 55.7401 99.7962 50.8191 103.008C47.1511 105.403 46.7461 106.352 49.2841 106.604C50.1361 106.689 51.1171 107.099 51.4641 107.517C52.5171 108.786 51.0401 109.254 47.0811 108.906L43.5031 108.591L41.2011 110.714C35.0951 116.342 26.9581 131.187 21.0641 147.45C18.0461 155.776 17.3431 157.801 16.8551 159.575C16.6091 160.469 16.1961 161.931 15.9361 162.825C15.6771 163.719 15.2271 165.294 14.9361 166.325C14.6461 167.356 14.1681 169.044 13.8751 170.075C13.5811 171.106 13.1211 172.85 12.8521 173.95C12.5831 175.05 12.1331 176.85 11.8541 177.95C11.5741 179.05 11.1571 180.962 10.9271 182.2C10.6971 183.438 10.2551 185.8 9.94612 187.45C7.72812 199.275 6.40412 222.161 7.41512 231.2C7.64512 233.262 7.96912 236.862 8.13312 239.2C8.65512 246.615 9.36112 251.714 10.8681 258.95C12.5371 266.966 17.0761 273.539 23.2051 276.816C28.3481 279.565 44.0171 284.52 56.9081 287.473C60.0701 288.197 66.2121 289.67 70.5551 290.745C79.6591 292.999 80.4051 293.069 80.7631 291.7C81.1211 290.333 81.6581 290.444 82.8611 292.134C84.1191 293.901 86.2001 294.712 93.4081 296.242C94.9211 296.563 97.5551 297.248 99.2631 297.763C102.699 298.8 104.408 298.95 104.408 298.215C104.408 297.949 103.929 296.812 103.344 295.69C102.111 293.325 100.367 287.351 100.062 284.45C99.9461 283.35 99.6521 282 99.4081 281.45C97.7431 277.694 96.6131 250.582 97.5431 236.7C98.2561 226.059 99.4761 216.596 101.929 202.7C102.931 197.018 103.139 196.088 104.612 190.7C105.026 189.188 105.725 186.059 106.167 183.747C106.609 181.436 107.531 178.437 108.217 177.083C108.904 175.729 109.384 174.378 109.285 174.082C109.186 173.785 107.542 173.463 105.632 173.365C103.721 173.267 101.033 172.97 99.6581 172.705C96.7791 172.149 91.2621 170.948 89.3541 170.46C88.1791 170.16 88.0201 170.291 87.7441 171.789C87.5751 172.702 86.9701 175.138 86.3991 177.2C85.8271 179.262 85.1561 181.85 84.9061 182.95C84.6561 184.05 83.9731 186.975 83.3891 189.45C76.8691 217.06 74.7901 249.91 77.9951 274.7C78.2971 277.037 78.5701 281.465 78.6011 284.539C78.6541 289.724 78.5981 290.074 77.8251 289.375C76.5681 288.238 74.8841 283.53 73.4681 277.2C71.2411 267.244 70.6611 245.473 72.1621 228.2C73.0241 218.27 75.8231 200.168 76.9151 197.45C77.4661 196.079 77.5521 196.036 77.9081 196.95C78.1221 197.5 78.1741 199.054 78.0241 200.403C77.8501 201.961 77.9311 202.745 78.2451 202.551C78.6771 202.284 79.1601 200.087 80.1611 193.83C80.3041 192.94 80.5261 189.276 80.6551 185.689C80.8791 179.468 81.4651 176.245 83.2661 171.325C84.0321 169.233 84.0231 169.179 82.7501 167.906C80.0861 165.241 79.9111 162.387 81.9861 155.45C84.6271 146.624 86.4521 143.463 89.9301 141.689C91.4191 140.929 91.9081 140.378 91.9081 139.459C91.9081 138.381 93.1771 134.317 94.4091 131.45C94.6451 130.9 95.1081 129.212 95.4381 127.7C95.9631 125.294 97.1461 121.06 97.7591 119.39C97.8991 119.011 96.2241 118.729 92.5611 118.515C86.9531 118.187 85.6421 118.023 74.4081 116.244C70.6951 115.656 65.1831 114.836 62.1581 114.421C55.4441 113.501 52.9961 112.799 52.3621 111.614C51.2541 109.544 54.9391 105.843 59.9081 104.036C63.1771 102.848 67.5631 102.649 72.4081 103.469C74.7461 103.864 78.7961 104.411 81.4081 104.683C84.0201 104.956 87.1711 105.389 88.4081 105.646C89.6451 105.903 91.5581 106.264 92.6581 106.448C97.0951 107.191 98.9241 108.8 96.1291 109.502C94.3981 109.936 86.8691 109.035 70.6581 106.452C68.1831 106.058 65.4191 105.727 64.5161 105.718C62.7621 105.699 58.5191 107.611 57.4451 108.905C56.6181 109.901 56.7711 109.951 62.9081 110.693C65.5201 111.008 69.1211 111.459 70.9081 111.694C72.6951 111.93 75.9581 112.354 78.1581 112.637C83.5021 113.324 93.2341 115.043 95.4051 115.684C98.8631 116.706 98.5761 117.093 102.249 106.45C103.199 103.7 104.579 100.437 105.317 99.2002C106.054 97.9632 106.865 96.5002 107.117 95.9502C107.521 95.0712 107.614 95.1622 107.889 96.7002C108.195 98.4192 108.246 98.3562 110.804 93.0452C112.236 90.0732 113.408 87.4242 113.408 87.1602C113.408 86.8962 113.99 85.2782 114.702 83.5652C117.39 77.0972 117.272 75.4612 114.51 80.8982C112.749 84.3652 111.408 85.9292 111.408 84.5162C111.408 81.1662 121.594 60.7162 128.377 50.4502C132.462 44.2672 132.773 43.8412 137.86 37.4502C146.939 26.0452 156.452 17.4922 167.408 10.8842C172.934 7.55119 180.772 4.29019 187.73 2.42919C197.915 -0.295806 219.296 -0.844806 228.658 1.37819C229.208 1.50819 231.008 1.90219 232.658 2.25419C234.308 2.60519 236.396 3.29919 237.298 3.79619C238.2 4.29319 239.463 4.70019 240.104 4.70019C241.57 4.70019 247.626 7.17919 251.315 9.29019C258.362 13.3222 268.48 22.1972 274.868 29.9502C279.766 35.8942 286.781 47.3012 291.627 57.2002C294.414 62.8922 300.576 78.5182 302.373 84.4502C302.934 86.2992 304.462 90.5862 305.404 92.9502C306.047 94.5642 308.535 102.796 308.955 104.7C309.168 105.663 309.601 107.35 309.918 108.45C310.234 109.55 310.643 111.334 310.826 112.415C311.102 114.046 311.413 114.453 312.658 114.814C314.305 115.29 319.718 116.253 320.908 116.282C321.321 116.292 322.558 116.531 323.658 116.813C324.758 117.095 326.333 117.3 327.158 117.268C333.844 117.011 373.974 123.13 385.408 126.15C389.29 127.176 390.121 127.387 393.908 128.31C395.146 128.612 397.508 129.529 399.158 130.348C407.691 134.583 413.316 140.304 416.218 147.7C416.703 148.938 417.684 150.962 418.397 152.2C420.284 155.475 423.713 165.923 424.961 172.2C428.617 190.593 429.867 204.326 430.695 235.202C431.264 256.459 429.769 278.15 427.042 288.2C426.631 289.712 426.182 291.572 426.044 292.331C425.906 293.091 425.594 293.835 425.35 293.986C425.107 294.136 424.908 294.607 424.908 295.032C424.908 296.041 422.767 300.294 420.67 303.45C418.002 307.466 407.797 316.7 406.027 316.7C405.754 316.7 405.25 317.038 404.907 317.451C404.055 318.477 388.314 327.832 382.162 330.968C379.41 332.37 376.708 333.777 376.158 334.094C374.611 334.985 363.096 340.125 358.908 341.794C352.544 344.331 346.43 346.225 341.508 347.184C339.061 347.661 322.794 347.863 321.658 347.431ZM325.408 340.287C325.408 340.06 324.859 339.358 324.188 338.728C321.142 335.867 318.118 326.715 317.158 317.45C316.986 315.8 316.755 313.55 316.643 312.45C315.719 303.364 315.415 288.103 315.928 276.611C316.654 260.39 317.192 252.388 317.874 247.7C318.173 245.638 318.649 241.587 318.93 238.7C319.936 228.357 320.897 221.085 321.838 216.7C322.738 212.501 323.457 208.955 323.715 207.45C323.961 206.011 326.396 195.611 327.461 191.45C329.394 183.902 334.1 170.716 336.65 165.704C338.356 162.352 343.042 155.937 344.409 155.083C346.041 154.064 345.567 153.512 342.021 152.306C339.528 151.458 337.17 151.109 332.908 150.957C329.745 150.844 325.47 150.516 323.408 150.227C315.626 149.137 303.848 147.667 295.158 146.701C281.615 145.196 270.922 143.841 255.441 141.668C253.672 141.42 252.114 141.328 251.978 141.463C251.843 141.599 250.857 146.826 249.788 153.08L247.844 164.45L249.376 167.263C250.608 169.527 250.908 170.671 250.908 173.114C250.908 177.433 249.864 182.489 247.794 188.2C246.727 191.143 243.487 194.7 241.873 194.7C240.714 194.7 240.514 195.055 239.848 198.286C239.546 199.751 239.088 201.962 238.83 203.2C238.064 206.885 237.525 209.759 236.958 213.2C236.663 214.987 236.181 217.8 235.886 219.45C235.591 221.1 235.137 223.8 234.877 225.45C234.617 227.1 234.295 229.125 234.162 229.95C233.562 233.663 231.916 248.615 231.381 255.2C230.473 266.392 231.06 293.299 232.4 301.95C232.656 303.6 232.992 305.962 233.148 307.2C233.788 312.275 236.862 322.279 238.594 324.922C239.2 325.847 240.237 326.212 244.247 326.912C246.948 327.383 249.946 327.964 250.908 328.204C252.472 328.593 258.546 329.726 267.158 331.235C268.808 331.524 270.946 331.958 271.908 332.2C274.179 332.771 278.54 333.565 284.158 334.43C286.633 334.811 292.708 335.825 297.658 336.683C307.931 338.464 308.653 338.574 312.408 338.944C313.92 339.094 317.071 339.52 319.408 339.892C324.807 340.752 325.408 340.791 325.408 340.287ZM343.138 338.706C349.185 337.716 358.086 334.477 368.908 329.328C372.346 327.692 376.058 325.942 377.158 325.438C378.258 324.935 379.72 324.147 380.408 323.688C381.096 323.228 382.896 322.169 384.408 321.334C395.518 315.201 397.696 313.837 404.744 308.597C412.418 302.893 416.059 298.284 419.475 289.95C421.521 284.959 423.166 273.63 423.974 258.978C424.569 248.183 424.242 220.807 423.421 212.7C422.271 201.356 420.288 184.769 419.834 182.7C419.562 181.462 418.91 178.2 418.385 175.45C417.365 170.112 415.137 161.472 413.443 156.28C412.874 154.537 412.408 152.684 412.408 152.162C412.408 150.907 405.453 143.127 402.492 141.071C400.236 139.504 400 139.452 395.408 139.516C391.323 139.572 385.309 140.632 384.504 141.437C384.273 141.668 385.383 144.73 386.447 146.799C386.688 147.266 387.255 149.28 387.709 151.275C388.584 155.122 388.417 160.734 387.39 161.971C386.984 162.461 387.161 163.111 388.093 164.539C388.779 165.59 389.939 168.025 390.67 169.95C391.401 171.875 392.18 173.9 392.401 174.45C392.621 175 393.389 177.362 394.107 179.7C398.417 193.727 398.992 200.242 396.18 203.177C394.9 204.514 393.833 205.131 389.158 207.242C384.291 209.439 381.379 209.487 378.603 207.416C375.439 205.056 374.314 200.575 373.371 186.574C373.054 181.87 372.887 176.07 373.001 173.687C373.206 169.406 373.192 169.344 371.851 168.575C369.44 167.191 368.942 165.928 366.385 154.7C365.707 151.725 364.629 149.699 363.725 149.702C362.269 149.707 353.865 154.589 350.412 157.436C348.901 158.681 347.438 159.717 347.162 159.738C344.76 159.921 343.39 161.188 341.155 165.294C339.576 168.195 340.104 168.426 342.111 165.712C344.931 161.899 345.953 162.987 343.419 167.105C340.006 172.652 335.247 186.603 332.472 199.2C332.139 200.712 331.667 202.737 331.424 203.7C330.854 205.959 330.08 210.045 329.389 214.45C329.087 216.375 328.645 218.625 328.408 219.45C327.199 223.658 326.056 233.154 323.864 257.2C323.009 266.579 322.692 297.469 323.369 305.45C324.72 321.388 325.843 327.654 328.159 332.179C329.467 334.733 332.525 337.896 334.408 338.642C336.042 339.289 339.428 339.314 343.138 338.706ZM231.746 323.825C231.593 323.344 230.761 320.925 229.897 318.45C227.711 312.184 226.92 307.788 225.625 294.7C224.974 288.113 224.874 283.526 225.13 271.95C225.307 263.975 225.666 255.65 225.928 253.45C226.189 251.25 226.629 247.313 226.905 244.7C227.18 242.087 227.621 238.262 227.884 236.2C228.331 232.697 228.557 231.241 229.861 223.45C230.137 221.8 230.499 219.55 230.665 218.45C231.049 215.906 231.678 213.04 234.181 202.45C234.895 199.425 235.811 196.437 236.215 195.811C236.619 195.184 236.814 194.453 236.649 194.186C236.484 193.919 234.844 193.692 233.003 193.682C230.017 193.666 225.054 192.995 218.408 191.708C214.042 190.862 214.254 190.816 213.816 192.7C213.236 195.19 212.368 199.116 211.881 201.45C211.651 202.55 211.224 204.462 210.932 205.7C210.28 208.468 209.79 210.881 208.445 217.95C203.237 245.319 201.747 274.496 204.45 296.2C205.696 306.204 206.774 310.783 209.116 316.011L211.158 320.571L217.158 321.728C220.458 322.365 224.958 323.268 227.158 323.736C229.358 324.203 231.353 324.611 231.591 324.643C231.83 324.674 231.899 324.306 231.746 323.825ZM203.908 318.23C203.908 317.696 203.725 317.146 203.502 317.008C203.279 316.87 202.621 315.226 202.041 313.354C200.158 307.274 200.074 306.854 198.367 294.95C197.622 289.748 197.28 262.119 197.897 256.95C198.16 254.75 198.611 250.153 198.9 246.734C199.749 236.671 201.223 226.427 203.256 216.45C205.544 205.225 205.958 203.436 207.648 197.45C208.113 195.8 208.67 193.745 208.885 192.884C209.1 192.023 209.433 191.064 209.625 190.753C209.817 190.443 209.318 189.533 208.516 188.731C205.103 185.318 205.32 179.698 209.269 169.223C210.806 165.147 211.926 163.58 214.635 161.716C216.25 160.605 216.861 159.816 217.055 158.59C217.198 157.688 217.564 156.05 217.869 154.95C218.416 152.972 219.05 150.331 219.908 146.45C220.151 145.35 220.616 143.325 220.941 141.95C222.137 136.896 222.198 136.997 217.658 136.603C213.684 136.258 208.362 135.619 201.658 134.682C196.102 133.906 194.699 133.715 184.908 132.399C179.82 131.715 173.633 130.836 171.158 130.445C168.683 130.054 164.746 129.506 162.408 129.228C148.916 127.625 130.8 124.955 126.378 123.92C125.134 123.628 125.074 123.732 124.284 127.535C123.837 129.688 123.213 132.35 122.898 133.45C122.353 135.35 122.121 136.444 120.964 142.574C120.692 144.017 120.32 145.437 120.139 145.73C119.958 146.023 120.137 146.643 120.536 147.107C122.929 149.888 123.379 153.065 122.179 158.7C121.028 164.099 120.56 165.629 119.216 168.375C117.651 171.575 116.236 172.967 113.636 173.863C111.981 174.433 111.633 174.793 111.505 176.068C111.382 177.3 111.166 177.543 110.38 177.338C109.631 177.142 109.408 177.34 109.408 178.203C109.408 179.141 109.529 179.222 110.158 178.7C110.806 178.162 110.908 178.39 110.908 180.382C110.908 182.567 110.704 183.699 109.139 190.2C108.775 191.712 108.114 195.425 107.67 198.45C107.225 201.475 106.654 205.075 106.4 206.45C104.629 216.037 103.602 225.244 102.651 240.047C102.224 246.7 101.985 252.662 102.12 253.297C102.254 253.931 102.504 258.043 102.674 262.433C102.844 266.824 103.071 270.559 103.178 270.732C103.285 270.906 103.521 272.713 103.701 274.749C103.882 276.784 104.228 278.971 104.469 279.608C104.71 280.244 104.908 281.527 104.908 282.459C104.908 283.391 105.112 284.67 105.362 285.301C105.612 285.933 106.31 288.104 106.913 290.127C108.351 294.945 110.273 299.093 111.33 299.658C111.796 299.907 113.072 300.262 114.167 300.446C115.262 300.629 119.622 301.567 123.856 302.528C128.09 303.49 132.815 304.505 134.356 304.784C135.897 305.064 138.058 305.476 139.158 305.7C140.258 305.924 142.396 306.353 143.908 306.652C145.42 306.952 147.558 307.4 148.658 307.647C149.758 307.894 153.47 308.68 156.908 309.394C166.088 311.301 174.621 313.201 178.408 314.181C179.371 314.43 182.295 315.013 184.908 315.477C190.561 316.48 192.894 316.954 195.908 317.709C198.016 318.238 201.874 318.983 203.283 319.133C203.627 319.17 203.908 318.763 203.908 318.23ZM103.158 302.2C103.328 301.925 102.99 301.7 102.408 301.7C101.826 301.7 101.488 301.925 101.658 302.2C101.828 302.475 102.165 302.7 102.408 302.7C102.651 302.7 102.988 302.475 103.158 302.2ZM76.9081 211.117C76.9081 210.246 76.7511 209.69 76.5601 209.881C76.1061 210.336 75.9001 211.783 76.2181 212.296C76.6921 213.064 76.9081 212.694 76.9081 211.117ZM78.1341 203.759C77.6461 203.271 77.2821 204.257 77.1041 206.55L76.9171 208.95L77.6381 206.467C78.0351 205.102 78.2581 203.883 78.1341 203.759ZM388.408 201.063C391.619 199.469 391.66 199.423 391.817 197.215C391.905 195.985 391.722 193.96 391.411 192.715C391.099 191.469 390.645 189.663 390.401 188.7C389.6 185.544 384.843 170.476 384.285 169.325C383.62 167.956 383.59 167.955 380.762 169.206L378.489 170.211L378.73 175.081C378.862 177.759 379.182 181.456 379.439 183.296C379.697 185.136 379.913 187.836 379.919 189.296C379.937 193.816 381.159 200.596 382.153 201.695C383.398 203.07 384.612 202.947 388.408 201.063ZM240.68 189.814C242.794 188.026 243.243 186.85 245.457 177.308C246.39 173.288 246.315 170.481 245.284 170.825C245.007 170.917 244.072 172.333 243.207 173.971L241.634 176.95L238.146 176.818C234.132 176.666 227.488 175.839 224.85 175.163C223.856 174.909 222.506 174.694 221.85 174.686C221.194 174.679 219.83 173.903 218.817 172.961C217.413 171.656 216.896 170.71 216.636 168.975C216.448 167.724 216.031 166.7 215.709 166.7C213.193 166.7 209.453 183.37 211.574 185.13C212.18 185.633 212.502 185.472 213.393 184.221C214.734 182.338 215.295 182.299 215.5 184.075C215.643 185.316 215.903 185.484 218.158 185.793C219.533 185.981 222.008 186.391 223.658 186.704C225.308 187.017 228.008 187.444 229.658 187.654C233.374 188.127 238.408 189.612 238.408 190.235C238.408 190.971 239.565 190.757 240.68 189.814ZM241.953 172.333C242.316 171.376 242.309 170.363 241.926 168.958C241.547 167.563 241.53 165.729 241.869 162.95C242.139 160.75 242.495 157.825 242.663 156.45C242.83 155.075 243.163 153.388 243.404 152.7C243.644 152.012 243.967 150.325 244.121 148.95C244.274 147.575 244.641 145.438 244.936 144.2C245.231 142.962 245.668 140.712 245.908 139.2C246.337 136.498 246.845 133.655 247.874 128.2C248.16 126.688 248.618 123.65 248.893 121.45C249.168 119.25 249.626 116.212 249.912 114.7C250.198 113.187 250.646 110.15 250.908 107.95C252.772 92.3032 253.202 89.5172 253.783 89.3242C254.153 89.2012 254.408 89.5532 254.408 90.1882C254.408 90.7772 254.633 91.1202 254.908 90.9502C255.191 90.7752 255.37 88.7522 255.322 86.2952L255.235 81.9502L254.928 85.2002L254.621 88.4502L254.389 83.9502C254.113 78.5692 254.335 75.7802 254.962 76.7692C255.253 77.2292 255.404 76.8822 255.428 75.7002C255.447 74.7372 255.521 73.0072 255.592 71.8532C255.744 69.3762 255.163 69.4352 254.692 71.9442C254.14 74.8852 253.408 73.9072 253.408 70.2302C253.408 68.3212 253.183 66.6202 252.908 66.4502C252.633 66.2802 252.409 64.8612 252.41 63.2952C252.412 61.7302 252.088 59.4372 251.691 58.2002C251.294 56.9632 250.744 54.7132 250.468 53.2002C249.105 45.7282 248.727 44.1062 247.327 39.7132C244.598 31.1532 241.922 26.1062 237.005 20.2412C232.076 14.3632 228.028 11.6452 220.408 9.09619C211.333 6.06219 204.685 5.95919 190.658 8.63619C186.282 9.47119 183.741 10.3962 176.658 13.7302C165.024 19.2072 151.622 30.5072 141.11 43.7002C135.015 51.3512 125.239 67.0482 120.56 76.7002C115.668 86.7892 112.826 93.3882 109.902 101.45C109.403 102.825 108.095 106.425 106.996 109.45C104.628 115.966 102.43 122.525 100.88 127.7C98.6351 135.197 95.7611 143.979 95.1521 145.2C94.8091 145.888 94.3711 147.181 94.1781 148.075L93.8291 149.7L96.2431 149.727C98.4701 149.752 103.376 150.476 108.908 151.596C113.767 152.579 115.229 154.311 112.635 156.011C111.447 156.79 111.026 156.789 106.26 156C92.7431 153.762 92.2051 153.502 91.6341 148.934C91.4461 147.426 91.0381 146.2 90.7251 146.2C89.5191 146.2 85.7201 156.086 85.1061 160.817C84.8041 163.152 85.6651 165.025 86.6611 164.198C87.0361 163.886 87.4891 162.971 87.6661 162.165C87.8791 161.195 88.2971 160.7 88.9041 160.7C89.6741 160.7 89.8071 161.076 89.7391 163.058L89.6581 165.417L91.9081 165.772C101.543 167.294 106.484 168.373 108.607 169.416L111.056 170.62L112.419 169.613C114.01 168.437 115.398 165.469 116.861 160.118C118.559 153.906 118.136 150.193 115.974 152.325C115.466 152.826 115.198 152.757 114.624 151.979C113.684 150.705 113.718 147.622 114.721 143.108C115.168 141.096 115.712 138.438 115.929 137.2C116.466 134.141 117.749 129.087 118.93 125.384C119.468 123.698 119.908 121.951 119.908 121.503C119.908 121.054 120.134 120.296 120.411 119.818C120.936 118.91 123.496 111.566 124.634 107.7C125.655 104.229 129.129 94.7242 130.344 92.0752C130.943 90.7692 131.569 89.0202 131.735 88.1902C131.901 87.3592 132.233 86.5582 132.473 86.4102C132.712 86.2622 132.908 85.7832 132.908 85.3452C132.908 84.2852 141.394 67.3772 143.36 64.5202C144.211 63.2822 144.908 62.1692 144.908 62.0452C144.908 61.9222 145.688 60.5252 146.642 58.9412C150.88 51.9042 155.534 46.0582 162.401 39.1452C174.76 26.7052 184.756 20.8672 200.062 17.1502C204.562 16.0582 213.888 17.1762 217.582 19.2502C218.09 19.5362 218.652 19.6202 218.832 19.4382C219.249 19.0142 215.653 15.9522 213.554 14.9442C211.444 13.9302 211.051 13.1972 212.177 12.3742C213.497 11.4092 215.953 11.5622 217.408 12.7002C218.096 13.2382 218.863 13.6832 219.113 13.6892C220.273 13.7172 225.033 17.9722 227.341 21.0432C232.781 28.2822 235.366 35.4062 237.197 48.1992C238.536 57.5612 237.871 83.2802 235.943 96.7002C235.135 102.322 234.377 107.36 233.951 109.95C233.416 113.198 230.987 125.443 230.431 127.7C230.193 128.663 229.744 130.688 229.433 132.2C228.889 134.837 228.608 136.029 227.481 140.45C227.2 141.55 226.743 143.462 226.463 144.7C225.996 146.768 225.611 148.345 223.649 156.2C223.272 157.712 222.265 161.056 221.412 163.631C220.559 166.205 219.945 168.561 220.047 168.867C220.209 169.354 224.46 170.112 231.908 170.983C234.398 171.274 239.392 172.682 240.133 173.303C240.954 173.99 241.416 173.743 241.953 172.333ZM380.168 164.005C380.992 163.402 381.037 163.132 380.508 161.969C379.407 159.553 377.133 161.46 378.103 163.986C378.447 164.883 378.961 164.887 380.168 164.005ZM373.908 159.238C373.908 158.709 374.464 157.616 375.143 156.809C376.216 155.534 376.339 155.014 376.081 152.838C375.703 149.642 376.566 148.904 378.238 150.994C378.879 151.795 379.404 152.746 379.406 153.108C379.409 153.921 381.862 157.2 382.467 157.2C383.153 157.2 382.972 153.175 382.184 150.915C380.55 146.227 378.88 143.171 376.9 141.251C374.11 138.543 374.838 136.557 378.001 138.25C378.831 138.694 379.312 138.59 380.507 137.706C381.32 137.105 384.049 136.096 386.572 135.464C391.514 134.226 391.495 134.109 386.158 132.906C373.198 129.984 357.99 127.377 341.158 125.192C337.033 124.656 330.508 123.773 326.658 123.231C322.808 122.688 318.196 122.104 316.408 121.933C311.266 121.442 309.87 121.282 306.408 120.786C304.62 120.53 299.783 119.837 295.658 119.246C288.466 118.217 283.747 117.6 276.158 116.7C271.299 116.123 265.303 115.313 261.158 114.674C255.172 113.751 255.785 113.37 255.076 118.45C254.731 120.925 254.09 125.875 253.651 129.45C253.212 133.025 252.738 136.344 252.597 136.825C252.367 137.611 252.785 137.7 256.719 137.7C259.127 137.7 262.349 137.918 263.878 138.184C265.407 138.45 269.92 139.12 273.908 139.673C277.896 140.226 282.058 140.805 283.158 140.961C288.166 141.67 292.295 142.185 300.658 143.141C305.608 143.708 311.346 144.413 313.408 144.709C315.47 145.004 318.058 145.339 319.158 145.451C325.89 146.141 331.515 146.818 333.908 147.225C335.42 147.482 338.751 148.034 341.31 148.451C343.869 148.868 346.76 149.543 347.735 149.95C349.457 150.669 349.571 150.645 351.708 149.111C352.918 148.242 353.908 147.267 353.908 146.944C353.908 146.085 347.598 143.821 344.408 143.536C342.896 143.401 338.62 142.821 334.908 142.248C331.196 141.675 320.17 140.189 310.408 138.947C300.646 137.705 291.308 136.477 289.658 136.218C288.008 135.96 284.408 135.497 281.658 135.189C278.908 134.882 275.844 134.421 274.85 134.165C273.856 133.909 272.281 133.699 271.35 133.697C270.419 133.696 268.87 133.494 267.908 133.248C266.946 133.003 264.414 132.509 262.283 132.151C260.152 131.794 258.408 131.329 258.408 131.118C258.408 129.573 266.625 129.378 277.908 130.655C291.009 132.138 293.94 132.501 302.408 133.686C304.196 133.936 310.72 134.836 316.908 135.685C332.925 137.885 333.937 138.031 341.158 139.193C344.733 139.768 348.67 140.367 349.908 140.524C351.146 140.681 353.747 141.561 355.689 142.478C358.815 143.956 359.545 144.114 362.052 143.855C364.578 143.594 365.068 143.704 366.596 144.869C368.346 146.203 370.908 150.205 370.908 151.602C370.908 152.03 371.122 153.07 371.384 153.915C371.645 154.759 372.125 156.519 372.449 157.825C373.039 160.204 373.908 161.045 373.908 159.238ZM416.95 154.663C416.659 153.681 415.759 152.287 414.95 151.567L413.48 150.256L413.767 152.103C413.925 153.119 414.472 154.547 414.981 155.277C415.491 156.007 415.908 156.926 415.908 157.319C415.908 158.601 416.609 158.772 417.05 157.597C417.307 156.91 417.268 155.733 416.95 154.663ZM222.919 132.075C222.925 131.456 223.375 129.969 223.919 128.77C224.463 127.572 224.908 126.025 224.908 125.334C224.908 124.643 225.606 120.603 226.458 116.356C227.311 112.109 227.887 108.512 227.737 108.363C227.588 108.213 225.034 108.371 222.062 108.712C214.58 109.571 213.491 109.515 198.658 107.51C195.633 107.101 191.246 106.626 188.908 106.455C183.651 106.071 177.757 105.421 173.158 104.719C171.233 104.425 167.858 103.978 165.658 103.726C163.458 103.474 158.733 102.794 155.158 102.215C151.583 101.636 147.42 101.037 145.908 100.885C143.315 100.623 139.688 99.9052 135.172 98.7592C134.08 98.4822 133.166 98.2992 133.141 98.3532C133.116 98.4062 132.5 100.362 131.772 102.7C129.838 108.907 128.912 111.356 128.179 112.2C127.625 112.837 126.408 118.278 126.408 120.116C126.408 120.467 127.255 120.706 128.533 120.716C130.618 120.732 137.728 121.613 144.658 122.714C146.583 123.02 149.17 123.377 150.408 123.507C151.646 123.636 154.458 124.072 156.658 124.474C160.794 125.23 168.123 126.169 177.658 127.165C183.307 127.755 186.691 128.192 193.658 129.233C195.858 129.561 198.445 129.908 199.408 130.003C203.808 130.438 212.751 131.671 218.908 132.693C222.706 133.323 222.907 133.292 222.919 132.075ZM305.408 113.535C305.408 113.445 304.853 111.813 304.175 109.91C303.497 108.007 302.605 105.213 302.193 103.7C299.856 95.1242 298.857 91.8532 297.383 87.9502C297.175 87.4002 296.549 85.7132 295.992 84.2002C294.375 79.8132 291.384 72.0952 290.614 70.3252C290.226 69.4312 289.543 67.8562 289.097 66.8252C282.504 51.5942 272.411 36.1562 263.134 27.1182C258.037 22.1532 251.264 16.9882 246.602 14.5102C243.612 12.9212 233.508 8.70019 232.696 8.70019C231.937 8.70019 232.558 9.57319 233.867 10.3472C237.62 12.5632 241.173 16.0752 243.967 20.3302C245.584 22.7942 246.908 25.0312 246.908 25.3032C246.908 25.5742 247.32 26.3932 247.823 27.1232C249.834 30.0422 252.707 39.2912 252.674 42.7452C252.665 43.6832 252.939 44.7472 253.283 45.1112C253.627 45.4742 253.908 46.2842 253.908 46.9112C253.908 47.5382 254.159 48.7712 254.466 49.6512C255.191 51.7312 254.609 52.2702 253.34 50.6932L252.34 49.4502L252.671 54.1962C252.853 56.8062 253.206 59.3222 253.455 59.7882C253.704 60.2532 253.908 61.8732 253.908 63.3882C253.908 64.9022 254.133 66.2802 254.408 66.4502C254.719 66.6422 254.908 65.6722 254.908 63.8802C254.908 59.1842 255.769 61.3932 256.494 67.9502C257.354 75.7192 257.341 95.7702 256.472 103.283C256.101 106.492 255.932 109.334 256.096 109.599C256.287 109.908 257.239 109.901 258.746 109.58C261.142 109.069 272.518 109.877 283.158 111.315C284.032 111.433 284.177 111.121 284.309 108.83C284.406 107.152 284.164 105.587 283.637 104.476C283.184 103.521 282.284 100.763 281.636 98.3452C279.965 92.1022 276.347 81.4062 271.78 69.2002C270.407 65.5322 264.111 52.9892 262.311 50.3382C261.523 49.1762 260.261 46.9212 259.506 45.3262C258.752 43.7302 257.113 40.8562 255.863 38.9382C251.867 32.8002 251.779 32.6292 252.328 32.0802C253.066 31.3422 258.272 36.4512 262.385 41.9502C267.098 48.2492 268.237 50.4042 275.873 67.4502C276.366 68.5502 277.383 71.3622 278.134 73.7002C278.886 76.0382 279.791 78.5122 280.146 79.2002C281.18 81.2042 283.539 89.2082 283.671 91.1602C283.737 92.1452 284.131 93.9632 284.545 95.2002C284.96 96.4372 285.444 98.4392 285.621 99.6472C285.798 100.856 286.351 102.431 286.849 103.147C288.121 104.976 288.908 107.515 288.908 109.79C288.908 110.884 289.181 111.834 289.533 111.967C290.942 112.499 305.408 113.928 305.408 113.535ZM228.366 102.825C228.696 100.694 229.084 98.3882 229.227 97.7002C229.995 94.0282 231.909 72.9492 231.906 68.2002C231.904 63.5882 230.664 49.8292 229.925 46.2002C228.792 40.6462 228.358 38.9742 227.112 35.3622C226.381 33.2452 225.4 30.8232 224.932 29.9812C222.72 25.9982 215.227 22.6622 208.551 22.6872C205.321 22.6992 204.883 22.8182 204.367 23.8252C204.05 24.4442 202.953 25.8502 201.928 26.9502C200.106 28.9052 195.286 38.7832 193.753 43.7002C192.065 49.1192 190.455 56.0692 189.468 62.2002C188.651 67.2692 187.764 83.1472 188.127 86.2002C188.306 87.7132 188.571 91.3122 188.715 94.2002C189.033 100.556 189.074 100.7 190.559 100.7C191.209 100.7 191.908 100.869 192.112 101.075C192.451 101.419 203.713 102.762 212.158 103.465C215.573 103.75 218.582 104.385 223.658 105.891C227.769 107.111 227.696 107.159 228.366 102.825ZM285.908 104.141C285.908 103.591 285.683 103.28 285.408 103.45C285.133 103.62 284.908 104.209 284.908 104.759C284.908 105.309 285.133 105.62 285.408 105.45C285.683 105.28 285.908 104.691 285.908 104.141ZM184.023 99.4182C184.178 99.2632 183.971 97.7452 183.564 96.0432C182.198 90.3372 183.454 61.0202 185.367 53.9502C185.59 53.1252 186.047 51.4372 186.383 50.2002C188.117 43.8042 191.234 35.2252 192.747 32.6852C194.465 29.8012 197.762 26.6372 201.107 24.6642C202.818 23.6542 203.462 22.7002 202.433 22.7002C199.377 22.7002 190.015 25.8952 184.47 28.8292C178.906 31.7742 176.391 33.5792 170.324 38.9802C157.614 50.2952 145.424 68.3412 137.604 87.4172C136.146 90.9752 134.606 94.0792 134.181 94.3172C133.051 94.9502 133.234 96.2002 134.457 96.2002C135.035 96.2002 136.286 95.8302 137.239 95.3782C138.628 94.7192 139.782 94.6242 143.065 94.8972C148.147 95.3212 153.278 95.8992 159.286 96.7252C161.831 97.0752 164.033 97.2422 164.179 97.0952C164.326 96.9492 164.42 94.7192 164.388 92.1392C164.308 85.5672 164.307 85.5692 164.868 79.4502C165.401 73.6342 166.271 68.0312 167.664 61.4502C169.756 51.5612 173.317 42.7002 175.199 42.7002C176.115 42.7002 176.088 43.8522 175.1 46.9502C173.965 50.5072 172.744 55.7492 171.898 60.7002C171.639 62.2132 171.336 63.9002 171.225 64.4502C170.959 65.7622 170.057 73.2292 169.444 79.2002C169.176 81.8122 168.889 86.9812 168.807 90.6862L168.658 97.4222L172.158 98.0312C174.083 98.3672 177.233 98.8452 179.158 99.0952C181.083 99.3452 182.902 99.5832 183.2 99.6252C183.498 99.6662 183.868 99.5732 184.023 99.4182ZM133.857 90.7002C134.373 89.1602 134.355 89.0402 133.708 89.7002C133.304 90.1132 132.817 91.1252 132.626 91.9502C132.161 93.9572 133.079 93.0262 133.857 90.7002ZM118.39 73.2682C118.354 72.6172 116.944 75.4792 116.945 76.2002C116.946 76.6122 117.276 76.1932 117.678 75.2682C118.079 74.3422 118.4 73.4422 118.39 73.2682ZM121.36 67.6232C122.892 64.8252 123.333 63.5552 122.454 64.4752C121.69 65.2752 119.408 69.6042 119.408 70.2552C119.408 71.1002 119.593 70.8512 121.36 67.6232ZM78.9081 286.17C78.9081 285.604 79.1331 285.28 79.4081 285.45C79.6831 285.62 79.9081 286.083 79.9081 286.48C79.9081 286.876 79.6831 287.2 79.4081 287.2C79.1331 287.2 78.9081 286.737 78.9081 286.17ZM46.7681 276.822C45.5301 275.454 44.1711 271.237 44.7731 270.635C45.3751 270.033 46.4531 271.646 47.3701 274.517C48.2021 277.124 47.9431 278.119 46.7681 276.822ZM37.9801 275.037C36.6971 273.491 35.0101 268.674 34.4761 265.033C33.8811 260.975 33.9901 260.2 35.1541 260.2C35.9051 260.2 36.1671 260.87 36.6651 264.072C36.8461 265.239 37.5671 267.714 38.2651 269.572C39.9661 274.092 40.2311 275.7 39.2761 275.7C38.8661 275.7 38.2831 275.402 37.9801 275.037ZM29.6171 273.296C25.6161 270.564 21.5651 251.542 23.2201 243.262C23.7761 240.486 24.7511 241.441 25.0711 245.075C25.9191 254.694 26.9031 259.74 29.3291 266.903C30.7791 271.183 31.1351 272.804 30.7051 273.161C30.3861 273.426 29.8961 273.487 29.6171 273.296ZM19.0611 265.825C18.4941 264.794 17.7621 263.05 17.4341 261.95C17.1061 260.85 16.6461 259.5 16.4101 258.95C15.9951 257.98 15.4611 254.508 14.3731 245.7C13.6471 239.825 13.2531 223.58 13.7491 219.991C13.9741 218.364 14.4031 216.951 14.7031 216.851C15.0771 216.727 15.3531 219.703 15.5801 226.31C16.1071 241.634 18.2731 257.553 20.6841 263.835C22.1801 267.73 20.9421 269.246 19.0611 265.825ZM78.4951 192.489C78.5841 191.685 78.9631 190.927 79.3351 190.804C79.8391 190.639 79.9211 190.887 79.6541 191.766C79.0761 193.676 78.3081 194.155 78.4951 192.489ZM79.1311 189.656C78.9461 189.357 79.0461 188.862 79.3521 188.556C79.7601 188.148 79.9081 188.292 79.9081 189.1C79.9081 190.307 79.6481 190.493 79.1311 189.656ZM109.634 88.9502C110.059 87.1012 110.915 86.0982 110.892 87.4752C110.883 88.0112 110.519 88.9002 110.083 89.4502C109.322 90.4092 109.303 90.3892 109.634 88.9502ZM341.723 330.805C341.453 330.368 346.021 321.111 350.162 313.7C351.622 311.087 353.387 307.656 354.085 306.075C354.845 304.351 355.664 303.2 356.13 303.2C356.558 303.2 356.908 303.521 356.908 303.914C356.908 304.963 351.35 317.833 348.965 322.307C347.833 324.429 346.908 326.726 346.908 327.411C346.908 328.353 346.378 328.969 344.739 329.929C342.377 331.313 342.089 331.397 341.723 330.805ZM353.783 327.85C352.236 327.455 352.839 326.323 355.783 324.093C357.989 322.423 359.752 320.29 363.355 314.933C367.732 308.425 369.408 306.601 369.408 308.345C369.408 309.531 362.92 321.84 361.488 323.371C358.309 326.769 355.638 328.322 353.783 327.85ZM333.655 326.196C333.161 325.395 333.719 324.007 338.378 314.45C340.791 309.5 343.293 304.1 343.937 302.45C345.339 298.861 346.838 296.2 347.457 296.2C348.161 296.2 348.001 297.251 346.729 300.987C345.43 304.801 344.76 306.328 340.089 316.113C338.339 319.778 336.908 322.966 336.908 323.198C336.908 323.429 336.514 324.311 336.033 325.156C335.147 326.713 334.224 327.116 333.655 326.196ZM369.258 319.993C369.478 319.604 371.177 318.114 373.033 316.683C374.889 315.251 376.408 313.913 376.408 313.709C376.408 313.055 381.351 306.021 382.11 305.597C383.437 304.854 383.466 306.12 382.179 308.556C378.195 316.094 378.027 316.309 374.205 318.786C371.216 320.724 368.466 321.395 369.258 319.993ZM330.908 310.491C330.908 303.88 331.114 302.618 332.128 303.008C332.496 303.149 332.986 302.659 333.286 301.851C335.059 297.088 335.926 294.526 336.892 291.2C338.623 285.241 340.228 281.464 341.104 281.288C342.231 281.062 342.158 281.542 339.903 289.169C338.8 292.898 337.645 296.85 337.336 297.95C337.027 299.05 336.136 301.819 335.355 304.102C334.574 306.386 333.805 309.424 333.647 310.852C333.047 316.256 332.913 316.7 331.885 316.7C330.968 316.7 330.908 316.319 330.908 310.491ZM386.785 311.825C386.684 311.619 388.959 309.091 391.84 306.208L397.077 300.966L396.757 302.958C396.58 304.054 396.599 304.722 396.797 304.443C397.375 303.631 402.047 299.904 403.337 299.227C404.084 298.834 404.69 298.782 404.992 299.084C405.487 299.579 399.067 304.7 397.952 304.7C397.631 304.7 396.533 305.591 395.513 306.68C393.854 308.45 388.303 312.2 387.342 312.2C387.136 312.2 386.885 312.031 386.785 311.825ZM330.908 301.2C330.908 300.267 331.041 300.133 331.508 300.6C331.975 301.067 331.975 301.333 331.508 301.8C331.041 302.267 330.908 302.133 330.908 301.2ZM405.908 298.64C405.908 298.312 406.493 297.278 407.208 296.341C407.922 295.403 409.732 292.007 411.229 288.793C415.196 280.277 416.017 278.7 416.487 278.7C417.057 278.7 417.021 279.886 416.434 280.475C416.173 280.736 415.612 282.3 415.188 283.95C414.291 287.434 411.63 293.054 409.454 296.057C407.832 298.297 405.908 299.698 405.908 298.64ZM329.702 295.446C329.529 294.757 329.39 290.65 329.394 286.321C329.4 279.08 329.776 274.52 330.911 267.95C331.149 266.575 331.499 264.381 331.69 263.075C331.928 261.452 332.276 260.7 332.788 260.7C333.404 260.7 333.481 261.212 333.22 263.575C332.478 270.3 331.954 278.963 331.853 286.2C331.75 293.524 331.315 296.7 330.413 296.7C330.195 296.7 329.875 296.136 329.702 295.446ZM412.598 272.511C412.783 271.775 413.463 269.998 414.109 268.562C414.755 267.125 415.553 265.109 415.882 264.082C416.491 262.183 417.223 261.348 417.786 261.911C418.183 262.308 416.669 266.617 414.843 270.289C413.25 273.49 412.055 274.673 412.598 272.511ZM414.646 254.19C414.848 253.233 415.215 252.236 415.461 251.975C415.707 251.714 415.908 251.12 415.908 250.655C415.908 249.612 417.867 247.135 417.891 248.149C417.921 249.377 415.808 254.661 415.029 255.307C414.376 255.849 414.326 255.703 414.646 254.19ZM414.198 240.874C415.536 235.173 417.943 230.547 417.888 233.783C417.86 235.473 415.273 241.83 414.511 242.083C414.035 242.241 413.953 241.922 414.198 240.874ZM414.908 224.129C414.908 221.515 415.914 219.04 416.67 219.795C417.006 220.131 415.7 226.074 415.175 226.6C415.028 226.747 414.908 225.635 414.908 224.129ZM411.885 187.075C411.786 182.147 412 169.941 412.189 169.753C412.319 169.623 412.664 169.756 412.956 170.048C413.528 170.62 413.656 184.787 413.109 186.966C412.722 188.509 411.916 188.581 411.885 187.075ZM408.241 166.867C407.705 166.33 407.859 157.789 408.412 157.448C409.106 157.019 409.281 157.783 409.645 162.825C409.9 166.372 409.829 167.2 409.267 167.2C408.886 167.2 408.425 167.05 408.241 166.867ZM210.408 125.916C207.246 125.553 202.858 125.009 200.658 124.706C198.458 124.404 194.858 123.953 192.658 123.705C190.458 123.456 185.17 122.783 180.908 122.21C176.646 121.636 171.47 120.946 169.408 120.678C167.346 120.41 164.758 120.065 163.658 119.911C157.007 118.984 150.228 118.057 147.408 117.687C145.621 117.453 142.92 117.006 141.408 116.693C139.896 116.38 137.423 115.972 135.913 115.787C133.95 115.546 133.124 115.218 133.013 114.635C132.582 112.373 142.22 113.12 179.658 118.255C183.783 118.821 187.945 119.385 188.908 119.508C215.859 122.959 219.812 123.661 220.286 125.084C220.439 125.543 217.223 126.829 216.408 126.635C216.271 126.602 213.57 126.279 210.408 125.916ZM175.523 41.1062C175.832 40.1792 176.908 40.0252 176.908 40.9082C176.908 41.3442 176.552 41.7002 176.116 41.7002C175.681 41.7002 175.414 41.4332 175.523 41.1062Z" fill="white"/>
</svg>
