<svg width="392" height="353" viewBox="0 0 392 353" fill="none" xmlns="http://www.w3.org/2000/svg">
<path fill-rule="evenodd" clip-rule="evenodd" d="M139.581 352.418C131.21 351.521 123.756 349.244 114.986 344.905C94.0953 334.569 72.2693 313.93 51.0123 284.411C35.7643 263.235 19.9253 233.241 11.2753 209.161C5.94227 194.316 1.86527 177.937 0.60627 166.306C-1.49273 146.909 1.92927 127.706 9.77427 114.854C12.6553 110.135 19.0043 102.901 23.4043 99.3233C32.3963 92.0133 46.9103 83.9943 55.4813 81.6013C59.4803 80.4843 60.8863 80.3283 65.5173 80.4863C70.5463 80.6593 71.1533 80.7943 74.6773 82.5363C81.3883 85.8533 88.0253 94.1673 94.3433 107.172C98.0953 114.896 99.0753 117.296 101.585 124.911C103.284 130.065 103.994 132.688 105.604 139.757C106.259 142.634 106.206 154.082 105.526 156.603C104.447 160.602 102.317 164.157 99.1993 167.16C95.5613 170.665 86.0243 175.511 76.0813 178.908C73.4693 179.801 70.5003 180.952 69.4853 181.466C67.5833 182.43 65.4363 184.872 64.8833 186.699C64.0303 189.516 68.2553 204.157 72.7353 213.911C73.4293 215.423 74.9243 218.677 76.0563 221.141C79.0263 227.605 86.9683 241.219 91.7303 248.01C99.3883 258.931 107.795 268.212 111.714 270.072C113.937 271.127 118.16 271.155 120.146 270.128C120.979 269.697 124.736 267.302 128.496 264.807C136.272 259.645 142.849 256.302 147.581 255.106C151.603 254.089 157.535 254.411 161.749 255.874C178.239 261.598 198.242 285.57 201.584 303.612C202.332 307.65 201.981 315.786 200.886 319.795C197.249 333.113 186.069 343.576 169.331 349.329C161.844 351.902 148.092 353.33 139.581 352.418ZM160.965 341.68C174.423 338.768 186.517 330.833 190.788 322.115C194.414 314.716 194.551 308.263 191.267 299.54C189.55 294.977 188.364 292.771 184.919 287.726C178.272 277.995 169.564 269.751 161.505 265.559C154.294 261.809 150.123 261.719 142.131 265.14C137.686 267.042 135.805 268.165 129.081 272.929C121.885 278.027 119.475 279.13 115.581 279.108C113.417 279.096 111.579 278.75 110.081 278.073C102.981 274.864 92.8873 263.707 82.2813 247.344C77.3983 239.812 76.4943 238.21 71.3293 227.948C65.7023 216.767 61.7093 207.084 59.6653 199.661C57.3783 191.358 56.8893 187.981 57.5943 185.361C59.3513 178.836 61.9723 176.688 72.8313 172.87C79.4163 170.555 88.9113 165.815 92.1713 163.216C97.3403 159.094 99.3953 152.33 98.0913 143.729C96.6373 134.134 93.0303 123.209 88.0583 113.342C82.5773 102.463 80.4653 99.1903 76.1323 94.8653C71.7313 90.4713 68.6683 89.2653 62.6003 89.5363C56.8233 89.7953 53.6423 90.7943 44.8313 95.1203C36.0983 99.4073 31.6273 102.317 26.1863 107.255C16.9633 115.623 10.9613 126.952 9.01927 139.661C8.11027 145.605 8.11227 163.151 9.02127 169.411C10.8023 181.67 15.6513 199.005 20.9793 212.161C35.6423 248.367 61.2203 287.15 86.4953 311.501C105.73 330.032 122.167 339.753 138.831 342.452C142.656 343.071 156.82 342.578 160.965 341.68ZM338.742 275.317C337.267 274.604 336.77 273.114 335.854 266.661C334.466 256.886 330.869 244.667 326.555 235.076C326.019 233.885 325.105 231.842 324.524 230.536C322.689 226.411 316.543 216.403 312.798 211.44C302.801 198.191 291.214 188.497 276.932 181.434C259.347 172.738 242.229 169.393 218.831 170.081C207.151 170.424 200.872 171.255 191.671 173.676C177.255 177.469 166.5 182.662 153.581 192.069C144.637 198.581 133.14 211.91 127.623 222.161C125.816 225.519 124.39 226.883 122.668 226.9C121.248 226.913 118.581 224.362 118.581 222.991C118.581 221.65 121.484 216.261 125.112 210.865C132.939 199.224 143.605 188.778 155.831 180.781C163.889 175.51 171.486 171.78 182.331 167.77C187.453 165.876 198.363 163.24 205.331 162.212C226.315 159.117 248.603 160.761 266.581 166.728C294.805 176.097 317.914 196.864 332.287 225.776C334.715 230.661 338.226 239.152 339.372 242.911C342.11 251.896 344.689 263.296 345.392 269.519C345.706 272.301 345.668 272.424 343.948 274.144C342.121 275.971 340.739 276.282 338.742 275.317ZM378.398 208.875C376.681 207.524 376.68 205.564 378.394 201.372C386.018 182.73 385.6 159.187 377.344 142.214C370.526 128.198 360.92 118.25 348.704 112.554C343.907 110.317 342.581 109.177 342.581 107.291C342.581 105.264 343.297 104.15 345.07 103.415C347.225 102.523 349.459 103.025 354.738 105.589C365.25 110.694 374.333 119.3 381.796 131.226C385.299 136.824 389.489 148.311 390.891 156.161C392.229 163.654 392.134 178.592 390.693 186.961C389.544 193.641 386.697 203.744 385.06 206.952C383.478 210.054 380.859 210.81 378.398 208.875ZM344.307 194.088C342.793 192.455 342.794 192.422 344.358 187.874C346.811 180.74 346.989 171.643 344.805 165.129C341.76 156.051 335.04 148.016 327.281 144.174C325.879 143.479 324.462 142.911 324.133 142.911C323.805 142.911 322.983 142.359 322.308 141.684C320.501 139.877 320.631 137.378 322.619 135.705C324.489 134.132 325.229 134.107 328.937 135.492C342.066 140.396 352.015 153.354 354.149 168.33C355.397 177.088 353.327 190.784 350.272 193.973C348.435 195.89 346.02 195.937 344.307 194.088ZM216.581 156.386C193.84 154.737 176.249 146.11 163.105 130.16C156.517 122.166 150.78 110.94 148.669 101.911C148.379 100.673 148.009 99.0993 147.846 98.4113C146.68 93.4933 146.098 87.6743 146.098 80.9113C146.098 66.3953 148.871 55.1763 155.736 41.9113C158.704 36.1753 160.881 33.0363 165.396 27.9793C180.938 10.5743 201.862 0.869311 225.581 0.062311C237.288 -0.335689 246.784 1.15931 256.569 4.93931C274.827 11.9933 291.79 30.1623 298.365 49.7063C301.705 59.6343 302.324 63.8463 302.328 76.6613C302.331 89.0763 301.907 92.3763 299.052 102.161C296.835 109.757 291.877 119.62 287.031 126.074C279.86 135.624 271.12 142.868 260.45 148.103C249.626 153.413 242.051 155.481 230.07 156.394C226.364 156.677 222.994 156.877 222.581 156.837C222.168 156.798 219.468 156.595 216.581 156.386ZM235.331 145.695C241.364 144.759 243.772 144.18 248.143 142.612C258.609 138.857 265.454 134.591 272.883 127.192C283.404 116.714 289.267 104.675 292.136 87.6613C293.007 82.4963 292.85 70.5743 291.832 64.6613C288.052 42.7013 275.361 25.0093 256.681 15.6583C246.783 10.7033 238.324 8.79131 226.331 8.79931C213.711 8.80731 204.811 10.7993 194.453 15.9343C185.73 20.2583 181.99 22.9183 175.555 29.3703C165.356 39.5943 159.644 50.0243 156.499 64.1613C155.206 69.9753 154.69 83.8083 155.561 89.3113C156.292 93.9253 158.264 101.569 159.596 104.948C165.373 119.605 176.923 132.264 191.005 139.372C196.046 141.917 204.365 144.502 211.831 145.844C215.829 146.562 230.332 146.47 235.331 145.695ZM177.998 315.536C177.591 315.055 176.628 313.199 175.857 311.411C171.32 300.9 162.786 289.959 151.406 280.066C148.946 277.928 148.591 276.734 150.129 275.766C151.552 274.87 153.249 275.795 157.921 280.015C166.266 287.554 171.869 294.831 177.491 305.432C180.612 311.317 181.414 313.855 180.62 315.337C179.924 316.639 178.988 316.71 177.998 315.536ZM80.6813 151.811C80.3513 151.481 80.0813 150.876 80.0813 150.466C80.0813 149.088 75.9853 136.272 73.8423 130.943C70.8963 123.618 66.6613 115.322 63.0933 109.889C59.8903 105.01 59.4363 103.291 61.1153 102.393C63.1543 101.302 65.8893 104.29 70.5953 112.751C75.0143 120.696 79.1173 130.666 81.5673 139.411C81.9143 140.649 82.3923 142.302 82.6303 143.085C83.4873 145.904 83.7513 150.853 83.0883 151.653C82.3303 152.566 81.4913 152.621 80.6813 151.811Z" fill="white"/>
</svg>
