<svg width="418" height="370" viewBox="0 0 418 370" fill="none" xmlns="http://www.w3.org/2000/svg">
<path fill-rule="evenodd" clip-rule="evenodd" d="M29.4483 368.824C28.9703 368.248 29.0163 366.889 29.6643 362.425C30.1173 359.308 30.5963 355.857 30.7293 354.757C31.4753 348.6 33.7173 336.769 34.3693 335.549C34.8433 334.665 34.5953 334.341 32.2743 332.802C30.8263 331.843 29.2993 330.765 28.8813 330.408C27.3063 329.062 24.4323 325.168 23.2343 322.757C21.4283 319.121 20.8513 317.294 17.3123 304.007C15.8843 298.648 13.8873 289.644 12.8763 284.007C12.6543 282.769 12.2133 280.632 11.8973 279.257C9.78031 270.064 3.93931 236.007 1.60031 219.221C-0.47669 204.314 -0.517691 199.55 1.39431 195.11C3.81931 189.478 8.10731 187.455 18.3193 187.123C25.3803 186.894 27.4503 187.218 32.2523 189.305C35.0923 190.539 39.5523 194.4 40.6993 196.616C41.5353 198.233 42.3923 198.44 42.3923 197.024C42.3923 196.484 42.6973 195.078 43.0703 193.899C43.4433 192.721 44.0423 190.745 44.4013 189.507C45.6233 185.296 48.3063 180.211 50.7273 177.516C53.4563 174.479 57.0383 172.007 58.7103 172.007C60.8833 172.007 60.3043 171.158 56.4233 168.649C47.8633 163.116 42.2823 153.109 41.5833 142.038C41.0873 134.184 42.2623 128.237 45.6703 121.35C47.3493 117.959 51.2903 112.614 53.4403 110.811C58.0533 106.945 61.6103 104.887 65.3923 103.898C66.3553 103.646 68.0423 103.204 69.1423 102.915C72.2733 102.092 77.8283 101.865 80.2173 102.463C81.4133 102.762 83.4613 103.26 84.7673 103.569C88.7323 104.507 94.9543 107.822 98.1893 110.719C103.271 115.27 106.497 121.087 108.193 128.757C109 132.406 109.096 143.597 108.348 146.875C106.884 153.294 103.975 159.636 100.884 163.147C98.4653 165.895 93.8763 169.519 91.5173 170.545C89.5483 171.401 89.4283 172.282 91.2193 172.732C94.8933 173.654 99.6763 178.529 102.576 184.308C105.751 190.633 107.88 198.146 110.427 212.007C110.705 213.519 111.127 215.657 111.363 216.757C111.6 217.857 112.315 221.534 112.952 224.928L114.11 231.098L118.297 233.051C120.6 234.125 125.22 235.923 128.563 237.046C135.367 239.332 137.667 240.623 139.711 243.303C140.878 244.833 141.123 245.67 141.183 248.323L141.254 251.506L146.698 251.706C157.581 252.105 166.036 256.872 169.612 264.623C172.629 271.166 173.654 276.451 175.846 296.757C176.143 299.507 176.624 303.782 176.915 306.257C177.206 308.732 177.651 313.007 177.905 315.757C178.159 318.507 178.602 323.12 178.89 326.007C179.493 332.044 180.339 344.948 180.221 346.301C180.174 346.847 180.69 347.483 181.507 347.883C182.257 348.251 183.954 349.61 185.277 350.904C189.34 354.878 189.858 359.954 186.642 364.268C185.436 365.885 182.119 367.539 178.26 368.447C173.198 369.637 163.904 368.886 160.383 367.002C158.38 365.93 155.326 362.838 154.317 360.86C153.122 358.518 151.537 353.721 150.813 350.257C150.526 348.882 150.116 346.969 149.902 346.007C148.931 341.645 147.947 336.557 147.652 334.382C147.475 333.076 147.096 332.007 146.809 332.007C146.521 332.007 145.638 332.553 144.845 333.22C143.496 334.355 138.965 336.007 137.203 336.007C136.388 336.007 136.436 337.217 137.388 340.757C138.156 343.611 139.111 349.431 140.669 360.757C140.82 361.857 141.193 363.601 141.498 364.632C141.909 366.023 141.903 366.834 141.476 367.772L140.9 369.036L134.313 368.897L127.726 368.757L126.909 367.257C126.459 366.432 125.726 364.632 125.28 363.257C124.834 361.882 123.762 358.844 122.899 356.507C119.793 348.099 118.775 344.688 117.663 338.957L117.411 337.657L91.5263 337.815C77.2903 337.902 63.3923 337.794 60.6423 337.575C57.8923 337.356 55.3783 337.269 55.0563 337.381C54.7333 337.493 54.0283 338.973 53.4883 340.671C52.9493 342.368 51.7893 345.67 50.9113 348.007C50.0333 350.344 48.9753 353.281 48.5603 354.532C47.1953 358.643 42.1793 368.257 41.3993 368.257C40.1283 368.257 40.2763 366.85 42.3283 359.438C44.5143 351.545 46.6513 345.405 48.8623 340.671C49.6553 338.974 50.1733 337.455 50.0143 337.296C49.8553 337.137 48.8073 336.999 47.6843 336.989C46.5613 336.98 44.2213 336.667 42.4843 336.294C38.6753 335.478 38.9773 335.018 37.3863 344.05C36.7843 347.464 35.8553 352.732 35.3213 355.757C34.7873 358.782 34.1463 362.44 33.8973 363.885C33.6473 365.331 33.1483 367.131 32.7883 367.885C32.0453 369.44 30.3533 369.915 29.4483 368.824ZM138.837 364.228C138.956 364.109 138.803 363.167 138.497 362.134C136.29 354.697 134.909 346.986 134.76 341.257L134.642 336.757L132.892 336.804C128.451 336.922 121.392 337.695 121.392 338.064C121.392 338.289 121.717 339.212 122.114 340.115C122.51 341.018 123.307 343.332 123.884 345.257C124.865 348.53 126.431 352.959 127.42 355.257C127.656 355.807 128.434 358.042 129.148 360.224C129.862 362.406 130.578 364.403 130.738 364.662C131.013 365.107 138.352 364.714 138.837 364.228ZM179.096 362.931C181.328 362.354 183.892 360.048 183.892 358.617C183.892 357.318 180.68 353.182 178.994 352.31C176.228 350.879 176.076 350.389 174.965 339.257C174.388 333.482 173.679 326.057 173.389 322.757C172.494 312.558 170.484 293.783 169.374 285.257C167.064 267.514 163.381 261.353 152.931 257.753C148.577 256.253 137.521 254.678 136.751 255.448C135.972 256.227 126.977 256.143 116.642 255.261C111.967 254.862 107.692 254.427 107.142 254.295C106.592 254.163 104.589 253.687 102.691 253.239C96.9413 251.879 94.0413 250.225 89.6043 245.776C86.0853 242.247 85.2113 240.99 82.8043 235.992C81.2843 232.838 79.5363 228.907 78.9183 227.257C78.3003 225.607 77.6143 223.807 77.3943 223.257C76.0843 219.988 74.3973 213.629 73.6693 209.218C73.4123 207.659 73.5223 207.022 74.1343 206.514C75.2563 205.582 75.5303 206.043 77.4043 212.007C78.3113 214.894 79.4503 218.157 79.9343 219.257C80.4183 220.357 81.1953 222.157 81.6603 223.257C83.5143 227.642 87.4913 235.207 89.4873 238.148C93.8463 244.57 98.0963 247.584 104.892 249.07C109.969 250.181 133.523 251.459 136.258 250.772C138.788 250.138 137.01 246.09 133.397 244.26C132.038 243.571 130.69 243.007 130.403 243.007C130.116 243.007 128.815 242.522 127.512 241.929C114.835 236.163 111.418 234.275 110.147 232.335C109.165 230.837 108.234 227.13 106.106 216.257C103.354 202.191 101.584 194.545 100.435 191.757C97.2933 184.133 95.1183 180.691 91.2323 177.191C89.7453 175.852 88.2773 174.273 87.9703 173.683C87.4713 172.723 87.2103 172.66 85.5263 173.094C78.4893 174.907 70.7913 174.871 65.3353 172.999L62.0923 171.886L58.8803 175.23C54.8203 179.458 52.6013 182.52 51.0673 186.007C50.4023 187.519 49.6523 189.207 49.4003 189.757C48.4093 191.921 47.2963 195.919 46.3543 200.7L45.3673 205.709L46.5783 209.233C47.7353 212.6 49.2193 218.595 50.3603 224.507C52.4223 235.197 53.4043 240.457 54.3713 246.007C55.6083 253.1 57.7823 262.442 58.8103 265.076C59.7313 267.437 62.3003 269.828 65.5043 271.308L68.6423 272.757L100.142 272.789C122.472 272.811 132.443 272.993 134.392 273.414C144.463 275.589 148.668 279.097 151.329 287.542C152.103 289.998 152.03 306.32 151.212 313.757C150.464 320.557 150.481 326.925 151.254 329.507C151.542 330.469 152.049 332.607 152.382 334.257C152.715 335.907 153.191 337.774 153.44 338.406C153.688 339.037 153.892 340.078 153.892 340.719C153.892 341.36 154.205 342.644 154.586 343.571C154.968 344.498 155.672 347.282 156.15 349.757C157.568 357.096 160.628 362.003 164.276 362.785C165.027 362.947 166.092 363.284 166.642 363.536C167.814 364.072 176.266 363.661 179.096 362.931ZM118.642 331.979C133.232 331.536 138.087 331.122 140.392 330.125C143.201 328.91 146.185 325 147.348 321.007C147.709 319.769 148.455 317.893 149.006 316.836C149.907 315.108 149.979 314.283 149.719 308.586C149.56 305.105 149.205 301.132 148.93 299.757C148.654 298.382 148.182 295.682 147.879 293.757C146.599 285.616 142.122 280.463 134.892 278.81C133.498 278.492 120.816 278.271 101.568 278.231C68.2163 278.16 66.6303 278.056 61.4663 275.579C58.4793 274.145 55.4833 271.047 54.0103 267.865C52.6033 264.827 51.0823 258.467 48.9003 246.507C48.3233 243.344 47.6453 239.745 47.3943 238.507C47.1423 237.269 46.0003 231.334 44.8563 225.318C42.5373 213.121 41.3183 208.821 38.7183 203.659C33.9493 194.187 24.7793 190.402 12.3923 192.789C10.1613 193.219 7.62031 195.115 6.58031 197.126C5.26631 199.668 5.19231 205.869 6.37931 214.007C6.96131 217.995 7.54531 222.045 7.67731 223.007C7.80931 223.969 8.12531 226.107 8.37931 227.757C8.63331 229.407 8.98331 231.769 9.15731 233.007C9.33131 234.245 9.69231 236.607 9.95931 238.257C10.2253 239.907 10.5563 242.045 10.6933 243.007C10.8303 243.969 11.3593 247.007 11.8693 249.757C12.3803 252.507 13.0553 256.332 13.3713 258.257C13.6863 260.182 14.1393 262.657 14.3783 263.757C14.6163 264.857 15.0553 266.995 15.3533 268.507C15.6513 270.019 16.2603 273.057 16.7063 275.257C17.1523 277.457 17.7133 280.269 17.9523 281.507C18.1913 282.745 18.5893 284.657 18.8383 285.757C19.0863 286.857 19.4373 288.545 19.6173 289.507C19.7973 290.469 20.1443 292.045 20.3873 293.007C20.6303 293.969 21.0823 295.882 21.3923 297.257C22.6993 303.061 23.7423 306.824 25.7443 312.965C28.1093 320.217 29.1333 322.273 31.8003 325.125C35.2883 328.854 39.3473 330.576 46.3923 331.316C56.7563 332.404 93.5423 332.742 118.642 331.979ZM84.8553 168.008C98.1573 163.527 105.981 148.527 103.35 132.548C102.628 128.164 100.751 122.904 98.8523 119.945C95.5293 114.766 89.3843 110.346 83.2293 108.708C80.1033 107.875 72.9293 107.8 69.2923 108.562C64.9813 109.464 60.0293 112.356 56.1253 116.249C51.0373 121.324 48.9573 125.501 47.0863 134.399C44.4553 146.906 51.7283 161.841 62.8923 166.858C67.9703 169.141 69.8653 169.478 76.3923 169.263C80.0733 169.141 82.6023 168.766 84.8553 168.008ZM238.682 367.978C232.993 365.818 229.97 361.528 229.521 354.974C229.172 349.884 231.048 334.553 233.432 323.007C233.688 321.769 234.459 317.495 235.147 313.507C235.834 309.519 236.635 305.132 236.926 303.757C237.218 302.382 237.668 300.019 237.926 298.507C239.357 290.14 242.552 275.554 243.787 271.757C245.527 266.405 248.325 261.64 251.467 258.677C253.532 256.73 257.622 254.308 260.491 253.334C263.758 252.225 271.48 251.007 275.267 251.004C277.123 251.003 279.542 250.751 280.642 250.445C281.742 250.138 286.91 249.858 292.125 249.822L301.609 249.757L301.455 247.261C301.371 245.888 301.196 244.595 301.067 244.386C300.938 244.178 299.758 244.007 298.445 244.007C297.132 244.007 294.614 243.535 292.85 242.959C288.905 241.669 280.289 237.43 277.904 235.605C276.935 234.864 275.355 233.84 274.392 233.33C269.438 230.705 264.965 227.11 263.085 224.24C262.639 223.559 262.286 222.146 262.3 221.099L262.327 219.195H259.203C252.741 219.195 243.659 213.901 241.333 208.779C240.322 206.554 240.123 203.278 240.88 201.29C241.619 199.344 244.204 198.011 247.242 198.009C250.305 198.007 254.425 198.823 256.306 199.804C258.548 200.974 259.232 200.711 259.578 198.543C259.886 196.619 261.746 194.507 263.134 194.507C263.469 194.507 264.651 195.166 265.762 195.971C268.033 197.616 270.057 201.29 270.905 205.31C271.43 207.797 271.387 207.977 269.226 212.31C265.95 218.877 265.917 219.326 268.494 222.474C272.307 227.131 287.475 236.401 293.924 238.015C300.762 239.727 303.506 239.779 308.458 238.288C316.937 235.735 327.175 228.336 334.377 219.559C338.081 215.044 339.206 214.328 340.377 215.739C341.076 216.581 340.527 217.495 335.839 223.287C327.882 233.121 316.745 241.174 308.457 243.087C305.681 243.727 305.487 244.005 305.32 247.577C305.245 249.175 305.466 250.152 306.03 250.717C306.481 251.167 306.742 251.817 306.61 252.159C306.308 252.948 300.821 254.007 297.03 254.008C295.442 254.009 292.229 254.223 289.892 254.485C287.555 254.746 284.404 255.096 282.892 255.264C281.38 255.431 277.779 255.767 274.892 256.011C264.633 256.877 259.513 258.599 255.041 262.686C251.714 265.727 248.917 271.226 247.44 277.632C245.448 286.266 244.844 289.122 243.336 297.007C243.047 298.519 242.619 300.657 242.385 301.757C242.151 302.857 241.703 305.219 241.39 307.007C241.077 308.795 240.713 310.707 240.581 311.257C240.448 311.807 240.126 313.607 239.865 315.257C239.603 316.907 239.155 319.607 238.869 321.257C238.315 324.449 237.662 328.371 236.871 333.257C236.603 334.907 236.155 337.607 235.874 339.257C235.593 340.907 235.232 345.883 235.071 350.314L234.778 358.37L236.96 360.636C240.194 363.995 243.944 364.821 247.976 363.062C252.188 361.224 253.16 359.64 256.154 349.737C257.148 346.448 258.486 342.182 259.127 340.257C259.769 338.332 260.547 335.811 260.856 334.655C261.165 333.498 262.009 331.851 262.73 330.993C264.042 329.434 264.042 329.434 263.145 327.595C261.946 325.141 261.451 322.854 260.635 316.007C259.798 308.984 259.733 303.736 260.398 296.935C261.074 290.029 261.723 287.31 263.51 283.905C265.954 279.247 268.041 277.203 272.563 275.036C278.545 272.169 280.88 272.01 316.956 272.008C350.785 272.007 349.96 272.068 353.225 269.321C355.732 267.211 358.354 260.31 359.898 251.757C360.493 248.457 361.173 244.969 361.407 244.007C361.642 243.045 362.108 240.457 362.443 238.257C362.778 236.057 364.061 229.42 365.296 223.507C366.53 217.594 367.552 211.857 367.568 210.757C367.603 208.277 365.908 200.576 364.156 195.257C361.346 186.728 357.853 180.865 352.918 176.399C349.702 173.489 349.37 172.821 350.77 172.072C353.061 170.846 358.043 174.422 361.918 180.074C365.388 185.133 369.892 196.543 369.892 200.273C369.892 202.787 370.74 202.819 371.901 200.35C373.436 197.084 377.905 191.924 380.816 190.056C382.224 189.152 385.011 187.835 387.009 187.128C390.214 185.995 391.438 185.842 397.392 185.831C407.584 185.812 412.342 187.528 415.38 192.318C417.698 195.974 418.182 200.08 417.464 210.02C417.129 214.644 416.652 219.739 416.403 221.342C416.153 222.945 415.698 226.394 415.39 229.007C415.083 231.62 414.629 234.995 414.382 236.507C414.135 238.019 413.678 241.17 413.366 243.507C413.054 245.844 412.705 248.319 412.592 249.007C412.478 249.695 412.037 252.507 411.611 255.257C411.186 258.007 410.412 262.732 409.892 265.757C409.371 268.782 408.824 272.045 408.675 273.007C408.526 273.969 408.157 276.107 407.855 277.757C407.553 279.407 407.131 281.769 406.918 283.007C406.294 286.616 403.917 298.076 403.339 300.257C403.048 301.357 402.619 303.045 402.386 304.007C398.45 320.282 394.225 329.258 389.305 331.802C387.6 332.684 387.533 333.63 388.821 338.641C390.132 343.741 390.755 346.764 392.143 354.757C392.811 358.607 393.622 362.943 393.943 364.392C394.464 366.738 394.429 367.137 393.62 368.031C392.788 368.951 392.184 369.024 386.434 368.896L380.158 368.757L377.287 363.007C375.708 359.844 373.713 355.569 372.853 353.507C371.993 351.445 370.99 349.082 370.625 348.257C369.485 345.678 367.285 339.93 366.928 338.596L366.587 337.321L356.115 337.539C350.355 337.659 334.58 337.692 321.061 337.613L296.48 337.469L296.14 339.113C295.954 340.017 295.457 341.769 295.037 343.007C294.617 344.245 294.097 345.932 293.882 346.757C293.17 349.487 290.333 357.209 288.912 360.285C288.143 361.95 287.361 364.008 287.175 364.858C286.614 367.41 285.618 367.91 280.642 368.137C278.167 368.25 275.669 368.509 275.092 368.713C273.465 369.288 272.335 367.849 272.643 365.596C273.211 361.445 274.924 347.083 275.13 344.757C275.251 343.382 275.597 341.357 275.898 340.257C276.837 336.823 276.9 336.917 272.744 335.493C270.205 334.624 268.243 333.575 267.118 332.484C264.886 330.32 264.138 330.891 264.878 334.193C265.576 337.308 265.372 338.245 261.305 350.607C258.869 358.013 257.717 360.515 255.484 363.245C253.808 365.293 250.498 367.692 248.357 368.409C245.82 369.259 241.555 369.069 238.682 367.978ZM284.829 365.237C285.001 365.064 285.168 364.324 285.2 363.59C285.291 361.498 285.899 357.427 286.406 355.507C288.002 349.465 290.688 341.71 291.703 340.215C292.357 339.251 292.892 338.252 292.892 337.994C292.892 337.212 290.873 336.957 285.892 337.11C281.163 337.256 281.142 337.262 281.256 338.507C281.319 339.195 281.044 341.445 280.645 343.507C279.581 349 278.452 355.337 277.928 358.757C277.676 360.407 277.253 362.589 276.989 363.607C276.725 364.624 276.597 365.545 276.705 365.653C277.017 365.966 284.483 365.583 284.829 365.237ZM391.306 364.237C391.467 364.098 390.619 361.04 388.887 355.507C386.566 348.094 384.892 341.473 384.892 339.705C384.892 338.84 384.747 337.409 384.571 336.525C384.285 335.097 384.104 334.952 382.946 335.223C382.229 335.391 379.448 335.906 376.767 336.367C374.086 336.828 371.892 337.409 371.892 337.658C371.892 337.908 372.475 339.269 373.187 340.684C373.9 342.099 374.815 344.269 375.221 345.507C375.627 346.745 376.264 348.432 376.635 349.257C377.924 352.117 380.5 358.769 381.281 361.257C382.489 365.102 382.499 365.108 387.101 364.72C389.323 364.532 391.216 364.315 391.306 364.237ZM374.535 331.564C374.841 331.258 376.003 331.002 377.117 330.995C379.535 330.981 384.02 329.223 386.538 327.302C387.537 326.54 389.149 324.72 390.12 323.257C392.56 319.581 395.944 309.037 397.902 299.007C398.144 297.769 398.555 295.857 398.816 294.757C399.495 291.899 400.437 287.585 400.892 285.257C401.107 284.157 401.539 282.019 401.853 280.507C402.166 278.995 402.636 276.407 402.896 274.757C403.157 273.107 403.822 269.282 404.374 266.257C405.644 259.304 407.237 249.523 408.366 241.757C408.645 239.832 409.004 237.469 409.163 236.507C409.322 235.545 409.643 233.069 409.877 231.007C410.11 228.945 410.547 225.344 410.847 223.007C413.384 203.225 413.452 200.453 411.501 196.513C409.849 193.176 408.511 192.352 402.927 191.228C396.301 189.895 389.713 190.942 383.747 194.276C379.303 196.76 376.176 201.718 373.417 210.658C371.458 217.003 370.605 220.883 366.689 241.257C366.531 242.082 366.158 243.882 365.861 245.257C365.564 246.632 365.125 248.882 364.887 250.257C364.006 255.331 363.392 257.57 362.124 260.343C361.41 261.904 360.599 264.41 360.321 265.912C359.396 270.918 355.921 274.461 350.16 276.273C347.741 277.034 345.293 277.078 324.315 276.737C289.632 276.173 283.039 276.249 279.566 277.251C273.163 279.099 269.554 282.129 267.348 287.508C264.076 295.484 264.33 317.723 267.772 324.757C268.706 326.665 270.783 328.909 272.392 329.748C274.245 330.715 279.725 331.959 283.142 332.19C284.792 332.301 305.905 332.331 330.06 332.257C361.519 332.16 374.135 331.964 374.535 331.564ZM263.431 215.632C264.105 214.876 265.079 213.469 265.595 212.507C266.111 211.545 267.11 210.134 267.815 209.373C269.094 207.992 269.095 207.985 268.178 206.373C264.342 199.623 262.892 198.415 262.892 201.971C262.892 204.075 261.897 205.507 260.434 205.507C259.946 205.507 258.219 205.038 256.595 204.464C253.594 203.404 249.741 202.61 247.285 202.544C245.423 202.493 244.588 204.067 245.416 206.065C246.189 207.93 250.123 211.444 252.96 212.802C254.16 213.377 256.604 214.551 258.392 215.411C260.18 216.271 261.769 216.982 261.923 216.991C262.078 217 262.757 216.388 263.431 215.632ZM35.6253 367.48C35.2013 366.794 36.3133 365.951 37.3923 366.139C37.8043 366.212 38.1423 366.605 38.1423 367.014C38.1423 367.92 36.1283 368.293 35.6253 367.48ZM245.892 356.429C245.892 355.767 250.271 349.23 251.27 348.4C253.734 346.356 252.196 352.841 249.567 355.586C248.212 356.999 245.892 357.532 245.892 356.429ZM248.892 344.052C248.892 343.527 249.755 342.008 250.809 340.677C254.195 336.402 255.285 336.004 254.674 339.264C254.041 342.637 248.892 346.902 248.892 344.052ZM252.638 331.5C252.466 331.222 252.876 329.816 253.549 328.375C254.223 326.935 255.065 324.969 255.42 324.007C256.217 321.849 257.793 319.507 258.449 319.507C259.25 319.507 257.858 325.561 256.263 329.007C255.049 331.632 253.414 332.757 252.638 331.5ZM253.246 274.846C252.769 273.604 254.347 268.957 255.921 266.97C257.643 264.796 261.384 262.007 262.578 262.007C263.874 262.007 263.984 262.941 262.797 263.869C259.902 266.131 257.673 268.927 256.257 272.077C254.781 275.36 253.792 276.27 253.246 274.846ZM345.627 267.982C345.449 267.694 345.604 267.049 345.972 266.548C346.341 266.048 347.83 263.922 349.282 261.823C350.734 259.724 352.127 258.007 352.378 258.007C353.336 258.007 353.339 258.939 352.385 260.152C351.839 260.847 351.392 261.994 351.392 262.702C351.392 263.539 350.635 264.78 349.228 266.248C347.035 268.536 346.214 268.932 345.627 267.982ZM273.767 220.967C272.746 220.372 272.592 219.007 273.546 219.007C274.62 219.007 276.072 220.311 275.689 220.931C275.259 221.627 274.911 221.633 273.767 220.967ZM297.892 218.019C294.304 217.655 291.52 216.756 285.892 214.148C283.83 213.191 281.062 211.98 279.742 211.456C275.555 209.792 273.246 208.453 273.73 207.969C274.007 207.692 276.849 208.383 280.915 209.715C291.875 213.304 300.083 215.483 300.619 214.946C300.741 214.825 301.095 212.595 301.406 209.991C301.717 207.387 302.154 204.695 302.378 204.007C302.602 203.319 303.058 201.407 303.391 199.757C303.724 198.107 304.175 196.307 304.393 195.757C304.611 195.207 305.409 192.957 306.168 190.757C308.185 184.904 310.17 181.201 312.796 178.394C315.182 175.843 319.529 173.224 320.441 173.787C320.727 173.964 319.757 175.356 318.235 176.952C313.779 181.624 310.693 188.793 308.419 199.757C308.077 201.407 307.593 203.274 307.344 203.906C306.831 205.209 306.725 210.007 307.21 210.007C307.385 210.007 309.129 208.263 311.085 206.132C319.021 197.487 320.231 196.338 321.071 196.661C321.523 196.834 321.892 197.264 321.891 197.616C321.89 198.315 314.976 206.515 310.465 211.168C307.628 214.094 302.074 218.575 301.467 218.428C301.288 218.385 299.68 218.201 297.892 218.019ZM327.392 174.183C319.792 172.657 311.111 167.022 307.246 161.105C304.355 156.68 303.424 154.585 302.114 149.565C299.98 141.381 300.714 131.116 303.969 123.637C304.477 122.472 304.892 121.407 304.892 121.272C304.892 120.695 308.639 115.236 310.291 113.408C312.577 110.877 317.479 107.422 320.392 106.288C326.338 103.974 327.166 103.808 332.892 103.782C339.381 103.754 343.188 104.721 348.642 107.785C357.51 112.766 362.158 119.929 364.68 132.505C365.67 137.439 365.405 146.857 364.145 151.507C361.95 159.612 355.803 167.526 349.203 170.743C343.558 173.495 341.198 174.065 334.642 174.258C331.342 174.355 328.08 174.321 327.392 174.183ZM338.357 169.462C339.339 169.162 340.93 168.682 341.892 168.395C346.84 166.918 352.272 162.839 355.34 158.295C358.48 153.645 360.097 147.461 360.122 140.007C360.146 133.184 359.344 129.899 355.975 123.01C352.833 116.586 346.634 111.482 339.642 109.562C336.21 108.619 328.767 108.87 325.278 110.045C317.496 112.667 309.955 120.517 307.625 128.42C307.165 129.98 306.587 131.909 306.34 132.707C305.211 136.358 306.022 145.584 307.962 151.15C309.24 154.82 309.679 155.631 312.233 159.063C316.442 164.718 321.287 167.73 328.642 169.263C332.525 170.072 336.118 170.145 338.357 169.462ZM270.22 138.684C264.798 137.432 255.117 132.069 248.915 126.883L246.187 124.602L243.665 125.6C221.607 134.323 192.04 133.061 168.892 122.409C164.295 120.293 156.809 115.274 152.282 111.272C149.233 108.577 148.027 107.081 146.539 104.151C145.504 102.112 144.237 99.9919 143.724 99.4419C143.211 98.8909 142.935 98.2969 143.112 98.1209C143.288 97.9449 144.266 98.7069 145.287 99.8139C147.717 102.452 155.909 109.305 159.671 111.847C166.049 116.158 178.833 121.695 185.63 123.092C187.012 123.376 189.042 123.813 190.142 124.063C198.207 125.898 216.126 126.697 222.862 125.522C224.391 125.255 227.33 124.781 229.392 124.467C233.746 123.805 234.449 123.629 241.178 121.51L246.214 119.924L253.563 124.748C261.301 129.826 267.618 133.236 268.397 132.754C268.655 132.595 268.292 131.194 267.583 129.612C265.423 124.791 263.43 117.966 263.092 114.232C262.776 110.744 262.797 110.655 264.206 109.569C266.84 107.54 273.492 100.791 275.603 98.0069C284.411 86.3869 288.53 73.2169 287.411 60.2569C287.126 56.9569 286.639 53.1319 286.328 51.7569C285.329 47.3279 281.807 39.0059 279.319 35.1939C276.422 30.7569 268.334 22.4859 264.1 19.6329C254.541 13.1899 240.017 7.38694 230.642 6.26394C229.542 6.13194 226.882 5.79494 224.731 5.51594C219.872 4.88394 204.517 4.84894 200.859 5.46194C199.365 5.71194 196.342 6.17694 194.142 6.49394C182.786 8.13394 177.18 10.5049 163.233 19.5639C150.133 28.0719 142.174 37.7689 137.017 51.5069C135.291 56.1049 134.649 60.4359 134.646 67.5069C134.641 76.0279 135.996 81.7629 140.116 90.6719C141.791 94.2929 141.88 94.7179 141.303 96.3139C140.909 97.4049 140.397 97.9869 139.911 97.8969C138.698 97.6729 135.24 92.1059 133.44 87.4809C132.536 85.1579 131.617 82.8069 131.397 82.2569C129.428 77.3349 128.946 61.5569 130.58 55.5069C131.063 53.7199 131.64 51.5819 131.863 50.7569C132.469 48.5089 134.304 44.0739 135.792 41.2569C146.07 21.8069 169.302 6.14894 194.642 1.59394C196.292 1.29794 199.035 0.810943 200.738 0.511943C204.567 -0.161057 223.413 -0.174059 226.142 0.493941C227.242 0.762941 228.93 0.989943 229.892 0.997943C232.391 1.01994 244.443 4.14394 249.152 5.99094C261.69 10.9079 273.567 19.3509 280.073 27.9709C287.371 37.6409 290.15 44.0869 292.158 56.0069C293.262 62.5589 292.922 68.9649 291.003 77.7859C289.629 84.0979 284.352 94.7979 279.966 100.167C275.823 105.237 269.696 110.861 267.881 111.259C266.16 111.637 266.173 111.59 267.09 114.24C267.474 115.349 268.063 117.269 268.399 118.507C269.478 122.487 271.523 127.53 275.265 135.441C276.717 138.51 274.801 139.741 270.22 138.684ZM214.392 110.131C212.537 109.835 209.102 108.634 206.906 107.514L204.97 106.527L202.056 107.892C199.568 109.057 198.521 109.252 194.892 109.222C191.43 109.193 190.116 108.947 187.803 107.89C182.503 105.47 178.968 101.05 177.281 94.7349C176.686 92.5059 176.454 92.2589 173.892 91.1269C169.242 89.0719 166.175 86.0289 163.771 81.0869C161.723 76.8769 161.666 76.6259 161.727 72.0069C161.771 68.5609 162.066 66.5359 162.798 64.6299C164.209 60.9569 168.006 55.8209 170.658 53.9959C172.767 52.5449 172.892 52.3269 172.897 50.1079C172.903 47.4679 173.811 44.1069 175.31 41.1679C176.892 38.0669 182.036 31.3859 183.925 29.9779C186.811 27.8279 194.334 23.4829 196.485 22.7239C200.986 21.1359 208.509 22.4709 213.445 25.7339L215.248 26.9259L217.74 25.6919C226.039 21.5849 232.757 22.2549 241.423 28.0559C244.412 30.0559 246.046 31.9459 247.867 35.5069C248.5 36.7439 249.271 38.2069 249.58 38.7569C249.917 39.3569 250.154 42.5579 250.172 46.7569C250.202 53.5869 250.229 53.7609 251.308 53.9179C253.104 54.1799 258.22 59.2929 259.563 62.1679C261.907 67.1899 262.237 70.2849 261.013 75.7829C259.427 82.9089 251.268 90.5239 242.932 92.6569C240.556 93.2649 240.343 93.4609 238.796 96.4609C235.783 102.304 230.847 106.642 224.523 109.009C221.857 110.006 216.987 110.546 214.392 110.131ZM219.584 105.475C226.043 103.804 228.928 102.123 232.173 98.1389C234.637 95.1139 234.938 94.0069 233.295 94.0069C231.425 94.0069 223.876 91.4469 222.986 90.5109C221.435 88.8799 216.896 88.6219 216.89 90.1659C216.886 91.0579 214.732 96.1629 213.684 97.7629C213.177 98.5369 211.858 100.151 210.754 101.349C209.649 102.547 208.907 103.692 209.104 103.892C209.784 104.584 214.146 105.93 215.834 105.968C216.765 105.99 218.452 105.767 219.584 105.475ZM200.241 103.824C200.382 103.683 199.79 102.582 198.925 101.377C198.059 100.172 196.711 97.6279 195.927 95.7219C195.014 93.5019 194.258 92.3179 193.822 92.4269C191.242 93.0719 186.695 93.6169 184.267 93.5729C181.027 93.5139 180.871 93.7639 182.471 96.4479C185.973 102.323 191.37 105.25 197.234 104.454C198.747 104.249 200.1 103.965 200.241 103.824ZM208.841 97.6959C209.969 96.4149 210.892 95.0879 210.892 94.7479C210.892 94.4079 211.229 93.8489 211.642 93.5069C212.961 92.4119 212.479 92.1589 208.267 91.7409C201.601 91.0779 199.628 91.1399 199.735 92.0069C199.975 93.9499 201.456 96.9529 203.123 98.8809C205.278 101.373 205.678 101.29 208.841 97.6959ZM236.783 84.1219C236.863 80.9679 236.673 77.5549 236.353 76.3719L235.78 74.2569L233.987 76.5069C231.187 80.0189 226.523 84.3979 224.621 85.3009C222.541 86.2879 222.388 87.2999 224.267 87.6469C225.023 87.7869 226.767 88.3579 228.142 88.9169C229.837 89.6059 231.608 89.9049 233.642 89.8449L236.642 89.7569L236.783 84.1219ZM190.367 88.4659C191.756 88.1679 192.892 87.8059 192.892 87.6619C192.892 87.5179 192.24 86.0179 191.443 84.3279C190.646 82.6389 189.843 80.3259 189.658 79.1879C189.4 77.5959 188.876 76.7599 187.387 75.5629C185.232 73.8319 183.189 73.5379 182.643 74.8819C181.577 77.5059 181.268 79.1979 181.074 83.4679C180.916 86.9459 181.027 88.2839 181.501 88.5849C182.419 89.1669 187.407 89.0999 190.367 88.4659ZM246.689 87.0799C250.562 84.5519 251.998 83.1519 254.026 79.9269C257.407 74.5489 257.874 68.9579 255.38 63.7319C253.96 60.7569 250.477 56.9879 249.177 57.0209C248.883 57.0279 247.815 58.7719 246.805 60.8959C245.794 63.0189 243.712 66.2699 242.179 68.1199L239.39 71.4819L240.119 73.3699C242.017 78.2869 242.621 84.4179 241.572 88.1319C241.144 89.6479 243.496 89.1649 246.689 87.0799ZM213.101 87.7039C214.306 87.2409 214.052 86.2309 212.378 84.8219C210.72 83.4269 209.958 83.5059 207.785 85.2939C207.039 85.9089 206.156 86.5019 205.822 86.6139C205.488 86.7249 205.381 87.0839 205.583 87.4119C205.968 88.0349 211.661 88.2559 213.101 87.7039ZM176.266 85.7389C175.858 83.6049 177.507 77.1399 179.45 73.2469L180.578 70.9899L178.781 69.1229C177.169 67.4499 176.342 65.9629 174.463 61.3579C174.149 60.5889 173.892 59.2959 173.892 58.4829C173.892 57.5069 173.639 57.0069 173.145 57.0069C172.248 57.0069 169.761 60.3099 168.062 63.7569C166.725 66.4709 165.755 72.7269 166.46 74.0989C166.697 74.5619 166.892 75.4139 166.892 75.9909C166.892 78.6369 170.104 83.0309 174.142 85.9069C176.111 87.3089 176.56 87.2739 176.266 85.7389ZM204.084 84.2749C205.111 82.7079 205.098 82.5069 203.969 82.5069C202.832 82.5069 201.174 84.2499 201.623 84.9749C202.176 85.8709 203.236 85.5699 204.084 84.2749ZM225.382 81.7669C227.478 79.6309 227.83 78.1809 225.969 79.3429C225.487 79.6439 223.787 80.1829 222.191 80.5399C219.165 81.2169 218.354 82.0069 219.397 83.2629C220.643 84.7639 223.025 84.1689 225.382 81.7669ZM198.392 81.7579C198.759 81.0709 198.966 80.4319 198.851 80.3389C198.236 79.8399 194.467 78.5989 194.244 78.8219C193.744 79.3209 196.083 83.0069 196.9 83.0069C197.353 83.0069 198.024 82.4449 198.392 81.7579ZM206.929 71.3789C206.877 68.3939 207.07 65.6089 207.366 65.0559C208.323 63.2669 207.054 63.4469 202.461 65.7489C199.984 66.9909 197.718 68.0069 197.425 68.0069C196.662 68.0069 196.756 68.3629 197.938 69.9629C198.931 71.3049 198.943 71.4579 198.173 72.9459C197.378 74.4849 197.386 74.5259 198.641 75.0969C199.616 75.5419 200.058 75.5409 200.506 75.0929C201.439 74.1599 202.878 74.4059 204.508 75.7779C205.338 76.4769 206.243 76.9729 206.519 76.8809C206.82 76.7809 206.984 74.5829 206.929 71.3789ZM215.188 74.3819C217.845 69.5859 221.736 58.0069 220.69 58.0069C220.519 58.0069 219.988 58.2139 219.51 58.4669C219.033 58.7199 217.404 59.4049 215.892 59.9889C211.564 61.6589 211.573 61.6449 210.921 67.7049L210.337 73.1249L211.622 75.0659C212.328 76.1339 213.092 77.0069 213.32 77.0069C213.547 77.0069 214.388 75.8259 215.188 74.3819ZM223.66 76.0319C224.77 75.8479 226.008 75.4969 226.41 75.2519C227.115 74.8229 232.969 70.5789 233.307 70.2529C233.498 70.0689 231.257 65.9649 229.76 63.7569C228.829 62.3839 225.565 59.0069 225.168 59.0069C225.076 59.0069 224.848 59.6259 224.662 60.3819C224.477 61.1379 223.8 62.8819 223.158 64.2569C222.516 65.6319 221.71 67.9879 221.367 69.4919C221.024 70.9969 220.327 72.9089 219.819 73.7419C219.311 74.5749 218.895 75.6749 218.894 76.1859C218.892 76.9569 219.126 77.0519 220.267 76.7409C221.023 76.5349 222.55 76.2159 223.66 76.0319ZM194.3 71.6709C194.119 70.1399 193.041 69.5379 192.589 70.7149C192.162 71.8279 192.713 73.0069 193.66 73.0069C194.232 73.0069 194.414 72.6279 194.3 71.6709ZM187.748 62.5329C188.927 60.2099 189.892 57.8799 189.892 57.3559C189.892 56.2849 192.092 51.6779 193.181 50.4679C194.294 49.2309 194.055 49.0069 191.622 49.0069C189.119 49.0069 184.286 50.4249 180.403 52.2979C178.26 53.3319 177.892 53.7179 177.892 54.9339C177.892 56.6469 178.566 58.8229 180.236 62.5069C181.863 66.0939 182.793 67.0889 184.347 66.9059C185.37 66.7849 186.002 65.9719 187.748 62.5329ZM191.892 64.7569C191.892 62.9179 190.776 62.2859 190.195 63.7979C189.583 65.3939 189.869 66.5069 190.892 66.5069C191.702 66.5069 191.892 66.1739 191.892 64.7569ZM240.876 63.1669C242.084 61.3299 243.314 59.1359 243.611 58.2919C243.907 57.4479 244.33 56.4759 244.551 56.1319C244.771 55.7879 244.829 55.3089 244.679 55.0669C244.174 54.2499 239.448 52.9989 235.658 52.6789C231.56 52.3319 230.716 51.5149 233.467 50.5559C235.619 49.8049 238.534 49.8789 242.354 50.7789C246.317 51.7129 246.424 51.5909 246.174 46.4059C245.783 38.3269 240.581 31.4199 233.004 28.9199C229.757 27.8489 225.052 27.7499 221.918 28.6869C219.373 29.4479 218.846 30.2809 220.276 31.2819C221.71 32.2869 224.261 36.4459 225.52 39.8329C226.195 41.6489 226.708 44.4619 226.874 47.2569C227.162 52.0969 226.943 51.7759 230.078 51.9539C230.88 51.9989 230.919 52.1219 230.349 52.8089C229.983 53.2499 229.111 53.8299 228.413 54.0959L227.142 54.5819L228.642 55.6559C231.216 57.5009 234.832 61.6539 236.011 64.1229C236.633 65.4249 237.488 66.4929 237.911 66.4979C238.334 66.5029 239.668 65.0039 240.876 63.1669ZM201.174 61.7289C203.631 60.4759 205.83 59.2639 206.06 59.0349C206.618 58.4819 205.067 52.5289 204.081 51.4399C203.193 50.4579 199.927 49.7699 198.424 50.2469C196.064 50.9959 194.105 64.0069 196.352 64.0069C196.546 64.0069 198.716 62.9819 201.174 61.7289ZM213.017 56.6619C213.841 56.1919 213.332 55.0069 212.306 55.0069C211.709 55.0069 210.818 54.6419 210.325 54.1959C208.993 52.9909 207.789 53.6559 208.199 55.3709C208.381 56.1329 208.629 56.9329 208.75 57.1469C208.954 57.5099 212.172 57.1439 213.017 56.6619ZM220.269 52.3819C220.155 52.0379 219.059 51.1349 217.833 50.3759C214.506 48.3139 207.064 47.2629 208.142 49.0069C208.684 49.8839 211.569 51.1539 212.932 51.1149C213.651 51.0949 214.892 51.4959 215.691 52.0059C217.381 53.0869 220.589 53.3499 220.269 52.3819ZM179.815 48.0929C181.918 46.6449 187.757 45.0989 192.521 44.7289L196.9 44.3879L204.021 37.1669C207.938 33.1949 211.207 29.7659 211.285 29.5459C211.488 28.9799 206.784 27.0369 203.593 26.3669C199.145 25.4339 193.437 27.0229 188.944 30.4439C184.772 33.6209 178.157 43.5239 177.881 47.0069C177.693 49.3669 177.843 49.4509 179.815 48.0929ZM222.116 45.1319C221.418 40.2209 216.978 33.0069 214.652 33.0069C213.382 33.0069 208.892 37.5509 208.892 38.8359C208.892 39.2319 208.56 40.1979 208.155 40.9819C207.256 42.7209 207.738 43.2609 210.642 43.7639C213.805 44.3109 217.49 45.4669 219.392 46.5069C222.168 48.0269 222.503 47.8579 222.116 45.1319ZM203.292 43.9069C204.015 43.1839 204.072 42.5069 203.41 42.5069C203.144 42.5069 202.686 42.9569 202.392 43.5069C201.803 44.6079 202.348 44.8509 203.292 43.9069ZM160.384 354.248C160.038 353.83 159.567 352.649 159.338 351.623C159.109 350.597 158.653 348.61 158.324 347.209C157.995 345.807 157.879 344.263 158.065 343.778C158.643 342.271 159.708 343.742 160.446 347.065C160.958 349.376 161.45 350.336 162.506 351.088C164.123 352.24 164.244 353.033 162.978 354.18C161.843 355.207 161.194 355.224 160.384 354.248ZM63.5213 267.382C63.2493 267.038 62.9093 265.825 62.7643 264.686C62.6203 263.547 62.0453 261.972 61.4873 261.186C60.6703 260.034 60.4073 258.618 60.1333 253.882C59.9363 250.476 59.9833 248.007 60.2443 248.007C60.6723 248.007 62.1053 253.949 62.7163 258.257C63.0653 260.709 63.9223 261.75 65.7163 261.898C67.2573 262.026 67.8733 262.731 67.8843 264.382C67.8893 265.045 68.2003 265.507 68.6423 265.507C69.8723 265.507 69.4853 266.71 68.0383 267.382C67.2983 267.726 66.0903 268.007 65.3543 268.007C64.6173 268.007 63.7923 267.726 63.5213 267.382ZM72.2563 267.441C71.0013 266.738 71.1983 266.007 72.6423 266.007C73.3973 266.007 73.8923 266.292 73.8923 266.727C73.8923 267.737 73.2703 268.008 72.2563 267.441ZM52.4043 193.715C52.4493 190.237 55.1283 184.507 56.7103 184.507C57.7233 184.507 57.5973 184.934 55.1713 189.727C52.6753 194.66 52.3873 195.075 52.4043 193.715ZM53.7673 324.467C52.3663 323.651 52.7443 322.257 54.8933 320.315C57.1973 318.234 57.3913 318.191 58.9003 319.413C60.1633 320.435 60.0123 321.584 58.3353 323.716C57.2613 325.081 55.3593 325.394 53.7673 324.467ZM69.7253 324.674C69.1643 324.112 69.3523 323.118 70.1783 322.293C71.5083 320.962 77.8923 321.371 77.8923 322.787C77.8923 324.057 75.7413 325.007 72.8643 325.007C71.3213 325.007 69.9093 324.857 69.7253 324.674ZM43.0093 323.258C40.6103 322.216 40.4213 321.122 42.3453 319.404C43.2353 318.608 44.2723 317.219 44.6493 316.317C45.4493 314.402 46.6293 313.286 47.3703 313.743C48.0643 314.172 48.0343 316.307 47.3153 317.651C46.9983 318.243 46.7763 319.732 46.8233 320.959C46.9393 324.024 46.0313 324.572 43.0093 323.258ZM34.7843 316.132C32.4923 313.505 32.2043 309.97 34.1223 308.012C34.7993 307.322 36.0113 305.977 36.8163 305.024C38.0833 303.524 38.3883 303.381 39.0863 303.96C40.3033 304.97 40.0613 306.266 38.3613 307.84C36.8873 309.205 36.8423 309.37 37.1443 312.314C37.3963 314.771 37.2973 315.531 36.6393 316.189C35.6353 317.193 35.7113 317.195 34.7843 316.132ZM29.6923 300.142C28.8443 299.3 27.8923 296.279 27.8923 294.43C27.8923 291.968 29.1103 291.3 30.4923 293.006C32.0913 294.981 31.3303 301.771 29.6923 300.142ZM25.4903 283.132C24.6053 280.805 23.3323 273.246 23.6753 272.352C24.4133 270.427 25.5873 271.786 26.6233 275.766C28.0813 281.363 27.1413 287.472 25.4903 283.132ZM13.8853 231.238C13.6033 230.496 13.1503 228.396 12.8803 226.573C12.6093 224.749 12.1623 222.357 11.8853 221.257C9.66131 212.403 9.00431 202.198 10.5113 199.89C11.4773 198.413 14.5493 196.736 15.3673 197.241C16.2323 197.776 15.9633 199.289 14.8233 200.305C12.0153 202.806 11.9673 204.57 14.2513 221.007C14.9583 226.094 15.5603 230.684 15.5893 231.206C15.6733 232.706 14.4523 232.729 13.8853 231.238ZM51.6243 137.479C51.1893 136.774 51.7823 134.507 52.4023 134.507C52.6713 134.507 52.8923 135.294 52.8923 136.257C52.8923 137.96 52.2843 138.546 51.6243 137.479ZM52.5503 130.497C52.9403 127.2 55.9833 121.118 58.5263 118.549C61.1093 115.94 66.7853 112.7 67.5073 113.422C68.3013 114.216 67.5833 115.453 65.7763 116.4C64.8773 116.871 62.7913 118.607 61.1393 120.257C58.8053 122.589 57.6373 124.34 55.8893 128.121C53.3443 133.631 52.0723 134.536 52.5503 130.497ZM340.115 322.463C339.658 321.724 340.27 321.281 342.7 320.591C345.928 319.675 346.99 319.809 346.802 321.112C346.704 321.79 346.16 322.349 345.392 322.562C343.405 323.111 340.482 323.057 340.115 322.463ZM363.07 320.251C362.663 319.188 363.577 318.257 366.826 316.426C368.375 315.553 371.575 313.526 373.937 311.923C378.343 308.932 380.18 308.372 380.746 309.847C381.222 311.088 377.26 314.447 372.298 317.009C370.012 318.19 367.545 319.572 366.815 320.081C365.208 321.202 363.466 321.281 363.07 320.251ZM366.211 305.257C365.771 304.111 366.268 303.295 368.033 302.264C368.918 301.746 373.041 298.777 377.196 295.665C381.35 292.553 385.007 290.007 385.321 290.007C386.015 290.007 386.07 291.74 385.415 292.965C384.243 295.155 369.208 306.007 367.346 306.007C366.88 306.007 366.369 305.67 366.211 305.257ZM373.701 285.23C373.348 284.311 375.064 281.834 376.867 280.662C378.794 279.408 382.69 276.125 386.453 272.582C389.584 269.634 390.892 269.09 390.892 270.735C390.892 271.934 388.683 275.297 386.892 276.827C383.509 279.715 375.026 286.007 374.515 286.007C374.231 286.007 373.865 285.657 373.701 285.23ZM382.695 257.714C382.265 256.594 382.669 256.061 386.892 252.169C393.122 246.429 394.45 245.634 395.077 247.268C395.254 247.73 394.654 248.821 393.553 250.04C391.349 252.479 384.19 258.507 383.497 258.507C383.223 258.507 382.862 258.15 382.695 257.714ZM342.684 161.074C342.374 160.574 346.051 157.507 346.96 157.507C347.19 157.507 347.73 156.666 348.159 155.639C348.588 154.611 349.351 153.318 349.854 152.764C350.357 152.21 351.043 150.575 351.38 149.13C351.717 147.686 352.195 146.379 352.442 146.226C352.69 146.073 352.892 144.542 352.892 142.823C352.892 139.703 353.748 137.55 354.743 138.165C355.414 138.58 356.065 147.438 355.479 148.18C355.228 148.497 354.733 149.655 354.379 150.752C353.337 153.98 351.13 157.125 348.498 159.13C345.919 161.094 343.248 161.987 342.684 161.074ZM313.892 122.812C313.892 122.43 314.904 120.742 316.141 119.062C317.941 116.617 318.663 116.007 319.755 116.007C321.098 116.007 321.083 116.041 318.838 118.132C317.583 119.301 316.133 120.988 315.616 121.882C314.63 123.588 313.892 123.986 313.892 122.812Z" fill="white"/>
</svg>
