<svg viewBox="0 0 358 276" xmlns="http://www.w3.org/2000/svg" width="358" height="276" fill="none">
  <path fill="white" fill-rule="evenodd" d="M60.6 274.629c-1.166-1.166-1.212-1.366-.545-2.375.98-1.483 5.49-1.844 6.918-.553 1.28 1.16 1.189 1.936-.372 3.165-1.853 1.457-4.408 1.356-6.001-.237m110.818-8.494c-12.551-.612-26.398-1.741-34.25-2.793-9.709-1.3-24.352-3.611-28.25-4.459-22.815-4.961-32.264-7.647-46-13.078-21.875-8.649-35.624-18.87-38.925-28.938-.67-2.039-.11-4.646 1.042-4.868.486-.094 1.859 1.172 3.526 3.25 9.54 11.893 22.587 19.589 46.714 27.557 6.76 2.233 25.706 7.13 33.143 8.566 18.896 3.65 36.582 6.017 52.25 6.992 28.21 1.755 33.615 1.867 50.25 1.039 20.348-1.013 30.942-2.257 55.25-6.489 3.256-.567 9.961-1.904 12.5-2.493 5.703-1.324 11.166-2.669 12.5-3.078 2.221-.682 10.272-2.984 12-3.431 4.001-1.037 19.292-7.509 25.71-10.883 9.717-5.108 15.393-10.307 18.622-17.057 1.357-2.836 1.502-3.578 1.336-6.859-.253-5.011-.762-5.378-3.762-2.713-3.091 2.746-8.656 5.435-8.656 4.183 0-.175 1.238-1.768 2.75-3.54 1.893-2.217 2.75-3.652 2.75-4.603 0-.939.778-2.271 2.422-4.151 3.401-3.886 4.443-5.741 5.294-9.425.559-2.423.615-3.703.228-5.212-.282-1.1-.637-2.506-.787-3.125-.372-1.53-1.558-1.413-3.383.333-1.47 1.408-3.764 3.021-15.471 10.886-2.995 2.013-8.058 4.937-11.25 6.499-3.191 1.562-7.603 3.963-9.803 5.335-4.955 3.092-10.851 5.68-20.25 8.89-6.293 2.149-11.335 3.482-25.25 6.678-4.439 1.019-17.799 3.07-27.701 4.253-12.853 1.535-41.304 2.639-43.758 1.698-1.054-.405-1.006-1.501.084-1.95 2.239-.922 8.93-1.728 14.42-1.737 3.326-.006 7.826-.219 10-.474 2.175-.256 6.543-.718 9.705-1.027 13.084-1.281 16.648-1.737 25.75-3.298 14.626-2.507 23.25-4.494 23.25-5.356 0-.232-.396-.297-.879-.143-.484.153-3.127.607-5.875 1.009a1778 1778 0 0 0-11.746 1.771c-17.055 2.63-44.256 4.295-46.996 2.878-.685-.355-1.317-1.019-1.405-1.476-.365-1.896 4.315-3.357 14-4.369 2.833-.296 7.063-.755 9.401-1.019 2.338-.265 5.6-.619 7.25-.788 16.6-1.701 45.9-7.291 58-11.067 9.709-3.029 21.518-7.603 28.207-10.923 7.236-3.593 10.016-4.185 7.716-1.642-1.174 1.297-.226 1.132 1.934-.336 1.012-.687 2.032-1.25 2.266-1.25s.699-.753 1.032-1.674 1.503-2.505 2.6-3.52 1.995-2.19 1.995-2.61 1.046-2.042 2.325-3.605c2.657-3.245 3.815-5.606 4.976-10.138 1.213-4.734.75-8.645-1.584-13.373-3.321-6.726-8.454-10.882-22.489-18.207-7.875-4.11-8.997-4.846-9.133-5.998-.115-.967.192-1.54 1.167-2.179 1.267-.83 1.469-.819 4.905.275 11.917 3.795 24.208 11.828 29.393 19.211 3.867 5.507 4.568 7.908 4.546 15.568-.02 6.845-.743 10.108-3.14 14.17l-1.025 1.738 1.527 3.102c2.906 5.904 2.838 12.818-.185 18.879l-1.768 3.543 1.358 2.774c.941 1.923 1.415 3.79 1.544 6.08.398 7.049-1.996 12.952-7.616 18.776-3.498 3.625-4.801 4.423-4.801 2.938 0-1.247-.861-.865-3.654 1.625-4.951 4.413-5.973 5.247-9.097 7.431-12.975 9.07-45.06 19.026-76.499 23.737-27.802 4.167-51.076 5.211-82.25 3.69m149.019-23.713c2.163-1.848.965-2.031-1.653-.252-2.093 1.422-2.267 1.732-.972 1.732.492 0 1.673-.666 2.625-1.48m-285.77 21.613c-4.704-.68-4.015-4.944.889-5.497 1.797-.202 2.426-.033 3.585.964 1.792 1.542 1.397 3.192-1.005 4.196-.927.387-1.75.67-1.827.629-.078-.041-.816-.172-1.641-.292m-33.25-8.278c-1.924-.97-1.884-2.635.093-3.84 1.984-1.21 3.449-1.278 5.433-.252 2.243 1.16 1.904 3.219-.693 4.206-1.83.695-3.295.661-4.832-.114m176.001-10.884c-3.438-.237-8.275-.647-10.75-.911s-9.787-.938-16.25-1.497c-12.754-1.105-26.201-2.715-31.75-3.801a588 588 0 0 0-8.25-1.53c-12.3-2.187-31.06-7.74-40.5-11.989a538 538 0 0 0-9.733-4.238c-8.702-3.669-20.453-9.911-26.585-14.122-4.867-3.343-10.72-8.826-12.68-11.878-3.77-5.877-5.735-13.563-3.67-14.356.557-.213 1.179.128 1.876 1.028.573.741 2.005 2.482 3.182 3.869s2.733 3.417 3.457 4.51c2.99 4.52 15.528 13.866 24.903 18.565 8.882 4.451 25.893 11.343 31.75 12.863 1.237.321 4.725 1.352 7.75 2.291 3.025.94 8.875 2.513 13 3.497s8.747 2.1 10.272 2.479c1.524.379 6.249 1.266 10.5 1.971 8.963 1.487 12.444 2.327 12.542 3.028.039.275.546.838 1.128 1.25 1.152.817 7.864 1.072 47.058 1.787 29.886.545 47.758-.527 72.5-4.349 23.069-3.564 51.769-12.614 71.395-22.512 2.897-1.461 3.855-1.498 3.855-.146 0 .396.225.72.5.72 1.047 0 .413 1.042-2.041 3.355-3.75 3.535-7.485 5.944-14.318 9.235-11.014 5.305-34.361 12.389-49.035 14.879-1.571.266-4.769.84-7.106 1.274-11.579 2.15-11.446 2.132-32.25 4.288-6.874.712-42.352 1.02-50.75.44m-165.683-4.007c-1.442-1.135-1.732-2.997-.612-3.927 1.256-1.042 4.168-1.235 5.497-.364 1.833 1.201 2.106 2.684.758 4.12-1.425 1.516-3.84 1.589-5.643.171m144.539-11.035c-2.753-.527-7.223-2.41-9.394-3.956-1.691-1.204-3.962-5.321-3.962-7.182 0-2.075 1.431-6.883 2.368-7.958 2.324-2.664 4.365-4.078 10.225-7.084 5.981-3.067 19.57-8.749 20.925-8.749.342 0 1.659-.627 2.927-1.393 2.609-1.577 6.633-3.3 13.555-5.804 2.613-.945 9.364-3.953 15.004-6.683 10.088-4.885 11.765-5.48 18.746-6.651 1.925-.323 8.191-1.91 13.924-3.528 5.733-1.617 10.683-2.942 11-2.944s1.384-.227 2.372-.502c1.476-.409 1.898-.833 2.363-2.372.776-2.571 5.002-7.642 7.925-9.511 2.608-1.668 8.417-4.212 17.916-7.848 3.3-1.264 6.9-2.723 8-3.244 9.244-4.377 18.76-8.02 20.948-8.02 3.153 0 4.731 3.457 3.049 6.682-1.274 2.443-1.029 2.88 1.378 2.454 5.788-1.024 7.683.227 7.215 4.765l-.273 2.65 2.127-.319c1.834-.275 2.345-.135 3.716 1.019 1.369 1.152 1.59 1.662 1.588 3.668-.001 1.394-.378 2.947-.937 3.865-1.668 2.735-19.425 14.063-29.811 19.017-13.47 6.426-20.604 7.205-31.324 3.423-2.611-.921-6.118-.922-9.652-.001-5.304 1.381-24.075 9.905-32.524 14.768-6.282 3.616-10.783 6.097-21.75 11.989-4.262 2.29-8.691 4.806-9.84 5.592-1.15.785-2.234 1.428-2.41 1.428s-1.26.632-2.41 1.405c-3.72 2.501-12.021 7.033-16.198 8.843-6.185 2.68-10.951 3.3-16.786 2.181m9.868-6.483c2.992-.83 12.226-5.416 19.776-9.821 42.503-24.796 62.483-34.518 74.25-36.129 4.35-.595 4.667-.57 9.5.776 3.329.926 6.608 1.458 9.811 1.591 4.53.189 5.073.1 9.273-1.522 6.397-2.471 15.369-7.167 29.514-15.448 6.741-3.947 8.39-6.393 4.31-6.393-1.251 0-3.817 1.078-8.596 3.611-6.354 3.369-20.022 9.833-22.36 10.575-.707.224-1.327.004-1.96-.694-1.273-1.407-.9-1.713 7.509-6.156 13.07-6.906 16.495-8.842 18.961-10.715 2.906-2.208 3.221-2.854 1.771-3.63-1.434-.768-4.615.421-15.999 5.979-4.822 2.354-10.729 4.946-13.127 5.76-4.119 1.398-4.409 1.432-5.218.623s-.803-.909.127-1.798c.541-.517 4.022-2.466 7.734-4.331 14.577-7.322 19.538-10.6 18.831-12.444-.399-1.039-1.619-.968-4.31.253-1.226.556-4.939 2.109-8.25 3.451-3.312 1.341-8.271 3.437-11.021 4.658-2.75 1.22-7.025 2.957-9.5 3.86-9.858 3.595-12.76 5.65-13.877 9.826-.335 1.253-1.287 3.041-2.116 3.974-1.665 1.872-2.604 2.237-16.007 6.208-15.347 4.546-32.673 10.433-40.626 13.801-4.298 1.821-11.203 4.529-15.344 6.018-4.142 1.49-9.591 3.6-12.11 4.69-2.518 1.089-4.927 1.981-5.351 1.981-1.079 0-3.142.941-6.069 2.768-1.375.858-4.783 2.732-7.574 4.166-2.79 1.433-5.64 3.132-6.334 3.775-1.507 1.396-2.457 4.434-1.864 5.959.838 2.154 3.892 4.252 7.272 4.996 1.999.44 7.047.317 8.974-.218m-50.474-6.159c-7.69-1.733-16.711-4.563-23.284-7.305-2.044-.852-4.841-1.953-6.216-2.447-3.358-1.204-10.432-4.789-11.44-5.796-1.824-1.824-.571-2.274 2.282-.819 3.01 1.534 7.48 3.016 10.86 3.599 1.763.305 4.893 1.224 6.956 2.044s5.46 1.904 7.547 2.409c3.692.894 13.784 4.086 15.795 4.996.55.249 2.294 1.02 3.875 1.714 1.727.759 2.875 1.573 2.875 2.04 0 1.101-3.08.956-9.25-.435m14.75-1.255c-4.028-1.229-8.029-4.406-9.31-7.391-1.622-3.78.134-9.649 3.818-12.761 1.861-1.572 11.372-5.837 15.992-7.171 1.512-.436 5.787-1.885 9.5-3.219 13.236-4.756 33.919-11.395 46-14.765 2.613-.728 6.325-1.763 8.25-2.298a163 163 0 0 1 6.731-1.696c3.6-.806 8.347-2.587 9.566-3.59.439-.36 1.108-1.595 1.487-2.743 1.097-3.326 4.115-7.556 6.768-9.489 3.299-2.403 4.873-3.148 16.138-7.635 12.523-4.987 23.806-8.761 26.214-8.768 3.489-.011 6.286 1.028 8.731 3.241 2.196 1.988 2.301 2.197 1.734 3.442-.332.729-1.226 1.574-1.987 1.877-.76.304-3.632 1.623-6.382 2.931s-5.562 2.553-6.248 2.764c-.687.212-4.391 1.937-8.231 3.835-6.013 2.971-7.298 3.43-9.252 3.302-2.982-.195-2.99-1.256-.019-2.81a407 407 0 0 0 4.75-2.535c1.375-.748 4.3-2.094 6.5-2.991 7.822-3.191 13.487-6.288 13.66-7.468.088-.602.001-1.094-.193-1.094-.821 0-16.84 5.229-20.967 6.845-2.475.969-6.671 2.5-9.324 3.404-4.95 1.686-9.431 3.897-12.302 6.072-1.218.922-1.847 1.995-2.5 4.265-1.507 5.23-5.116 8.382-12.613 11.016-3.307 1.162-17.466 5.472-23.761 7.232-17.689 4.947-54.011 17.122-61.096 20.48-3.633 1.722-5.654 3.583-5.654 5.209 0 1.271 3.825 5.935 5.34 6.511.703.268 2.876.713 4.828.99s4.076.849 4.721 1.271c1.719 1.127 1.299 2.806-.889 3.552-1.946.663-8.062.777-10 .185m-22.25-10.535c-1.1-.217-3.912-.661-6.25-.985-9.218-1.279-25.096-4.741-31.25-6.814-13.205-4.446-20.417-7.383-27.75-11.303-14.63-7.82-23.327-16.637-25.501-25.855-.422-1.789-.538-4.371-.342-7.594.252-4.137.539-5.362 1.875-8.009 3.95-7.828 9.505-12.8 17.51-15.677 4.555-1.638 5.127-1.716 5.332-.73.1.478-2.367 3.086-6.372 6.738-7.305 6.659-9.605 9.619-11.03 14.195-1.766 5.678-1.035 9.695 2.838 15.589 3.822 5.817 8.587 9.451 19.94 15.209 12.855 6.519 25.9 10.961 48.5 16.515 14.39 3.536 17.031 4.316 18.543 5.481.924.712.9.789-.676 2.24-1.708 1.572-2.104 1.646-5.367 1m-3.75-37.247c-2.037-.785-1.742-.902 2-.796 3.612.101 2.369-.743-2.442-1.66-3.235-.616-5.88-.628-9.258-.041-2.121.369-10.3-1.172-12.09-2.278-.846-.523-1.794-1.511-2.106-2.196-.347-.763-1.788-1.859-3.711-2.825-7.352-3.694-14.616-10.017-19.477-16.954-1.253-1.787-3.748-6.062-5.546-9.5-5.09-9.732-8.495-23.18-9.18-36.25-.385-7.384.115-9.518 2.955-12.599 5.853-6.35 17.346-11.093 36.605-15.107 22.662-4.723 57.581-4.482 80 .554 14.334 3.22 23.557 6.764 30.065 11.556 6.171 4.542 7.001 6.792 6.184 16.76-.613 7.47-1.385 11.491-2.987 15.554-.573 1.456-.924 3.022-.779 3.479.378 1.192-1.509 7.65-3.364 11.511-6.12 12.735-14.033 23.108-19.097 25.034-.729.277-2.175 1.187-3.214 2.022s-3.108 2.145-4.599 2.912c-1.944 1-2.95 1.898-3.562 3.18-.47.982-1.663 2.286-2.652 2.897-2.719 1.68-12.15 3.922-19.995 4.753-9.163.971-31.224.967-33.75-.006m31.5-5.721c1.512-.301 3.988-.797 5.5-1.101 4.057-.816 8.253-2.315 12.69-4.534 2.708-1.354 4.31-1.877 5.125-1.672.652.163 1.185.518 1.185.788 0 1.057 2.845.469 4.038-.834l1.212-1.324-1.25.328c-3.903 1.024-3.889 1.029-1.947-.765.991-.916 3.284-2.961 5.095-4.545 4.47-3.909 10.78-11.574 14.061-17.079 2.565-4.305 5.959-12.056 7.681-17.541 1.029-3.281 1.53-3.879 2.948-3.523 1.492.375 1.47-.101-.079-1.718-1.175-1.226-1.215-1.454-.752-4.277.91-5.542 1.077-7.232.711-7.232-.201 0-1.579.806-3.063 1.791-9.718 6.45-30.722 12.124-50.905 13.749-9.356.754-30.843.322-38.25-.769-9.331-1.374-11.12-1.69-19.5-3.441-10.542-2.203-20.471-5.861-24.875-9.163-1.657-1.242-2.128-3.099-1.17-4.614.528-.832.963-.715 6.795 1.828 8.689 3.788 21.376 6.671 37.25 8.464 12.068 1.362 38.036 1.222 48.669-.264 24.599-3.438 43.831-10.515 43.831-16.13 0-7.763-33.973-16.853-66.5-17.793-11.363-.328-19.174.174-33.25 2.138-10.754 1.5-16.017 2.6-23.918 4.992-7.566 2.293-8.26 1.867-2.582-1.586 1.87-1.137 1.903-1.194.5-.883-2.401.532-7.138 2.98-9.148 4.727-1.018.886-3.01 2.938-4.426 4.561-4.25 4.871-4.301 7.888-.424 24.868 3.326 14.569 10.119 27.603 18.434 35.369 6.119 5.714 16.518 12.149 23.244 14.383 3.116 1.035 12.509 2.741 18.07 3.283 5.487.534 21.446.227 25-.481m158.25-31.738c-11.195-4.511-20.493-7.153-35.25-10.015-16.163-3.135-27.957-4.654-44.63-5.749-8.975-.59-11.37-1.272-11.37-3.239 0-2.06 2.317-2.91 7.785-2.855 3.231.033 4.685-.138 4.845-.568.126-.338-.165-2.527-.648-4.865s-1.139-6.388-1.459-9a498 498 0 0 0-1.044-8c-.254-1.787-.693-5.5-.976-8.25-.72-7-2.393-21.773-2.974-26.25-1.109-8.55-2.521-25.672-2.526-30.63-.006-6.642 2.312-9.29 11.601-13.26 9.225-3.94 17.266-5.757 32.507-7.344 18.185-1.893 41.787.345 56.139 5.323 8.132 2.821 13.801 6.23 15.822 9.513 1.774 2.88 2.126 4.885 1.506 8.564-.687 4.076-2.254 17.61-3.6 31.084-.247 2.475-.684 6.3-.971 8.5s-.96 7.825-1.496 12.5a4405 4405 0 0 1-2.017 17.25c-.574 4.812-1.258 10.55-1.519 12.75-.262 2.2-.707 5.237-.989 6.75s-.708 4.55-.946 6.75c-.628 5.799-1.339 7.992-3.063 9.443-4.149 3.491-4.465-1.857-1.446-24.443.515-3.85 1.411-11.05 1.991-16s1.244-10.575 1.473-12.5.775-6.537 1.211-10.25a3667 3667 0 0 1 2.788-23c.256-2.062.806-6.274 1.221-9.359s.789-7.685.83-10.222c.084-5.304.06-5.34-5.293-8.045-9.607-4.853-25.385-7.925-45.502-8.86-5.544-.257-10.853-.255-12.75.005-13.294 1.824-19.362 2.907-26.969 4.812-4.796 1.202-9.183 2.567-9.75 3.035-4.285 3.537-4.781 4.251-4.771 6.86.009 2.383.798 10.267 1.979 19.774.29 2.337.751 6.526 1.023 9.308.273 2.782.728 6.832 1.012 9 2.346 17.924 3.399 28.246 3.945 38.692.237 4.537.589 8.863.782 9.612.397 1.54.866 1.668 7.749 2.105 2.338.149 8.863.945 14.5 1.769 28.418 4.157 52.467 11.117 58.193 16.843 1.453 1.453 1.539 1.803.789 3.204-.742 1.387-2.983 1.172-7.732-.742M226.026 9.184c4.639-1.556 12.458-3.283 14.983-3.31 1.462-.017 3.559-.232 4.659-.48 1.393-.313.256-.37-3.75-.186-3.785.174-7.374.691-10.5 1.513-4.545 1.196-8 2.472-8 2.954 0 .342.279.29 2.608-.49m72.237 104.897c-.505-.505-.421-7.129.14-11.045.266-1.861.732-5.859 1.035-8.884s.749-6.85.991-8.5c1.074-7.299 2.107-16.799 1.855-17.05-.152-.152-2.04.293-4.196.99-10.96 3.54-30.336 5.122-44.629 3.644-10.148-1.049-7.081-1.584 9.084-1.584 12.379 0 15.987-.16 19.875-.889 9.411-1.76 17.601-4.028 18.511-5.124 1.278-1.54.346-2.934-3.082-4.613-3.45-1.69-13.732-4.534-18.319-5.067-2.821-.328-3.547-1.19-1.251-1.485 3.666-.47 19.413 2.835 24.409 5.122 3.781 1.731 3.972 2.287 3.269 9.515-1.051 10.816-4.692 37.919-5.598 41.677-.593 2.46-1.5 3.886-2.094 3.293m-64.856-44.093c-2.745-1.015-3.489-1.48-3.489-2.179 0-.338.691-.424 1.875-.235 2.403.384 8.23 2.275 8.85 2.871.821.79-4.829.434-7.236-.457m-8.489-3.65c-3.139-1.904-3.382-3.713-.765-5.709 3.099-2.363 16.26-5.932 17.459-4.733.298.298.211.558-.235.703-.39.126-2.959.92-5.709 1.761-2.75.843-5.9 2.052-7 2.685-2.09 1.205-2.429 2.388-1.501 5.232.457 1.4-.019 1.412-2.249.06m28.5-27.97c-13.449-1.099-31.212-5.737-34.875-9.106-1.158-1.065-1.458-3.059-.652-4.334.387-.612 1.369-.438 6.368 1.13 17.323 5.43 36.251 7.307 54.909 5.445 9.835-.98 23.521-3.846 29.364-6.147 2.77-1.09 3.886-.83 3.886.908 0 2.11-3.211 4.77-7.92 6.557-13.144 4.99-32.363 7.077-51.08 5.547" clip-rule="evenodd"/>
</svg>
