<svg width="406" height="332" viewBox="0 0 406 332" fill="none" xmlns="http://www.w3.org/2000/svg">
<path fill-rule="evenodd" clip-rule="evenodd" d="M255.716 331.621C244.497 329.825 240.119 328.872 231.466 326.339C226.419 324.862 213.778 319.63 208.466 316.82C201.985 313.391 199.333 311.594 198.009 309.734C196.374 307.438 195.423 302.919 195.524 297.924L195.615 293.424L193.665 293.302C189.077 293.015 180.06 292.068 178.216 291.678C177.116 291.446 174.866 290.981 173.216 290.644C151.984 286.308 132.592 277.361 114.966 263.769C107.159 257.75 94.3043 244.442 89.0323 236.924C79.7403 223.672 76.7813 218.466 70.9853 205.174C67.8633 198.015 64.1233 186.21 62.7493 179.174C60.7393 168.888 59.9863 160.516 59.9763 148.323C59.9663 137.497 60.8773 127.537 62.5033 120.674C62.7963 119.436 63.2733 117.412 63.5623 116.174C65.3843 108.379 67.9453 100.283 70.2843 94.924C71.2443 92.724 72.4073 90.024 72.8693 88.924C79.7323 72.575 96.5453 50.44 111.944 37.478C130.561 21.809 151.362 11.643 175.466 6.432C180.807 5.278 199.423 3.197 204.518 3.184C214.942 3.159 229.548 4.904 238.216 7.209C239.316 7.501 241.004 7.928 241.966 8.156C249.522 9.951 257.801 13.122 267.727 18.025C276.252 22.236 278.122 23.309 285.555 28.258C301.653 38.976 318.42 56.329 327.263 71.424C328.552 73.624 330.681 77.239 331.995 79.456C335.976 86.177 339.976 94.408 341.703 99.43C343.424 104.439 345.536 111.486 346.045 113.924C346.332 115.299 346.772 117.324 347.022 118.424C347.273 119.524 347.71 121.887 347.994 123.674C351.855 147.962 350.037 171.713 342.542 194.924C340.05 202.644 332.333 220.135 330.356 222.549C329.766 223.268 329.544 222.957 335.401 229.645C344.156 239.644 352.99 251.14 354.363 254.323C355.302 256.499 355.097 260.407 353.911 262.929C351.044 269.028 336.465 279.412 325.466 283.188C320.581 284.866 319.331 285.6 319.704 286.572C320.596 288.896 321.966 294.871 321.966 296.435C321.966 300.977 317.951 305.006 308.398 310.052C302.892 312.96 294.034 315.923 289.466 316.383C287.954 316.536 284.916 316.871 282.716 317.127C280.516 317.383 277.162 317.463 275.262 317.304L271.808 317.016L272.144 320.638C272.871 328.453 270.262 331.266 261.716 331.884C260.066 332.004 257.366 331.885 255.716 331.621ZM267.458 326.682C268.264 325.876 268.399 325.247 268.181 323.307C267.766 319.618 266.706 312.815 265.452 305.799C265.17 304.218 264.773 301.686 264.571 300.174L264.204 297.424L261.21 297.095C255.853 296.505 246.339 296.481 240.716 297.042C235.921 297.521 224.734 299.485 217.321 301.149C212.104 302.321 201.466 306.43 201.466 307.274C201.466 308.195 204.252 310.512 207.966 312.68C220.96 320.264 246.754 327.246 263.091 327.601C265.852 327.661 266.646 327.494 267.458 326.682ZM280.466 313.944C293.461 312.495 305.791 308.23 312.767 302.771C315.315 300.777 316.396 299.438 315.877 298.919C315.76 298.802 313.704 298.992 311.308 299.342C307.449 299.906 306.796 300.156 305.584 301.532C303.739 303.627 294.452 307.193 294.471 305.799C294.477 305.377 300.225 302.584 303.091 301.61C304.122 301.26 304.966 300.793 304.966 300.574C304.966 300.354 301.492 300.174 297.245 300.174C290.657 300.174 276.796 298.994 270.529 297.9L268.842 297.605L269.205 299.515C269.808 302.687 271.442 313.219 271.456 314.02C271.466 314.587 274.969 314.557 280.466 313.944ZM202.687 303.472C208.197 299.266 220.727 295.229 235.716 292.83C242.397 291.76 262.046 291.609 267.966 292.582C296.211 297.225 302.295 297.856 306.716 296.601C307.816 296.288 310.701 296.016 313.126 295.994L317.536 295.956L317.217 294.19C316.695 291.306 313.144 281.861 310.068 275.174C308.482 271.727 306.776 267.899 305.721 265.424C304.856 263.392 303.159 259.641 301.197 255.424C300.302 253.499 298.984 250.63 298.268 249.049C297.552 247.468 296.371 244.88 295.643 243.299C293.301 238.211 288.92 228.576 286.378 222.924C282.24 213.725 280.009 208.867 276.91 202.309C272.836 193.688 275.521 196.346 280.109 205.476C283.22 211.668 290.133 224.57 291.735 227.174C292.421 228.289 298.366 239.938 304.239 251.674C307.536 258.261 311.319 266.341 313.699 271.88C314.892 274.654 316.339 278.011 316.916 279.34L317.966 281.756L319.591 280.771C320.485 280.229 322.904 279.064 324.966 278.181C335.306 273.755 342.032 269.495 347.369 263.991C350.687 260.569 351.246 259.604 350.992 257.749C350.845 256.679 344.744 248.454 339.439 242.174C336.767 239.011 331.698 232.936 328.174 228.674C315.456 213.29 311.663 208.932 291.975 187.073C282.371 176.41 263.424 157.252 257.855 152.572C255.732 150.788 252.582 148.562 250.855 147.626C247.98 146.067 247.358 145.925 243.466 145.93C240.076 145.935 238.812 146.154 237.216 147.013C234.89 148.265 232.099 151.079 230.361 153.924C227.857 158.024 222.851 171.068 220.384 179.924C219.847 181.849 219.208 184.099 218.963 184.924C218.155 187.647 215.142 199.377 214.597 201.924C214.303 203.299 213.79 205.774 213.456 207.424C213.123 209.074 212.325 212.674 211.682 215.424C211.039 218.174 210.248 221.999 209.925 223.924C209.602 225.849 209.161 228.324 208.945 229.424C208.406 232.169 206.121 245.645 205.47 249.924C205.176 251.849 204.607 255.449 204.205 257.924C200.754 279.151 198.587 305.174 200.27 305.174C200.373 305.174 201.461 304.408 202.687 303.472ZM196.669 281.299C196.861 278.068 197.212 274.524 197.45 273.424C197.687 272.324 198.139 269.511 198.454 267.174C198.769 264.837 199.219 261.912 199.454 260.674C199.689 259.436 200.15 256.736 200.478 254.674C200.807 252.612 201.414 249.236 201.827 247.174C202.24 245.112 202.66 242.524 202.76 241.424C202.939 239.469 203.854 233.931 204.991 227.924C206.668 219.06 208.896 208.184 209.446 206.174C209.709 205.211 210.634 201.499 211.501 197.924C213.199 190.924 213.558 189.708 218.065 175.674C223.295 159.384 227.333 151.274 232.779 146.116C237.341 141.797 242.236 140.278 246.931 141.724C253.816 143.846 258.286 147.432 275.58 164.706C285.857 174.971 290.589 179.378 290.914 178.987C291.657 178.091 293.565 168.408 294.915 158.674C295.551 154.09 295.594 143.014 295 136.924C294.351 130.277 291.92 120.762 289.024 113.536C287.299 109.231 287.284 109.174 287.9 109.174C288.569 109.174 290.613 112.576 292.105 116.174C294.499 121.947 295.257 124.416 297.248 132.924C297.866 135.567 298.965 145.197 298.956 147.892C298.945 151.022 297.901 160.338 297.02 165.174C296.163 169.876 294.993 173.725 293.416 177.029C292.582 178.777 291.97 180.518 292.058 180.899C292.145 181.279 296.266 185.926 301.216 191.226C306.166 196.525 311.791 202.709 313.716 204.967C320.93 213.43 325.236 218.095 325.871 218.134C326.421 218.168 328.919 213.357 332.601 205.174C335.941 197.749 338.824 188.573 341.476 176.924C343.893 166.305 345.189 150.176 344.428 140.174C343.282 125.094 340.177 110.842 335.498 99.174C329.328 83.789 322.249 71.787 311.167 57.924C304.226 49.242 302.106 47.196 292.764 40.166C282.73 32.616 276.731 28.789 267.216 23.87C254.489 17.29 248.838 15.357 228.494 10.627C222.837 9.312 200.097 8.717 193.35 9.708C191.351 10.001 188.253 10.447 186.466 10.699C176.734 12.071 173.679 12.72 161.966 15.909C156.129 17.498 155.661 17.677 148.216 21.172C144.916 22.722 141.429 24.312 140.466 24.707C126.832 30.298 109.487 44.437 97.0213 60.123C93.1123 65.042 85.9663 75.276 85.9663 75.955C85.9663 76.128 85.5473 76.867 85.0353 77.597C83.8473 79.29 78.5873 89.463 76.7883 93.546C74.3003 99.194 71.0413 108.569 69.9653 113.174C69.7403 114.137 69.2193 116.274 68.8083 117.924C66.8383 125.837 64.9713 140.871 64.9603 148.924C64.9453 159.451 67.2433 175.2 70.4693 186.674C71.0493 188.736 71.7123 191.099 71.9423 191.924C73.1873 196.392 76.4073 204.645 78.9653 209.924C84.4893 221.322 92.0203 232.267 102.858 244.645C114.177 257.572 129.644 268.495 148.216 276.678C149.591 277.284 151.391 278.084 152.216 278.455C159.97 281.947 171.853 284.773 186.716 286.66C189.191 286.974 192.116 287.402 193.216 287.61C194.316 287.819 195.464 287.806 195.768 287.582C196.077 287.353 196.473 284.591 196.669 281.299ZM22.6163 301.218C14.5813 298.478 9.02432 289.136 7.44132 275.704C6.84732 270.665 6.87332 268.583 7.66232 258.204C8.15432 251.725 8.74232 244.624 8.97032 242.424C10.0173 232.302 10.5363 227.033 10.9663 222.174C11.2213 219.287 11.6573 214.561 11.9353 211.674C14.1043 189.108 15.9473 153.608 16.0883 131.674C16.1813 117.191 16.0703 113.937 15.3983 111.388C14.3333 107.355 14.1333 107.026 9.44732 101.601C7.22632 99.028 4.85732 95.859 4.18332 94.557C0.610319 87.656 -0.798679 73.287 0.442322 56.399C0.703322 52.838 1.15932 45.312 1.45632 39.674C1.75232 34.036 2.20632 27.286 2.46532 24.674C2.72432 22.062 3.18432 17.224 3.48832 13.924C4.17332 6.491 4.89532 2.116 5.57132 1.299C6.24332 0.487 7.69832 0.498999 8.38132 1.321C9.12632 2.219 9.85332 10.989 10.2133 23.424C10.8413 45.084 10.9473 47.555 11.4803 52.924C12.3453 61.644 13.0843 65.674 13.8163 65.674C14.1733 65.674 14.4693 65.505 14.4733 65.299C14.4773 65.093 14.7133 61.661 14.9963 57.674C15.2803 53.687 15.7253 44.349 15.9863 36.924C17.2003 2.346 17.3813 0.616002 19.8143 0.268002C22.4193 -0.103998 22.7103 2.341 23.9613 35.174C24.6903 54.3 25.4173 65.325 25.9863 65.894C27.3043 67.212 27.4333 65.807 28.4633 38.924C29.6633 7.56 29.9713 2.492 30.7433 1.312C31.6653 -0.0939997 32.6403 -0.133999 33.8703 1.186C34.6513 2.024 34.8733 3.336 35.1623 8.811C35.7523 19.993 35.9053 23.162 36.2133 30.674C37.5323 62.839 37.7193 65.674 38.5173 65.674C40.0573 65.674 40.7783 58.017 41.4623 34.424C41.7493 24.524 42.2333 13.231 42.5373 9.328C43.0393 2.88 43.1983 2.13 44.2783 1.116L45.4663 0L46.6563 1.117C47.9663 2.348 48.4063 5.023 49.4613 18.174C49.7583 21.887 50.2153 27.174 50.4753 29.924C52.1533 47.689 52.7733 79.143 51.5443 84.174C49.6613 91.882 47.9393 95.398 43.2173 101.174C36.9353 108.858 36.9123 108.933 36.6023 122.702C36.2503 138.34 38.2063 185.094 39.9693 203.174C40.2513 206.061 40.6983 211.011 40.9643 214.174C41.4083 219.47 42.3683 229.027 44.2533 246.924C46.8773 271.848 45.6503 284.147 39.6243 293.285C36.8903 297.432 34.1153 299.859 30.6123 301.17C27.3913 302.375 26.0353 302.383 22.6163 301.218ZM29.8393 295.905C32.2563 294.895 33.2853 293.939 35.2003 290.924C37.0133 288.071 38.5913 284.169 39.5483 280.174C40.4153 276.556 40.4193 259.543 39.5553 250.924C39.1973 247.349 38.5723 241.049 38.1673 236.924C37.7613 232.799 37.2063 227.174 36.9333 224.424C35.4763 209.776 35.3933 208.741 33.9623 187.424C31.8403 155.809 31.0953 115.446 32.5463 110.674C33.6833 106.933 35.4533 103.799 38.1063 100.834C44.1123 94.119 46.0353 89.82 47.4583 79.924C47.9893 76.236 48.2183 50.986 47.7283 50.194C47.6133 50.007 47.2793 44.92 46.9853 38.889C46.6923 32.858 46.3073 26.012 46.1313 23.674C45.6213 16.939 45.0723 20.647 45.0193 31.174C44.9503 45.03 43.6063 62.149 42.2183 66.848C41.4723 69.377 39.5653 70.933 37.7663 70.481C34.9293 69.769 34.3213 66.955 33.4033 50.299C33.0653 44.18 32.6393 39.174 32.4543 39.174C32.2703 39.174 31.9673 42.732 31.7813 47.08C31.0073 65.19 30.1993 69.364 27.2673 70.405C25.7153 70.956 24.7663 70.516 23.3153 68.573C22.0103 66.825 21.5673 62.526 20.9563 45.703C20.6723 37.881 20.3333 31.375 20.2033 31.244C19.6233 30.664 19.4983 32.112 19.2173 42.691C18.8533 56.403 18.0943 65.745 17.1653 67.969C15.8693 71.071 12.9373 71.443 11.0193 68.749C10.2063 67.607 9.90632 66.005 9.49632 60.625C8.73832 50.685 7.96232 33.725 7.96432 27.127C7.96532 23.938 7.81532 18.876 7.63032 15.877C7.13832 7.9 6.55732 11.053 5.96332 24.924C5.69232 31.249 5.24432 40.362 4.96732 45.174C3.94432 62.976 3.79932 71.373 4.42732 76.463C5.95732 88.869 7.81932 94.088 12.6593 99.532C15.9863 103.275 18.0133 106.549 19.4033 110.424C21.8343 117.203 21.3563 144.506 17.9293 194.674C17.6563 198.662 17.2203 205.299 16.9603 209.424C16.6993 213.549 16.2553 219.174 15.9723 221.924C15.6893 224.674 15.2423 229.287 14.9773 232.174C14.7133 235.061 14.2553 239.787 13.9593 242.674C13.0393 251.646 12.4683 258.687 12.1523 264.924C11.3783 280.192 16.3133 294.117 23.2163 296.144C25.5463 296.827 27.8283 296.745 29.8393 295.905ZM383.716 301.58C377.943 299.993 373.439 294.399 371.67 286.622C370.967 283.531 370.882 281.145 371.13 271.439C371.292 265.106 371.649 256.662 371.923 252.674C372.197 248.686 372.662 241.936 372.957 237.674C375.134 206.203 375.366 202.101 375.971 184.424C376.515 168.493 376.379 162.972 375.364 159.71C375.07 158.768 373.778 156.386 372.493 154.417C368.841 148.822 367.388 142.685 365.926 126.674C364.909 115.526 364.772 89.846 365.675 79.344C366.735 67.013 368.902 52.675 370.991 44.174C371.228 43.211 371.566 41.749 371.744 40.924C372.15 39.032 373.876 32.828 374.456 31.174C379.583 16.556 382.747 10.561 388.285 4.97C390.87 2.36 394.847 0.187001 397.053 0.179001C398.853 0.172001 401.153 2.204 402.281 4.797C403.162 6.825 403.198 9.098 403.053 53.424C402.97 78.999 402.819 103.412 402.718 107.674C402.617 111.936 402.402 124.311 402.239 135.174C402.077 146.037 401.851 156.049 401.738 157.424C401.251 163.327 402.613 209.888 403.931 232.424C404.204 237.099 404.796 248.574 405.247 257.924C406.332 280.458 405.97 286.162 403.061 292.378C400.104 298.698 395.791 301.708 389.302 301.979C387.33 302.062 384.816 301.882 383.716 301.58ZM392.026 296.403C394.403 295.564 397.122 293.217 398.185 291.085C398.555 290.345 399.127 288.543 399.457 287.081C399.787 285.62 400.301 283.57 400.599 282.526C400.993 281.148 400.969 276.351 400.514 265.026C400.168 256.445 399.8 248.524 399.695 247.424C399.516 245.534 398.973 234.95 397.951 213.424C396.863 190.501 396.44 173.043 396.692 161.424C397.183 138.837 397.466 124.306 397.981 95.424C398.26 79.749 398.708 58.262 398.976 47.674C399.62 22.266 399.568 9.389 398.813 7.174C397.018 1.91 389.918 8.109 384.209 19.924C379.534 29.602 375.536 44.228 372.456 62.924C371.215 70.46 370.693 76.286 369.924 91.174C369.353 102.236 369.638 122.049 370.445 127.424C370.693 129.074 371.151 132.449 371.463 134.924C372.704 144.778 373.4 147.042 376.996 152.924C380.82 159.179 381.133 161.45 380.812 180.638C380.498 199.398 380.081 206.913 376.94 250.424C376.662 254.274 376.298 262.874 376.131 269.534C375.828 281.611 375.891 282.419 377.597 288.424C379.566 295.354 385.577 298.678 392.026 296.403ZM210.466 308.027C209.77 307.675 209.216 306.958 209.216 306.409C209.216 305.724 209.597 305.387 210.466 305.301C211.858 305.165 216.035 307.132 216.348 308.071C216.623 308.895 212.115 308.861 210.466 308.027ZM189.966 240.639C184.519 239.722 179.824 238.53 171.966 236.068C167.815 234.768 156.09 228.971 151.922 226.158C142.737 219.96 133.94 211.174 127.631 201.899C125.354 198.551 121.966 193.155 121.966 192.876C121.966 192.767 121.157 190.934 120.168 188.801C115.313 178.333 113.556 172.699 111.488 160.966C110.815 157.151 110.814 142.669 111.486 138.02C112.592 130.362 115.639 119.866 119.133 111.674C125.918 95.767 138.377 80.907 153.137 71.118C169.618 60.187 191.098 54.637 211.235 56.109C220.357 56.775 225.018 57.665 233.466 60.355C254.723 67.121 273.075 81.164 282.441 97.829C283.339 99.426 283.918 100.889 283.728 101.078C283.361 101.446 282.833 100.868 276.966 93.688C270.415 85.672 260.45 77.444 250.426 71.776C242.88 67.508 229.574 62.779 222.716 61.927C200.8 59.202 183.782 61.53 166.187 69.659C149.649 77.3 134.888 91.442 126.518 107.663C118.846 122.531 116.009 133.471 115.882 148.678C115.815 156.748 116.069 159.588 117.515 166.924C121.955 189.453 137.31 211.371 158.15 224.929C169.152 232.087 181.528 236.431 196.716 238.467C199.588 238.852 201.267 239.582 200.645 240.176C199.951 240.838 192.949 241.141 189.966 240.639Z" fill="white"/>
</svg>
