<svg width="291" height="338" viewBox="0 0 291 338" fill="none" xmlns="http://www.w3.org/2000/svg">
<path fill-rule="evenodd" clip-rule="evenodd" d="M86.4961 337.221C71.2581 335.599 60.1391 331.737 54.3271 326.048C49.8531 321.668 48.4261 316.549 48.8981 306.562C49.2101 299.946 50.4951 291.815 52.0701 286.494C52.7321 284.259 53.4751 282.946 54.6741 281.892C55.5961 281.082 56.2711 280.346 56.1741 280.257C56.0761 280.169 54.1961 279.195 51.9961 278.094C42.1131 273.147 34.3381 267.478 26.6961 259.648C20.5571 253.36 17.8241 249.907 14.4631 244.196C9.04109 234.984 6.24609 227.327 6.24609 221.689C6.24609 217.777 7.22309 216.088 9.13409 216.695C10.2771 217.057 10.8691 218.266 12.8221 224.23C14.3951 229.034 18.5031 237.212 21.6881 241.882C25.5281 247.511 32.1511 254.82 37.8591 259.73C48.4721 268.859 60.8131 274.86 76.7461 278.641C85.2361 280.655 91.4021 281.148 104.701 280.874C116.66 280.627 117.746 280.748 117.746 282.32C117.746 283.319 114.339 284.762 110.496 285.389C108.571 285.703 106.209 286.104 105.246 286.28C104.283 286.456 99.2841 286.699 94.1351 286.82C83.3891 287.073 77.0871 286.301 65.9961 283.373C62.4581 282.439 60.5111 281.783 59.8591 281.304C58.8401 280.557 58.5091 281.345 58.4581 284.642C58.4321 286.34 58.1361 289.755 57.8011 292.23C57.4661 294.705 57.0731 301.005 56.9261 306.23C56.7041 314.181 56.7891 316.031 57.4471 317.575C59.5261 322.449 69.3881 326.523 83.9961 328.543C89.6431 329.324 110.829 329.303 117.26 328.51C128.363 327.14 141.626 324.186 146.653 321.962C147.874 321.422 149.085 320.98 149.343 320.98C150.401 320.98 160.696 315.552 163.326 313.607C164.882 312.457 168.03 309.593 170.32 307.243C174.774 302.675 175.652 302.127 177.193 302.952C178.73 303.774 178.864 305.127 177.713 308.205C175.644 313.733 166.648 321.636 156.977 326.419C139.326 335.15 109.699 339.69 86.4961 337.221ZM182.357 305.202C180.986 304.241 180.959 303.479 182.24 301.851C183.726 299.962 190.049 296.968 197.888 294.443C199.479 293.93 201.504 293.19 202.388 292.799C203.272 292.407 207.258 290.806 211.246 289.24C219.955 285.82 221.491 284.93 222.202 282.892C222.571 281.832 222.746 271.439 222.746 250.517C222.746 223.437 222.84 219.568 223.524 218.591C224.478 217.229 225.323 217.184 226.454 218.433C228.4 220.583 229.415 228.168 230.276 246.98C230.874 260.065 230.283 281.255 229.206 285.293C228.456 288.106 224.962 291.416 220.066 293.953C216.222 295.945 203.217 300.569 199.746 301.178C198.783 301.347 197.321 301.838 196.496 302.27C195.671 302.701 193.871 303.364 192.496 303.743C191.121 304.122 188.758 304.778 187.246 305.2C183.83 306.154 183.717 306.154 182.357 305.202ZM174.589 298.855C173.554 298.093 172.494 292.82 171.534 283.671C170.952 278.119 170.946 276.267 171.494 272.38C172.574 264.724 173.552 261.98 175.198 261.98C177.096 261.98 177.453 263.258 177.342 269.653C177.284 272.995 177.53 278.469 177.889 281.817C178.663 289.042 178.179 297.173 176.891 298.596C175.94 299.647 175.701 299.674 174.589 298.855ZM138.422 277.718C137.889 276.329 138.745 275.509 143.199 273.137C153.337 267.739 164.772 258.647 170.797 251.194C176.834 243.726 182.858 233.349 185.724 225.48C187.079 221.762 187.691 219.636 189.744 211.53C190.587 208.201 193.18 207.08 194.09 209.651C194.86 211.829 194.286 219.525 192.99 224.396C190.784 232.682 185.708 243.627 181.009 250.23C177.386 255.32 169.097 263.708 164.246 267.193C157.245 272.223 146.267 277.466 141.118 278.238C139.131 278.536 138.705 278.454 138.422 277.718ZM72.9961 232.421C54.2881 231.014 39.5681 228.187 28.9961 223.972C14.2441 218.09 5.56309 211.606 1.60209 203.512C0.119087 200.481 -0.00390985 199.848 9.01548e-05 195.23C0.00309015 190.622 0.12009 190.016 1.50009 187.5C4.19709 182.58 10.4191 177.243 18.2461 173.136C28.8021 167.596 39.7231 163.978 55.4961 160.793C62.0961 159.46 64.2931 159.08 68.7461 158.501C71.0841 158.197 74.5711 157.742 76.4961 157.491C82.4971 156.707 89.6911 156.339 97.8801 156.396L105.764 156.451L103.38 154.051C99.5381 150.184 95.3991 140.948 92.8181 130.48C90.9611 122.95 90.1991 117.424 89.7481 108.23C88.4511 81.7431 96.0621 53.2311 110.038 32.2221C119.898 17.3991 131.343 8.28211 146.66 3.04911C154.075 0.515107 165.591 -0.723894 170.9 0.440106C172.053 0.693106 174.346 1.16011 175.996 1.47811C193.068 4.77311 208.997 18.0441 217.809 36.3121C221.769 44.5221 225.219 55.9041 226.954 66.4801C227.735 71.2441 228.734 84.4291 228.734 89.9801C228.734 102.391 226.32 119.966 223.181 130.414C221.054 137.489 216.498 148.696 213.855 153.353C210.448 159.355 205.193 166.458 201.836 169.597C198.238 172.963 191.907 176.98 190.201 176.98C188.885 176.98 186.746 175.367 186.746 174.374C186.746 174.144 189.752 170.981 193.426 167.343C202.667 158.194 206.86 151.701 212.317 138.086C215.493 130.161 218.821 116.729 219.713 108.23C220.002 105.48 220.465 101.054 220.742 98.3951C221.669 89.5001 221.172 79.3661 219.23 67.5881C215.369 44.1661 204.95 25.3931 190.746 16.2661C180.259 9.52811 168.487 6.76111 157.787 8.52111C153.224 9.27211 145.086 11.8131 141.496 13.6081C126.777 20.9671 114.501 35.9801 106.234 56.7301C100.886 70.1541 97.9131 84.6251 97.4071 99.6931C96.8281 116.978 100.308 133.678 107.345 147.376C108.941 150.481 110.246 153.337 110.246 153.723C110.246 154.108 109.571 154.822 108.746 155.31C107.921 155.797 107.246 156.372 107.246 156.588C107.246 156.804 108.618 156.98 110.296 156.98C113.098 156.98 113.484 157.118 115.046 158.68C118.348 161.982 117.527 162.296 104.496 162.716C88.3571 163.237 77.3121 164.36 62.8881 166.947C57.5171 167.91 41.2921 172.18 35.7461 174.09C21.0821 179.139 10.5001 185.895 7.97409 191.821C5.75709 197.022 9.21309 204.226 16.1761 208.917C21.3121 212.378 30.7111 216.803 35.4961 218.014C36.3211 218.223 38.2331 218.722 39.7461 219.123C54.7461 223.101 70.0451 224.984 87.3441 224.981C102.789 224.979 117.964 223.507 132.246 220.625C141.923 218.672 145.031 217.976 149.496 216.759C153.288 215.726 163.974 212.154 166.121 211.201C167.676 210.511 170.362 209.355 172.496 208.457C173.046 208.226 174.475 207.888 175.671 207.706C177.719 207.395 177.827 207.437 177.513 208.428C177.228 209.325 177.383 209.48 178.568 209.48C179.614 209.48 180.625 208.768 182.654 206.605C187.312 201.639 187.896 200.685 188.028 197.827C188.094 196.398 188.305 194.514 188.498 193.64C189.194 190.489 187.525 187.166 182.919 182.531C180.624 180.222 178.746 178.14 178.746 177.906C178.746 177.672 178.274 177.48 177.697 177.48C176.064 177.48 173.256 175.96 172.359 174.591C171.586 173.411 171.603 173.305 172.725 172.397C174.768 170.742 180.234 172.079 180.975 174.414C181.163 175.006 181.922 175.496 182.953 175.689C185.3 176.129 190.233 179.439 192.15 181.859C196.275 187.068 197.473 193.311 195.293 198.241C191.699 206.364 186.578 210.327 170.246 217.62C165.695 219.653 157.279 222.676 152.496 223.997C148.807 225.015 142.824 226.544 140.996 226.934C133.078 228.627 130.933 229.043 126.496 229.752C108.312 232.655 88.9491 233.621 72.9961 232.421ZM220.579 215.647C220.396 215.463 220.246 214.582 220.246 213.689C220.246 212.121 221.076 210.73 227.162 202.094C229.451 198.844 230.585 196.119 231.418 191.857C231.808 189.862 232.291 187.836 232.49 187.355C232.815 186.571 232.492 186.48 229.377 186.48C226.644 186.48 225.724 186.284 225.073 185.566C223.142 183.431 224.508 181.4 228.496 180.476C229.871 180.157 231.446 179.699 231.996 179.457C232.546 179.216 235.471 178.205 238.496 177.211C241.521 176.218 244.671 175.11 245.496 174.751C246.321 174.391 247.784 173.806 248.746 173.45C249.708 173.094 251.621 172.302 252.996 171.689C254.371 171.077 257.485 169.776 259.917 168.799C265.628 166.503 268.417 164.846 269.94 162.844C274.141 157.32 276.382 144.938 278.24 116.98C278.524 112.718 278.873 107.542 279.017 105.48C279.16 103.418 279.605 95.9681 280.005 88.9251C281.064 70.2501 281.866 65.9801 284.311 65.9801C284.846 65.9801 285.693 66.6901 286.251 67.6051C287.168 69.1091 287.242 70.1501 287.244 81.5901C287.249 111.06 284.834 142.941 281.666 155.23C280.269 160.648 277.231 166.877 274.798 169.31C272.48 171.629 263.204 176.419 256.746 178.633C255.508 179.057 251.909 180.341 248.746 181.487C245.583 182.633 241.871 183.842 240.496 184.174C238.46 184.666 238.023 184.959 238.142 185.754C238.789 190.088 238.809 191.412 238.265 193.897C237.4 197.844 236.148 200.899 234.052 204.176C231.352 208.397 226.213 214.471 224.665 215.272C223.222 216.018 221.141 216.209 220.579 215.647ZM74.9961 210.435C63.6811 209.263 56.8841 207.995 50.4961 205.867C46.1551 204.42 41.5841 202.183 40.4821 200.964C39.2331 199.584 38.6341 194.25 39.5301 192.48C40.4091 190.743 44.1351 187.756 47.8621 185.802C58.7961 180.068 71.8041 177.088 93.0501 175.449C103.407 174.651 114.599 175.553 127.867 178.256C141.117 180.956 149.026 184.882 151.685 190.081C153.214 193.071 152.854 194.589 149.982 197.266C141.438 205.231 114.552 211.101 87.4961 210.909C82.8211 210.876 77.1961 210.663 74.9961 210.435ZM109.496 202.254C122.035 200.63 128.117 199.299 138.246 195.964C143.909 194.098 147.246 192.566 147.245 191.832C147.243 191.176 140.076 188.006 134.496 186.193C123.482 182.615 104.143 180.696 91.4961 181.926C84.7801 182.58 73.4171 184.232 70.7461 184.944C69.7831 185.201 67.1961 185.896 64.9961 186.489C62.7961 187.083 60.0961 187.741 58.9961 187.952C54.1281 188.887 42.8131 194.874 43.5771 196.11C43.9521 196.718 47.9331 198.495 50.2461 199.088C51.2091 199.335 52.7831 199.748 53.7461 200.007C58.9781 201.413 65.2601 202.303 76.2461 203.194C81.4631 203.618 103.857 202.984 109.496 202.254ZM215.996 186.166C211.069 185.191 208.92 184.675 205.246 183.588C202.908 182.897 200.602 181.992 200.121 181.578C198.94 180.561 199.018 178.708 200.295 177.431C201.536 176.19 202.899 176.305 210.267 178.273C212.868 178.968 215.784 179.709 216.746 179.92C220.384 180.72 221.976 182.307 221.2 184.362C220.965 184.985 220.19 185.716 219.477 185.987C218.152 186.491 217.744 186.512 215.996 186.166ZM152.496 170.206C148.379 168.964 144.457 168.047 137.496 166.698C135.296 166.272 132.553 165.711 131.4 165.452C130.247 165.192 128.516 164.98 127.554 164.98C126.592 164.98 125.686 164.788 125.541 164.553C125.396 164.319 124.055 163.742 122.561 163.272C119.152 162.2 117.934 160.998 118.737 159.498C120.117 156.919 126.024 156.746 137.746 158.942C143.749 160.067 152.859 162.087 155.996 162.988C157.096 163.305 159.008 163.744 160.246 163.965C163.219 164.496 168.088 165.861 169.275 166.496C172.041 167.976 171.074 170.992 167.843 170.964C166.827 170.955 165.559 170.618 165.025 170.214C163.62 169.151 161.375 169.287 160.63 170.48C159.797 171.814 157.581 171.739 152.496 170.206ZM226.075 170.067C225.327 169.24 225.318 168.92 225.979 166.692C228.008 159.858 230.401 147.163 231.722 136.23C232.684 128.273 233.028 124.279 234.483 104.23C236.305 79.1131 236.635 76.9801 238.703 76.9801C240.877 76.9801 241 78.1391 240.927 97.8561C240.889 108.101 240.604 118.788 240.293 121.606C238.607 136.908 238.27 139.233 236.401 148.48C235.163 154.607 232.214 165.128 231.158 167.188C230.394 168.679 228.162 170.98 227.48 170.98C227.162 170.98 226.529 170.569 226.075 170.067ZM235.933 69.8481C232.257 68.5061 231.246 67.7261 231.246 66.2301C231.246 63.8061 232.39 63.6291 239.102 65.0101C241.794 65.5641 242.459 65.5431 244.102 64.8521C245.144 64.4131 246.784 63.9271 247.746 63.7711C248.708 63.6151 250.508 63.2491 251.746 62.9571C252.984 62.6641 254.896 62.2391 255.996 62.0111C269.904 59.1281 274.275 58.1561 278.697 56.9631L282.699 55.8831L283.021 53.7381C283.359 51.4831 282.16 47.8281 280.702 46.6681C279.553 45.7541 274.409 44.1501 267.996 42.7071C259.713 40.8441 259.442 40.7851 250.996 39.0421C246.871 38.1911 241.359 37.0301 238.746 36.4631C236.133 35.8971 232.984 35.2241 231.746 34.9691C221.793 32.9171 218.996 31.6491 218.996 29.1911C218.996 26.2931 221.776 26.0781 233.996 28.0311C241.753 29.2701 258.016 32.3201 263.121 33.4921C264.29 33.7601 266.202 34.1891 267.371 34.4451C274.138 35.9261 280.116 37.6731 282.45 38.8521C285.304 40.2951 288.671 43.9711 289.73 46.8021C291.073 50.3931 291.093 55.9171 289.773 58.8261C288.603 61.4021 286.683 62.4601 280.496 63.9341C278.021 64.5241 275.208 65.2091 274.246 65.4561C273.284 65.7031 271.258 66.1501 269.746 66.4481C268.234 66.7471 264.071 67.5831 260.496 68.3071C251.663 70.0941 249.277 70.4381 243.746 70.7221C239.683 70.9311 238.553 70.8041 235.933 69.8481Z" fill="white"/>
</svg>
