<svg width="96" height="130" viewBox="0 0 96 130" fill="none" xmlns="http://www.w3.org/2000/svg">
<path fill-rule="evenodd" clip-rule="evenodd" d="M40.8213 128.982C30.5923 128.118 20.7713 125.764 15.5713 122.931C11.8823 120.92 11.6373 120.515 11.1063 115.563C10.8413 113.091 10.1503 106.794 9.57129 101.569C8.22129 89.3848 7.76528 85.1338 6.59228 73.8188C6.06528 68.7318 5.18229 60.5188 4.63029 55.5688C2.53629 36.7808 2.09429 32.3418 1.53929 24.5688C1.22529 20.1688 0.695281 14.8168 0.361281 12.6748C-0.134719 9.49582 -0.123719 8.60681 0.417281 7.83381C1.19728 6.71881 5.99428 4.8188 8.02728 4.8188C8.80728 4.8188 10.4303 4.47183 11.6333 4.04683C20.6053 0.879826 39.5393 -0.677201 57.4483 0.279799C72.0093 1.0568 77.6853 1.86078 87.0713 4.47578C95.4033 6.79678 95.8193 7.2578 95.1283 13.4178C94.8413 15.9758 94.3643 20.6558 94.0693 23.8188C93.7733 26.9818 93.3273 31.2568 93.0783 33.3188C92.8293 35.3808 92.3863 39.6558 92.0943 42.8188C91.8023 45.9818 91.2143 51.7188 90.7883 55.5688C90.3623 59.4188 89.8163 64.8188 89.5753 67.5688C89.3333 70.3188 88.7853 75.7188 88.3563 79.5688C87.9283 83.4188 87.3403 88.8188 87.0513 91.5688C86.7623 94.3188 86.3083 98.5938 86.0433 101.069C84.9393 111.356 84.5813 114.716 84.2993 117.435C83.9773 120.539 83.5063 121.084 79.3213 123.2C76.7173 124.517 70.0233 126.756 66.8333 127.377C60.0053 128.707 47.0383 129.507 40.8213 128.982ZM62.5713 124.539C70.3193 123.227 74.2653 122.11 78.0553 120.157C80.8623 118.71 80.5183 120.206 82.5673 100.569C83.2823 93.7258 84.0103 87.0288 84.5513 82.3188C84.8203 79.9818 85.2833 75.5938 85.5803 72.5688C86.6793 61.3738 87.8493 50.2008 88.5653 44.0688C88.8533 41.5938 89.3023 37.2068 89.5623 34.3188C89.8223 31.4308 90.3763 26.2568 90.7933 22.8188C91.2103 19.3808 91.5563 15.7148 91.5613 14.6708L91.5713 12.7738L89.8213 13.1018C88.7323 13.3058 88.0713 13.2338 88.0713 12.9098C88.0713 12.1718 89.3953 10.9418 90.6023 10.5588C91.1763 10.3768 91.5603 9.88778 91.4743 9.44978C91.1033 7.54978 86.6703 6.37981 70.8213 3.99781C65.9743 3.26981 61.6513 3.09477 48.3213 3.09077C31.3433 3.08577 26.5993 3.43481 12.1733 5.75081C6.83229 6.60881 3.91328 7.7808 3.91328 9.0688C3.91328 10.9158 9.47429 12.3748 24.3213 14.4228C31.1643 15.3658 34.4553 15.5198 47.0713 15.4848C61.5253 15.4448 67.3643 14.9978 81.7303 12.8338C83.8373 12.5168 85.0613 12.5728 86.1683 13.0388C87.8953 13.7648 87.7963 13.8698 84.3213 14.9948C76.3323 17.5808 58.9193 19.1068 42.5713 18.6528C25.7653 18.1868 15.8043 16.9118 7.70228 14.1908C5.16228 13.3378 2.94529 12.7778 2.77629 12.9478C2.60629 13.1168 3.03229 16.7008 3.72229 20.9118C5.05329 29.0388 5.44528 32.1898 7.09828 48.0688C7.67028 53.5688 8.47229 60.7688 8.87929 64.0688C9.62829 70.1368 9.94529 73.0128 11.3563 86.5688C11.7853 90.6938 12.3403 95.6438 12.5903 97.5688C12.8393 99.4938 13.4083 104.332 13.8523 108.319C14.2973 112.306 14.7383 116.131 14.8313 116.819C14.9253 117.507 15.0183 118.229 15.0373 118.425C15.1073 119.157 22.5583 122.349 26.3693 123.281C29.9263 124.151 35.8563 124.996 42.0713 125.519C46.0903 125.857 58.2133 125.277 62.5713 124.539ZM33.5713 120.81C32.6083 120.587 30.0213 120.036 27.8213 119.587C23.8703 118.78 21.5713 117.758 21.5713 116.807C21.5713 116.074 22.9093 116.214 26.0203 117.273C29.5123 118.461 33.1763 119.181 38.2823 119.681C40.7093 119.919 42.3223 120.311 42.4493 120.694C42.6873 121.417 36.5353 121.497 33.5713 120.81ZM19.5583 115.553C19.0333 114.921 19.0873 114.658 19.8723 114.042C22.9293 111.64 28.9943 109.98 29.8213 111.319C30.3163 112.121 29.5253 112.58 25.4823 113.84C23.6453 114.412 21.8743 115.204 21.5463 115.6C20.7853 116.517 20.3493 116.506 19.5583 115.553ZM74.4463 114.779C73.2173 114.063 73.3583 113.319 74.7213 113.319C75.8583 113.319 77.0713 114.145 77.0713 114.919C77.0713 115.476 75.4983 115.392 74.4463 114.779ZM35.3833 110.92C34.8203 110.009 36.0233 109.399 39.4173 108.875C43.2133 108.288 50.8233 108.221 53.2803 108.753C55.4393 109.221 55.4143 110.177 53.2273 110.784C51.0183 111.397 35.7503 111.514 35.3833 110.92ZM17.3503 107.194C16.5593 104.592 16.3683 103.147 14.5863 86.3188C14.0473 81.2318 13.2733 75.6068 12.8663 73.8188C12.4603 72.0308 11.7743 67.0818 11.3443 62.8188C10.1933 51.4258 10.3063 49.3188 12.0703 49.3188C13.1743 49.3188 13.4533 50.3728 14.0973 56.9588C14.3713 59.7688 14.8093 64.2068 15.0713 66.8188C15.3323 69.4308 15.5543 73.2568 15.5653 75.3188C15.5763 77.3808 15.8963 79.9688 16.2743 81.0688C16.6533 82.1688 17.2263 85.8808 17.5473 89.3188C17.8683 92.7568 18.4643 97.8188 18.8723 100.569C19.2803 103.319 19.4873 106.075 19.3323 106.694C19.0343 107.893 17.6673 108.238 17.3503 107.194ZM78.5713 92.0988C78.5713 89.0448 79.1063 87.6618 79.8323 88.8378C80.2923 89.5818 79.5753 95.3188 79.0223 95.3188C78.7743 95.3188 78.5713 93.8698 78.5713 92.0988ZM79.4833 84.3048C79.3893 84.0218 79.4263 82.5028 79.5663 80.9298C79.7533 78.8328 80.0213 78.0688 80.5713 78.0688C81.3653 78.0688 81.3923 78.5138 80.8423 82.4438C80.5353 84.6418 79.8903 85.5248 79.4833 84.3048ZM80.2363 73.0268C79.9263 72.2198 80.1093 69.6748 81.5523 54.6658C81.9633 50.3968 82.6153 49.1398 83.7943 50.3398C84.4153 50.9728 84.3823 52.3248 83.5453 60.5688C82.4303 71.5558 82.2563 72.5428 81.2953 73.3408C80.7293 73.8098 80.5113 73.7458 80.2363 73.0268ZM38.5713 51.5288C37.8833 51.4088 35.6903 51.0438 33.6963 50.7158C31.7023 50.3878 30.0713 49.9398 30.0713 49.7188C30.0713 49.4988 34.9323 49.3188 40.8733 49.3188C53.7963 49.3188 64.7053 48.5758 70.7583 47.2838C73.1983 46.7628 75.3923 46.4588 75.6343 46.6078C75.8753 46.7568 77.9883 46.2688 80.3293 45.5228C84.9153 44.0628 86.1583 44.2398 83.9123 46.0348C82.6503 47.0428 76.4953 48.8248 67.3213 50.8358C64.8583 51.3758 41.0043 51.9508 38.5713 51.5288ZM18.8213 48.4788C13.6213 47.3148 9.54929 45.0678 10.3363 43.7958C10.4583 43.5968 12.6423 44.2668 15.1903 45.2828C17.7373 46.2998 20.2653 47.2988 20.8073 47.5018C21.6343 47.8128 21.6743 47.9478 21.0573 48.3378C20.6523 48.5938 20.2083 48.7808 20.0713 48.7528C19.9343 48.7258 19.3713 48.6018 18.8213 48.4788ZM10.1623 41.4438C10.4083 40.1388 15.7183 37.5388 20.0293 36.6128C31.3253 34.1858 44.2643 33.1138 53.9513 33.8018C68.2623 34.8188 78.9063 36.9388 83.1533 39.6208C85.0593 40.8238 85.6433 41.8188 84.4443 41.8188C84.1003 41.8188 82.2443 41.3688 80.3193 40.8178C76.2353 39.6498 72.5113 38.9528 68.3213 38.5718C66.6713 38.4218 64.5343 38.0368 63.5713 37.7158C61.0213 36.8658 35.6173 36.8778 29.8213 37.7318C20.8783 39.0488 12.9983 40.8748 11.8463 41.8968C11.0173 42.6328 9.99129 42.3558 10.1623 41.4438ZM9.8913 33.9718C9.7153 33.7958 9.5713 32.7338 9.5723 31.6108C9.5723 30.4878 9.31229 27.7028 8.99329 25.4228C8.59129 22.5468 8.57329 21.1168 8.93529 20.7548C9.43229 20.2578 9.88129 22.7478 10.8103 31.1568C11.0733 33.5368 10.6753 34.7558 9.8913 33.9718Z" fill="white"/>
</svg>
