<svg width="321" height="342" viewBox="0 0 321 342" fill="none" xmlns="http://www.w3.org/2000/svg">
<path fill-rule="evenodd" clip-rule="evenodd" d="M91.8282 341.081C83.3782 339.508 77.1612 333.995 74.3182 325.556C73.3622 322.715 73.2542 321.551 73.4612 316.306C73.8022 307.672 75.0802 304.147 81.0222 295.444C83.8112 291.359 88.6842 282.608 93.7432 272.6C95.5502 269.026 96.4162 268.495 98.0032 269.985C98.6762 270.618 99.3562 270.915 99.5212 270.648C99.6852 270.383 102.802 269.459 106.449 268.596C124.112 264.413 132.997 260.213 137.909 253.724C140.582 250.194 142.328 244.825 142.328 240.139C142.328 238.176 142.602 237.429 143.828 236.056C144.654 235.131 145.599 233.628 145.929 232.716C147.347 228.792 148.065 232.26 147.694 241.249C147.385 248.744 146.619 251.214 143.005 256.377C139.132 261.908 134.397 265.34 126.042 268.673C118.771 271.573 109.394 273.771 102.647 274.157C101.584 274.218 100.608 274.547 100.477 274.889C100.346 275.23 100.715 276.783 101.298 278.339C102.111 280.513 102.223 281.33 101.781 281.863C101.464 282.244 101.038 282.556 100.833 282.556C100.309 282.556 97.7552 278.606 97.3852 277.224C96.8642 275.275 96.1242 275.817 94.9932 278.978C93.5192 283.094 89.8452 290.349 87.4392 293.893C84.6532 297.998 79.5632 308.767 78.8162 312.14C77.0072 320.306 80.2872 329.344 86.4702 333.229C89.8622 335.361 92.3892 336.056 96.7422 336.056C105.338 336.056 111.162 331.148 113.65 321.809C115.374 315.335 113.305 307.247 107.115 296.26C104.431 291.495 103.769 289.556 104.828 289.556C105.103 289.556 105.328 288.966 105.328 288.245C105.328 287.105 105.432 287.019 106.12 287.591C107.444 288.689 115.393 301.104 116.823 304.306C118.852 308.85 119.44 312.187 119.2 317.806C118.842 326.193 117.16 330.252 112.102 334.936C106.538 340.088 98.9122 342.4 91.8282 341.081ZM98.5482 329.846C97.3622 328.979 97.9332 327.671 99.6822 327.248C101.919 326.707 103.533 325.307 104.977 322.652C106.521 319.817 107.383 314.738 106.769 312.098C106.17 309.524 106.234 308.556 107.002 308.556C108.329 308.556 109.564 312.509 109.571 316.775C109.583 323.981 107.174 327.548 100.613 330.043C99.8062 330.35 99.1522 330.287 98.5482 329.846ZM54.8282 276.283C51.1152 275.925 46.7842 275.39 45.2032 275.094C43.6222 274.798 41.1472 274.336 39.7032 274.067C34.4422 273.088 28.4402 271.325 22.6392 269.054C10.0362 264.121 3.30419 257.887 0.774188 248.806C-0.245812 245.144 -0.263813 105.195 0.755187 101.056C3.90819 88.2459 10.0062 80.7089 22.1182 74.6509C24.3392 73.5399 28.1482 71.8279 30.5822 70.8459C34.9312 69.0929 37.3282 67.4699 37.3282 66.2779C37.3282 65.9459 36.5142 65.0539 35.5192 64.2949C32.7382 62.1739 31.6372 59.1779 31.9782 54.6639C32.3362 49.9349 33.7992 47.6329 37.6422 45.7529L40.3282 44.4389L40.3362 41.1219C40.3402 39.2979 40.5452 37.4869 40.7922 37.0969C41.1062 36.6009 40.7652 35.7969 39.6592 34.4199C37.5832 31.8359 37.5262 28.7629 39.4912 25.4099C40.7112 23.3269 40.8472 22.5799 40.9762 17.2119C41.0822 12.8409 41.3382 10.8949 41.9632 9.72594C43.4222 6.99594 47.6772 4.01894 51.5702 3.00494C52.4002 2.78894 53.9782 2.36994 55.0782 2.07394C62.2042 0.15694 79.1572 -0.640062 86.7872 0.583938C99.1542 2.56694 105.992 5.89694 107.338 10.5899C107.607 11.5299 107.828 14.6159 107.828 17.4479C107.828 21.8699 107.974 22.7939 108.862 23.9959C111.064 26.9739 111.123 30.9429 109.013 34.0909C107.961 35.6609 107.886 36.0719 108.388 37.5119C108.707 38.4289 108.836 40.3349 108.68 41.8449L108.402 44.5419L110.495 45.4679C113.428 46.7649 115.555 49.0739 116.511 51.9969C117.578 55.2589 117.542 56.4459 116.274 59.8359C115.456 62.0219 114.728 62.9989 113.024 64.2009C111.816 65.0519 110.828 65.9469 110.828 66.1909C110.828 67.3029 113.928 69.5099 117.578 70.9959C124.018 73.6179 129.819 76.6239 132.88 78.9249C139.138 83.6289 143.758 90.0109 146.188 97.3059L147.52 101.306L147.799 129.056C147.952 144.318 147.935 162.994 147.761 170.556C147.587 178.118 147.499 184.368 147.566 184.444C147.633 184.52 148.563 183.775 149.633 182.789C152.616 180.039 162.935 171.766 164.213 171.101C164.838 170.776 165.571 170.647 165.843 170.816C166.218 171.047 174.345 164.757 175.828 163.087C175.965 162.933 177.141 161.952 178.441 160.908C179.74 159.864 181.09 158.735 181.441 158.4C181.791 158.066 183.09 157.016 184.328 156.068C185.566 155.119 186.916 153.919 187.328 153.401C190.68 149.187 194.278 145.283 197.066 142.836C200.053 140.213 200.3 139.854 199.628 139.111C198.651 138.031 194.651 129.359 193.954 126.806C192.543 121.645 192.328 120.544 192.331 118.498C192.336 114.245 193.543 111.042 196.512 107.399C198.632 104.799 210.012 95.4819 218.078 89.7429C222.357 86.6979 223.546 86.1019 226.328 85.6039C228.629 85.1909 230.088 85.1719 231.325 85.5389C232.285 85.8229 233.748 86.0609 234.575 86.0679C235.402 86.0739 237.428 86.6579 239.078 87.3649C244.198 89.5579 243.511 89.8039 251.362 82.9819C255.271 79.5849 259.282 76.1369 260.274 75.3199C261.266 74.5029 265.116 71.2329 268.828 68.0539C280.561 58.0079 282.15 56.9279 288.078 54.9809C292.768 53.4399 301.24 53.4159 305.148 54.9319C311.247 57.2989 316.174 61.7899 318.959 67.5209C320.48 70.6509 320.556 71.0899 320.567 76.8059C320.577 82.0169 320.418 83.1999 319.364 85.8059C316.794 92.1589 311.823 98.2279 304.328 104.164C302.266 105.798 296.555 110.773 291.637 115.22C286.72 119.667 281.601 124.16 280.262 125.204C278.923 126.248 277.828 127.277 277.828 127.491C277.828 127.705 278.39 129.535 279.078 131.556C281.1 137.501 280.698 145.221 278.085 150.61C277.158 152.522 264.791 164.29 256.069 171.559C249.446 177.079 246.16 178.045 239.727 176.363C233.488 174.732 228.033 171.813 223.081 167.454C220.17 164.892 221.027 164.458 210.535 173.806C197.957 185.012 180.731 199.877 161.619 216.02C156.921 219.987 150.49 225.5 147.328 228.272C131.465 242.171 129.941 243.166 121.984 244.81C118.908 245.445 117.669 245.986 115.924 247.457C111.241 251.404 110.793 251.424 112.054 247.627C113.103 244.469 116.353 241.349 119.404 240.571C128.763 238.183 130.746 236.942 143.078 225.753C145.553 223.508 149.855 219.788 152.637 217.488C155.42 215.188 160.382 210.943 163.665 208.056C171.471 201.189 185.251 189.335 189.203 186.088C190.922 184.675 192.328 183.283 192.328 182.994C192.328 182.155 188.334 183.005 186.02 184.336C183.95 185.527 181.86 187.266 168.077 199.272C158.534 207.584 152.202 212.966 150.093 214.556C149.182 215.244 146.72 217.23 144.624 218.97C142.527 220.71 140.554 222.048 140.24 221.943C139.926 221.839 141.663 220.077 144.102 218.029C146.54 215.982 150.57 212.356 153.058 209.973C155.546 207.589 158.509 204.889 159.641 203.973C163.189 201.101 175.952 190.03 178.794 187.359L181.51 184.806L172.271 184.478C163.376 184.161 159.206 183.573 158.57 182.542C158.404 182.275 158.077 182.056 157.843 182.056C157.308 182.056 152.197 186.27 144.5 193.056C141.226 195.943 134.504 201.793 129.562 206.055C114.092 219.398 113.327 220.277 110.589 227.825C108.998 232.211 108.116 233.469 105.914 234.495C103.239 235.74 93.3652 245.499 93.2062 247.054C93.1082 248.011 93.3372 248.34 94.1852 248.462C95.5272 248.655 100.328 252.867 100.328 253.852C100.328 255.192 98.2812 254.548 96.2082 252.556C93.3152 249.776 92.4862 249.978 94.0862 253.072C95.0982 255.028 97.2352 256.056 100.288 256.056C102.62 256.056 103.884 255.591 107.237 253.497C110.07 251.728 108.436 254.987 104.879 258.201C102.63 260.232 100.405 260.831 97.0002 260.32C93.8692 259.851 89.8412 255.946 88.8602 252.431C87.4582 247.404 88.9772 243.195 93.5182 239.521C97.2212 236.524 99.1742 235.556 101.517 235.556C103.799 235.556 104.687 234.277 105.376 230C105.657 228.254 106.53 225.294 107.316 223.424C110.202 216.555 111.004 215.68 126.049 202.985C128.54 200.883 133.247 196.833 136.509 193.985L142.44 188.806L142.365 147.709C142.286 103.952 142.22 102.632 139.812 96.5079C137.606 90.8989 133.845 86.4619 127.873 82.4229C124.037 79.8289 116.367 75.8569 112.175 74.2939C109.79 73.4059 106.328 70.1019 106.328 68.7159C106.328 67.8199 106.12 67.8489 100.763 69.4949C93.4422 71.7419 91.7562 72.0439 83.2922 72.6189C76.6152 73.0729 74.5002 73.0329 69.9212 72.3639C63.1582 71.3749 59.2322 70.1709 59.4322 69.1469C59.5562 68.5149 61.4302 68.3889 71.8282 68.3139C89.0902 68.1889 97.4842 66.7689 106.736 62.4079C110.676 60.5509 111.541 59.2989 111.562 55.4219C111.577 52.5729 111.493 52.3709 109.623 50.7529L107.669 49.0619L106.01 50.9999C105.097 52.0659 103.451 53.2979 102.351 53.7389C97.7812 55.5669 87.3282 57.0419 87.3282 55.8589C87.3282 55.2479 90.0232 54.0559 91.4062 54.0559C92.3502 54.0559 98.2732 52.2059 99.4462 51.5449C99.9242 51.2759 100.62 51.0559 100.994 51.0559C102.337 51.0559 103.24 49.2819 103.538 46.0559C103.93 41.8259 103.958 39.5189 103.62 39.1809C103.47 39.0309 101.149 39.6059 98.4632 40.4579C95.7762 41.3099 92.6782 42.2269 91.5782 42.4949C88.6652 43.2059 84.3682 43.3909 84.3052 42.8079C84.2752 42.5349 86.0122 41.7309 88.1642 41.0229C93.5772 39.2429 93.5242 39.2649 98.6892 36.7879C102.387 35.0139 103.567 34.1739 104.646 32.5429C106.117 30.3199 106.153 30.5359 103.565 26.0559C103.035 25.1389 102.841 23.0299 102.835 18.1429C102.828 11.4979 102.824 11.4749 101.413 10.0639C98.3622 7.01294 86.9792 4.65394 75.0782 4.60394C61.4162 4.54794 49.8552 7.07094 46.9702 10.7389C45.7602 12.2779 45.0522 19.1969 45.6932 23.2279C46.0492 25.4669 46.2232 25.6999 47.9902 26.3069C49.0412 26.6679 51.8042 27.2459 54.1292 27.5919C56.7242 27.9779 58.2832 28.4309 58.1652 28.7639C57.8792 29.5789 49.5272 29.1939 46.6142 28.2309C44.1902 27.4299 44.1352 27.4349 43.2392 28.5419C42.0992 29.9499 42.0912 30.6859 43.2042 31.6939C45.6642 33.9199 52.6632 35.0789 64.2032 35.1719C69.2222 35.2119 73.3282 35.3939 73.3282 35.5749C73.3282 36.3429 67.6622 37.6779 62.3282 38.1649C58.1102 38.5509 55.1252 38.5329 51.1262 38.0999C47.9062 37.7509 45.4912 37.6929 45.2262 37.9579C44.9662 38.2179 44.9462 40.8069 45.1772 44.1069L45.5782 49.8059L48.4032 51.1949C49.9562 51.9589 52.9832 53.1059 55.1272 53.7429C60.2912 55.2789 60.7302 56.3139 56.0162 55.8399C47.6022 54.9929 41.3282 52.4889 41.3282 49.9789C41.3282 48.6679 40.6292 48.8319 38.9152 50.5459C37.0132 52.4479 36.3912 56.0419 37.5032 58.7029C38.4492 60.9679 40.5522 62.2869 47.7002 65.0959C50.7922 66.3119 53.3232 67.4559 53.3252 67.6399C53.3272 67.8229 52.2242 68.2099 50.8742 68.4989C48.9672 68.9079 47.7932 68.8619 45.6002 68.2909C41.8882 67.3239 41.9902 67.3009 41.3522 69.2319C41.0482 70.1549 40.2992 71.3699 39.6882 71.9339C38.4462 73.0799 35.0522 75.0559 34.3252 75.0559C33.7832 75.0559 28.4732 77.4369 24.0782 79.6509C16.4572 83.4899 9.81019 90.5149 7.44819 97.2259C5.30619 103.313 5.32819 102.532 5.32819 173.839C5.32819 220.543 5.49819 242.802 5.87019 244.839C6.79019 249.876 8.94519 253.7 12.4772 256.563C18.1792 261.186 26.0472 264.644 37.8282 267.708C47.2202 270.151 55.7902 271.052 72.9952 271.407C88.2142 271.721 88.7642 271.847 86.1682 274.443C85.0392 275.572 84.1612 275.826 79.4732 276.375C72.7402 277.165 63.6082 277.131 54.8282 276.283ZM182.272 180.223C187.643 179.914 188.107 179.801 190.447 178.226C193.459 176.199 193.748 176.146 192.098 177.926C190.25 179.919 190.46 180.556 192.967 180.556C195.563 180.556 195.804 180.395 204.523 172.831C208.343 169.517 212.913 165.638 214.679 164.21C218.659 160.99 229.984 151.299 231.988 149.398L233.471 147.99L231.4 145.879C230.26 144.718 229.327 143.552 229.325 143.287C229.324 143.022 227.525 140.556 225.328 137.806C221.355 132.834 220.683 131.556 222.037 131.556C223.619 131.556 224.586 132.415 228.558 137.353C231.941 141.559 232.771 142.931 233.049 144.784C233.236 146.034 233.603 147.056 233.864 147.056C234.771 147.056 239.31 143.802 239.319 143.146C239.341 141.542 229.054 128.924 225.538 126.242L223.825 124.935L219.054 129.371C216.429 131.81 213.111 134.692 211.68 135.775C210.249 136.858 207.044 139.446 204.558 141.525C202.072 143.605 197.481 147.443 194.357 150.056C191.232 152.669 186.403 156.781 183.627 159.195C170.976 170.192 165.358 175.137 162.578 177.722L159.578 180.511L168.078 180.531C172.753 180.542 179.14 180.404 182.272 180.223ZM246.995 170.957C248.104 170.375 249.328 167.611 249.328 165.687C249.328 162.173 244.786 150.184 242.175 146.806C241.412 145.819 241.382 145.825 239.871 147.269C237.267 149.757 237.355 150.299 240.969 153.99C244.608 157.707 245.07 158.447 245.547 161.329C245.82 162.982 245.679 163.611 244.774 164.761C243.763 166.046 243.465 166.143 241.372 165.865C238.597 165.497 232.505 162.591 230.88 160.861C230.154 160.088 229.823 159.291 230.017 158.784C230.3 158.047 230.53 158.08 232.206 159.095C236.776 161.865 239.245 163.031 241.206 163.344C245.048 163.959 244.579 161.508 239.856 156.296C238.191 154.459 236.828 152.753 236.828 152.506C236.828 151.438 235.347 152.268 232.049 155.185C230.108 156.902 227.524 159.12 226.307 160.114C223.661 162.276 223.722 162.408 228.965 165.862C236.828 171.042 243.329 172.879 246.995 170.957ZM263.735 158.214C274.723 148.225 275.331 147.331 275.323 141.186C275.317 136.859 274.701 134.446 271.995 128.146C265.379 112.742 250.22 97.3789 235.878 91.5429C228.994 88.7409 226.513 89.0879 220.078 93.7499C216.315 96.4749 204.698 105.597 201.828 108.079C200.28 109.418 200.222 109.547 201.328 109.199C202.016 108.983 203.816 108.806 205.328 108.806C216.582 108.806 238.193 128.246 248.026 147.216C251.898 154.686 253.668 160.692 253.206 164.789C253.006 166.563 253.102 167.071 253.614 166.956C253.982 166.874 258.537 162.939 263.735 158.214ZM212.041 129.635C212.924 128.491 212.911 128.397 211.527 125.635C210.3 123.185 210.122 122.293 210.203 118.979C210.265 116.466 210.088 114.987 209.687 114.671C208.376 113.634 203.177 112.056 201.072 112.056C199.121 112.056 198.762 112.234 198.091 113.531C196.378 116.844 197.622 124.372 201.112 131.806C203.849 137.638 203.402 137.491 207.533 133.92C209.515 132.207 211.544 130.279 212.041 129.635ZM217.579 124.931C219.06 123.762 220.285 122.567 220.3 122.275C220.315 121.983 219.639 121.235 218.798 120.613C216.223 118.709 212.95 116.556 212.63 116.556C211.82 116.556 212.444 122.972 213.59 126.431C213.933 127.468 214.757 127.158 217.579 124.931ZM291.828 108.066C309.203 93.0129 311.249 90.8589 313.681 85.0559C314.815 82.3509 315.046 81.0509 315.061 77.3059C315.075 73.4689 314.886 72.4009 313.773 70.0559C308.843 59.6669 297.169 56.1309 286.082 61.6679C282.071 63.6709 281.707 63.9579 263.078 79.8559C255.439 86.3749 249.339 91.2509 248.207 91.7439C247.781 91.9289 247.976 92.3059 248.81 92.9119C256.935 98.8069 262.307 104.006 267.77 111.262C270.875 115.384 271.819 116.773 274.523 121.199L275.374 122.591L280.226 118.253C282.895 115.866 288.116 111.282 291.828 108.066ZM14.8802 236.72C14.4612 235.801 14.2852 232.914 14.3372 227.832C14.3802 223.693 14.1482 209.844 13.8212 197.056C13.1782 171.966 13.4072 122.751 14.1772 120.306C14.4372 119.481 14.9712 118.806 15.3642 118.806C15.9162 118.806 16.1662 120.054 16.4642 124.306C17.0762 133.028 16.6852 237.687 16.0392 237.902C15.7432 238.001 15.2212 237.469 14.8802 236.72ZM60.8282 120.476C52.4912 119.344 37.9392 116.392 36.2032 115.48C34.4362 114.553 35.2462 113.907 37.7032 114.285C45.9362 115.548 65.0592 117.015 73.6032 117.038C87.6572 117.076 104.032 115.186 116.328 112.106C123.298 110.359 129.428 108.324 131.947 106.92C134.584 105.451 134.957 106.326 132.578 108.398C128.851 111.644 119.545 115.438 109.078 117.978C104.924 118.986 104.026 119.126 94.0782 120.325C87.4312 121.125 66.3202 121.221 60.8282 120.476ZM21.8862 111.552C17.5662 109.998 14.3282 107.606 14.3282 105.969C14.3282 105.467 14.4382 105.056 14.5722 105.056C14.9202 105.056 23.3552 109.841 24.7132 110.809C25.3382 111.254 25.7182 111.829 25.5592 112.087C25.1772 112.705 25.0332 112.684 21.8862 111.552ZM127.567 97.7119C124.919 92.1319 116.954 86.5509 105.953 82.5659C102.665 81.3749 102.086 80.5489 103.953 79.7129C105.409 79.0609 110.515 80.6409 116.926 83.7259C122.679 86.4949 127.054 90.3069 128.969 94.2179C130.481 97.3059 130.605 98.0789 129.728 98.9559C128.808 99.8759 128.513 99.7059 127.567 97.7119ZM99.3282 77.6559C99.3282 77.0329 100.458 76.0559 101.178 76.0559C102.098 76.0559 101.987 77.3879 101.037 77.7529C99.9542 78.1679 99.3282 78.1329 99.3282 77.6559ZM63.0782 19.4679C61.9782 19.2139 60.0892 18.7849 58.8812 18.5139C56.1602 17.9039 54.0562 16.4469 53.0292 14.4619C52.2782 13.0089 52.2982 12.8919 53.5132 11.6259C54.2102 10.8999 55.6352 10.0429 56.6792 9.72194C59.4542 8.86794 66.7662 7.82694 67.1672 8.22794C67.8472 8.90894 66.5112 9.51294 62.5782 10.3029C54.4822 11.9279 53.6632 12.6779 58.4322 14.0939C66.5732 16.5099 81.3722 16.4559 90.4532 13.9749C92.9932 13.2819 94.3282 12.6699 94.3282 12.1999C94.3282 10.6909 96.0772 11.8009 96.2332 13.4079C96.3662 14.7819 96.1182 15.1809 94.4422 16.2899C92.0282 17.8869 90.2892 18.4229 84.5782 19.3259C79.5892 20.1149 66.2642 20.2029 63.0782 19.4679ZM198.284 171.638C198.941 170.411 202.906 166.967 203.257 167.318C203.569 167.63 199.936 171.44 198.665 172.133C197.863 172.571 197.817 172.511 198.284 171.638ZM226.216 150.681C225.794 150.2 225.065 149.049 224.596 148.124C223.467 145.897 220.255 142.455 217.244 140.244C214.367 138.133 213.398 136.69 214.558 136.245C217.725 135.029 226.422 142.759 227.759 147.977C228.62 151.334 227.898 152.599 226.216 150.681ZM203.364 125.287C202 121.642 202 118.108 203.364 116.373C203.934 115.649 204.57 115.056 204.776 115.056C204.983 115.056 205.136 116.8 205.115 118.931C205.095 121.062 205.254 123.987 205.47 125.431C206.021 129.118 204.765 129.033 203.364 125.287ZM280.828 109.418C280.828 108.528 287 102.605 293.828 96.9419C300.964 91.0239 304.732 87.0969 306.814 83.4079C308.702 80.0629 309.571 79.7269 309.201 82.4849C308.801 85.4689 307.401 87.9409 304.137 91.4299C301.11 94.6659 282.268 110.056 281.334 110.056C281.056 110.056 280.828 109.769 280.828 109.418Z" fill="white"/>
</svg>
