<svg width="320" height="357" viewBox="0 0 320 357" fill="none" xmlns="http://www.w3.org/2000/svg">
<path fill-rule="evenodd" clip-rule="evenodd" d="M90.7177 355.804C50.2067 354.884 32.8127 354.112 23.2177 352.809C14.2157 351.586 9.55071 348.445 6.37271 341.466C4.88271 338.196 4.93471 338.54 3.25171 320.61C1.89571 306.16 1.28871 280.798 1.18771 234.36C1.13271 209.197 0.837708 183.66 0.532708 177.61C-0.150292 164.083 -0.179292 136.673 0.461708 110.11C0.727708 99.1102 1.17671 78.1852 1.45971 63.6102C2.30771 19.9422 3.31371 13.0582 9.79471 6.52323C12.4027 3.89423 14.7457 2.69323 19.7677 1.41123C23.6537 0.419228 24.6507 0.405227 70.4587 0.712227C100.664 0.914227 131.511 0.799227 157.701 0.386227C188.91 -0.104773 205.11 -0.123773 228.218 0.307227C244.718 0.614227 266.543 0.993227 276.718 1.14923C300.866 1.51923 304.456 2.00123 309.372 5.52723C311.797 7.26623 315.174 12.0002 315.967 14.7722C318.131 22.3342 319.996 66.9142 318.879 84.3602C318.525 89.9002 318.482 105.177 318.749 130.86C319.833 235.068 319.944 300.348 319.059 313.11C317.443 336.402 315.993 342.791 311.201 347.738C308.782 350.236 308.464 350.407 306.414 350.311C305.206 350.255 303.141 350.581 301.826 351.035C300.51 351.489 298.897 351.86 298.241 351.86C297.585 351.86 295.737 352.193 294.133 352.6C290.164 353.607 274.055 354.371 250.968 354.648C240.38 354.776 228.568 355.156 224.718 355.495C217.174 356.158 116.542 356.39 90.7177 355.804ZM210.968 348.867C222.931 348.571 236.318 348.209 240.718 348.063C245.118 347.916 259.068 347.588 271.718 347.333C295.792 346.847 300.391 346.44 304.297 344.447C308.122 342.496 309.982 339.363 311.179 332.86C311.356 331.898 311.817 326.16 312.203 320.11C312.747 311.576 312.848 300.311 312.653 269.86C312.515 248.273 312.336 188.873 312.254 137.86C312.068 20.7542 311.898 16.9972 306.551 11.9852C302.778 8.44823 299.304 8.06623 263.468 7.24523C231.04 6.50323 220.193 6.50923 144.756 7.31723C100.914 7.78623 84.4917 7.78823 71.2807 7.32423C49.7607 6.56923 24.9427 6.94523 20.8467 8.08823C14.9507 9.73323 12.1167 12.6562 10.7647 18.4862C10.3467 20.2892 9.66171 26.6802 9.24371 32.6872C8.82571 38.6952 8.25771 46.5352 7.98171 50.1102C7.70571 53.6852 7.33571 60.9412 7.15971 66.2352C6.79971 77.0822 6.48071 76.3422 10.9837 75.1162C14.2037 74.2392 46.1587 73.4502 86.9677 73.2402L112.218 73.1102L112.037 58.3602C111.878 45.4432 112.523 26.7832 113.242 23.4852C113.377 22.8662 113.816 22.3602 114.218 22.3602C114.62 22.3602 115.056 22.8662 115.187 23.4852C115.991 27.2872 116.566 38.9532 116.73 54.7452L116.918 72.8802L183.568 73.1162C252.527 73.3612 283.94 73.9092 297.732 75.1092C305.824 75.8132 307.468 76.1152 307.468 76.8962C307.468 77.7292 305.67 78.2312 301.468 78.5702C281.4 80.1922 246.94 80.7312 217.218 79.8882C191.489 79.1582 114.896 79.1112 93.9677 79.8122C69.7507 80.6232 15.1437 79.4952 8.37971 78.0452L7.04171 77.7582L7.25571 149.434C7.37371 188.856 7.57771 224.035 7.70971 227.61C7.84071 231.185 8.17871 248.622 8.45971 266.36C9.02671 302.16 9.70471 323.96 10.4487 330.312C11.1777 336.529 12.1577 339.367 14.4917 342.019C18.0467 346.057 22.4267 346.778 49.9677 347.858C57.5297 348.155 64.6177 348.532 65.7177 348.696C72.0187 349.637 174.946 349.759 210.968 348.867ZM139.968 342.61C130.755 342.277 121.91 341.727 120.311 341.39C117.361 340.767 116.205 339.685 117.52 338.778C117.963 338.472 126.439 338.441 140.718 338.693C198.128 339.706 234.556 338.701 260.218 335.396C262.143 335.148 266.305 334.602 269.468 334.184C278.678 332.965 281.648 332.775 282.468 333.352C283.112 333.806 283.053 334.019 282.053 334.858C280.484 336.174 278.739 336.614 268.218 338.349C254.022 340.689 239.831 342.068 221.718 342.868C207.091 343.514 160.875 343.368 139.968 342.61ZM69.9677 339.321C46.7807 337.993 39.8617 337.312 34.8927 335.87C32.7967 335.262 32.1717 334.228 33.3227 333.273C34.9487 331.924 49.3547 332.169 68.2177 333.868C70.9677 334.116 76.5927 334.578 80.7177 334.897C90.4377 335.646 100.913 337.105 101.616 337.808C102.019 338.211 101.999 338.529 101.544 338.985C100.782 339.748 81.0847 339.958 69.9677 339.321ZM290.637 329.08C290.473 328.651 291.129 326.57 292.096 324.455C293.062 322.34 293.996 320.187 294.17 319.671C294.987 317.242 295.963 310.996 296.483 304.86C296.798 301.148 297.261 297.011 297.512 295.667C297.763 294.323 297.968 293.142 297.968 293.042C297.968 292.942 298.311 292.86 298.73 292.86C299.907 292.86 300.338 294.652 300.723 301.137C301.225 309.58 299.781 318.759 297.111 324.109C294.863 328.614 291.461 331.226 290.637 329.08ZM152.468 312.529C131.175 310.446 114.043 303.716 96.2177 290.431C90.4117 286.104 79.6587 275.333 75.5567 269.735C65.1947 255.594 58.0257 238.71 54.9107 221.11C54.0667 216.341 54.0347 197.185 54.8627 192.36C56.1407 184.912 57.2877 180.301 59.7677 172.648C62.9147 162.933 65.2757 158.139 71.7627 148.291C76.5417 141.036 78.0327 139.229 84.9347 132.33C95.8677 121.401 104.871 114.505 113.218 110.663C114.318 110.157 116.633 109.079 118.362 108.267C121.647 106.725 128.641 104.051 131.218 103.353C132.043 103.13 133.956 102.609 135.468 102.197C143.435 100.026 150.973 99.1902 162.468 99.2002C173.349 99.2102 176.197 99.4622 185.218 101.214C196.399 103.385 210.08 109.17 220.718 116.226C228.274 121.237 231.053 123.446 236.9 129.09C247.962 139.769 257.268 154.198 262.871 169.36C267.345 181.469 269.222 192.598 269.193 206.86C269.172 217.652 268.717 221.797 266.645 230.11C263.264 243.668 259.132 252.904 250.943 265.206C245.405 273.527 242.878 276.567 236.059 283.11C225.623 293.125 214.367 300.33 200.608 305.8C195.649 307.772 191.583 308.956 182.468 311.081C176.361 312.505 160.197 313.285 152.468 312.529ZM173.863 305.822C178.432 305.316 185.68 303.872 188.468 302.912C189.156 302.675 192.081 301.731 194.968 300.814C200.882 298.935 211.524 293.703 217.145 289.909C232.661 279.439 245.939 264.26 253.197 248.695C258.256 237.847 260.509 230.442 262.945 216.652C263.709 212.327 263.583 200.138 262.714 194.232C261.007 182.638 257.106 170.09 252.704 162.03C251.677 160.149 250.163 157.372 249.341 155.86C244.233 146.462 234.459 134.945 225.468 127.73C219.136 122.649 207.69 115.793 201.572 113.417C193.088 110.122 189.812 109.061 184.218 107.797C169.802 104.54 152.783 104.598 138.468 107.954C132.902 109.259 119.06 114.555 115.218 116.849C114.393 117.342 112.143 118.592 110.218 119.627C105.793 122.006 103.268 123.808 95.3557 130.234C91.7167 133.19 87.9757 136.73 86.6137 138.506C85.3047 140.213 82.7957 143.41 81.0377 145.61C76.6457 151.106 74.3487 154.713 70.8377 161.625C68.8967 165.448 67.9047 167.693 66.9757 170.36C66.6407 171.323 66.1807 172.56 65.9537 173.11C64.3177 177.077 61.8537 187.054 61.0147 193.11C60.2197 198.85 60.3277 213.25 61.2097 219.148C62.4527 227.457 65.7457 238.541 69.2637 246.25C69.9257 247.702 70.4677 249 70.4677 249.134C70.4677 249.268 71.3677 250.86 72.4677 252.67C73.5677 254.481 74.4677 256.029 74.4677 256.11C74.4677 256.746 79.2027 263.83 81.6527 266.86C89.0667 276.027 94.7607 281.518 102.718 287.174C106.34 289.748 115.255 295.36 115.723 295.36C115.869 295.36 117.84 296.233 120.103 297.3C123.611 298.954 129.188 300.993 135.218 302.827C145.199 305.863 161.844 307.153 173.863 305.822ZM298.195 280.485C297.987 280.004 297.721 276.685 297.605 273.11C297.384 266.295 298.055 262.61 299.516 262.61C300.942 262.61 301.579 266.287 301.292 272.86C301.142 276.298 300.869 279.616 300.686 280.235C300.289 281.57 298.734 281.726 298.195 280.485ZM298.303 256.257C296.239 247.938 296.234 138.964 298.296 113.735C298.509 111.128 298.818 109.86 299.24 109.86C300.124 109.86 300.369 116.523 300.829 153.11C301.375 196.643 301.148 243.633 300.354 251.07C299.744 256.785 298.939 258.821 298.303 256.257ZM66.7177 64.8552C44.6377 63.8722 35.7257 63.3182 35.3087 62.9012C34.1487 61.7412 40.4777 60.3862 52.2177 59.2802C59.7877 58.5672 80.6217 58.3882 84.7757 59.0002L87.3337 59.3772L87.2687 52.7582L87.2047 46.1392L61.2107 46.2652C46.9147 46.3342 34.9037 46.3842 34.5197 46.3752C33.9557 46.3632 33.8817 47.0742 34.1347 50.0712C34.4067 53.2882 34.1267 56.4712 33.1987 60.7212C33.0647 61.3312 32.4677 62.0932 31.8707 62.4122C29.9487 63.4412 29.1187 61.6602 28.7067 55.6232C28.1997 48.1822 28.7087 44.1542 30.3867 42.3302C31.5487 41.0682 32.2567 40.8192 35.9547 40.3722C41.2947 39.7272 77.5477 39.7232 84.1727 40.3682C86.9587 40.6382 89.6287 41.1782 90.2737 41.6012C91.8627 42.6422 92.2177 44.8562 92.2177 53.7242C92.2177 61.2762 92.2067 61.3492 90.9057 62.6502C88.7667 64.7872 81.0327 65.4932 66.7177 64.8552ZM176.128 62.8112C169.918 61.7742 163.888 57.6752 161.712 53.0122C158.946 47.0872 158.38 42.8622 159.692 37.9352C160.525 34.8032 161.662 33.3602 163.295 33.3602C164.229 33.3602 164.468 33.0912 164.468 32.0442C164.468 29.1482 167.484 26.1302 172.718 23.7882C174.686 22.9082 176.182 22.6632 179.743 22.6402C183.998 22.6122 184.497 22.7232 188.082 24.4942C192.193 26.5262 194.468 28.7182 194.468 30.6482C194.468 31.3732 194.759 31.8602 195.193 31.8602C197.273 31.8602 199.468 37.8412 199.468 43.5102C199.468 50.5302 194.244 58.0242 187.17 61.1532C185.196 62.0262 178.934 63.6242 178.751 63.3022C178.733 63.2692 177.552 63.0492 176.128 62.8112ZM184.358 56.0342C187.528 55.0492 190.136 52.6572 192.196 48.8452C193.421 46.5782 193.678 45.5122 193.696 42.6102C193.71 40.3502 193.401 38.3372 192.824 36.9272C192.01 34.9402 191.999 34.6372 192.703 33.5632C193.465 32.4002 193.454 32.3882 191.962 32.6862C190.753 32.9282 189.886 32.6152 187.654 31.1332C182.296 27.5762 178.541 27.0212 174.03 29.1212C170.777 30.6352 166.471 34.1402 166.46 35.2822C166.456 35.7372 166.129 37.0102 165.732 38.1102C164.846 40.5712 164.769 44.8292 165.562 47.4782C166.301 49.9432 169.829 53.9382 172.334 55.1462C177.065 57.4262 179.338 57.5942 184.358 56.0342ZM284.036 49.2872C283.437 49.0662 282.818 48.5522 282.662 48.1462C282.433 47.5482 282.196 47.5212 281.417 48.0082C278.954 49.5462 275.929 45.1382 276.685 41.1112C277.183 38.4582 280.373 35.2242 282.269 35.4502C284.634 35.7312 284.834 36.9372 282.949 39.5612C281.306 41.8502 281.284 41.9472 281.897 44.2402C282.242 45.5282 282.606 46.6652 282.707 46.7652C282.921 46.9802 286.05 44.8382 286.585 44.1102C286.787 43.8352 286.956 42.8162 286.96 41.8462C286.969 39.7462 288.156 37.8602 289.468 37.8602C291.718 37.8602 292.804 42.7942 291.226 45.8452C289.854 48.4972 286.387 50.1572 284.036 49.2872ZM227.507 48.0322C223.541 44.4652 224.227 37.9542 228.768 36.0572C230.038 35.5262 230.751 35.4762 231.479 35.8662C232.787 36.5662 232.737 36.8842 230.968 39.1102C229.073 41.4942 229.011 43.4282 230.785 44.8242C231.51 45.3942 232.607 45.8602 233.224 45.8602C235.08 45.8602 235.718 44.5292 235.718 40.6552C235.718 37.4252 235.812 37.0972 236.777 36.9592C238.421 36.7242 240.468 39.4782 240.468 41.9232C240.468 45.9232 238.434 48.1572 234.468 48.5122C232.956 48.6472 231.126 48.9152 230.403 49.1062C229.369 49.3792 228.751 49.1502 227.507 48.0322ZM253.09 48.1062C250.414 46.1922 249.713 42.0892 251.515 38.8832C253.319 35.6732 256.32 34.6242 257.979 36.6242C258.466 37.2112 258.284 37.6872 257.025 39.1222C254.596 41.8882 255.118 46.3602 257.869 46.3602C259.511 46.3602 259.668 47.3092 258.123 47.8972C255.565 48.8722 254.239 48.9272 253.09 48.1062ZM261.244 47.5912C260.382 46.9392 260.338 46.6632 260.869 45.1972C261.198 44.2852 261.468 42.4862 261.468 41.2002C261.468 39.4932 261.751 38.5772 262.513 37.8152L263.558 36.7702L264.764 37.9032C267.171 40.1642 267.248 44.6832 264.923 47.1582C263.634 48.5302 262.64 48.6472 261.244 47.5912ZM152.468 286.022C146.405 285.041 140.404 283.665 136.908 282.453C133.107 281.135 131.442 280.451 125.968 277.957C122.699 276.468 117.725 273.268 115.718 271.363C114.618 270.319 112.791 269.002 111.659 268.436C106.741 265.979 97.7877 255.982 91.7987 246.26C83.0127 231.996 78.5497 210.867 81.2067 196.11C83.5197 183.259 85.5517 177.337 91.1537 167.11C94.1507 161.64 94.4727 161.211 99.6207 155.817C101.874 153.455 104.947 150.101 106.448 148.363C107.95 146.626 110.762 144.187 112.698 142.943C114.634 141.7 117.363 139.714 118.763 138.529C122.594 135.287 133.847 130.208 141.468 128.282C145.006 127.387 154.832 125.821 158.744 125.527C165.207 125.043 177.099 126.478 184.468 128.632C193.891 131.387 203.211 136.044 210.468 141.624C214.827 144.975 222.214 152.931 224.929 157.198C226.298 159.35 228.524 162.46 229.876 164.11C232.328 167.102 234.968 171.56 234.968 172.707C234.968 174.346 233.623 175.911 231.194 177.1C227.459 178.927 221.969 184.177 220.107 187.7C217.363 192.893 216.322 196.937 215.637 205.064C215.218 210.035 217.017 217.608 220.1 223.86C221.939 227.587 226.259 232.223 229.377 233.813L231.49 234.892L232.479 232.584C233.023 231.315 233.468 230.068 233.468 229.812C233.468 229.556 233.682 228.956 233.944 228.478C236.713 223.432 238.678 210.154 237.93 201.541C237.736 199.303 237.523 194.803 237.457 191.541C237.243 180.893 237.503 180.226 239.719 185.735C241.688 190.632 242.277 193.323 242.983 200.648C243.779 208.904 243.163 214.825 240.493 224.61C239.813 227.099 235.54 237.97 234.399 240.11C233.813 241.21 232.883 243.01 232.333 244.11C230.603 247.57 228.397 250.451 223.483 255.671C220.862 258.454 217.054 262.577 215.021 264.833C210.263 270.11 205.822 273.649 200.289 276.573C187.404 283.382 175.283 286.394 161.218 286.283C157.093 286.251 153.156 286.133 152.468 286.022ZM179.468 278.221C186.623 276.318 188.676 275.55 195.218 272.327C204.834 267.591 215.226 259.605 220.822 252.651C224.079 248.604 228.468 241.857 228.468 240.898C228.468 240.651 227.472 239.967 226.255 239.378C219.165 235.946 212.921 227.396 210.74 218.133C210.24 216.012 209.537 214.163 209.176 214.025C208.816 213.887 207.003 214.01 205.147 214.299C202.666 214.685 200.178 215.641 195.75 217.911C186.827 222.483 185.228 222.96 178.218 223.147C172.981 223.286 171.678 223.147 167.97 222.052C165.633 221.361 160.796 219.255 157.22 217.37C149.175 213.131 146.086 212.184 140.218 212.156C134.847 212.13 132.62 212.801 124.424 216.912C116.328 220.973 112.097 222.063 105.718 221.727C100.161 221.435 95.8947 220.112 90.8547 217.118C89.2117 216.142 87.8627 215.626 87.6887 215.908C86.8177 217.317 91.6507 232.316 95.2947 239.515C98.5367 245.918 105.314 254.719 111.551 260.626C117.313 266.083 126.338 271.743 134.218 274.842C134.768 275.059 135.83 275.481 136.578 275.78C138.755 276.652 143.844 277.943 148.968 278.923C152.86 279.667 155.615 279.8 164.218 279.658C173.521 279.503 175.259 279.34 179.468 278.221ZM182.738 216.608C184.377 216.194 188.737 214.337 192.427 212.483C199.094 209.131 199.166 209.108 204.081 208.86L209.026 208.61L209.213 203.354C209.698 189.682 216.321 177.602 226.093 172.567C227.399 171.894 228.468 171.232 228.468 171.096C228.468 170.672 223.403 162.736 221.456 160.11C217.45 154.705 207.043 145.716 199.969 141.55C195.993 139.208 183.576 134.656 177.468 133.301C172.973 132.303 170.817 132.135 162.468 132.126C154.066 132.117 151.999 132.276 147.519 133.277C134.599 136.163 125.291 140.406 115.468 147.888C101.892 158.228 91.7957 174.523 88.2237 191.86C87.3537 196.085 86.2907 205.776 86.5307 207.294C86.6847 208.27 87.8757 209.019 93.2987 211.553C105.208 217.116 108.657 217.06 121.468 211.1C131.85 206.27 134.108 205.603 139.968 205.639C146.684 205.679 150.814 206.858 159.132 211.107C170.792 217.063 176.066 218.292 182.738 216.608ZM177.484 40.1292C176.436 38.8662 177.091 34.3742 178.489 33.2432C179.971 32.0432 184.126 32.1702 184.363 33.4232C184.554 34.4272 180.013 40.5402 178.92 40.7502C178.483 40.8342 177.837 40.5552 177.484 40.1292ZM104.812 242.898C102.232 240.042 99.4677 234.346 99.4677 231.884C99.4677 230.277 99.7257 229.714 100.779 229.024C102.03 228.204 102.121 228.209 102.795 229.131C103.183 229.661 103.932 231.449 104.459 233.103C104.986 234.757 106.021 237.76 106.759 239.776C107.939 243.001 108.012 243.53 107.366 244.176C106.719 244.823 106.412 244.669 104.812 242.898ZM98.1987 194.282C98.6907 190.388 102.166 179.939 104.535 175.228C108.914 166.517 115.388 158.64 122.48 153.393C127.403 149.75 136.603 145.168 142.094 143.623C146.721 142.321 147.968 142.381 147.968 143.903C147.968 144.611 146.237 145.68 140.843 148.303C131.701 152.749 127.813 155.382 122.048 161.033C114.398 168.531 110.571 174.063 105.049 185.61C100.118 195.918 99.7317 196.607 98.7897 196.782C97.9467 196.938 97.8917 196.708 98.1987 194.282Z" fill="white"/>
</svg>
