<svg width="576" height="265" viewBox="0 0 576 265" fill="none" xmlns="http://www.w3.org/2000/svg">
<path fill-rule="evenodd" clip-rule="evenodd" d="M151.573 264.539C127.454 262.373 99.5498 258.256 88.8228 255.282C79.8458 252.793 72.3118 251.16 65.8228 250.297C51.6028 248.406 50.0718 248.015 47.7338 245.676C45.3058 243.248 45.4188 240.788 48.5658 227.549C48.7948 226.586 49.2058 224.674 49.4788 223.299C49.7528 221.924 50.2228 219.561 50.5228 218.049C51.1668 214.805 54.8488 195.121 55.6198 190.799C55.9138 189.149 56.3648 186.787 56.6208 185.549C57.8908 179.424 58.6808 175.317 59.5558 170.299C60.0818 167.274 60.8458 163.111 61.2528 161.049C61.6588 158.987 62.4718 154.599 63.0578 151.299C63.6448 147.999 64.3448 144.174 64.6138 142.799C66.4038 133.651 67.2638 128.073 66.9348 127.744C66.5958 127.405 63.7628 130.488 62.4748 132.597C61.3408 134.453 60.0928 135.049 57.3418 135.049C52.1318 135.049 39.5368 126.6 30.0118 116.716C26.3638 112.93 21.3088 106.471 20.0268 103.959C18.4998 100.966 19.2448 99.491 25.9668 92.196C29.1548 88.737 33.0138 84.396 34.5428 82.551C36.0718 80.706 38.7598 77.532 40.5158 75.497C42.2708 73.463 46.0958 69.004 49.0158 65.587C55.8838 57.549 65.6558 46.538 66.8918 45.443C68.4428 44.071 71.0378 43.189 75.3228 42.578C82.7568 41.518 82.1398 41.906 81.9708 38.391L81.8228 35.322L78.4988 34.453C76.6708 33.975 73.6838 32.901 71.8608 32.067C70.0388 31.232 67.8598 30.549 67.0188 30.549C64.1678 30.549 49.3228 26.321 40.3228 22.946C27.5088 18.14 20.6348 15.408 15.0728 12.91C13.8348 12.354 10.3478 10.802 7.32275 9.461C0.332755 6.363 -1.34425 4.487 0.986754 2.376C2.36475 1.129 3.41075 1.325 10.1388 4.092C35.9908 14.721 51.1578 20.193 70.3228 25.807C72.7978 26.532 76.2668 27.558 78.0318 28.087C79.7968 28.616 81.4288 29.049 81.6568 29.049C81.8858 29.049 82.0868 24.83 82.1038 19.674C82.1478 6.286 82.4958 3.456 84.3328 1.539L85.8068 0L93.0648 0.352C97.0568 0.546 100.885 0.853 101.573 1.036C103.587 1.571 105.203 4.406 104.857 6.799C104.406 9.919 102.437 30.565 102.377 32.799L102.323 34.799L105.073 35.365C106.586 35.677 110.073 36.412 112.823 37C125.534 39.716 139.421 42.176 160.823 45.503C179.216 48.362 182.045 48.692 187.823 48.65C191.123 48.626 194.948 48.82 196.323 49.08C197.698 49.341 200.557 49.891 202.677 50.302C204.797 50.713 206.74 51.049 206.996 51.049C207.279 51.049 207.356 44.405 207.193 34.082C206.913 16.399 207.059 14.758 209.05 13.19C209.579 12.773 212.243 12.576 217.496 12.565C224.304 12.551 225.322 12.658 226.531 13.519C228.328 14.799 229.269 17.743 228.875 20.852C228.704 22.198 228.342 28.136 228.071 34.049C227.799 39.962 227.44 46.655 227.272 48.924C226.992 52.712 227.043 53.051 227.895 53.079C229.999 53.147 243.886 54.02 251.711 54.577C260.035 55.17 260.114 55.166 262.244 54.036L264.39 52.898L275.106 53.53C296.706 54.805 298.933 54.783 326.323 53.038C330.723 52.758 340.004 52.385 346.948 52.209L359.573 51.889L359.558 50.344C359.55 49.494 359.219 45.536 358.823 41.549C358.427 37.562 358.096 32.218 358.088 29.674C358.071 24.437 358.667 23.304 361.67 22.861C370.907 21.5 371.94 21.427 373.729 22.018C377.582 23.29 378.087 25.644 378.1 42.425C378.104 47.147 378.299 51.129 378.533 51.275C378.768 51.42 380.167 51.326 381.642 51.066C384.457 50.571 386.766 50.251 399.823 48.545C404.223 47.97 410.635 47.073 414.073 46.552C417.511 46.032 422.195 45.325 424.484 44.981C426.772 44.638 428.929 44.119 429.276 43.828C429.765 43.419 429.811 42.049 429.479 37.799C429.242 34.774 428.84 31.38 428.585 30.258C428.33 29.135 427.971 26.21 427.787 23.758C427.174 15.6 428.592 14.261 438.699 13.461C448.831 12.659 449.071 13.024 449.072 29.231L449.073 40.663L451.448 40.318C453.687 39.993 455.216 39.619 464.701 37.074C466.834 36.502 470.112 35.973 471.987 35.898C474.507 35.798 475.73 35.498 476.685 34.747C477.394 34.189 479.26 33.424 480.83 33.047L483.686 32.362L483.34 28.331C483.15 26.113 482.566 21.261 482.042 17.549C481.517 13.837 481.085 9.319 481.081 7.511C481.074 4.62 481.228 4.077 482.361 3.011C483.698 1.752 487.58 0.817999 493.935 0.224999C498.056 -0.160001 499.285 0.214999 500.535 2.238C501.579 3.927 501.929 6.849 502.908 22.049C503.059 24.386 503.347 26.477 503.548 26.694C503.749 26.912 504.906 26.867 506.118 26.594C509.062 25.933 509.733 26.694 507.413 28.062C504.362 29.862 503.669 31.596 504.021 36.549C504.187 38.886 504.548 40.794 504.823 40.789C505.098 40.783 506.721 40.604 508.429 40.391C510.844 40.09 511.87 40.177 513.039 40.781C515.617 42.114 516.019 43.429 517.324 54.799C517.734 58.374 518.291 63.099 518.561 65.299C518.832 67.499 519.291 71.549 519.583 74.299C520.485 82.812 521.149 87.77 522.613 96.924C522.909 98.78 523.792 101.987 524.574 104.049C527.425 111.572 527.96 113.379 528.579 117.596C529.078 120.988 529.085 122.779 528.612 126.096C527.75 132.146 527.343 133.117 522.761 140.063C520.129 144.054 517.25 149.367 514.83 154.702C507.445 170.981 503.422 176.23 494.573 181.132C485.178 186.338 473.47 184.188 469.569 176.541C467.584 172.65 466.92 169.081 467.231 163.972C467.603 157.869 468.482 154.482 471.815 146.311C476.575 134.645 479.603 126.084 480.629 121.397C481.668 116.651 481.549 113.258 480.066 105.299C479.81 103.924 479.242 100.099 478.803 96.799C478.365 93.499 477.708 89.224 477.344 87.299C476.297 81.76 475.632 77.448 474.338 67.799C472.319 52.743 472.374 53.898 473.554 51.586C474.904 48.941 476.586 47.938 481.594 46.794C483.809 46.288 485.716 45.722 485.831 45.536C486.095 45.109 485.018 38.928 484.593 38.426C484.419 38.221 483.05 38.48 481.55 39.003C478.828 39.951 470.556 41.839 465.823 42.592C463.274 42.998 460.097 43.638 456.073 44.556C454.835 44.839 452.971 45.208 451.929 45.378C449.718 45.737 449.323 46.407 449.323 49.799V52.299L453.373 52.443C457.129 52.577 457.526 52.695 458.856 54.083C460.611 55.916 460.842 57.519 461.547 72.799C463.081 106.059 463.445 109.559 466.249 118.049C467.659 122.318 467.817 123.406 467.811 128.799C467.804 134.774 467.796 134.816 465.777 139.049C464.087 142.593 462.916 144.149 458.735 148.413C455.977 151.225 452.393 155.443 450.771 157.785C442.898 169.158 441.363 171.176 438.212 174.287C433.274 179.163 428.509 182.187 423.731 183.476C419.044 184.741 417.858 184.778 413.682 183.794C406.311 182.056 402.626 178.511 400.636 171.241C399.705 167.84 399.909 165.488 401.714 158.799C402.749 154.961 406.81 147.393 412.041 139.549C417.785 130.937 421.601 119.915 420.85 114.109C420.686 112.838 420.317 108.874 420.032 105.299C419.746 101.724 419.314 96.887 419.072 94.549C418.83 92.211 418.492 87.487 418.32 84.049C418.149 80.611 417.799 75.324 417.542 72.299C416.75 62.948 416.846 61.842 418.626 59.815C420.24 57.977 422.89 56.942 427.704 56.267C429.014 56.084 430.237 55.687 430.423 55.387C430.927 54.571 430.563 50.352 429.956 49.977C429.666 49.798 428.843 49.841 428.126 50.073C426.122 50.722 405.645 53.932 398.073 54.784C394.361 55.202 389.523 55.776 387.323 56.06C385.123 56.344 382.198 56.627 380.823 56.688C378.394 56.796 378.319 56.845 378.166 58.427C378.068 59.449 378.373 60.566 378.985 61.427C380.332 63.323 380.922 65.852 381.576 72.549C383.11 88.265 383.302 101.668 383.172 183.954C383.096 232.175 382.945 244.191 382.353 248.966C381.955 252.187 381.476 255.221 381.289 255.708C380.886 256.758 378.282 258.122 374.823 259.095C372.311 259.802 369.791 259.849 352.073 259.521C343.924 259.369 342.125 259.537 330.323 261.548C315.396 264.092 309.57 264.007 293.573 261.009C282.887 259.006 278.515 258.549 270.055 258.549H262.76L261.355 257.082L259.95 255.616L260.306 204.707C260.807 132.919 260.803 112.155 260.281 84.799L259.823 60.799L254.823 60.67C252.073 60.599 244.66 60.208 238.349 59.801C229.252 59.214 226.793 59.189 226.481 59.68C225.677 60.946 226.078 63.622 227.314 65.243C228.664 67.012 231.885 73.819 233.611 78.549C233.962 79.512 234.885 81.711 235.661 83.437C236.438 85.162 237.072 86.737 237.071 86.937C237.068 87.33 240.714 96.74 241.939 99.502C243.227 102.408 247.073 113.078 247.073 113.748C247.073 114.098 247.973 116.596 249.073 119.299C251.392 124.998 251.689 128.28 250.088 130.528C247.596 134.028 233.626 143.867 226.073 147.441C219.949 150.34 214.612 152.067 210.726 152.409C207.808 152.666 207.545 152.598 206.195 151.24C205.407 150.448 204.36 148.561 203.87 147.049C202.281 142.151 201.249 141.912 201.124 146.413C201.079 148 200.945 149.974 200.825 150.799C200.704 151.624 200.369 155.336 200.078 159.049C199.788 162.762 199.358 167.824 199.124 170.299C198.889 172.774 198.327 179.974 197.876 186.299C197.425 192.624 196.834 199.611 196.564 201.825C196.294 204.039 196.074 207.527 196.076 209.575C196.077 211.623 195.858 215.549 195.589 218.299C194.908 225.261 193.655 242.209 193.334 248.799C193.187 251.824 192.835 255.132 192.553 256.149C191.047 261.578 182.017 264.469 165.573 264.787C160.485 264.886 154.186 264.774 151.573 264.539ZM171.323 257.79C177.995 257.118 180.91 256.698 185.698 255.717C186.944 255.462 187.08 255.219 187.151 253.117C187.194 251.842 187.279 249.674 187.339 248.299C187.4 246.924 187.687 239.836 187.978 232.549C188.456 220.586 189.695 203.769 191.092 190.299C191.613 185.275 192.177 179.369 193.084 169.451C193.353 166.509 193.9 161.559 194.301 158.451C194.701 155.342 195.384 149.649 195.817 145.799C197.279 132.829 200.384 114.498 201.342 113.189C201.948 112.359 202.042 112.366 203.087 113.306C204.289 114.388 204.276 113.32 203.263 127.563L202.959 131.828L205.516 137.424C206.922 140.503 208.073 143.208 208.073 143.435C208.073 143.663 208.354 144.46 208.698 145.206C209.231 146.363 209.543 146.519 210.823 146.27C215.36 145.389 223.447 141.811 230.313 137.65C234.754 134.957 245.142 127.425 245.749 126.457C246.125 125.857 246.109 125.28 245.696 124.457C244.653 122.38 241.773 115.896 239.851 111.299C238.816 108.824 237.543 105.845 237.021 104.679C236.5 103.514 236.073 102.398 236.073 102.2C236.073 102.001 234.498 97.868 232.573 93.014C230.648 88.161 229.073 83.866 229.073 83.469C229.073 83.073 228.884 82.535 228.654 82.274C228.423 82.013 227.72 80.336 227.09 78.549C226.46 76.762 225.421 74.257 224.781 72.984L223.617 70.669L217.116 70.466C211.096 70.278 210.522 70.175 209.344 69.069C208.149 67.946 208.073 67.579 208.073 62.949C208.073 58.12 208.048 58.015 206.788 57.536C205.401 57.008 199.491 56.184 193.742 55.715L190.162 55.423L187.298 59.772C183.603 65.382 180.308 68.958 176.16 71.858C169.098 76.795 163.691 79.028 155.573 80.364C146.449 81.865 137.494 80.298 128.071 75.551C124.106 73.554 123.24 72.903 118.908 68.651C112.857 62.711 108.552 55.013 105.777 45.166C105.593 44.514 101.747 44.796 100.939 45.522C100.728 45.711 100.414 47.702 100.241 49.946C99.6978 56.992 98.1298 58.334 91.0738 57.791C82.6138 57.139 81.4158 56.273 81.6218 50.956C81.7398 47.9 81.7058 47.801 80.5338 47.865C77.9158 48.008 72.1318 48.966 71.3958 49.378C70.2548 50.017 59.2678 62.685 54.9878 68.299C53.7288 69.949 51.2578 72.874 49.4948 74.799C47.7328 76.724 43.9118 80.999 41.0058 84.299C38.0988 87.599 33.5498 92.661 30.8968 95.548C28.2438 98.435 26.0728 100.999 26.0728 101.247C26.0728 102.494 39.0768 116.523 43.2048 119.728C47.3478 122.946 56.9078 129.049 57.8038 129.049C57.8778 129.049 59.3068 127.395 60.9788 125.373C62.6518 123.351 65.1078 120.654 66.4368 119.381C68.6538 117.256 68.9078 116.765 69.5178 113.432C70.5838 107.608 72.4878 100.504 73.3238 99.228C74.2848 97.76 74.8718 97.739 75.6248 99.147C76.2228 100.263 75.6258 108.473 74.5318 114.199C74.2788 115.518 74.0728 117.415 74.0728 118.413C74.0728 119.411 73.8638 120.919 73.6088 121.764C73.3528 122.608 72.8938 125.099 72.5878 127.299C72.2828 129.499 71.8238 132.311 71.5698 133.549C71.3148 134.787 70.6278 139.061 70.0428 143.049C69.4578 147.037 68.5518 152.887 68.0298 156.049C67.1168 161.584 66.7608 163.902 65.5718 172.049C65.2698 174.111 64.8268 176.811 64.5858 178.049C64.3458 179.287 63.8898 181.762 63.5728 183.549C63.2558 185.336 62.8048 187.811 62.5698 189.049C62.3338 190.287 61.6548 193.887 61.0608 197.049C59.4998 205.352 57.0118 217.496 55.9898 221.799C55.7288 222.899 55.3118 224.924 55.0628 226.299C54.8138 227.674 54.0688 231.387 53.4068 234.549C52.7448 237.711 52.3018 240.557 52.4218 240.872C52.6708 241.526 53.8308 241.794 60.8228 242.815C69.9098 244.142 77.2208 245.551 85.3228 247.535C95.8228 250.107 99.3568 250.906 102.895 251.509C104.506 251.783 107.173 252.246 108.823 252.539C110.473 252.832 113.511 253.307 115.573 253.594C117.635 253.881 120.786 254.327 122.573 254.584C134.878 256.356 154.344 258.326 161.073 258.482C162.585 258.517 167.198 258.206 171.323 257.79ZM327.073 255.623C336.108 253.884 338.136 253.588 345.073 252.996C350.736 252.512 352.992 252.549 359.087 253.222C364.069 253.772 368.203 253.925 372.247 253.708C377.908 253.405 378.132 253.351 377.882 252.346C377.74 251.77 377.465 248.635 377.272 245.38L376.921 239.46L374.622 239.776C368.826 240.573 366.077 240.583 361.816 239.82C359.345 239.377 355.334 238.665 352.903 238.236C348.134 237.396 336.382 237.516 332.073 238.449C311.465 242.912 308.15 243.234 297.323 241.823C292.302 241.168 278.638 237.98 274.698 236.544C272.936 235.901 272.545 234.766 273.948 234.368C274.429 234.232 276.848 233.976 279.323 233.8C283.841 233.478 284.301 233.548 291.823 235.691C300.534 238.173 308.735 238.131 319.073 235.551C323.515 234.443 332.909 232.642 337.433 232.033C343.635 231.196 349.432 231.587 359.573 233.524C366.961 234.936 368.846 235.09 372.073 234.55C373.861 234.251 375.694 233.895 376.149 233.759C376.912 233.532 376.968 227.521 376.899 154.056C376.821 72.098 376.821 72.101 374.973 73.949C374.643 74.279 373.462 74.552 372.348 74.557C369.673 74.567 368.836 75.131 369.279 76.623C370.77 81.639 371.01 88.358 370.824 119.799C370.566 163.375 370.002 175.144 368.254 173.397C367.597 172.74 367.133 151.811 367.042 118.799C366.992 100.374 366.809 82.945 366.637 80.068L366.323 74.836L364.638 74.494C361.503 73.856 361.109 72.99 360.793 66.037C360.367 56.675 360.741 57.347 356.171 57.738C324.233 60.469 304.671 61.023 282.53 59.822C273.845 59.351 266.307 58.928 265.78 58.882C264.611 58.781 264.61 58.975 265.712 72.799C266.859 87.185 266.879 130.442 265.781 227.145L265.493 252.491L275.658 252.707C281.249 252.827 287.061 253.177 288.573 253.486C292.895 254.37 295.585 254.91 298.823 255.542C307.442 257.225 318.581 257.256 327.073 255.623ZM423.869 176.875C426.798 175.861 427.01 175.068 425.132 172.14C423.266 169.233 416.429 162.549 415.321 162.549C414.91 162.549 414.573 162.211 414.573 161.799C414.573 160.611 417.764 160.876 420.569 162.297C423.579 163.822 426.671 166.924 428.67 170.424C429.494 171.868 430.343 173.049 430.557 173.049C431.373 173.049 438.091 165.476 440.603 161.724C442.048 159.565 444.77 155.855 446.652 153.48C448.533 151.104 450.073 148.918 450.073 148.622C450.073 148.326 449.637 147.851 449.104 147.565C448.571 147.28 447.389 145.534 446.479 143.684C445.049 140.781 444.823 139.808 444.823 136.56C444.823 133.52 445.081 132.248 446.17 129.924C446.911 128.343 447.755 127.049 448.045 127.049C448.375 127.049 448.575 128.691 448.578 131.424C448.581 133.84 448.915 136.892 449.324 138.24C450.157 140.986 452.562 145.062 453.323 145.019C454.129 144.974 459.214 138.74 460.546 136.164C462.488 132.407 462.166 124.557 459.803 118.023C457.932 112.852 456.663 101.326 456.099 84.38C455.853 76.999 455.538 70.848 455.4 70.71C455.262 70.572 453.289 70.929 451.016 71.504C448.743 72.079 446.123 72.549 445.195 72.549C443.344 72.549 441.573 71.798 441.573 71.014C441.573 69.843 448.636 67.81 455.198 67.09C455.656 67.04 455.686 63.514 455.255 60.369L454.937 58.049H452.355C450.935 58.049 449.503 58.319 449.173 58.649C448.843 58.979 448.573 60.429 448.573 61.871C448.573 63.919 448.31 64.799 447.371 65.891C446.207 67.244 445.987 67.295 440.496 67.468C434.99 67.642 434.782 67.61 433.448 66.372C432.552 65.541 432.073 64.587 432.073 63.634C432.073 61.272 431.281 61.013 426.963 61.958C424.851 62.421 422.929 63.024 422.692 63.299C422.454 63.575 422.445 65.813 422.672 68.299C422.898 70.774 423.111 73.474 423.145 74.299C423.251 76.869 424.485 88.488 425.402 95.549C425.978 99.982 426.279 105.646 426.278 112.049C426.277 120.667 426.145 122.262 425.144 125.79C423.561 131.371 421.052 136.495 414.96 146.583C412.065 151.377 409.185 156.311 408.561 157.549C407.152 160.34 406.11 164.583 406.105 167.549C406.098 171.938 409.718 176.46 414.135 177.576C416.248 178.111 421.365 177.742 423.869 176.875ZM490.28 176.344C491.679 175.682 493.498 174.569 494.323 173.87L495.823 172.599L491.78 168.657C488.68 165.634 486.723 164.218 483.387 162.58C479.827 160.833 479.142 160.318 479.616 159.747C481.898 156.997 493.216 162.118 497.017 167.62C497.735 168.66 498.484 169.52 498.681 169.53C499.649 169.581 504.518 162.056 507.403 156.049C509.186 152.336 511.467 147.673 512.471 145.685L514.298 142.072L512.122 139.981C507.079 135.135 505.438 127.021 508.268 120.924C509.078 119.178 509.916 118.049 510.402 118.049C511.1 118.049 511.159 118.607 510.865 122.424C510.58 126.134 510.686 127.255 511.565 129.799C512.585 132.752 515.73 138.055 516.453 138.043C517.076 138.032 521.639 130.696 522.431 128.431C522.964 126.91 523.101 125.152 522.91 122.299C522.641 118.268 521.394 112.672 520.584 111.861C520.333 111.61 519.411 111.877 518.426 112.486C516.593 113.618 515.31 113.836 514.851 113.094C514.361 112.302 515.048 111.349 517.38 109.588C519.163 108.241 519.58 107.656 519.34 106.838C516.156 95.981 514.691 87.365 513.085 70.055C512.542 64.199 511.981 59.29 511.838 59.148C511.696 59.005 510.284 59.26 508.701 59.714C505.037 60.765 500.44 61.549 497.945 61.549C496.377 61.549 496.032 61.383 496.165 60.692C496.277 60.111 497.778 59.333 500.826 58.279C503.3 57.423 505.814 56.459 506.415 56.136C507.016 55.813 508.409 55.549 509.511 55.549C510.612 55.549 511.609 55.38 511.725 55.174C512.114 54.48 510.365 45.549 509.841 45.557C509.556 45.561 508.31 45.866 507.073 46.235L504.823 46.907L504.511 49.753C504.098 53.528 502.954 54.7 498.667 55.74C491.737 57.422 487.573 56.237 487.573 52.582C487.573 51.841 487.252 51.549 486.437 51.549C485.205 51.549 478.698 53.257 478.259 53.696C477.879 54.076 479.106 63.705 479.603 64.244C479.835 64.495 480.694 64.115 481.581 63.369C483.096 62.094 485.092 61.704 486.782 62.352C489.336 63.332 485.666 65.802 482.232 65.415C481.036 65.28 479.953 65.338 479.826 65.544C479.625 65.869 481.559 77.584 485 96.891C486.658 106.191 487.301 115.139 486.683 120.299C485.996 126.025 484.581 130.487 478.814 145.096C473.134 159.488 472.567 161.348 472.595 165.515C472.635 171.452 474.838 175.292 479.196 177.018C482.496 178.325 486.624 178.074 490.28 176.344ZM156.323 74.816C161.994 73.63 171.148 69.452 173.308 67.065C174.436 65.819 174.201 65.814 169.542 66.981C167.497 67.494 165.373 67.942 164.823 67.977C155.607 68.56 150.289 68.587 146.385 68.07C136.033 66.699 125.451 63.314 120.337 59.738C119.228 58.964 118.073 58.83 118.073 59.477C118.073 59.712 119.407 61.36 121.038 63.14C126.54 69.145 134.382 73.53 141.392 74.523C143.2 74.779 144.805 75.115 144.959 75.269C145.517 75.826 152.903 75.532 156.323 74.816ZM372.698 67.924C372.629 67.718 372.573 63.362 372.573 58.244C372.573 49.048 372.562 48.952 371.63 50.102C370.822 51.1 370.572 51.171 369.88 50.597C369.436 50.228 369.073 49.56 369.073 49.113C369.073 48.665 368.51 46.499 367.822 44.299C366.237 39.233 365.668 33.489 366.583 31.781C368.089 28.966 369.538 31.095 370.59 37.672C370.931 39.802 371.484 41.92 371.82 42.379C372.316 43.057 372.499 41.826 372.796 35.826C373.022 31.261 372.979 28.255 372.683 27.959C372.392 27.668 370.286 27.62 367.342 27.836L362.481 28.193L362.759 30.246C362.912 31.375 363.282 34.999 363.58 38.299C363.878 41.599 364.336 45.675 364.598 47.357C364.859 49.038 365.073 52.097 365.073 54.154C365.073 56.211 365.22 60.3 365.4 63.242L365.727 68.59L369.275 68.444C371.227 68.364 372.767 68.13 372.698 67.924ZM220.308 64.073C220.47 63.811 220.652 60.567 220.713 56.864C220.814 50.654 220.742 50.041 219.778 48.965C218.074 47.064 216.269 38.644 215.776 30.299C215.477 25.226 215.531 24.702 216.477 23.549C217.306 22.538 217.625 22.42 218.145 22.931C218.801 23.577 219.041 25.001 220.18 35.008C220.537 38.149 221.075 40.8 221.376 40.9C221.885 41.07 222.586 31.285 222.764 21.549L222.823 18.299H217.573C212.619 18.299 212.329 18.355 212.434 19.299C212.817 22.761 213.623 42.728 213.564 47.299C213.455 55.795 213.459 56.044 213.749 60.299C213.9 62.499 214.034 64.355 214.048 64.424C214.124 64.804 220.062 64.471 220.308 64.073ZM164.323 62.019C168.244 61.33 173.811 59.698 176.323 58.5C177.423 57.975 178.773 57.546 179.323 57.546C180.422 57.545 183.573 55.791 183.573 55.18C183.573 54.969 179.692 54.274 174.948 53.635C165.477 52.361 155.776 50.92 148.823 49.755C146.348 49.341 141.623 48.555 138.323 48.01C130.803 46.768 115.356 43.683 113.208 42.995C110.825 42.232 110.374 42.819 111.69 44.97C113.002 47.114 116.784 50.68 120.193 52.987C124.338 55.791 133.191 59.582 137.823 60.536C142.826 61.566 147.951 62.512 149.323 62.659C152.04 62.949 161.266 62.555 164.323 62.019ZM442.977 61.291C443.162 61.131 443.233 55.312 443.14 47.943C443.084 43.494 442.92 42.437 442.167 41.693C440.13 39.682 437.073 30.533 437.073 26.448C437.073 24.676 438.062 22.549 438.886 22.549C439.897 22.549 440.614 24.317 441.379 28.7C442.141 33.064 442.241 33.313 443.04 32.82C443.374 32.613 443.573 30.002 443.573 25.81V19.129L438.698 19.401C436.017 19.551 433.685 19.814 433.516 19.986C433.347 20.158 433.514 22.999 433.888 26.299C435.324 38.978 436.952 57.956 436.711 59.215C436.229 61.739 436.759 62.159 439.946 61.773C441.528 61.581 442.892 61.364 442.977 61.291ZM94.3118 51.424C94.4258 51.08 94.7598 48.099 95.0538 44.799C95.3478 41.499 95.7288 37.502 95.9008 35.917C96.2048 33.118 96.1808 33.04 95.0488 33.167C93.0278 33.396 91.6398 28.271 90.7408 17.253C90.4368 13.533 91.3748 10.286 92.9228 9.691C94.0568 9.256 94.3078 9.925 94.6178 14.214C94.9918 19.38 96.0828 26.049 96.5538 26.049C96.9038 26.049 98.4728 15.109 98.9268 9.502L99.1538 6.706L93.7798 6.377C90.8248 6.196 88.3588 6.105 88.2998 6.174C88.2408 6.243 88.0538 13.499 87.8838 22.299C87.7148 31.099 87.4338 41.265 87.2598 44.89L86.9428 51.481L88.8828 51.681C92.8938 52.094 94.1078 52.037 94.3118 51.424ZM498.1 49.526C498.793 49.163 498.809 48.366 498.248 42.209C497.902 38.408 497.608 34.555 497.596 33.646C497.58 32.495 497.14 31.583 496.146 30.646C495.117 29.675 494.129 27.556 492.603 23.049C489.824 14.847 489.409 12.778 490.206 11.11C490.55 10.389 491.323 9.729 491.923 9.643C492.833 9.513 493.109 9.846 493.581 11.643C494.934 16.784 496.278 20.544 496.637 20.185C497.088 19.734 496.587 7.381 496.085 6.568C495.849 6.187 494.307 6.138 491.034 6.409C486.75 6.764 486.33 6.89 486.396 7.799C486.436 8.349 486.84 11.161 487.294 14.049C488.716 23.098 489.04 25.723 489.057 28.324C489.066 29.713 489.282 31.063 489.537 31.324C489.793 31.585 490.27 34.611 490.598 38.049C490.926 41.487 491.392 44.82 491.634 45.457C491.875 46.093 492.073 47.521 492.073 48.628V50.643L494.698 50.288C496.142 50.093 497.673 49.75 498.1 49.526ZM515.573 27.139C515.573 26.914 516.285 26.408 517.155 26.014C518.026 25.621 519.095 24.748 519.53 24.074C520.286 22.905 520.277 22.867 519.323 23.234C518.773 23.446 517.648 23.74 516.823 23.888L515.323 24.156L517.171 22.853C518.188 22.136 519.339 21.549 519.73 21.549C520.565 21.549 524.546 20.016 528.97 17.99C530.702 17.197 532.289 16.549 532.498 16.549C532.708 16.549 534.891 15.733 537.351 14.736C544.546 11.82 548.236 10.549 549.511 10.549C550.167 10.549 552.193 9.786 554.013 8.854C564.324 3.573 572.305 0.00699936 573.499 0.146999C575.055 0.327999 576.112 2.583 575.268 3.92C574.571 5.025 568.6 8.068 557.823 12.809C552.463 15.167 530.218 23.994 528.751 24.345C527.965 24.533 527.098 24.84 526.823 25.028C526.548 25.215 525.31 25.661 524.073 26.017C522.836 26.374 521.171 26.864 520.373 27.107C518.55 27.663 515.573 27.683 515.573 27.139ZM94.0728 242.726C92.2778 242.426 80.0928 239.533 78.3728 238.999C77.5758 238.752 76.2518 238.549 75.4308 238.549C74.6108 238.549 73.1248 238.337 72.1308 238.079C71.1368 237.82 69.2588 237.342 67.9578 237.016C64.9258 236.258 63.9708 235.232 65.3418 234.208C66.1168 233.629 67.6338 233.516 72.5728 233.668C79.0098 233.867 81.7998 234.548 88.0728 237.456C89.3098 238.029 92.0278 239.241 94.1118 240.149C96.1968 241.056 97.9968 242.024 98.1118 242.299C98.3378 242.835 96.1228 243.069 94.0728 242.726ZM104.651 212.397C100.028 206.588 95.3898 198.127 91.5608 188.517C86.7578 176.466 83.4478 156.664 86.1508 156.151C86.8188 156.024 87.1878 156.935 88.0718 160.896C89.6668 168.052 91.9448 175.742 93.5838 179.506C94.3718 181.317 97.1428 188.199 99.7408 194.799C102.338 201.399 105.265 208.548 106.245 210.685C108.288 215.142 108.311 215.22 107.671 215.433C107.408 215.521 106.049 214.154 104.651 212.397ZM214.073 138.657C214.073 138.166 214.804 137.345 215.698 136.831C224.211 131.941 233.689 126.082 235.288 124.721C237.42 122.907 238.447 122.638 238.885 123.781C239.3 124.863 237.401 127.238 234.075 129.798C225.241 136.595 214.073 141.542 214.073 138.657ZM51.5728 120.629C48.0068 117.989 42.5728 112.376 42.5728 111.332C42.5728 110.969 42.8608 110.433 43.2118 110.141C43.6898 109.744 44.8528 110.413 47.8368 112.802C50.0288 114.557 52.6638 116.469 53.6928 117.05L55.5628 118.107L56.9428 115.754C58.8738 112.462 64.6258 105.549 65.4338 105.549C66.4168 105.549 66.7268 106.778 66.3608 109.221C66.0928 111.009 65.4308 112.018 62.5108 115.089C60.5718 117.13 58.3188 119.755 57.5048 120.924C56.6908 122.093 55.7548 123.046 55.4238 123.041C55.0928 123.037 53.3598 121.951 51.5728 120.629ZM135.995 88.099C125.865 85.34 118.691 80.953 113.202 74.161C110.235 70.491 107.073 65.302 107.073 64.104C107.073 63.799 107.492 63.549 108.004 63.549C108.572 63.549 110.034 64.984 111.756 67.232C115.301 71.861 118.538 74.9 122.999 77.785C129.53 82.011 134.083 83.736 147.073 86.909C148.08 87.155 148.823 87.647 148.823 88.068C148.823 89.231 140.227 89.252 135.995 88.099ZM164.094 85.324C163.591 84.718 164.232 84.228 168.023 82.324C172.541 80.055 174.073 79.605 174.073 80.546C174.073 81.595 166.998 86.004 165.259 86.038C164.949 86.044 164.425 85.723 164.094 85.324ZM289.323 248.551C287.948 248.345 285.923 247.925 284.823 247.616C283.723 247.307 281.248 247.031 279.323 247.002C273.248 246.912 270.354 246.41 270.164 245.413C270.041 244.767 270.646 244.239 272.402 243.462C274.547 242.514 275.109 242.458 277.566 242.955C279.082 243.261 281.223 243.392 282.323 243.245C283.713 243.06 285.51 243.371 288.213 244.264C290.353 244.971 292.512 245.549 293.011 245.549C294.222 245.549 295.769 247.318 295.399 248.28C295.079 249.114 293.551 249.182 289.323 248.551ZM367.791 201.895C367.372 200.804 367.719 191.734 368.198 191.256C369.042 190.415 369.317 191.891 369.211 196.679C369.103 201.497 368.495 203.731 367.791 201.895ZM287.63 162.174C284.687 149.297 281.11 122.976 280.073 106.549C279.585 98.838 279.81 95.549 280.825 95.549C282.928 95.549 284.955 106.5 287.559 131.931C288.751 143.572 289.486 164.549 288.701 164.549C288.411 164.549 287.928 163.48 287.63 162.174ZM274.399 116.173C273.916 115.391 273.074 105.128 273.076 100.049C273.077 97.437 272.812 91.907 272.488 87.761C272.013 81.667 272.026 79.626 272.559 77.113C273.065 74.731 273.407 74.04 274.021 74.158C275.587 74.46 276.158 78.029 276.691 90.833C277.276 104.889 276.803 114.533 275.464 115.873C275.029 116.307 274.564 116.438 274.399 116.173ZM425.273 73.968C424.823 73.239 426.841 71.549 428.161 71.549C430.474 71.549 432.058 73.564 430.282 74.246C428.936 74.762 425.651 74.58 425.273 73.968Z" fill="white"/>
</svg>
