<svg width="315" height="320" viewBox="0 0 315 320" fill="none" xmlns="http://www.w3.org/2000/svg">
<path fill-rule="evenodd" clip-rule="evenodd" d="M115.553 319.477C102.919 318.74 94.0473 317.78 79.5533 315.583C69.8703 314.115 68.1593 313.712 67.3113 312.703C65.7173 310.805 64.8603 310.364 64.0593 311.029C63.4503 311.534 62.8463 311.345 60.7283 309.986C52.7143 304.844 45.1213 295.811 39.8203 285.116C34.9103 275.211 33.3963 268.776 32.9753 256.034C32.6743 246.902 32.6843 246.771 33.7893 245.784C34.5893 245.07 35.6443 244.776 37.4813 244.756C38.8953 244.74 41.9653 244.369 44.3033 243.931C48.2673 243.189 50.6993 242.904 65.0273 241.505C68.0383 241.211 70.6433 240.883 70.8163 240.776C70.9883 240.669 70.9603 239.39 70.7533 237.933C70.1283 233.542 70.2733 225.973 71.0433 222.784C72.2463 217.802 72.0973 216.859 69.9453 215.833C66.8133 214.339 64.4733 212.16 62.2313 208.646C59.8543 204.92 58.2843 201.196 57.9683 198.534C57.8543 197.571 57.4483 194.196 57.0663 191.034C55.8043 180.584 55.7283 177.468 56.5373 169.257C58.2493 151.869 60.8573 140.755 66.1513 128.284C69.2653 120.947 74.4473 113.394 81.0233 106.609C87.5563 99.8669 91.9113 97.0129 96.0523 96.7579C99.8923 96.5229 101.42 96.0339 103.053 94.5199C103.878 93.7539 105.565 92.7879 106.803 92.3729C109.477 91.4759 109.481 91.4209 107.35 85.4209C105.006 78.8209 104.016 71.7689 104.729 66.7579C105.045 64.5439 105.303 62.0839 105.303 61.2909C105.303 60.4989 105.721 58.5979 106.232 57.0669C106.743 55.5359 107.434 53.0469 107.767 51.5339C108.496 48.2229 108.906 47.1749 112.41 39.6589C113.787 36.7069 116.831 32.0979 118.242 30.8319C119.838 29.3989 119.517 28.8139 117.804 30.0329C115.52 31.6599 112.611 36.2559 110.051 42.2839C109.583 43.3839 109.01 44.7339 108.777 45.2839C107.483 48.3369 105.303 56.0059 105.303 57.5049C105.303 58.0119 104.934 58.5689 104.483 58.7419C103.749 59.0229 103.699 58.6469 104 55.1699C104.702 47.0619 106.379 40.8389 109.572 34.4939C114.415 24.8699 120.76 17.8659 130.808 11.0539C138.725 5.68691 146.202 2.71191 157.203 0.553906C165.286 -1.03209 183.506 1.0089 186.86 3.8759C187.304 4.2549 189.216 5.00391 191.11 5.53991C195.26 6.71491 204.689 11.4749 207.803 13.9669C212.942 18.0789 217.186 22.9759 219.247 27.1709C228.002 44.9919 230.712 58.4109 228.562 73.2839C227.128 83.1999 221.644 97.2329 217.256 102.218C216.182 103.439 215.303 104.594 215.303 104.786C215.303 104.978 216.782 106.733 218.59 108.685C225.329 115.964 229.277 125.086 229.295 133.419C229.303 136.965 229.331 137.046 230.459 136.763C231.942 136.391 232.542 137.649 233.791 143.747C236.832 158.606 236.108 181.659 232.226 193.534C230.449 198.97 228.114 203.034 226.767 203.034C226.048 203.034 226.22 198.856 227.017 196.948C228.578 193.212 229.445 182.883 229.11 172.034C228.935 166.397 228.557 159.984 228.269 157.784C227.982 155.584 227.581 149.823 227.379 144.981C227.084 137.912 226.841 135.917 226.146 134.856C225.67 134.129 225.097 133.534 224.874 133.534C224.651 133.534 224.486 135.615 224.508 138.159C224.529 140.703 224.241 143.841 223.867 145.134C223.211 147.402 223.249 149.289 224.107 156.948C224.366 159.265 224.257 159.769 223.267 160.823C222.641 161.489 221.745 162.034 221.277 162.034C219.703 162.034 219.455 161.498 215.253 149.034C214.094 145.596 212.262 140.196 211.183 137.034C203.192 113.619 191.856 105.234 181.588 115.146C179.382 117.275 178.462 117.874 177.993 117.484C176.962 116.629 176.634 119.925 176.946 127.985C177.373 138.987 179.586 147.548 185.359 160.534C188.025 166.532 197.28 184.574 198.952 187.034C199.794 188.272 201.229 190.409 202.141 191.784C204.521 195.369 209.104 199.83 211.626 201.016C214.591 202.41 217.82 202.329 220.896 200.784C222.265 200.096 223.536 199.534 223.72 199.534C223.904 199.534 224.579 200.522 225.22 201.73C226.31 203.786 226.336 204.021 225.614 205.415C224.301 207.956 220.855 209.273 215.553 209.262C211.517 209.254 210.711 209.087 207.734 207.645C205.846 206.73 203.247 204.887 201.704 203.368C198.745 200.456 191.547 189.924 188.576 184.159C187.548 182.165 186.446 180.534 186.127 180.534C185.809 180.534 185.293 181.265 184.981 182.159C184.67 183.053 183.96 185.022 183.403 186.534C182.034 190.251 180.508 198.5 179.841 205.784C179.538 209.084 178.961 215.384 178.558 219.784C177.246 234.11 177.081 238.731 177.86 239.348C178.292 239.691 183.165 240.027 190.803 240.241C197.541 240.43 206.653 240.794 211.053 241.05C215.453 241.306 222.653 241.65 227.053 241.814C231.453 241.978 235.651 242.301 236.382 242.531C237.112 242.761 238.565 242.757 239.61 242.521C241.588 242.075 254.54 242.643 264.984 243.633C269.65 244.076 271.101 244.396 271.787 245.132C272.384 245.773 272.856 247.679 273.281 251.176C274.373 260.146 272.348 271.933 268.952 276.382C267.372 278.452 267.306 278.676 268.102 279.258C268.92 279.856 268.919 280.031 268.094 282.555C266.336 287.928 261.722 296.084 256.798 302.524C253.848 306.38 247.348 312.956 245.54 313.913C244.528 314.449 240.118 315.198 232.553 316.119C230.353 316.387 224.722 316.685 220.039 316.781C215.356 316.877 209.731 317.191 207.539 317.478C203.403 318.019 195.274 318.661 181.553 319.53C172.295 320.117 125.878 320.079 115.553 319.477ZM186.803 311.036C215.575 310.106 237.711 308.336 241.183 306.689C244.926 304.913 254.796 292.472 258.878 284.386C261.543 279.106 264.68 270.442 265.72 265.485C266.825 260.22 268.092 250.656 267.732 250.296C267.422 249.986 253.995 249.138 239.903 248.538C233.068 248.247 227.81 247.805 227.18 247.468C225.944 246.807 146.788 247.242 121.053 248.052C112.803 248.312 90.6773 248.666 71.8853 248.838L37.7173 249.153L38.0153 250.218C38.1783 250.804 38.5543 252.972 38.8503 255.034C41.7503 275.272 50.4033 292.267 65.0073 306.409L69.7833 311.034L73.4183 311.083C75.4173 311.111 78.2903 311.319 79.8033 311.546C83.4663 312.096 166.217 311.701 186.803 311.036ZM99.8033 240.003C107.365 239.73 127.373 239.554 144.264 239.612C174.214 239.714 174.985 239.693 175.331 238.75C175.565 238.115 175.366 237.433 174.751 236.758C174.236 236.194 173.578 234.506 173.288 233.008C172.527 229.065 171.411 218.04 171.595 216.284C172.77 205.114 174.016 199.306 177.387 189.284C178.497 185.984 180.282 181.441 181.354 179.189C182.426 176.936 183.303 174.904 183.303 174.673C183.303 174.443 182.49 172.348 181.496 170.019C172.705 149.423 169.521 136.016 171.041 125.992C172.841 114.123 177.294 107.849 185.579 105.508C189.181 104.49 195.076 105.352 199.449 107.536C200.7 108.16 202.062 108.541 202.476 108.383C202.891 108.224 204.916 106.111 206.977 103.687C209.039 101.263 212.203 97.9749 214.01 96.3789C216.839 93.8789 220.303 89.7179 220.303 88.8189C220.303 88.6619 220.078 88.5339 219.803 88.5339C219.528 88.5339 219.303 88.8229 219.303 89.1759C219.303 90.0079 213.928 95.3249 213.51 94.9069C213.335 94.7319 214.363 92.6779 215.796 90.3429C218.598 85.7739 218.494 86.1819 220.643 71.2839C221.539 65.0689 221.104 58.9779 219.197 51.0339C217.263 42.9769 212.337 33.2839 206.803 26.6469C202.496 21.4819 191.245 12.3889 185.63 9.5359C183.782 8.5979 181.677 6.08391 182.011 5.21391C182.186 4.75791 181.879 4.53391 181.078 4.53391C180.422 4.53391 179.473 4.3809 178.969 4.1949C178.465 4.0089 179.178 4.9499 180.553 6.2859C183.609 9.2579 183.244 9.44791 176.264 8.52691C169.742 7.66591 159.736 8.11491 154.665 9.49591C146.633 11.6829 137.797 15.7569 132.48 19.7259C124.38 25.7709 117.793 33.2049 114.497 40.0199C110.97 47.3129 110.768 48.4699 111.013 59.9879C111.234 70.4159 111.672 73.6399 113.705 79.7839C116.352 87.7849 119.203 93.8129 123.032 99.5019C124.006 100.95 124.803 102.536 124.803 103.027C124.803 103.517 125.336 104.268 125.988 104.695C126.639 105.122 128.627 106.705 130.404 108.213L133.636 110.955L136.547 109.994C144.392 107.406 153.39 110.468 156.06 116.634C156.572 117.817 157.291 119.145 157.657 119.585C158.024 120.026 158.653 121.938 159.055 123.835C160.861 132.362 159.236 138.825 153.488 145.965C150.478 149.703 149.977 151.175 152.297 149.459C154.151 148.088 154.81 148.618 153.686 150.577C153.219 151.39 151.903 153.794 150.761 155.92C140.373 175.249 116.446 201.313 101.532 209.545C99.4733 210.682 97.5563 211.535 97.2713 211.44C96.9873 211.345 97.4603 210.484 98.3223 209.526C100.179 207.462 101.535 205.034 100.831 205.034C100.557 205.034 98.8613 206.759 97.0633 208.866C93.5283 213.009 91.7933 214.371 88.3033 215.743C85.2933 216.927 79.0003 218.102 77.5803 217.746C76.0153 217.353 75.8773 218.015 76.4253 223.284C76.6833 225.759 76.7783 230.798 76.6373 234.482L76.3813 241.18L81.2173 240.839C83.8773 240.652 92.2413 240.276 99.8033 240.003ZM89.3033 210.064C90.2663 209.36 91.3493 208.387 91.7123 207.902C92.0743 207.416 93.9863 205.926 95.9623 204.59C101.261 201.006 107.354 195.543 118.579 184.314C127.168 175.723 139.095 162.432 144.686 155.225C146.989 152.255 149.803 147.114 149.803 145.875C149.803 145.291 150.233 143.343 150.759 141.548C152.675 135.012 152.925 133.705 153.106 129.284C153.207 126.809 153.408 124.287 153.551 123.679C153.965 121.926 149.505 117.429 146.576 116.646C139.246 114.685 132.306 117.361 122.803 125.812C120.741 127.647 118.324 129.709 117.433 130.396C116.542 131.083 115.922 131.822 116.055 132.038C116.432 132.647 115.467 134.23 109.553 142.702C106.528 147.035 102.632 152.651 100.895 155.182C94.8793 163.947 92.9013 165.709 91.2763 163.752C90.7353 163.1 91.0243 161.382 93.0213 153.377C97.4723 135.541 100.188 127.736 102.432 126.333C103.098 125.918 103.645 125.97 104.682 126.55C106.589 127.615 106.678 129.935 105.016 135.265C104.278 137.633 103.781 139.678 103.911 139.809C104.042 139.94 106.08 137.513 108.439 134.415C110.799 131.318 114.522 126.738 116.713 124.236C120.643 119.751 128.405 113.034 129.659 113.034C130.689 113.034 130.404 112.121 129.178 111.493C128.559 111.176 127.153 110.079 126.053 109.055C124.953 108.031 123.041 106.616 121.803 105.911C119.487 104.592 114.73 99.5619 113.02 96.6229C111.951 94.7849 112.123 94.7939 106.31 96.2599C102.762 97.1539 99.2333 98.9999 98.1703 100.518C97.7973 101.051 95.2553 103.156 92.5223 105.195C85.4403 110.479 82.8073 112.981 79.9613 117.133C72.8493 127.506 69.2193 137.04 65.7203 154.534C64.6953 159.657 64.5693 161.729 64.5623 173.534C64.5563 182.6 64.7593 187.731 65.2063 189.784C66.0883 193.839 68.2593 201.94 68.9523 203.769C69.7773 205.942 73.7083 209.533 75.2673 209.537C75.9753 209.539 77.2283 209.893 78.0533 210.324C79.1993 210.923 80.3803 211.035 83.0533 210.8L86.5533 210.492L85.1783 211.657C81.8543 214.472 84.8593 213.312 89.3033 210.064ZM217.25 130.435C216.356 128.765 216.094 130.158 216.88 132.405C217.509 134.203 217.544 134.226 217.701 132.934C217.791 132.191 217.588 131.067 217.25 130.435ZM219.754 125.534C220.331 125.534 220.801 125.253 220.798 124.909C220.782 122.838 214.835 113.129 211.863 110.321C210.187 108.737 209.738 108.8 206.805 111.026L205.558 111.973L206.85 113.379C209.202 115.937 211.935 120.356 214.322 125.46L215.807 128.636L217.256 127.085C218.052 126.232 219.176 125.534 219.754 125.534ZM221.703 81.9339C222.33 81.3069 222.537 79.5339 221.983 79.5339C221.502 79.5339 220.337 81.1959 220.319 81.9089C220.299 82.6999 220.926 82.7109 221.703 81.9339ZM286.83 309.813L285.617 308.521L285.691 291.153C285.731 281.6 286.028 266.134 286.35 256.784C287.202 232.032 286.381 216.09 284.055 212.237C283.157 210.748 282.348 210.208 279.545 209.228C274.767 207.557 272.061 207.646 269.158 209.568C266.723 211.181 265.619 212.672 263.269 217.523C261.311 221.566 259.275 222.449 255.629 220.838C254.762 220.455 252.028 219.348 249.553 218.378C241.798 215.337 239.374 214.107 238.495 212.765C237.682 211.525 237.695 211.311 238.783 208.124C240.618 202.751 243.658 196.753 245.328 195.212C246.18 194.427 248.716 192.022 250.965 189.867C258.006 183.122 266.123 180.041 276.803 180.059C287.695 180.079 295.213 182.97 302.09 189.784C307.394 195.039 309.934 200.398 311.806 210.284C313.081 217.016 312.859 251.811 311.485 260.659C311.229 262.306 311.317 262.534 312.21 262.534C312.92 262.534 313.376 263.023 313.727 264.159C314.515 266.713 314.915 291.393 314.281 298.284C313.977 301.584 313.683 305.1 313.627 306.098C313.525 307.939 312.61 309.534 311.656 309.534C311.368 309.534 310.757 309.195 310.3 308.781C309.558 308.11 309.29 308.117 307.821 308.85C305.925 309.796 299.151 310.598 294.053 310.481C292.128 310.436 289.988 310.559 289.298 310.752C288.321 311.027 287.775 310.819 286.83 309.813ZM309.594 304.659C309.417 303.353 309.069 301.272 308.82 300.034C308.22 297.052 307.759 270.49 308.291 269.532C308.519 269.121 308.51 266.759 308.271 264.284C308.032 261.809 307.594 254.947 307.297 249.034C306.282 228.792 305.821 222.752 304.531 212.784C303.99 208.605 301.945 202.453 300.043 199.284C295.608 191.896 289.209 188.161 278.178 186.523C266.366 184.768 252.237 190.252 248.252 198.137C246.841 200.931 244.303 207.919 244.303 209.013C244.303 209.317 244.697 209.696 245.178 209.856C245.659 210.016 248.342 211.021 251.14 212.09C253.938 213.159 256.649 214.034 257.165 214.034C257.782 214.034 258.318 213.437 258.735 212.284C259.65 209.753 263.586 205.953 267.053 204.254C269.679 202.967 270.583 202.787 274.303 202.81C279.049 202.84 280.548 203.403 283.869 206.403C286.01 208.338 287.695 211.187 288.379 214.034C289.82 220.024 290.593 225.195 291.544 235.202C291.697 236.806 292.064 247.606 292.36 259.202C292.656 270.797 293.046 285.909 293.226 292.784L293.553 305.284L296.303 305.674C300.192 306.227 306.252 306.882 308.235 306.964L309.917 307.034L309.594 304.659ZM227.53 234.807C225.998 233.274 225.894 230.461 227.285 228.179C229.051 225.283 234.562 223.382 236.509 224.997C238.405 226.571 236.849 231.573 233.565 234.456C231.335 236.415 229.259 236.535 227.53 234.807ZM232.659 232.134C233.358 231.69 234.803 228.431 234.803 227.3C234.803 226.394 232.742 226.264 231.228 227.074C229.789 227.844 228.573 230.905 229.339 231.828C229.974 232.593 231.687 232.751 232.659 232.134ZM215.136 227.201C214.953 227.017 214.803 226.585 214.803 226.239C214.803 225.398 217.148 222.652 218.47 221.945C219.507 221.39 219.511 221.403 218.667 222.581C218.193 223.243 217.35 224.628 216.794 225.659C215.717 227.657 215.652 227.716 215.136 227.201ZM5.05331 177.194C2.98931 176.654 0.840314 174.527 0.288314 172.479C-0.678686 168.886 0.805314 165.042 4.46131 161.672C8.88831 157.591 14.9623 155.454 24.1003 154.762C31.2613 154.219 33.5033 155.507 27.1783 156.529C22.6983 157.253 15.8793 159.5 12.5533 161.348C8.79531 163.436 4.30331 168.101 4.30331 169.917C4.30331 171.596 5.64131 173.034 7.20331 173.034C9.95631 173.034 13.6823 170.597 19.7043 164.858C24.9803 159.83 27.3033 158.142 27.3033 159.337C27.3033 159.504 25.4253 162.148 23.1313 165.212C18.5873 171.28 15.4713 174.418 12.4663 175.951C10.4013 177.004 6.70131 177.624 5.05331 177.194ZM284.053 136.214C280.753 135.248 277.082 134.253 275.895 134.004C274.707 133.755 273.47 133.386 273.145 133.183C272.397 132.718 270.243 132.976 269.45 133.626C268.809 134.151 267.803 133.781 267.803 133.02C267.803 131.754 278.224 125.376 282.803 123.841C290.577 121.234 297.582 122.045 301.637 126.02C304.48 128.807 304.335 132.655 301.284 135.386C297.706 138.59 292.942 138.818 284.053 136.214ZM296.444 133.361C300.035 131.86 300.06 129.732 296.507 128.012C294.518 127.049 293.665 126.95 289.155 127.158C285.89 127.308 282.95 127.764 280.989 128.423C277.785 129.5 273.303 131.432 273.303 131.736C273.303 131.833 275.272 131.934 277.678 131.961C280.084 131.987 283.853 132.438 286.053 132.963C290.925 134.125 294.308 134.255 296.444 133.361ZM32.4823 116.057C26.7143 114.682 24.1273 108.994 27.2653 104.588C30.4253 100.15 40.0173 99.5789 48.1583 103.345C52.6133 105.405 59.3033 110.922 59.3033 112.535C59.3033 113.179 57.9553 113.184 57.5583 112.542C57.0383 111.7 50.5583 108.041 47.8113 107.037C43.2623 105.374 38.2983 104.764 35.1143 105.477C31.4583 106.295 30.0433 107.43 30.4853 109.191C31.1383 111.791 32.9873 112.197 42.3683 111.796C50.2403 111.459 55.2743 111.729 54.5543 112.45C54.3803 112.624 52.1713 113.142 49.6453 113.602C47.1203 114.061 43.2533 114.906 41.0533 115.48C36.8823 116.567 35.1183 116.686 32.4823 116.057ZM247.521 105.381C247.222 104.603 249.488 98.6199 251.862 93.9169C256.488 84.7529 263.616 79.0339 270.412 79.0339C272.645 79.0339 275.273 80.7959 276.54 83.1429C277.431 84.7929 277.465 85.2039 276.886 87.3679C276.111 90.2649 274.382 92.6359 271.799 94.3459C269.866 95.6249 259.668 100.034 258.641 100.034C257.777 100.034 249.803 104.152 249.803 104.598C249.803 104.819 249.35 105.241 248.796 105.538C248.021 105.953 247.726 105.916 247.521 105.381ZM254.371 99.5749C255.794 98.4979 259.861 96.1009 263.408 94.2479C272.067 89.7259 274.808 86.3709 271.573 84.2509C269.283 82.7509 263.743 84.9889 259.847 88.9889C256.6 92.3229 250.463 101.534 251.489 101.534C251.651 101.534 252.947 100.652 254.371 99.5749ZM227.136 302.701C226.319 301.884 227.107 300.758 231.708 296.173C240.962 286.949 245.671 279.369 248.002 269.946C249.386 264.351 249.536 264.034 250.815 264.034C253.229 264.034 253.298 268.745 250.99 275.855C249.135 281.569 246.147 286.605 240.424 293.662C235.273 300.013 228.831 304.395 227.136 302.701Z" fill="white"/>
</svg>
