<svg width="197" height="198" viewBox="0 0 197 198" fill="none" xmlns="http://www.w3.org/2000/svg">
<path fill-rule="evenodd" clip-rule="evenodd" d="M29.4273 197.282C22.8063 195.129 17.4813 190.492 14.3473 184.151C12.2133 179.833 11.7063 175.993 12.6863 171.559C13.9483 165.843 15.2693 164.035 26.3763 152.816C68.5613 110.206 66.5573 112.123 71.1953 109.945C79.5533 106.02 79.6373 105.922 80.4653 99.024C80.9543 94.96 81.3143 93.689 82.3703 92.303C84.1003 90.036 86.5713 88.566 89.2783 88.195C91.3973 87.905 91.6633 88.022 95.5893 90.98L99.6873 94.068L102.988 90.8C104.803 89.002 106.211 87.324 106.117 87.072C106.022 86.819 99.0913 79.594 90.7153 71.017C82.3383 62.439 75.2263 55.045 74.9103 54.586C74.5943 54.126 74.0403 52.582 73.6783 51.155C73.0093 48.511 73.0623 47.966 74.7153 40.618C75.3213 37.924 75.3293 34.765 74.7333 32.785C74.4793 31.941 74.0033 30.013 73.6733 28.5C72.8003 24.484 69.4433 18.876 65.5583 14.941C59.5443 8.849 49.7273 5 40.2043 5C37.4493 5 35.1953 5.175 35.1953 5.388C35.1953 5.602 36.7913 7.346 38.7433 9.263C40.6943 11.181 44.4893 15.13 47.1773 18.038L52.0633 23.326L51.6593 25.788C51.4363 27.142 51.2413 29.919 51.2253 31.959L51.1953 35.667L44.5703 42.077C40.0203 46.48 37.3973 48.645 36.1953 48.991C35.2333 49.268 32.0263 49.496 29.0703 49.497C24.5473 49.5 23.5563 49.357 22.8203 48.599C20.7943 46.513 11.6713 36.531 9.40326 33.919C8.05126 32.362 6.72026 31.143 6.44526 31.21C5.79226 31.369 5.07426 38.179 5.44026 40.75C5.59626 41.85 5.71826 43.425 5.71226 44.25C5.69826 46.149 7.99026 53.604 9.31226 55.959C12.0343 60.805 16.3063 65.452 20.6953 68.342C23.0423 69.888 27.0293 71.576 30.4453 72.471C33.3703 73.237 40.5843 73.115 44.7873 72.229C51.2743 70.861 54.2323 71.993 60.3653 78.188C67.4723 85.369 77.6953 96.431 77.6953 96.941C77.6953 97.591 74.9883 99.5 74.0673 99.5C73.6693 99.5 69.0113 94.886 63.7163 89.246C58.4213 83.606 53.4943 78.577 52.7673 78.069C50.6903 76.618 49.1573 76.466 44.6473 77.259C39.3023 78.2 32.3343 78.195 28.3163 77.247C19.3863 75.142 11.3933 69.2 6.23526 60.834C1.76726 53.585 0.0962561 47.996 0.00825608 40C-0.0527439 34.407 0.185256 32.971 2.05526 27.685C2.76426 25.679 4.23626 24.5 6.03026 24.5C7.00326 24.5 13.4463 30.749 20.8453 38.871L26.4293 45H30.7783C34.9633 45 35.1643 44.948 36.1173 43.61C36.6613 42.846 39.1203 40.466 41.5813 38.321L46.0563 34.423L46.3923 31.086C46.5763 29.251 46.7763 27.275 46.8363 26.695C46.9143 25.937 44.3783 22.939 37.8203 16.035C29.7043 7.493 28.6953 6.244 28.6953 4.751C28.6953 1.193 31.6013 0 40.2653 0C46.6043 0 50.0993 0.593 55.6953 2.617C63.8333 5.561 71.9013 12.682 75.5863 20.173C78.6953 26.494 80.6623 34.976 79.9763 39.109C79.4783 42.105 78.8173 45.504 78.4193 47.116C77.6303 50.311 76.7953 49.331 103.098 76.093C108.426 81.514 112.21 85.751 112.113 86.187C112.021 86.599 109.879 89.167 107.353 91.892L102.761 96.847L105.75 99.798L108.738 102.75L111.842 99.256C113.548 97.334 118.683 91.822 123.252 87.006C127.821 82.19 133.256 76.338 135.329 74C137.402 71.662 139.964 69.083 141.021 68.268C142.079 67.452 147.086 62.434 152.147 57.116C160.105 48.753 164.195 45.083 164.195 46.305C164.195 46.486 164.626 46.086 165.154 45.416C165.821 44.567 167.679 43.696 171.279 42.544C174.12 41.635 176.934 40.703 177.531 40.473C178.511 40.098 180.149 37.621 183.798 31C184.48 29.763 186.654 26.067 188.629 22.788C190.604 19.509 192.046 16.682 191.833 16.507C191.62 16.332 189.953 14.787 188.13 13.073L184.814 9.956L182.38 11.41C181.041 12.209 176.225 15.313 171.678 18.307C167.13 21.301 162.968 23.999 162.428 24.303C161.752 24.684 161.344 25.62 161.121 27.303C160.456 32.318 158.531 38.124 156.723 40.57C156.109 41.4 150.055 47.743 143.271 54.665C136.486 61.587 128.869 69.388 126.345 72C122.095 76.398 118.695 79.128 118.695 78.143C118.695 77.915 119.692 76.026 120.91 73.945C123.069 70.256 130.25 62.354 147.632 44.535C150.967 41.117 153.695 37.916 153.695 37.42C153.695 36.925 154.012 35.672 154.399 34.635C154.786 33.598 155.621 30.612 156.255 28C156.888 25.388 157.734 22.854 158.133 22.37C158.533 21.885 162.816 18.98 167.652 15.913C172.488 12.846 178.309 9.136 180.587 7.668C182.865 6.201 185.115 5.005 185.587 5.011C186.059 5.016 188.639 7.137 191.32 9.723C195.57 13.821 196.195 14.637 196.193 16.087C196.192 17.002 195.781 18.425 195.28 19.25C194.78 20.075 193.399 22.55 192.212 24.75C191.026 26.95 189.892 28.975 189.692 29.25C189.493 29.525 187.903 32.524 186.16 35.913C183.104 41.855 180.598 45 178.921 45C178.514 45 177.791 45.201 177.313 45.446C176.836 45.691 174.42 46.508 171.945 47.262C169.47 48.015 167.097 48.771 166.671 48.941C165.911 49.244 146.071 69.627 129.487 87.14L121.069 96.03L128.296 103.39C153.694 129.253 176.759 152.599 182.035 157.784C187.161 162.821 188.442 164.39 189.79 167.284C191.247 170.409 191.407 171.217 191.424 175.5C191.448 181.294 190.656 183.511 187.17 187.423C185.809 188.95 184.695 190.369 184.695 190.576C184.695 191.361 180.267 193.953 177.212 194.955C173.542 196.16 171.556 196.23 167.638 195.293C161.903 193.922 160.181 192.323 137.713 167.522C132.635 161.917 126.335 155.043 123.713 152.247C112.585 140.383 104.195 130.767 104.195 129.877C104.195 129.633 104.662 129.581 105.232 129.762C105.932 129.984 106.481 129.8 106.925 129.193C107.546 128.344 107.679 128.369 109.368 129.658C110.351 130.407 112.233 132.269 113.55 133.796C114.867 135.322 116.662 137.015 117.538 137.557C118.415 138.099 119.899 139.602 120.837 140.896C122.4 143.054 127.02 148.175 148.405 171.458C152.552 175.973 157.408 181.272 159.195 183.234C163.544 188.008 165.284 189.31 168.612 190.277C171.75 191.189 174.24 190.981 177.424 189.54C183.862 186.626 186.47 182.551 186.407 175.5C186.379 172.334 186.124 170.779 185.407 169.403C184.878 168.387 171.832 154.775 156.415 139.153C126.361 108.698 119.673 101.819 119.045 100.707C118.825 100.318 118.368 100 118.028 100C117.386 100 112.195 105.015 112.195 105.635C112.195 105.991 112.813 106.808 115.284 109.721C118.912 113.999 118.793 118.119 114.933 121.831C112.801 123.881 112.214 124.106 105.937 125.273C105.382 125.376 104.002 126.172 102.871 127.042C100.645 128.752 99.2043 131.506 97.1383 137.998C95.9823 141.63 95.7293 141.97 88.9453 149.008C85.0953 153.002 78.0003 160.54 73.1783 165.76C68.3563 170.979 63.8903 175.812 63.2553 176.5C45.7913 195.396 45.0863 196.034 40.4453 197.144C37.1893 197.922 31.6123 197.992 29.4273 197.282ZM36.1953 191.827C36.1953 191.064 31.3423 185.074 27.5053 181.099C24.1273 177.601 18.3593 173.636 17.6623 174.333C17.3033 174.692 17.3383 175.91 17.7743 178.276C18.8703 184.227 22.9283 188.99 29.0003 191.454C31.8933 192.627 36.1953 192.85 36.1953 191.827ZM44.2963 189.928C45.0733 189.375 47.3213 187.084 49.2913 184.836C53.1863 180.395 77.5533 154.269 86.4463 145C91.6303 139.597 92.0363 139.024 93.1723 135.5C95.7643 127.457 98.5253 123.707 103.533 121.429C105.232 120.656 106.768 119.786 106.947 119.496C107.135 119.192 107.964 119.099 108.905 119.276C110.31 119.539 110.723 119.361 111.866 118.002C112.597 117.134 113.195 116.24 113.195 116.017C113.195 114.934 108.191 109.121 102.39 103.467C96.2513 97.482 90.5463 93 89.0663 93C88.6903 93 87.7243 93.687 86.9193 94.527C85.6393 95.863 85.4213 96.533 85.1673 99.902C84.6413 106.896 82.5393 109.445 73.5763 113.958C68.4133 116.557 67.0553 117.494 64.9753 119.897C63.6173 121.466 52.8303 132.585 41.0043 144.604C29.1783 156.624 19.2163 166.974 18.8663 167.604C17.7973 169.531 18.0513 170.389 19.8043 170.774C20.6883 170.968 21.8663 171.38 22.4213 171.689C24.1303 172.639 29.1953 176.538 29.1973 176.904C29.1983 177.094 31.1673 179.287 33.5723 181.777C37.8583 186.215 38.6483 187.298 39.6923 190.177C40.1383 191.407 40.3953 191.558 41.5473 191.269C42.2823 191.085 43.5193 190.481 44.2963 189.928ZM168.602 183.321C163.087 181.605 160.994 174.889 164.668 170.704C165.508 169.748 166.195 168.753 166.195 168.493C166.195 167.808 169.944 166 171.364 166C175.243 166 178.945 169.575 179.477 173.835C179.762 176.115 179.619 176.896 178.49 179.203C177.422 181.386 176.743 182.103 174.938 182.951C172.475 184.109 171.344 184.175 168.602 183.321ZM174.968 178.273C176.784 176.457 176.633 174.047 174.578 172.037C173.134 170.626 172.69 170.472 170.453 170.603C168.124 170.74 167.874 170.884 166.945 172.625L165.945 174.5L166.945 176.363C168.698 179.63 172.666 180.574 174.968 178.273ZM62.1953 72.053C62.1953 70.998 63.4903 70.264 63.9733 71.046C64.4443 71.807 63.8253 73 62.9613 73C62.5403 73 62.1953 72.574 62.1953 72.053ZM55.9793 67.554C55.4683 66.728 61.3623 62.001 62.0483 62.686C62.5043 63.143 61.7673 65.274 60.6703 66.669C59.9063 67.64 59.1673 68 57.9383 68C57.0123 68 56.1303 67.799 55.9793 67.554ZM64.9663 63.375C65.0283 61.931 65.1053 60.581 65.1373 60.375C65.3383 59.075 68.1953 61.582 68.1953 63.058C68.1953 63.86 66.0213 66 65.2073 66C65.0133 66 64.9043 64.819 64.9663 63.375ZM11.9513 50.316C11.0153 49.632 11.0593 46.954 12.0123 46.641C12.8753 46.358 14.1953 47.926 14.1953 49.232C14.1953 50.633 13.1043 51.159 11.9513 50.316ZM44.5283 177.167C44.3453 176.983 44.2003 176.252 44.2073 175.542C44.2163 174.572 46.1473 172.195 51.9593 166C56.2163 161.463 62.6113 154.6 66.1713 150.75C79.2153 136.641 82.4963 133.388 83.4873 133.579C85.0433 133.879 84.8493 135.221 82.9133 137.551C80.9333 139.934 68.6903 153.319 61.4453 161.021C58.9703 163.652 54.5103 168.436 51.5343 171.652C46.4703 177.126 45.3613 177.999 44.5283 177.167ZM32.5283 166.167C31.5633 165.201 32.7093 163.457 37.8173 158.122C40.9093 154.892 45.3533 150.241 47.6923 147.786C66.1113 128.455 72.0863 122.5 73.0633 122.5C73.9583 122.5 74.3713 123.729 73.9893 125.252C73.7223 126.317 51.4993 149.859 38.7103 162.625C35.1683 166.16 33.4863 167.124 32.5283 166.167ZM101.653 118.458C101.14 117.945 100.583 116.901 100.416 116.138C100.248 115.374 100.039 114.505 99.9493 114.205C99.6503 113.195 100.542 112.384 101.586 112.716C102.633 113.048 106.695 117.158 106.695 117.886C106.695 118.11 105.77 118.54 104.64 118.842C102.852 119.319 102.464 119.269 101.653 118.458ZM96.5723 111.06C95.9063 110.268 94.9023 109.474 94.3413 109.296C92.8973 108.838 88.1953 103.286 88.1953 102.039C88.1953 100.02 89.8373 101.032 94.7473 106.078C98.6233 110.061 99.5683 111.301 99.1303 111.828C98.3283 112.795 97.9323 112.676 96.5723 111.06Z" fill="white"/>
</svg>
