<svg width="399" height="179" viewBox="0 0 399 179" fill="none" xmlns="http://www.w3.org/2000/svg">
<path fill-rule="evenodd" clip-rule="evenodd" d="M20.3336 177.426C15.3446 176.657 13.8356 176.222 10.8196 174.686C4.32158 171.376 1.82458 167.178 0.317576 157.034C-0.789424 149.584 1.00958 143.46 5.52758 139.296C7.14858 137.802 8.24458 137.191 9.30558 137.191C10.1276 137.191 11.6166 136.801 12.6156 136.325C14.4246 135.462 14.4306 135.449 14.1046 132.99C13.9236 131.632 13.4466 129.265 13.0426 127.731C12.3366 125.047 11.8936 122.487 10.8336 114.941C10.5626 113.016 10.1136 109.978 9.83358 108.191C8.86458 101.984 7.83657 89.9119 7.83457 84.7259C7.83457 81.8589 7.57557 78.7989 7.26057 77.9269C6.94557 77.0549 6.82557 75.7909 6.99457 75.1169C7.39257 73.5319 9.73658 70.4979 11.3336 69.4999C14.1366 67.7489 14.0626 68.0099 12.6006 65.0199C9.56957 58.8259 8.14158 49.0989 9.37958 43.0909C11.5546 32.5369 17.2856 24.6369 27.0286 18.7609C31.2986 16.1849 36.4956 14.5669 42.4586 13.9569C45.2756 13.6689 45.8336 13.7349 45.8336 14.3599C45.8336 14.7709 45.5526 15.2239 45.2086 15.3659C44.4396 15.6829 47.3716 15.2829 50.0836 14.7009C56.0736 13.4149 66.7466 13.0389 80.8776 13.6169C106.12 14.6489 119.233 12.9109 133.185 6.68492C139.011 4.08392 141.063 2.87392 141.672 1.67792C142.475 0.100921 143.524 -0.40408 144.469 0.33192C146.6 1.99192 149.246 15.7999 148.654 22.1719C148.015 29.0489 144.645 38.0869 141.921 40.2299C140.753 41.1489 139.523 41.0989 140.105 40.1559C140.827 38.9899 138.945 39.9129 135.731 42.3019L132.219 44.9139L133.777 46.2139C135.572 47.7119 135.761 49.1489 134.334 50.4409C133.056 51.5979 133.064 52.1909 134.358 52.1909C135.844 52.1909 140.685 55.4349 141.087 56.6999C141.275 57.2929 141.284 58.5519 141.106 59.4979C140.859 60.8139 141.025 61.5259 141.809 62.5219C142.373 63.2389 142.834 64.5279 142.834 65.3869C142.834 66.2449 143.061 67.7339 143.339 68.6939C144.617 73.1139 145.427 83.2229 145.694 98.1029L145.975 113.765L148.53 113.443C150.973 113.135 156.616 112.04 160.334 111.153C161.297 110.924 162.759 110.589 163.584 110.409C166.663 109.739 186.688 103.961 190.334 102.691C191.022 102.452 193.947 101.551 196.834 100.69C202.343 99.0479 210.046 96.6919 215.042 95.1209C216.668 94.6099 218.243 94.1909 218.542 94.1909C218.84 94.1909 221.896 93.3159 225.334 92.2459C231.208 90.4169 236.824 88.7639 240.834 87.6829C245.87 86.3259 250.427 85.0629 253.334 84.2179C257.731 82.9409 271.754 79.5519 282.334 77.2099C284.947 76.6309 288.04 75.9409 289.209 75.6749C294.556 74.4579 295.937 74.1749 301.334 73.1879C316.945 70.3359 325.215 69.1259 337.334 67.9229C346.238 67.0389 358.284 66.9619 360.074 67.7769C361.059 68.2259 361.499 68.2259 361.948 67.7769C362.632 67.0929 368.411 66.9809 369.109 67.6389C369.37 67.8849 372.284 68.1939 375.584 68.3249C382.569 68.6019 385.684 69.4639 390.165 72.3559C396.264 76.2939 398.834 81.4329 398.834 89.6939C398.834 95.2929 398.214 97.5709 396.513 98.2179C395.498 98.6039 395.403 98.8149 395.892 99.5979C397.177 101.656 393.081 105.935 387.977 107.868C383.898 109.413 382.008 109.837 368.584 112.217C365.284 112.802 360.784 113.624 358.584 114.045C349.925 115.699 347.74 116.091 332.584 118.71C325.984 119.85 317.884 121.197 314.584 121.704C311.284 122.21 304.197 123.305 298.834 124.138C288.977 125.668 280.79 126.846 260.334 129.678C254.146 130.535 245.934 131.676 242.084 132.213C234.225 133.31 229.662 133.91 223.084 134.712C220.609 135.014 217.346 135.461 215.834 135.705C214.322 135.95 211.284 136.387 209.084 136.676C184.625 139.891 173.331 142.045 164.301 145.214C162.77 145.751 161.282 146.191 160.994 146.191C160.706 146.191 157.458 148.192 153.777 150.638C143.461 157.493 138.529 159.879 126.707 163.737C120.251 165.843 106.999 169.197 99.3336 170.663C97.8216 170.953 94.3336 171.627 91.5836 172.162C80.3806 174.339 70.0126 175.758 58.5836 176.676C54.7336 176.986 49.3816 177.453 46.6906 177.715C39.9196 178.374 25.4496 178.215 20.3336 177.426ZM55.3996 169.682C57.7006 169.406 61.6086 168.944 64.0836 168.656C68.6666 168.123 72.9046 167.517 77.8336 166.691C79.3456 166.437 82.1586 165.984 84.0836 165.684C86.0086 165.384 88.4836 164.944 89.5836 164.705C90.6836 164.467 92.9336 164.011 94.5836 163.691C100.53 162.539 105.951 161.311 113.584 159.386C119.682 157.849 125.035 156.198 132.084 153.682C135.376 152.507 143.125 148.715 148.286 145.752C151.384 143.974 153.686 142.735 157.834 140.613C159.84 139.588 167.237 136.866 169.834 136.198C170.797 135.95 172.484 135.507 173.584 135.213C174.684 134.919 176.709 134.434 178.084 134.134C179.459 133.835 181.371 133.415 182.334 133.201C186.154 132.351 191.749 131.25 194.834 130.741C206.814 128.765 218.384 126.949 230.084 125.209C237.509 124.105 245.834 122.858 248.584 122.437C251.334 122.017 257.409 121.108 262.084 120.418C266.759 119.728 272.665 118.832 275.209 118.427C277.753 118.022 282.028 117.345 284.709 116.922C287.39 116.499 292.396 115.705 295.834 115.157C305.759 113.575 313.35 112.402 318.084 111.72C321.4 111.242 331.539 109.706 338.084 108.691C343.657 107.827 353.295 106.396 361.584 105.203C365.991 104.569 371.238 103.716 374.084 103.173C375.459 102.911 377.983 102.472 379.693 102.198C382.785 101.702 388.362 99.7029 389.878 98.5469C391.646 97.1979 392.151 87.9609 390.667 84.0849C389.383 80.7289 385.366 77.2149 380.479 75.1729C374.907 72.8449 371.972 72.1519 369.208 72.5109C367.85 72.6879 365.896 72.5579 364.648 72.2089C362.835 71.7009 362.22 71.7219 361.024 72.3319C359.674 73.0199 356.75 73.4289 343.834 74.7349C335.297 75.5989 324.028 77.2839 304.084 80.6779C298.084 81.6989 286.961 83.9689 279.084 85.7789C276.334 86.4119 272.79 86.8999 271.209 86.8649C269.628 86.8309 268.334 87.0019 268.334 87.2469C268.334 87.4909 267.821 87.6909 267.193 87.6909C266.566 87.6909 263.247 88.4799 259.818 89.4449C256.389 90.4089 252.796 91.4109 251.834 91.6719C250.872 91.9329 248.622 92.5789 246.834 93.1089C243.172 94.1949 236.903 95.7479 231.359 96.9449C229.311 97.3869 225.711 98.4249 223.359 99.2519C221.008 100.079 216.159 101.625 212.584 102.688C209.009 103.75 203.721 105.327 200.834 106.191C188.746 109.809 185.406 110.799 182.084 111.748C180.159 112.298 177.909 112.952 177.084 113.201C166.819 116.299 157.409 117.991 148.584 118.327L145.584 118.441L145.421 120.153C145.331 121.094 145.53 122.373 145.862 122.994C146.195 123.615 146.331 124.477 146.166 124.909C145.373 126.974 132.799 133.627 125.834 135.666C124.596 136.028 122.346 136.723 120.834 137.21C113.749 139.49 111.178 140.199 103.834 141.9C97.9316 143.267 80.4246 146.543 74.3336 147.421C67.5326 148.401 62.8906 148.958 49.4056 150.415C40.4576 151.382 26.5386 151.434 23.0836 150.513C20.2116 149.748 18.1946 148.745 16.1406 147.061C14.9116 146.052 14.6536 145.405 14.3906 142.68L14.0836 139.483L10.8336 142.246C7.93558 144.708 7.53457 145.274 7.13457 147.459C6.25757 152.246 8.31057 162.155 10.7446 164.881C13.1536 167.579 17.6326 169.257 24.8606 170.168C29.2586 170.723 49.4136 170.402 55.3996 169.682ZM54.8336 143.656C68.1166 142.729 77.8146 141.328 96.3336 137.661C97.8456 137.361 99.8706 136.922 100.834 136.685C101.797 136.448 103.596 136.024 104.834 135.742C120.39 132.199 131.719 128.791 139.025 125.455L142.965 123.656L142.634 121.299C142.451 120.002 142.084 116.691 141.819 113.941C141.553 111.191 141.104 106.578 140.82 103.691C139.492 90.1889 138.46 77.8959 138.005 70.1749C137.752 65.8719 137.843 64.6239 138.502 63.3499C139.21 61.9809 139.218 61.7169 138.571 61.1799C138.166 60.8439 137.834 60.2849 137.834 59.9379C137.834 59.5909 137.328 59.1899 136.709 59.0459C136.09 58.9019 134.121 58.4239 132.334 57.9839C124.225 55.9889 124.223 55.9889 120.084 57.7569C117.991 58.6509 114.516 59.8209 112.834 60.1979C102.651 62.4799 98.5146 62.9119 69.5836 64.7179C59.1796 65.3679 49.0296 66.3799 39.9536 67.6739C34.0796 68.5109 32.9476 68.5529 32.0496 67.9649C31.3846 67.5289 30.7426 67.4409 30.2926 67.7229C29.9026 67.9679 27.7836 68.8829 25.5836 69.7559C23.3836 70.6299 20.9086 71.8379 20.0836 72.4409C19.2586 73.0429 17.7966 73.9179 16.8336 74.3839C15.8706 74.8499 14.2096 75.9789 13.1416 76.8919L11.1986 78.5539L11.9716 80.7479C12.7256 82.8889 13.2976 86.0809 14.2896 93.6909C16.0026 106.817 16.6756 114.563 17.1166 126.191C17.3516 132.405 17.6106 134.645 18.1656 135.268C18.7776 135.956 18.7926 136.27 18.2556 137.13C17.6706 138.066 17.8276 138.378 19.8896 140.382C22.7996 143.211 24.6586 143.772 32.3336 144.141C39.6666 144.493 44.2736 144.394 54.8336 143.656ZM34.1126 66.4149C35.0456 65.6689 35.0346 65.6519 33.8336 65.9709C32.2906 66.3809 31.3316 67.1909 32.3876 67.1909C32.8026 67.1909 33.5796 66.8419 34.1126 66.4149ZM21.3336 65.1449C22.8466 64.5699 27.4586 63.2489 31.5836 62.2089C45.2776 58.7559 51.6416 57.9519 83.3336 55.6689C102.82 54.2649 114.709 52.3579 120.834 49.6529C122.896 48.7419 126.203 46.9789 128.182 45.7339C131.199 43.8349 132.205 42.8239 134.424 39.4619C137.444 34.8839 140.418 27.8809 141.596 22.5739C142.448 18.7339 143.182 6.81892 142.651 5.43592C142.404 4.79192 141.676 5.28492 139.191 7.77992C133.327 13.6689 124.073 17.9059 113.334 19.6189C102.379 21.3659 93.5806 21.4699 74.0836 20.0819C69.1336 19.7289 59.5396 19.4549 52.7626 19.4729C41.4636 19.5019 40.3236 19.5849 39.0126 20.4669C38.2266 20.9959 35.8956 22.2949 33.8336 23.3529C23.8086 28.4959 18.3236 35.2689 15.8296 45.5849C14.4746 51.1909 14.6346 56.1509 16.3406 61.4409C16.9626 63.3659 17.5446 65.2219 17.6366 65.5659C17.8566 66.3969 18.1196 66.3669 21.3336 65.1449ZM38.0386 134.177C36.5556 133.617 36.0626 131.887 35.1176 123.941C34.6606 120.091 34.0916 115.703 33.8546 114.191C32.3016 104.289 31.8436 100.492 31.2756 92.8019L30.6386 84.1639L31.7666 83.0519L32.8946 81.9409L33.7496 82.9799C34.2196 83.5509 34.8786 85.6879 35.2146 87.7299C37.2236 99.9229 37.8796 104.679 38.3556 110.469C38.9246 117.398 39.3206 120.401 40.5796 127.35C41.0196 129.775 41.2416 132.194 41.0726 132.726C40.6616 134.02 39.3196 134.662 38.0386 134.177ZM60.1316 130.108C59.6926 129.481 59.3336 128.359 59.3336 127.615C59.3336 126.87 58.6786 122.026 57.8786 116.851C55.8466 103.714 54.9556 97.0789 54.0996 88.7079C53.4436 82.2939 53.4446 81.3459 54.1086 80.3329C55.0576 78.8849 56.1116 78.8789 57.0276 80.3159C58.3036 82.3169 61.1376 101.566 62.3466 116.441C62.5926 119.466 63.1286 123.396 63.5386 125.174C64.1356 127.761 64.1636 128.661 63.6796 129.674C62.8746 131.358 61.1546 131.569 60.1316 130.108ZM82.4186 125.816C81.7296 124.477 78.2526 102.511 76.8586 90.6909C76.1056 84.3069 76.0926 77.8329 76.8306 76.9439C77.6206 75.9929 79.0326 75.9749 79.8056 76.9069C80.8286 78.1399 82.9046 93.4519 84.3526 110.441C84.6336 113.741 85.0886 118.15 85.3626 120.239C85.6366 122.327 85.7026 124.465 85.5086 124.989C84.8366 126.806 83.1596 127.255 82.4186 125.816ZM103.507 122.283C102.725 121.778 101.103 112.971 99.8066 102.196C99.5256 99.8619 99.0766 96.4869 98.8076 94.6959C97.9246 88.8069 97.3226 75.0569 97.9156 74.3419C98.8386 73.2299 100.319 73.5899 100.897 75.0659C101.604 76.8729 102.594 83.9819 104.085 97.9409C104.874 105.33 105.112 121.96 104.435 122.379C104.216 122.514 103.798 122.471 103.507 122.283ZM122.844 118.209C122.349 117.285 119.548 96.2369 118.384 84.6909C117.71 78.0169 117.542 71.5669 118.022 70.7919C118.539 69.9539 120.088 70.0419 120.843 70.9509C121.679 71.9589 123.135 79.8259 124.033 88.1909C124.877 96.0469 125.615 116.519 125.111 118.106C124.682 119.458 123.54 119.51 122.844 118.209Z" fill="white"/>
</svg>
