<svg width="155" height="223" viewBox="0 0 155 223" fill="none" xmlns="http://www.w3.org/2000/svg">
<path fill-rule="evenodd" clip-rule="evenodd" d="M0.902843 221.769C-1.18116 220.555 0.564823 218.811 3.86982 218.806C4.91882 218.805 6.56584 218.594 7.52784 218.338C8.48984 218.082 11.5278 217.749 14.2778 217.598C17.0278 217.448 22.4278 217.094 26.2778 216.813C37.0278 216.028 59.5539 215.531 71.7719 215.809C81.7289 216.035 82.7818 216.141 82.9338 216.934C83.0358 217.468 82.7938 217.809 82.3148 217.809C81.8818 217.809 81.5278 218.034 81.5278 218.309C81.5278 218.584 81.7398 218.809 81.9978 218.809C82.2568 218.809 82.6078 218.584 82.7778 218.309C82.9478 218.034 84.4799 217.807 86.1829 217.805C87.8849 217.804 91.4158 217.457 94.0278 217.036C101.306 215.862 133.059 215.509 144.954 216.47C153.999 217.2 155.727 217.607 154.415 218.695C153.805 219.201 151.49 219.501 138.132 220.807C129.736 221.627 101.332 222.42 89.1238 222.176C80.2388 221.998 77.2358 221.765 75.2778 221.102C72.6088 220.198 73.4428 220.18 41.5278 221.818C29.0638 222.458 2.02884 222.425 0.902843 221.769ZM106.645 210.514C102.168 208.944 100.329 207.327 98.1508 203.044C96.7028 200.195 87.5419 173.243 85.2899 165.207C84.6019 162.753 78.1048 154.498 71.0078 147.059C66.2958 142.12 61.1519 135.932 59.6829 133.434C58.9949 132.265 58.2598 131.416 58.0488 131.546C57.8378 131.676 57.3878 132.858 57.0488 134.171C56.7098 135.484 56.2458 137.121 56.0178 137.809C55.7888 138.497 54.8899 141.647 54.0189 144.809C50.6429 157.062 50.1998 158.086 44.7138 166.309C41.8708 170.571 37.2718 177.209 34.4938 181.059C26.9688 191.488 26.5768 192.528 28.5958 196.7C29.7548 199.094 32.0289 200.804 34.0559 200.807C35.7219 200.81 38.2238 198.933 40.1668 196.224C41.0208 195.033 42.6329 193.027 43.7489 191.766C44.8649 190.505 47.2959 187.468 49.1519 185.016C51.0069 182.565 54.7658 177.634 57.5028 174.059C62.7208 167.245 63.3568 166.176 66.2438 159.351C68.2518 154.604 69.2169 153.306 70.7299 153.317C73.4939 153.337 73.5698 154.777 71.1748 161.809C68.8318 168.693 66.8918 171.814 57.5278 183.773C55.1908 186.759 52.5538 190.182 51.6688 191.38C47.9318 196.443 41.5548 203.664 39.6188 205.027C36.9358 206.915 32.5708 207.374 29.9898 206.039C25.4028 203.667 22.0718 199.333 21.2438 194.659C20.6238 191.159 22.0608 188.243 29.5488 177.809C36.5618 168.038 37.9498 166.082 41.7398 160.625C45.2388 155.588 45.5229 155.088 45.5249 153.958C45.5269 153.352 45.7329 152.339 45.9829 151.708C46.2339 151.076 47.3779 147.071 48.5269 142.809C49.6759 138.547 51.3558 132.359 52.2598 129.059C53.7758 123.522 53.8828 122.643 53.6488 117.673C53.5098 114.711 53.6369 110.998 53.9309 109.423C54.2249 107.848 54.7418 104.871 55.0798 102.809C55.4178 100.747 56.2029 96.4708 56.8239 93.3088C57.4449 90.1468 57.7929 87.3938 57.5979 87.1918C56.9999 86.5718 53.5208 89.4078 53.2048 90.7728C53.0418 91.4798 51.9368 94.0838 50.7498 96.5588C49.5628 99.0338 47.6638 103.514 46.5308 106.515C45.3978 109.515 44.1668 112.556 43.7968 113.271C43.4278 113.987 42.9598 115.694 42.7578 117.066C42.1008 121.54 36.5948 125.797 32.5198 124.982C30.5878 124.596 27.6898 122.086 26.5128 119.781C25.3378 117.476 25.2819 115.506 26.2879 111.809C26.6989 110.297 27.4969 106.809 28.0609 104.059C31.3289 88.1148 33.9758 78.7218 35.9768 75.9588C38.0938 73.0368 56.7898 57.0148 65.5278 50.6338C69.0768 48.0418 75.5568 45.8088 79.5278 45.8088C84.5998 45.8088 90.9468 48.6128 94.7938 52.5528C98.2568 56.1008 99.4238 58.2328 103.739 68.9078C108.83 81.5028 111.305 87.1278 112.372 88.5238C113.517 90.0238 124.651 99.2838 129.263 102.573C134.141 106.052 135.759 107.837 136.733 110.816C137.515 113.206 137.518 113.581 136.776 115.816C135.764 118.863 132.408 122.099 129.741 122.599C127.309 123.055 125.389 122.344 119.778 118.908C115.732 116.43 112.79 114.696 107.567 111.708C104.926 110.197 100.301 106.991 99.6758 106.237C98.8168 105.201 95.5278 99.2728 95.5278 98.7608C95.5278 97.7168 97.0838 98.4338 98.3818 100.076C99.8518 101.937 105.128 105.257 114.278 110.08C117.303 111.675 121.207 113.841 122.954 114.894C126.689 117.146 128.833 117.363 130.441 115.652C133.099 112.823 132.176 111.749 118.042 101.222C109.877 95.1408 107.654 92.6888 104.748 86.5588C103.314 83.5338 101.235 78.8088 100.128 76.0588C96.7548 67.6818 93.1098 59.7298 91.7258 57.7338C89.9428 55.1608 87.5669 53.4408 84.1959 52.2808C78.7819 50.4178 74.2489 51.3498 67.9519 55.6208C63.1949 58.8478 47.0499 72.3538 42.8239 76.6428C40.0879 79.4198 39.6038 80.2008 39.0758 82.6948C38.7418 84.2698 38.2828 86.1208 38.0568 86.8088C37.4438 88.6638 36.6929 91.5518 35.5869 96.3088C35.0429 98.6468 33.9068 103.503 33.0628 107.1C31.3728 114.301 31.2499 115.651 32.1079 117.535C32.5799 118.571 33.0389 118.809 34.5639 118.809C36.8309 118.809 38.4589 117.142 39.4779 113.777C42.1549 104.939 46.9149 91.5548 48.7799 87.6258C49.5969 85.9048 52.2869 83.9778 59.2099 80.1558C63.2009 77.9528 63.7198 77.7858 64.4128 78.4788C65.1058 79.1728 65.0219 80.1858 63.5709 88.6538C59.4739 112.567 59.1718 116.036 60.6878 121.809C62.2008 127.572 64.2578 130.848 71.2308 138.6C80.4238 148.82 90.5278 160.851 90.5278 161.579C90.5278 162.468 96.0388 179.429 100.106 191.059C102.376 197.55 104.037 201.516 104.84 202.362C106.336 203.938 109.476 205.056 111.195 204.625C113.262 204.106 115.464 201.911 115.819 200.015C116.177 198.107 116.277 198.535 111 179.309C108.999 172.022 106.634 163.222 105.743 159.753C104.031 153.09 103.437 151.907 96.3659 141.059C89.3659 130.32 86.6158 126.012 86.0338 124.873C85.3808 123.595 85.5889 117.82 86.4329 113.809C86.6929 112.571 87.2858 109.647 87.7498 107.309C88.9858 101.081 90.6108 94.2068 92.0048 89.3088C92.2008 88.6208 92.7668 87.9798 93.2628 87.8838C94.1158 87.7188 94.1468 88.1988 93.8198 96.6338C93.4748 105.563 93.0299 110.706 91.9799 117.884C91.4289 121.658 91.4408 121.746 92.8928 124.392C93.7028 125.867 97.2798 131.459 100.841 136.817C109.87 150.4 109.479 149.637 111.561 157.742C112.595 161.766 114.499 168.884 115.792 173.559C120.071 189.032 122.026 197.034 122.027 199.086C122.029 203.247 118.175 208.66 114.006 210.35C111.288 211.452 109.439 211.493 106.645 210.514ZM84.0278 42.3088C83.6148 42.0418 82.7288 41.8208 82.0568 41.8168C80.2778 41.8058 74.5448 38.2308 72.1658 35.6498C69.8448 33.1328 68.8338 31.3548 67.4728 27.3988C65.2778 21.0188 67.3008 12.8618 72.4818 7.20079C79.0448 0.0287895 88.0598 -1.94321 96.2778 1.99579C103.681 5.54379 108.504 13.1058 108.522 21.1928C108.53 24.6998 106.782 31.1058 105.183 33.4308C101.264 39.1308 94.5508 42.7948 88.0278 42.7938C86.2398 42.7938 84.4408 42.5758 84.0278 42.3088ZM93.8928 35.7668C97.8198 33.7648 100.48 30.4428 101.814 25.8748C103.821 18.9988 100.238 10.4798 94.0739 7.47079C93.0099 6.95179 90.7118 6.51579 88.4348 6.39979C85.1438 6.23379 84.2108 6.38379 81.9348 7.44379C77.6278 9.44979 75.2248 12.3558 73.2988 17.8878C71.8558 22.0298 72.5108 26.1408 75.3278 30.6248C79.5948 37.4168 86.7628 39.4028 93.8928 35.7668Z" fill="white"/>
</svg>
