<svg width="260" height="203" viewBox="0 0 260 203" fill="none" xmlns="http://www.w3.org/2000/svg">
<path fill-rule="evenodd" clip-rule="evenodd" d="M70.8057 202.065C70.2087 201.717 69.9307 200.935 69.9307 199.599C69.9307 197.772 70.1217 197.515 72.8057 195.727C74.3867 194.674 77.1427 193.061 78.9307 192.143C82.3287 190.398 83.8016 189.309 83.3596 188.867C83.2156 188.724 80.6187 188.806 77.5867 189.049C74.4327 189.303 70.0657 189.306 67.3777 189.058C64.7947 188.819 60.0937 188.385 56.9307 188.093C37.0387 186.256 27.6357 185.058 24.8087 184C23.1307 183.372 20.2467 184.434 8.06568 190.168C3.48268 192.326 1.97566 192.536 0.757664 191.191C-1.69034 188.485 1.53967 185.701 14.1807 179.624C23.3287 175.226 29.4527 172.664 34.1807 171.258C35.5557 170.848 37.4687 170.172 38.4307 169.755C39.3927 169.338 41.7557 168.558 43.6807 168.022C48.9947 166.542 49.8977 166.278 53.6807 165.095C55.6057 164.493 58.1477 163.888 59.3297 163.751C61.9237 163.449 61.8737 162.544 59.2337 161.995C52.9567 160.691 43.4447 156.5 38.8387 153.009C35.3527 150.367 29.2127 143.756 27.0167 140.279C23.9277 135.389 21.7207 127.128 22.0617 121.726C22.5907 113.321 23.9527 107.165 27.1767 98.6051C33.1817 82.6561 46.8947 58.4591 57.8827 44.4181C59.1467 42.8031 61.0947 40.2901 62.2107 38.8331C69.0717 29.8821 80.6617 19.3171 89.3507 14.0931C100.3 7.51207 112.569 2.88507 123.681 1.14607C129.456 0.242067 142.299 -0.273936 148.431 0.151064C161.862 1.08106 178.229 4.69907 186.801 8.63207C187.966 9.16707 189.027 9.60507 189.158 9.60507C189.289 9.60507 192.047 10.9271 195.288 12.5441C200.637 15.2111 204.548 17.3261 210.181 20.5981C211.281 21.2371 213.306 22.3711 214.681 23.1181C217.942 24.8911 229.157 31.5801 233.931 34.6001C235.993 35.9051 240.381 38.6161 243.681 40.6241C252.189 45.8021 256.431 50.1611 256.431 53.7271C256.431 54.3671 256.889 56.1921 257.448 57.7831C259.384 63.2921 259.931 70.4641 259.93 90.3231C259.929 107.425 259.345 118.731 258.109 125.605C257.367 129.733 254.035 134.183 251.144 134.909C248.284 135.627 247.573 133.601 249.623 130.582C250.832 128.804 252.431 124.678 252.431 123.338C252.431 122.362 252.092 122.401 248.366 123.803C244 125.445 232.94 127.695 222.181 129.131C220.256 129.388 217.556 129.808 216.181 130.065C214.806 130.323 211.768 130.789 209.431 131.102C205.59 131.616 202.699 132.038 192.431 133.582C188.183 134.221 177.149 135.523 172.556 135.929C170.103 136.145 168.931 136.075 168.931 135.71C168.931 135.08 169.44 134.912 174.431 133.892C176.493 133.471 179.756 132.779 181.681 132.355C187.944 130.975 189.122 130.728 193.431 129.887C195.768 129.431 199.706 128.611 202.181 128.065C206.546 127.102 219.001 124.835 228.181 123.333C230.656 122.928 234.481 122.255 236.681 121.838C238.881 121.421 243.381 120.988 246.681 120.875L252.681 120.67L253.03 113.512C253.221 109.576 253.52 103.699 253.692 100.452C253.909 96.3861 253.832 94.3381 253.445 93.8711C253.026 93.3671 253.035 93.0991 253.481 92.8241C253.931 92.5461 253.987 90.5121 253.708 84.6551C253.504 80.3651 253.169 73.0301 252.964 68.3551C252.58 59.6081 252.325 58.4331 249.711 53.3551C248.555 51.1111 246.373 49.5461 234.931 42.7591C230.944 40.3931 226.893 37.9601 225.931 37.3521C222.256 35.0281 215.946 31.5221 205.431 25.9621C202.819 24.5811 200.119 23.0751 199.431 22.6151C192.009 17.6571 175.069 11.3331 163.431 9.17307C161.918 8.89307 159.444 8.42607 157.931 8.13607C150.622 6.73607 126.029 7.02707 119.431 8.59207C118.194 8.88607 116.281 9.25507 115.181 9.41207C112.896 9.73907 109.854 10.7461 106.041 12.4351C104.589 13.0791 103.279 13.6051 103.129 13.6051C102.033 13.6051 92.1937 19.1581 88.4857 21.8691C84.1097 25.0691 82.5287 27.1481 85.0557 26.3801C95.2487 23.2801 105.197 22.3461 123.681 22.7501C138.533 23.0761 141.407 23.3041 146.681 24.5741C148.881 25.1041 151.637 25.6681 152.806 25.8271C159.061 26.6791 164.961 29.7651 167.563 33.5471C168.975 35.5981 169.115 36.1571 169.115 39.7121C169.115 42.0571 168.878 43.8581 168.523 44.2131C168.197 44.5391 167.931 45.0941 167.931 45.4471C167.931 47.4811 161.244 58.8761 155.788 66.1411C148.908 75.3011 144.487 79.3981 138.049 82.5811C135.388 83.8961 134.057 84.3731 129.431 85.6731C125.972 86.6441 119.059 87.2921 112.431 87.2661C105.062 87.2381 84.3277 86.3451 79.9307 85.8671C78.4187 85.7031 75.0437 85.3371 72.4307 85.0551C63.9727 84.1421 56.2207 82.1661 54.3847 80.4551C53.4527 79.5871 53.4217 79.4001 54.0947 78.7261C54.7487 78.0731 55.3747 78.0551 58.7657 78.5931C60.9187 78.9351 67.4057 79.3931 73.1807 79.6121C78.9557 79.8311 88.9687 80.2831 95.4307 80.6171C110.756 81.4091 125.387 81.0161 127.541 79.7541C128.385 79.2591 129.262 78.5171 129.49 78.1051C133.772 70.3661 140.358 59.9691 147.258 50.0571C150.538 45.3451 154.684 40.8941 155.388 41.3281C156.881 42.2511 155.509 45.2971 148.17 57.3551C138.425 73.3661 137.356 75.1961 137.606 75.4471C138.085 75.9251 142.177 72.7211 145.181 69.5161C150.23 64.1291 160.809 48.7971 163.001 43.6891C164.127 41.0661 164.189 38.5551 163.178 36.6001C162.371 35.0381 158.699 32.6051 157.151 32.6051C156.633 32.6051 153.502 31.9541 150.195 31.1591C140.75 28.8891 137.983 28.5141 121.931 27.3291C111.176 26.5351 104.533 26.6011 93.9307 27.6071C91.0437 27.8811 86.8477 28.2761 84.6077 28.4841L80.5347 28.8631L76.6077 32.4081C74.4477 34.3581 71.7127 37.1691 70.5297 38.6541C61.7827 49.6341 60.2827 51.6391 55.6017 58.6051C48.6877 68.8921 38.7347 86.7121 35.7717 94.1051C35.2767 95.3431 34.5447 97.0981 34.1467 98.0051C32.6817 101.344 29.9627 109.948 29.3747 113.105C28.5857 117.345 28.6817 126.742 29.5447 129.601C30.0777 131.368 30.6377 132.08 32.1757 132.942C34.4417 134.213 41.1657 136.51 44.4307 137.128C45.6687 137.363 47.6927 137.783 48.9307 138.064C69.9787 142.827 103.861 143.045 125.681 138.556C129.748 137.72 131.12 137.751 131.315 138.687C131.516 139.653 128.316 141.99 125.03 143.276C113.912 147.628 90.5537 149.805 73.3257 148.094C60.2737 146.798 57.9117 146.52 53.9307 145.81C49.1347 144.954 37.9297 141.778 37.2057 141.07C36.5367 140.415 35.9287 140.492 35.9437 141.23C35.9597 142.047 39.3597 145.632 42.6167 148.267C45.9517 150.966 54.0887 154.814 59.1807 156.101C65.2287 157.63 81.2777 160.012 86.6807 160.182C88.0557 160.226 94.2427 160.282 100.431 160.308C120.389 160.391 132.769 158.535 172.181 149.552C175.756 148.737 179.694 147.861 180.931 147.606C182.168 147.35 187.006 146.32 191.681 145.315C202.246 143.045 204.053 142.668 207.181 142.08C209.901 141.569 213.536 140.783 216.681 140.025C217.781 139.759 219.694 139.355 220.931 139.126C222.168 138.897 225.094 138.349 227.431 137.908C232.776 136.9 237.431 136.837 237.431 137.773C237.431 139.417 229.834 142.033 213.431 146.037C193.008 151.022 186.156 152.656 178.681 154.322C174.281 155.303 169.556 156.424 168.181 156.814C166.806 157.203 164.331 157.787 162.681 158.112C161.031 158.437 158.331 159.043 156.681 159.46C154.047 160.125 149.731 161.03 141.931 162.55C135.762 163.753 130.094 164.574 124.431 165.084C120.993 165.394 116.156 165.886 113.681 166.177C108.823 166.748 92.8497 166.512 82.1837 165.711C77.9597 165.393 75.2477 165.393 74.4337 165.71C73.7447 165.979 71.5047 166.642 69.4557 167.185C67.4067 167.727 64.8197 168.576 63.7057 169.072C62.5917 169.567 61.0057 170.118 60.1807 170.295C58.6227 170.631 49.4317 173.469 47.6807 174.156C47.1307 174.371 45.2187 175.144 43.4307 175.874C41.6427 176.603 37.7507 178.046 34.7817 179.081C31.8127 180.116 29.3947 181.164 29.4097 181.409C29.4237 181.654 32.5287 181.87 36.3087 181.888C42.5847 181.918 47.5017 182.278 59.4307 183.58C61.7677 183.835 66.0737 184.275 68.9987 184.558C71.9237 184.841 75.6357 185.318 77.2487 185.618C78.8617 185.918 81.8987 186.393 83.9987 186.675C87.6367 187.163 87.9537 187.124 90.7487 185.838C92.3607 185.097 95.7057 183.609 98.1807 182.532C100.656 181.456 103.131 180.378 103.681 180.138C104.231 179.897 106.481 179.026 108.681 178.201C115.102 175.794 115.003 175.883 111.431 175.729C108.571 175.606 99.9017 174.896 85.1807 173.579C82.7057 173.357 80.1187 173.06 79.4307 172.918C78.7427 172.776 75.7427 172.377 72.7637 172.032C67.5357 171.426 65.2217 170.64 66.1047 169.771C66.9287 168.958 87.1707 169.504 96.8357 170.601C106.053 171.646 118.25 173.434 118.899 173.835C119.082 173.949 121.921 173.133 125.207 172.023C131.444 169.915 131.839 169.796 137.931 168.178C139.993 167.631 142.806 166.865 144.181 166.476C146.733 165.754 151.355 164.532 158.931 162.576C162.988 161.529 164.301 161.222 172.931 159.299C174.993 158.84 178.369 158.038 180.431 157.517C187.223 155.802 193.142 154.468 195.681 154.08C198.103 153.71 200.101 153.315 210.681 151.112C213.431 150.54 216.694 149.866 217.931 149.615C219.168 149.364 222.206 148.664 224.681 148.059C227.156 147.453 230.194 146.791 231.431 146.587C232.668 146.384 236.043 145.761 238.931 145.203C247.265 143.594 251.143 143.671 250.035 145.424C249.84 145.732 247.319 146.71 244.431 147.598C241.543 148.485 237.432 149.748 235.294 150.404C233.156 151.06 228.656 152.285 225.294 153.127C221.932 153.969 218.506 154.855 217.681 155.097C216.856 155.339 215.168 155.808 213.931 156.139C212.694 156.47 211.006 156.927 210.181 157.155C208.159 157.714 197.682 160.304 192.431 161.544C190.094 162.096 186.775 162.898 185.056 163.326C183.337 163.755 180.525 164.452 178.806 164.875C177.087 165.299 174.781 165.88 173.681 166.166C172.581 166.453 170.781 166.913 169.681 167.188C167.797 167.659 165.645 168.218 162.181 169.139C161.356 169.358 159.725 169.777 158.556 170.071C154.989 170.967 152.243 171.702 150.931 172.11C150.243 172.324 147.319 173.217 144.431 174.093C141.543 174.969 138.056 176.091 136.681 176.585C135.306 177.079 132.493 178 130.431 178.632C125.696 180.082 113.858 184.365 111.061 185.639C109.896 186.17 108.72 186.605 108.45 186.605C108.179 186.605 106.995 187.038 105.819 187.567C104.643 188.096 102.556 189.029 101.181 189.641C99.8057 190.253 96.5437 191.705 93.9307 192.868C91.3177 194.032 86.1427 196.437 82.4307 198.213C72.3227 203.051 72.4347 203.013 70.8057 202.065ZM105.096 126.059C97.2037 123.024 96.3537 115.048 103.254 108.781C107.347 105.064 114.135 104.141 118.005 106.776C125.574 111.93 121.878 123.369 111.686 126.332C108.402 127.287 108.275 127.281 105.096 126.059ZM112.315 121.331C117.331 119.235 119.387 114.412 116.651 111.16C114.987 109.183 112.791 108.774 109.908 109.905C106.981 111.053 105.427 112.279 104.059 114.518C102.654 116.817 102.64 118.1 104 119.829C105.847 122.178 108.948 122.738 112.315 121.331ZM41.2687 120.912C37.9667 119.267 36.5177 117.784 35.8707 115.388C34.2737 109.464 37.7237 103.753 43.8167 102.237C49.4647 100.832 54.6507 106.222 53.7937 112.607C53.3957 115.572 51.2397 118.882 48.7577 120.336C45.5927 122.191 44.0707 122.308 41.2687 120.912ZM43.3347 118.34C46.4847 117.243 47.8687 116.187 48.9597 114.049C50.4417 111.144 50.2467 108.801 48.3777 107.056C47.1457 105.905 46.3647 105.605 44.5997 105.605C42.7327 105.605 42.1307 105.867 40.8607 107.23C38.3167 109.961 37.7857 112.587 39.1437 115.713C39.5367 116.616 39.9797 117.749 40.1287 118.23C40.4557 119.287 40.6027 119.292 43.3347 118.34ZM71.1807 121.622C65.0087 121.297 62.3897 120.523 61.7417 118.833C60.5877 115.827 63.4847 113.528 66.4347 115.107C66.9517 115.384 70.7987 115.71 74.9837 115.832C80.7067 115.999 82.7727 116.233 83.3137 116.774C84.1517 117.612 83.8407 118.949 82.3737 120.814C81.2517 122.24 81.9547 122.189 71.1807 121.622ZM177.772 97.0681C175.166 96.4381 171.673 93.9431 170.719 92.0301C169.011 88.6071 170.101 82.5381 173.571 76.1491C176.131 71.4381 182.958 61.6331 185.896 58.4501C191.488 52.3911 197.649 49.0961 203.359 49.1111C207.007 49.1201 213.967 51.0071 231.931 56.8571C244.056 60.8061 250.431 63.6531 250.431 65.1191C250.431 65.9481 250.093 66.1021 248.306 66.0871C245.252 66.0621 242.604 65.3821 230.681 61.5651C228.206 60.7731 222.131 58.9781 217.181 57.5761C208.853 55.2181 207.845 55.0401 203.681 55.1951C198.442 55.3901 195.812 56.4691 191.799 60.0721C185.73 65.5201 176.342 80.4641 175.604 85.8531C175.177 88.9691 176.158 90.3251 179.269 90.9181C182.107 91.4581 200.038 90.7221 200.462 90.0481C200.616 89.8021 200.795 85.1851 200.859 79.7891C200.922 74.3921 201.183 68.3741 201.437 66.4161C201.692 64.4571 201.907 61.4491 201.916 59.7301C201.929 56.9961 202.05 56.6051 202.883 56.6051C203.734 56.6051 203.879 57.1761 204.254 61.9801C204.824 69.2871 204.762 75.6231 204.042 83.3341C203.71 86.8971 203.605 89.9341 203.81 90.0841C204.014 90.2331 208.175 90.2841 213.056 90.1981L221.931 90.0411L221.964 82.1981C222.007 71.8281 222.914 62.8551 223.917 62.8551C224.395 62.8551 224.798 63.6441 225.065 65.1051C225.733 68.7561 225.686 83.0261 224.995 86.5321C224.65 88.2791 224.463 89.8031 224.578 89.9191C224.694 90.0341 228.026 90.1601 231.984 90.1971L239.181 90.2661L239.543 79.8291C239.742 74.0891 240.015 69.1071 240.149 68.7571C240.283 68.4081 240.709 68.2431 241.094 68.3911C242.032 68.7511 243.185 81.2281 242.774 86.5591L242.473 90.4651L246.061 90.7991C249.705 91.1371 252.15 92.1871 251.8 93.2621C251.132 95.3161 243.25 96.0601 215.431 96.6961C203.469 96.9691 190.531 97.2691 186.681 97.3611C182.831 97.4541 178.822 97.3221 177.772 97.0681ZM53.9307 72.3851C53.9307 71.9881 54.1557 71.5251 54.4307 71.3551C54.7057 71.1851 54.9307 70.4381 54.9307 69.6961C54.9307 66.3581 64.6957 51.9771 73.5477 42.2791C77.9717 37.4331 79.2827 36.2901 79.8127 36.8201C80.6757 37.6831 78.9417 40.1971 61.9047 62.7801C59.0317 66.5891 56.2307 70.4701 55.6807 71.4041C54.6257 73.1961 53.9307 73.5851 53.9307 72.3851ZM138.431 40.0241C116.915 38.2591 112.948 38.0371 99.7597 37.8601C92.3777 37.7611 86.1967 37.5381 86.0237 37.3651C85.1957 36.5361 88.3957 35.7641 97.9307 34.4931C106.252 33.3831 131.207 34.0921 137.931 35.6291C139.168 35.9121 141.756 36.4891 143.681 36.9121C148.478 37.9661 151.84 40.0341 149.827 40.6941C149.472 40.8101 144.344 40.5091 138.431 40.0241Z" fill="white"/>
</svg>
